o convex_0
v 0.042820 -0.061591 -0.079003
v 0.075579 0.078807 0.072314
v 0.075579 0.078807 0.061395
v -0.078854 0.077233 0.031751
v -0.077281 -0.077184 0.076988
v -0.077281 0.077233 -0.077430
v 0.077137 -0.077184 0.076988
v 0.077137 0.077233 -0.077430
v -0.077281 -0.077184 -0.075857
v 0.075579 -0.078758 -0.077430
v -0.077281 0.077233 0.076988
v 0.077137 0.077233 0.076988
v 0.078710 -0.077184 0.002108
v 0.077137 -0.061591 0.078561
v -0.075723 0.078807 -0.069626
v -0.052326 0.056952 0.078561
v -0.078854 -0.074053 -0.060264
v -0.049211 -0.078758 0.023947
v 0.078710 0.077233 0.070757
v 0.075579 0.075676 -0.079003
v -0.075723 -0.075627 0.078561
v -0.077281 -0.075611 -0.077430
v 0.078710 0.038228 -0.041555
v 0.074021 -0.078758 0.036425
v -0.074166 0.078807 0.030194
v 0.077137 -0.077184 -0.077430
v -0.072608 -0.078758 -0.041555
v 0.010061 0.010158 -0.079003
v -0.078854 -0.025702 0.039540
v 0.078710 -0.075627 0.073872
v 0.041262 0.078807 -0.032194
v 0.028785 0.044474 0.078561
v -0.078854 0.075660 0.066068
v -0.078854 0.039786 -0.035309
v 0.074021 -0.067822 -0.079003
v 0.078710 0.075676 -0.027505
v -0.078854 -0.074053 0.011454
v 0.028785 0.074118 -0.079003
v -0.046080 0.078807 0.056706
v 0.075579 -0.005435 0.078561
v -0.075723 0.024193 0.078561
v 0.077137 -0.075627 0.078561
v 0.078710 -0.030390 -0.030636
v 0.070906 0.078807 0.000550
v -0.014879 -0.078758 0.037982
v -0.075723 -0.078758 -0.005666
v -0.078854 0.077233 0.000535
v 0.030342 -0.058476 -0.079003
v -0.003974 -0.078758 -0.061822
v -0.078854 -0.069396 -0.061837
v 0.077137 -0.078758 0.008354
v -0.071050 -0.077184 -0.077430
v 0.027211 -0.078758 0.039555
v -0.077281 0.078807 0.000550
v -0.078854 -0.075611 -0.046229
v 0.010061 0.078807 -0.044671
v 0.078710 0.075676 0.072314
f 30 19 57 
f 2 11 12 
f 2 3 15 
f 8 6 15 
f 12 11 16 
f 3 2 19 
f 8 3 19 
f 2 12 19 
f 6 8 20 
f 5 7 21 
f 11 5 21 
f 14 16 21 
f 9 17 22 
f 19 13 23 
f 18 10 24 
f 2 15 25 
f 13 10 26 
f 20 8 26 
f 8 23 26 
f 10 18 27 
f 20 1 28 
f 22 6 28 
f 4 17 29 
f 13 19 30 
f 15 3 31 
f 12 16 32 
f 16 14 32 
f 11 4 33 
f 5 11 33 
f 4 29 33 
f 29 5 33 
f 17 4 34 
f 1 20 35 
f 26 10 35 
f 20 26 35 
f 8 19 36 
f 23 8 36 
f 19 23 36 
f 5 29 37 
f 29 17 37 
f 6 20 38 
f 20 28 38 
f 28 6 38 
f 11 2 39 
f 2 25 39 
f 25 11 39 
f 14 12 40 
f 12 32 40 
f 32 14 40 
f 16 11 41 
f 11 21 41 
f 21 16 41 
f 21 7 42 
f 14 21 42 
f 7 30 42 
f 30 14 42 
f 23 13 43 
f 13 26 43 
f 26 23 43 
f 3 8 44 
f 31 3 44 
f 8 31 44 
f 5 18 45 
f 18 24 45 
f 18 5 46 
f 9 27 46 
f 27 18 46 
f 34 4 47 
f 6 34 47 
f 28 1 48 
f 22 28 48 
f 27 9 49 
f 10 27 49 
f 6 22 50 
f 22 17 50 
f 34 6 50 
f 17 34 50 
f 10 13 51 
f 7 24 51 
f 24 10 51 
f 30 7 51 
f 13 30 51 
f 9 22 52 
f 1 35 52 
f 35 10 52 
f 48 1 52 
f 22 48 52 
f 49 9 52 
f 10 49 52 
f 7 5 53 
f 24 7 53 
f 5 45 53 
f 45 24 53 
f 4 11 54 
f 15 6 54 
f 11 25 54 
f 25 15 54 
f 47 4 54 
f 6 47 54 
f 17 9 55 
f 5 37 55 
f 37 17 55 
f 46 5 55 
f 9 46 55 
f 8 15 56 
f 31 8 56 
f 15 31 56 
f 12 14 57 
f 19 12 57 
f 14 30 57 
