o convex_side
v -0.026137500 0.047499020 -0.080247250
v 0.026982500 -0.023611980 0.086448750
v -0.058777500 0.011883020 0.046660750
v 0.044774500 -0.038377980 -0.074708250
v 0.057894500 0.007525020 -0.075005250
v 0.038246500 -0.034325980 0.085141750
v -0.047577500 0.019942020 -0.081425250
v -0.021209500 0.055213020 -0.073714250
v -0.017241500 -0.055690980 -0.076433250
v -0.032281500 0.051546020 -0.066399250
v -0.060441500 0.005939020 0.041976750
v 0.051686500 -0.022474980 -0.078193250
v 0.042534500 0.040229020 -0.076348250
v 0.034022500 -0.050012980 -0.066887250
v 0.024911500 0.054858020 0.048356750
v 0.053775500 -0.011761980 -0.079524250
v 0.045263500 0.039670020 0.048736750
v 0.048591500 -0.029654980 -0.077594250
v -0.060848500 0.005484020 -0.065782250
v 0.036815500 0.039702020 -0.080874250
v -0.037232500 0.033220020 0.086164750
v 0.048655500 0.030265020 -0.077730250
v 0.059151500 -0.001920980 -0.072638250
v 0.048079500 0.017780020 0.085730750
v 0.005519500 -0.060494980 0.041789750
v 0.054031500 0.027384020 0.046853750
v -0.046832500 0.034289020 -0.076493250
v 0.011535500 0.056598020 -0.076829250
v -0.041520500 0.039855020 -0.077151250
v -0.059696500 -0.007196980 0.046514750
v 0.041272500 -0.044258980 -0.066510250
v -0.039879500 -0.029951980 0.086274750
v -0.029959500 0.051455020 0.048970750
v -0.000455500 -0.059643980 -0.072559250
v -0.020103500 -0.056928980 -0.070563250
v 0.003512500 -0.059402980 0.049828750
v 0.048120500 -0.018253980 0.085340750
v 0.021304500 -0.056888980 0.041885750
v -0.059271500 -0.005384980 0.049608750
v 0.054776500 -0.025579980 -0.066675250
v 0.048888500 0.015816020 0.085435750
v 0.025336500 -0.055125980 0.041938750
v -0.044743500 -0.041404980 0.042018750
v 0.026808500 -0.053751980 0.046301750
v 0.009249500 -0.050158980 0.085806750
v 0.038753500 -0.033382980 0.085789750
v -0.039198500 -0.045424980 0.048229750
v 0.030945500 -0.047660980 -0.077822250
v 0.055201500 0.022433020 -0.071868250
v 0.049569500 -0.023481980 -0.079697250
v -0.051998500 0.023253020 -0.077885250
v 0.050273500 0.024652020 -0.079039250
v -0.051294500 0.019905020 -0.079734250
v 0.035233500 -0.033556980 -0.081914250
v 0.006497500 0.060095020 0.046367750
v -0.053109500 0.026764020 -0.073758250
v -0.050485500 0.029479020 -0.075811250
v -0.057013500 0.020468020 0.041852750
v 0.049162500 -0.031852980 -0.074965250
v -0.055605500 -0.008865980 -0.078752250
v -0.031925500 0.046132020 -0.078657250
v 0.057866500 0.018123020 0.046081750
v -0.024693500 0.054186020 -0.072526250
v 0.046794500 0.020381020 0.085913750
v -0.034421500 -0.037479980 0.085510750
v 0.041674500 -0.043618980 0.041562750
v 0.038410500 0.045377020 -0.074494250
v -0.035637500 0.042131020 -0.079420250
v 0.007690500 -0.058938980 0.049909750
v 0.020170500 0.046887020 0.085943750
v -0.049205500 -0.036411980 -0.065533250
v 0.056330500 0.014837020 -0.075653250
v -0.036044500 -0.048683980 -0.071535250
v -0.033420500 0.049318020 -0.072867250
v -0.058316500 0.001675020 -0.075967250
v -0.050252500 0.031457020 -0.074246250
v -0.020748500 0.057239020 0.041660750
v 0.050803500 0.020322020 -0.080130250
v -0.046732500 0.038975020 -0.066222250
v -0.059788500 -0.004517980 -0.072210250
v -0.049292500 0.034511020 -0.070657250
v -0.028300500 -0.042160980 0.085977750
v -0.015756500 0.058863020 0.041594750
v -0.023587500 -0.055424980 0.047079750
v -0.046499500 -0.037595980 -0.074560250
v -0.059555500 0.003201020 0.048792750
v -0.044451500 0.024587020 0.085739750
v 0.034268500 -0.039948980 -0.080968250
v 0.022492500 0.054744020 -0.074206250
v 0.048092500 0.036960020 -0.066661250
v 0.044188500 -0.026233980 0.085147750
v 0.016732500 -0.048169980 0.085811750
v 0.019356500 0.056500020 -0.072005250
v -0.038947500 -0.031535980 -0.081610250
v -0.056611500 0.022457020 -0.066498250
v 0.041052500 0.030437020 0.085912750
v -0.061091500 -0.003842980 -0.066143250
v 0.031324500 0.049900020 -0.075561250
v -0.019107500 -0.058060980 -0.066268250
v 0.039900500 -0.036267980 -0.080311250
v -0.059043500 -0.011097980 0.047319750
v -0.015779500 -0.053315980 -0.079528250
v -0.013114500 -0.056604980 -0.076608250
v 0.010501500 0.052228020 -0.080997250
v 0.031493500 0.051814020 0.046011750
v -0.041210500 -0.042775980 0.050472750
v 0.029573500 -0.041618980 0.085744750
v 0.056453500 0.022201020 -0.066593250
v -0.053626500 0.000340020 -0.080747250
v 0.036165500 -0.047571980 -0.071180250
v -0.031226500 0.051218020 0.046485750
v 0.009413500 0.054313020 -0.079806250
v -0.052794500 -0.005493980 -0.081028250
v -0.057978500 -0.016282980 0.046394750
v -0.003578500 -0.055919980 -0.079039250
v 0.000389500 0.060753020 -0.066486250
v -0.005498500 -0.059950980 0.046622750
v -0.025146500 -0.054047980 -0.074248250
v 0.045701500 -0.039615980 -0.066232250
v 0.052997500 0.010140020 -0.080577250
v 0.055621500 0.001048020 -0.079078250
v -0.005946500 -0.053824980 -0.080502250
v 0.015045500 0.058897020 -0.066658250
v 0.042670500 -0.034864980 -0.079467250
v 0.056494500 0.023815020 0.041393750
v 0.043502500 0.035345020 -0.079322250
v -0.046225500 0.037316020 0.048811750
v -0.014737500 0.058049020 0.048237750
v -0.037649500 0.033999020 0.085902750
v 0.014830500 0.049568020 -0.081715250
v 0.053550500 0.025836020 -0.072717250
v -0.025681500 0.054281020 0.046801750
v 0.041838500 -0.041307980 -0.074809250
v -0.026216500 -0.054254980 0.047039750
v -0.032744500 0.051032020 0.041751750
v 0.029527500 0.049301020 -0.077915250
v 0.014487500 0.057901020 -0.072267250
v 0.023703500 -0.055886980 -0.066609250
v 0.051287500 -0.016817980 -0.080398250
v -0.060072500 0.001124020 0.046290750
v -0.057448500 0.009696020 -0.076103250
v -0.038376500 0.043745020 -0.076134250
v 0.035031500 0.047804020 -0.074889250
v 0.058135500 0.019300020 0.041515750
v -0.025064500 0.044159020 0.085883750
v -0.001448500 0.051645020 -0.081673250
v 0.037271500 0.047737020 -0.066233250
v -0.017023500 0.055572020 -0.076048250
v 0.059008500 -0.005669980 -0.072111250
v 0.046784500 -0.037131980 -0.071847250
v -0.027199500 -0.054805980 -0.066180250
v -0.052095500 -0.032170980 -0.065602250
v 0.050944500 -0.007786980 0.084978750
v -0.021759500 -0.055845980 -0.072800250
v 0.015616500 0.051955020 -0.080539250
v -0.034815500 0.048596020 0.047590750
v -0.030207500 -0.049084980 -0.078003250
v -0.052479500 -0.015355980 -0.080155250
v 0.035369500 -0.049048980 0.041414750
v 0.051753500 -0.030359980 0.046678750
v -0.056342500 0.018531020 -0.074020250
v 0.007913500 -0.055865980 -0.078385250
v 0.044009500 0.040516020 -0.071955250
v -0.041110500 0.029675020 0.085889750
v 0.004841500 -0.050577980 0.085924750
v 0.021929500 -0.046085980 0.085809750
v -0.036374500 -0.047900980 0.047624750
v -0.020630500 -0.055190980 -0.075543250
v -0.050710500 0.004023020 0.085258750
v -0.059862500 -0.010675980 0.042068750
v 0.002409500 -0.057878980 -0.076483250
v -0.042134500 0.027197020 0.086169750
v -0.050518500 -0.032886980 0.046183750
v -0.026221500 -0.042625980 0.086252750
v 0.059666500 0.009890020 0.047053750
v -0.033965500 -0.049664980 -0.073370250
v 0.042770500 -0.025368980 -0.081945250
v 0.047378500 0.033646020 -0.076581250
v 0.049362500 0.013492020 0.085804750
v -0.057453500 -0.012196980 -0.075536250
v 0.032466500 -0.049998980 -0.072097250
v 0.011538500 -0.048077980 -0.082054250
v 0.040402500 0.031905020 0.085097750
v -0.042157500 0.029088020 -0.081289250
v 0.041746500 -0.028377980 0.085987750
v -0.038829500 -0.046084980 -0.073641250
v -0.058477500 -0.015397980 -0.070275250
v -0.007277500 -0.050258980 0.085955750
v -0.059693500 0.006712020 0.046098750
v 0.007826500 0.056358020 -0.077964250
v 0.015739500 -0.055902980 -0.075930250
v -0.049796500 -0.005941980 0.086288750
v -0.058948500 -0.016885980 -0.066071250
v 0.033531500 0.050531020 -0.066527250
v 0.046651500 0.039702020 0.041450750
v 0.030971500 0.052850020 0.041444750
v 0.035643500 0.043351020 -0.079616250
v -0.020676500 0.048589020 -0.081110250
v 0.059963500 0.003657020 0.048660750
v 0.047547500 0.024977020 -0.080871250
v -0.044164500 -0.024154980 0.086176750
v 0.037819500 0.048148020 0.041425750
v -0.056516500 -0.004002980 -0.078328250
v -0.056516500 -0.021176980 -0.071254250
v -0.010628500 -0.049962980 0.085407750
v 0.043771500 -0.036882980 -0.077370250
v 0.048379500 -0.016570980 0.085793750
v -0.042052500 0.041764020 0.049386750
v 0.000571500 0.055301020 -0.079584250
v 0.056955500 -0.003763980 -0.077212250
v 0.018980500 0.057714020 -0.066557250
v -0.053659500 -0.027936980 -0.071038250
v 0.033508500 0.042206020 -0.081048250
v 0.019748500 -0.045422980 -0.082038250
v 0.020452500 -0.056222980 0.048188750
v -0.007067500 0.058769020 -0.073605250
v -0.052251500 0.030340020 0.041745750
v 0.054052500 -0.021801980 -0.075207250
v -0.003611500 -0.058529980 -0.075359250
v -0.012763500 0.049247020 0.085837750
v -0.054683500 0.022734020 -0.074260250
v 0.049572500 -0.012595980 0.085778750
v -0.055259500 -0.002283980 -0.079681250
v 0.016228500 -0.048651980 0.085231750
v 0.018852500 0.046704020 0.086166750
v -0.042715500 -0.043842980 -0.065661250
v -0.051867500 0.003224020 -0.081412250
v 0.053028500 -0.029222980 -0.066701250
v -0.047858500 -0.013588980 0.086306750
v -0.015730500 -0.048351980 0.085903750
v 0.030221500 0.039819020 -0.082119250
v -0.054258500 0.025857020 -0.071357250
v 0.050637500 0.007706020 0.085755750
v 0.050637500 -0.009715980 -0.081716250
v 0.027085500 -0.043065980 0.085899750
v 0.023821500 -0.045807980 -0.081587250
v 0.060557500 -0.000444980 -0.066494250
v -0.010866500 0.052195020 -0.080920250
v -0.033138500 -0.049852980 0.049028750
v 0.033101500 -0.050574980 0.041955750
v -0.046770500 0.037881020 -0.070840250
v -0.061170500 -0.001204980 -0.066172250
v 0.039821500 -0.040784980 -0.077666250
v -0.048626500 -0.014324980 0.085821750
v 0.041165500 -0.041005980 -0.076205250
v 0.004493500 -0.059132980 -0.073426250
v -0.050546500 -0.003042980 0.086005750
v -0.000690500 -0.055162980 -0.079763250
v -0.006473500 0.056582020 -0.077761250
v 0.007350500 0.060327020 -0.066590250
v 0.052598500 0.025899020 -0.075174250
v -0.037129500 0.046917020 0.046737750
v 0.057910500 -0.010587980 -0.073641250
v -0.044233500 0.023393020 0.086189750
v -0.056009500 0.024041020 -0.065912250
v -0.001545500 -0.060824980 0.041746750
v 0.012342500 -0.058840980 0.047005750
v 0.029430500 0.051871020 -0.073195250
v -0.041993500 0.041547020 -0.074538250
v -0.055008500 0.008605020 -0.079234250
v 0.053151500 0.002080020 -0.081068250
v 0.039391500 -0.044939980 0.046523750
v 0.019743500 0.057290020 0.045972750
v -0.016928500 -0.057652980 -0.071839250
v 0.009375500 -0.060047980 0.041703750
v 0.051359500 0.032359020 -0.066612250
v 0.059231500 0.007162020 -0.071018250
v -0.056672500 0.014482020 -0.075634250
v -0.015328500 0.053871020 -0.078756250
v 0.049567500 0.034901020 0.046586750
v 0.021407500 0.048501020 -0.081257250
v 0.041119500 0.032271020 -0.081635250
v 0.041119500 -0.030785980 0.085266750
v -0.021088500 0.052835020 -0.077824250
v 0.005791500 0.051071020 -0.081777250
v -0.020384500 0.056503020 0.047107750
v -0.040032500 0.039088020 -0.078815250
v 0.019080500 0.006624020 0.086548750
v 0.051912500 0.031390020 0.046229750
v -0.026615500 -0.054159980 -0.071687250
v 0.047496500 0.037174020 0.048224750
v 0.036360500 -0.046540980 -0.074018250
v 0.023304500 0.056084020 -0.066600250
v -0.040183500 -0.045529980 -0.071256250
v -0.023799500 -0.053570980 -0.076273250
v 0.011592500 0.060036020 0.041545750
v -0.053239500 -0.021733980 -0.077696250
v -0.036855500 -0.037188980 -0.081338250
v -0.046007500 -0.019484980 0.086280750
v -0.048567500 -0.028733980 -0.079006250
v 0.052360500 -0.024542980 -0.076147250
v 0.035336500 -0.045272980 -0.077022250
v -0.030199500 0.044811020 -0.080306250
v 0.045832500 -0.022903980 0.085676750
v -0.009806500 0.054193020 -0.079727250
v -0.057614500 -0.020885980 -0.066052250
v 0.035505500 -0.036931980 0.085629750
v 0.048625500 -0.020431980 -0.081105250
v -0.011662500 0.058566020 -0.071700250
v -0.032526500 -0.038864980 0.085980750
v 0.003569500 -0.058583980 -0.075071250
v -0.054030500 0.027129020 0.041779750
v -0.036302500 -0.035161980 0.086102750
v 0.028657500 -0.047160980 -0.079462250
v -0.046670500 0.017410020 0.086225750
v -0.033445500 -0.045097980 -0.079486250
v -0.004517500 0.060839020 0.041626750
v 0.053850500 -0.014569980 -0.078781250
v 0.047322500 -0.033455980 -0.076270250
v -0.016229500 0.048400020 0.085347750
v 0.032986500 0.038977020 0.085946750
v 0.010714500 -0.050084980 0.084801750
v -0.012837500 -0.058763980 -0.071019250
v 0.015386500 -0.053425980 -0.079183250
v 0.042266500 0.041710020 -0.074310250
v -0.027173500 -0.054565980 0.041947750
v 0.028570500 -0.052444980 -0.071134250
v -0.018597500 -0.048983980 -0.081292250
v -0.041509500 -0.043174980 -0.074725250
v -0.042149500 -0.033129980 -0.080880250
v 0.036506500 0.044432020 -0.078221250
v -0.007397500 0.059560020 0.048120750
v 0.054874500 0.024898020 0.048412750
v 0.043738500 0.026116020 0.085970750
v 0.046362500 -0.022296980 0.085186750
v 0.048986500 0.036782020 0.041423750
v -0.003429500 0.055633020 -0.079074250
v -0.058469500 0.015909020 0.041647750
v -0.017829500 -0.046864980 0.086226750
v -0.045285500 -0.024596980 -0.081483250
v -0.042661500 0.043319020 -0.066440250
v 0.041882500 0.026947020 -0.082201250
v -0.046565500 0.024363020 -0.080995250
v 0.059610500 -0.012925980 0.041702750
v 0.020995500 -0.056364980 0.046208750
v -0.049724500 -0.010692980 0.085023750
v -0.053628500 0.017892020 -0.078358250
v 0.057795500 -0.019318980 0.041473750
v 0.007427500 -0.050642980 0.085319750
v 0.009475500 -0.057125980 -0.076299250
v -0.050812500 -0.001393980 0.084982750
v -0.027132500 0.048989020 -0.078799250
v -0.057916500 0.019222020 -0.066184250
v 0.033219500 0.046346020 -0.078608250
v 0.055555500 -0.021900980 0.049171750
v 0.058179500 0.001234020 -0.075352250
v -0.018492500 -0.057420980 0.046269750
v 0.051651500 0.029955020 -0.071677250
v 0.052355500 -0.018971980 -0.078900250
v 0.030188500 -0.051258980 0.048988750
v -0.054995500 -0.024327980 0.047195750
v -0.056275500 -0.021417980 0.046342750
v -0.013011500 -0.059534980 0.041822750
v -0.005779500 -0.060733980 -0.066596250
v 0.049964500 -0.034005980 -0.067184250
v -0.044371500 0.040055020 0.046608750
v -0.039699500 -0.046692980 -0.066054250
v -0.023315500 0.056152020 -0.066432250
v 0.021356500 -0.048557980 -0.080990250
v 0.023340500 -0.054847980 -0.071778250
v -0.020435500 -0.052007980 -0.079413250
v 0.022933500 0.049787020 -0.080247250
v 0.038741500 0.041681020 -0.078803250
v 0.023701500 -0.048906980 -0.080138250
v 0.017813500 -0.046914980 0.086091750
v 0.053205500 -0.026340980 -0.072234250
v 0.026517500 -0.043924980 0.085332750
v -0.044906500 -0.041667980 -0.066305250
v 0.051477500 -0.002420980 0.084952750
v 0.025941500 0.045752020 -0.081462250
v 0.049045500 0.006935020 -0.082271250
v -0.058945500 0.008316020 -0.073470250
v 0.000062500 -0.060187980 0.046750750
v -0.048385500 -0.037035980 0.042010750
v 0.000126500 -0.051108980 0.085425750
v 0.051902500 -0.031095980 -0.066406250
v 0.054526500 0.022095020 -0.074487250
v -0.041793500 -0.044726980 -0.066478250
v -0.050305500 -0.024907980 -0.079174250
v 0.042110500 0.043515020 -0.066876250
v -0.043073500 0.034303020 -0.079594250
v 0.005438500 0.059339020 -0.072416250
v 0.020542500 -0.051310980 -0.079426250
v 0.027262500 -0.040758980 -0.082010250
v 0.060094500 0.007460020 -0.066928250
v 0.001854500 0.059607020 -0.072022250
v 0.039934500 -0.044449980 -0.071131250
v 0.056318500 -0.023037980 0.041533750
v 0.024231500 -0.055652980 0.041260750
v 0.028839500 0.040746020 0.086147750
v -0.010456500 0.058679020 0.049436750
v 0.031527500 -0.051634980 0.041256750
v 0.050535500 0.034705020 0.041356750
v 0.048679500 -0.006945980 -0.082322250
v -0.055512500 0.012933020 -0.077882250
v 0.025127500 -0.054234980 0.048285750
v 0.021863500 -0.053411980 -0.076497250
v -0.023960500 0.055912020 0.041550750
v -0.059288500 0.012865020 0.041870750
v -0.042840500 0.027409020 0.085040750
v -0.018584500 0.057893020 -0.066462250
v -0.057816500 0.015550020 0.047285750
v -0.030232500 -0.041045980 0.085174750
v 0.051047500 0.000885020 -0.082000250
v -0.026904500 0.044966020 -0.081171250
v -0.040664500 0.030528020 0.085530750
v -0.046511500 -0.019506980 0.086172750
v -0.035311500 -0.048004980 -0.075183250
v -0.010287500 0.059907020 -0.066545250
v -0.054127500 -0.012688980 -0.079472250
v 0.031760500 -0.043946980 -0.080158250
v 0.058192500 -0.014005980 0.048932750
v -0.032134500 0.049242020 -0.074816250
v 0.044601500 0.037344020 -0.076728250
v -0.060870500 0.005110020 -0.066357250
v -0.021510500 0.055821020 -0.071013250
v 0.015865500 -0.056981980 -0.073562250
v -0.060806500 -0.007520980 -0.066132250
v -0.043078500 0.042153020 0.042046750
v -0.056838500 -0.015823980 -0.075225250
v 0.051321500 0.026522020 -0.076853250
v 0.055929500 0.010266020 -0.077698250
v 0.040889500 0.044657020 -0.066244250
v 0.029753500 0.052895020 -0.066636250
v -0.021958500 -0.057046980 -0.066053250
v 0.032697500 -0.050194980 0.046319750
v -0.009222500 0.057495020 -0.075708250
v 0.044578500 -0.029472980 -0.080588250
v 0.042722500 0.042838020 0.047192750
v 0.058466500 0.008144020 -0.073503250
v 0.005410500 0.055183020 -0.079514250
v 0.042786500 -0.028211980 0.085681750
v -0.058077500 0.012482020 0.049371750
v 0.017314500 -0.057569980 0.046456750
v 0.054690500 -0.026458980 0.041477750
v 0.060642500 0.008084020 0.041478750
v 0.013474500 -0.058306980 -0.071003250
v 0.051490500 0.014694020 -0.080907250
v 0.042978500 -0.028004980 -0.081463250
v 0.036450500 -0.048345980 -0.066452250
v 0.007074500 -0.059394980 -0.071401250
v -0.018461500 0.056806020 -0.071497250
v 0.026786500 0.054434020 0.045966750
v 0.029410500 0.052655020 0.048226750
v -0.058397500 -0.013106980 -0.072992250
v 0.046539500 -0.025053980 -0.080987250
v -0.057588500 0.017456020 -0.070968250
v 0.051211500 0.000652020 0.085763750
v 0.056459500 -0.017922980 -0.072652250
v 0.039499500 0.043587020 -0.076060250
v -0.056116500 -0.024533980 -0.065826250
v 0.057931500 -0.013513980 -0.071185250
v -0.017396500 -0.056596980 -0.074630250
v -0.031668500 0.038620020 0.086170750
v 0.033227500 0.049951020 0.049337750
v -0.041460500 -0.044063980 -0.072627250
v -0.004724500 -0.059258980 -0.073292250
v -0.047284500 -0.018577980 0.085681750
v -0.036084500 0.048622020 0.041624750
v -0.032779500 -0.041720980 -0.081139250
v -0.012427500 0.059672020 0.041635750
v -0.038539500 0.037911020 -0.080163250
v -0.012299500 0.049864020 -0.081687250
v 0.059828500 -0.009139980 -0.066641250
v -0.012875500 0.058855020 0.046413750
v -0.059403500 -0.000756980 -0.073844250
v 0.059252500 0.001886020 -0.072364250
v -0.006923500 -0.057248980 -0.077188250
v -0.059979500 -0.002303980 0.047304750
v 0.040308500 0.046113020 0.041369750
v -0.038987500 -0.046865980 0.041945750
v -0.022603500 0.055091020 0.049347750
v 0.032564500 -0.039549980 0.085600750
v 0.003764500 0.053258020 -0.080958250
v 0.012980500 0.057280020 -0.075045250
v 0.050996500 -0.005115980 0.085683750
v 0.049716500 -0.032233980 0.049947750
v -0.045963500 -0.030126980 -0.080189250
v -0.046498500 0.038408020 0.041692750
v 0.059037500 0.013632020 -0.067084250
v -0.054306500 0.027731020 -0.066193250
v 0.045981500 -0.037379980 0.049757750
v -0.032610500 0.038827020 0.085911750
v 0.054557500 0.027912020 0.041406750
v 0.001501500 -0.053507980 -0.080836250
v -0.047650500 -0.038537980 -0.066347250
v 0.046109500 0.039398020 0.046173750
v 0.039581500 -0.031952980 -0.081555250
v 0.040925500 -0.038795980 -0.078402250
v 0.048157500 0.015823020 0.085984750
v -0.035042500 0.039039020 -0.080956250
v -0.029794500 -0.051863980 -0.074124250
v 0.050205500 0.011590020 0.085175750
v -0.053986500 0.025247020 0.048094750
v -0.008738500 -0.059275980 -0.071967250
v -0.040738500 -0.042184980 -0.077057250
v -0.013113500 -0.058829980 0.046456750
v -0.004537500 0.059556020 -0.071758250
v -0.018297500 0.051444020 -0.080055250
v 0.034182500 -0.049960980 -0.066222250
v 0.050566500 -0.033257980 0.041549750
v -0.004473500 -0.050885980 0.085562750
v 0.050694500 -0.008196980 0.085561750
v -0.037753500 0.032654020 -0.081474250
v 0.020166500 0.053885020 -0.077366250
v -0.056976500 -0.018244980 -0.073130250
v -0.028752500 -0.047417980 -0.079901250
v -0.049040500 0.033193020 0.049438750
v 0.054511500 0.026679020 -0.066549250
v -0.000528500 0.061060020 0.041645750
v -0.052240500 0.025728020 -0.076149250
v -0.040336500 -0.030177980 0.086156750
v 0.016687500 0.055046020 -0.077292250
v -0.011472500 -0.060026980 -0.066324250
v 0.044271500 0.042252020 0.041758750
v 0.060015500 0.008130020 -0.066337250
v 0.040367500 0.035218020 -0.081081250
v -0.036304500 0.046617020 -0.074401250
v -0.050704500 -0.012604980 -0.081314250
v -0.006736500 -0.049225980 0.086203750
v -0.031568500 -0.038778980 0.086271750
v -0.048592500 -0.008354980 -0.081760250
v 0.045807500 0.033898020 -0.078288250
v -0.016359500 -0.057654980 0.048511750
v 0.057112500 0.017775020 -0.070318250
v 0.017176500 -0.057059980 0.049070750
v 0.050648500 -0.031449980 -0.071854250
v -0.048231500 0.014908020 0.086024750
v -0.023975500 -0.052225980 -0.077913250
v -0.010151500 0.024293020 0.086539750
v 0.054168500 -0.018023980 -0.077168250
v 0.034520500 -0.048018980 0.050139750
v 0.045016500 0.040673020 -0.066562250
v -0.048679500 -0.034303980 -0.074840250
v 0.018840500 0.052907020 -0.079015250
v -0.053799500 -0.025943980 -0.073790250
v 0.024961500 -0.050030980 -0.078802250
v -0.043774500 -0.042054980 -0.070701250
v -0.052926500 0.012279020 -0.080245250
v -0.026686500 -0.046330980 -0.080956250
v -0.058750500 -0.007698980 -0.074420250
v 0.047425500 0.036434020 -0.071658250
v -0.050878500 0.016437020 -0.080734250
v 0.024641500 -0.053411980 -0.074471250
v 0.056769500 -0.011120980 -0.075886250
v -0.043454500 -0.040022980 -0.076368250
v 0.007681500 -0.060355980 -0.066404250
v 0.056897500 0.003903020 -0.077382250
v -0.034174500 -0.049751980 0.046051750
v 0.039937500 0.044624020 -0.072330250
v -0.000597500 0.051057020 0.085820750
v -0.022101500 -0.007374980 0.086670750
v -0.048917500 0.004157020 -0.081786250
v 0.046122500 -0.038955980 0.041530750
v 0.021226500 0.056403020 0.048153750
v 0.044842500 -0.039573980 0.046736750
v -0.053397500 -0.008902980 -0.080487250
v -0.052693500 -0.025615980 -0.076250250
v 0.004330500 0.058030020 -0.075993250
v -0.007445500 -0.059227980 0.049290750
v -0.046741500 0.018215020 -0.081720250
v 0.024042500 0.056359020 0.041475750
v -0.050005500 -0.007842980 0.086010750
v 0.026730500 0.049279020 -0.079313250
v 0.019562500 -0.055531980 -0.074311250
v -0.050476500 -0.034084980 0.042032750
v -0.053740500 -0.029461980 -0.066195250
v 0.059667500 -0.009149980 0.046632750
v 0.044051500 0.026569020 0.085360750
v 0.004115500 0.060623020 -0.066589250
v -0.034476500 0.037471020 0.085446750
v 0.003539500 -0.051328980 -0.081719250
v 0.057939500 0.012829020 -0.072685250
v -0.040364500 0.044949020 0.041737750
v 0.044179500 0.031704020 -0.080590250
v 0.021395500 0.046669020 0.085513750
v -0.028396500 0.051860020 -0.074030250
v 0.043091500 0.043405020 0.041085750
v 0.048339500 -0.012963980 -0.082142250
v -0.017196500 0.057712020 0.046026750
v -0.044716500 0.038034020 -0.075534250
v 0.031315500 0.046428020 -0.079598250
v -0.045996500 0.038202020 -0.072825250
v 0.048403500 -0.035058980 0.047516750
v -0.047916500 -0.015849980 0.086138750
v -0.045292500 -0.039165980 0.048889750
v 0.005244500 0.050707020 0.085848750
v -0.039939500 -0.045170980 0.046345750
v 0.026300500 0.054702020 -0.066602250
v 0.045308500 0.025148020 -0.081786250
v -0.045763500 -0.037296980 -0.076201250
v 0.001468500 -0.056856980 -0.077937250
v 0.026428500 -0.050929980 -0.077055250
v 0.055932500 -0.016662980 -0.074876250
v -0.048259500 0.015884020 0.085479750
v 0.052028500 -0.027622980 -0.074024250
v -0.035779500 -0.049703980 -0.066128250
v 0.012732500 -0.019991980 0.086708750
v -0.016067500 0.057080020 -0.073255250
v -0.021059500 -0.046487980 -0.081615250
v -0.047875500 0.027603020 -0.079436250
v -0.011162500 0.055758020 -0.077862250
v -0.059610500 0.010968020 0.042203750
v -0.041242500 0.044607020 -0.066017250
v -0.028698500 0.041882020 0.085874750
v 0.019813500 -0.053615980 -0.077382250
v -0.037850500 0.045535020 0.049750750
v 0.012005500 -0.059616980 -0.066348250
v -0.058650500 0.014092020 -0.069916250
v 0.054949500 0.018468020 -0.076204250
v 0.057573500 -0.017756980 0.046785750
v 0.049061500 0.031933020 -0.075652250
v 0.034766500 0.050431020 0.041368750
v -0.058289500 -0.013558980 0.048412750
v -0.003185500 0.054003020 -0.080497250
v 0.023118500 0.056006020 0.046441750
v 0.058638500 -0.014077980 0.046637750
v -0.034289500 -0.046273980 -0.078186250
v -0.024433500 0.052929020 -0.075790250
v 0.010958500 0.059792020 -0.066493250
v -0.050545500 0.001800020 0.086027750
v 0.001975500 0.060334020 0.046614750
v 0.028215500 -0.051961980 -0.073580250
v 0.055095500 0.008346020 -0.079068250
v 0.060343500 -0.004733980 -0.066686250
v -0.022216500 0.050471020 -0.079566250
v 0.001399500 0.050347020 0.086188750
v 0.025079500 0.052628020 -0.076399250
v -0.002440500 0.060198020 0.047229750
v 0.060535500 0.003011020 -0.066623250
v 0.050167500 0.032890020 0.049578750
v 0.006263500 0.060776020 0.041528750
v -0.050632500 -0.004974980 -0.081641250
v -0.051272500 -0.033517980 -0.066236250
v -0.049288500 -0.033826980 0.049237750
v -0.052552500 0.028640020 0.046182750
v -0.053192500 0.015649020 -0.079406250
v 0.030711500 -0.049783980 -0.075236250
v -0.051039500 -0.031808980 -0.072982250
v -0.051679500 0.030718020 -0.071319250
v -0.031967500 -0.044649980 -0.080252250
v 0.059808500 0.013091020 0.041471750
v -0.042335500 -0.043864980 0.041960750
v 0.031072500 0.040882020 0.085502750
v 0.038944500 -0.043661980 -0.075481250
v 0.027808500 0.054587020 0.041461750
v -0.018719500 -0.058009980 0.041662750
v -0.035743500 0.049153020 -0.066213250
v -0.057951500 0.013661020 -0.073335250
v -0.048735500 0.012018020 0.086207750
v -0.060447500 0.009001020 -0.066103250
v 0.027488500 0.042974020 0.085956750
v -0.038047500 -0.033808980 0.085355750
v 0.011785500 0.049631020 0.085920750
v 0.028169500 -0.045522980 -0.080651250
v 0.045257500 0.038005020 -0.074819250
v -0.016246500 -0.051178980 -0.080778250
v 0.059145500 0.013104020 -0.066337250
v 0.058505500 0.015328020 0.047278750
v -0.060086500 0.003230020 -0.071255250
v -0.047606500 -0.037046980 0.046388750
v 0.019273500 -0.056492980 -0.071254250
v -0.007478500 0.059853020 0.046344750
v -0.029622500 -0.051973980 0.049072750
v -0.004022500 -0.059990980 -0.070791250
v 0.020233500 -0.057269980 -0.066481250
v -0.046582500 -0.018457980 -0.081629250
v 0.058953500 0.016558020 0.041428750
v 0.006578500 -0.059750980 0.046883750
v -0.052237500 -0.031288980 0.041997750
v -0.020749500 0.045555020 -0.081867250
v -0.037773500 -0.045360980 -0.076551250
v -0.022669500 -0.049518980 -0.080383250
v -0.009549500 -0.058101980 -0.075070250
v 0.024626500 0.054681020 -0.071161250
v 0.015474500 -0.051553980 -0.080566250
v 0.056114500 -0.021980980 0.046106750
v 0.012914500 -0.057076980 -0.075089250
v 0.059506500 -0.008161980 0.048252750
v 0.040562500 0.044924020 0.046816750
v -0.005965500 0.051493020 -0.081568250
v -0.048525500 -0.031790980 -0.077401250
v 0.048475500 0.026343020 -0.079861250
v 0.039963500 -0.044010980 -0.072915250
v -0.009828500 -0.050528980 -0.081628250
v 0.036059500 0.035697020 0.086028750
v 0.019035500 -0.057680980 0.041283750
v 0.041435500 0.039487020 -0.078296250
v 0.038171500 -0.046794980 0.041548750
v 0.028379500 0.046402020 -0.080640250
v -0.060004500 -0.006912980 -0.070250250
v -0.030500500 -0.052037980 0.046577750
v 0.037659500 0.029631020 0.086128750
v 0.032603500 0.050214020 -0.072094250
v 0.037851500 0.034587020 0.085715750
v 0.026075500 -0.054792980 -0.066407250
v 0.035931500 0.037260020 -0.081832250
v -0.051172500 -0.032589980 -0.070327250
v 0.060251500 -0.004384980 0.046577750
v 0.048516500 0.034450020 -0.073084250
v -0.049083500 -0.011060980 0.086302750
v 0.057092500 0.011127020 -0.075551250
v 0.049924500 0.007208020 0.085972750
v -0.052923500 0.026355020 0.049916750
v 0.061124500 -0.000425980 0.041556750
v -0.006971500 0.050371020 0.085952750
v 0.044228500 -0.024978980 0.085907750
v -0.044859500 -0.040225980 -0.073449250
v 0.050180500 -0.029145980 -0.075931250
v 0.054788500 -0.003906980 -0.079790250
v -0.046779500 0.032361020 -0.077968250
v 0.013572500 0.054332020 -0.079039250
v 0.003844500 -0.060767980 -0.066321250
v -0.048571500 -0.035547980 -0.073016250
v 0.060269500 0.005355020 0.046417750
v -0.043922500 -0.037688980 -0.077916250
v -0.026130500 -0.050070980 -0.079002250
v 0.032237500 -0.047933980 -0.076531250
v -0.043026500 -0.036020980 -0.079520250
v -0.054802500 -0.027393980 -0.066029250
v -0.025298500 -0.044222980 0.085507750
v 0.039597500 0.038844020 -0.080009250
v -0.050834500 0.011603020 -0.081357250
v 0.054125500 0.005139020 -0.080265250
v 0.006317500 0.050828020 0.085347750
v 0.043693500 -0.040168980 -0.073482250
v -0.030354500 -0.052813980 0.042153750
v -0.049234500 -0.011793980 0.086063750
v 0.030166500 -0.040369980 0.086006750
v 0.046614500 0.018475020 0.086015750
v -0.002537500 0.058235020 -0.075762250
v 0.030294500 -0.052533980 -0.066541250
v -0.002345500 -0.057707980 -0.076845250
v 0.037654500 0.047326020 0.047271750
v 0.038998500 -0.046297980 -0.066685250
v -0.059305500 0.007919020 0.047647750
v 0.005654500 -0.055026980 -0.079531250
v -0.057257500 -0.020623980 0.041950750
v -0.008105500 0.050460020 0.085485750
v -0.039465500 0.044869020 -0.072477250
v -0.027625500 -0.042812980 -0.081575250
v -0.032768500 0.047567020 -0.076771250
v -0.014976500 -0.059241980 -0.066165250
v 0.038143500 -0.034596980 -0.081361250
v 0.011327500 -0.053763980 -0.079778250
v -0.017472500 -0.054472980 -0.078008250
v 0.052863500 -0.029739980 0.041570750
v 0.058815500 -0.016090980 0.041323750
v 0.038591500 -0.045041980 0.049168750
v 0.058943500 -0.013701980 -0.066646250
v -0.055063500 0.003504020 -0.079718250
v -0.053719500 0.021777020 -0.076582250
v -0.004503500 -0.031368980 0.086548750
v -0.048983500 0.022100020 -0.080526250
v -0.010967500 0.047853020 -0.082081250
v 0.045416500 -0.033361980 -0.078318250
v 0.055976500 0.023484020 0.045467750
v -0.037719500 -0.043203980 -0.078590250
v -0.031127500 -0.051878980 -0.070960250
v 0.052776500 -0.009411980 -0.080673250
v 0.055464500 -0.021425980 -0.071622250
v -0.022487500 -0.055505980 0.048905750
v 0.049000500 0.014956020 -0.081919250
v -0.050478500 -0.006142980 0.084938750
v -0.032046500 -0.051803980 0.041575750
v 0.057745500 0.018577020 -0.066541250
v -0.033326500 -0.048570980 -0.076344250
v -0.037870500 0.047558020 -0.066385250
v 0.049297500 -0.035078980 -0.066368250
v 0.051281500 0.004771020 0.085073750
v 0.051473500 0.031313020 0.048564750
v 0.019409500 -0.047458980 0.085240750
v 0.015505500 0.048883020 0.085440750
v -0.043438500 -0.041751980 0.046922750
v -0.027054500 0.042294020 0.086147750
v -0.002798500 0.060669020 -0.066516250
v 0.002449500 -0.060019980 -0.070378250
v -0.060462500 -0.006460980 0.041981750
v 0.003153500 0.060981020 0.041604750
v 0.035921500 0.036619020 0.085702750
v 0.003857500 0.049368020 -0.082095250
v 0.018961500 0.055314020 -0.075712250
v 0.016378500 0.058191020 0.047084750
v -0.027525500 0.054186020 -0.066349250
v 0.061050500 0.003464020 0.041430750
v -0.003141500 0.051088020 0.084939750
v -0.000517500 -0.060968980 -0.066365250
v -0.003781500 -0.052277980 -0.081345250
v -0.056069500 0.020451020 0.047891750
v -0.049477500 0.034546020 0.041704750
v -0.049989500 0.025795020 -0.078642250
v -0.039493500 -0.040411980 -0.079256250
v 0.060922500 -0.004778980 0.041454750
v 0.050467500 -0.014049980 -0.081333250
v 0.049827500 -0.008004980 0.085956750
v 0.011875500 0.059294020 0.046515750
v -0.052892500 -0.028872980 0.046360750
v 0.057891500 -0.005258980 -0.075386250
v 0.059875500 -0.011536980 0.041016750
v -0.030556500 0.040769020 0.085175750
v -0.008796500 -0.059594980 0.046672750
v 0.002403500 -0.051101980 0.085369750
v 0.056803500 0.020477020 0.047862750
v -0.059740500 0.012692020 -0.066163250
v -0.011228500 -0.055036980 -0.078980250
v -0.028892500 -0.051176980 -0.076280250
v -0.038579500 0.046569020 0.041694750
v 0.053836500 0.017157020 -0.078243250
v 0.052556500 0.031489020 0.041586750
v 0.052556500 0.021183020 -0.078137250
v 0.005388500 0.059768020 0.048733750
v 0.011980500 0.058840020 0.048800750
v -0.059443500 -0.009582980 -0.071495250
v 0.027724500 0.043225020 0.085346750
v -0.058675500 0.016753020 -0.066065250
v -0.031795500 -0.052313980 -0.066090250
v 0.036428500 0.047597020 -0.072261250
v 0.011596500 0.049949020 0.085324750
v -0.021171500 0.046225020 0.085876750
v -0.051315500 0.030031020 0.048605750
v -0.029555500 0.052998020 0.041694750
v -0.053706500 0.006165020 -0.080493250
v -0.040522500 -0.030682980 0.085710750
v 0.004725500 -0.049646980 0.086140750
v -0.011658500 -0.058719980 0.048765750
v -0.009034500 -0.060226980 0.041795750
v -0.006410500 0.060397020 -0.066586250
v -0.012298500 0.048633020 0.086179750
v -0.058826500 -0.015608980 0.041964750
v 0.045429500 -0.016899980 -0.082283250
v -0.056778500 0.002791020 -0.078076250
v -0.024010500 -0.056043980 0.041830750
v 0.054005500 -0.025687980 0.048507750
v -0.047498500 -0.037711980 -0.070739250
v 0.048885500 0.019132020 -0.081486250
v -0.047434500 0.035159020 -0.074787250
v 0.014837500 -0.058983980 0.042029750
v 0.016181500 -0.058566980 -0.066456250
v 0.001141500 -0.060779980 0.041740750
v -0.017162500 -0.048066980 0.084954750
v 0.047733500 -0.019607980 -0.081641250
v 0.055605500 -0.009710980 -0.078041250
v 0.000565500 0.059741020 0.049495750
v -0.016458500 0.057052020 0.050072750
v 0.056309500 0.018089020 -0.073424250
v -0.015114500 0.058894020 -0.066447250
v 0.055669500 -0.013694980 -0.076757250
v 0.017013500 0.056938020 -0.073273250
v 0.056350500 -0.022034980 -0.066695250
v -0.053089500 -0.018702980 -0.078960250
v -0.049121500 0.013033020 0.085497750
v -0.055009500 0.023756020 0.046092750
v -0.050337500 0.006871020 -0.081656250
v -0.050337500 -0.021610980 -0.080158250
v 0.033566500 0.038922020 0.085215750
v -0.015585500 -0.047184980 -0.081767250
v 0.046046500 0.022946020 0.085531750
v 0.029022500 -0.053258980 0.041501750
v -0.036513500 0.043611020 -0.077823250
v 0.031646500 -0.040228980 -0.081557250
v -0.046945500 0.019068020 0.085853750
v 0.023838500 -0.045374980 0.085448750
v -0.036385500 -0.048802980 0.041566750
v -0.003617500 -0.059668980 0.048852750
v 0.039646500 0.044887020 0.049597750
v -0.039649500 -0.037750980 -0.080397250
v -0.052065500 0.031699020 -0.066140250
v 0.029278500 -0.042179980 0.085179750
v -0.050657500 -0.027108980 -0.077882250
v 0.035230500 0.046552020 -0.076967250
v -0.027681500 0.050713020 -0.076695250
v 0.000606500 0.056836020 -0.077992250
v 0.019614500 0.058002020 0.041481750
v -0.047032500 -0.027147980 -0.080526250
v 0.047367500 -0.035601980 -0.073573250
v -0.012856500 -0.058067980 -0.073720250
v -0.030520500 0.051546020 -0.071245250
v -0.057976500 -0.001517980 -0.076620250
v 0.014215500 -0.050079980 -0.081493250
v -0.021816500 0.046161020 0.085197750
v -0.049272500 -0.019226980 -0.081102250
v -0.000120500 0.059036020 -0.074012250
v 0.035975500 -0.047750980 0.046957750
v -0.049848500 0.002925020 0.086276750
v -0.055055500 0.017816020 -0.076650250
v 0.060400500 -0.000101980 0.047021750
v -0.060175500 -0.001898980 -0.071208250
v -0.029967500 0.040287020 -0.081626250
v -0.060111500 -0.011921980 -0.066019250
v 0.046064500 0.030844020 -0.079738250
v 0.042800500 -0.039123980 -0.076517250
v -0.054159500 -0.027764980 0.041968750
v -0.027279500 0.054293020 0.041656750
v 0.042288500 -0.041644980 0.049032750
v -0.056015500 0.021553020 -0.071806250
v 0.033776500 0.050235020 0.046828750
v 0.013488500 -0.055330980 -0.077670250
v 0.051504500 -0.029403980 0.049956750
v -0.027791500 0.053162020 -0.070539250
v -0.057231500 -0.007736980 -0.077049250
v 0.057584500 -0.018589980 -0.066599250
v 0.037936500 0.047180020 -0.066979250
v -0.036111500 0.047864020 -0.071246250
v -0.061007500 0.002397020 -0.066492250
v -0.048527500 0.034819020 -0.072956250
v 0.051097500 0.029444020 -0.074513250
v 0.031449500 -0.007855980 0.086459750
v -0.046502500 -0.032863980 -0.078656250
v 0.037401500 0.034474020 0.086024750
v 0.053849500 -0.026694980 0.046383750
v -0.021478500 -0.045991980 0.085956750
v -0.056806500 -0.018750980 0.048750750
v -0.040422500 0.033763020 -0.080844250
v -0.000422500 -0.050671980 0.086021750
v -0.058726500 -0.004368980 -0.075060250
v -0.056038500 -0.019865980 -0.074313250
v 0.044313500 -0.041137980 -0.066843250
v 0.026649500 0.052936020 -0.074305250
v 0.008985500 -0.058577980 -0.073348250
v 0.045145500 0.022812020 0.086007750
v 0.047769500 0.019161020 0.085334750
v 0.043865500 -0.040628980 -0.071559250
v -0.043942500 0.036126020 -0.077950250
v -0.011133500 -0.052783980 -0.080636250
v 0.019714500 0.046285020 -0.082071250
v -0.020669500 -0.046618980 0.085411750
v -0.055357500 0.024455020 0.041788750
v -0.034365500 -0.050268980 0.042311750
v 0.034562500 -0.044069980 -0.078693250
v 0.053570500 0.022600020 -0.076020250
v 0.047042500 -0.037944980 -0.067080250
v 0.053634500 0.013670020 -0.079462250
v 0.012354500 -0.049419980 0.085835750
v -0.009172500 0.060287020 0.041609750
v 0.009899500 0.058089020 -0.074456250
v -0.011668500 -0.049409980 0.085991750
v -0.045076500 -0.023282980 0.085832750
v -0.050900500 -0.029753980 -0.075812250
v -0.044244500 0.029753020 -0.080544250
v -0.033044500 -0.037112980 -0.081643250
v 0.047595500 -0.028404980 -0.079226250
v -0.059220500 0.010436020 -0.071214250
v -0.040212500 0.044158020 0.047099750
v 0.009067500 0.059113020 -0.071528250
v -0.004692500 -0.060647980 0.042116750
v 0.000660500 -0.049764980 -0.081978250
v 0.050516500 -0.026118980 -0.077629250
v -0.058923500 0.004258020 -0.074630250
v -0.054955500 -0.019382980 -0.076579250
v 0.008020500 -0.052635980 -0.080968250
v -0.060779500 -0.000410980 0.041847750
v -0.055531500 -0.013764980 -0.077873250
v 0.035028500 -0.036268980 0.085997750
v -0.049451500 0.035534020 -0.066205250
v 0.031188500 0.041970020 -0.081687250
v -0.042795500 0.042052020 -0.071337250
v 0.037204500 -0.040185980 -0.079714250
v -0.042731500 -0.029694980 -0.081360250
v 0.046420500 -0.019503980 0.085972750
v -0.057026500 0.006013020 -0.077468250
v -0.049154500 0.034008020 0.046803750
v -0.035970500 -0.041701980 -0.080286250
v 0.060477500 -0.008404980 0.041479750
v 0.023869500 0.051448020 -0.078574250
v -0.052802500 -0.028212980 0.048779750
v -0.042306500 -0.027966980 0.085824750
v 0.038973500 0.042971020 -0.077455250
v 0.052093500 -0.004095980 -0.081507250
v 0.051453500 0.008123020 -0.081627250
v -0.026498500 0.043507020 0.085522750
v -0.021890500 0.045052020 0.086157750
v -0.049986500 0.007939020 0.085942750
v -0.012610500 0.057308020 -0.074863250
v 0.049661500 -0.013515980 0.085194750
v 0.054269500 -0.023494980 -0.072998250
v -0.055810500 -0.024331980 0.041891750
v -0.017794500 0.047625020 0.085905750
v 0.016317500 0.058950020 0.041472750
f 332 781 394
f 942 415 660
f 784 877 10
f 784 893 10
f 278 530 598
f 552 530 598
f 633 553 522
f 904 660 242
f 904 415 660
f 512 823 303
f 966 937 965
f 966 512 823
f 651 942 415
f 651 19 415
f 74 877 10
f 74 903 10
f 503 153 476
f 503 153 974
f 785 630 705
f 753 552 598
f 365 824 598
f 907 278 598
f 884 192 552
f 884 192 621
f 369 153 476
f 448 369 476
f 448 369 770
f 307 776 510
f 128 83 465
f 302 927 494
f 231 332 697
f 231 332 781
f 231 925 781
f 755 781 394
f 561 755 553
f 561 755 671
f 372 942 660
f 372 948 660
f 372 942 649
f 514 313 264
f 856 600 741
f 856 600 685
f 940 856 741
f 540 600 741
f 587 654 725
f 587 654 627
f 225 654 627
f 225 627 530
f 225 278 530
f 225 390 278
f 818 654 725
f 686 390 909
f 194 424 196
f 116 776 510
f 299 599 846
f 299 409 846
f 123 286 620
f 589 283 675
f 562 589 283
f 444 814 576
f 444 15 576
f 653 823 303
f 521 753 174
f 521 753 552
f 661 374 43
f 201 966 512
f 201 966 937
f 852 927 494
f 852 789 494
f 667 633 522
f 458 937 965
f 831 223 203
f 442 599 846
f 899 784 358
f 899 63 358
f 899 784 877
f 8 63 619
f 8 148 619
f 8 148 599
f 8 442 599
f 956 259 740
f 323 26 857
f 323 26 125
f 484 26 809
f 484 26 125
f 199 369 770
f 2 365 598
f 2 185 953
f 2 907 598
f 795 448 476
f 795 448 703
f 795 907 703
f 169 469 621
f 828 627 530
f 828 971 530
f 828 706 627
f 828 706 220
f 693 390 278
f 693 907 278
f 693 390 909
f 701 552 229
f 701 192 552
f 701 289 229
f 972 884 621
f 972 169 621
f 233 448 703
f 233 179 703
f 233 448 770
f 921 323 857
f 676 359 879
f 676 745 314
f 236 214 879
f 236 359 879
f 579 234 394
f 894 749 297
f 473 749 297
f 473 953 297
f 611 37 974
f 383 676 314
f 383 676 359
f 398 784 893
f 398 784 358
f 401 83 846
f 401 442 846
f 977 880 472
f 977 828 220
f 977 828 971
f 77 401 83
f 77 398 358
f 77 401 358
f 391 128 465
f 391 322 465
f 739 322 786
f 739 391 322
f 739 706 220
f 739 128 220
f 739 391 128
f 129 127 208
f 129 127 406
f 132 398 893
f 132 880 472
f 132 33 880
f 768 903 740
f 821 893 10
f 821 135 10
f 111 33 156
f 111 135 156
f 111 821 135
f 111 132 33
f 111 132 893
f 111 821 893
f 636 820 494
f 636 302 494
f 481 255 927
f 481 302 927
f 508 127 406
f 704 820 494
f 400 508 820
f 400 508 406
f 955 231 697
f 955 231 925
f 371 332 394
f 272 332 697
f 80 97 418
f 520 824 598
f 520 753 598
f 524 825 205
f 754 543 53
f 754 939 333
f 637 543 53
f 637 395 260
f 913 939 333
f 463 755 671
f 853 561 553
f 853 633 227
f 853 633 553
f 888 561 671
f 154 453 264
f 788 572 685
f 182 214 879
f 182 572 879
f 182 553 522
f 182 755 394
f 182 755 553
f 950 572 879
f 950 676 879
f 950 676 745
f 468 805 103
f 468 674 103
f 924 788 685
f 460 540 741
f 507 540 673
f 318 540 673
f 318 540 600
f 318 600 685
f 168 154 118
f 168 154 453
f 102 924 805
f 806 492 118
f 515 470 429
f 515 533 195
f 423 470 902
f 551 739 786
f 551 739 706
f 551 706 627
f 551 587 627
f 551 587 725
f 652 225 390
f 652 814 576
f 70 225 654
f 70 652 576
f 70 652 225
f 812 818 725
f 613 194 196
f 680 470 429
f 680 734 470
f 644 734 855
f 644 652 814
f 644 780 855
f 973 148 599
f 973 299 599
f 973 299 216
f 827 307 776
f 827 934 409
f 827 934 307
f 211 123 873
f 211 562 873
f 211 562 283
f 978 123 873
f 978 123 286
f 616 562 873
f 646 562 589
f 646 424 196
f 646 589 424
f 646 444 196
f 455 444 814
f 455 644 814
f 455 644 734
f 779 632 570
f 779 116 510
f 779 116 570
f 250 286 620
f 250 632 286
f 250 632 570
f 250 382 570
f 300 521 303
f 32 512 303
f 32 521 303
f 32 201 512
f 32 201 289
f 32 521 552
f 32 552 229
f 32 289 229
f 635 966 965
f 635 966 823
f 351 458 965
f 433 402 851
f 433 402 3
f 433 972 851
f 399 603 3
f 399 402 3
f 399 651 603
f 247 192 621
f 407 458 937
f 407 201 937
f 407 201 289
f 407 701 289
f 518 259 740
f 518 413 742
f 518 413 74
f 518 903 740
f 518 74 903
f 751 831 260
f 751 831 223
f 751 109 223
f 960 831 260
f 960 395 260
f 416 63 358
f 416 401 358
f 416 401 442
f 416 8 63
f 416 8 442
f 871 413 742
f 190 872 431
f 577 63 619
f 577 871 619
f 577 871 413
f 577 899 877
f 577 899 63
f 577 74 877
f 577 413 74
f 757 323 125
f 886 785 705
f 886 199 369
f 729 2 953
f 729 2 365
f 729 235 365
f 729 473 953
f 166 235 862
f 166 235 365
f 222 503 476
f 222 795 476
f 222 503 974
f 6 894 297
f 46 185 953
f 46 432 185
f 46 953 297
f 46 6 297
f 730 907 703
f 730 693 907
f 650 972 884
f 493 233 770
f 493 233 179
f 803 921 323
f 803 757 323
f 803 757 125
f 24 64 179
f 24 64 857
f 24 921 857
f 88 100 744
f 957 100 489
f 957 88 411
f 957 88 100
f 446 841 298
f 384 236 214
f 794 841 298
f 794 579 841
f 794 579 234
f 531 308 847
f 50 446 298
f 750 452 464
f 449 750 901
f 449 750 452
f 367 350 862
f 367 350 868
f 367 235 862
f 532 350 868
f 532 473 868
f 532 473 749
f 858 44 350
f 772 224 215
f 772 166 862
f 107 473 868
f 107 367 868
f 107 367 235
f 107 729 235
f 107 729 473
f 345 37 325
f 345 611 37
f 412 153 974
f 412 611 974
f 891 206 489
f 929 957 411
f 929 957 489
f 364 383 359
f 461 83 465
f 461 934 465
f 461 83 846
f 461 409 846
f 461 934 409
f 663 934 307
f 663 322 465
f 663 934 465
f 276 132 472
f 276 77 398
f 276 132 398
f 310 128 220
f 310 977 220
f 310 977 472
f 310 276 472
f 819 880 145
f 819 977 880
f 819 971 145
f 819 977 971
f 622 779 510
f 800 605 156
f 800 605 483
f 800 607 156
f 970 33 156
f 970 605 156
f 970 605 145
f 970 880 145
f 970 33 880
f 454 129 483
f 454 971 530
f 571 129 208
f 571 129 483
f 571 607 208
f 571 800 483
f 571 800 607
f 648 135 10
f 648 903 10
f 648 768 903
f 459 135 156
f 459 807 768
f 459 648 135
f 459 648 768
f 252 607 156
f 252 459 156
f 252 459 807
f 790 954 867
f 370 955 925
f 370 955 690
f 275 925 781
f 404 371 969
f 404 371 394
f 404 234 394
f 404 968 234
f 261 404 969
f 261 404 968
f 467 267 630
f 793 963 464
f 793 625 464
f 763 371 332
f 763 371 969
f 590 272 575
f 590 272 332
f 590 763 332
f 590 763 835
f 438 763 969
f 438 763 835
f 694 194 424
f 422 5 702
f 72 422 808
f 72 422 702
f 386 116 570
f 386 382 570
f 944 250 620
f 944 250 382
f 137 123 620
f 137 944 620
f 887 97 242
f 887 80 97
f 887 660 242
f 813 418 889
f 329 520 936
f 329 911 174
f 329 753 174
f 329 520 753
f 914 520 824
f 230 936 205
f 230 329 936
f 230 329 911
f 230 524 762
f 230 524 205
f 347 524 762
f 347 353 647
f 497 524 825
f 497 347 524
f 497 347 353
f 945 117 373
f 864 375 373
f 864 117 373
f 801 497 825
f 801 497 353
f 801 945 117
f 539 637 260
f 539 637 543
f 146 755 781
f 146 463 755
f 146 275 781
f 249 872 731
f 198 463 671
f 723 853 561
f 723 853 227
f 723 539 543
f 184 913 333
f 184 913 491
f 184 888 491
f 946 182 572
f 946 572 685
f 946 182 522
f 946 856 685
f 946 940 522
f 946 940 856
f 485 788 572
f 485 950 572
f 876 453 103
f 876 674 103
f 876 453 264
f 876 313 264
f 592 171 733
f 592 162 171
f 115 468 805
f 115 468 733
f 115 592 248
f 115 592 733
f 122 924 788
f 122 485 248
f 122 485 788
f 122 115 248
f 122 924 805
f 122 115 805
f 641 507 540
f 641 460 962
f 641 460 540
f 641 306 962
f 641 306 507
f 717 507 673
f 746 805 103
f 746 102 805
f 657 102 924
f 657 318 673
f 657 924 685
f 657 318 685
f 285 806 529
f 285 746 529
f 285 746 168
f 285 168 118
f 285 806 118
f 49 766 845
f 487 515 429
f 487 515 195
f 487 326 195
f 771 26 857
f 270 326 393
f 270 487 281
f 270 487 326
f 163 550 315
f 163 550 533
f 266 393 809
f 266 484 809
f 578 515 533
f 578 515 470
f 380 423 470
f 380 578 533
f 380 578 470
f 380 550 533
f 380 550 902
f 380 423 902
f 629 551 843
f 629 622 843
f 629 322 786
f 629 551 786
f 629 622 510
f 629 307 510
f 629 663 307
f 629 663 322
f 55 632 286
f 55 779 632
f 55 622 779
f 311 686 390
f 311 652 390
f 311 686 909
f 311 780 909
f 311 644 652
f 311 644 780
f 202 734 470
f 202 613 734
f 865 734 855
f 865 680 734
f 865 680 429
f 865 780 429
f 865 780 855
f 427 216 731
f 427 973 216
f 427 249 731
f 783 812 818
f 783 978 873
f 783 978 286
f 443 444 15
f 443 646 444
f 443 646 562
f 443 616 15
f 443 616 562
f 896 613 734
f 896 455 734
f 896 455 444
f 896 613 196
f 82 911 174
f 82 521 174
f 82 300 521
f 586 661 43
f 586 774 43
f 586 653 823
f 586 635 823
f 586 635 661
f 643 774 43
f 643 471 357
f 912 351 352
f 912 351 458
f 912 738 352
f 976 351 892
f 976 351 352
f 976 738 352
f 58 402 789
f 58 852 927
f 58 852 789
f 58 255 927
f 804 651 942
f 804 399 651
f 804 815 399
f 343 95 255
f 343 58 255
f 736 603 3
f 736 433 3
f 736 433 972
f 736 972 169
f 951 904 242
f 951 904 415
f 951 97 242
f 341 469 621
f 341 247 621
f 341 247 469
f 39 247 469
f 563 701 192
f 563 247 192
f 563 39 101
f 778 951 469
f 778 97 418
f 778 951 97
f 296 976 738
f 519 667 633
f 410 850 158
f 601 754 939
f 601 754 53
f 142 518 259
f 142 518 742
f 142 859 742
f 61 859 742
f 141 960 395
f 141 372 649
f 141 372 948
f 141 960 948
f 712 535 155
f 559 872 731
f 559 190 872
f 715 886 785
f 715 886 199
f 959 2 185
f 959 2 907
f 959 795 907
f 273 46 432
f 273 46 6
f 482 6 894
f 482 273 584
f 482 273 6
f 490 730 703
f 490 179 703
f 490 64 179
f 920 693 909
f 920 730 693
f 920 490 64
f 920 490 730
f 87 704 494
f 87 704 820
f 87 400 820
f 41 803 921
f 41 24 921
f 41 493 179
f 41 24 179
f 428 100 744
f 860 384 236
f 860 88 744
f 860 488 744
f 830 384 214
f 830 182 394
f 830 182 214
f 830 579 394
f 830 384 177
f 830 177 841
f 830 579 841
f 760 968 234
f 760 794 234
f 139 794 298
f 139 50 298
f 139 760 794
f 12 50 947
f 149 625 464
f 849 338 901
f 376 228 747
f 376 501 769
f 376 501 747
f 366 596 975
f 366 849 975
f 218 596 975
f 218 449 975
f 309 891 4
f 309 891 206
f 709 18 947
f 709 309 18
f 334 750 464
f 396 350 862
f 396 44 350
f 396 772 862
f 396 772 215
f 883 532 749
f 732 858 696
f 92 772 224
f 92 772 166
f 92 166 365
f 833 91 325
f 833 345 325
f 677 611 338
f 677 345 611
f 677 833 345
f 679 412 153
f 679 369 153
f 554 501 584
f 554 501 769
f 317 732 696
f 317 732 181
f 623 544 638
f 623 181 638
f 623 317 181
f 655 236 359
f 655 364 359
f 655 88 411
f 655 860 236
f 655 860 88
f 580 77 83
f 580 276 77
f 580 128 83
f 580 276 128
f 844 276 128
f 844 310 128
f 844 310 276
f 775 605 483
f 775 454 483
f 775 454 971
f 775 971 145
f 775 605 145
f 604 807 768
f 604 574 807
f 943 607 208
f 943 252 607
f 943 574 807
f 943 252 807
f 217 636 302
f 217 790 867
f 217 636 820
f 217 481 867
f 217 481 302
f 961 508 127
f 961 508 820
f 961 217 820
f 961 217 790
f 130 275 925
f 271 370 690
f 271 130 155
f 271 370 925
f 271 130 925
f 112 712 155
f 112 190 431
f 112 712 190
f 237 467 630
f 237 630 705
f 237 793 705
f 237 793 625
f 523 414 688
f 932 422 624
f 932 422 808
f 178 523 414
f 178 22 612
f 178 523 22
f 517 272 575
f 517 722 575
f 517 272 697
f 213 955 697
f 213 955 690
f 13 414 688
f 13 450 315
f 817 194 902
f 817 694 194
f 817 550 902
f 817 694 143
f 430 5 702
f 430 467 267
f 430 467 346
f 430 5 346
f 498 116 776
f 498 386 116
f 498 827 776
f 498 827 409
f 498 299 409
f 498 299 216
f 89 918 675
f 98 870 143
f 628 98 918
f 628 89 782
f 628 89 918
f 258 918 675
f 258 589 675
f 258 589 424
f 258 694 424
f 258 98 918
f 258 694 143
f 258 98 143
f 93 211 123
f 93 89 675
f 93 283 675
f 93 211 283
f 878 831 203
f 900 878 203
f 900 878 915
f 466 887 80
f 466 915 80
f 466 948 660
f 466 887 660
f 466 878 915
f 691 80 418
f 691 813 418
f 691 813 80
f 541 915 80
f 541 813 80
f 541 900 915
f 541 180 900
f 188 520 936
f 188 914 520
f 188 936 205
f 165 914 824
f 84 347 762
f 926 230 911
f 256 945 373
f 256 945 354
f 560 864 117
f 560 801 117
f 560 801 825
f 826 801 353
f 826 801 945
f 826 353 514
f 826 945 354
f 826 514 354
f 822 751 260
f 822 539 260
f 822 751 109
f 822 723 539
f 822 109 227
f 822 723 227
f 405 293 491
f 405 888 491
f 405 888 671
f 405 198 671
f 7 723 543
f 7 723 561
f 7 754 333
f 7 754 543
f 7 184 333
f 7 184 561
f 504 888 561
f 504 184 561
f 504 184 888
f 35 154 264
f 35 99 264
f 743 353 647
f 743 99 647
f 743 353 514
f 743 514 264
f 743 99 264
f 340 919 678
f 340 162 171
f 565 397 544
f 606 383 314
f 606 565 397
f 219 457 674
f 219 468 733
f 219 468 674
f 219 171 733
f 495 876 674
f 495 457 674
f 495 876 313
f 495 514 354
f 495 514 313
f 737 592 248
f 737 592 162
f 737 162 745
f 737 950 745
f 737 485 248
f 737 485 950
f 288 940 741
f 288 460 741
f 288 460 962
f 157 806 529
f 157 717 529
f 157 717 507
f 157 306 618
f 157 306 507
f 361 717 529
f 361 746 529
f 361 746 102
f 361 717 673
f 361 657 673
f 361 657 102
f 9 746 103
f 9 746 168
f 9 453 103
f 9 168 453
f 108 49 766
f 108 49 131
f 525 766 845
f 525 480 845
f 525 480 766
f 385 267 630
f 668 480 766
f 17 487 429
f 17 487 281
f 17 183 281
f 17 780 429
f 631 270 771
f 631 183 281
f 631 270 281
f 279 26 809
f 279 771 26
f 279 270 771
f 279 393 809
f 279 270 393
f 656 163 315
f 656 13 315
f 656 13 414
f 656 178 414
f 656 700 612
f 656 178 612
f 90 163 533
f 90 533 195
f 90 326 195
f 90 326 393
f 90 266 393
f 348 266 700
f 796 55 286
f 796 55 812
f 796 783 286
f 796 783 812
f 811 812 725
f 811 55 812
f 811 55 622
f 811 622 843
f 811 551 725
f 811 551 843
f 147 613 194
f 147 202 613
f 147 194 902
f 147 470 902
f 147 202 470
f 773 783 818
f 773 70 576
f 773 818 654
f 773 70 654
f 263 616 873
f 263 783 873
f 105 444 196
f 105 896 196
f 105 896 444
f 721 664 239
f 721 82 239
f 721 926 664
f 721 82 911
f 721 926 911
f 588 643 471
f 588 643 774
f 65 653 303
f 65 300 303
f 65 586 653
f 65 586 774
f 403 82 300
f 403 65 300
f 403 82 239
f 566 661 374
f 797 670 892
f 797 351 965
f 797 351 892
f 114 101 829
f 114 738 829
f 114 912 738
f 328 399 402
f 328 58 402
f 328 815 399
f 328 343 815
f 328 343 58
f 609 942 649
f 609 804 942
f 895 343 95
f 86 736 189
f 86 169 469
f 86 736 169
f 11 736 603
f 11 736 189
f 11 86 189
f 11 651 19
f 11 651 603
f 11 19 415
f 11 951 415
f 728 563 701
f 764 39 247
f 764 563 247
f 764 563 39
f 30 39 469
f 30 778 469
f 30 39 101
f 30 778 101
f 170 101 829
f 170 778 101
f 170 889 829
f 170 418 889
f 170 778 418
f 916 506 420
f 193 187 889
f 193 889 829
f 193 738 829
f 193 296 738
f 204 916 536
f 204 916 506
f 204 193 296
f 204 506 187
f 204 193 187
f 567 670 892
f 591 85 546
f 591 716 546
f 758 306 962
f 758 306 618
f 557 519 158
f 557 410 158
f 330 519 667
f 60 223 203
f 60 900 203
f 60 557 223
f 60 557 410
f 708 85 546
f 708 319 546
f 708 714 85
f 378 284 357
f 378 643 226
f 378 643 357
f 73 284 186
f 73 284 357
f 583 581 259
f 583 956 259
f 337 637 395
f 337 885 395
f 337 637 53
f 337 51 53
f 752 337 885
f 752 337 51
f 381 601 939
f 381 601 711
f 381 913 939
f 791 51 53
f 791 601 53
f 791 601 711
f 29 581 259
f 29 142 259
f 29 277 859
f 29 142 859
f 462 293 491
f 462 381 277
f 462 913 491
f 462 381 913
f 68 277 859
f 68 61 859
f 68 61 293
f 68 462 293
f 68 462 277
f 268 885 395
f 268 141 395
f 268 141 649
f 28 712 190
f 28 559 190
f 175 493 770
f 175 199 770
f 175 715 199
f 207 222 795
f 207 959 795
f 207 37 974
f 207 222 974
f 707 432 185
f 707 959 185
f 707 207 959
f 861 87 494
f 861 789 494
f 941 50 947
f 941 18 947
f 941 50 446
f 941 428 446
f 439 428 446
f 439 488 177
f 439 428 744
f 439 488 744
f 439 177 841
f 439 446 841
f 54 488 177
f 54 860 488
f 54 384 177
f 54 860 384
f 710 724 261
f 710 261 968
f 710 760 968
f 16 139 308
f 16 139 760
f 16 710 760
f 349 139 50
f 349 12 50
f 349 139 308
f 349 531 308
f 349 12 531
f 253 449 452
f 253 452 464
f 253 149 464
f 761 449 975
f 761 849 975
f 761 449 901
f 761 849 901
f 875 309 4
f 40 366 228
f 40 366 849
f 594 218 449
f 594 545 847
f 594 531 847
f 594 218 531
f 594 253 545
f 594 253 449
f 291 218 596
f 291 709 596
f 291 709 947
f 291 12 947
f 291 12 531
f 291 218 531
f 799 963 464
f 799 334 464
f 799 334 963
f 748 750 901
f 748 334 750
f 748 338 901
f 748 611 338
f 617 412 611
f 617 748 611
f 617 748 334
f 335 396 215
f 335 434 215
f 42 396 44
f 42 858 44
f 42 335 396
f 42 389 696
f 42 858 696
f 426 532 350
f 426 883 532
f 426 858 240
f 426 858 350
f 14 732 181
f 392 858 240
f 392 732 858
f 526 224 215
f 526 434 215
f 838 437 608
f 838 666 662
f 687 838 666
f 360 666 662
f 360 565 544
f 360 565 662
f 360 317 696
f 360 623 544
f 360 623 317
f 933 92 224
f 933 92 365
f 933 365 824
f 933 165 824
f 933 165 45
f 898 833 91
f 435 228 747
f 435 40 228
f 568 793 963
f 568 334 963
f 568 617 334
f 568 679 412
f 568 617 412
f 699 886 705
f 699 793 705
f 699 886 369
f 699 679 369
f 699 568 793
f 699 568 679
f 243 891 489
f 243 245 891
f 243 929 489
f 243 245 645
f 304 929 411
f 304 655 411
f 304 655 364
f 262 883 749
f 262 689 883
f 262 689 66
f 262 894 749
f 556 482 894
f 556 554 66
f 556 482 584
f 556 554 584
f 556 262 894
f 556 262 66
f 917 554 66
f 110 684 735
f 110 14 181
f 387 684 735
f 133 684 645
f 133 245 645
f 133 891 4
f 133 245 891
f 726 684 922
f 726 133 4
f 726 133 684
f 21 454 129
f 21 172 129
f 164 172 87
f 164 400 406
f 164 87 400
f 164 129 406
f 164 172 129
f 479 961 127
f 479 961 790
f 479 419 79
f 479 954 79
f 479 790 954
f 331 604 574
f 331 419 79
f 331 419 574
f 331 956 740
f 331 768 740
f 331 604 768
f 104 130 155
f 104 130 275
f 104 112 155
f 890 523 22
f 421 22 612
f 421 52 22
f 200 590 575
f 200 590 835
f 120 724 624
f 120 932 624
f 120 932 438
f 120 438 969
f 120 261 969
f 120 724 261
f 78 932 438
f 78 932 808
f 78 438 835
f 78 200 835
f 20 517 722
f 20 517 697
f 20 213 697
f 197 20 722
f 197 20 213
f 967 13 688
f 967 13 450
f 967 870 450
f 582 564 690
f 582 197 344
f 582 213 690
f 582 197 213
f 362 271 690
f 362 564 690
f 362 271 155
f 362 535 155
f 362 535 964
f 362 564 964
f 67 817 143
f 67 817 550
f 67 870 143
f 67 870 450
f 67 550 315
f 67 450 315
f 573 72 702
f 573 430 702
f 573 72 845
f 573 480 845
f 573 430 267
f 573 385 267
f 573 385 480
f 882 498 386
f 882 559 731
f 882 216 731
f 882 498 216
f 882 386 382
f 882 559 382
f 136 628 98
f 136 870 344
f 136 98 870
f 136 582 344
f 136 582 564
f 136 564 964
f 136 628 964
f 848 137 123
f 848 93 123
f 848 782 475
f 848 137 475
f 848 89 782
f 848 93 89
f 75 960 831
f 75 878 831
f 75 960 948
f 75 466 948
f 75 466 878
f 445 541 813
f 445 541 180
f 445 180 420
f 445 506 420
f 445 506 187
f 445 187 889
f 445 813 889
f 339 165 45
f 840 230 762
f 840 926 762
f 840 926 230
f 669 36 373
f 502 188 205
f 502 825 205
f 502 560 825
f 502 914 375
f 502 188 914
f 502 864 375
f 502 560 864
f 209 872 431
f 681 146 463
f 681 615 146
f 602 269 148
f 602 427 249
f 602 973 148
f 602 427 973
f 499 626 198
f 425 99 647
f 425 35 99
f 816 151 759
f 816 73 759
f 280 154 118
f 280 492 118
f 280 425 151
f 280 759 492
f 280 151 759
f 280 35 154
f 280 425 35
f 441 547 608
f 441 437 608
f 441 437 919
f 441 919 246
f 441 777 246
f 441 547 713
f 441 777 713
f 265 547 608
f 417 565 662
f 417 838 662
f 417 838 437
f 417 919 678
f 417 437 919
f 897 606 314
f 897 340 162
f 897 745 314
f 897 162 745
f 191 606 565
f 191 417 678
f 191 417 565
f 191 897 606
f 191 340 678
f 191 897 340
f 301 219 171
f 301 340 171
f 301 919 246
f 301 340 919
f 787 777 713
f 787 256 354
f 665 495 354
f 665 495 457
f 665 787 354
f 94 288 940
f 94 288 958
f 94 330 958
f 94 330 667
f 94 940 522
f 94 667 522
f 866 288 962
f 509 484 125
f 509 108 125
f 509 266 484
f 509 108 131
f 509 348 131
f 509 348 266
f 144 668 766
f 144 108 125
f 144 108 766
f 144 668 62
f 144 803 125
f 144 803 62
f 516 385 480
f 695 17 780
f 695 17 183
f 695 96 183
f 695 780 909
f 695 96 909
f 324 920 909
f 324 96 909
f 324 920 64
f 324 64 857
f 569 771 857
f 569 631 771
f 569 631 183
f 569 96 183
f 569 324 857
f 569 324 96
f 542 90 163
f 542 656 700
f 542 656 163
f 542 266 700
f 542 90 266
f 906 251 131
f 906 348 131
f 906 421 612
f 906 421 251
f 906 700 612
f 906 348 700
f 555 773 783
f 555 263 616
f 555 263 783
f 555 616 15
f 555 15 576
f 555 773 576
f 134 84 762
f 134 926 762
f 134 926 664
f 928 863 471
f 832 347 647
f 832 84 347
f 832 134 84
f 832 425 647
f 832 425 151
f 167 403 239
f 167 928 471
f 47 588 774
f 47 588 471
f 47 167 471
f 47 403 65
f 47 167 403
f 173 566 670
f 173 797 670
f 173 635 661
f 173 566 661
f 173 635 965
f 173 797 965
f 447 804 815
f 447 609 804
f 447 343 815
f 447 895 343
f 447 609 649
f 232 895 95
f 232 95 255
f 232 481 255
f 232 895 56
f 140 11 951
f 140 11 86
f 140 951 469
f 140 86 469
f 614 114 101
f 614 114 912
f 336 563 101
f 336 728 563
f 336 614 101
f 336 614 728
f 244 912 458
f 244 614 912
f 244 614 728
f 949 916 420
f 720 976 892
f 720 567 892
f 634 71 374
f 634 566 374
f 634 566 670
f 639 536 938
f 534 591 85
f 534 639 938
f 534 714 85
f 534 639 714
f 496 716 546
f 496 758 716
f 496 319 546
f 792 716 719
f 792 758 716
f 792 758 962
f 792 866 962
f 792 866 719
f 113 519 633
f 113 557 519
f 113 633 227
f 113 109 227
f 113 109 223
f 113 557 223
f 881 519 158
f 881 330 519
f 682 591 716
f 682 869 938
f 682 534 938
f 682 534 591
f 952 180 900
f 952 60 900
f 952 180 420
f 952 949 420
f 952 60 410
f 952 410 850
f 952 949 850
f 767 157 618
f 767 157 806
f 767 806 492
f 767 408 492
f 456 708 319
f 456 319 186
f 456 284 186
f 456 378 284
f 486 634 71
f 486 71 374
f 486 374 43
f 176 408 186
f 176 73 186
f 176 408 492
f 176 759 492
f 176 73 759
f 241 583 905
f 241 954 79
f 241 583 956
f 241 331 79
f 241 331 956
f 640 76 905
f 640 481 867
f 640 232 481
f 640 76 56
f 640 232 56
f 511 752 51
f 511 791 51
f 221 895 56
f 221 511 56
f 221 511 752
f 923 381 277
f 923 29 277
f 923 381 711
f 923 27 711
f 923 29 581
f 923 27 581
f 342 871 742
f 342 61 742
f 274 871 619
f 274 342 871
f 274 342 626
f 274 148 619
f 274 269 148
f 274 499 269
f 274 499 626
f 935 28 475
f 935 28 559
f 935 559 382
f 935 944 382
f 935 137 475
f 935 137 944
f 505 535 964
f 505 628 964
f 505 628 782
f 659 175 493
f 659 803 62
f 659 668 62
f 659 41 493
f 659 41 803
f 436 715 785
f 436 175 715
f 436 516 385
f 436 785 630
f 436 385 630
f 294 707 432
f 294 91 325
f 294 91 432
f 294 37 325
f 294 207 37
f 294 707 207
f 528 972 851
f 528 650 972
f 595 861 789
f 595 402 851
f 595 402 789
f 595 528 851
f 595 528 861
f 756 941 18
f 756 309 206
f 756 309 18
f 756 206 489
f 798 253 545
f 798 253 149
f 548 422 624
f 548 5 346
f 548 422 5
f 842 16 710
f 842 545 847
f 842 308 847
f 842 16 308
f 527 366 228
f 527 366 596
f 59 709 309
f 59 875 309
f 59 709 596
f 59 527 596
f 59 527 875
f 159 689 735
f 159 689 883
f 159 426 240
f 159 426 883
f 257 526 224
f 257 339 45
f 257 526 434
f 257 265 669
f 38 687 666
f 38 42 389
f 38 42 335
f 38 335 434
f 837 257 434
f 837 687 838
f 837 38 434
f 837 38 687
f 837 257 265
f 837 838 608
f 837 265 608
f 138 360 696
f 138 360 666
f 138 389 696
f 138 38 389
f 138 38 666
f 477 91 432
f 477 898 91
f 477 273 584
f 477 273 432
f 160 898 833
f 160 501 584
f 160 501 747
f 160 477 584
f 160 477 898
f 388 677 833
f 388 677 338
f 388 849 338
f 388 40 849
f 388 435 40
f 292 243 645
f 292 243 929
f 292 718 645
f 48 304 929
f 48 292 929
f 48 292 718
f 119 917 554
f 31 917 922
f 31 387 735
f 31 917 66
f 31 684 922
f 31 387 684
f 31 689 735
f 31 689 66
f 282 110 181
f 282 110 684
f 282 684 645
f 282 181 638
f 282 718 638
f 282 718 645
f 440 110 735
f 440 110 14
f 440 159 735
f 305 454 530
f 305 552 530
f 305 884 552
f 305 650 884
f 305 528 650
f 305 528 861
f 356 479 127
f 356 479 419
f 356 127 208
f 356 943 208
f 356 419 574
f 356 943 574
f 474 104 275
f 474 146 275
f 474 615 146
f 474 209 431
f 474 209 615
f 474 112 431
f 474 104 112
f 126 890 523
f 126 722 688
f 126 523 688
f 126 722 575
f 126 890 575
f 810 421 52
f 810 78 808
f 810 78 52
f 683 78 52
f 683 78 200
f 683 52 22
f 683 890 22
f 683 890 575
f 683 200 575
f 363 967 688
f 363 722 688
f 363 197 722
f 321 967 870
f 321 870 344
f 321 197 344
f 321 363 197
f 321 363 967
f 802 339 165
f 802 914 375
f 802 165 914
f 802 339 36
f 802 375 373
f 802 36 373
f 327 209 615
f 327 249 872
f 327 209 872
f 295 602 269
f 295 499 269
f 295 327 615
f 295 602 249
f 295 327 249
f 597 73 357
f 597 816 73
f 597 928 863
f 597 471 357
f 597 863 471
f 839 256 373
f 839 787 713
f 839 787 256
f 25 547 713
f 25 265 547
f 25 839 713
f 25 265 669
f 25 669 373
f 25 839 373
f 34 219 457
f 34 301 219
f 34 301 246
f 34 665 457
f 34 777 246
f 34 787 777
f 34 665 787
f 692 134 664
f 692 664 239
f 692 928 727
f 765 816 727
f 765 928 727
f 765 597 816
f 765 597 928
f 316 832 134
f 316 692 727
f 316 692 134
f 316 832 151
f 316 816 151
f 316 816 727
f 106 65 774
f 106 47 774
f 106 47 65
f 585 244 728
f 585 407 701
f 585 728 701
f 585 407 458
f 585 244 458
f 287 949 850
f 451 296 976
f 451 720 976
f 451 204 296
f 152 567 670
f 152 634 670
f 152 634 567
f 698 634 567
f 698 639 714
f 672 496 319
f 672 319 186
f 672 408 186
f 672 767 618
f 672 767 408
f 672 758 618
f 672 496 758
f 854 850 158
f 854 881 158
f 834 708 714
f 834 486 708
f 834 486 634
f 834 698 714
f 834 698 634
f 368 456 378
f 368 378 226
f 368 486 43
f 368 643 226
f 368 643 43
f 81 241 954
f 81 241 905
f 81 640 905
f 81 954 867
f 81 640 867
f 836 27 581
f 836 76 905
f 836 583 581
f 836 583 905
f 57 791 711
f 57 511 791
f 57 27 711
f 57 836 76
f 57 836 27
f 57 76 56
f 57 511 56
f 161 752 885
f 161 221 752
f 161 268 885
f 161 268 649
f 161 221 895
f 161 447 649
f 161 447 895
f 1 342 626
f 1 626 198
f 1 61 293
f 1 342 61
f 1 405 293
f 1 405 198
f 513 28 712
f 513 712 535
f 513 505 535
f 513 505 782
f 513 782 475
f 513 28 475
f 642 659 668
f 642 659 175
f 642 436 175
f 642 668 480
f 642 436 516
f 124 100 489
f 124 756 489
f 124 428 100
f 124 941 428
f 124 756 941
f 23 798 149
f 23 149 625
f 23 467 346
f 23 798 346
f 23 237 625
f 23 237 467
f 121 710 724
f 121 724 624
f 121 548 624
f 355 376 228
f 355 527 228
f 355 376 769
f 312 933 224
f 312 257 224
f 312 933 45
f 312 257 45
f 69 257 339
f 69 257 669
f 69 339 36
f 69 669 36
f 910 388 833
f 910 388 435
f 910 160 833
f 910 435 747
f 910 160 747
f 537 48 304
f 537 364 383
f 537 304 364
f 537 606 383
f 931 554 769
f 931 119 554
f 931 355 769
f 931 917 922
f 931 119 917
f 500 440 14
f 500 440 159
f 500 14 732
f 500 392 732
f 500 392 240
f 500 159 240
f 254 21 172
f 254 305 861
f 254 21 454
f 254 305 454
f 254 172 87
f 254 861 87
f 930 421 251
f 930 810 421
f 238 295 499
f 238 198 463
f 238 499 198
f 238 681 463
f 238 681 615
f 238 295 615
f 549 692 239
f 549 692 928
f 549 167 239
f 549 167 928
f 558 287 949
f 558 536 938
f 558 869 938
f 558 287 869
f 558 916 536
f 558 949 916
f 212 451 204
f 212 451 720
f 212 204 536
f 212 720 567
f 212 639 536
f 212 698 567
f 212 698 639
f 379 854 850
f 379 287 850
f 379 287 869
f 320 866 719
f 320 288 958
f 320 866 288
f 538 456 708
f 538 368 456
f 538 486 708
f 538 368 486
f 658 516 480
f 658 642 480
f 658 642 516
f 210 121 710
f 210 842 710
f 210 798 346
f 210 798 545
f 210 842 545
f 210 548 346
f 210 121 548
f 150 527 875
f 150 355 527
f 150 931 355
f 150 931 922
f 150 726 922
f 150 875 4
f 150 726 4
f 593 537 48
f 593 718 638
f 593 48 718
f 593 544 638
f 593 397 544
f 593 606 397
f 593 537 606
f 610 810 808
f 610 930 810
f 610 72 808
f 610 72 845
f 377 251 131
f 377 930 251
f 377 49 131
f 377 49 845
f 377 610 845
f 377 610 930
f 908 716 719
f 908 682 716
f 478 320 719
f 478 908 719
f 290 379 869
f 290 682 869
f 290 908 682
f 290 478 908
f 874 854 881
f 874 881 330
f 874 379 854
f 874 330 958
f 874 290 379
f 874 290 478
f 874 320 958
f 874 478 320
