o convex_0
v -0.060548 0.008230 -0.073135
v 0.061928 0.006995 0.043207
v 0.061928 -0.006459 0.043207
v -0.050751 -0.010128 0.087321
v 0.006806 -0.061581 -0.068219
v 0.017825 0.058436 -0.073135
v -0.016457 0.049863 0.086088
v 0.021507 -0.048103 0.086088
v 0.053355 -0.024829 -0.078018
v -0.038508 -0.049314 0.043224
v 0.037418 0.037620 0.086088
v -0.038508 0.048640 0.043224
v -0.044624 -0.037072 -0.080485
v 0.049673 0.032716 -0.078018
v -0.026254 0.048640 -0.081701
v 0.037418 -0.049314 0.043224
v -0.061783 -0.005236 0.043224
v 0.003124 0.062130 0.043224
v 0.039877 0.048640 0.041991
v 0.001901 -0.061581 0.044441
v 0.050896 -0.013809 0.086088
v -0.033604 0.052321 -0.068219
v -0.054432 0.027823 0.049324
v -0.018903 -0.048103 0.087321
v 0.031303 -0.045645 -0.081701
v -0.023807 -0.057900 -0.066986
v -0.053209 -0.033403 -0.067002
v 0.060693 0.011899 -0.068219
v -0.053209 0.032728 -0.067002
v 0.055801 0.029046 0.041974
v 0.049673 -0.037072 -0.068219
v -0.040955 0.031493 0.087321
v -0.011565 0.060895 -0.068219
v -0.051974 -0.033403 0.048107
v 0.032526 0.042524 -0.082935
v -0.011565 -0.050550 -0.082935
v 0.053355 -0.030956 0.046890
v 0.022730 -0.057888 -0.066986
v 0.017825 0.048652 0.087321
v -0.021349 0.058436 0.043224
v -0.048305 0.018027 -0.082935
v 0.058247 -0.021148 -0.066986
v 0.049673 0.037620 -0.066986
v -0.015234 -0.060346 0.043224
v -0.060548 -0.016255 -0.067002
v 0.050896 0.014345 0.086088
v 0.019048 -0.059111 0.043224
v 0.052119 -0.007670 -0.082918
v 0.022730 0.058436 0.041991
v 0.033749 0.052321 -0.066986
v -0.060548 0.013134 0.043224
v -0.040955 -0.032179 0.087321
v -0.040955 -0.046880 -0.073135
v 0.041100 -0.033390 0.086088
v -0.050751 0.011899 0.086088
v -0.058102 -0.022371 0.043224
v 0.036195 -0.050538 -0.066986
v 0.008029 -0.050550 0.087321
v -0.009106 -0.061581 -0.066986
v 0.011698 0.060895 -0.068219
v -0.061783 0.008230 -0.067002
v -0.054432 -0.010128 -0.081701
v 0.060693 -0.011351 -0.068219
v -0.004202 0.052321 -0.082935
f 35 41 64 
f 3 2 21 
f 2 3 28 
f 12 22 29 
f 22 15 29 
f 23 12 29 
f 19 11 30 
f 2 28 30 
f 25 9 31 
f 7 12 32 
f 12 23 32 
f 4 24 32 
f 15 22 33 
f 27 10 34 
f 25 5 36 
f 3 21 37 
f 16 31 37 
f 5 25 38 
f 18 7 39 
f 11 19 39 
f 7 32 39 
f 32 24 39 
f 12 7 40 
f 7 18 40 
f 22 12 40 
f 18 33 40 
f 33 22 40 
f 1 29 41 
f 29 15 41 
f 35 36 41 
f 31 9 42 
f 3 37 42 
f 37 31 42 
f 28 14 43 
f 19 30 43 
f 30 28 43 
f 24 10 44 
f 20 24 44 
f 10 26 44 
f 13 27 45 
f 21 2 46 
f 2 30 46 
f 30 11 46 
f 11 39 46 
f 39 21 46 
f 16 8 47 
f 20 5 47 
f 5 38 47 
f 38 16 47 
f 9 25 48 
f 14 28 48 
f 35 14 48 
f 25 36 48 
f 36 35 48 
f 18 39 49 
f 39 19 49 
f 14 35 50 
f 35 6 50 
f 43 14 50 
f 19 43 50 
f 6 49 50 
f 49 19 50 
f 23 29 51 
f 24 4 52 
f 10 24 52 
f 4 34 52 
f 34 10 52 
f 26 10 53 
f 27 13 53 
f 10 27 53 
f 13 36 53 
f 36 26 53 
f 8 16 54 
f 16 37 54 
f 37 21 54 
f 17 4 55 
f 4 32 55 
f 32 23 55 
f 51 17 55 
f 23 51 55 
f 4 17 56 
f 34 4 56 
f 27 34 56 
f 17 45 56 
f 45 27 56 
f 31 16 57 
f 25 31 57 
f 16 38 57 
f 38 25 57 
f 24 20 58 
f 21 39 58 
f 39 24 58 
f 47 8 58 
f 20 47 58 
f 8 54 58 
f 54 21 58 
f 5 20 59 
f 36 5 59 
f 26 36 59 
f 20 44 59 
f 44 26 59 
f 6 33 60 
f 33 18 60 
f 49 6 60 
f 18 49 60 
f 29 1 61 
f 1 45 61 
f 45 17 61 
f 17 51 61 
f 51 29 61 
f 36 13 62 
f 1 41 62 
f 41 36 62 
f 45 1 62 
f 13 45 62 
f 28 3 63 
f 3 42 63 
f 42 9 63 
f 9 48 63 
f 48 28 63 
f 33 6 64 
f 15 33 64 
f 6 35 64 
f 41 15 64 
