# Blender v3.6.23 OBJ File: ''
# www.blender.org
o collision_collision_mesh
v -0.004349 0.042646 0.002497
v -0.016729 -0.040934 -0.003460
v -0.011771 -0.041511 -0.012124
v -0.003291 -0.037052 -0.024941
v 0.003688 -0.040709 0.015882
v -0.007688 -0.042501 0.011660
v -0.021170 -0.039008 -0.006367
v -0.015108 -0.040561 -0.014233
v -0.019474 -0.037486 -0.017032
v -0.006759 -0.034742 -0.027966
v 0.006927 -0.036869 -0.025789
v 0.003581 -0.038957 0.020947
v -0.010999 -0.041887 0.013160
v -0.016704 -0.039029 0.013559
v -0.020284 -0.038342 0.006508
v -0.025187 -0.036307 -0.004549
v -0.021983 -0.037009 -0.014197
v -0.005460 -0.030397 -0.032509
v 0.017409 -0.037900 -0.016590
v 0.017089 -0.038157 0.014342
v 0.015316 -0.035781 0.020693
v -0.002634 -0.036303 0.025044
v -0.008343 -0.039738 0.018873
v -0.015852 -0.036819 0.019716
v -0.027287 -0.033849 -0.008783
v -0.012773 -0.032249 -0.028281
v -0.012147 -0.027220 -0.033066
v -0.007886 -0.025389 -0.035603
v 0.022654 -0.035668 -0.016965
v 0.021470 -0.038774 -0.005798
v 0.020082 -0.033912 0.019756
v 0.004911 -0.032346 0.029609
v -0.011504 -0.035356 0.024415
v -0.026189 -0.032659 0.009437
v -0.029083 -0.031504 0.004190
v -0.031171 -0.030230 -0.003066
v -0.031886 -0.028380 -0.008962
v -0.028082 -0.030095 -0.016000
v -0.024421 -0.030216 -0.020864
v -0.017285 -0.027196 -0.029951
v -0.001231 -0.025064 -0.036732
v 0.007000 -0.032282 -0.031823
v 0.019308 -0.035379 -0.021357
v 0.025691 -0.037082 -0.005624
v 0.026375 -0.036318 -0.001974
v 0.028407 -0.033424 0.004495
v 0.030796 -0.028602 0.010964
v 0.014375 -0.029821 0.028215
v -0.006661 -0.030805 0.030412
v -0.017603 -0.030958 0.025811
v -0.020284 -0.032728 0.020941
v -0.030491 -0.025057 0.014848
v -0.033199 -0.025453 0.006490
v -0.014424 -0.022455 -0.035076
v 0.008289 -0.027447 -0.035435
v 0.032031 -0.031329 -0.003776
v 0.023324 -0.026636 0.024608
v 0.014436 -0.023692 0.032932
v 0.007596 -0.027011 0.033618
v -0.000019 -0.026861 0.034600
v -0.013942 -0.027393 0.030832
v -0.020953 -0.025322 0.028201
v -0.024542 -0.026346 0.023183
v -0.034856 -0.020849 -0.014851
v -0.029938 -0.024962 -0.019766
v -0.020224 -0.020093 -0.032623
v 0.008396 -0.020326 -0.038956
v 0.015777 -0.023435 -0.035282
v 0.021157 -0.027268 -0.030281
v 0.021057 -0.031804 -0.025895
v 0.030835 -0.031564 -0.010109
v 0.035500 -0.024268 0.005731
v 0.034364 -0.020695 0.015345
v 0.026930 -0.016588 0.028314
v 0.017860 -0.018649 0.033747
v -0.009882 -0.023486 0.034830
v -0.035247 -0.020215 0.009870
v -0.036050 -0.022776 -0.002052
v -0.038582 -0.017762 -0.005943
v -0.036186 -0.013015 -0.019454
v -0.031957 -0.018454 -0.022010
v -0.009017 -0.019461 -0.038256
v -0.000925 -0.016724 -0.040292
v 0.027216 -0.029680 -0.021499
v 0.035936 -0.024828 -0.008903
v 0.037964 -0.021593 -0.003614
v 0.038041 -0.018209 0.007911
v 0.038531 -0.011557 0.013528
v 0.035750 -0.013498 0.018168
v 0.010013 -0.015252 0.038884
v 0.002480 -0.022359 0.037331
v -0.003020 -0.018218 0.038854
v -0.025394 -0.018702 0.028486
v -0.030316 -0.016157 0.023665
v -0.034478 -0.016347 0.015939
v -0.039132 -0.016132 0.002071
v -0.039500 -0.013583 -0.009302
v -0.038650 -0.010492 -0.015224
v -0.004590 -0.008360 -0.041884
v 0.006332 -0.014344 -0.041054
v 0.014133 -0.013436 -0.039931
v 0.023618 -0.020737 -0.033039
v 0.028584 -0.023450 -0.026936
v 0.032279 -0.026218 -0.017073
v 0.037069 -0.016745 -0.017150
v 0.041072 -0.011859 0.002423
v 0.035071 -0.006897 0.021479
v 0.029118 -0.010986 0.028355
v 0.022496 -0.009573 0.034188
v 0.004842 -0.012752 0.040814
v -0.001314 -0.007720 0.042048
v -0.012179 -0.016233 0.037163
v -0.022007 -0.017298 0.032163
v -0.020446 -0.015176 -0.035060
v -0.013717 -0.011195 -0.039827
v 0.024956 -0.014162 -0.034899
v 0.033276 -0.015447 -0.025913
v 0.040934 -0.008175 -0.011047
v 0.040680 -0.014195 -0.006876
v 0.038921 -0.003253 0.015588
v 0.015682 -0.002081 0.038795
v 0.007069 -0.006384 0.041650
v -0.007785 -0.008519 0.040746
v -0.029935 -0.007872 0.028295
v -0.035373 -0.009111 0.018533
v -0.040968 -0.008898 0.005470
v -0.041982 -0.007556 -0.001796
v -0.034286 -0.009216 -0.023552
v -0.021629 -0.008250 -0.036270
v -0.013515 -0.004330 -0.040690
v 0.002944 -0.006252 -0.042306
v 0.016196 -0.006444 -0.040246
v 0.029526 -0.014464 -0.030982
v 0.036530 -0.009037 -0.023087
v 0.038769 -0.004090 -0.018558
v 0.042698 -0.002878 -0.003428
v 0.041582 -0.004749 0.005996
v 0.040599 0.000317 0.011120
v 0.035284 0.000094 0.021976
v 0.028057 -0.003268 0.030675
v 0.024783 0.000808 0.033349
v -0.019647 -0.006410 0.036422
v -0.026118 -0.007923 0.032123
v -0.040623 -0.004583 0.008622
v 0.009657 -0.003009 -0.042087
v 0.027724 -0.006875 -0.034357
v 0.032727 -0.005411 -0.029631
v 0.041314 0.004172 0.006024
v 0.028266 0.005700 0.029399
v 0.009224 0.000235 0.041124
v -0.000125 0.003852 0.041904
v -0.007602 -0.000700 0.041419
v -0.026120 0.000480 0.032545
v -0.030658 0.002721 0.027989
v -0.038825 0.001879 0.013462
v -0.041590 0.000297 -0.009397
v -0.038078 -0.002902 -0.018708
v -0.034266 -0.000456 -0.024811
v -0.025492 -0.000972 -0.033505
v -0.001631 -0.000760 -0.042158
v 0.017815 0.001427 -0.039543
v 0.023050 -0.003536 -0.037585
v 0.028949 0.002088 -0.033171
v 0.036048 -0.000561 -0.024501
v 0.040216 0.003182 -0.012857
v 0.040167 0.008993 -0.008862
v 0.042132 0.004057 -0.000875
v 0.038644 0.006857 0.013944
v 0.035265 0.008479 0.019634
v 0.025064 0.010609 0.030809
v 0.018789 0.007123 0.036208
v 0.012427 0.010883 0.038058
v 0.007631 0.007976 0.040246
v -0.025074 0.007229 0.032119
v -0.041948 0.002157 0.005064
v -0.042560 0.003984 -0.001922
v -0.037672 0.008557 -0.017021
v -0.035331 0.005496 -0.022613
v -0.019768 0.001334 -0.037893
v -0.013720 0.002799 -0.040193
v -0.003817 0.007458 -0.040581
v 0.033816 0.004494 -0.027253
v 0.037459 0.009211 -0.016675
v -0.007767 0.007926 0.039980
v -0.015256 0.004001 0.037887
v -0.040571 0.008876 0.006687
v -0.040395 0.010551 -0.006423
v -0.023074 0.007848 -0.034441
v -0.016276 0.010925 -0.037098
v -0.009942 0.011333 -0.038548
v 0.009286 0.006525 -0.040852
v 0.015993 0.008850 -0.038551
v 0.024487 0.008301 -0.034842
v 0.030850 0.008231 -0.029565
v 0.033900 0.012932 -0.021219
v 0.040655 0.010317 -0.001673
v 0.038794 0.013030 0.005167
v 0.035583 0.015628 0.012280
v 0.030286 0.018028 0.018747
v 0.023093 0.018717 0.027165
v 0.019762 0.016718 0.031590
v 0.000753 0.015356 0.038603
v -0.029429 0.010802 0.026576
v -0.037958 0.010118 0.012377
v -0.039422 0.014636 -0.000536
v -0.031575 0.014078 -0.022727
v -0.026871 0.011804 -0.029302
v 0.003836 0.013916 -0.038456
v 0.019485 0.017112 -0.033220
v 0.025876 0.018160 -0.027741
v 0.034179 0.017118 -0.015354
v 0.037118 0.017235 -0.005761
v 0.013812 0.018577 0.033642
v 0.008637 0.018142 0.035870
v -0.006990 0.014050 0.037993
v -0.015267 0.013690 0.034975
v -0.024718 0.016353 0.027990
v -0.027432 0.017842 0.023969
v -0.037639 0.016402 0.007829
v -0.020689 0.016988 -0.031031
v -0.014895 0.016815 -0.034335
v 0.005818 0.017883 -0.036107
v 0.012995 0.015302 -0.036642
v 0.014226 0.021719 -0.031730
v 0.027330 0.022039 -0.020879
v 0.030885 0.021461 0.013189
v 0.002607 0.018899 0.036438
v -0.006673 0.020515 0.034437
v -0.020539 0.015729 0.031268
v -0.034220 0.021636 0.007321
v -0.033861 0.018030 -0.014824
v -0.027794 0.020272 -0.021290
v -0.008428 0.019184 -0.034384
v 0.004724 0.022656 -0.032059
v 0.010084 0.026060 -0.027771
v 0.021862 0.021930 -0.027331
v 0.030282 0.022828 -0.012261
v 0.036121 0.018822 0.001183
v 0.029452 0.024727 0.006219
v 0.018073 0.023825 0.026440
v 0.006492 0.024904 0.030825
v 0.001995 0.026500 0.030088
v -0.006265 0.025719 0.029427
v -0.020090 0.021374 0.026890
v -0.023377 0.023432 0.021655
v -0.031290 0.024616 0.006725
v -0.034193 0.022874 0.000377
v -0.030024 0.023688 -0.011106
v -0.024209 0.024191 -0.018945
v -0.018506 0.022405 -0.027031
v -0.013435 0.022511 -0.029782
v 0.000185 0.025172 -0.029030
v 0.016876 0.026393 -0.024923
v 0.024929 0.025849 0.013739
v 0.013789 0.027035 0.025091
v 0.023316 0.026476 -0.016870
v 0.030427 0.024475 -0.003279
v -0.005464 0.042565 0.001168
vn -0.1871 -0.0798 0.9791
vn -0.5818 -0.4203 0.6963
vn -0.6039 -0.0177 -0.7969
vn -0.8987 0.0949 -0.4283
vn 0.0031 -0.3415 0.9399
vn 0.8655 0.4218 -0.2703
vn 0.9498 0.1706 0.2623
vn 0.8548 -0.0378 -0.5176
vn -0.3205 0.4685 0.8232
vn -0.6196 -0.7196 0.3137
vn -0.9307 0.3435 0.1258
vn -0.6912 -0.6018 0.4002
vn 0.3366 0.7100 -0.6186
vn -0.9770 0.1689 0.1299
vn 0.3889 -0.9137 0.1183
vn -0.6795 -0.2374 -0.6943
vn -0.9960 -0.0491 0.0745
vn -0.8701 -0.0470 0.4906
vn -0.8143 -0.5041 0.2877
vn -0.8404 0.5003 -0.2082
vn -0.8352 -0.2386 0.4955
vn -0.8021 0.3762 0.4637
vn -0.9569 0.2874 -0.0412
vn -0.7013 0.1331 -0.7003
vn 0.5805 0.7685 -0.2692
vn -0.1741 -0.5639 0.8072
vn 0.9703 0.0230 -0.2406
vn 0.7968 -0.2033 0.5690
vn 0.3523 -0.5730 0.7400
vn -0.7914 0.3967 0.4651
vn 0.7150 0.5327 -0.4527
vn 0.4650 0.1460 -0.8732
vn -0.7337 0.6426 -0.2208
vn -0.5460 -0.0421 0.8367
vn -0.0691 -0.7110 -0.6998
vn 0.7282 0.5410 -0.4208
vn 0.7212 0.6723 0.1668
vn -0.7400 0.5243 0.4212
vn 0.3289 -0.0320 0.9438
vn -0.1603 0.1594 0.9741
vn -0.4707 0.1280 0.8729
vn -0.6489 0.6406 0.4105
vn -0.6193 0.6856 0.3826
vn 0.6833 0.7284 0.0508
vn -0.4385 -0.0994 -0.8932
vn -0.9683 -0.1472 -0.2019
vn -0.8314 -0.0771 -0.5503
vn -0.9562 -0.2810 0.0815
vn 0.1894 0.3584 -0.9141
vn 0.3897 -0.4789 -0.7866
vn -0.5657 0.8240 0.0326
vn -0.5568 0.8181 -0.1441
vn -0.5290 0.6225 0.5768
vn 0.9478 0.2837 0.1454
vn -0.0907 0.2811 0.9554
vn 0.7631 -0.3021 0.5714
vn -0.8954 -0.0791 0.4381
vn -0.4269 -0.4449 0.7873
vn -0.3549 0.5087 0.7844
vn -0.2312 0.2819 -0.9312
vn -0.4806 0.8227 -0.3036
vn 0.7671 0.4431 0.4639
vn -0.4535 0.5684 0.6865
vn -0.3753 0.6437 -0.6669
vn 0.6022 -0.3285 -0.7277
vn -0.3529 -0.0720 0.9329
vn 0.9576 -0.1814 0.2240
vn -0.6128 -0.7765 -0.1470
vn -0.3676 0.5880 0.7205
vn -0.1216 0.8442 0.5220
vn 0.1601 0.8676 0.4709
vn -0.3288 0.8099 0.4857
vn -0.1852 0.4881 -0.8529
vn -0.6016 0.5135 -0.6119
vn 0.2332 -0.4370 0.8687
vn 0.1382 0.8905 -0.4336
vn -0.0139 0.8653 -0.5010
vn -0.1371 0.8471 -0.5135
vn -0.2737 0.8378 -0.4724
vn -0.3515 0.8309 -0.4314
vn 0.8545 0.2965 -0.4265
vn 0.6772 -0.7271 0.1126
vn -0.5641 0.7377 -0.3710
vn -0.0423 -0.6930 0.7197
vn -0.4878 0.4140 -0.7685
vn -0.3321 0.6676 0.6664
vn -0.4438 0.2333 -0.8652
vn -0.3414 0.7818 0.5217
vn 0.4471 0.8885 -0.1031
vn 0.3896 0.8738 0.2910
vn 0.4517 0.8811 0.1402
vn 0.4661 0.8844 0.0244
vn -0.8259 -0.5545 0.1019
vn -0.1265 0.0135 -0.9919
vn 0.6921 0.0859 0.7166
vn 0.0883 -0.1161 -0.9893
vn -0.7590 -0.6418 -0.1094
vn 0.3336 0.9014 -0.2761
vn -0.5835 -0.7354 0.3446
vn -0.1312 -0.4258 -0.8953
vn 0.8505 0.4082 -0.3318
vn -0.6302 -0.7639 0.1389
vn 0.9886 -0.1180 0.0936
vn -0.8542 -0.5099 -0.1013
vn -0.6538 -0.5869 -0.4776
vn -0.2409 0.6429 -0.7271
vn -0.6055 0.5112 -0.6100
vn 0.9866 0.0292 0.1605
vn -0.6872 -0.6372 0.3489
vn 0.1357 0.1392 0.9809
vn 0.4747 0.5775 -0.6642
vn -0.5287 0.6154 0.5846
vn 0.7524 0.0756 0.6543
vn -0.1093 0.7452 -0.6578
vn -0.8697 -0.0451 0.4916
vn -0.1271 -0.8121 0.5696
vn 0.5005 0.5828 0.6402
vn -0.5964 -0.4942 -0.6325
vn -0.3987 0.0392 0.9162
vn -0.8540 -0.4847 -0.1892
vn -0.0197 -0.3919 -0.9198
vn 0.1405 0.4616 0.8759
vn -0.0542 0.5286 -0.8471
vn -0.4525 -0.8742 -0.1762
vn -0.3954 -0.4234 0.8151
vn -0.4172 -0.5986 -0.6838
vn 0.8485 -0.4315 -0.3063
vn 0.6054 0.6464 0.4644
vn -0.8910 -0.3374 -0.3039
vn 0.6081 0.4437 0.6583
vn 0.4786 0.7862 -0.3908
vn -0.0652 0.3807 -0.9224
vn 0.3809 -0.1577 0.9111
vn 0.8851 0.4649 0.0209
vn -0.0463 -0.5973 -0.8007
vn -0.6951 0.7082 0.1236
vn -0.6104 -0.7560 0.2363
vn 0.1971 0.8102 0.5521
vn -0.3859 0.2651 0.8836
vn -0.6840 -0.6753 -0.2759
vn -0.8906 -0.3873 -0.2383
vn -0.6178 0.3441 0.7071
vn -0.2842 -0.4848 -0.8271
vn 0.9763 0.1282 -0.1746
vn 0.4078 0.3983 0.8216
vn 0.7014 -0.1439 -0.6981
vn 0.6375 -0.1401 0.7576
vn 0.2792 -0.6627 0.6949
vn 0.2622 0.6292 0.7317
vn -0.3491 -0.9332 -0.0849
vn 0.1617 -0.3712 0.9143
vn 0.1225 0.3866 -0.9141
vn 0.7043 0.6433 -0.3001
vn 0.0024 0.3100 -0.9507
vn 0.1040 -0.9874 -0.1191
vn 0.9001 -0.4196 0.1172
vn -0.1128 0.1583 -0.9809
vn 0.2166 -0.1077 -0.9703
vn 0.2280 0.1338 -0.9644
vn 0.0613 0.2710 0.9606
vn -0.0664 0.7164 -0.6945
vn 0.8674 -0.1488 0.4749
vn 0.4023 0.2177 -0.8892
vn 0.7336 -0.5311 -0.4239
vn -0.1681 -0.8668 -0.4695
vn 0.2988 -0.6210 -0.7246
vn -0.4911 -0.4046 -0.7714
vn -0.0337 -0.8125 -0.5820
vn -0.2565 -0.8241 -0.5051
vn 0.7730 -0.1827 -0.6075
vn -0.1224 0.6933 0.7101
vn 0.3347 0.4069 -0.8499
vn 0.6874 -0.5639 0.4577
vn -0.7880 -0.5408 -0.2942
vn 0.7210 0.4569 -0.5209
vn 0.3654 -0.3425 -0.8656
vn -0.4309 -0.5570 0.7099
vn 0.3094 -0.6646 -0.6801
vn 0.6204 0.2453 -0.7449
vn 0.7082 0.4219 0.5661
vn 0.7802 -0.0680 0.6218
vn -0.3835 -0.3906 0.8369
vn -0.0113 -0.1575 -0.9875
vn 0.4468 0.3508 0.8230
vn -0.9216 0.0883 -0.3779
vn 0.5461 -0.7288 -0.4130
vn 0.7276 0.1656 -0.6657
vn -0.1111 -0.4696 0.8758
vn 0.2709 -0.7679 -0.5804
vn -0.0109 -0.9422 -0.3349
vn -0.0428 -0.9345 -0.3534
vn -0.7931 0.4212 -0.4400
vn 0.0948 0.7186 -0.6890
vn 0.9919 0.0295 0.1233
vn -0.0011 -0.9338 0.3577
vn 0.9708 0.2156 -0.1056
vn -0.9373 -0.0003 0.3485
vn -0.1428 -0.4765 0.8675
vn -0.4240 0.2602 0.8675
vn 0.7209 -0.3459 -0.6005
vn -0.2329 -0.9701 -0.0687
vn 0.0957 -0.5546 0.8266
vn -0.0321 -0.8604 0.5086
vn 0.7666 -0.6168 0.1784
vn 0.2423 -0.8942 -0.3763
vn 0.0884 -0.9737 -0.2099
vn 0.1446 -0.9890 0.0303
vn 0.0876 -0.6263 0.7747
vn 0.9924 0.0378 0.1171
vn -0.3924 0.2170 -0.8938
vn -0.5043 -0.2176 0.8357
vn 0.9270 -0.1860 -0.3258
vn -0.2451 -0.3663 0.8976
vn 0.6847 -0.7216 -0.1025
vn -0.8192 0.5410 -0.1903
vn 0.3507 -0.8784 -0.3248
vn 0.2128 -0.9220 0.3234
vn 0.1946 -0.9782 0.0723
vn 0.3661 -0.9243 0.1080
vn 0.3788 -0.3926 0.8381
vn -0.4106 -0.9074 0.0895
vn 0.4729 -0.5403 0.6960
vn -0.6287 0.0903 -0.7724
vn -0.7452 -0.6096 0.2703
vn 0.5016 0.3334 0.7983
vn 0.2840 -0.8033 -0.5235
vn -0.7422 -0.3007 0.5990
vn 0.8510 -0.5198 0.0756
vn 0.3914 -0.6968 0.6010
vn -0.6681 -0.4729 0.5745
vn -0.8291 0.5509 0.0951
vn 0.8860 0.0979 0.4531
vn 0.7556 -0.3602 0.5472
vn 0.4728 -0.6249 0.6212
vn 0.2987 -0.4405 0.8466
vn -0.9005 -0.2071 0.3823
vn 0.9349 -0.2279 -0.2720
vn -0.0115 -0.9341 0.3568
vn -0.7387 -0.2880 -0.6093
vn 0.9121 0.3876 -0.1334
vn 0.8919 0.3626 0.2703
vn 0.5241 -0.8266 0.2051
vn 0.5713 -0.7689 0.2871
vn 0.7033 -0.4542 0.5470
vn -0.2794 -0.8486 0.4492
vn 0.6151 -0.7239 0.3124
vn 0.0551 -0.7978 0.6004
vn -0.2351 -0.2961 0.9258
vn -0.4055 -0.3336 -0.8510
vn 0.0461 0.0076 0.9989
vn -0.0383 -0.5915 -0.8054
vn 0.9152 -0.3865 -0.1146
vn 0.5831 -0.0629 0.8100
vn 0.5075 0.1356 -0.8509
vn 0.2494 -0.4323 -0.8666
vn -0.3377 0.1485 0.9295
vn 0.9229 0.2233 -0.3136
vn -0.7176 -0.6949 -0.0477
vn -0.9933 -0.0510 -0.1038
vn -0.1404 -0.2441 -0.9595
vn -0.9489 -0.3157 -0.0009
vn -0.3981 -0.8445 0.3582
vn -0.8544 0.0385 -0.5182
vn -0.0515 -0.0160 -0.9985
vn -0.6530 -0.3598 -0.6664
vn -0.9890 -0.0831 0.1226
vn -0.0771 0.0203 0.9968
vn -0.0832 0.5508 0.8305
vn -0.7001 0.5367 -0.4709
vn 0.8108 -0.1638 -0.5619
vn 0.2865 -0.7332 0.6167
vn -0.3850 -0.7181 0.5798
vn 0.7408 0.5329 0.4090
vn 0.3116 0.6902 0.6531
vn -0.4445 -0.5202 -0.7293
vn -0.6957 0.1154 -0.7090
vn 0.0713 -0.1544 0.9854
vn 0.3910 0.3766 -0.8398
vn -0.2135 -0.5862 -0.7815
vn -0.1118 -0.5609 -0.8203
vn -0.8651 0.1540 0.4774
vn 0.8718 -0.2592 -0.4157
vn -0.1565 0.2533 -0.9546
vn -0.8912 0.2948 0.3449
vn -0.0365 -0.2022 -0.9787
vn -0.9655 -0.1468 -0.2152
vn -0.0071 0.1867 -0.9824
vn 0.5394 -0.3135 0.7815
vn -0.9622 0.1732 -0.2103
vn 0.1008 0.0462 0.9938
vn -0.8449 -0.2700 0.4618
vn -0.3229 -0.3506 -0.8791
vn -0.8458 0.5292 0.0685
vn -0.8418 0.2147 0.4953
vn -0.4540 -0.0624 -0.8888
vn 0.2590 0.1902 -0.9470
vn -0.9414 -0.0795 -0.3278
vn 0.5419 0.4395 -0.7163
vn -0.8637 -0.4852 0.1363
vn 0.0320 0.1297 -0.9910
vn 0.9782 0.1371 -0.1559
vn 0.8500 -0.4531 0.2688
vn 0.2476 -0.8827 0.3994
vn -0.8983 -0.3518 0.2633
vn -0.8665 -0.4615 0.1900
vn -0.8924 -0.2460 0.3783
vn 0.2179 0.7629 -0.6087
vn -0.0995 -0.3875 -0.9165
vn -0.1835 -0.1174 -0.9760
vn 0.9641 0.2416 0.1104
vn 0.5817 0.0280 -0.8130
vn 0.5315 -0.4544 0.7149
vn 0.2264 -0.7907 0.5688
vn -0.6630 0.1490 0.7337
vn -0.8889 -0.1340 -0.4380
vn 0.4740 0.7932 0.3823
vn -0.4384 -0.8955 0.0765
vn 0.9843 -0.1764 0.0028
vn 0.5779 0.1891 0.7939
vn -0.3677 0.6363 -0.6782
vn 0.6320 -0.3723 -0.6797
vn -0.1496 -0.2660 -0.9523
vn -0.2972 -0.7855 -0.5428
vn -0.9737 -0.0784 0.2141
vn 0.9633 0.0183 -0.2677
vn 0.7242 0.6875 -0.0531
vn 0.5901 0.7709 0.2399
vn -0.2263 0.4567 -0.8604
vn 0.1682 -0.2740 -0.9469
vn -0.3121 -0.6522 0.6908
vn -0.4949 -0.6931 0.5242
vn -0.7790 -0.5289 -0.3368
vn 0.2502 -0.2116 0.9448
vn -0.7341 -0.4404 0.5169
vn 0.4838 -0.7684 -0.4190
vn -0.1588 -0.2636 0.9515
vn 0.4437 -0.2682 0.8551
vn 0.1833 0.3733 0.9094
vn -0.4580 0.0685 0.8863
vn -0.5404 0.3643 0.7584
vn 0.5636 0.7126 0.4178
vn -0.8898 -0.3253 0.3201
vn 0.8663 0.4076 -0.2889
vn -0.8871 -0.3364 -0.3162
vn 0.8015 -0.5837 -0.1297
vn -0.1258 -0.7387 0.6622
vn 0.7555 0.0732 -0.6511
vn -0.8390 -0.5399 -0.0677
vn -0.5953 -0.7911 -0.1402
vn 0.3276 0.4254 0.8437
vn -0.7878 0.3379 -0.5149
vn -0.0408 -0.2847 0.9577
vn -0.6743 0.4169 0.6095
vn 0.0104 0.7768 -0.6297
vn -0.0547 0.6376 0.7684
vn -0.1493 0.4821 0.8633
vn -0.5501 0.4141 -0.7252
vn -0.6904 0.2252 0.6875
vn 0.2619 0.5545 -0.7899
vn 0.9819 -0.1343 -0.1339
vn 0.6237 -0.7148 -0.3164
vn -0.9553 -0.2819 -0.0895
vn 0.2841 0.0272 -0.9584
vn 0.5551 -0.4922 -0.6705
vn 0.8057 0.3392 -0.4855
vn 0.5238 -0.0466 0.8506
vn 0.0907 0.6562 -0.7492
vn 0.9353 -0.1179 -0.3337
vn -0.4561 0.3262 0.8280
vn 0.5684 0.6587 -0.4929
vn -0.5982 -0.4869 -0.6364
vn -0.6403 -0.4203 -0.6430
vn 0.8835 -0.3384 0.3238
vn -0.8525 -0.1220 -0.5082
vn 0.9045 -0.3600 -0.2285
vn -0.4171 -0.2513 0.8734
vn -0.6824 -0.2845 -0.6734
vn -0.8593 0.4151 -0.2988
vn 0.1566 -0.1351 -0.9784
vn 0.5988 0.6541 0.4622
vn -0.9594 0.2741 0.0660
vn 0.4828 0.7673 -0.4221
vn 0.6156 0.1811 0.7670
vn 0.1505 0.6214 0.7689
vn -0.4283 0.4642 -0.7753
vn 0.8357 0.5157 0.1890
vn -0.7406 -0.6138 0.2735
vn -0.6402 0.6751 -0.3667
vn 0.9286 -0.3578 0.0989
vn -0.1415 0.0648 -0.9878
vn 0.6327 -0.1843 -0.7521
vn -0.1280 0.3208 0.9385
vn -0.2648 -0.4356 -0.8603
vn 0.0085 -0.3283 -0.9445
vn 0.1500 0.5827 -0.7987
vn 0.3208 0.1717 0.9315
vn 0.7321 0.3020 0.6107
vn 0.9331 0.2864 0.2174
vn -0.0468 -0.7152 0.6973
vn 0.1037 0.6426 0.7592
vn 0.7769 -0.0810 0.6244
vn 0.5391 0.8268 -0.1603
vn 0.0928 -0.9940 -0.0573
vn 0.6112 -0.2442 0.7529
vn 0.0139 0.0385 -0.9992
vn -0.5065 0.6349 -0.5834
vn 0.1029 0.4682 -0.8776
vn 0.7392 0.6314 -0.2341
vn 0.4017 -0.8152 0.4172
vn -0.4455 -0.8598 -0.2495
vn 0.5914 -0.6000 -0.5387
vn -0.9416 0.1903 -0.2777
vn -0.7974 -0.5901 0.1258
vn 0.3173 0.6672 0.6739
vn 0.9406 -0.2569 0.2222
vn 0.3700 0.6402 -0.6732
vn 0.8660 -0.3181 0.3858
vn -0.4733 0.7287 -0.4949
vn 0.7047 0.4263 0.5672
vn 0.8892 0.4532 0.0622
vn 0.9046 -0.0196 -0.4259
vn 0.5955 -0.7620 -0.2545
vn -0.9005 -0.4341 0.0265
vn 0.9438 -0.3277 0.0425
vn 0.5821 0.4196 -0.6965
vn -0.4688 -0.2291 -0.8531
vn 0.8528 -0.0629 0.5185
vn -0.7206 0.3071 -0.6217
vn 0.3151 -0.5586 -0.7673
vn 0.4939 0.0767 0.8661
vn 0.4219 0.5956 0.6836
vn 0.9057 0.0921 0.4138
vn 0.7030 0.6974 -0.1393
vn -0.6993 0.2146 -0.6819
vn -0.2236 -0.5740 0.7878
vn 0.8416 0.3687 0.3947
vn 0.7916 -0.5528 -0.2602
vn -0.3677 -0.2112 0.9056
vn -0.6329 -0.7522 0.1836
vn 0.3811 -0.3227 -0.8664
vn 0.7773 0.5935 0.2086
vn 0.1887 0.3724 0.9087
vn -0.7010 -0.7090 0.0772
vn -0.7951 -0.4189 0.4386
vn -0.3663 0.0543 -0.9289
vn 0.3583 0.0097 -0.9335
vn 0.6667 -0.7447 0.0310
vn 0.8540 -0.5202 -0.0093
vn 0.7651 -0.6186 0.1786
vn -0.0341 0.6419 -0.7660
vn 0.7117 -0.6207 -0.3289
vn 0.2874 -0.3646 -0.8857
vn -0.8243 -0.4243 0.3749
vn -0.4363 -0.8896 0.1349
vn 0.7771 0.1709 0.6057
vn 0.6863 0.0024 -0.7274
vn 0.8684 0.1352 0.4771
vn -0.5309 -0.8436 0.0802
vn -0.7379 -0.6286 -0.2457
vn 0.0273 -0.9445 0.3273
vn 0.5010 -0.1265 -0.8561
vn 0.5171 -0.4670 0.7173
vn 0.9259 0.1012 -0.3639
vn -0.2641 -0.8242 0.5010
vn 0.0111 -0.4434 -0.8963
vn 0.8116 -0.4137 -0.4126
vn 0.5633 -0.5808 -0.5876
vn -0.5002 -0.4784 -0.7218
vn -0.2651 -0.6529 0.7096
vn 0.8172 0.0480 -0.5744
vn 0.6648 -0.5963 0.4500
vn 0.4146 -0.1724 0.8936
vn -0.7578 -0.4516 0.4709
vn 0.8747 -0.1550 0.4592
vn -0.3361 0.3290 0.8825
vn 0.8024 -0.5222 0.2889
vn 0.2981 0.9044 -0.3053
vn -0.0841 0.4795 -0.8735
vn -0.0274 -0.7957 -0.6051
vn 0.9081 0.1740 -0.3809
vn -0.5971 -0.5867 0.5470
vn 0.9525 -0.1148 0.2822
vn -0.6827 -0.2744 0.6772
vn 0.3712 -0.9040 -0.2121
vn -0.6497 -0.2819 0.7060
vn -0.6114 -0.6551 -0.4439
vn -0.9308 0.1063 0.3496
vn -0.9107 0.1468 0.3861
vn 0.8055 -0.4187 -0.4193
vn 0.9011 0.1842 -0.3924
vn -0.5977 -0.5896 0.5432
vn -0.7033 -0.0994 -0.7039
vn 0.4133 -0.1528 -0.8977
vn 0.3698 -0.9045 -0.2124
vn -0.7010 -0.1039 -0.7056
vn -0.7936 -0.4027 -0.4561
vn -0.7152 -0.0286 0.6983
vn 0.3600 0.1565 0.9197
vn 0.9549 -0.0981 0.2803
vn -0.7932 -0.4033 -0.4562
vn -0.4906 -0.6353 -0.5964
vn -0.4711 0.8114 0.3459
vn -0.2394 -0.6666 -0.7060
vn -0.4880 -0.6431 -0.5902
vn -0.4917 0.8080 0.3246
vn 0.4072 -0.1607 -0.8991
vn -0.7079 -0.0355 0.7055
vn -0.6189 -0.6520 -0.4380
vn -0.2496 -0.6510 -0.7169
vn 0.3774 0.1303 0.9168
vn -0.1798 -0.9837 0.0056
vn -0.1439 -0.9895 -0.0165
s off
f 152//1 123//1 111//1
f 113//2 93//2 62//2
f 129//3 159//3 179//3
f 178//4 157//4 177//4
f 110//5 92//5 91//5
f 211//6 212//6 166//6
f 138//7 148//7 168//7
f 134//8 147//8 164//8
f 216//9 215//9 228//9
f 51//10 34//10 14//10
f 219//11 205//11 186//11
f 51//12 63//12 52//12
f 224//13 253//13 236//13
f 186//14 176//14 175//14
f 20//15 44//15 45//15
f 114//16 128//16 129//16
f 127//17 175//17 176//17
f 125//18 124//18 155//18
f 77//19 53//19 52//19
f 231//20 187//20 205//20
f 124//21 125//21 94//21
f 203//22 219//22 204//22
f 205//23 187//23 176//23
f 188//24 158//24 178//24
f 256//25 237//25 225//25
f 49//26 60//26 76//26
f 136//27 118//27 165//27
f 107//28 108//28 89//28
f 58//29 59//29 48//29
f 218//30 219//30 203//30
f 210//31 225//31 195//31
f 162//32 161//32 193//32
f 248//33 231//33 247//33
f 153//34 143//34 142//34
f 10//35 18//35 42//35
f 195//36 225//36 211//36
f 239//37 226//37 238//37
f 218//38 230//38 219//38
f 150//39 122//39 121//39
f 151//40 184//40 152//40
f 185//41 174//41 153//41
f 218//42 245//42 230//42
f 245//43 246//43 230//43
f 257//44 239//44 238//44
f 129//45 130//45 115//45
f 97//46 127//46 156//46
f 128//47 157//47 158//47
f 96//48 126//48 127//48
f 192//49 191//49 223//49
f 69//50 68//50 102//50
f 258//51 247//51 246//51
f 258//52 248//52 247//52
f 244//53 245//53 218//53
f 148//54 196//54 197//54
f 184//55 151//55 202//55
f 89//56 108//56 74//56
f 155//57 144//57 125//57
f 113//58 62//58 61//58
f 216//59 228//59 229//59
f 190//60 180//60 189//60
f 258//61 249//61 248//61
f 169//62 198//62 199//62
f 217//63 229//63 244//63
f 251//64 220//64 250//64
f 133//65 102//65 116//65
f 152//66 142//66 123//66
f 137//67 88//67 106//67
f 16//68 25//68 17//68
f 228//69 244//69 229//69
f 243//70 242//70 1//70
f 242//71 255//71 1//71
f 245//72 243//72 1//72
f 190//73 221//73 233//73
f 220//74 207//74 232//74
f 90//75 91//75 59//75
f 253//76 235//76 258//76
f 235//77 252//77 258//77
f 252//78 251//78 258//78
f 251//79 250//79 258//79
f 250//80 249//80 258//80
f 182//81 195//81 183//81
f 46//82 45//82 56//82
f 232//83 248//83 249//83
f 60//84 49//84 32//84
f 189//85 188//85 220//85
f 243//86 244//86 228//86
f 179//87 188//87 189//87
f 244//88 243//88 245//88
f 257//89 256//89 1//89
f 255//90 254//90 1//90
f 254//91 239//91 1//91
f 239//92 257//92 1//92
f 36//93 53//93 78//93
f 99//94 130//94 160//94
f 149//95 141//95 140//95
f 100//96 131//96 145//96
f 36//97 37//97 25//97
f 256//98 253//98 1//98
f 14//99 24//99 51//99
f 28//100 82//100 41//100
f 195//101 211//101 183//101
f 15//102 35//102 16//102
f 136//103 137//103 106//103
f 37//104 78//104 79//104
f 38//105 65//105 39//105
f 233//106 221//106 251//106
f 207//107 206//107 232//107
f 148//108 138//108 137//108
f 34//109 51//109 52//109
f 150//110 173//110 151//110
f 209//111 236//111 210//111
f 218//112 217//112 244//112
f 149//113 140//113 139//113
f 252//114 233//114 251//114
f 154//115 155//115 124//115
f 22//116 33//116 23//116
f 200//117 240//117 201//117
f 65//118 40//118 39//118
f 185//119 142//119 152//119
f 37//120 79//120 64//120
f 67//121 41//121 83//121
f 214//122 227//122 202//122
f 222//123 208//123 233//123
f 7//124 17//124 8//124
f 61//125 76//125 113//125
f 40//126 27//126 26//126
f 104//127 105//127 85//127
f 226//128 200//128 199//128
f 64//129 97//129 98//129
f 170//130 200//130 201//130
f 225//131 253//131 256//131
f 181//132 190//132 208//132
f 90//133 121//133 122//133
f 212//134 238//134 196//134
f 18//135 41//135 42//135
f 246//136 247//136 230//136
f 15//137 14//137 34//137
f 255//138 242//138 241//138
f 184//139 216//139 185//139
f 25//140 38//140 17//140
f 64//141 79//141 97//141
f 203//142 174//142 217//142
f 54//143 28//143 27//143
f 165//144 166//144 136//144
f 201//145 213//145 172//145
f 133//146 146//146 147//146
f 140//147 109//147 108//147
f 59//148 32//148 48//148
f 213//149 241//149 214//149
f 2//150 7//150 8//150
f 90//151 110//151 91//151
f 223//152 191//152 208//152
f 225//153 237//153 211//153
f 191//154 181//154 208//154
f 30//155 3//155 19//155
f 87//156 72//156 86//156
f 160//157 180//157 181//157
f 132//158 101//158 145//158
f 161//159 145//159 191//159
f 173//160 202//160 151//160
f 233//161 252//161 234//161
f 120//162 107//162 89//162
f 192//163 193//163 161//163
f 104//164 84//164 103//164
f 8//165 10//165 4//165
f 69//166 42//166 55//166
f 54//167 66//167 114//167
f 11//168 4//168 10//168
f 8//169 9//169 10//169
f 117//170 133//170 147//170
f 243//171 228//171 242//171
f 209//172 192//172 223//172
f 57//173 47//173 73//173
f 38//174 37//174 64//174
f 195//175 194//175 210//175
f 102//176 68//176 101//176
f 50//177 61//177 62//177
f 70//178 42//178 69//178
f 194//179 163//179 193//179
f 199//180 170//180 169//180
f 139//181 140//181 107//181
f 112//182 113//182 76//182
f 100//183 99//183 131//183
f 201//184 172//184 171//184
f 157//185 156//185 177//185
f 70//186 84//186 29//186
f 182//187 163//187 194//187
f 60//188 91//188 92//188
f 70//189 11//189 42//189
f 11//190 3//190 4//190
f 3//191 8//191 4//191
f 206//192 177//192 231//192
f 234//193 235//193 224//193
f 137//194 136//194 148//194
f 6//195 12//195 23//195
f 166//196 196//196 167//196
f 155//197 175//197 144//197
f 92//198 76//198 60//198
f 174//199 185//199 216//199
f 117//200 103//200 133//200
f 3//201 2//201 8//201
f 60//202 59//202 91//202
f 12//203 22//203 23//203
f 47//204 56//204 72//204
f 19//205 11//205 43//205
f 11//206 19//206 3//206
f 30//207 5//207 6//207
f 32//208 59//208 60//208
f 167//209 148//209 136//209
f 179//210 189//210 180//210
f 113//211 142//211 143//211
f 105//212 134//212 118//212
f 76//213 92//213 112//213
f 56//214 44//214 71//214
f 247//215 231//215 205//215
f 29//216 19//216 43//216
f 5//217 20//217 12//217
f 30//218 20//218 5//218
f 30//219 44//219 20//219
f 75//220 90//220 58//220
f 13//221 15//221 2//221
f 48//222 57//222 58//222
f 159//223 188//223 179//223
f 52//224 53//224 35//224
f 201//225 171//225 170//225
f 11//226 70//226 43//226
f 124//227 94//227 93//227
f 72//228 56//228 86//228
f 48//229 21//229 31//229
f 93//230 63//230 62//230
f 230//231 247//231 219//231
f 168//232 139//232 120//232
f 73//233 89//233 74//233
f 31//234 57//234 48//234
f 59//235 58//235 90//235
f 126//236 125//236 144//236
f 119//237 105//237 118//237
f 6//238 23//238 13//238
f 81//239 80//239 128//239
f 166//240 212//240 196//240
f 168//241 197//241 198//241
f 45//242 46//242 20//242
f 46//243 31//243 20//243
f 73//244 74//244 57//244
f 23//245 24//245 13//245
f 46//246 47//246 31//246
f 32//247 22//247 12//247
f 123//248 112//248 92//248
f 54//249 114//249 115//249
f 151//250 111//250 122//250
f 41//251 55//251 42//251
f 86//252 85//252 119//252
f 141//253 109//253 140//253
f 163//254 162//254 193//254
f 68//255 55//255 67//255
f 184//256 185//256 152//256
f 165//257 183//257 166//257
f 16//258 36//258 25//258
f 127//259 176//259 156//259
f 99//260 83//260 115//260
f 79//261 96//261 127//261
f 14//262 13//262 24//262
f 158//263 157//263 178//263
f 131//264 99//264 160//264
f 81//265 114//265 66//265
f 127//266 126//266 175//266
f 151//267 152//267 111//267
f 228//268 202//268 227//268
f 232//269 206//269 231//269
f 134//270 117//270 147//270
f 48//271 32//271 21//271
f 33//272 50//272 24//272
f 199//273 198//273 226//273
f 240//274 255//274 241//274
f 40//275 54//275 27//275
f 188//276 159//276 158//276
f 122//277 111//277 110//277
f 209//278 193//278 192//278
f 18//279 27//279 28//279
f 18//280 28//280 41//280
f 204//281 155//281 154//281
f 105//282 117//282 134//282
f 181//283 180//283 190//283
f 204//284 219//284 186//284
f 83//285 99//285 100//285
f 98//286 97//286 156//286
f 160//287 181//287 191//287
f 74//288 109//288 75//288
f 156//289 176//289 187//289
f 150//290 151//290 122//290
f 94//291 125//291 95//291
f 82//292 54//292 115//292
f 219//293 247//293 205//293
f 154//294 203//294 204//294
f 129//295 179//295 130//295
f 192//296 161//296 191//296
f 157//297 98//297 156//297
f 193//298 209//298 210//298
f 53//299 96//299 78//299
f 191//300 145//300 160//300
f 136//301 166//301 167//301
f 72//302 87//302 73//302
f 20//303 21//303 12//303
f 96//304 77//304 126//304
f 77//305 96//305 53//305
f 125//306 126//306 95//306
f 224//307 235//307 253//307
f 83//308 41//308 82//308
f 99//309 115//309 130//309
f 148//310 167//310 196//310
f 163//311 146//311 162//311
f 74//312 75//312 57//312
f 21//313 32//313 12//313
f 153//314 174//314 154//314
f 80//315 98//315 157//315
f 240//316 254//316 255//316
f 2//317 15//317 7//317
f 136//318 106//318 119//318
f 170//319 171//319 141//319
f 251//320 221//320 220//320
f 133//321 103//321 102//321
f 82//322 115//322 83//322
f 9//323 26//323 10//323
f 144//324 175//324 126//324
f 165//325 118//325 135//325
f 212//326 257//326 238//326
f 239//327 254//327 226//327
f 190//328 189//328 221//328
f 101//329 67//329 100//329
f 61//330 50//330 33//330
f 50//331 51//331 24//331
f 38//332 64//332 65//332
f 110//333 90//333 122//333
f 93//334 94//334 63//334
f 43//335 70//335 29//335
f 111//336 123//336 92//336
f 109//337 90//337 75//337
f 173//338 214//338 202//338
f 185//339 153//339 142//339
f 217//340 174//340 229//340
f 226//341 254//341 240//341
f 95//342 126//342 77//342
f 183//343 211//343 166//343
f 80//344 64//344 98//344
f 85//345 56//345 71//345
f 49//346 33//346 22//346
f 147//347 163//347 182//347
f 37//348 36//348 78//348
f 7//349 16//349 17//349
f 172//350 213//350 214//350
f 206//351 178//351 177//351
f 110//352 111//352 92//352
f 218//353 203//353 217//353
f 234//354 252//354 235//354
f 242//355 228//355 227//355
f 228//356 215//356 202//356
f 220//357 188//357 207//357
f 203//358 154//358 174//358
f 223//359 224//359 209//359
f 136//360 119//360 118//360
f 29//361 84//361 71//361
f 97//362 79//362 127//362
f 161//363 132//363 145//363
f 69//364 102//364 103//364
f 182//365 194//365 195//365
f 141//366 121//366 109//366
f 222//367 234//367 224//367
f 135//368 118//368 134//368
f 229//369 174//369 216//369
f 210//370 236//370 225//370
f 65//371 66//371 40//371
f 66//372 65//372 81//372
f 87//373 88//373 73//373
f 128//374 80//374 157//374
f 119//375 85//375 105//375
f 113//376 112//376 142//376
f 114//377 81//377 128//377
f 231//378 177//378 187//378
f 100//379 145//379 101//379
f 226//380 240//380 200//380
f 186//381 205//381 176//381
f 225//382 236//382 253//382
f 149//383 170//383 141//383
f 214//384 241//384 227//384
f 221//385 189//385 220//385
f 198//386 197//386 238//386
f 34//387 52//387 35//387
f 232//388 231//388 248//388
f 87//389 86//389 106//389
f 160//390 130//390 180//390
f 133//391 116//391 146//391
f 215//392 184//392 202//392
f 54//393 82//393 28//393
f 100//394 67//394 83//394
f 224//395 223//395 222//395
f 172//396 173//396 150//396
f 169//397 170//397 149//397
f 168//398 148//398 197//398
f 32//399 49//399 22//399
f 227//400 241//400 242//400
f 107//401 140//401 108//401
f 237//402 256//402 257//402
f 30//403 6//403 3//403
f 108//404 109//404 74//404
f 145//405 131//405 160//405
f 250//406 220//406 232//406
f 222//407 223//407 208//407
f 211//408 237//408 212//408
f 20//409 31//409 21//409
f 8//410 17//410 9//410
f 70//411 103//411 84//411
f 177//412 156//412 187//412
f 35//413 53//413 36//413
f 213//414 240//414 241//414
f 106//415 88//415 87//415
f 209//416 224//416 236//416
f 89//417 73//417 88//417
f 249//418 250//418 232//418
f 199//419 200//419 170//419
f 197//420 196//420 238//420
f 134//421 164//421 135//421
f 71//422 44//422 29//422
f 79//423 78//423 96//423
f 106//424 86//424 119//424
f 210//425 194//425 193//425
f 115//426 114//426 129//426
f 120//427 139//427 107//427
f 207//428 178//428 206//428
f 55//429 68//429 69//429
f 141//430 171//430 121//430
f 201//431 240//431 213//431
f 138//432 168//432 120//432
f 212//433 237//433 257//433
f 207//434 188//434 178//434
f 61//435 49//435 76//435
f 169//436 168//436 198//436
f 85//437 71//437 104//437
f 123//438 142//438 112//438
f 15//439 34//439 35//439
f 116//440 102//440 101//440
f 238//441 226//441 198//441
f 214//442 173//442 172//442
f 16//443 35//443 36//443
f 94//444 95//444 52//444
f 180//445 130//445 179//445
f 161//446 162//446 132//446
f 56//447 45//447 44//447
f 86//448 56//448 85//448
f 47//449 46//449 56//449
f 234//450 222//450 233//450
f 104//451 71//451 84//451
f 101//452 68//452 67//452
f 77//453 52//453 95//453
f 13//454 14//454 15//454
f 149//455 139//455 169//455
f 163//456 147//456 146//456
f 168//457 169//457 139//457
f 15//458 16//458 7//458
f 25//459 37//459 38//459
f 6//460 5//460 12//460
f 146//461 116//461 162//461
f 57//462 75//462 58//462
f 165//463 135//463 164//463
f 23//464 33//464 24//464
f 67//465 55//465 41//465
f 104//466 117//466 105//466
f 103//467 70//467 69//467
f 54//468 40//468 66//468
f 49//469 61//469 33//469
f 147//470 182//470 164//470
f 47//471 57//471 31//471
f 109//472 121//472 90//472
f 63//473 94//473 52//473
f 88//474 120//474 89//474
f 184//475 215//475 216//475
f 47//476 72//476 73//476
f 253//477 258//477 1//477
f 208//478 190//478 233//478
f 11//479 10//479 42//479
f 164//480 183//480 165//480
f 50//481 62//481 63//481
f 137//482 120//482 88//482
f 143//483 124//483 93//483
f 30//484 29//484 44//484
f 143//485 93//485 113//485
f 17//486 38//486 39//486
f 155//487 186//487 175//487
f 155//488 204//488 186//488
f 104//489 103//489 117//489
f 164//490 182//490 183//490
f 50//491 63//491 51//491
f 128//492 158//492 159//492
f 116//493 132//493 162//493
f 30//494 19//494 29//494
f 128//495 159//495 129//495
f 81//496 64//496 80//496
f 153//497 154//497 124//497
f 150//498 171//498 172//498
f 137//499 138//499 120//499
f 65//500 64//500 81//500
f 26//501 39//501 40//501
f 245//502 1//502 258//502
f 26//503 18//503 10//503
f 26//504 9//504 39//504
f 245//505 258//505 246//505
f 116//506 101//506 132//506
f 153//507 124//507 143//507
f 17//508 39//508 9//508
f 26//509 27//509 18//509
f 150//510 121//510 171//510
f 6//511 13//511 2//511
f 3//512 6//512 2//512
