# ReplicaCAD frl_apartment flat floor slab
# upward faces (n.z>0.9) whose ALL vertices are within 1 cm of the floor
v -0.354036 3.312350 -0.023635
v -0.255885 3.307237 -0.023635
v -0.248316 4.176670 -0.023635
v -0.346442 4.181781 -0.023635
v -1.921860 3.513087 -0.017491
v -1.915667 4.602993 -0.018011
v -1.997509 4.603489 -0.018467
v -1.997509 4.603489 -0.018467
v -2.003702 3.513582 -0.017945
v -1.921860 3.513087 -0.017491
v -1.761212 4.717278 -0.023134
v -0.867639 4.725270 -0.023134
v -0.868191 4.787903 -0.023134
v -0.868191 4.787903 -0.023134
v -1.761763 4.779912 -0.023134
v -1.761212 4.717278 -0.023134
v -0.383759 1.729020 -0.023636
v -0.285608 1.723908 -0.023636
v -0.274419 2.632722 -0.023636
v -0.274419 2.632722 -0.023636
v -0.372544 2.637833 -0.023636
v -0.383759 1.729020 -0.023636
v 0.182773 -4.261100 0.000731
v 0.182773 -8.164379 0.000730
v 4.579822 -8.164379 0.000730
v 4.579822 -8.164379 0.000730
v 4.579822 4.618994 0.000734
v -0.206875 4.618994 0.000734
v -0.206875 4.828877 0.000734
v -2.047455 4.828877 0.000734
v -2.045277 2.983201 0.000733
v -0.206875 4.828877 0.000734
v -2.045277 2.983201 0.000733
v 4.579822 -8.164379 0.000730
v -0.206875 4.618994 0.000734
v -2.045277 2.983201 0.000733
v 0.182773 -4.261100 0.000731
v 4.579822 -8.164379 0.000730
v -2.045277 2.983201 0.000733
v -2.045277 2.983201 0.000733
v -2.676598 2.983201 0.000733
v -2.676598 -4.261100 0.000731
v 0.182773 -4.261100 0.000731
v -2.045277 2.983201 0.000733
v -2.676598 -4.261100 0.000731
v 1.681005 1.441625 -0.021262
v 3.694192 1.441625 -0.021262
v 3.694192 1.153891 -0.021262
v 3.694192 1.153891 -0.021262
v 3.694192 1.153891 -0.021262
v 3.694192 1.153891 -0.021262
v 1.549427 1.153066 -0.021262
v 1.549427 1.153066 -0.021262
v 1.549427 1.153066 -0.021262
v 1.681005 1.441625 -0.021262
v 1.681005 1.441625 -0.021262
v 1.681005 1.441625 -0.021262
v 3.692422 1.080022 -0.041648
v 3.692422 1.080022 -0.041648
v 3.692422 1.080022 -0.041648
v 3.692422 2.841576 -0.041647
v 3.692422 2.841576 -0.041647
v 3.692422 2.841576 -0.041647
v 3.841767 2.841576 -0.041647
v 3.841767 2.841576 -0.041647
v 3.841767 2.841576 -0.041647
v 3.841767 2.841576 -0.041647
v 3.841767 2.841576 -0.041647
v 3.841767 2.841576 -0.041647
v 3.841767 2.841576 -0.041647
v 3.841767 2.841576 -0.041647
v 3.841767 1.080022 -0.041648
v 3.841767 1.080022 -0.041648
v 3.841767 1.080022 -0.041648
v 3.692422 1.080022 -0.041648
v 3.692422 1.080022 -0.041648
v 3.692422 1.080022 -0.041648
v 3.692422 2.841576 -0.041647
v 3.692422 2.841576 -0.041647
v 3.692422 2.841576 -0.041647
v 3.692422 4.481436 -0.041647
v 3.692422 4.481436 -0.041647
v 3.692422 4.481436 -0.041647
v 3.692422 4.481436 -0.041647
v 3.841767 4.481436 -0.041647
v 3.841767 4.481436 -0.041647
v 3.841767 4.481436 -0.041647
v 3.828652 1.080022 -0.041648
v 3.828652 1.080022 -0.041648
v 3.828652 1.080022 -0.041648
v 3.828652 1.080022 -0.041648
v 3.828652 4.527043 -0.041647
v 3.828652 4.527043 -0.041647
v 3.828652 4.527043 -0.041647
v 4.000031 4.527043 -0.041647
v 4.000031 4.527043 -0.041647
v 4.000031 4.527043 -0.041647
v 4.000031 4.527043 -0.041647
v 4.000031 1.080022 -0.041648
v 4.000031 1.080022 -0.041648
v 4.000031 1.080022 -0.041648
v 1.681089 1.441619 -0.021308
v 3.694134 1.441567 -0.021304
v 3.694138 1.153953 -0.021305
v 3.694192 1.153891 -0.021262
v 1.549427 1.153066 -0.021262
v 1.681005 1.441625 -0.021262
v 3.694192 1.441625 -0.021262
v 1.681005 1.441625 -0.021262
v 1.681005 1.441625 -0.021262
v 3.694192 1.153891 -0.021262
v 3.694192 1.441625 -0.021262
v 3.694192 1.441625 -0.021262
v 1.549427 1.153066 -0.021262
v 3.694192 1.153891 -0.021262
v 3.694192 1.153891 -0.021262
v 1.681005 1.441625 -0.021262
v 1.549427 1.153066 -0.021262
v 1.549427 1.153066 -0.021262
v 3.692422 1.080022 -0.041648
v 3.692422 2.841576 -0.041647
v 3.841767 2.841576 -0.041647
v 3.841767 2.841576 -0.041647
v 3.841767 1.080022 -0.041648
v 3.692422 1.080022 -0.041648
v 3.692422 1.080022 -0.041648
v 3.841767 1.080022 -0.041648
v 3.841767 1.080022 -0.041648
v 3.841767 1.080022 -0.041648
v 3.841767 2.841576 -0.041647
v 3.841767 2.841576 -0.041647
v 3.841767 4.481436 -0.041647
v 3.692422 4.481436 -0.041647
v 3.692422 4.481436 -0.041647
v 3.692422 2.841576 -0.041647
v 3.692422 1.080022 -0.041648
v 3.692422 1.080022 -0.041648
v 3.692422 2.841576 -0.041647
v 3.692422 4.481436 -0.041647
v 3.692422 4.481436 -0.041647
v 3.841767 4.481436 -0.041647
v 3.692422 4.481436 -0.041647
v 3.692422 2.841576 -0.041647
v 3.692422 2.841576 -0.041647
v 3.841767 2.841576 -0.041647
v 3.841767 4.481436 -0.041647
v 3.841767 4.481436 -0.041647
v 3.828652 1.080022 -0.041648
v 3.828652 1.080022 -0.041648
v 3.828652 4.527043 -0.041647
v 4.000031 4.527043 -0.041647
v 4.000031 4.527043 -0.041647
v 4.000031 1.080022 -0.041648
v 3.828652 1.080022 -0.041648
v 4.000031 1.080022 -0.041648
v 4.000031 1.080022 -0.041648
v 4.000031 1.080022 -0.041648
v 4.000031 4.527043 -0.041647
v 4.000031 4.527043 -0.041647
v 3.828652 4.527043 -0.041647
v 3.828652 4.527043 -0.041647
v 3.828652 4.527043 -0.041647
v 3.828652 1.080022 -0.041648
v 3.694192 1.153991 -0.021262
v 3.694178 1.153792 -0.021262
v 1.549518 1.153025 -0.021262
v 1.549427 1.153166 -0.021262
v 1.681095 1.441583 -0.021262
v 1.680990 1.441526 -0.021262
v 3.694192 1.441525 -0.021262
v 3.694192 1.441525 -0.021262
v 1.681005 1.441525 -0.021262
v 3.694092 1.153891 -0.021262
v 3.694092 1.153891 -0.021262
v 3.694092 1.441625 -0.021262
v 1.549427 1.153166 -0.021262
v 1.549427 1.153166 -0.021262
v 3.694192 1.153991 -0.021262
v 1.681095 1.441583 -0.021262
v 1.681095 1.441583 -0.021262
v 1.549518 1.153025 -0.021262
v 3.692522 1.080022 -0.041648
v 3.692322 1.080030 -0.041648
v 3.692522 2.841576 -0.041647
v 3.692422 2.841476 -0.041647
v 3.841767 2.841476 -0.041647
v 3.841668 2.841585 -0.041647
v 3.841866 2.841568 -0.041647
v 3.841767 2.841676 -0.041647
v 3.841667 2.841576 -0.041647
v 3.841667 2.841576 -0.041647
v 3.841767 1.080122 -0.041648
v 3.841667 1.080022 -0.041648
v 3.692521 1.080013 -0.041648
v 3.692422 1.080122 -0.041648
v 3.692422 1.080122 -0.041648
v 3.692422 1.080122 -0.041648
v 3.841767 1.080122 -0.041648
v 3.841667 1.080022 -0.041648
v 3.841667 1.080022 -0.041648
v 3.841667 2.841576 -0.041647
v 3.841767 4.481336 -0.041647
v 3.841767 4.481336 -0.041647
v 3.692422 4.481336 -0.041647
v 3.692522 2.841576 -0.041647
v 3.692522 2.841576 -0.041647
v 3.692522 1.080022 -0.041648
v 3.692522 2.841576 -0.041647
v 3.692422 2.841676 -0.041647
v 3.692522 4.481436 -0.041647
v 3.692422 4.481336 -0.041647
v 3.841767 4.481336 -0.041647
v 3.841667 4.481436 -0.041647
v 3.692522 4.481436 -0.041647
v 3.692522 4.481436 -0.041647
v 3.692522 2.841576 -0.041647
v 3.841667 2.841576 -0.041647
v 3.841667 2.841576 -0.041647
v 3.841667 4.481436 -0.041647
v 3.828752 1.080022 -0.041648
v 3.828652 1.080122 -0.041648
v 3.828752 4.527043 -0.041647
v 3.828652 4.526943 -0.041647
v 4.000031 4.526943 -0.041647
v 3.999931 4.527043 -0.041647
v 4.000031 1.080122 -0.041648
v 3.999931 1.080022 -0.041648
v 3.828652 1.080122 -0.041648
v 3.828652 1.080122 -0.041648
v 4.000031 1.080122 -0.041648
v 3.999931 1.080022 -0.041648
v 3.999931 4.527043 -0.041647
v 4.000031 4.526943 -0.041647
v 4.000031 4.526943 -0.041647
v 3.828652 4.526943 -0.041647
v 3.828752 4.527043 -0.041647
v 3.828752 1.080022 -0.041648
f 1 2 3
f 3 4 1
f 5 6 7
f 8 9 10
f 11 12 13
f 14 15 16
f 17 18 19
f 20 21 22
f 23 24 25
f 26 27 28
f 29 30 31
f 28 32 33
f 34 35 36
f 37 38 39
f 40 41 42
f 43 44 45
f 46 48 47
f 49 56 53
f 59 64 62
f 68 76 72
f 68 82 79
f 83 68 85
f 91 97 94
f 95 89 99
f 102 104 103
f 105 107 106
f 120 122 121
f 123 125 124
f 123 139 138
f 140 123 141
f 149 152 150
f 151 148 153
f 110 171 108
f 109 172 170
f 144 215 142
f 143 216 214
f 113 174 111
f 112 175 173
f 128 197 126
f 127 198 196
f 130 199 129
f 131 201 200
f 116 177 114
f 115 178 176
f 146 217 145
f 147 219 218
f 133 202 132
f 134 204 203
f 118 179 117
f 119 181 180
f 156 229 154
f 155 230 228
f 137 206 135
f 136 207 205
f 163 236 162
f 163 237 236
f 158 231 157
f 158 232 231
f 160 233 159
f 161 235 234
f 61 58 182
f 61 182 184
f 96 93 223
f 96 223 224
f 67 75 194
f 67 194 188
f 81 78 208
f 81 208 210
f 54 50 164
f 54 164 167
f 60 66 187
f 60 187 183
f 80 69 189
f 80 189 209
f 51 57 169
f 51 169 165
f 74 71 191
f 74 191 193
f 70 87 213
f 70 213 190
f 92 88 220
f 92 220 222
f 55 52 166
f 55 166 168
f 65 63 185
f 65 185 186
f 101 98 225
f 101 225 227
f 90 100 226
f 90 226 221
f 77 73 192
f 77 192 195
f 86 84 211
f 86 211 212
