# Blender v3.6.23 OBJ File: ''
# www.blender.org
o collision_collision_mesh
v 0.011921 0.011441 -0.030881
v 0.003268 0.014829 -0.032163
v -0.003031 0.012991 -0.032644
v 0.001762 -0.018391 -0.028410
v 0.007632 0.017275 -0.029578
v 0.013224 -0.010447 -0.028548
v -0.012570 0.014055 -0.028822
v -0.002579 -0.016138 -0.030731
v 0.015933 -0.000560 -0.029237
v -0.010088 -0.013991 -0.031170
v 0.009959 -0.013191 -0.029014
v 0.001786 0.020417 -0.028360
v -0.012463 -0.011598 -0.031594
v -0.017822 0.007774 -0.028971
v 0.001570 -0.014887 -0.031155
v 0.003044 0.030133 -0.008186
v 0.024923 0.007697 -0.018762
v 0.001732 0.000100 -0.037884
v -0.018388 -0.001036 -0.030448
v -0.011745 0.009253 -0.032030
v -0.014250 0.001094 -0.033026
v -0.014306 -0.004383 -0.032701
v -0.016416 -0.007807 -0.030581
v 0.003624 -0.000003 -0.037303
v -0.003639 0.029582 -0.007812
v 0.002343 0.029239 -0.012648
v -0.007528 0.028053 -0.009607
v 0.027777 0.011179 -0.009702
v 0.028275 0.002179 -0.011228
v 0.026917 0.010354 -0.013276
v 0.029869 -0.003470 0.003084
v 0.029215 -0.006494 0.002214
v 0.002051 0.025977 -0.020597
v 0.027032 0.015277 0.005046
v -0.012854 0.024618 -0.012965
v 0.023467 0.001823 -0.021169
v 0.025080 -0.003778 -0.017744
v 0.026625 -0.001478 -0.015165
v -0.009603 0.024371 -0.017848
v 0.018245 -0.005700 -0.026205
v -0.003714 0.027538 -0.015581
v 0.000764 0.030601 -0.004078
v -0.012809 0.026316 -0.005124
v -0.002460 0.029693 0.005816
v 0.024714 0.011532 0.018967
v 0.013401 0.025536 0.014122
v 0.017915 0.024016 0.010749
v 0.028188 -0.005270 0.011672
v 0.029188 -0.002197 -0.006446
v 0.016637 0.007336 -0.028880
v 0.023875 0.011679 -0.019251
v 0.019011 0.019494 -0.017755
v 0.023634 0.016400 -0.014272
v -0.008575 0.020008 -0.025558
v 0.029932 0.002957 0.006141
v 0.013054 0.027708 0.006281
v 0.016497 0.026837 -0.001622
v 0.018129 0.025666 0.001721
v 0.011622 0.029090 0.000239
v 0.010798 0.029040 -0.007260
v 0.008476 0.029406 0.004651
v 0.016174 0.026123 -0.008402
v 0.020097 0.023640 -0.006016
v 0.004355 0.028961 0.010469
v 0.004103 0.030645 -0.000859
v 0.029389 0.009550 -0.002643
v 0.027462 0.013923 -0.006471
v -0.002140 0.026238 0.016138
v -0.011580 0.027092 0.002014
v -0.004091 0.030104 -0.002599
v -0.010180 0.023474 0.016235
v 0.003477 0.026342 0.017430
v -0.004388 0.017129 -0.030162
v 0.009432 0.024917 0.018496
v -0.011219 0.025202 0.011144
v 0.016251 0.024343 -0.013558
v 0.022342 0.014293 0.020162
v 0.017456 0.020664 0.018832
v 0.022731 0.021274 0.003686
v 0.008699 0.020799 -0.025986
v 0.014224 0.017503 -0.025477
v 0.012437 0.023388 -0.019786
v -0.003597 0.022414 -0.025066
v 0.010504 0.026609 -0.015836
v 0.028079 0.011671 0.009580
v 0.029074 0.007877 0.009537
v 0.029152 0.011158 0.002015
v 0.029935 0.002252 -0.002856
v 0.023504 0.017949 0.012117
v 0.026481 0.007911 0.017895
v 0.026879 -0.003423 0.017088
v 0.028924 0.000753 0.011637
v 0.020136 0.002574 -0.025637
v 0.022294 0.019737 -0.010903
v 0.019867 0.011228 -0.024597
v 0.026073 0.017270 -0.002124
v 0.022024 0.008490 -0.023078
v 0.022170 0.005598 0.026028
v -0.006861 0.021152 0.022595
v 0.025171 0.002808 0.021539
v 0.014818 0.018431 0.024210
v -0.003271 0.004177 0.036808
v 0.012309 0.021456 0.022538
v 0.018867 -0.002750 0.028954
v 0.024342 -0.004562 0.021863
v 0.000976 0.020073 0.026381
v -0.003411 0.016143 0.028850
v -0.012189 0.011243 0.028810
v 0.018430 0.016710 0.022679
v 0.019777 0.008905 0.027082
v 0.006861 0.006741 0.036637
v 0.004124 0.006340 0.037105
v 0.006686 0.004413 0.037539
v 0.008706 0.018466 0.027372
v -0.003172 -0.008590 0.036722
v 0.022507 -0.002677 0.025188
v -0.005560 -0.001776 0.037386
v 0.004212 0.022237 0.024248
v 0.010121 -0.002893 0.035599
v 0.013157 0.014192 0.029050
v 0.012533 0.002183 0.034432
v 0.004045 0.016555 0.030135
v -0.011403 -0.029051 -0.000746
v -0.009669 -0.028987 0.006624
v -0.016414 -0.026715 0.001057
v -0.019124 -0.023984 0.007657
v 0.000245 -0.008975 0.036772
v -0.004712 -0.029913 0.006785
v -0.016965 -0.024572 -0.012295
v -0.013320 -0.010814 0.029845
v -0.015246 -0.018304 0.023302
v -0.001132 -0.024220 0.022579
v -0.023876 -0.017394 -0.014184
v -0.000644 -0.020652 0.027051
v -0.013311 -0.021203 0.021250
v -0.018016 -0.014340 0.024029
v -0.020518 -0.005324 0.025291
v -0.024942 -0.019252 0.000456
v -0.023032 -0.020111 0.008569
v -0.027177 -0.014435 0.002826
v -0.021913 -0.022848 -0.004749
v -0.006976 -0.021001 -0.025760
v -0.012669 -0.020401 -0.023878
v -0.014182 -0.016604 -0.027479
v -0.005878 -0.025781 0.019127
v -0.019311 -0.013989 -0.025561
v -0.020424 -0.007842 -0.027230
v -0.013760 -0.026846 0.008454
v -0.008499 -0.027869 0.012544
v -0.002589 -0.028229 0.014419
v -0.022531 -0.016978 0.014836
v -0.021811 -0.016442 -0.019594
v 0.006979 -0.023461 -0.020532
v -0.013629 -0.027728 -0.007771
v -0.005803 -0.029254 -0.010595
v -0.021222 -0.022145 -0.010960
v -0.019265 -0.020568 -0.017764
v -0.021438 -0.023300 -0.000194
v 0.005985 -0.020708 -0.024976
v -0.007659 -0.026483 -0.017255
v -0.002942 -0.026894 -0.017410
v -0.015779 -0.022101 -0.019096
v 0.004872 -0.026948 -0.014801
v -0.002161 -0.029820 -0.008874
v -0.018114 -0.021491 0.015981
v -0.002751 -0.030746 -0.000504
v -0.027580 -0.013689 -0.004396
v -0.029256 -0.005256 0.005304
v -0.006451 -0.030476 -0.003372
v -0.000751 -0.029928 0.007084
v -0.006999 -0.019769 0.026765
v -0.025693 -0.017750 -0.006385
v -0.025333 -0.012041 -0.017230
v -0.029380 -0.003923 -0.010174
v -0.029302 -0.007356 -0.002298
v -0.027323 -0.011277 -0.011534
v -0.025626 -0.013690 0.010886
v -0.023782 -0.004080 0.021152
v -0.027320 -0.004881 0.013439
v 0.009666 -0.018168 -0.025731
v -0.001978 -0.023661 -0.023171
v -0.023766 -0.012650 0.016410
v -0.027051 0.010039 -0.008182
v -0.024323 0.015976 -0.005326
v -0.012474 0.019976 0.019837
v -0.027407 0.010598 0.001400
v -0.019382 0.017120 0.016478
v -0.013886 0.015021 0.024841
v -0.030081 -0.002185 -0.003919
v -0.028414 0.002913 0.007759
v -0.020488 0.010003 0.021668
v -0.026190 -0.005072 -0.019687
v -0.027324 -0.001307 -0.017518
v -0.017444 0.005246 0.027565
v -0.016350 0.011628 0.025370
v -0.012366 0.003973 0.031597
v -0.016787 0.023391 -0.006367
v -0.019603 -0.002468 0.026723
v -0.029614 0.001382 -0.006855
v -0.028492 -0.002290 0.010716
v -0.025425 0.011068 0.010680
v -0.021979 0.002103 0.023208
v -0.025579 0.004409 0.015725
v -0.023042 0.013479 0.014034
v -0.020767 0.018767 0.009298
v -0.017494 0.022101 0.007283
v -0.029649 0.002087 0.001603
v -0.015931 0.024341 0.000920
v -0.025015 0.011925 -0.013391
v -0.022802 -0.001025 -0.025898
v -0.023528 0.002462 -0.024033
v -0.020521 0.009583 -0.024894
v -0.015842 0.015706 -0.024703
v -0.019497 0.014104 -0.021640
v -0.012796 0.021858 -0.019239
v -0.023360 0.010286 -0.019919
v -0.023462 0.017470 0.003724
v -0.019116 0.019972 -0.012060
v -0.021528 0.016018 -0.015498
v -0.027664 0.002183 -0.015365
v 0.005023 -0.009164 0.035875
v 0.016914 -0.014357 -0.023353
v 0.021391 -0.010789 -0.019806
v 0.013116 -0.014308 0.028225
v 0.017513 -0.024287 -0.000100
v 0.024079 -0.017736 0.000250
v 0.024959 -0.014384 0.011149
v 0.013534 -0.025335 0.010224
v 0.026138 -0.014244 0.003070
v 0.012046 -0.027415 0.002261
v 0.021325 -0.020103 0.009002
v 0.010420 -0.007634 0.034132
v 0.015952 -0.022945 -0.012188
v 0.021196 -0.020657 -0.003926
v 0.025548 -0.014523 -0.004719
v 0.027829 -0.006658 -0.007942
v 0.023900 -0.012606 -0.013664
v 0.022327 -0.018024 -0.009014
v 0.014511 -0.019055 -0.020898
v 0.020222 -0.015816 -0.017776
v 0.010885 -0.022014 -0.020260
v 0.009000 -0.027714 0.008691
v 0.008270 -0.028956 0.000839
v 0.009211 -0.025862 0.015482
v 0.009879 -0.028182 -0.005790
v 0.007969 -0.023281 0.021258
v 0.014374 -0.025039 -0.009181
v 0.008891 -0.026107 -0.014149
v 0.015912 -0.016565 0.024445
v 0.018475 -0.017042 0.021191
v 0.023864 -0.012499 0.017396
v 0.017839 -0.012386 0.026340
v 0.019916 -0.013057 0.023607
v 0.013839 -0.020219 0.021793
v 0.006413 -0.020302 0.025781
v 0.021227 -0.018615 0.013236
v 0.016154 -0.020840 0.018070
vn -0.2436 -0.9677 0.0658
vn 0.0121 -0.9940 -0.1091
vn -0.9347 -0.2081 -0.2882
vn 0.1521 -0.9862 0.0662
vn -0.1858 -0.9788 0.0860
vn -0.3140 -0.9461 -0.0787
vn -0.3907 -0.9151 0.0999
vn 0.8243 0.4785 0.3026
vn -0.4125 -0.9013 0.1320
vn -0.8461 -0.4467 0.2910
vn 0.1901 -0.9529 -0.2361
vn -0.0121 -0.9938 0.1103
vn -0.4756 0.3250 0.8174
vn -0.2856 -0.9104 -0.2993
vn 0.2380 -0.9357 -0.2604
vn 0.4103 -0.8726 -0.2651
vn 0.1742 -0.9514 0.2540
vn 0.1670 -0.9505 0.2621
vn -0.0204 -0.9751 0.2208
vn -0.1375 -0.9585 0.2497
vn -0.5578 -0.8296 -0.0242
vn -0.5247 -0.8485 -0.0682
vn 0.3373 -0.9342 0.1165
vn -0.4832 -0.8209 0.3045
vn -0.8071 -0.2863 -0.5164
vn 0.6477 0.7466 0.1518
vn 0.5541 0.7023 -0.4470
vn 0.4810 -0.8755 -0.0461
vn 0.8472 -0.4655 -0.2559
vn -0.5437 -0.7697 -0.3347
vn -0.7435 -0.6604 0.1050
vn -0.0828 -0.6339 0.7690
vn -0.6807 -0.7194 0.1380
vn -0.9898 -0.1355 0.0434
vn 0.4641 -0.7985 -0.3834
vn 0.1578 -0.8683 -0.4703
vn 0.6124 -0.7767 -0.1474
vn 0.9031 0.4275 -0.0407
vn 0.1542 -0.8893 0.4305
vn -0.6993 -0.6255 -0.3461
vn -0.9666 0.0595 -0.2494
vn 0.5428 -0.7057 0.4553
vn -0.1730 -0.7861 0.5934
vn -0.3134 -0.7680 0.5585
vn -0.7109 -0.6046 0.3591
vn -0.0915 -0.8618 -0.4990
vn 0.5293 -0.7386 -0.4174
vn -0.1569 -0.8244 -0.5439
vn -0.4302 -0.8343 0.3447
vn 0.1491 -0.8727 -0.4649
vn 0.5670 -0.8124 0.1360
vn 0.6085 -0.6822 -0.4053
vn -0.0123 -0.7093 -0.7048
vn -0.2623 -0.8014 -0.5376
vn -0.6632 -0.5555 0.5016
vn -0.8552 -0.3743 0.3584
vn -0.8655 -0.4770 0.1531
vn -0.8783 -0.4301 0.2088
vn -0.6817 -0.5428 0.4906
vn -0.7721 -0.3998 0.4939
vn 0.4524 -0.6790 -0.5782
vn 0.1793 -0.8178 -0.5469
vn -0.7382 0.1920 -0.6466
vn 0.6931 0.7208 -0.0123
vn -0.3225 -0.8061 -0.4963
vn 0.7052 -0.7084 0.0303
vn 0.9465 0.2856 -0.1503
vn 0.6741 -0.6615 -0.3287
vn 0.3564 0.6388 0.6819
vn -0.9201 0.3010 -0.2506
vn 0.1479 -0.7809 0.6069
vn 0.8744 -0.2770 0.3985
vn -0.9228 -0.3538 -0.1527
vn 0.9607 0.2505 0.1193
vn -0.6155 -0.6042 -0.5061
vn -0.5334 -0.6481 -0.5436
vn -0.1474 0.9569 -0.2503
vn -0.4056 -0.5399 0.7375
vn -0.5112 -0.4871 0.7081
vn -0.3960 0.7756 -0.4917
vn -0.7928 -0.2963 0.5326
vn -0.9057 -0.4239 0.0065
vn -0.9058 -0.4237 0.0068
vn -0.2476 -0.2084 -0.9462
vn -0.2859 -0.7169 -0.6359
vn -0.4873 0.4256 -0.7625
vn 0.1266 -0.7431 -0.6571
vn -0.2348 0.6914 0.6832
vn 0.8060 -0.5765 -0.1344
vn 0.4474 0.8474 -0.2859
vn -0.1697 -0.9179 0.3588
vn 0.7830 -0.5810 0.2223
vn 0.5959 -0.7532 0.2785
vn 0.5662 -0.7825 0.2592
vn 0.8003 -0.5070 -0.3201
vn 0.1172 -0.6407 0.7588
vn -0.1348 -0.7673 0.6269
vn -0.8735 -0.2370 0.4252
vn -0.8946 -0.2743 0.3529
vn 0.6627 -0.7150 -0.2226
vn -0.5552 0.8178 0.1516
vn 0.4955 -0.4984 -0.7114
vn -0.1399 -0.6431 -0.7529
vn 0.8773 -0.4775 -0.0493
vn 0.9124 -0.2450 -0.3278
vn 0.9595 -0.2467 0.1362
vn 0.6385 -0.6825 0.3558
vn -0.0239 0.7197 0.6939
vn 0.5290 -0.6742 0.5154
vn 0.1656 -0.6508 0.7409
vn -0.9682 -0.2328 -0.0919
vn -0.7912 -0.3730 -0.4847
vn -0.7957 0.5083 -0.3294
vn -0.5417 -0.3622 -0.7585
vn -0.5023 -0.4396 -0.7446
vn -0.5931 -0.1507 0.7909
vn -0.9543 -0.1840 0.2356
vn -0.7916 -0.0517 0.6089
vn -0.7268 0.5497 -0.4117
vn -0.1320 -0.9882 0.0774
vn 0.9258 -0.3739 -0.0567
vn 0.7839 -0.5429 0.3013
vn 0.7370 -0.5675 0.3672
vn 0.7394 -0.5239 0.4228
vn -0.4890 -0.7890 -0.3719
vn 0.8425 -0.3147 -0.4372
vn 0.9018 -0.2748 -0.3336
vn 0.6086 -0.5607 0.5614
vn 0.3921 -0.5158 0.7617
vn 0.2914 -0.6222 0.7266
vn 0.3617 -0.2545 0.8969
vn -0.0266 -0.1062 0.9940
vn 0.0217 -0.0675 0.9975
vn -0.9463 -0.1097 -0.3040
vn -0.8801 0.0085 -0.4746
vn -0.8121 -0.1745 -0.5568
vn -0.9036 0.0780 0.4212
vn 0.7302 -0.3124 -0.6076
vn -0.9963 -0.0100 0.0857
vn -0.9766 0.1171 0.1802
vn -0.7329 0.1323 0.6674
vn 0.0625 0.9949 -0.0786
vn 0.0304 -0.4097 -0.9117
vn 0.4057 -0.3387 -0.8490
vn -0.4564 -0.2477 -0.8546
vn -0.2553 0.9357 -0.2437
vn -0.1530 -0.3176 -0.9358
vn -0.0577 -0.3896 -0.9192
vn 0.9004 -0.3608 -0.2432
vn 0.9032 -0.2893 0.3169
vn 0.4032 0.9137 -0.0504
vn 0.5303 -0.2026 -0.8233
vn 0.0972 0.9848 0.1443
vn 0.6113 -0.2673 0.7449
vn 0.4845 -0.4619 0.7429
vn 0.6027 -0.1046 0.7911
vn 0.2321 -0.1463 0.9616
vn -0.7053 -0.6015 -0.3751
vn -0.7133 -0.1136 -0.6916
vn 0.9131 0.3945 0.1028
vn -0.4836 0.2669 0.8336
vn -0.5415 0.3125 0.7805
vn -0.9283 0.2380 0.2857
vn -0.9541 0.2550 0.1572
vn -0.6017 0.7691 -0.2156
vn -0.7566 0.2598 0.6001
vn -0.8393 0.2523 0.4815
vn 0.4940 0.8532 0.1676
vn 0.5477 -0.0110 -0.8366
vn -0.6694 0.5279 -0.5226
vn 0.8117 -0.3229 0.4867
vn 0.8740 -0.0442 -0.4839
vn 0.6975 -0.2559 0.6693
vn 0.7308 -0.2773 0.6237
vn 0.4641 -0.0170 0.8856
vn -0.8912 0.1719 -0.4197
vn -0.5112 -0.0458 -0.8582
vn -0.2974 0.5263 0.7966
vn 0.9300 -0.3378 0.1447
vn 0.6958 0.6877 0.2074
vn -0.2935 -0.0537 -0.9545
vn 0.2620 0.3256 -0.9085
vn 0.2954 0.2956 -0.9085
vn 0.5374 0.6524 0.5344
vn -0.3405 0.6040 0.7206
vn 0.9501 -0.1175 -0.2890
vn 0.9788 -0.1187 0.1668
vn -0.9618 -0.2471 -0.1181
vn 0.8317 0.0212 -0.5549
vn 0.8795 -0.0232 -0.4753
vn 0.9174 0.0143 -0.3977
vn -0.9624 -0.2703 0.0258
vn 0.0583 0.5630 0.8244
vn -0.3761 0.9226 -0.0855
vn -0.9013 0.3070 -0.3057
vn 0.6563 0.0048 0.7545
vn -0.7082 0.1608 -0.6874
vn 0.2065 0.9780 -0.0292
vn -0.4277 0.6997 0.5722
vn 0.9916 -0.0987 -0.0841
vn -0.7612 0.4551 0.4619
vn -0.2737 0.1989 -0.9410
vn -0.1968 0.3059 -0.9315
vn -0.5295 0.6727 0.5168
vn 0.5928 0.3209 -0.7387
vn 0.7248 0.0655 -0.6859
vn 0.9809 -0.0079 -0.1945
vn 0.9625 0.0963 -0.2537
vn 0.5315 -0.8385 0.1197
vn 0.9802 0.0367 0.1944
vn 0.9530 0.0670 0.2953
vn -0.6205 0.6947 -0.3638
vn 0.8330 0.1540 -0.5314
vn 0.9054 -0.3357 0.2600
vn 0.8242 -0.0239 0.5659
vn 0.8285 0.5155 0.2186
vn 0.6361 -0.3279 -0.6985
vn 0.4840 0.1343 -0.8647
vn -0.7646 0.5802 0.2806
vn -0.8784 0.4485 0.1649
vn -0.8960 0.4400 -0.0590
vn 0.5704 -0.2115 -0.7936
vn -0.5030 -0.2567 0.8253
vn 0.4465 0.4949 -0.7454
vn -0.9484 0.2511 -0.1936
vn 0.9999 -0.0103 0.0012
vn 0.9947 0.1022 0.0152
vn 0.9897 0.1272 0.0658
vn 0.4170 -0.8954 0.1560
vn -0.3140 0.9416 -0.1216
vn 0.8237 0.2515 0.5082
vn 0.8599 0.1314 0.4932
vn 0.7594 0.2697 -0.5921
vn -0.4830 -0.8612 0.1580
vn 0.8549 -0.0736 0.5136
vn -0.7953 0.5663 -0.2162
vn -0.9097 0.0243 0.4147
vn -0.6126 0.4876 -0.6220
vn -0.5730 0.4947 -0.6534
vn 0.4782 -0.8214 0.3109
vn -0.2844 0.8432 0.4563
vn 0.5239 0.7759 0.3515
vn -0.7879 0.5627 0.2499
vn -0.5647 0.7687 0.3004
vn -0.5910 0.7539 0.2870
vn 0.7426 -0.3920 -0.5431
vn -0.3167 0.4887 -0.8130
vn 0.1965 0.9415 -0.2737
vn -0.8327 0.5041 0.2290
vn 0.9275 0.2398 0.2867
vn 0.7298 0.3814 0.5675
vn 0.6631 0.4513 0.5972
vn 0.4363 0.7862 0.4376
vn 0.1950 0.8093 0.5540
vn -0.7477 0.6323 -0.2028
vn -0.6332 0.6544 -0.4133
vn -0.8045 0.0376 0.5927
vn -0.9421 0.2783 0.1872
vn 0.7809 -0.2415 -0.5761
vn 0.4327 -0.8062 0.4035
vn 0.4470 0.8896 0.0935
vn -0.8800 0.2358 -0.4123
vn -0.6483 0.7539 0.1062
vn -0.6597 0.7370 0.1474
vn 0.2937 0.8061 -0.5137
vn 0.1545 0.8007 -0.5788
vn 0.8482 0.4042 -0.3422
vn 0.8001 0.5709 -0.1840
vn 0.9346 0.3482 -0.0728
vn 0.7072 0.5298 -0.4681
vn 0.3617 0.8197 0.4442
vn 0.2040 0.7572 0.6205
vn 0.3089 -0.5363 -0.7854
vn 0.1149 0.8565 0.5033
vn -0.8637 0.4762 -0.1651
vn -0.4532 0.6428 -0.6176
vn -0.5105 -0.6971 0.5034
vn -0.0514 0.5526 -0.8319
vn 0.6355 0.7710 -0.0401
vn -0.7040 0.7085 -0.0500
vn 0.2871 0.4051 -0.8680
vn -0.1862 -0.9581 0.2176
vn -0.0292 -0.8951 0.4450
vn -0.2292 -0.6564 -0.7187
vn 0.7802 0.5194 0.3486
vn 0.6608 0.6007 0.4500
vn 0.0065 -0.9458 -0.3248
vn 0.4545 0.8634 0.2191
vn -0.5929 0.7351 -0.3288
vn -0.2993 0.8833 0.3608
vn 0.9558 -0.1153 0.2703
vn -0.2758 0.9089 0.3128
vn 0.3822 -0.8103 0.4443
vn -0.3460 0.9159 0.2033
vn -0.0780 0.4938 -0.8661
vn -0.5344 0.8452 0.0002
vn 0.1458 0.9134 -0.3801
vn 0.4703 0.7826 -0.4080
vn 0.6893 0.6329 -0.3527
vn 0.8052 0.5903 0.0564
vn 0.6947 0.6118 0.3783
vn 0.2165 0.9200 0.3266
vn -0.9837 -0.1681 -0.0635
vn -0.7861 -0.5815 -0.2097
vn 0.5331 0.5373 0.6536
vn 0.2694 -0.6115 -0.7439
vn -0.5476 0.8184 -0.1742
vn -0.4762 0.8033 -0.3577
vn -0.1164 0.9408 0.3185
vn 0.0060 0.9891 0.1469
vn -0.7156 0.5076 -0.4799
vn 0.5945 -0.2031 0.7781
vn -0.3903 0.9201 -0.0327
vn -0.4465 0.8750 -0.1870
vn -0.8830 0.1055 0.4573
vn -0.9923 0.0312 -0.1199
vn -0.0771 0.9234 -0.3760
vn 0.1617 0.9624 -0.2183
vn 0.8881 -0.0800 0.4527
vn 0.1467 0.5829 -0.7992
vn -0.5273 0.8277 0.1922
vn -0.3137 0.9435 0.1069
vn -0.1710 0.5544 0.8145
vn -0.6567 -0.2802 0.7002
vn 0.6211 0.7436 -0.2475
vn 0.6558 0.7055 -0.2687
vn -0.5030 -0.6757 -0.5389
vn 0.2983 0.9434 0.1452
vn 0.1926 0.9790 0.0672
vn -0.3787 0.8768 -0.2965
vn -0.3735 -0.8491 -0.3736
vn 0.1495 0.9846 -0.0904
vn 0.8019 0.0026 -0.5974
vn 0.4549 0.8832 -0.1146
vn 0.5793 0.8073 -0.1125
vn -0.0355 0.3651 -0.9303
vn -0.4034 0.7714 0.4921
vn -0.9300 -0.2186 -0.2956
vn 0.2584 0.9338 0.2473
vn 0.8849 0.3364 0.3222
vn -0.2666 0.6894 -0.6736
vn 0.6600 0.6800 0.3195
vn 0.9783 -0.1845 -0.0946
vn -0.9396 -0.2488 0.2351
vn -0.8094 -0.2813 -0.5155
vn -0.1743 0.8654 -0.4697
vn 0.2527 0.9345 0.2506
vn 0.5494 0.6611 -0.5110
vn -0.8673 0.4978 0.0004
vn -0.3480 0.6194 -0.7038
vn -0.1611 0.8291 0.5353
vn -0.1227 -0.6364 0.7616
vn -0.0535 0.8126 -0.5803
vn 0.5714 0.4144 -0.7084
vn 0.8911 0.4537 0.0070
vn 0.7931 -0.5948 -0.1314
vn -0.8153 0.2832 -0.5051
vn 0.7188 -0.0411 0.6940
vn 0.3896 -0.8915 0.2310
vn -0.6314 -0.1690 -0.7569
vn 0.1072 0.3520 0.9298
vn 0.7649 -0.2793 0.5805
vn -0.1355 0.8423 0.5217
vn -0.1342 0.9848 -0.1103
vn 0.5141 -0.8510 -0.1073
vn 0.9280 0.0621 -0.3674
vn -0.7689 -0.6201 -0.1558
vn -0.7547 0.2451 -0.6085
vn 0.7401 0.6715 -0.0371
vn 0.5046 -0.4786 -0.7185
vn -0.8468 0.3165 0.4275
vn -0.5767 0.3523 0.7370
vn -0.8789 0.0692 -0.4719
vn 0.4169 0.8706 -0.2611
vn 0.3281 -0.7331 0.5958
vn -0.3372 0.7994 -0.4973
vn 0.0097 -0.7085 -0.7057
vn -0.3911 -0.5339 0.7497
vn 0.9380 -0.1880 -0.2912
vn 0.9599 -0.2498 -0.1269
vn -0.1638 0.6495 0.7425
vn -0.6384 -0.7127 0.2909
vn 0.1036 -0.6099 -0.7857
vn -0.5690 -0.1498 -0.8086
vn -0.0711 -0.9824 -0.1726
vn -0.6978 0.3370 0.6321
vn -0.7550 -0.6556 0.0137
vn -0.2515 -0.9503 -0.1833
vn 0.8066 0.5478 -0.2218
vn -0.0928 -0.9282 -0.3604
vn 0.4608 -0.8233 -0.3314
vn 0.3383 -0.8292 -0.4450
vn -0.6086 -0.3086 -0.7310
vn -0.1639 0.8058 0.5690
vn -0.5829 0.1706 -0.7945
vn -0.2484 0.4370 -0.8645
vn 0.9972 0.0748 -0.0055
vn 0.3744 -0.7172 -0.5877
vn -0.3576 0.8828 -0.3045
vn 0.7044 0.1729 -0.6884
vn 0.6610 -0.0250 -0.7500
vn 0.1774 -0.1411 0.9740
vn -0.7954 -0.6044 -0.0453
vn -0.9929 0.1185 -0.0139
vn -0.0955 0.9356 0.3400
vn -0.8659 0.3147 0.3888
vn 0.6055 0.1920 0.7723
vn 0.7659 0.6242 -0.1543
vn -0.4783 0.7035 -0.5256
vn -0.3628 -0.9000 0.2416
vn -0.6773 0.7356 -0.0164
vn 0.3237 -0.7701 -0.5497
vn -0.9365 0.1839 0.2987
vn 0.6184 -0.5884 -0.5208
vn 0.8171 -0.3689 -0.4429
vn 0.5988 -0.5431 0.5886
vn -0.3341 0.6372 0.6945
vn -0.5846 0.8105 -0.0370
vn -0.5300 -0.8273 -0.1864
vn 0.3826 -0.9238 -0.0150
vn -0.5113 0.7561 0.4085
vn -0.3810 -0.6900 0.6155
vn 0.4920 -0.5374 0.6849
vn 0.2514 -0.8652 -0.4339
vn -0.3744 -0.5088 -0.7752
vn -0.7044 0.6976 -0.1307
vn 0.8918 0.1840 -0.4133
vn -0.6219 0.6691 -0.4068
vn 0.2089 0.6663 -0.7158
vn -0.5426 -0.8258 -0.1538
vn -0.9911 0.0138 0.1324
vn 0.6924 -0.1093 -0.7132
vn 0.5163 0.3567 0.7786
vn 0.1544 0.9181 0.3649
vn 0.5767 0.4746 0.6650
vn 0.1665 -0.7962 0.5817
vn 0.7835 0.5992 0.1645
vn 0.2754 -0.5835 -0.7640
vn 0.9385 -0.3225 -0.1228
vn 0.6309 -0.7517 -0.1923
vn 0.3489 0.6581 0.6672
vn -0.1678 0.6972 -0.6970
vn -0.5761 -0.8113 0.0991
vn -0.4832 0.2508 -0.8388
vn 0.4872 0.6957 0.5278
vn -0.9409 -0.2687 0.2059
vn -0.6214 -0.1829 0.7618
vn -0.7914 -0.2946 0.5357
vn 0.7061 -0.7081 0.0079
vn -0.9684 -0.2388 0.0718
vn 0.4460 0.8897 0.0979
vn -0.5276 0.4911 0.6932
vn 0.9857 -0.0802 0.1485
vn 0.2277 0.8271 -0.5139
vn 0.7425 0.3565 0.5671
vn 0.1982 -0.9708 0.1352
vn 0.1175 0.7129 0.6914
vn -0.2771 0.8439 -0.4594
vn 0.4135 0.5855 -0.6973
vn -0.8101 -0.4406 -0.3868
vn 0.1040 -0.9379 -0.3310
vn 0.1427 -0.8982 0.4158
vn -0.4320 -0.9013 -0.0329
vn 0.9264 -0.3536 0.1290
vn 0.6600 0.6699 -0.3400
vn -0.9725 0.0911 -0.2142
vn 0.4607 0.6853 -0.5640
vn -0.1913 0.5420 0.8183
vn -0.5218 0.7698 0.3677
vn -0.4578 -0.7010 -0.5469
vn -0.9669 0.2540 -0.0251
vn 0.5142 -0.5888 -0.6236
vn -0.3599 -0.8686 -0.3406
vn 0.9753 0.0883 -0.2024
vn 0.3017 -0.3992 -0.8658
vn 0.6608 0.5180 -0.5431
vn -0.8853 -0.3874 -0.2573
vn -0.6638 0.5594 0.4964
vn -0.0804 0.9943 0.0696
vn -0.3987 -0.8211 0.4083
vn -0.6552 0.5089 0.5583
vn -0.9597 0.2762 -0.0518
vn 0.9777 0.0789 -0.1946
vn 0.3446 -0.6716 0.6559
vn -0.0793 0.9948 0.0640
vn -0.3880 -0.8227 0.4155
vn 0.5303 0.2712 0.8033
vn -0.0748 0.1235 0.9895
vn -0.0763 0.1253 0.9892
vn -0.6053 0.0808 0.7919
vn -0.6068 0.0836 0.7904
vn 0.7855 -0.1420 -0.6024
vn 0.7829 -0.1373 -0.6068
vn 0.8197 -0.5621 0.1098
vn 0.5384 0.2864 0.7925
vn 0.2579 0.5737 0.7774
vn 0.2245 0.5822 0.7814
vn 0.1587 -0.9825 -0.0975
vn -0.8873 -0.4025 -0.2251
vn 0.8177 -0.5662 0.1041
vn 0.1686 -0.9829 -0.0739
vn 0.9358 0.0113 0.3523
vn 0.9353 0.0037 0.3538
vn 0.6636 0.5166 -0.5411
vn 0.8577 0.4159 -0.3023
vn 0.8564 0.4317 -0.2831
vn -0.0909 0.9791 -0.1820
vn 0.2498 -0.3989 -0.8823
vn 0.3582 -0.6670 0.6533
vn -0.0901 0.9827 -0.1618
s off
f 124//1 123//1 169//1
f 169//2 164//2 166//2
f 192//3 176//3 174//3
f 243//4 170//4 166//4
f 128//5 124//5 169//5
f 154//6 169//6 123//6
f 125//7 123//7 124//7
f 89//8 45//8 85//8
f 148//9 125//9 124//9
f 177//10 139//10 151//10
f 163//11 245//11 164//11
f 128//12 166//12 170//12
f 108//13 196//13 102//13
f 154//14 160//14 155//14
f 248//15 245//15 163//15
f 248//16 247//16 245//16
f 242//17 244//17 170//17
f 244//18 150//18 170//18
f 150//19 128//19 170//19
f 150//20 149//20 128//20
f 158//21 141//21 125//21
f 141//22 154//22 125//22
f 242//23 243//23 230//23
f 148//24 165//24 126//24
f 173//25 147//25 146//25
f 58//26 47//26 79//26
f 76//27 52//27 82//27
f 225//28 230//28 245//28
f 238//29 237//29 235//29
f 157//30 129//30 156//30
f 138//31 158//31 139//31
f 115//32 134//32 127//32
f 139//33 158//33 126//33
f 189//34 175//34 168//34
f 241//35 233//35 248//35
f 153//36 163//36 181//36
f 247//37 234//37 225//37
f 96//38 87//38 67//38
f 246//39 132//39 244//39
f 133//40 157//40 156//40
f 193//41 174//41 220//41
f 250//42 254//42 257//42
f 132//43 171//43 145//43
f 171//44 135//44 145//44
f 165//45 151//45 139//45
f 160//46 181//46 161//46
f 239//47 233//47 241//47
f 160//48 142//48 181//48
f 165//49 148//49 149//49
f 163//50 161//50 181//50
f 231//51 228//51 225//51
f 239//52 240//52 233//52
f 8//53 181//53 142//53
f 142//54 160//54 143//54
f 136//55 165//55 131//55
f 182//56 177//56 151//56
f 140//57 138//57 139//57
f 177//58 140//58 139//58
f 136//59 151//59 165//59
f 136//60 182//60 151//60
f 180//61 239//61 241//61
f 159//62 153//62 181//62
f 211//63 14//63 210//63
f 79//64 63//64 58//64
f 160//65 162//65 143//65
f 226//66 231//66 225//66
f 67//67 66//67 28//67
f 238//68 233//68 240//68
f 114//69 120//69 101//69
f 183//70 209//70 220//70
f 255//71 134//71 132//71
f 251//72 91//72 105//72
f 167//73 176//73 172//73
f 85//74 86//74 87//74
f 146//75 157//75 152//75
f 146//76 144//76 157//76
f 26//77 41//77 25//77
f 130//78 131//78 171//78
f 130//79 136//79 131//79
f 39//80 54//80 215//80
f 178//81 182//81 136//81
f 167//82 172//82 138//82
f 140//83 167//83 138//83
f 18//84 13//84 22//84
f 143//85 144//85 142//85
f 14//86 7//86 20//86
f 159//87 181//87 4//87
f 99//88 107//88 106//88
f 235//89 226//89 238//89
f 76//90 84//90 62//90
f 145//91 149//91 150//91
f 227//92 256//92 231//92
f 256//93 257//93 231//93
f 257//94 228//94 231//94
f 237//95 238//95 240//95
f 221//96 127//96 134//96
f 171//97 132//97 134//97
f 178//98 179//98 182//98
f 179//99 177//99 182//99
f 238//100 234//100 233//100
f 208//101 206//101 69//101
f 11//102 222//102 180//102
f 8//103 142//103 10//103
f 235//104 229//104 226//104
f 38//105 236//105 37//105
f 48//106 32//106 31//106
f 250//107 257//107 256//107
f 106//108 122//108 118//108
f 249//109 254//109 250//109
f 221//110 134//110 255//110
f 175//111 174//111 167//111
f 173//112 146//112 152//112
f 216//113 209//113 219//113
f 23//114 13//114 146//114
f 146//115 13//115 144//115
f 117//116 198//116 130//116
f 179//117 200//117 168//117
f 198//118 178//118 137//118
f 216//119 219//119 214//119
f 169//120 166//120 128//120
f 32//121 229//121 235//121
f 227//122 251//122 256//122
f 251//123 250//123 256//123
f 251//124 253//124 250//124
f 162//125 129//125 157//125
f 223//126 37//126 237//126
f 37//127 236//127 237//127
f 253//128 249//128 250//128
f 224//129 232//129 221//129
f 255//130 224//130 221//130
f 232//131 119//131 221//131
f 117//132 115//132 127//132
f 127//133 113//133 117//133
f 193//134 192//134 174//134
f 193//135 210//135 192//135
f 192//136 210//136 147//136
f 178//137 203//137 200//137
f 223//138 222//138 40//138
f 207//139 189//139 168//139
f 190//140 207//140 200//140
f 194//141 202//141 198//141
f 42//142 65//142 16//142
f 8//143 18//143 15//143
f 11//144 24//144 6//144
f 23//145 22//145 13//145
f 41//146 27//146 25//146
f 18//147 10//147 13//147
f 10//148 18//148 8//148
f 236//149 235//149 237//149
f 48//150 91//150 251//150
f 59//151 57//151 60//151
f 24//152 9//152 6//152
f 65//153 64//153 61//153
f 104//154 232//154 252//154
f 232//155 224//155 252//155
f 104//156 121//156 119//156
f 113//157 221//157 119//157
f 157//158 133//158 152//158
f 210//159 19//159 147//159
f 85//160 87//160 34//160
f 102//161 196//161 117//161
f 108//162 194//162 196//162
f 201//163 190//163 203//163
f 186//164 207//164 190//164
f 35//165 218//165 197//165
f 194//166 191//166 202//166
f 191//167 203//167 202//167
f 58//168 56//168 47//168
f 50//169 9//169 24//169
f 213//170 212//170 214//170
f 105//171 253//171 251//171
f 36//172 38//172 37//172
f 116//173 104//173 252//173
f 253//174 116//174 252//174
f 113//175 119//175 121//175
f 220//176 211//176 193//176
f 21//177 22//177 19//177
f 107//178 108//178 102//178
f 32//179 48//179 227//179
f 79//180 47//180 89//180
f 22//181 21//181 18//181
f 2//182 1//182 18//182
f 1//183 24//183 18//183
f 78//184 101//184 109//184
f 107//185 188//185 108//185
f 38//186 29//186 49//186
f 92//187 48//187 31//187
f 174//188 176//188 167//188
f 97//189 17//189 36//189
f 36//190 17//190 38//190
f 17//191 29//191 38//191
f 167//192 140//192 175//192
f 111//193 122//193 112//193
f 43//194 70//194 27//194
f 209//195 216//195 220//195
f 98//196 121//196 104//196
f 14//197 19//197 210//197
f 65//198 59//198 60//198
f 99//199 185//199 188//199
f 88//200 31//200 49//200
f 187//201 204//201 191//201
f 21//202 20//202 18//202
f 20//203 3//203 18//203
f 188//204 185//204 187//204
f 1//205 95//205 50//205
f 97//206 93//206 50//206
f 88//207 49//207 29//207
f 30//208 28//208 29//208
f 230//209 225//209 228//209
f 86//210 92//210 55//210
f 86//211 90//211 92//211
f 215//212 219//212 218//212
f 51//213 17//213 97//213
f 251//214 227//214 48//214
f 100//215 98//215 116//215
f 89//216 85//216 34//216
f 222//217 6//217 40//217
f 50//218 24//218 1//218
f 205//219 204//219 187//219
f 217//220 186//220 201//220
f 184//221 183//221 186//221
f 9//222 40//222 6//222
f 130//223 115//223 117//223
f 81//224 1//224 5//224
f 183//225 220//225 199//225
f 31//226 88//226 55//226
f 87//227 55//227 66//227
f 87//228 86//228 55//228
f 228//229 242//229 230//229
f 25//230 27//230 70//230
f 45//231 98//231 90//231
f 98//232 100//232 90//232
f 97//233 95//233 51//233
f 125//234 148//234 126//234
f 116//235 105//235 100//235
f 184//236 219//236 209//236
f 200//237 179//237 178//237
f 213//238 14//238 212//238
f 213//239 7//239 14//239
f 257//240 244//240 228//240
f 68//241 71//241 99//241
f 47//242 46//242 78//242
f 217//243 204//243 205//243
f 75//244 206//244 187//244
f 206//245 205//245 187//245
f 223//246 240//246 222//246
f 7//247 73//247 20//247
f 60//248 84//248 26//248
f 217//249 201//249 204//249
f 86//250 85//250 90//250
f 77//251 110//251 45//251
f 77//252 109//252 110//252
f 78//253 46//253 103//253
f 74//254 118//254 103//254
f 218//255 219//255 184//255
f 219//256 213//256 214//256
f 202//257 178//257 198//257
f 201//258 186//258 190//258
f 37//259 223//259 40//259
f 244//260 257//260 254//260
f 59//261 58//261 57//261
f 216//262 211//262 220//262
f 208//263 217//263 206//263
f 217//264 205//264 206//264
f 84//265 82//265 80//265
f 12//266 33//266 80//266
f 51//267 53//267 30//267
f 94//268 96//268 67//268
f 67//269 87//269 66//269
f 53//270 51//270 52//270
f 74//271 103//271 46//271
f 118//272 114//272 103//272
f 11//273 180//273 15//273
f 72//274 118//274 74//274
f 184//275 209//275 183//275
f 213//276 54//276 7//276
f 165//277 135//277 131//277
f 12//278 2//278 73//278
f 57//279 58//279 63//279
f 197//280 184//280 217//280
f 5//281 1//281 2//281
f 124//282 128//282 149//282
f 145//283 150//283 132//283
f 10//284 142//284 144//284
f 89//285 77//285 45//285
f 78//286 109//286 77//286
f 161//287 164//287 155//287
f 47//288 56//288 46//288
f 35//289 215//289 218//289
f 75//290 71//290 68//290
f 91//291 48//291 92//291
f 44//292 75//292 68//292
f 246//293 244//293 254//293
f 44//294 69//294 75//294
f 2//295 3//295 73//295
f 69//296 43//296 208//296
f 26//297 84//297 33//297
f 84//298 76//298 82//298
f 94//299 53//299 52//299
f 79//300 34//300 96//300
f 89//301 78//301 77//301
f 74//302 46//302 64//302
f 189//303 174//303 175//303
f 133//304 156//304 172//304
f 101//305 120//305 109//305
f 180//306 159//306 4//306
f 43//307 35//307 197//307
f 35//308 39//308 215//308
f 44//309 68//309 64//309
f 64//310 65//310 44//310
f 214//311 212//311 216//311
f 104//312 119//312 232//312
f 70//313 43//313 69//313
f 27//314 35//314 43//314
f 202//315 203//315 178//315
f 199//316 174//316 189//316
f 41//317 26//317 33//317
f 16//318 60//318 26//318
f 105//319 91//319 100//319
f 5//320 2//320 12//320
f 206//321 75//321 69//321
f 69//322 44//322 70//322
f 107//323 112//323 122//323
f 136//324 130//324 137//324
f 62//325 63//325 76//325
f 63//326 94//326 76//326
f 144//327 162//327 157//327
f 56//328 59//328 61//328
f 59//329 65//329 61//329
f 27//330 39//330 35//330
f 160//331 129//331 162//331
f 16//332 65//332 60//332
f 93//333 97//333 36//333
f 57//334 62//334 60//334
f 57//335 63//335 62//335
f 3//336 2//336 18//336
f 71//337 185//337 99//337
f 192//338 173//338 176//338
f 61//339 46//339 56//339
f 85//340 45//340 90//340
f 54//341 83//341 73//341
f 47//342 78//342 89//342
f 32//343 49//343 31//343
f 179//344 168//344 177//344
f 173//345 192//345 147//345
f 41//346 33//346 83//346
f 46//347 61//347 64//347
f 81//348 82//348 52//348
f 217//349 184//349 186//349
f 54//350 73//350 7//350
f 118//351 68//351 99//351
f 115//352 171//352 134//352
f 33//353 12//353 83//353
f 95//354 1//354 81//354
f 96//355 34//355 87//355
f 238//356 226//356 234//356
f 212//357 211//357 216//357
f 116//358 98//358 104//358
f 244//359 242//359 228//359
f 23//360 147//360 19//360
f 111//361 112//361 113//361
f 116//362 253//362 105//362
f 72//363 68//363 118//363
f 42//364 25//364 70//364
f 247//365 225//365 245//365
f 29//366 17//366 30//366
f 141//367 172//367 156//367
f 211//368 212//368 14//368
f 79//369 96//369 63//369
f 11//370 6//370 222//370
f 191//371 204//371 203//371
f 194//372 108//372 195//372
f 193//373 211//373 210//373
f 60//374 62//374 84//374
f 254//375 255//375 246//375
f 39//376 83//376 54//376
f 8//377 4//377 181//377
f 130//378 171//378 115//378
f 49//379 236//379 38//379
f 49//380 32//380 236//380
f 107//381 122//381 106//381
f 165//382 139//382 126//382
f 15//383 4//383 8//383
f 19//384 22//384 23//384
f 155//385 164//385 169//385
f 194//386 195//386 191//386
f 138//387 141//387 158//387
f 155//388 169//388 154//388
f 94//389 67//389 53//389
f 161//390 155//390 160//390
f 248//391 233//391 247//391
f 241//392 248//392 153//392
f 23//393 146//393 147//393
f 118//394 99//394 106//394
f 21//395 19//395 14//395
f 73//396 3//396 20//396
f 66//397 55//397 88//397
f 180//398 241//398 159//398
f 41//399 39//399 27//399
f 95//400 97//400 50//400
f 50//401 93//401 9//401
f 113//402 127//402 221//402
f 138//403 172//403 141//403
f 207//404 199//404 189//404
f 64//405 68//405 72//405
f 201//406 203//406 204//406
f 110//407 121//407 98//407
f 96//408 94//408 63//408
f 54//409 213//409 215//409
f 149//410 148//410 124//410
f 208//411 197//411 217//411
f 159//412 241//412 153//412
f 203//413 190//413 200//413
f 240//414 239//414 222//414
f 223//415 237//415 240//415
f 253//416 252//416 249//416
f 107//417 99//417 188//417
f 43//418 197//418 208//418
f 129//419 154//419 156//419
f 243//420 245//420 230//420
f 71//421 187//421 185//421
f 131//422 135//422 171//422
f 224//423 249//423 252//423
f 153//424 248//424 163//424
f 144//425 13//425 10//425
f 197//426 218//426 184//426
f 51//427 30//427 17//427
f 215//428 213//428 219//428
f 12//429 80//429 5//429
f 141//430 156//430 154//430
f 200//431 207//431 168//431
f 9//432 93//432 40//432
f 110//433 120//433 111//433
f 64//434 72//434 74//434
f 110//435 109//435 120//435
f 255//436 132//436 246//436
f 89//437 34//437 79//437
f 15//438 180//438 4//438
f 32//439 235//439 236//439
f 234//440 247//440 233//440
f 103//441 114//441 101//441
f 83//442 12//442 73//442
f 126//443 158//443 125//443
f 20//444 21//444 14//444
f 101//445 78//445 103//445
f 168//446 140//446 177//446
f 137//447 130//447 198//447
f 137//448 178//448 136//448
f 225//449 234//449 226//449
f 168//450 175//450 140//450
f 59//451 56//451 58//451
f 188//452 195//452 108//452
f 55//453 92//453 31//453
f 84//454 80//454 33//454
f 98//455 45//455 110//455
f 242//456 170//456 243//456
f 118//457 122//457 114//457
f 39//458 41//458 83//458
f 80//459 81//459 5//459
f 173//460 152//460 133//460
f 161//461 163//461 164//461
f 244//462 132//462 150//462
f 125//463 154//463 123//463
f 227//464 229//464 32//464
f 94//465 52//465 76//465
f 199//466 220//466 174//466
f 80//467 82//467 81//467
f 107//468 102//468 112//468
f 75//469 187//469 71//469
f 144//470 143//470 162//470
f 186//471 199//471 207//471
f 222//472 239//472 180//472
f 160//473 154//473 129//473
f 66//474 29//474 28//474
f 24//475 11//475 15//475
f 52//476 95//476 81//476
f 176//477 173//477 133//477
f 188//478 191//478 195//478
f 70//479 65//479 42//479
f 135//480 165//480 149//480
f 188//481 187//481 191//481
f 186//482 183//482 199//482
f 66//483 88//483 29//483
f 224//484 254//484 249//484
f 70//485 44//485 65//485
f 135//486 149//486 145//486
f 121//487 111//487 113//487
f 112//488 117//488 113//488
f 112//489 102//489 117//489
f 196//490 198//490 117//490
f 196//491 194//491 198//491
f 40//492 36//492 37//492
f 93//493 36//493 40//493
f 229//494 227//494 231//494
f 110//495 111//495 121//495
f 120//496 114//496 111//496
f 114//497 122//497 111//497
f 245//498 166//498 164//498
f 176//499 133//499 172//499
f 229//500 231//500 226//500
f 245//501 243//501 166//501
f 100//502 92//502 90//502
f 100//503 91//503 92//503
f 52//504 51//504 95//504
f 53//505 28//505 30//505
f 53//506 67//506 28//506
f 25//507 16//507 26//507
f 24//508 15//508 18//508
f 224//509 255//509 254//509
f 42//510 16//510 25//510
