o hollow_cup_compound
v 0.039300000 -0.017540000 -0.054000000
v 0.038544862 -0.009872950 -0.054000000
v 0.032365914 -0.011102019 -0.054000000
v 0.033000000 -0.017540000 -0.054000000
v 0.039300000 -0.017540000 0.060000000
v 0.038544862 -0.009872950 0.060000000
v 0.032365914 -0.011102019 0.060000000
v 0.033000000 -0.017540000 0.060000000
v 0.038544862 -0.009872950 -0.054000000
v 0.036308466 -0.002500541 -0.054000000
v 0.030488025 -0.004911447 -0.054000000
v 0.032365914 -0.011102019 -0.054000000
v 0.038544862 -0.009872950 0.060000000
v 0.036308466 -0.002500541 0.060000000
v 0.030488025 -0.004911447 0.060000000
v 0.032365914 -0.011102019 0.060000000
v 0.036308466 -0.002500541 -0.054000000
v 0.032676756 0.004293910 -0.054000000
v 0.027438497 0.000793818 -0.054000000
v 0.030488025 -0.004911447 -0.054000000
v 0.036308466 -0.002500541 0.060000000
v 0.032676756 0.004293910 0.060000000
v 0.027438497 0.000793818 0.060000000
v 0.030488025 -0.004911447 0.060000000
v 0.032676756 0.004293910 -0.054000000
v 0.027789297 0.010249297 -0.054000000
v 0.023334524 0.005794524 -0.054000000
v 0.027438497 0.000793818 -0.054000000
v 0.032676756 0.004293910 0.060000000
v 0.027789297 0.010249297 0.060000000
v 0.023334524 0.005794524 0.060000000
v 0.027438497 0.000793818 0.060000000
v 0.027789297 0.010249297 -0.054000000
v 0.021833910 0.015136756 -0.054000000
v 0.018333818 0.009898497 -0.054000000
v 0.023334524 0.005794524 -0.054000000
v 0.027789297 0.010249297 0.060000000
v 0.021833910 0.015136756 0.060000000
v 0.018333818 0.009898497 0.060000000
v 0.023334524 0.005794524 0.060000000
v 0.021833910 0.015136756 -0.054000000
v 0.015039459 0.018768466 -0.054000000
v 0.012628553 0.012948025 -0.054000000
v 0.018333818 0.009898497 -0.054000000
v 0.021833910 0.015136756 0.060000000
v 0.015039459 0.018768466 0.060000000
v 0.012628553 0.012948025 0.060000000
v 0.018333818 0.009898497 0.060000000
v 0.015039459 0.018768466 -0.054000000
v 0.007667050 0.021004862 -0.054000000
v 0.006437981 0.014825914 -0.054000000
v 0.012628553 0.012948025 -0.054000000
v 0.015039459 0.018768466 0.060000000
v 0.007667050 0.021004862 0.060000000
v 0.006437981 0.014825914 0.060000000
v 0.012628553 0.012948025 0.060000000
v 0.007667050 0.021004862 -0.054000000
v 0.000000000 0.021760000 -0.054000000
v 0.000000000 0.015460000 -0.054000000
v 0.006437981 0.014825914 -0.054000000
v 0.007667050 0.021004862 0.060000000
v 0.000000000 0.021760000 0.060000000
v 0.000000000 0.015460000 0.060000000
v 0.006437981 0.014825914 0.060000000
v 0.000000000 0.021760000 -0.054000000
v -0.007667050 0.021004862 -0.054000000
v -0.006437981 0.014825914 -0.054000000
v 0.000000000 0.015460000 -0.054000000
v 0.000000000 0.021760000 0.060000000
v -0.007667050 0.021004862 0.060000000
v -0.006437981 0.014825914 0.060000000
v 0.000000000 0.015460000 0.060000000
v -0.007667050 0.021004862 -0.054000000
v -0.015039459 0.018768466 -0.054000000
v -0.012628553 0.012948025 -0.054000000
v -0.006437981 0.014825914 -0.054000000
v -0.007667050 0.021004862 0.060000000
v -0.015039459 0.018768466 0.060000000
v -0.012628553 0.012948025 0.060000000
v -0.006437981 0.014825914 0.060000000
v -0.015039459 0.018768466 -0.054000000
v -0.021833910 0.015136756 -0.054000000
v -0.018333818 0.009898497 -0.054000000
v -0.012628553 0.012948025 -0.054000000
v -0.015039459 0.018768466 0.060000000
v -0.021833910 0.015136756 0.060000000
v -0.018333818 0.009898497 0.060000000
v -0.012628553 0.012948025 0.060000000
v -0.021833910 0.015136756 -0.054000000
v -0.027789297 0.010249297 -0.054000000
v -0.023334524 0.005794524 -0.054000000
v -0.018333818 0.009898497 -0.054000000
v -0.021833910 0.015136756 0.060000000
v -0.027789297 0.010249297 0.060000000
v -0.023334524 0.005794524 0.060000000
v -0.018333818 0.009898497 0.060000000
v -0.027789297 0.010249297 -0.054000000
v -0.032676756 0.004293910 -0.054000000
v -0.027438497 0.000793818 -0.054000000
v -0.023334524 0.005794524 -0.054000000
v -0.027789297 0.010249297 0.060000000
v -0.032676756 0.004293910 0.060000000
v -0.027438497 0.000793818 0.060000000
v -0.023334524 0.005794524 0.060000000
v -0.032676756 0.004293910 -0.054000000
v -0.036308466 -0.002500541 -0.054000000
v -0.030488025 -0.004911447 -0.054000000
v -0.027438497 0.000793818 -0.054000000
v -0.032676756 0.004293910 0.060000000
v -0.036308466 -0.002500541 0.060000000
v -0.030488025 -0.004911447 0.060000000
v -0.027438497 0.000793818 0.060000000
v -0.036308466 -0.002500541 -0.054000000
v -0.038544862 -0.009872950 -0.054000000
v -0.032365914 -0.011102019 -0.054000000
v -0.030488025 -0.004911447 -0.054000000
v -0.036308466 -0.002500541 0.060000000
v -0.038544862 -0.009872950 0.060000000
v -0.032365914 -0.011102019 0.060000000
v -0.030488025 -0.004911447 0.060000000
v -0.038544862 -0.009872950 -0.054000000
v -0.039300000 -0.017540000 -0.054000000
v -0.033000000 -0.017540000 -0.054000000
v -0.032365914 -0.011102019 -0.054000000
v -0.038544862 -0.009872950 0.060000000
v -0.039300000 -0.017540000 0.060000000
v -0.033000000 -0.017540000 0.060000000
v -0.032365914 -0.011102019 0.060000000
v -0.039300000 -0.017540000 -0.054000000
v -0.038544862 -0.025207050 -0.054000000
v -0.032365914 -0.023977981 -0.054000000
v -0.033000000 -0.017540000 -0.054000000
v -0.039300000 -0.017540000 0.060000000
v -0.038544862 -0.025207050 0.060000000
v -0.032365914 -0.023977981 0.060000000
v -0.033000000 -0.017540000 0.060000000
v -0.038544862 -0.025207050 -0.054000000
v -0.036308466 -0.032579459 -0.054000000
v -0.030488025 -0.030168553 -0.054000000
v -0.032365914 -0.023977981 -0.054000000
v -0.038544862 -0.025207050 0.060000000
v -0.036308466 -0.032579459 0.060000000
v -0.030488025 -0.030168553 0.060000000
v -0.032365914 -0.023977981 0.060000000
v -0.036308466 -0.032579459 -0.054000000
v -0.032676756 -0.039373910 -0.054000000
v -0.027438497 -0.035873818 -0.054000000
v -0.030488025 -0.030168553 -0.054000000
v -0.036308466 -0.032579459 0.060000000
v -0.032676756 -0.039373910 0.060000000
v -0.027438497 -0.035873818 0.060000000
v -0.030488025 -0.030168553 0.060000000
v -0.032676756 -0.039373910 -0.054000000
v -0.027789297 -0.045329297 -0.054000000
v -0.023334524 -0.040874524 -0.054000000
v -0.027438497 -0.035873818 -0.054000000
v -0.032676756 -0.039373910 0.060000000
v -0.027789297 -0.045329297 0.060000000
v -0.023334524 -0.040874524 0.060000000
v -0.027438497 -0.035873818 0.060000000
v -0.027789297 -0.045329297 -0.054000000
v -0.021833910 -0.050216756 -0.054000000
v -0.018333818 -0.044978497 -0.054000000
v -0.023334524 -0.040874524 -0.054000000
v -0.027789297 -0.045329297 0.060000000
v -0.021833910 -0.050216756 0.060000000
v -0.018333818 -0.044978497 0.060000000
v -0.023334524 -0.040874524 0.060000000
v -0.021833910 -0.050216756 -0.054000000
v -0.015039459 -0.053848466 -0.054000000
v -0.012628553 -0.048028025 -0.054000000
v -0.018333818 -0.044978497 -0.054000000
v -0.021833910 -0.050216756 0.060000000
v -0.015039459 -0.053848466 0.060000000
v -0.012628553 -0.048028025 0.060000000
v -0.018333818 -0.044978497 0.060000000
v -0.015039459 -0.053848466 -0.054000000
v -0.007667050 -0.056084862 -0.054000000
v -0.006437981 -0.049905914 -0.054000000
v -0.012628553 -0.048028025 -0.054000000
v -0.015039459 -0.053848466 0.060000000
v -0.007667050 -0.056084862 0.060000000
v -0.006437981 -0.049905914 0.060000000
v -0.012628553 -0.048028025 0.060000000
v -0.007667050 -0.056084862 -0.054000000
v -0.000000000 -0.056840000 -0.054000000
v -0.000000000 -0.050540000 -0.054000000
v -0.006437981 -0.049905914 -0.054000000
v -0.007667050 -0.056084862 0.060000000
v -0.000000000 -0.056840000 0.060000000
v -0.000000000 -0.050540000 0.060000000
v -0.006437981 -0.049905914 0.060000000
v -0.000000000 -0.056840000 -0.054000000
v 0.007667050 -0.056084862 -0.054000000
v 0.006437981 -0.049905914 -0.054000000
v -0.000000000 -0.050540000 -0.054000000
v -0.000000000 -0.056840000 0.060000000
v 0.007667050 -0.056084862 0.060000000
v 0.006437981 -0.049905914 0.060000000
v -0.000000000 -0.050540000 0.060000000
v 0.007667050 -0.056084862 -0.054000000
v 0.015039459 -0.053848466 -0.054000000
v 0.012628553 -0.048028025 -0.054000000
v 0.006437981 -0.049905914 -0.054000000
v 0.007667050 -0.056084862 0.060000000
v 0.015039459 -0.053848466 0.060000000
v 0.012628553 -0.048028025 0.060000000
v 0.006437981 -0.049905914 0.060000000
v 0.015039459 -0.053848466 -0.054000000
v 0.021833910 -0.050216756 -0.054000000
v 0.018333818 -0.044978497 -0.054000000
v 0.012628553 -0.048028025 -0.054000000
v 0.015039459 -0.053848466 0.060000000
v 0.021833910 -0.050216756 0.060000000
v 0.018333818 -0.044978497 0.060000000
v 0.012628553 -0.048028025 0.060000000
v 0.021833910 -0.050216756 -0.054000000
v 0.027789297 -0.045329297 -0.054000000
v 0.023334524 -0.040874524 -0.054000000
v 0.018333818 -0.044978497 -0.054000000
v 0.021833910 -0.050216756 0.060000000
v 0.027789297 -0.045329297 0.060000000
v 0.023334524 -0.040874524 0.060000000
v 0.018333818 -0.044978497 0.060000000
v 0.027789297 -0.045329297 -0.054000000
v 0.032676756 -0.039373910 -0.054000000
v 0.027438497 -0.035873818 -0.054000000
v 0.023334524 -0.040874524 -0.054000000
v 0.027789297 -0.045329297 0.060000000
v 0.032676756 -0.039373910 0.060000000
v 0.027438497 -0.035873818 0.060000000
v 0.023334524 -0.040874524 0.060000000
v 0.032676756 -0.039373910 -0.054000000
v 0.036308466 -0.032579459 -0.054000000
v 0.030488025 -0.030168553 -0.054000000
v 0.027438497 -0.035873818 -0.054000000
v 0.032676756 -0.039373910 0.060000000
v 0.036308466 -0.032579459 0.060000000
v 0.030488025 -0.030168553 0.060000000
v 0.027438497 -0.035873818 0.060000000
v 0.036308466 -0.032579459 -0.054000000
v 0.038544862 -0.025207050 -0.054000000
v 0.032365914 -0.023977981 -0.054000000
v 0.030488025 -0.030168553 -0.054000000
v 0.036308466 -0.032579459 0.060000000
v 0.038544862 -0.025207050 0.060000000
v 0.032365914 -0.023977981 0.060000000
v 0.030488025 -0.030168553 0.060000000
v 0.038544862 -0.025207050 -0.054000000
v 0.039300000 -0.017540000 -0.054000000
v 0.033000000 -0.017540000 -0.054000000
v 0.032365914 -0.023977981 -0.054000000
v 0.038544862 -0.025207050 0.060000000
v 0.039300000 -0.017540000 0.060000000
v 0.033000000 -0.017540000 0.060000000
v 0.032365914 -0.023977981 0.060000000
v 0.039300000 -0.017540000 -0.060000000
v 0.038544862 -0.009872950 -0.060000000
v 0.036308466 -0.002500541 -0.060000000
v 0.032676756 0.004293910 -0.060000000
v 0.027789297 0.010249297 -0.060000000
v 0.021833910 0.015136756 -0.060000000
v 0.015039459 0.018768466 -0.060000000
v 0.007667050 0.021004862 -0.060000000
v 0.000000000 0.021760000 -0.060000000
v -0.007667050 0.021004862 -0.060000000
v -0.015039459 0.018768466 -0.060000000
v -0.021833910 0.015136756 -0.060000000
v -0.027789297 0.010249297 -0.060000000
v -0.032676756 0.004293910 -0.060000000
v -0.036308466 -0.002500541 -0.060000000
v -0.038544862 -0.009872950 -0.060000000
v -0.039300000 -0.017540000 -0.060000000
v -0.038544862 -0.025207050 -0.060000000
v -0.036308466 -0.032579459 -0.060000000
v -0.032676756 -0.039373910 -0.060000000
v -0.027789297 -0.045329297 -0.060000000
v -0.021833910 -0.050216756 -0.060000000
v -0.015039459 -0.053848466 -0.060000000
v -0.007667050 -0.056084862 -0.060000000
v -0.000000000 -0.056840000 -0.060000000
v 0.007667050 -0.056084862 -0.060000000
v 0.015039459 -0.053848466 -0.060000000
v 0.021833910 -0.050216756 -0.060000000
v 0.027789297 -0.045329297 -0.060000000
v 0.032676756 -0.039373910 -0.060000000
v 0.036308466 -0.032579459 -0.060000000
v 0.038544862 -0.025207050 -0.060000000
v 0.039300000 -0.017540000 -0.054000000
v 0.038544862 -0.009872950 -0.054000000
v 0.036308466 -0.002500541 -0.054000000
v 0.032676756 0.004293910 -0.054000000
v 0.027789297 0.010249297 -0.054000000
v 0.021833910 0.015136756 -0.054000000
v 0.015039459 0.018768466 -0.054000000
v 0.007667050 0.021004862 -0.054000000
v 0.000000000 0.021760000 -0.054000000
v -0.007667050 0.021004862 -0.054000000
v -0.015039459 0.018768466 -0.054000000
v -0.021833910 0.015136756 -0.054000000
v -0.027789297 0.010249297 -0.054000000
v -0.032676756 0.004293910 -0.054000000
v -0.036308466 -0.002500541 -0.054000000
v -0.038544862 -0.009872950 -0.054000000
v -0.039300000 -0.017540000 -0.054000000
v -0.038544862 -0.025207050 -0.054000000
v -0.036308466 -0.032579459 -0.054000000
v -0.032676756 -0.039373910 -0.054000000
v -0.027789297 -0.045329297 -0.054000000
v -0.021833910 -0.050216756 -0.054000000
v -0.015039459 -0.053848466 -0.054000000
v -0.007667050 -0.056084862 -0.054000000
v -0.000000000 -0.056840000 -0.054000000
v 0.007667050 -0.056084862 -0.054000000
v 0.015039459 -0.053848466 -0.054000000
v 0.021833910 -0.050216756 -0.054000000
v 0.027789297 -0.045329297 -0.054000000
v 0.032676756 -0.039373910 -0.054000000
v 0.036308466 -0.032579459 -0.054000000
v 0.038544862 -0.025207050 -0.054000000
v 0.000000000 -0.017540000 -0.060000000
v 0.000000000 -0.017540000 -0.054000000
v -0.004500000 0.022356117 -0.039465505
v -0.004500000 0.031932421 -0.038272909
v -0.004500000 0.030820188 -0.029341899
v -0.004500000 0.021243883 -0.030534495
v 0.004500000 0.022356117 -0.039465505
v 0.004500000 0.031932421 -0.038272909
v 0.004500000 0.030820188 -0.029341899
v 0.004500000 0.021243883 -0.030534495
v -0.004500000 0.033017988 -0.037997258
v -0.004500000 0.041941684 -0.034500743
v -0.004500000 0.038658316 -0.026121035
v -0.004500000 0.029734621 -0.029617550
v 0.004500000 0.033017988 -0.037997258
v 0.004500000 0.041941684 -0.034500743
v 0.004500000 0.038658316 -0.026121035
v 0.004500000 0.029734621 -0.029617550
v -0.004500000 0.042943382 -0.033952665
v -0.004500000 0.050606333 -0.028390513
v -0.004500000 0.045319569 -0.021106962
v -0.004500000 0.037656618 -0.026669113
v 0.004500000 0.042943382 -0.033952665
v 0.004500000 0.050606333 -0.028390513
v 0.004500000 0.045319569 -0.021106962
v 0.004500000 0.037656618 -0.026669113
v -0.004500000 0.051457730 -0.027583612
v -0.004500000 0.057337719 -0.020334875
v -0.004500000 0.050348161 -0.014665125
v -0.004500000 0.044468171 -0.021913862
v 0.004500000 0.051457730 -0.027583612
v 0.004500000 0.057337719 -0.020334875
v 0.004500000 0.050348161 -0.014665125
v 0.004500000 0.044468171 -0.021913862
v -0.004500000 0.057965068 -0.019305009
v -0.004500000 0.061661384 -0.010863676
v -0.004500000 0.053417127 -0.007253657
v -0.004500000 0.049720812 -0.015694991
v 0.004500000 0.057965068 -0.019305009
v 0.004500000 0.061661384 -0.010863676
v 0.004500000 0.053417127 -0.007253657
v 0.004500000 0.049720812 -0.015694991
v -0.004500000 0.061996297 -0.009678977
v -0.004500000 0.063257041 -0.000620311
v -0.004500000 0.054342959 0.000620311
v -0.004500000 0.053082215 -0.008438356
v 0.004500000 0.061996297 -0.009678977
v 0.004500000 0.063257041 -0.000620311
v 0.004500000 0.054342959 0.000620311
v 0.004500000 0.053082215 -0.008438356
v -0.004500000 0.063257041 0.000620311
v -0.004500000 0.061996297 0.009678977
v -0.004500000 0.053082215 0.008438356
v -0.004500000 0.054342959 -0.000620311
v 0.004500000 0.063257041 0.000620311
v 0.004500000 0.061996297 0.009678977
v 0.004500000 0.053082215 0.008438356
v 0.004500000 0.054342959 -0.000620311
v -0.004500000 0.061661384 0.010863676
v -0.004500000 0.057965068 0.019305009
v -0.004500000 0.049720812 0.015694991
v -0.004500000 0.053417127 0.007253657
v 0.004500000 0.061661384 0.010863676
v 0.004500000 0.057965068 0.019305009
v 0.004500000 0.049720812 0.015694991
v 0.004500000 0.053417127 0.007253657
v -0.004500000 0.057337719 0.020334875
v -0.004500000 0.051457730 0.027583612
v -0.004500000 0.044468171 0.021913862
v -0.004500000 0.050348161 0.014665125
v 0.004500000 0.057337719 0.020334875
v 0.004500000 0.051457730 0.027583612
v 0.004500000 0.044468171 0.021913862
v 0.004500000 0.050348161 0.014665125
v -0.004500000 0.050606333 0.028390513
v -0.004500000 0.042943382 0.033952665
v -0.004500000 0.037656618 0.026669113
v -0.004500000 0.045319569 0.021106962
v 0.004500000 0.050606333 0.028390513
v 0.004500000 0.042943382 0.033952665
v 0.004500000 0.037656618 0.026669113
v 0.004500000 0.045319569 0.021106962
v -0.004500000 0.041941684 0.034500743
v -0.004500000 0.033017988 0.037997258
v -0.004500000 0.029734621 0.029617550
v -0.004500000 0.038658316 0.026121035
v 0.004500000 0.041941684 0.034500743
v 0.004500000 0.033017988 0.037997258
v 0.004500000 0.029734621 0.029617550
v 0.004500000 0.038658316 0.026121035
v -0.004500000 0.031932421 0.038272909
v -0.004500000 0.022356117 0.039465505
v -0.004500000 0.021243883 0.030534495
v -0.004500000 0.030820188 0.029341899
v 0.004500000 0.031932421 0.038272909
v 0.004500000 0.022356117 0.039465505
v 0.004500000 0.021243883 0.030534495
v 0.004500000 0.030820188 0.029341899
f 1 3 2
f 1 4 3
f 5 6 7
f 5 7 8
f 1 2 6
f 1 6 5
f 2 3 7
f 2 7 6
f 3 4 8
f 3 8 7
f 4 1 5
f 4 5 8
f 9 11 10
f 9 12 11
f 13 14 15
f 13 15 16
f 9 10 14
f 9 14 13
f 10 11 15
f 10 15 14
f 11 12 16
f 11 16 15
f 12 9 13
f 12 13 16
f 17 19 18
f 17 20 19
f 21 22 23
f 21 23 24
f 17 18 22
f 17 22 21
f 18 19 23
f 18 23 22
f 19 20 24
f 19 24 23
f 20 17 21
f 20 21 24
f 25 27 26
f 25 28 27
f 29 30 31
f 29 31 32
f 25 26 30
f 25 30 29
f 26 27 31
f 26 31 30
f 27 28 32
f 27 32 31
f 28 25 29
f 28 29 32
f 33 35 34
f 33 36 35
f 37 38 39
f 37 39 40
f 33 34 38
f 33 38 37
f 34 35 39
f 34 39 38
f 35 36 40
f 35 40 39
f 36 33 37
f 36 37 40
f 41 43 42
f 41 44 43
f 45 46 47
f 45 47 48
f 41 42 46
f 41 46 45
f 42 43 47
f 42 47 46
f 43 44 48
f 43 48 47
f 44 41 45
f 44 45 48
f 49 51 50
f 49 52 51
f 53 54 55
f 53 55 56
f 49 50 54
f 49 54 53
f 50 51 55
f 50 55 54
f 51 52 56
f 51 56 55
f 52 49 53
f 52 53 56
f 57 59 58
f 57 60 59
f 61 62 63
f 61 63 64
f 57 58 62
f 57 62 61
f 58 59 63
f 58 63 62
f 59 60 64
f 59 64 63
f 60 57 61
f 60 61 64
f 65 67 66
f 65 68 67
f 69 70 71
f 69 71 72
f 65 66 70
f 65 70 69
f 66 67 71
f 66 71 70
f 67 68 72
f 67 72 71
f 68 65 69
f 68 69 72
f 73 75 74
f 73 76 75
f 77 78 79
f 77 79 80
f 73 74 78
f 73 78 77
f 74 75 79
f 74 79 78
f 75 76 80
f 75 80 79
f 76 73 77
f 76 77 80
f 81 83 82
f 81 84 83
f 85 86 87
f 85 87 88
f 81 82 86
f 81 86 85
f 82 83 87
f 82 87 86
f 83 84 88
f 83 88 87
f 84 81 85
f 84 85 88
f 89 91 90
f 89 92 91
f 93 94 95
f 93 95 96
f 89 90 94
f 89 94 93
f 90 91 95
f 90 95 94
f 91 92 96
f 91 96 95
f 92 89 93
f 92 93 96
f 97 99 98
f 97 100 99
f 101 102 103
f 101 103 104
f 97 98 102
f 97 102 101
f 98 99 103
f 98 103 102
f 99 100 104
f 99 104 103
f 100 97 101
f 100 101 104
f 105 107 106
f 105 108 107
f 109 110 111
f 109 111 112
f 105 106 110
f 105 110 109
f 106 107 111
f 106 111 110
f 107 108 112
f 107 112 111
f 108 105 109
f 108 109 112
f 113 115 114
f 113 116 115
f 117 118 119
f 117 119 120
f 113 114 118
f 113 118 117
f 114 115 119
f 114 119 118
f 115 116 120
f 115 120 119
f 116 113 117
f 116 117 120
f 121 123 122
f 121 124 123
f 125 126 127
f 125 127 128
f 121 122 126
f 121 126 125
f 122 123 127
f 122 127 126
f 123 124 128
f 123 128 127
f 124 121 125
f 124 125 128
f 129 131 130
f 129 132 131
f 133 134 135
f 133 135 136
f 129 130 134
f 129 134 133
f 130 131 135
f 130 135 134
f 131 132 136
f 131 136 135
f 132 129 133
f 132 133 136
f 137 139 138
f 137 140 139
f 141 142 143
f 141 143 144
f 137 138 142
f 137 142 141
f 138 139 143
f 138 143 142
f 139 140 144
f 139 144 143
f 140 137 141
f 140 141 144
f 145 147 146
f 145 148 147
f 149 150 151
f 149 151 152
f 145 146 150
f 145 150 149
f 146 147 151
f 146 151 150
f 147 148 152
f 147 152 151
f 148 145 149
f 148 149 152
f 153 155 154
f 153 156 155
f 157 158 159
f 157 159 160
f 153 154 158
f 153 158 157
f 154 155 159
f 154 159 158
f 155 156 160
f 155 160 159
f 156 153 157
f 156 157 160
f 161 163 162
f 161 164 163
f 165 166 167
f 165 167 168
f 161 162 166
f 161 166 165
f 162 163 167
f 162 167 166
f 163 164 168
f 163 168 167
f 164 161 165
f 164 165 168
f 169 171 170
f 169 172 171
f 173 174 175
f 173 175 176
f 169 170 174
f 169 174 173
f 170 171 175
f 170 175 174
f 171 172 176
f 171 176 175
f 172 169 173
f 172 173 176
f 177 179 178
f 177 180 179
f 181 182 183
f 181 183 184
f 177 178 182
f 177 182 181
f 178 179 183
f 178 183 182
f 179 180 184
f 179 184 183
f 180 177 181
f 180 181 184
f 185 187 186
f 185 188 187
f 189 190 191
f 189 191 192
f 185 186 190
f 185 190 189
f 186 187 191
f 186 191 190
f 187 188 192
f 187 192 191
f 188 185 189
f 188 189 192
f 193 195 194
f 193 196 195
f 197 198 199
f 197 199 200
f 193 194 198
f 193 198 197
f 194 195 199
f 194 199 198
f 195 196 200
f 195 200 199
f 196 193 197
f 196 197 200
f 201 203 202
f 201 204 203
f 205 206 207
f 205 207 208
f 201 202 206
f 201 206 205
f 202 203 207
f 202 207 206
f 203 204 208
f 203 208 207
f 204 201 205
f 204 205 208
f 209 211 210
f 209 212 211
f 213 214 215
f 213 215 216
f 209 210 214
f 209 214 213
f 210 211 215
f 210 215 214
f 211 212 216
f 211 216 215
f 212 209 213
f 212 213 216
f 217 219 218
f 217 220 219
f 221 222 223
f 221 223 224
f 217 218 222
f 217 222 221
f 218 219 223
f 218 223 222
f 219 220 224
f 219 224 223
f 220 217 221
f 220 221 224
f 225 227 226
f 225 228 227
f 229 230 231
f 229 231 232
f 225 226 230
f 225 230 229
f 226 227 231
f 226 231 230
f 227 228 232
f 227 232 231
f 228 225 229
f 228 229 232
f 233 235 234
f 233 236 235
f 237 238 239
f 237 239 240
f 233 234 238
f 233 238 237
f 234 235 239
f 234 239 238
f 235 236 240
f 235 240 239
f 236 233 237
f 236 237 240
f 241 243 242
f 241 244 243
f 245 246 247
f 245 247 248
f 241 242 246
f 241 246 245
f 242 243 247
f 242 247 246
f 243 244 248
f 243 248 247
f 244 241 245
f 244 245 248
f 249 251 250
f 249 252 251
f 253 254 255
f 253 255 256
f 249 250 254
f 249 254 253
f 250 251 255
f 250 255 254
f 251 252 256
f 251 256 255
f 252 249 253
f 252 253 256
f 321 258 257
f 322 289 290
f 257 258 290
f 257 290 289
f 321 259 258
f 322 290 291
f 258 259 291
f 258 291 290
f 321 260 259
f 322 291 292
f 259 260 292
f 259 292 291
f 321 261 260
f 322 292 293
f 260 261 293
f 260 293 292
f 321 262 261
f 322 293 294
f 261 262 294
f 261 294 293
f 321 263 262
f 322 294 295
f 262 263 295
f 262 295 294
f 321 264 263
f 322 295 296
f 263 264 296
f 263 296 295
f 321 265 264
f 322 296 297
f 264 265 297
f 264 297 296
f 321 266 265
f 322 297 298
f 265 266 298
f 265 298 297
f 321 267 266
f 322 298 299
f 266 267 299
f 266 299 298
f 321 268 267
f 322 299 300
f 267 268 300
f 267 300 299
f 321 269 268
f 322 300 301
f 268 269 301
f 268 301 300
f 321 270 269
f 322 301 302
f 269 270 302
f 269 302 301
f 321 271 270
f 322 302 303
f 270 271 303
f 270 303 302
f 321 272 271
f 322 303 304
f 271 272 304
f 271 304 303
f 321 273 272
f 322 304 305
f 272 273 305
f 272 305 304
f 321 274 273
f 322 305 306
f 273 274 306
f 273 306 305
f 321 275 274
f 322 306 307
f 274 275 307
f 274 307 306
f 321 276 275
f 322 307 308
f 275 276 308
f 275 308 307
f 321 277 276
f 322 308 309
f 276 277 309
f 276 309 308
f 321 278 277
f 322 309 310
f 277 278 310
f 277 310 309
f 321 279 278
f 322 310 311
f 278 279 311
f 278 311 310
f 321 280 279
f 322 311 312
f 279 280 312
f 279 312 311
f 321 281 280
f 322 312 313
f 280 281 313
f 280 313 312
f 321 282 281
f 322 313 314
f 281 282 314
f 281 314 313
f 321 283 282
f 322 314 315
f 282 283 315
f 282 315 314
f 321 284 283
f 322 315 316
f 283 284 316
f 283 316 315
f 321 285 284
f 322 316 317
f 284 285 317
f 284 317 316
f 321 286 285
f 322 317 318
f 285 286 318
f 285 318 317
f 321 287 286
f 322 318 319
f 286 287 319
f 286 319 318
f 321 288 287
f 322 319 320
f 287 288 320
f 287 320 319
f 321 257 288
f 322 320 289
f 288 257 289
f 288 289 320
f 323 325 324
f 323 326 325
f 327 328 329
f 327 329 330
f 323 324 328
f 323 328 327
f 324 325 329
f 324 329 328
f 325 326 330
f 325 330 329
f 326 323 327
f 326 327 330
f 331 333 332
f 331 334 333
f 335 336 337
f 335 337 338
f 331 332 336
f 331 336 335
f 332 333 337
f 332 337 336
f 333 334 338
f 333 338 337
f 334 331 335
f 334 335 338
f 339 341 340
f 339 342 341
f 343 344 345
f 343 345 346
f 339 340 344
f 339 344 343
f 340 341 345
f 340 345 344
f 341 342 346
f 341 346 345
f 342 339 343
f 342 343 346
f 347 349 348
f 347 350 349
f 351 352 353
f 351 353 354
f 347 348 352
f 347 352 351
f 348 349 353
f 348 353 352
f 349 350 354
f 349 354 353
f 350 347 351
f 350 351 354
f 355 357 356
f 355 358 357
f 359 360 361
f 359 361 362
f 355 356 360
f 355 360 359
f 356 357 361
f 356 361 360
f 357 358 362
f 357 362 361
f 358 355 359
f 358 359 362
f 363 365 364
f 363 366 365
f 367 368 369
f 367 369 370
f 363 364 368
f 363 368 367
f 364 365 369
f 364 369 368
f 365 366 370
f 365 370 369
f 366 363 367
f 366 367 370
f 371 373 372
f 371 374 373
f 375 376 377
f 375 377 378
f 371 372 376
f 371 376 375
f 372 373 377
f 372 377 376
f 373 374 378
f 373 378 377
f 374 371 375
f 374 375 378
f 379 381 380
f 379 382 381
f 383 384 385
f 383 385 386
f 379 380 384
f 379 384 383
f 380 381 385
f 380 385 384
f 381 382 386
f 381 386 385
f 382 379 383
f 382 383 386
f 387 389 388
f 387 390 389
f 391 392 393
f 391 393 394
f 387 388 392
f 387 392 391
f 388 389 393
f 388 393 392
f 389 390 394
f 389 394 393
f 390 387 391
f 390 391 394
f 395 397 396
f 395 398 397
f 399 400 401
f 399 401 402
f 395 396 400
f 395 400 399
f 396 397 401
f 396 401 400
f 397 398 402
f 397 402 401
f 398 395 399
f 398 399 402
f 403 405 404
f 403 406 405
f 407 408 409
f 407 409 410
f 403 404 408
f 403 408 407
f 404 405 409
f 404 409 408
f 405 406 410
f 405 410 409
f 406 403 407
f 406 407 410
f 411 413 412
f 411 414 413
f 415 416 417
f 415 417 418
f 411 412 416
f 411 416 415
f 412 413 417
f 412 417 416
f 413 414 418
f 413 418 417
f 414 411 415
f 414 415 418
