# Blender v3.4.1 OBJ File: ''
# www.blender.org
o collision_collision_mesh
s off
v 0.067347 0.043444 0.108902
v 0.077649 0.081360 0.072344
v -0.096666 -0.109861 -0.031964
v -0.005324 0.097703 -0.032386
v -0.106029 0.091941 -0.072582
v 0.059422 -0.111227 0.066971
v -0.072277 -0.007729 0.104881
v -0.106560 -0.094080 -0.062995
v -0.098459 -0.110869 -0.060003
v -0.092092 -0.114383 -0.044505
v -0.106978 -0.100520 -0.058162
v -0.012955 0.099828 -0.032657
v -0.100873 0.092228 -0.072061
v -0.108720 0.086688 -0.073462
v 0.124017 -0.013349 -0.072359
v -0.019442 -0.111039 -0.034875
v -0.067785 -0.001948 0.109465
v -0.105033 -0.106958 -0.055397
v -0.071439 -0.001807 0.107321
v -0.130571 0.081020 -0.054653
v -0.089696 -0.092959 -0.073272
v 0.057794 -0.114691 0.059388
v -0.104057 -0.100141 -0.062764
v 0.062707 0.087602 0.091078
v 0.121650 -0.011273 -0.072951
v 0.037809 0.054467 0.133757
v -0.066633 -0.009433 0.109007
v 0.064923 -0.109965 0.051659
v 0.062868 0.086405 0.102709
v 0.066395 -0.108889 0.038044
v -0.103724 -0.106242 -0.058973
v 0.130436 0.010426 -0.072503
v 0.048644 -0.114268 0.078416
v -0.132212 0.081105 -0.047145
v -0.083140 -0.094685 -0.073113
v -0.124307 0.074437 -0.064169
v -0.003584 0.100200 -0.026021
v 0.028101 0.051853 -0.071584
v 0.067981 -0.108873 0.040586
v 0.048972 0.076259 0.125414
v 0.073655 0.084332 0.078496
v -0.085459 -0.100562 -0.071478
v -0.109545 0.080444 -0.073505
v -0.098325 -0.092984 -0.071239
v 0.045034 -0.098909 0.101741
v -0.119873 0.083814 -0.067506
v -0.110017 0.105306 -0.050791
v -0.093569 -0.109164 -0.065414
v -0.024525 0.104090 -0.024730
v -0.115777 0.104608 -0.043132
v 0.060587 -0.112823 0.059986
v 0.041921 0.059354 0.133001
v -0.130648 0.085799 -0.042408
v 0.046151 -0.104892 0.096441
v -0.115345 0.103907 -0.039378
v -0.064943 -0.007925 0.109946
v 0.054673 -0.113841 0.071543
v -0.109894 -0.101805 -0.040873
v -0.109093 -0.102403 -0.038225
v 0.041827 0.070041 0.130701
v 0.054365 0.086546 0.104290
v 0.050504 -0.104089 0.093663
v 0.044213 -0.111191 0.087625
v -0.107508 -0.087253 -0.064003
v 0.037580 0.061082 0.132909
v -0.105488 -0.107836 -0.037961
v -0.103563 0.101071 -0.061770
v -0.129739 0.087401 -0.051804
v -0.104651 -0.089759 -0.067238
v 0.131317 -0.006321 -0.040258
v -0.095509 -0.101078 -0.069338
v -0.112759 0.088443 -0.071706
v -0.086345 -0.108813 -0.065822
v -0.113542 0.105142 -0.044918
v -0.130466 0.087382 -0.046042
v -0.101551 -0.111517 -0.042538
v -0.073017 -0.003946 0.105353
v 0.065927 0.085009 0.102651
v 0.047652 0.079220 0.123312
v 0.123753 0.017512 -0.072561
v -0.012846 0.102706 -0.022052
v -0.126736 0.096270 -0.044281
v 0.044321 0.055133 0.131276
v -0.109520 0.104510 -0.054494
v -0.108328 0.090193 -0.072835
v 0.033072 -0.092478 0.106134
v -0.106406 0.095024 -0.070682
v -0.121703 0.100165 -0.039163
v 0.041538 -0.079704 0.109823
v -0.107198 0.098454 -0.066812
v 0.069179 0.085634 0.092992
v 0.062453 -0.110867 0.059048
v -0.110805 0.096309 -0.068338
v -0.012473 0.101170 -0.030339
v 0.059484 -0.114283 0.054014
v -0.104383 -0.109167 -0.051095
v -0.098476 -0.102294 -0.066763
v -0.014747 0.102977 -0.025446
v 0.073724 0.083094 0.086577
v -0.130443 0.066445 -0.035253
v -0.126723 0.091898 -0.036039
v -0.131188 0.064157 -0.051428
v 0.049853 -0.107939 0.090243
v -0.093110 -0.099782 -0.071039
v -0.024513 -0.112695 -0.028765
v -0.013148 -0.105483 -0.041419
v 0.032093 -0.088653 0.109155
v 0.040102 0.074545 0.127059
v 0.057159 0.073764 0.120303
v 0.062799 -0.112575 0.051809
v -0.128350 0.086387 -0.033755
v -0.129634 0.083064 -0.035265
v 0.041423 0.077547 0.124748
v 0.055734 0.085162 0.108244
v 0.077203 -0.010561 0.086293
v 0.072381 0.050796 0.101333
v -0.019208 -0.109785 -0.037833
v 0.081306 0.076907 0.070753
v -0.090742 -0.102779 -0.070368
v 0.120503 -0.030250 -0.066575
v -0.004470 0.100859 -0.021283
v -0.069669 -0.013189 0.103727
v -0.013103 -0.109700 -0.033971
v -0.114317 0.093944 -0.068288
v 0.037805 -0.093691 0.106831
v 0.038218 0.066450 0.131366
v -0.119301 0.075325 -0.068773
v 0.067356 0.083851 0.102097
v 0.075228 0.082707 0.071530
v -0.099492 0.088646 -0.073268
v -0.121883 0.099643 -0.054917
v 0.044421 -0.114352 0.079937
v -0.097723 -0.112464 -0.058241
v 0.042599 0.063061 0.132405
v 0.065780 0.074441 0.111499
v -0.132155 0.073580 -0.040205
v -0.120231 0.090262 -0.065403
v 0.094463 0.002356 -0.073311
v -0.007954 -0.105325 -0.039260
v 0.051606 0.079120 0.121008
v 0.042664 -0.112882 0.083940
v -0.109673 -0.099965 -0.049014
v 0.071337 0.083437 0.093720
v -0.096824 -0.084054 -0.073611
v 0.049040 -0.110711 0.086977
v 0.040384 0.054022 0.133415
v -0.102279 -0.094085 -0.068102
v -0.007936 0.101035 -0.027780
v 0.054892 -0.109910 0.079015
v -0.109701 -0.092354 -0.057164
v -0.126400 0.085736 -0.060456
v -0.129239 0.079477 -0.057863
v -0.110054 -0.095982 -0.053781
v -0.070167 -0.009209 0.106922
v 0.046439 -0.109688 0.090203
v -0.090076 -0.114795 -0.049286
v 0.048041 -0.107479 0.093055
v -0.072238 -0.010212 0.103229
v 0.055928 -0.112161 0.073146
v -0.116654 0.078267 -0.070865
v 0.042900 0.073945 0.128458
v -0.095738 -0.088575 -0.073265
v -0.126689 0.092681 -0.055258
v -0.106309 -0.105638 -0.036180
v -0.119941 0.096669 -0.031074
v 0.046523 -0.113120 0.083800
v -0.072645 -0.001370 0.105887
v 0.063622 -0.112077 0.045115
v 0.083600 0.069994 0.071407
v -0.128092 0.075802 -0.060293
v -0.096138 -0.113704 -0.051980
v 0.040541 -0.097296 0.104074
v -0.118492 0.095175 -0.064136
v 0.075233 0.079106 0.087027
v -0.123891 0.100000 -0.049452
v -0.123187 0.095926 -0.034365
v -0.119667 0.103598 -0.050409
v -0.123402 0.094686 -0.058825
v 0.076104 -0.010080 0.088477
v -0.128836 0.088968 -0.037596
v -0.101386 -0.112119 -0.050204
v 0.060996 0.074392 0.116761
v 0.069649 0.048760 0.106288
v -0.132148 0.075820 -0.051436
v -0.123414 0.089149 -0.062466
v 0.061850 0.071450 0.116487
v -0.116705 0.104424 -0.052828
v 0.056351 -0.114924 0.058373
v 0.047199 -0.104298 0.096896
v -0.076001 -0.088992 -0.073567
v -0.132426 0.070314 -0.045898
v 0.048092 -0.098319 0.099110
v 0.048620 0.084552 0.109898
v 0.065608 0.079915 0.108331
v 0.071552 -0.014240 0.094594
v 0.068593 0.086588 0.081333
v 0.066697 -0.012848 0.100457
v -0.091187 -0.108353 -0.066472
v 0.057604 -0.108997 0.075124
v -0.125437 0.099223 -0.046660
v -0.100488 -0.105717 -0.063039
v -0.086642 -0.113224 -0.058967
v -0.106813 -0.106466 -0.041022
v 0.122924 -0.026638 -0.066543
v 0.135544 0.011051 -0.057071
v 0.038508 0.063458 0.132759
v 0.039873 -0.092638 0.107352
v 0.134727 0.010230 -0.067424
v -0.120434 0.099811 -0.056467
v -0.128166 0.093579 -0.047498
v -0.094740 -0.112857 -0.037583
v 0.129173 0.010416 -0.072987
v 0.035477 -0.085281 0.111013
v -0.100075 -0.112540 -0.043623
v -0.115857 0.105430 -0.050121
v 0.069622 -0.105384 0.033867
v -0.131929 0.079531 -0.040864
v 0.033653 0.047482 -0.073164
v -0.130737 0.070694 -0.055368
v 0.053725 -0.115146 0.064486
v 0.128743 -0.016966 -0.049599
v -0.107616 0.101883 -0.060954
v -0.079658 -0.103354 -0.068631
v -0.100080 -0.112448 -0.052823
v 0.066852 -0.106585 0.050593
v -0.087303 -0.110269 -0.064175
v -0.118546 0.102753 -0.039288
v -0.101755 -0.084008 -0.071580
v 0.060087 0.073008 0.118151
v -0.100769 -0.107940 -0.032998
v -0.100117 0.097445 -0.066496
v -0.113096 0.099371 -0.063950
v -0.092812 -0.110961 -0.063949
v -0.124934 0.079323 -0.063483
v 0.083933 0.072749 0.068942
v 0.120053 -0.029898 -0.067240
v 0.062150 0.079842 0.112129
v -0.093562 -0.104723 -0.068397
v -0.102119 0.095002 -0.070184
v -0.075666 -0.005620 0.101194
v 0.046959 0.072320 0.128108
v -0.121621 0.102051 -0.045604
v 0.063986 0.083336 0.106960
v 0.038767 -0.083467 0.110666
v -0.101736 -0.110686 -0.055803
v 0.045784 0.080519 0.120031
v 0.063562 -0.108285 0.059595
v -0.069889 -0.000296 0.107846
v -0.104141 0.087232 -0.073603
v 0.068504 0.079428 0.103027
v -0.095411 -0.108370 -0.065313
v 0.049293 -0.103417 0.095879
v -0.111039 -0.095428 -0.043143
v -0.094463 -0.112521 -0.061141
v -0.118591 0.104300 -0.046584
v -0.131222 0.075302 -0.037322
v -0.106838 -0.103402 -0.055551
v -0.107158 -0.105816 -0.050175
vn 0.142100 -0.989500 0.025200
vn 0.019600 -0.999400 -0.027800
vn 0.173300 -0.984700 -0.020200
vn 0.056200 -0.995400 -0.077600
vn 0.613300 0.321700 0.721300
vn 0.279300 -0.950200 0.138100
vn 0.234700 -0.961000 0.146100
vn 0.048800 -0.995600 0.080500
vn 0.108500 -0.962700 0.248000
vn -0.046500 -0.944100 0.326400
vn -0.651600 -0.384900 -0.653700
vn 0.073600 -0.988200 -0.134200
vn -0.279500 0.112500 0.953500
vn 0.517100 -0.834300 0.191100
vn 0.554400 -0.752700 0.355100
vn 0.434000 -0.838900 0.328600
vn 0.393300 -0.855300 0.337300
vn 0.047400 -0.880100 0.472500
vn -0.040100 -0.901700 0.430500
vn -0.407000 -0.753300 0.516600
vn -0.433300 -0.749000 0.501300
vn -0.932200 0.234900 0.275500
vn -0.451100 0.748300 -0.486300
vn -0.154200 -0.975900 -0.154200
vn -0.111400 -0.982800 -0.147200
vn -0.448500 -0.747800 -0.489500
vn -0.413500 -0.342100 -0.843800
vn -0.456800 0.615900 -0.641900
vn 0.097800 -0.978100 -0.184000
vn 0.152100 -0.973500 -0.170600
vn 0.056200 0.528800 -0.846900
vn 0.234600 -0.937800 -0.255800
vn 0.452300 -0.891800 -0.010700
vn 0.753800 -0.630600 0.184800
vn -0.549500 -0.445800 -0.706600
vn 0.767800 -0.614400 0.181700
vn 0.757900 -0.597000 0.262900
vn -0.915300 0.042400 -0.400400
vn 0.607100 -0.700200 0.375800
vn 0.635900 -0.659400 0.401100
vn 0.643300 0.719000 0.263100
vn -0.160200 -0.786100 0.597000
vn -0.225800 -0.768500 0.598700
vn -0.331900 -0.755800 0.564400
vn -0.276900 -0.707400 0.650300
vn -0.269700 -0.638500 0.720900
vn -0.978400 -0.190200 -0.080600
vn -0.512400 -0.646800 0.564800
vn -0.465600 -0.711100 0.526900
vn -0.969800 0.222700 0.099600
vn -0.297800 -0.954200 -0.028600
vn -0.713300 -0.589600 -0.379000
vn -0.565200 -0.572500 -0.593900
vn 0.971800 -0.235700 0.000800
vn -0.327700 -0.676100 -0.660000
vn 0.028500 -0.704200 -0.709500
vn 0.070200 -0.767100 -0.637700
vn 0.249600 -0.802900 -0.541400
vn 0.284700 -0.856200 -0.431100
vn -0.988600 -0.128900 -0.077700
vn -0.185800 0.757600 -0.625700
vn 0.876900 -0.437500 0.199000
vn 0.767400 -0.482900 0.421700
vn 0.750900 -0.505000 0.425600
vn 0.649400 -0.563400 0.510700
vn 0.666400 -0.041200 0.744400
vn 0.140900 -0.747100 0.649600
vn 0.007100 -0.792600 0.609700
vn 0.069200 -0.681200 0.728800
vn -0.447800 -0.556800 0.699600
vn -0.470700 -0.587400 0.658300
vn -0.430300 0.901600 -0.044400
vn -0.565700 -0.636200 0.524600
vn -0.653700 -0.755400 0.045200
vn -0.743300 -0.634100 -0.213300
vn -0.952800 0.218400 -0.210700
vn -0.401600 -0.858100 0.320000
vn -0.738000 0.432600 0.517900
vn 0.073200 -0.992900 -0.093400
vn 0.391400 -0.820900 -0.415800
vn 0.668500 0.719300 0.188900
vn 0.493600 -0.815300 -0.302800
vn 0.902300 -0.339500 0.265600
vn 0.640200 -0.734500 -0.225100
vn 0.830700 -0.556800 -0.001400
vn 0.842200 -0.538800 0.018300
vn -0.562700 0.707100 0.428200
vn 0.902300 -0.272800 0.333700
vn 0.899200 -0.221800 0.377100
vn 0.217000 0.976000 -0.018800
vn 0.655900 -0.287800 0.697900
vn 0.786400 -0.187800 0.588500
vn 0.535000 -0.435700 0.723800
vn 0.176000 -0.618100 0.766200
vn 0.228100 -0.538200 0.811400
vn 0.081200 -0.565800 0.820600
vn 0.000900 -0.445100 0.895500
vn 0.549700 -0.224500 0.804600
vn -0.037300 -0.453300 0.890600
vn -0.226000 0.904700 0.361100
vn -0.681100 -0.155600 0.715500
vn -0.754300 -0.224500 0.616900
vn -0.469400 -0.771100 0.430200
vn -0.780600 -0.354600 0.514600
vn -0.772300 -0.635100 -0.016000
vn -0.394200 0.336000 0.855400
vn -0.858600 -0.446700 -0.251700
vn -0.607200 -0.393900 -0.690000
vn -0.519600 -0.366600 -0.771800
vn -0.772000 -0.365300 -0.520100
vn -0.083400 -0.280000 -0.956400
vn -0.043000 -0.252100 -0.966800
vn 0.184900 -0.486500 -0.853900
vn 0.250500 -0.667700 -0.701000
vn 0.257800 -0.686600 -0.679800
vn 0.129800 -0.321200 -0.938100
vn 0.633600 -0.418900 -0.650400
vn -0.865800 0.203300 -0.457200
vn 0.927800 0.036700 0.371400
vn 0.919500 -0.023900 0.392400
vn 0.588800 -0.364200 -0.721600
vn 0.832800 -0.278000 -0.478800
vn 0.940700 -0.304700 -0.149100
vn 0.966700 -0.249700 -0.056600
vn 0.888800 -0.042000 0.456300
vn 0.738500 -0.171000 0.652200
vn 0.661100 -0.185600 0.726900
vn 0.579300 -0.224300 0.783600
vn 0.191600 -0.162400 0.967900
vn 0.262100 -0.299900 0.917300
vn 0.468100 -0.149600 0.870900
vn 0.102200 -0.161500 0.981600
vn 0.503900 -0.145900 0.851400
vn 0.691600 -0.161600 0.704000
vn 0.637900 -0.133800 0.758400
vn -0.574600 0.153400 -0.804000
vn -0.629000 0.416800 0.656200
vn -0.768300 -0.021700 0.639800
vn -0.845500 0.011400 0.533900
vn -0.908900 0.077400 0.409700
vn -0.926900 0.006200 0.375400
vn -0.941800 -0.124600 0.312300
vn -0.957100 -0.125600 0.260900
vn -0.976900 -0.201000 -0.072000
vn -0.898800 -0.317500 -0.302100
vn -0.315700 0.201100 -0.927300
vn -0.446900 -0.682900 -0.577900
vn -0.780300 -0.342200 -0.523500
vn -0.293000 -0.251900 -0.922300
vn -0.392100 -0.184100 -0.901300
vn 0.002400 -0.082400 -0.996600
vn -0.167800 -0.229800 -0.958700
vn -0.068200 -0.092400 -0.993400
vn -0.008500 -0.044900 -0.999000
vn 0.125800 -0.311700 -0.941800
vn 0.643100 -0.560800 0.521500
vn 0.078200 -0.190000 -0.978700
vn 0.773000 0.634500 0.001100
vn 0.861100 0.496400 0.109600
vn 0.907600 0.213700 0.361500
vn 0.907100 0.185400 0.377800
vn 0.908500 0.159600 0.386100
vn 0.914000 0.084500 0.396900
vn -0.686900 -0.505300 0.522400
vn 0.628600 0.588600 -0.508300
vn 0.657200 0.745500 -0.111000
vn 0.882500 -0.044900 0.468100
vn 0.753300 -0.106100 0.649000
vn 0.771200 -0.021000 0.636300
vn 0.678200 -0.065100 0.732000
vn 0.660200 -0.118900 0.741600
vn 0.492300 -0.074500 0.867200
vn -0.149900 0.120500 0.981300
vn -0.316200 0.182300 0.931000
vn -0.913700 -0.344800 -0.215000
vn -0.717600 0.423800 0.552600
vn -0.466400 0.497600 0.731300
vn -0.920900 -0.374100 -0.109600
vn -0.960300 0.066500 0.271100
vn 0.506400 0.858000 -0.085800
vn -0.560100 -0.244100 -0.791600
vn -0.725500 -0.322800 -0.607800
vn -0.656400 -0.215400 -0.723000
vn -0.816200 -0.431000 -0.384900
vn -0.377200 -0.160400 -0.912100
vn -0.584300 -0.050100 -0.810000
vn 0.133700 -0.978900 -0.154400
vn 0.743800 -0.204700 -0.636300
vn 0.001900 -0.000800 -1.000000
vn 0.007600 -0.011300 -0.999900
vn 0.066900 -0.162300 -0.984500
vn -0.607100 -0.567100 -0.556600
vn 0.398100 -0.884600 -0.242800
vn 0.338000 0.311400 -0.888200
vn 0.035600 0.086900 -0.995600
vn 0.789400 0.596500 0.145000
vn 0.864400 0.441000 0.241700
vn 0.875700 0.397900 0.273600
vn 0.895500 0.306100 0.323200
vn 0.898400 0.231500 0.373200
vn 0.852900 0.281300 0.439800
vn 0.725800 0.188000 0.661700
vn 0.739200 0.130600 0.660700
vn 0.787300 -0.006500 0.616500
vn 0.869800 0.031100 0.492400
vn 0.181900 0.530300 -0.828100
vn 0.255300 0.729000 -0.635100
vn 0.378200 0.822000 -0.425700
vn 0.470600 0.852600 -0.227300
vn 0.604000 0.017800 0.796800
vn 0.714500 -0.601800 0.357000
vn 0.107400 0.246900 0.963100
vn -0.226900 0.393000 0.891100
vn -0.778100 -0.225400 0.586300
vn 0.623300 0.024100 0.781600
vn -0.516700 0.603400 0.607400
vn 0.596100 0.787300 -0.157200
vn -0.354300 0.502200 0.788800
vn -0.283300 0.535100 0.795900
vn -0.221400 0.654200 0.723200
vn -0.843500 0.473900 0.252700
vn -0.834800 0.402300 0.375700
vn -0.775400 0.557300 0.296900
vn 0.236000 0.967500 -0.090500
vn -0.988100 -0.081400 -0.130500
vn -0.945000 -0.118600 -0.305000
vn -0.805100 -0.194500 -0.560400
vn 0.846700 -0.203400 0.491700
vn -0.887000 -0.185500 -0.422800
vn -0.714300 0.006600 -0.699800
vn -0.678400 0.016000 -0.734500
vn -0.273200 0.480200 -0.833500
vn 0.285300 -0.719200 -0.633500
vn 0.001500 0.000100 -1.000000
vn -0.032000 0.011000 -0.999400
vn 0.036400 0.115400 -0.992700
vn -0.317700 -0.877600 0.359100
vn 0.367400 0.920700 -0.131800
vn 0.691600 0.714800 0.103600
vn 0.099000 0.140300 0.985100
vn 0.652000 0.560000 0.511200
vn -0.541400 -0.839000 0.054200
vn 0.623300 0.527200 0.577600
vn 0.110600 0.355400 -0.928100
vn 0.163500 0.512300 -0.843100
vn 0.193100 0.607800 -0.770200
vn 0.233100 0.724500 -0.648700
vn 0.227800 0.737200 -0.636100
vn 0.245700 0.815900 -0.523400
vn 0.332400 0.843600 -0.421700
vn 0.341800 0.258300 0.903600
vn 0.247300 0.430700 0.867900
vn 0.255200 0.453600 0.853900
vn 0.566300 0.248200 0.786000
vn 0.280600 0.846200 -0.452900
vn -0.029100 0.711300 0.702200
vn -0.139600 0.890900 0.432300
vn 0.079600 0.754000 -0.652000
vn -0.951000 0.285500 -0.119000
vn -0.999300 0.015800 -0.034500
vn -0.922100 0.041500 -0.384800
vn -0.966800 -0.079700 -0.242900
vn 0.137600 0.037300 0.989800
vn -0.833800 -0.092900 -0.544200
vn -0.890400 0.022800 -0.454700
vn -0.566100 -0.714800 -0.410600
vn -0.620200 0.520600 0.586800
vn -0.220800 -0.942900 0.249400
vn -0.051700 0.181500 -0.982000
vn -0.041000 0.196000 -0.979700
vn 0.430800 0.901000 0.052100
vn 0.603900 0.788600 0.115700
vn 0.410200 0.890700 0.195700
vn 0.463600 0.649000 0.603300
vn 0.520200 0.540000 0.661700
vn 0.564200 0.462000 0.684300
vn 0.568000 0.442800 0.693800
vn -0.515500 -0.361800 -0.776700
vn 0.219700 0.754100 -0.618900
vn 0.179300 0.834800 -0.520500
vn 0.176700 0.839000 -0.514700
vn 0.178600 0.947100 -0.266700
vn 0.233800 0.964800 -0.120300
vn 0.019400 0.999700 -0.016900
vn 0.397800 0.642400 0.655000
vn 0.152300 0.616400 0.772500
vn -0.614100 0.759500 0.214600
vn -0.181100 0.930100 0.319600
vn -0.102700 0.965800 0.238000
vn -0.208800 -0.968800 0.133600
vn -0.597600 0.218400 -0.771500
vn -0.619200 0.755700 0.213400
vn 0.049100 -0.885100 -0.462800
vn -0.598000 0.801300 0.014700
vn -0.660900 0.732800 -0.162000
vn 0.324200 0.788700 0.522400
vn 0.301500 0.808900 0.504800
vn 0.196600 0.871500 0.449200
vn -0.002200 0.929300 0.369300
vn -0.328100 0.469800 -0.819500
vn 0.372400 0.796200 0.476900
vn -0.900000 0.379100 -0.215200
vn -0.890100 0.277600 -0.361500
vn -0.872300 0.269200 -0.408300
vn -0.701700 0.213100 -0.679900
vn -0.949600 -0.010300 0.313400
vn 0.272700 0.959900 0.064900
vn 0.263800 0.959900 0.095100
vn -0.146600 0.725200 -0.672700
vn 0.072200 0.863000 -0.500000
vn 0.142500 0.832800 -0.535000
vn 0.139100 0.789100 -0.598400
vn -0.895400 -0.253800 -0.365700
vn -0.481400 0.657800 0.579300
vn 0.735500 -0.593800 0.326300
vn 0.091600 0.964400 -0.248000
vn -0.080400 0.978100 0.191900
vn -0.066300 0.978300 0.196500
vn 0.006400 0.929100 0.369800
vn -0.003800 0.943500 0.331400
vn 0.072700 0.949000 0.306900
vn 0.037300 0.993000 0.112200
vn -0.021800 0.988800 0.147800
vn -0.591900 0.805800 0.018600
vn -0.772400 0.548800 -0.319600
vn -0.749100 0.536200 -0.389000
vn -0.502200 -0.837300 -0.216000
vn -0.658000 0.696100 -0.287200
vn -0.885700 0.141300 0.442200
vn -0.588500 0.390900 -0.707700
vn -0.703600 -0.710500 0.012800
vn -0.296800 0.484800 -0.822700
vn 0.102900 0.992600 0.063800
vn 0.053000 0.993400 0.101500
vn -0.942000 0.108500 0.317600
vn -0.103800 0.910300 -0.400800
vn -0.086300 0.942300 -0.323400
vn -0.003300 0.977600 -0.210600
vn 0.074900 0.976900 -0.200000
vn -0.000800 0.998400 0.055700
vn 0.200400 -0.841000 -0.502600
vn -0.156700 0.879100 -0.450200
vn -0.506500 0.675100 -0.536400
vn -0.380900 -0.030900 -0.924100
vn 0.281500 -0.911300 -0.300500
vn -0.212700 -0.022500 0.976900
vn -0.082800 -0.272300 -0.958600
vn -0.669900 -0.060700 -0.740000
vn -0.427600 0.621100 -0.656800
vn 0.096400 0.587100 -0.803800
vn 0.667700 0.688400 0.283200
vn -0.964300 0.257100 0.063700
vn -0.040100 -0.984000 -0.173900
vn -0.988000 -0.129100 -0.084700
vn -0.113700 0.853900 -0.507900
vn -0.489200 0.207000 0.847200
vn -0.412200 0.888500 -0.201400
vn -0.017300 -0.000700 -0.999900
vn -0.963900 0.160700 -0.212500
vn -0.387200 -0.873100 0.296200
vn 0.865200 0.307800 0.395900
vn 0.107300 0.947800 -0.300100
vn -0.588600 0.687500 0.425300
vn 0.183600 0.983000 0.008600
vn -0.297100 0.856800 0.421400
vn -0.415900 -0.849200 0.325200
vn -0.686900 -0.410200 -0.599900
vn -0.402300 0.354100 0.844200
vn -0.781200 -0.595400 -0.187700
vn -0.901900 0.430000 0.041300
vn -0.766800 -0.363800 0.528800
vn -0.939700 0.321100 -0.117500
vn -0.221500 -0.974700 0.031400
vn -0.882000 -0.244900 -0.402600
vn -0.376400 -0.698100 -0.609100
vn -0.180800 -0.983500 0.008500
vn 0.540000 -0.586200 0.603900
vn -0.912500 -0.350200 -0.211600
vn -0.834300 -0.551200 -0.007700
vn -0.925900 0.361100 0.110900
vn -0.818000 -0.407600 -0.405900
vn -0.566700 0.313100 -0.762100
vn 0.526500 0.827100 -0.196900
vn 0.010600 -0.005300 -0.999900
vn 0.241800 -0.900100 -0.362400
vn 0.219100 0.974700 -0.045200
vn 0.832900 -0.200500 0.515900
vn 0.305400 -0.740400 -0.598800
vn 0.056800 0.105700 0.992800
vn -0.290100 -0.957000 -0.003400
vn -0.488700 -0.614400 0.619400
vn -0.918100 -0.114300 -0.379600
vn -0.109000 -0.655300 -0.747500
vn -0.633400 -0.616800 -0.467300
vn -0.681000 0.463500 0.566900
vn -0.145300 -0.976400 0.159600
vn 0.087700 -0.861600 -0.500000
vn -0.374100 0.410800 -0.831500
vn 0.236100 -0.855100 0.461600
vn -0.735800 -0.280200 -0.616500
vn -0.394400 0.769200 0.502800
vn -0.795200 -0.391900 0.462700
vn -0.131400 -0.157100 0.978800
vn -0.278300 -0.953200 -0.118300
vn -0.964400 -0.123800 -0.233500
vn -0.885800 0.141200 0.442100
vn -0.728000 -0.685500 0.008200
vn -0.326400 0.921700 0.209600
vn 0.114200 0.993300 0.015100
vn 0.163800 -0.912800 -0.374000
vn -0.341100 -0.025800 -0.939700
vn -0.925200 0.364000 0.107000
vn 0.504400 -0.858400 0.093500
vn 0.534200 -0.836900 0.119200
vn 0.636700 -0.725300 0.261900
vn -0.782200 0.154900 -0.603400
vn 0.602100 -0.798300 0.014700
vn 0.770900 -0.618600 0.151900
vn 0.663800 -0.697400 0.270100
vn -0.796700 -0.390100 0.461700
vn -0.923300 0.368200 0.109100
vn -0.570300 -0.606200 0.554300
vn -0.952200 0.214600 0.217300
vn 0.377100 -0.832000 -0.406900
vn 0.849400 -0.429800 0.306200
vn 0.851200 -0.426200 0.306300
vn 0.763600 0.316500 0.562800
vn 0.193800 -0.058200 -0.979300
vn 0.225600 -0.791100 -0.568600
vn 0.225400 -0.791400 -0.568300
vn -0.466700 -0.421000 -0.777700
vn -0.274800 -0.535800 -0.798400
vn -0.828400 0.450200 -0.333400
vn -0.505500 -0.132800 0.852500
vn -0.339700 -0.453000 -0.824300
vn 0.066600 -0.569000 -0.819600
vn -0.531800 0.748800 -0.395500
vn -0.691600 0.398000 -0.602700
vn -0.184300 0.980900 0.062700
vn -0.509800 -0.130600 0.850300
vn -0.999100 0.023700 0.033900
vn -0.473800 -0.448700 -0.757800
vn 0.681100 0.385000 0.622800
vn -0.807700 -0.522600 0.273000
vn 0.679200 0.383500 0.625800
vn 0.771100 0.515500 0.373700
vn -0.524300 0.746700 -0.409200
vn -0.243500 -0.301700 0.921800
vn -0.192400 -0.547000 -0.814700
vn -0.172600 -0.555000 -0.813800
vn 0.873900 -0.423100 0.239400
vn -0.769000 0.362200 -0.526800
vn 0.124100 -0.570100 -0.812100
vn -0.825800 -0.549900 0.125400
vn 0.356200 -0.125100 -0.926000
vn -0.438400 0.891500 0.114400
vn 0.824700 -0.079000 0.560000
vn 0.822900 -0.079600 0.562600
vn -0.400600 -0.117300 0.908700
vn 0.889400 -0.222400 0.399500
vn -0.629400 -0.769900 -0.105500
vn 0.349400 -0.860200 -0.371400
vn -0.979400 -0.124900 0.158600
vn -0.981700 -0.125100 0.143600
vn 0.006600 0.011900 -0.999900
vn 0.007000 0.013400 -0.999900
vn -0.778800 0.346000 -0.523300
vn -0.757000 0.578200 0.304400
vn -0.985000 -0.125100 0.118600
vn -0.491800 0.806100 0.329000
vn -0.326700 -0.396100 -0.858100
vn -0.774600 -0.083400 -0.626900
vn -0.726100 -0.071400 -0.683900
vn -0.778300 -0.084100 -0.622200
vn -0.657000 0.067800 -0.750800
vn 0.294800 0.952400 -0.077400
vn 0.349000 0.929800 -0.116800
vn -0.700200 0.167500 -0.694000
vn -0.941200 0.248700 0.228800
vn 0.603300 0.076700 0.793800
vn -0.788000 0.106200 -0.606500
vn 0.855000 -0.206600 0.475600
vn -0.377400 0.056100 -0.924300
vn -0.830300 -0.545300 0.115100
vn -0.030100 -0.999000 0.033200
vn -0.364200 0.062600 -0.929200
vn 0.896500 -0.394200 0.202200
vn 0.872500 -0.425700 0.239700
vn -0.052800 -0.996600 0.063600
vn 0.117700 0.931600 -0.344000
vn 0.597400 0.088500 0.797100
vn 0.413900 -0.817500 0.400400
vn -0.691100 -0.510800 0.511200
vn 0.936800 0.097300 0.336000
vn -0.663100 0.066600 -0.745500
vn -0.694700 0.187800 -0.694400
vn 0.942200 0.152800 0.298200
vn -0.693000 0.400000 -0.599800
vn 0.377700 -0.750300 0.542500
vn 0.117200 0.931500 -0.344300
vn -0.646900 -0.726600 -0.231300
vn -0.841700 0.494300 -0.217500
vn -0.997500 0.044100 0.056100
vn -0.209700 0.966700 0.146900
vn -0.616700 0.595100 -0.515300
vn 0.084100 0.243200 -0.966300
vn 0.895500 -0.401100 0.192800
vn -0.619500 0.592400 -0.515000
vn -0.228500 -0.283800 0.931300
vn -0.025900 0.310300 -0.950300
vn 0.055100 -0.575000 -0.816300
vn -0.752500 0.591500 0.289800
f 188//1 22//1 220//1
f 156//2 188//2 220//2
f 95//3 22//3 188//3
f 156//4 105//4 188//4
f 109//5 229//5 182//5
f 57//6 220//6 22//6
f 57//7 33//7 220//7
f 33//8 132//8 220//8
f 33//9 166//9 132//9
f 166//10 141//10 132//10
f 23//11 147//11 201//11
f 156//12 202//12 105//12
f 17//13 26//13 65//13
f 51//14 57//14 22//14
f 159//15 145//15 57//15
f 145//16 33//16 57//16
f 145//17 166//17 33//17
f 155//18 63//18 166//18
f 63//19 141//19 166//19
f 63//20 86//20 141//20
f 86//21 3//21 141//21
f 112//22 111//22 180//22
f 232//23 209//23 187//23
f 133//24 254//24 171//24
f 254//25 156//25 171//25
f 133//26 9//26 254//26
f 104//27 71//27 44//27
f 232//28 124//28 173//28
f 16//29 105//29 202//29
f 16//30 168//30 95//30
f 87//31 13//31 5//31
f 123//32 168//32 16//32
f 168//33 110//33 95//33
f 92//34 51//34 110//34
f 251//35 201//35 97//35
f 28//36 92//36 110//36
f 92//37 6//37 51//37
f 152//38 219//38 20//38
f 159//39 149//39 145//39
f 149//40 103//40 145//40
f 78//41 143//41 91//41
f 155//42 54//42 63//42
f 54//43 172//43 63//43
f 172//44 86//44 63//44
f 172//45 125//45 86//45
f 125//46 107//46 86//46
f 153//47 142//47 253//47
f 122//48 230//48 86//48
f 230//49 3//49 86//49
f 53//50 34//50 217//50
f 181//51 224//51 171//51
f 18//52 31//52 245//52
f 201//53 251//53 9//53
f 205//54 70//54 221//54
f 48//55 233//55 251//55
f 198//56 73//56 233//56
f 73//57 226//57 233//57
f 106//58 139//58 117//58
f 139//59 123//59 117//59
f 102//60 253//60 191//60
f 232//61 90//61 93//61
f 39//62 225//62 28//62
f 62//63 149//63 199//63
f 149//64 62//64 103//64
f 62//65 157//65 103//65
f 83//66 186//66 229//66
f 189//67 54//67 157//67
f 54//68 155//68 157//68
f 189//69 172//69 54//69
f 27//70 154//70 107//70
f 154//71 122//71 107//71
f 215//72 177//72 255//72
f 164//73 66//73 230//73
f 181//74 76//74 66//74
f 96//75 18//75 245//75
f 20//76 34//76 68//76
f 76//77 211//77 3//77
f 111//78 176//78 101//78
f 105//79 95//79 188//79
f 120//80 216//80 139//80
f 91//81 143//81 99//81
f 216//82 39//82 30//82
f 225//83 70//83 247//83
f 216//84 120//84 39//84
f 120//85 204//85 39//85
f 204//86 221//86 39//86
f 88//87 165//87 227//87
f 247//88 70//88 199//88
f 70//89 115//89 199//89
f 81//90 196//90 121//90
f 192//91 45//91 252//91
f 195//92 192//92 252//92
f 252//93 45//93 189//93
f 45//94 172//94 189//94
f 45//95 207//95 172//95
f 207//96 125//96 172//96
f 213//97 125//97 207//97
f 89//98 244//98 207//98
f 213//99 107//99 125//99
f 55//100 113//100 246//100
f 19//101 77//101 154//101
f 77//102 7//102 154//102
f 66//103 3//103 230//103
f 7//104 240//104 158//104
f 258//105 96//105 203//105
f 206//106 248//106 17//106
f 258//107 257//107 18//107
f 201//108 147//108 97//108
f 147//109 71//109 97//109
f 11//110 23//110 31//110
f 104//111 42//111 119//111
f 21//112 35//112 42//112
f 236//113 223//113 42//113
f 236//114 73//114 223//114
f 236//115 106//115 73//115
f 42//116 15//116 236//116
f 236//117 204//117 120//117
f 152//118 20//118 151//118
f 169//119 116//119 70//119
f 116//120 115//120 70//120
f 236//121 15//121 204//121
f 15//122 208//122 204//122
f 208//123 221//123 204//123
f 208//124 205//124 221//124
f 116//125 179//125 115//125
f 195//126 197//126 192//126
f 192//127 89//127 45//127
f 89//128 207//128 45//128
f 146//129 213//129 244//129
f 213//130 207//130 244//130
f 89//131 146//131 244//131
f 146//132 26//132 213//132
f 83//133 146//133 89//133
f 192//134 197//134 89//134
f 197//135 83//135 89//135
f 72//136 160//136 46//136
f 248//137 167//137 19//137
f 167//138 77//138 19//138
f 167//139 240//139 77//139
f 112//140 256//140 240//140
f 256//141 100//141 240//141
f 100//142 59//142 240//142
f 59//143 100//143 58//143
f 253//144 142//144 58//144
f 153//145 11//145 257//145
f 14//146 72//146 85//146
f 251//147 254//147 9//147
f 11//148 8//148 23//148
f 44//149 162//149 104//149
f 228//150 162//150 44//150
f 190//151 35//151 21//151
f 104//152 162//152 21//152
f 162//153 144//153 21//153
f 144//154 190//154 21//154
f 35//155 15//155 42//155
f 252//156 157//156 62//156
f 35//157 25//157 15//157
f 2//158 118//158 205//158
f 118//159 235//159 205//159
f 235//160 174//160 169//160
f 174//161 250//161 169//161
f 250//162 135//162 169//162
f 135//163 116//163 169//163
f 158//164 122//164 154//164
f 32//165 80//165 208//165
f 2//166 205//166 208//166
f 116//167 183//167 179//167
f 1//168 197//168 195//168
f 183//169 186//169 1//169
f 186//170 83//170 1//170
f 83//171 197//171 1//171
f 83//172 52//172 146//172
f 206//173 65//173 26//173
f 65//174 206//174 17//174
f 257//175 142//175 153//175
f 176//176 111//176 167//176
f 126//177 108//177 248//177
f 258//178 58//178 142//178
f 217//179 136//179 256//179
f 2//180 129//180 41//180
f 147//181 228//181 44//181
f 23//182 8//182 147//182
f 69//183 228//183 147//183
f 257//184 31//184 18//184
f 144//185 162//185 228//185
f 127//186 160//186 228//186
f 95//187 105//187 16//187
f 208//188 15//188 32//188
f 144//189 138//189 190//189
f 138//190 25//190 190//190
f 25//191 35//191 190//191
f 31//192 201//192 9//192
f 39//193 168//193 30//193
f 80//194 32//194 212//194
f 218//195 80//195 212//195
f 99//196 118//196 2//196
f 118//197 99//197 235//197
f 99//198 143//198 235//198
f 143//199 174//199 235//199
f 143//200 250//200 174//200
f 194//201 135//201 250//201
f 182//202 229//202 135//202
f 229//203 186//203 135//203
f 186//204 183//204 135//204
f 183//205 116//205 135//205
f 218//206 38//206 80//206
f 38//207 4//207 80//207
f 4//208 37//208 80//208
f 37//209 129//209 80//209
f 83//210 134//210 52//210
f 159//211 199//211 149//211
f 134//212 60//212 206//212
f 60//213 126//213 206//213
f 7//214 77//214 240//214
f 134//215 83//215 229//215
f 108//216 165//216 248//216
f 80//217 2//217 208//217
f 60//218 108//218 126//218
f 60//219 161//219 108//219
f 161//220 113//220 108//220
f 82//221 180//221 101//221
f 180//222 111//222 101//222
f 176//223 82//223 101//223
f 98//224 121//224 37//224
f 184//225 102//225 191//225
f 102//226 219//226 150//226
f 8//227 64//227 69//227
f 195//228 62//228 179//228
f 150//229 64//229 8//229
f 170//230 234//230 36//230
f 234//231 127//231 36//231
f 87//232 5//232 85//232
f 236//233 139//233 106//233
f 249//234 138//234 144//234
f 14//235 249//235 43//235
f 249//236 130//236 218//236
f 141//237 3//237 211//237
f 37//238 41//238 129//238
f 41//239 99//239 2//239
f 206//240 52//240 134//240
f 78//241 243//241 128//241
f 181//242 214//242 76//242
f 243//243 237//243 194//243
f 130//244 13//244 218//244
f 13//245 38//245 218//245
f 13//246 239//246 38//246
f 38//247 239//247 4//247
f 239//248 12//248 4//248
f 12//249 94//249 4//249
f 148//250 37//250 4//250
f 134//251 241//251 60//251
f 241//252 161//252 60//252
f 40//253 161//253 241//253
f 109//254 40//254 241//254
f 148//255 4//255 94//255
f 161//256 79//256 113//256
f 79//257 246//257 113//257
f 239//258 87//258 90//258
f 75//259 68//259 34//259
f 184//260 191//260 34//260
f 20//261 219//261 184//261
f 219//262 102//262 184//262
f 26//263 146//263 52//263
f 219//264 170//264 64//264
f 219//265 152//265 170//265
f 245//266 9//266 133//266
f 165//267 167//267 248//267
f 211//268 132//268 141//268
f 85//269 249//269 14//269
f 85//270 5//270 249//270
f 196//271 91//271 41//271
f 91//272 99//272 41//272
f 91//273 29//273 78//273
f 140//274 237//274 243//274
f 140//275 40//275 237//275
f 40//276 182//276 237//276
f 40//277 109//277 182//277
f 44//278 71//278 147//278
f 231//279 12//279 239//279
f 231//280 94//280 12//280
f 231//281 67//281 94//281
f 94//282 98//282 148//282
f 98//283 37//283 148//283
f 49//284 47//284 215//284
f 140//285 79//285 40//285
f 79//286 161//286 40//286
f 88//287 227//287 242//287
f 246//288 193//288 55//288
f 193//289 61//289 55//289
f 10//290 211//290 214//290
f 137//291 72//291 46//291
f 200//292 88//292 242//292
f 233//293 202//293 254//293
f 242//294 177//294 200//294
f 177//295 175//295 200//295
f 140//296 243//296 79//296
f 243//297 29//297 79//297
f 29//298 114//298 79//298
f 79//299 193//299 246//299
f 85//300 124//300 93//300
f 29//301 243//301 78//301
f 210//302 163//302 68//302
f 163//303 20//303 68//303
f 20//304 163//304 151//304
f 185//305 137//305 151//305
f 100//306 256//306 136//306
f 24//307 91//307 196//307
f 24//308 29//308 91//308
f 93//309 90//309 87//309
f 222//310 67//310 90//310
f 67//311 231//311 90//311
f 231//312 239//312 90//312
f 11//313 153//313 150//313
f 113//314 165//314 108//314
f 199//315 159//315 6//315
f 84//316 49//316 98//316
f 74//317 50//317 55//317
f 61//318 74//318 55//318
f 79//319 114//319 193//319
f 114//320 61//320 193//320
f 114//321 29//321 61//321
f 29//322 49//322 61//322
f 49//323 74//323 61//323
f 177//324 242//324 255//324
f 175//325 131//325 163//325
f 131//326 178//326 163//326
f 133//327 224//327 245//327
f 131//328 175//328 177//328
f 111//329 240//329 167//329
f 173//330 124//330 137//330
f 66//331 96//331 181//331
f 93//332 87//332 85//332
f 81//333 49//333 24//333
f 49//334 29//334 24//334
f 112//335 217//335 256//335
f 222//336 187//336 84//336
f 187//337 215//337 84//337
f 215//338 47//338 84//338
f 47//339 49//339 84//339
f 215//340 74//340 49//340
f 117//341 202//341 226//341
f 222//342 232//342 187//342
f 209//343 232//343 173//343
f 160//344 144//344 228//344
f 30//345 168//345 123//345
f 17//346 56//346 26//346
f 21//347 42//347 104//347
f 36//348 127//348 228//348
f 232//349 93//349 124//349
f 87//350 239//350 13//350
f 78//351 128//351 143//351
f 53//352 75//352 34//352
f 202//353 156//353 254//353
f 102//354 153//354 253//354
f 232//355 222//355 90//355
f 17//356 248//356 19//356
f 215//357 187//357 177//357
f 43//358 249//358 144//358
f 20//359 184//359 34//359
f 76//360 214//360 211//360
f 128//361 250//361 143//361
f 84//362 98//362 94//362
f 88//363 176//363 165//363
f 81//364 24//364 196//364
f 55//365 227//365 113//365
f 66//366 76//366 3//366
f 31//367 23//367 201//367
f 206//368 126//368 248//368
f 258//369 18//369 96//369
f 210//370 82//370 200//370
f 158//371 154//371 7//371
f 210//372 68//372 75//372
f 214//373 171//373 10//373
f 8//374 11//374 150//374
f 251//375 233//375 254//375
f 171//376 156//376 10//376
f 252//377 189//377 157//377
f 257//378 258//378 142//378
f 258//379 203//379 58//379
f 75//380 53//380 180//380
f 257//381 11//381 31//381
f 124//382 72//382 137//382
f 80//383 129//383 2//383
f 138//384 212//384 25//384
f 123//385 16//385 117//385
f 98//386 81//386 121//386
f 195//387 252//387 62//387
f 236//388 120//388 139//388
f 206//389 26//389 52//389
f 181//390 171//390 214//390
f 122//391 86//391 107//391
f 64//392 150//392 219//392
f 198//393 233//393 48//393
f 245//394 31//394 9//394
f 165//395 176//395 167//395
f 211//396 10//396 132//396
f 233//397 226//397 202//397
f 85//398 72//398 124//398
f 145//399 155//399 166//399
f 69//400 147//400 8//400
f 113//401 227//401 165//401
f 164//402 240//402 59//402
f 56//403 213//403 26//403
f 133//404 171//404 224//404
f 102//405 150//405 153//405
f 111//406 112//406 240//406
f 66//407 203//407 96//407
f 50//408 227//408 55//408
f 49//409 81//409 98//409
f 117//410 16//410 202//410
f 160//411 43//411 144//411
f 210//412 180//412 82//412
f 95//413 110//413 22//413
f 110//414 51//414 22//414
f 51//415 159//415 57//415
f 234//416 170//416 152//416
f 168//417 39//417 110//417
f 39//418 28//418 110//418
f 6//419 159//419 51//419
f 164//420 158//420 240//420
f 210//421 75//421 180//421
f 230//422 158//422 164//422
f 53//423 112//423 180//423
f 216//424 30//424 123//424
f 247//425 199//425 92//425
f 199//426 6//426 92//426
f 243//427 250//427 128//427
f 25//428 32//428 15//428
f 117//429 226//429 73//429
f 117//430 73//430 106//430
f 238//431 251//431 97//431
f 238//432 48//432 251//432
f 175//433 210//433 200//433
f 17//434 19//434 154//434
f 119//435 71//435 104//435
f 119//436 42//436 73//436
f 131//437 177//437 187//437
f 185//438 178//438 173//438
f 74//439 255//439 50//439
f 17//440 154//440 27//440
f 34//441 191//441 136//441
f 238//442 97//442 71//442
f 237//443 182//443 135//443
f 164//444 59//444 66//444
f 237//445 135//445 194//445
f 243//446 194//446 250//446
f 131//447 187//447 209//447
f 56//448 27//448 107//448
f 119//449 48//449 238//449
f 119//450 198//450 48//450
f 247//451 28//451 225//451
f 185//452 151//452 163//452
f 42//453 223//453 73//453
f 203//454 59//454 58//454
f 25//455 212//455 32//455
f 242//456 227//456 50//456
f 183//457 195//457 179//457
f 183//458 1//458 195//458
f 17//459 27//459 56//459
f 115//460 62//460 199//460
f 96//461 245//461 224//461
f 216//462 123//462 139//462
f 100//463 136//463 58//463
f 136//464 253//464 58//464
f 138//465 249//465 212//465
f 249//466 218//466 212//466
f 185//467 163//467 178//467
f 82//468 88//468 200//468
f 136//469 191//469 253//469
f 242//470 50//470 255//470
f 119//471 238//471 71//471
f 69//472 170//472 228//472
f 170//473 36//473 228//473
f 64//474 170//474 69//474
f 46//475 127//475 234//475
f 121//476 196//476 37//476
f 196//477 41//477 37//477
f 46//478 234//478 151//478
f 53//479 217//479 112//479
f 109//480 134//480 229//480
f 234//481 152//481 151//481
f 115//482 179//482 62//482
f 43//483 72//483 14//483
f 203//484 66//484 59//484
f 10//485 220//485 132//485
f 43//486 160//486 72//486
f 70//487 39//487 221//487
f 247//488 92//488 28//488
f 10//489 156//489 220//489
f 67//490 84//490 94//490
f 109//491 241//491 134//491
f 155//492 103//492 157//492
f 230//493 122//493 158//493
f 235//494 70//494 205//494
f 46//495 160//495 127//495
f 46//496 151//496 137//496
f 235//497 169//497 70//497
f 185//498 173//498 137//498
f 155//499 145//499 103//499
f 222//500 84//500 67//500
f 96//501 224//501 181//501
f 175//502 163//502 210//502
f 34//503 136//503 217//503
f 74//504 215//504 255//504
f 131//505 173//505 178//505
f 13//506 249//506 5//506
f 70//507 225//507 39//507
f 131//508 209//508 173//508
f 56//509 107//509 213//509
f 13//510 130//510 249//510
f 119//511 73//511 198//511
f 82//512 176//512 88//512
