# Blender v3.6.23 OBJ File: 'classroom.blend'
# www.blender.org
o surface_collision_Plane.004
v 0.423658 -2.587903 0.787168
v 0.429741 -2.587477 0.787156
v 0.016639 -2.286698 0.801599
v -0.021920 -2.345414 0.799351
v -0.014496 -2.308271 0.800855
v -0.028972 -2.340783 0.799577
v 0.009587 -2.282068 0.801825
v -0.021547 -2.303640 0.801080
v 0.356220 -2.266843 0.800795
v 0.292696 -2.225825 0.802799
v 0.333039 -2.233045 0.802307
v 0.297353 -2.218612 0.803076
v 0.360878 -2.259631 0.801072
v 0.337696 -2.225833 0.802583
v 0.018048 -2.551434 0.790622
v 0.074302 -2.594781 0.788557
v 0.038259 -2.583381 0.789202
v 0.069387 -2.601160 0.788316
v 0.013132 -2.557814 0.790382
v 0.033343 -2.589760 0.788961
v 0.376164 -2.782748 0.779321
v 0.411914 -2.805844 0.778193
v 0.389451 -2.801398 0.778485
v 0.407372 -2.812874 0.777924
v 0.371622 -2.789778 0.779052
v 0.384908 -2.808429 0.778215
v 0.431659 -2.802026 0.778257
v 0.459752 -2.759738 0.779875
v 0.454605 -2.786794 0.778778
v 0.466925 -2.764504 0.779643
v 0.438833 -2.806791 0.778025
v 0.461779 -2.791560 0.778546
v 0.307634 -2.573484 0.788321
v 0.341669 -2.599663 0.787073
v 0.329453 -2.580070 0.787944
v 0.336972 -2.606023 0.786832
v 0.302935 -2.579849 0.788080
v 0.324755 -2.586434 0.787703
v 0.373863 -2.350837 0.797230
v 0.379460 -2.348096 0.797317
v -0.007876 -2.417808 0.796284
v -0.013746 -2.419266 0.796252
v 0.006059 -2.415461 0.796314
v 0.039106 -2.406735 0.796518
v 0.324146 -2.352221 0.797411
v 0.274745 -2.576486 0.788354
v 0.270015 -2.582853 0.788113
v 0.284907 -2.356641 0.797416
v 0.011429 -2.517316 0.792068
v 0.005586 -2.518914 0.792030
v 0.421787 -2.803935 0.778225
v 0.423102 -2.809833 0.777974
v 0.422028 -2.794096 0.778632
v 0.417958 -2.771243 0.779598
v 0.382664 -2.593783 0.787121
v 0.354157 -2.477351 0.792082
v 0.025613 -2.517435 0.791995
v 0.059886 -2.517760 0.791817
v 0.314630 -2.479732 0.792173
v 0.278723 -2.485093 0.792123
v 0.059831 -2.277174 0.801787
v 0.105663 -2.591918 0.788525
v 0.054611 -2.272139 0.802021
v 0.077564 -2.398898 0.796658
v 0.100777 -2.598296 0.788284
v 0.094125 -2.512649 0.791865
v 0.455508 -2.739531 0.780732
v 0.462553 -2.743686 0.780526
v 0.372108 -2.761218 0.780233
v 0.367548 -2.768169 0.779967
v 0.413808 -2.750375 0.780483
v 0.429307 -2.614793 0.786027
v 0.435560 -2.615179 0.785981
v 0.347067 -2.628313 0.785860
v 0.342395 -2.634778 0.785615
v 0.388187 -2.621553 0.785944
v 0.175982 -2.245376 0.802548
v 0.176263 -2.251499 0.802293
v 0.190204 -2.584202 0.788440
v 0.181236 -2.377769 0.797037
v 0.185396 -2.590574 0.788199
v 0.186424 -2.498871 0.791994
v 0.423643 -2.587771 0.783970
v 0.429726 -2.587344 0.783959
v 0.016623 -2.286566 0.798402
v -0.021935 -2.345282 0.796153
v -0.014511 -2.308138 0.797657
v -0.028987 -2.340651 0.796379
v 0.009572 -2.281935 0.798627
v -0.021563 -2.303508 0.797883
v 0.356205 -2.266711 0.797597
v 0.292681 -2.225692 0.799602
v 0.333024 -2.232913 0.799109
v 0.297338 -2.218479 0.799878
v 0.360862 -2.259498 0.797874
v 0.337681 -2.225700 0.799386
v 0.018032 -2.551302 0.787425
v 0.074287 -2.594649 0.785359
v 0.038244 -2.583249 0.786004
v 0.069371 -2.601028 0.785118
v 0.013117 -2.557681 0.787184
v 0.033328 -2.589628 0.785763
v 0.376149 -2.782615 0.776124
v 0.411898 -2.805711 0.774996
v 0.389435 -2.801265 0.775287
v 0.407356 -2.812742 0.774726
v 0.371607 -2.789646 0.775854
v 0.384893 -2.808296 0.775018
v 0.431644 -2.801893 0.775059
v 0.459737 -2.759606 0.776677
v 0.454590 -2.786662 0.775580
v 0.466910 -2.764372 0.776445
v 0.438817 -2.806659 0.774827
v 0.461763 -2.791428 0.775349
v 0.307619 -2.573352 0.785124
v 0.341653 -2.599530 0.783876
v 0.329438 -2.579938 0.784746
v 0.336957 -2.605891 0.783635
v 0.302919 -2.579716 0.784882
v 0.324739 -2.586301 0.784505
v 0.373848 -2.350705 0.794032
v 0.379444 -2.347963 0.794119
v -0.007891 -2.417676 0.793086
v -0.013761 -2.419134 0.793054
v 0.006043 -2.415329 0.793117
v 0.039091 -2.406603 0.793320
v 0.324130 -2.352088 0.794213
v 0.274730 -2.576354 0.785157
v 0.270000 -2.582720 0.784916
v 0.284892 -2.356509 0.794218
v 0.011413 -2.517184 0.788870
v 0.005570 -2.518782 0.788832
v 0.421771 -2.803802 0.775027
v 0.423087 -2.809700 0.774777
v 0.422013 -2.793964 0.775434
v 0.417943 -2.771111 0.776400
v 0.382648 -2.593650 0.783923
v 0.354142 -2.477218 0.788884
v 0.025598 -2.517303 0.788797
v 0.059871 -2.517628 0.788620
v 0.314615 -2.479600 0.788975
v 0.278708 -2.484960 0.788925
v 0.059815 -2.277041 0.798589
v 0.105648 -2.591786 0.785327
v 0.054596 -2.272007 0.798823
v 0.077549 -2.398765 0.793460
v 0.100762 -2.598163 0.785087
v 0.094110 -2.512517 0.788668
v 0.455492 -2.739399 0.777535
v 0.462537 -2.743554 0.777329
v 0.372093 -2.761085 0.777035
v 0.367532 -2.768037 0.776769
v 0.413792 -2.750242 0.777285
v 0.429291 -2.614661 0.782829
v 0.435545 -2.615047 0.782783
v 0.347052 -2.628181 0.782663
v 0.342379 -2.634646 0.782417
v 0.388171 -2.621421 0.782746
v 0.175967 -2.245243 0.799351
v 0.176248 -2.251367 0.799095
v 0.190189 -2.584070 0.785242
v 0.181220 -2.377637 0.793839
v 0.185381 -2.590442 0.785001
v 0.186409 -2.498738 0.788796
v 0.429739 -2.587457 0.786672
v -0.028974 -2.340763 0.799092
v 0.009585 -2.282048 0.801340
v -0.021550 -2.303620 0.800595
v 0.297351 -2.218592 0.802591
v 0.360875 -2.259610 0.800587
v 0.337694 -2.225813 0.802098
v 0.069384 -2.601140 0.787831
v 0.013130 -2.557794 0.789897
v 0.033341 -2.589740 0.788476
v 0.407369 -2.812854 0.777439
v 0.371620 -2.789758 0.778567
v 0.384906 -2.808408 0.777731
v 0.466923 -2.764484 0.779158
v 0.438830 -2.806771 0.777540
v 0.461776 -2.791540 0.778061
v 0.336970 -2.606003 0.786348
v 0.302932 -2.579829 0.787595
v 0.324752 -2.586413 0.787218
v 0.379457 -2.348076 0.796832
v -0.013748 -2.419246 0.795767
v 0.270013 -2.582833 0.787628
v 0.005583 -2.518894 0.791545
v 0.423100 -2.809813 0.777489
v 0.054609 -2.272119 0.801536
v 0.100775 -2.598276 0.787799
v 0.462550 -2.743666 0.780041
v 0.367545 -2.768149 0.779482
v 0.435558 -2.615159 0.785496
v 0.342392 -2.634758 0.785130
v 0.175980 -2.245355 0.802063
v 0.185394 -2.590554 0.787714
v 0.429729 -2.587368 0.784538
v -0.028984 -2.340675 0.796958
v 0.009575 -2.281959 0.799206
v -0.021560 -2.303532 0.798461
v 0.297341 -2.218503 0.800457
v 0.360865 -2.259522 0.798453
v 0.337684 -2.225724 0.799965
v 0.069374 -2.601052 0.785697
v 0.013120 -2.557705 0.787763
v 0.033331 -2.589652 0.786342
v 0.407359 -2.812766 0.775305
v 0.371610 -2.789670 0.776433
v 0.384896 -2.808320 0.775597
v 0.466913 -2.764395 0.777024
v 0.438820 -2.806683 0.775406
v 0.461766 -2.791451 0.775927
v 0.336960 -2.605914 0.784214
v 0.302922 -2.579740 0.785461
v 0.324742 -2.586325 0.785084
v 0.379447 -2.347987 0.794698
v -0.013759 -2.419158 0.793633
v 0.270003 -2.582744 0.785495
v 0.005573 -2.518806 0.789411
v 0.423090 -2.809724 0.775356
v 0.054598 -2.272031 0.799402
v 0.100764 -2.598187 0.785666
v 0.462540 -2.743578 0.777908
v 0.367535 -2.768061 0.777348
v 0.435548 -2.615071 0.783362
v 0.342382 -2.634670 0.782996
v 0.175970 -2.245267 0.799929
v 0.185384 -2.590466 0.785580
v 0.429734 -2.587413 0.785605
v -0.028979 -2.340719 0.798025
v 0.009580 -2.282003 0.800273
v -0.021555 -2.303576 0.799528
v 0.297346 -2.218548 0.801524
v 0.360870 -2.259566 0.799520
v 0.337689 -2.225769 0.801031
v 0.069379 -2.601096 0.786764
v 0.013125 -2.557749 0.788830
v 0.033336 -2.589696 0.787409
v 0.407364 -2.812810 0.776372
v 0.371615 -2.789714 0.777500
v 0.384901 -2.808364 0.776664
v 0.466918 -2.764440 0.778091
v 0.438825 -2.806727 0.776473
v 0.461771 -2.791496 0.776994
v 0.336965 -2.605958 0.785281
v 0.302927 -2.579784 0.786528
v 0.324747 -2.586369 0.786151
v 0.379452 -2.348031 0.795765
v -0.013753 -2.419202 0.794700
v 0.270008 -2.582788 0.786562
v 0.005578 -2.518850 0.790478
v 0.423095 -2.809769 0.776423
v 0.054604 -2.272075 0.800469
v 0.100769 -2.598232 0.786732
v 0.462545 -2.743622 0.778974
v 0.367540 -2.768105 0.778415
v 0.435553 -2.615115 0.784429
v 0.342387 -2.634714 0.784063
v 0.175975 -2.245311 0.800996
v 0.185389 -2.590510 0.786647
v 0.428279 -2.587579 0.787159
v -0.027276 -2.341897 0.799522
v -0.019852 -2.304754 0.801026
v 0.011283 -2.283181 0.801771
v 0.296234 -2.220346 0.803009
v 0.336576 -2.227567 0.802517
v 0.359758 -2.261365 0.801005
v 0.014314 -2.556280 0.790439
v 0.034525 -2.588227 0.789019
v 0.070568 -2.599627 0.788374
v 0.372714 -2.788088 0.779117
v 0.386001 -2.806738 0.778280
v 0.408464 -2.811184 0.777988
v 0.465201 -2.763358 0.779698
v 0.460054 -2.790414 0.778602
v 0.437108 -2.805646 0.778081
v 0.338102 -2.604494 0.786890
v 0.325884 -2.584904 0.787761
v 0.304065 -2.578319 0.788138
v -0.012335 -2.418916 0.796259
v 0.378114 -2.348755 0.797296
v 0.271152 -2.581322 0.788171
v 0.422786 -2.808415 0.778035
v 0.006990 -2.518530 0.792039
v 0.101952 -2.596763 0.788342
v 0.055866 -2.273350 0.801964
v 0.460859 -2.742687 0.780576
v 0.368644 -2.766498 0.780031
v 0.343518 -2.633224 0.785674
v 0.434057 -2.615087 0.785992
v 0.186552 -2.589042 0.788257
v 0.176050 -2.246848 0.802487
v 0.427963 -2.587468 0.783962
v -0.026943 -2.341993 0.796314
v -0.019519 -2.304850 0.797817
v 0.011616 -2.283278 0.798562
v 0.295988 -2.220570 0.799798
v 0.336331 -2.227791 0.799305
v 0.359512 -2.261589 0.797794
v 0.014542 -2.555832 0.787254
v 0.034753 -2.587779 0.785833
v 0.070796 -2.599179 0.785188
v 0.372924 -2.787608 0.775932
v 0.386210 -2.806258 0.775096
v 0.408673 -2.810704 0.774804
v 0.464831 -2.762990 0.776512
v 0.459684 -2.790046 0.775416
v 0.436738 -2.805278 0.774895
v 0.338318 -2.604047 0.783705
v 0.326101 -2.584456 0.784575
v 0.304282 -2.577871 0.784952
v -0.012060 -2.418711 0.793063
v 0.377822 -2.348758 0.794094
v 0.271371 -2.580875 0.784986
v 0.422705 -2.807991 0.774849
v 0.007264 -2.518318 0.788843
v 0.102178 -2.596315 0.785156
v 0.056109 -2.273466 0.798755
v 0.460495 -2.742349 0.777388
v 0.368854 -2.766022 0.776846
v 0.343734 -2.632771 0.782488
v 0.433732 -2.614935 0.782796
v 0.186775 -2.588595 0.785071
v 0.176048 -2.247018 0.799277
v 0.423658 -2.587903 0.782927
v 0.429741 -2.587477 0.782915
v 0.016639 -2.286698 0.797358
v -0.021920 -2.345414 0.795110
v -0.014496 -2.308271 0.796613
v -0.028972 -2.340783 0.795336
v 0.009587 -2.282068 0.797584
v -0.021547 -2.303640 0.796839
v 0.356220 -2.266843 0.796554
v 0.292696 -2.225825 0.798558
v 0.333039 -2.233045 0.798066
v 0.297353 -2.218612 0.798835
v 0.360878 -2.259631 0.796831
v 0.337696 -2.225833 0.798342
v 0.018048 -2.551434 0.786381
v 0.074302 -2.594781 0.784316
v 0.038259 -2.583381 0.784961
v 0.069387 -2.601160 0.784075
v 0.013132 -2.557814 0.786141
v 0.033343 -2.589760 0.784720
v 0.376164 -2.782748 0.775080
v 0.411914 -2.805844 0.773952
v 0.389451 -2.801398 0.774244
v 0.407372 -2.812875 0.773682
v 0.371622 -2.789778 0.774811
v 0.384908 -2.808429 0.773974
v 0.431659 -2.802026 0.774016
v 0.459752 -2.759739 0.775633
v 0.454605 -2.786795 0.774537
v 0.466926 -2.764504 0.775402
v 0.438833 -2.806792 0.773784
v 0.461779 -2.791560 0.774305
v 0.307634 -2.573484 0.784080
v 0.341669 -2.599663 0.782832
v 0.329453 -2.580070 0.783703
v 0.336972 -2.606023 0.782591
v 0.302935 -2.579849 0.783839
v 0.324755 -2.586434 0.783462
v 0.373863 -2.350837 0.792989
v 0.379460 -2.348096 0.793076
v -0.007876 -2.417808 0.792043
v -0.013746 -2.419266 0.792010
v 0.006059 -2.415461 0.792073
v 0.039106 -2.406735 0.792276
v 0.324146 -2.352221 0.793170
v 0.274745 -2.576486 0.784113
v 0.270015 -2.582853 0.783872
v 0.284907 -2.356641 0.793175
v 0.011429 -2.517316 0.787827
v 0.005586 -2.518914 0.787789
v 0.421787 -2.803935 0.773984
v 0.423102 -2.809833 0.773733
v 0.422028 -2.794096 0.774390
v 0.417958 -2.771243 0.775357
v 0.382664 -2.593783 0.782880
v 0.354157 -2.477351 0.787841
v 0.025613 -2.517435 0.787754
v 0.059886 -2.517760 0.787576
v 0.314630 -2.479733 0.787932
v 0.278723 -2.485093 0.787881
v 0.423579 -2.587218 0.766388
v 0.429662 -2.586792 0.766377
v 0.016559 -2.286013 0.780819
v -0.021999 -2.344729 0.778571
v -0.014575 -2.307585 0.780075
v -0.029051 -2.340098 0.778797
v 0.009508 -2.281382 0.781045
v -0.021627 -2.302955 0.780300
v 0.356141 -2.266158 0.780015
v 0.292617 -2.225139 0.782019
v 0.332960 -2.232360 0.781527
v 0.297274 -2.217927 0.782296
v 0.360798 -2.258945 0.780292
v 0.337617 -2.225147 0.781803
v 0.017968 -2.550749 0.769843
v 0.074223 -2.594096 0.767777
v 0.038180 -2.582696 0.768422
v 0.069307 -2.600475 0.767536
v 0.013053 -2.557128 0.769602
v 0.033264 -2.589075 0.768181
v 0.376085 -2.782062 0.758542
v 0.411834 -2.805158 0.757413
v 0.389371 -2.800712 0.757705
v 0.407292 -2.812189 0.757144
v 0.371543 -2.789093 0.758272
v 0.384829 -2.807743 0.757436
v 0.431580 -2.801341 0.757477
v 0.459673 -2.759053 0.759095
v 0.454526 -2.786109 0.757998
v 0.466846 -2.763819 0.758863
v 0.438753 -2.806106 0.757245
v 0.461699 -2.790875 0.757766
v 0.307555 -2.572799 0.767541
v 0.341590 -2.598977 0.766294
v 0.329374 -2.579385 0.767164
v 0.336893 -2.605338 0.766052
v 0.302855 -2.579164 0.767300
v 0.324675 -2.585748 0.766923
v 0.373784 -2.350152 0.776450
v 0.379380 -2.347410 0.776537
v -0.007955 -2.417123 0.775504
v -0.013825 -2.418581 0.775472
v 0.005979 -2.414776 0.775534
v 0.039027 -2.406050 0.775738
v 0.324066 -2.351535 0.776631
v 0.274666 -2.575801 0.767575
v 0.269936 -2.582167 0.767333
v 0.284828 -2.355956 0.776636
v 0.011350 -2.516631 0.771288
v 0.005506 -2.518229 0.771250
v 0.421707 -2.803250 0.757445
v 0.423023 -2.809148 0.757194
v 0.421949 -2.793411 0.757852
v 0.417879 -2.770558 0.758818
v 0.382584 -2.593097 0.766341
v 0.354078 -2.476665 0.771302
v 0.025534 -2.516750 0.771215
v 0.059807 -2.517075 0.771037
v 0.314551 -2.479047 0.771393
v 0.278644 -2.484407 0.771343
v 0.423063 -2.809490 0.765464
v 0.407332 -2.812532 0.765413
v 0.033304 -2.589418 0.776450
v 0.013093 -2.557471 0.777871
v 0.005546 -2.518571 0.779519
v -0.013786 -2.418924 0.783741
v 0.384869 -2.808086 0.765705
v 0.371583 -2.789436 0.766541
v -0.021587 -2.303298 0.788570
v 0.009548 -2.281725 0.789314
v 0.360838 -2.259288 0.788561
v 0.379420 -2.347753 0.784806
v 0.297314 -2.218269 0.790565
v 0.269976 -2.582510 0.775603
v 0.069347 -2.600818 0.775805
v 0.302895 -2.579506 0.775570
v -0.029011 -2.340441 0.787066
v 0.337656 -2.225490 0.790073
v 0.438793 -2.806449 0.765514
v 0.429702 -2.587134 0.774646
v 0.336933 -2.605680 0.774322
v 0.461739 -2.791217 0.766036
v 0.324715 -2.586091 0.775192
v 0.466886 -2.764161 0.767132
v 0.059831 -2.277174 0.797546
v 0.105663 -2.591919 0.784284
v 0.054611 -2.272139 0.797780
v 0.077564 -2.398898 0.792417
v 0.100777 -2.598296 0.784043
v 0.094125 -2.512649 0.787624
v 0.059751 -2.276489 0.781007
v 0.105584 -2.591233 0.767745
v 0.054532 -2.271454 0.781241
v 0.077485 -2.398212 0.775878
v 0.100698 -2.597610 0.767504
v 0.094046 -2.511964 0.771085
v 0.054571 -2.271797 0.789510
v 0.100737 -2.597953 0.775774
v 0.455508 -2.739532 0.776491
v 0.462553 -2.743686 0.776285
v 0.372108 -2.761218 0.775992
v 0.367548 -2.768169 0.775726
v 0.413808 -2.750375 0.776241
v 0.455428 -2.738846 0.759952
v 0.462474 -2.743001 0.759746
v 0.372029 -2.760532 0.759453
v 0.367468 -2.767484 0.759187
v 0.413729 -2.749689 0.759703
v 0.367508 -2.767827 0.767456
v 0.462513 -2.743344 0.768016
v 0.429307 -2.614793 0.781785
v 0.435560 -2.615180 0.781740
v 0.347067 -2.628313 0.781619
v 0.429227 -2.614108 0.765247
v 0.435481 -2.614494 0.765201
v 0.346988 -2.627628 0.765080
v 0.435520 -2.614837 0.773470
v 0.342395 -2.634778 0.781374
v 0.388187 -2.621553 0.781702
v 0.342315 -2.634093 0.764835
v 0.388107 -2.620868 0.765164
v 0.342355 -2.634436 0.773104
v 0.175982 -2.245376 0.798307
v 0.175903 -2.244690 0.781768
v 0.185356 -2.590232 0.775688
v 0.176263 -2.251499 0.798052
v 0.190204 -2.584203 0.784199
v 0.181236 -2.377769 0.792796
v 0.185396 -2.590574 0.783958
v 0.186424 -2.498871 0.787753
v 0.176184 -2.250814 0.781513
v 0.190125 -2.583517 0.767660
v 0.181156 -2.377084 0.776257
v 0.185317 -2.589889 0.767419
v 0.186345 -2.498185 0.771214
v 0.175943 -2.245033 0.790038
v 0.428333 -2.587576 0.782918
v -0.027339 -2.341856 0.795283
v -0.019915 -2.304712 0.796787
v 0.011220 -2.283140 0.797532
v 0.296275 -2.220282 0.798771
v 0.336618 -2.227503 0.798278
v 0.359799 -2.261301 0.796767
v 0.014270 -2.556337 0.786196
v 0.034481 -2.588283 0.784776
v 0.070525 -2.599683 0.784131
v 0.372674 -2.788151 0.774873
v 0.385960 -2.806801 0.774037
v 0.408423 -2.811247 0.773745
v 0.465265 -2.763401 0.775455
v 0.460118 -2.790457 0.774359
v 0.437172 -2.805688 0.773838
v 0.338060 -2.604550 0.782647
v 0.325843 -2.584960 0.783517
v 0.304023 -2.578375 0.783895
v -0.012387 -2.418929 0.792018
v 0.378164 -2.348731 0.793056
v 0.271110 -2.581379 0.783928
v 0.422798 -2.808467 0.773791
v 0.006939 -2.518544 0.787797
v 0.101908 -2.596819 0.784099
v 0.055819 -2.273305 0.797725
v 0.460922 -2.742724 0.776333
v 0.368603 -2.766560 0.775787
v 0.343476 -2.633281 0.781431
v 0.434112 -2.615090 0.781750
v 0.186509 -2.589099 0.784013
v 0.176047 -2.246794 0.798248
v 0.427325 -2.586955 0.766381
v -0.026342 -2.341877 0.778710
v -0.018918 -2.304734 0.780214
v 0.012217 -2.283161 0.780958
v 0.295485 -2.220697 0.782190
v 0.335828 -2.227918 0.781697
v 0.359009 -2.261716 0.780186
v 0.014941 -2.554678 0.769694
v 0.035152 -2.586624 0.768274
v 0.071196 -2.598024 0.767628
v 0.373288 -2.786392 0.758376
v 0.386574 -2.805042 0.757539
v 0.409037 -2.809488 0.757247
v 0.464091 -2.761988 0.758952
v 0.458944 -2.789044 0.757855
v 0.435998 -2.804276 0.757334
v 0.338697 -2.602894 0.766145
v 0.326481 -2.583304 0.767015
v 0.304661 -2.576719 0.767393
v -0.011570 -2.418021 0.775484
v 0.377230 -2.348464 0.776504
v 0.271753 -2.579722 0.767426
v 0.422517 -2.806882 0.757291
v 0.007751 -2.517615 0.771264
v 0.102575 -2.595161 0.767597
v 0.056537 -2.273388 0.781151
v 0.459767 -2.741405 0.759825
v 0.369220 -2.764813 0.759289
v 0.344110 -2.631609 0.764929
v 0.433078 -2.614346 0.765218
v 0.187164 -2.587441 0.767511
v 0.176011 -2.247043 0.781670
v 0.407305 -2.812302 0.759868
v 0.013066 -2.557241 0.772326
v -0.013812 -2.418694 0.778196
v 0.371556 -2.789206 0.760996
v 0.009521 -2.281495 0.783769
v 0.379393 -2.347523 0.779261
v 0.297287 -2.218040 0.785020
v 0.069320 -2.600588 0.770260
v 0.429675 -2.586905 0.769101
v 0.336906 -2.605450 0.768777
v 0.423036 -2.809261 0.759918
v 0.033277 -2.589188 0.770905
v 0.005519 -2.518342 0.773974
v 0.384842 -2.807856 0.760160
v -0.021614 -2.303068 0.783024
v 0.360811 -2.259058 0.783016
v 0.269949 -2.582280 0.770057
v 0.302869 -2.579276 0.770024
v -0.029038 -2.340211 0.781521
v 0.337630 -2.225260 0.784527
v 0.438766 -2.806219 0.759969
v 0.461713 -2.790987 0.760490
v 0.324688 -2.585861 0.769647
v 0.466859 -2.763932 0.761587
v 0.054545 -2.271567 0.783965
v 0.100711 -2.597723 0.770228
v 0.367481 -2.767597 0.761911
v 0.462487 -2.743114 0.762470
v 0.342328 -2.634206 0.767559
v 0.435494 -2.614607 0.767925
v 0.175916 -2.244803 0.784492
v 0.185330 -2.590002 0.770143
v 0.423087 -2.809707 0.770684
v 0.033329 -2.589634 0.781671
v 0.005571 -2.518788 0.784740
v 0.384894 -2.808302 0.770926
v -0.021562 -2.303514 0.793790
v 0.360863 -2.259504 0.793782
v 0.270001 -2.582726 0.780824
v 0.302920 -2.579722 0.780790
v -0.028986 -2.340657 0.792287
v 0.337682 -2.225707 0.795293
v 0.438818 -2.806665 0.770735
v 0.461764 -2.791434 0.771256
v 0.324740 -2.586307 0.780413
v 0.466911 -2.764378 0.772353
v 0.407357 -2.812748 0.770634
v 0.013118 -2.557687 0.783092
v -0.013761 -2.419140 0.788962
v 0.371608 -2.789652 0.771762
v 0.009573 -2.281941 0.794535
v 0.379445 -2.347969 0.790027
v 0.297339 -2.218486 0.795786
v 0.069372 -2.601034 0.781026
v 0.429727 -2.587351 0.779867
v 0.336958 -2.605896 0.779543
v 0.054596 -2.272013 0.794731
v 0.100762 -2.598170 0.780994
v 0.367533 -2.768043 0.772677
v 0.462538 -2.743560 0.773236
v 0.342380 -2.634652 0.778325
v 0.435545 -2.615053 0.778691
v 0.175968 -2.245249 0.795258
v 0.185381 -2.590448 0.780909
vt 0.326741 0.886272
vt 0.320998 0.851357
vt 0.322473 0.849643
vt 0.645693 0.936322
vt 0.553757 0.939439
vt 0.553820 0.937738
vt 0.431766 0.917982
vt 0.394616 0.934826
vt 0.353136 0.919365
vt 0.002944 0.550226
vt 0.000970 0.533136
vt 0.002671 0.533157
vt 0.681161 0.913597
vt 0.686481 0.918885
vt 0.703717 0.878041
vt 0.707189 0.536600
vt 0.683778 0.497505
vt 0.689207 0.492136
vt 0.644889 0.473718
vt 0.540735 0.472019
vt 0.646608 0.472019
vt 0.388487 0.941990
vt 0.348480 0.924807
vt 0.389960 0.940267
vt 0.325267 0.887995
vt 0.036348 0.587266
vt 0.013447 0.574882
vt 0.038023 0.585609
vt 0.001269 0.551884
vt 0.044110 0.473738
vt 0.067297 0.472037
vt 0.068849 0.473736
vt 0.019795 0.491513
vt 0.014335 0.486144
vt 0.002398 0.516088
vt 0.261475 0.575819
vt 0.282190 0.590344
vt 0.256796 0.581067
vt 0.299670 0.608497
vt 0.294988 0.613747
vt 0.222562 0.581777
vt 0.255315 0.582728
vt 0.221051 0.583438
vt 0.423148 0.878811
vt 0.331397 0.880831
vt 0.640373 0.931034
vt 0.553354 0.915844
vt 0.019267 0.530579
vt 0.007859 0.521457
vt 0.046442 0.529740
vt 0.049570 0.479107
vt 0.071362 0.529471
vt 0.073755 0.479105
vt 0.286871 0.585094
vt 0.258350 0.527457
vt 0.398666 0.532091
vt 0.434992 0.939572
vt 0.434890 0.941273
vt 0.555405 0.875899
vt 0.698397 0.872753
vt 0.705950 0.825765
vt 0.704260 0.824619
vt 0.540303 0.473718
vt 0.254250 0.472026
vt 0.549315 0.536358
vt 0.639461 0.479087
vt 0.420768 0.838371
vt 0.327132 0.844227
vt 0.405447 0.577930
vt 0.555136 0.829972
vt 0.698923 0.820999
vt 0.299464 0.652160
vt 0.293506 0.615409
vt 0.407942 0.620341
vt 0.701760 0.541969
vt 0.435315 0.934197
vt 0.000670 0.514389
vt 0.008235 0.544990
vt 0.018738 0.569645
vt 0.043314 0.580372
vt 0.068969 0.579836
vt 0.255225 0.479094
vt 0.538939 0.479088
vt 0.553688 0.582357
vt 0.309491 0.752594
vt 0.310969 0.750901
vt 0.707428 0.680334
vt 0.705724 0.680611
vt 0.315637 0.745555
vt 0.414355 0.729356
vt 0.554412 0.706165
vt 0.700341 0.681485
vt 0.221095 0.472026
vt 0.221563 0.473726
vt 0.062098 0.586732
vt 0.225189 0.527813
vt 0.223043 0.479095
vt 0.227337 0.576531
vt 0.063750 0.585074
vt 0.254484 0.473725
vt 0.297983 0.653831
vt 0.304142 0.646883
vt 0.322830 0.093358
vt 0.331454 0.061820
vt 0.327185 0.098422
vt 0.553897 0.005292
vt 0.640438 0.011658
vt 0.554080 0.010315
vt 0.394680 0.007835
vt 0.431828 0.024683
vt 0.353198 0.023289
vt 0.003027 0.409408
vt 0.008245 0.397582
vt 0.008053 0.409348
vt 0.681224 0.029101
vt 0.645413 0.006716
vt 0.686199 0.024159
vt 0.703430 0.065007
vt 0.683776 0.445198
vt 0.706840 0.405757
vt 0.688851 0.450218
vt 0.644531 0.468629
vt 0.540209 0.468613
vt 0.639456 0.463609
vt 0.348846 0.018201
vt 0.388552 0.000670
vt 0.390328 0.002747
vt 0.325326 0.054655
vt 0.327103 0.056732
vt 0.013810 0.368034
vt 0.036369 0.355315
vt 0.038387 0.357314
vt 0.001282 0.390686
vt 0.003301 0.392685
vt 0.069158 0.468503
vt 0.049561 0.463477
vt 0.073746 0.463485
vt 0.019789 0.451063
vt 0.044455 0.468495
vt 0.014683 0.456081
vt 0.002755 0.426132
vt 0.282508 0.352637
vt 0.261487 0.366816
vt 0.257114 0.361910
vt 0.299686 0.334146
vt 0.295310 0.329236
vt 0.227350 0.366097
vt 0.222888 0.361192
vt 0.423204 0.063852
vt 0.553415 0.026837
vt 0.007861 0.421114
vt 0.019272 0.411996
vt 0.046446 0.412843
vt 0.071366 0.413118
vt 0.258353 0.415177
vt 0.286884 0.357546
vt 0.398670 0.410567
vt 0.435379 0.008468
vt 0.435077 0.003443
vt 0.555461 0.066782
vt 0.698455 0.069949
vt 0.706000 0.116939
vt 0.703963 0.118320
vt 0.254525 0.468560
vt 0.538934 0.463593
vt 0.549319 0.406324
vt 0.420819 0.104292
vt 0.405457 0.364729
vt 0.555185 0.112710
vt 0.698973 0.121704
vt 0.304165 0.295760
vt 0.407959 0.322319
vt 0.701766 0.400737
vt 0.018755 0.372931
vt 0.043332 0.362211
vt 0.068986 0.362753
vt 0.255219 0.463540
vt 0.553699 0.360325
vt 0.311311 0.192092
vt 0.315675 0.197091
vt 0.707456 0.262372
vt 0.705401 0.262038
vt 0.414390 0.213305
vt 0.554443 0.236517
vt 0.700369 0.261220
vt 0.221650 0.468552
vt 0.223035 0.463532
vt 0.064108 0.357855
vt 0.225192 0.414814
vt 0.299792 0.290826
vt 0.045133 0.950719
vt 0.000712 0.949543
vt 0.045141 0.950040
vt 0.044752 0.961320
vt 0.000670 0.961587
vt 0.000676 0.960913
vt 0.389487 0.961232
vt 0.437607 0.961735
vt 0.389489 0.961912
vt 0.485800 0.960853
vt 0.437604 0.961055
vt 0.904160 0.944714
vt 0.999323 0.943900
vt 0.999324 0.944510
vt 0.303707 0.953251
vt 0.347872 0.952695
vt 0.347872 0.953372
vt 0.392048 0.952624
vt 0.392050 0.953301
vt 0.257450 0.952270
vt 0.303711 0.952574
vt 0.318943 0.944806
vt 0.288923 0.943958
vt 0.318945 0.944057
vt 0.348164 0.944142
vt 0.348162 0.944870
vt 0.419323 0.945013
vt 0.450634 0.944412
vt 0.450633 0.945062
vt 0.387198 0.944961
vt 0.419324 0.944346
vt 0.616818 0.945144
vt 0.647050 0.944527
vt 0.647050 0.945141
vt 0.367970 0.944916
vt 0.387200 0.944275
vt 0.032533 0.944195
vt 0.000679 0.943329
vt 0.032535 0.943397
vt 0.666828 0.950536
vt 0.693564 0.949543
vt 0.693572 0.950223
vt 0.288920 0.944726
vt 0.259371 0.943857
vt 0.628054 0.950993
vt 0.666820 0.949856
vt 0.243775 0.962337
vt 0.243774 0.961659
vt 0.904159 0.944095
vt 0.138849 0.951748
vt 0.138856 0.951071
vt 0.428921 0.953086
vt 0.428916 0.952408
vt 0.257444 0.952946
vt 0.367972 0.944210
vt 0.098486 0.961616
vt 0.044747 0.961995
vt 0.528461 0.952139
vt 0.628046 0.950314
vt 0.474259 0.944465
vt 0.474258 0.945101
vt 0.072870 0.944280
vt 0.072871 0.943483
vt 0.616818 0.944519
vt 0.259369 0.944643
vt 0.098484 0.962293
vt 0.528454 0.951462
vt 0.045099 0.953790
vt 0.000676 0.952725
vt 0.045106 0.953221
vt 0.000704 0.957863
vt 0.044770 0.958833
vt 0.000699 0.958428
vt 0.437592 0.957976
vt 0.389478 0.958727
vt 0.389476 0.958157
vt 0.485790 0.958343
vt 0.437594 0.958546
vt 0.904166 0.947481
vt 0.999329 0.946756
vt 0.999330 0.947267
vt 0.303693 0.956309
vt 0.347870 0.955866
vt 0.347870 0.956433
vt 0.392062 0.956366
vt 0.392060 0.955798
vt 0.257423 0.955439
vt 0.303696 0.955743
vt 0.288916 0.948203
vt 0.318939 0.947568
vt 0.318940 0.948196
vt 0.348161 0.947553
vt 0.348162 0.948162
vt 0.450632 0.948005
vt 0.419322 0.947471
vt 0.450632 0.947460
vt 0.387198 0.948062
vt 0.419322 0.948030
vt 0.647054 0.947915
vt 0.616819 0.947442
vt 0.647053 0.947402
vt 0.367970 0.947518
vt 0.387197 0.947487
vt 0.032525 0.947807
vt 0.000671 0.947073
vt 0.032527 0.947138
vt 0.666864 0.953611
vt 0.693601 0.952728
vt 0.693608 0.953298
vt 0.259364 0.947542
vt 0.288916 0.947559
vt 0.628090 0.954067
vt 0.666857 0.953041
vt 0.243771 0.959159
vt 0.243770 0.958591
vt 0.904165 0.946960
vt 0.138817 0.954813
vt 0.138823 0.954246
vt 0.428945 0.956155
vt 0.428940 0.955586
vt 0.257419 0.956005
vt 0.367971 0.948109
vt 0.044774 0.958268
vt 0.098493 0.959123
vt 0.528488 0.954642
vt 0.628083 0.953497
vt 0.474258 0.947976
vt 0.474258 0.947444
vt 0.072863 0.947884
vt 0.072864 0.947216
vt 0.616819 0.947965
vt 0.259363 0.948198
vt 0.098495 0.958556
vt 0.528494 0.955209
vt 0.000690 0.951474
vt 0.045119 0.951970
vt 0.000688 0.959671
vt 0.437599 0.959800
vt 0.389482 0.959980
vt 0.999327 0.945633
vt 0.347871 0.954619
vt 0.392055 0.954549
vt 0.257434 0.954192
vt 0.303702 0.954497
vt 0.288918 0.946143
vt 0.318941 0.946187
vt 0.348162 0.946211
vt 0.419322 0.946242
vt 0.450633 0.946261
vt 0.647052 0.946271
vt 0.387198 0.946224
vt 0.032530 0.945667
vt 0.000677 0.944128
vt 0.693587 0.951476
vt 0.666842 0.951789
vt 0.243772 0.960409
vt 0.904163 0.945837
vt 0.138836 0.952997
vt 0.428931 0.954336
vt 0.367970 0.946217
vt 0.044761 0.960077
vt 0.528475 0.953391
vt 0.628069 0.952245
vt 0.474258 0.946272
vt 0.072867 0.945748
vt 0.616818 0.946293
vt 0.259366 0.946092
vt 0.098489 0.960370
vt 0.000674 0.945601
vt 0.554016 0.932366
vt 0.008047 0.533223
vt 0.647377 0.937996
vt 0.688165 0.920558
vt 0.705401 0.879714
vt 0.708907 0.534901
vt 0.690925 0.490436
vt 0.042381 0.472039
vt 0.012607 0.484444
vt 0.280708 0.592006
vt 0.321052 0.091291
vt 0.553822 0.003242
vt 0.000975 0.409433
vt 0.647444 0.004698
vt 0.688230 0.022141
vt 0.705460 0.062989
vt 0.708911 0.407806
vt 0.690922 0.452268
vt 0.646602 0.470679
vt 0.540729 0.470662
vt 0.067286 0.470552
vt 0.042370 0.470543
vt 0.012598 0.458129
vt 0.000670 0.428181
vt 0.280722 0.350633
vt 0.255329 0.359907
vt 0.293523 0.327232
vt 0.221066 0.359189
vt 0.434954 0.001392
vt 0.254242 0.470609
vt 0.309530 0.190051
vt 0.221085 0.470601
vt 0.062117 0.355856
vt 0.298006 0.288812
vt 0.347006 0.926530
vt 0.011773 0.576539
vt 0.347070 0.016124
vt 0.011791 0.366035
vt 0.000704 0.950222
vt 0.485803 0.961534
vt 0.000670 0.953294
vt 0.485787 0.957773
vt 0.000670 0.947742
vt 0.485795 0.959598
vt 0.761209 0.492585
vt 0.726452 0.498236
vt 0.724812 0.496825
vt 0.810955 0.175537
vt 0.813987 0.266955
vt 0.812360 0.266895
vt 0.792660 0.388173
vt 0.809395 0.425089
vt 0.794030 0.466306
vt 0.427286 0.814291
vt 0.410246 0.816191
vt 0.410266 0.814563
vt 0.788313 0.140355
vt 0.793629 0.135006
vt 0.753043 0.117877
vt 0.413637 0.114423
vt 0.374852 0.137749
vt 0.369454 0.132291
vt 0.351153 0.176328
vt 0.349527 0.279884
vt 0.349527 0.174683
vt 0.816513 0.431180
vt 0.799501 0.470986
vt 0.814865 0.429769
vt 0.762858 0.493996
vt 0.464026 0.781043
vt 0.451782 0.803856
vt 0.462440 0.779440
vt 0.428872 0.815893
vt 0.351170 0.773393
vt 0.349542 0.750293
vt 0.351168 0.748807
vt 0.368892 0.797486
vt 0.363495 0.802975
vt 0.393246 0.814834
vt 0.452660 0.557368
vt 0.467155 0.536841
vt 0.457934 0.562072
vt 0.485132 0.519419
vt 0.490410 0.524126
vt 0.458638 0.596087
vt 0.459524 0.563490
vt 0.460227 0.597533
vt 0.753736 0.396736
vt 0.755739 0.487905
vt 0.805639 0.180885
vt 0.790541 0.267355
vt 0.407705 0.798012
vt 0.398642 0.809346
vt 0.406872 0.771013
vt 0.356567 0.767904
vt 0.406605 0.746254
vt 0.356565 0.743876
vt 0.461877 0.532135
vt 0.404607 0.560472
vt 0.409215 0.421050
vt 0.814175 0.384973
vt 0.815803 0.385071
vt 0.750849 0.265315
vt 0.747727 0.123226
vt 0.701036 0.115720
vt 0.699939 0.117337
vt 0.351154 0.280297
vt 0.349530 0.564545
vt 0.413458 0.271359
vt 0.356551 0.181785
vt 0.713552 0.399098
vt 0.719368 0.492141
vt 0.454763 0.414314
vt 0.705212 0.265581
vt 0.696299 0.122702
vt 0.528580 0.519681
vt 0.492000 0.525545
vt 0.496904 0.411836
vt 0.419034 0.119881
vt 0.808772 0.384648
vt 0.391620 0.816488
vt 0.422023 0.808972
vt 0.446518 0.798538
vt 0.457177 0.774122
vt 0.456645 0.748633
vt 0.356554 0.563576
vt 0.356551 0.281669
vt 0.459165 0.267014
vt -0.029211 0.497974
vt -0.062877 0.491366
vt -0.026488 0.495635
vt -0.116560 0.266620
vt -0.112397 0.176267
vt -0.113859 0.266523
vt -0.095330 0.387857
vt -0.112095 0.424759
vt -0.111440 0.384318
vt 0.286758 0.816176
vt 0.270766 0.813207
vt 0.286727 0.813475
vt -0.090782 0.140040
vt -0.108141 0.180557
vt -0.054439 0.118655
vt -0.095039 0.135751
vt 0.282841 0.115495
vt 0.322680 0.137769
vt 0.278512 0.119865
vt 0.345274 0.177449
vt 0.327009 0.133399
vt 0.347890 0.279923
vt 0.345191 0.280607
vt -0.101151 0.469736
vt -0.119218 0.430844
vt -0.116482 0.428507
vt -0.065614 0.493704
vt -0.103887 0.472074
vt 0.246280 0.802756
vt 0.233006 0.780990
vt 0.235639 0.778333
vt 0.268133 0.815863
vt 0.243647 0.805412
vt 0.347510 0.750326
vt 0.344794 0.772334
vt 0.344814 0.747859
vt 0.328125 0.797504
vt 0.340472 0.767932
vt 0.302688 0.813742
vt 0.332446 0.801906
vt 0.231108 0.535854
vt 0.244539 0.557327
vt 0.240308 0.561093
vt 0.212095 0.519351
vt 0.235340 0.532086
vt 0.239579 0.595089
vt 0.237670 0.563443
vt -0.056414 0.396451
vt -0.096764 0.465989
vt -0.093113 0.267039
vt 0.289312 0.798000
vt 0.298366 0.809341
vt 0.286677 0.809145
vt 0.290166 0.771003
vt 0.290451 0.746245
vt 0.292589 0.560467
vt 0.288090 0.421041
vt -0.115771 0.384575
vt -0.053420 0.265032
vt -0.050182 0.122944
vt -0.003485 0.115477
vt -0.001668 0.118161
vt 0.347662 0.564583
vt 0.344964 0.564209
vt 0.340945 0.181819
vt 0.283967 0.271347
vt -0.016231 0.398846
vt -0.058490 0.487619
vt 0.242547 0.414269
vt -0.007783 0.265334
vt 0.001246 0.122463
vt 0.205222 0.525472
vt 0.169701 0.518645
vt 0.207862 0.523121
vt 0.200408 0.411758
vt -0.109531 0.266368
vt 0.274987 0.808949
vt 0.250501 0.798497
vt 0.239860 0.774074
vt 0.240410 0.748586
vt 0.340640 0.563609
vt 0.340865 0.281703
vt -0.118472 0.384736
vt 0.238263 0.266966
vt 0.314085 0.139747
vt 0.323242 0.085935
vt 0.323242 0.139747
vt 0.155794 0.547703
vt 0.146654 0.674750
vt 0.146638 0.547703
vt 0.156068 1.149087
vt 0.146706 0.807937
vt 0.155861 0.807933
vt 0.314087 0.009026
vt 0.323246 -0.067924
vt 0.323243 0.009027
vt 0.314078 1.545078
vt 0.323261 1.417855
vt 0.323233 1.545080
vt 0.216571 0.022488
vt 0.207307 -0.281438
vt 0.216466 -0.281441
vt 0.314102 0.428217
vt 0.323292 0.845617
vt 0.314136 0.845617
vt 0.155845 0.314860
vt 0.146652 0.420722
vt 0.146688 0.314856
vt 0.156191 -0.255911
vt 0.147114 -0.366942
vt 0.156271 -0.366935
vt 0.156248 1.417777
vt 0.147182 1.545080
vt 0.147093 1.417783
vt 0.207251 -0.419215
vt 0.216411 -0.419218
vt 0.155809 0.420725
vt 0.314085 0.193561
vt 0.323243 0.193561
vt 0.216727 0.844729
vt 0.207412 0.022490
vt 0.314085 -0.598077
vt 0.323235 -0.696430
vt 0.323241 -0.598077
vt 0.314085 0.085935
vt 0.314080 0.290568
vt 0.323259 0.428215
vt 0.323243 0.286082
vt 0.314085 0.286082
vt 0.147171 -0.443502
vt 0.156328 -0.443495
vt 0.155810 0.674748
vt 0.216459 1.452527
vt 0.207252 1.545047
vt 0.207307 1.452522
vt 0.314075 -0.774013
vt 0.314080 -0.696429
vt 0.146913 1.149093
vt 0.207345 1.381052
vt 0.216498 1.381057
vt 0.277894 0.139746
vt 0.295445 0.085935
vt 0.295444 0.139747
vt 0.191981 0.547703
vt 0.174449 0.674743
vt 0.174433 0.547703
vt 0.192252 1.149063
vt 0.174499 0.807923
vt 0.192046 0.807915
vt 0.277904 -0.067926
vt 0.295448 0.009026
vt 0.277900 0.009025
vt 0.277892 1.545071
vt 0.295466 1.417850
vt 0.295439 1.545074
vt 0.252767 0.022479
vt 0.235112 -0.281448
vt 0.252666 -0.281454
vt 0.277915 0.428221
vt 0.295497 0.845617
vt 0.277948 0.845618
vt 0.191997 0.420733
vt 0.174485 0.314868
vt 0.192034 0.314876
vt 0.192381 -0.255886
vt 0.174912 -0.366922
vt 0.192462 -0.366909
vt 0.192522 1.545048
vt 0.174886 1.417765
vt 0.192432 1.417752
vt 0.252611 -0.419233
vt 0.235056 -0.419226
vt 0.174449 0.420729
vt 0.277893 0.193561
vt 0.295444 0.193561
vt 0.252913 0.844728
vt 0.235215 0.022483
vt 0.277894 -0.696428
vt 0.295446 -0.598076
vt 0.277899 -0.598076
vt 0.277895 0.085934
vt 0.277892 0.290573
vt 0.295463 0.428219
vt 0.277893 0.286082
vt 0.295444 0.286082
vt 0.192518 -0.443469
vt 0.174968 -0.443481
vt 0.191996 0.674739
vt 0.252631 1.452548
vt 0.235036 1.545063
vt 0.235090 1.452538
vt 0.295437 -0.774012
vt 0.295441 -0.696429
vt 0.174705 1.149075
vt 0.252672 1.381076
vt 0.235130 1.381067
vt 0.628315 0.509667
vt 0.626696 0.508253
vt 0.556523 0.114249
vt 0.556788 0.115879
vt 0.621321 0.503559
vt 0.605228 0.405467
vt 0.582188 0.266297
vt 0.557667 0.121291
vt 0.068918 0.509484
vt 0.071607 0.507140
vt 0.141029 0.114123
vt 0.140587 0.116828
vt 0.075917 0.503382
vt 0.092089 0.405302
vt 0.115240 0.266150
vt 0.139879 0.121164
vt 0.314105 1.417853
vt 0.323284 1.263016
vt 0.155999 0.029476
vt 0.146842 0.029471
vt 0.277919 1.417847
vt 0.295489 1.263014
vt 0.174640 0.029488
vt 0.192189 0.029498
vt 0.349532 0.597487
vt 0.351158 0.597039
vt 0.463496 0.755460
vt 0.404961 0.593420
vt 0.356556 0.595552
vt 0.453365 0.591287
vt 0.347634 0.597524
vt 0.344937 0.596779
vt 0.233555 0.755408
vt 0.236188 0.752787
vt 0.292210 0.593414
vt 0.340492 0.743905
vt 0.243807 0.591246
vt 0.314090 -0.067925
vt 0.323248 -0.141834
vt 0.207562 0.939852
vt 0.216716 0.939855
vt 0.295453 -0.141835
vt 0.295451 -0.067925
vt 0.252894 0.939867
vt 0.235350 0.939861
vt 0.461910 0.753879
vt 0.236941 0.597487
vt 0.314092 -0.141835
vt 0.277906 -0.141835
vt 0.351156 0.564321
vt 0.207571 0.844729
vt 0.235365 0.844728
vt 0.314128 1.263016
vt 0.277941 1.263013
vt 0.530178 0.521098
vt 0.523274 0.514977
vt 0.167047 0.520994
vt 0.285542 0.112769
vt 0.173955 0.514879
vt 0.147034 -0.255917
vt 0.174832 -0.255898
vt 0.806959 0.266697
vt 0.410332 0.809159
vt 0.812556 0.173926
vt 0.795230 0.133395
vt 0.754645 0.116266
vt 0.412010 0.112779
vt 0.367828 0.130647
vt 0.349544 0.775047
vt 0.361869 0.804629
vt 0.468745 0.538259
vt -0.022122 0.491884
vt -0.115053 0.173592
vt -0.057094 0.115979
vt -0.097694 0.133075
vt 0.347975 0.174723
vt 0.329709 0.130673
vt 0.347489 0.775080
vt 0.305383 0.816488
vt 0.335142 0.804651
vt 0.228468 0.538205
vt 0.340613 0.595584
vt 0.156337 1.545074
vt 0.216405 1.545053
vt 0.267647 0.085933
vt 0.267645 0.139746
vt 0.202228 0.547703
vt 0.202293 0.807910
vt 0.267653 0.009024
vt 0.267672 1.417845
vt 0.267646 1.545068
vt 0.262916 -0.281458
vt 0.267667 0.428222
vt 0.267701 0.845618
vt 0.202244 0.420735
vt 0.202282 0.314880
vt 0.202710 -0.366901
vt 0.202679 1.417745
vt 0.262862 -0.419237
vt 0.267645 0.193561
vt 0.263017 0.022476
vt 0.267648 -0.696427
vt 0.267652 -0.598076
vt 0.267645 0.290575
vt 0.267645 0.286082
vt 0.202766 -0.443461
vt 0.202242 0.674736
vt 0.262819 1.545080
vt 0.262874 1.452554
vt 0.267644 -0.774010
vt 0.202498 1.149057
vt 0.262915 1.381082
vt 0.267693 1.263012
vt 0.202437 0.029505
vt 0.267657 -0.067926
vt 0.263139 0.939871
vt 0.267659 -0.141835
vt 0.263161 0.844729
vt 0.202629 -0.255879
vt 0.801149 0.472397
vt 0.453367 0.805459
vt 0.323237 0.290566
vt 0.323230 -0.774013
vt 0.174975 1.545061
vt 0.295441 0.290570
vt 0.252576 1.545074
vt 0.277890 -0.774011
vt 0.202768 1.545042
vn 0.0048 -0.0414 0.9991
vn 0.0676 -0.7329 0.6770
vn -0.6908 -0.1638 0.7042
vn 0.1376 -0.7229 0.6772
vn 0.6954 0.1160 0.7092
vn 0.6895 0.2655 0.6738
vn -0.6887 -0.3019 0.6592
vn -0.0772 -0.7692 0.6344
vn -0.6866 -0.3208 0.6524
vn 0.0014 -0.7726 0.6349
vn 0.6955 0.1160 0.7092
vn -0.6115 -0.2708 0.7434
vn -0.6915 -0.1602 0.7044
vn -0.1489 0.6606 0.7358
vn -0.0629 -0.6855 0.7253
vn 0.2861 -0.7177 0.6348
vn 0.0675 -0.7327 0.6772
vn -0.1488 0.6604 0.7360
vn -0.6914 -0.1602 0.7044
vn -0.0048 0.0414 -0.9991
vn -0.6952 -0.2467 -0.6752
vn -0.0836 -0.7141 -0.6950
vn -0.6929 -0.2660 -0.6702
vn -0.0050 -0.7176 -0.6965
vn -0.1556 0.7192 -0.6772
vn -0.1556 0.7191 -0.6772
vn -1.0000 0.0027 0.0049
vn -0.6510 0.4510 -0.6106
vn -0.7491 0.0295 -0.6619
vn -0.4001 0.9156 0.0399
vn -0.8360 0.5481 0.0267
vn -0.0198 0.9989 0.0416
vn 0.4187 0.6781 -0.6040
vn -0.0180 0.7733 -0.6338
vn 0.9196 0.3927 0.0120
vn 0.5427 0.8393 0.0322
vn 0.9787 0.2054 0.0038
vn 0.6832 0.3207 -0.6561
vn -0.9296 -0.3685 -0.0108
vn -0.4737 -0.5834 -0.6597
vn -0.6107 -0.7913 -0.0297
vn -0.1077 -0.9933 -0.0407
vn -0.6976 -0.1053 -0.7087
vn -0.5430 -0.8391 -0.0319
vn -0.4236 -0.6238 -0.6568
vn -0.0024 -0.9991 -0.0414
vn 0.8331 -0.5525 -0.0268
vn 0.7432 0.0348 -0.6682
vn 0.9999 0.0097 -0.0044
vn 0.3789 -0.9246 -0.0398
vn 0.6444 -0.4034 -0.6496
vn 0.6887 0.1745 -0.7038
vn 0.1898 -0.9809 -0.0416
vn 0.2797 -0.6628 -0.6946
vn -0.9317 -0.3631 -0.0105
vn -0.3721 -0.4477 -0.8131
vn -0.6188 -0.2086 -0.7574
vn -0.1012 -0.9940 -0.0407
vn -0.6080 -0.7934 -0.0299
vn -0.9201 -0.3915 -0.0120
vn -0.6983 -0.1017 -0.7086
vn 0.0908 -0.9950 -0.0416
vn -0.0702 -0.6234 -0.7788
vn -0.2153 0.9757 0.0413
vn 0.6886 0.1745 -0.7038
vn -0.9817 -0.1903 -0.0032
vn -0.6975 -0.1053 -0.7088
vn 0.0908 -0.9950 -0.0415
vn 0.0608 -0.6745 -0.7358
vn 0.1309 -0.6646 -0.7357
vn -0.2153 0.9757 0.0414
vn -0.3016 0.7107 -0.6356
vn 0.0608 -0.6744 -0.7358
vn 0.6887 0.1745 -0.7037
vn 0.9787 0.2054 0.0039
vn -0.9827 -0.1852 -0.0030
vn -0.6982 -0.1016 -0.7086
vn 0.0608 -0.6744 -0.7359
vn -0.7427 -0.0256 0.6692
vn -1.0000 0.0026 0.0049
vn -0.6449 0.3987 0.6520
vn -0.4001 0.9156 0.0400
vn 0.4246 0.6258 0.6543
vn -0.0198 0.9989 0.0419
vn -0.0116 0.7180 0.6959
vn 0.9196 0.3928 0.0119
vn 0.5428 0.8393 0.0321
vn -0.6107 -0.7913 -0.0298
vn -0.4676 -0.6360 0.6139
vn -0.1077 -0.9933 -0.0410
vn -0.9296 -0.3685 -0.0107
vn -0.5430 -0.8391 -0.0325
vn -0.4175 -0.6762 0.6070
vn -0.0024 -0.9991 -0.0412
vn 0.7495 -0.0203 0.6617
vn 0.6504 -0.4554 0.6080
vn 0.1898 -0.9809 -0.0414
vn 0.3789 -0.9246 -0.0401
vn -0.6080 -0.7934 -0.0300
vn -0.9317 -0.3631 -0.0107
vn -0.3646 -0.5136 0.7767
vn -0.9827 -0.1852 -0.0029
vn -0.9201 -0.3915 -0.0118
vn -0.1011 -0.9940 -0.0407
vn -0.2153 0.9757 0.0416
vn -0.2953 0.6554 0.6951
vn -0.2153 0.9757 0.0415
vn 0.0907 -0.9950 -0.0416
vn 0.5428 0.8393 0.0319
vn -0.0198 0.9989 0.0417
vn -0.9201 -0.3914 -0.0119
vn -0.5430 -0.8391 -0.0322
vn 0.8330 -0.5526 -0.0268
vn 0.3789 -0.9246 -0.0400
vn -0.9317 -0.3631 -0.0106
vn -0.6080 -0.7934 -0.0297
vn -0.1011 -0.9940 -0.0410
vn -0.2153 0.9757 0.0412
vn 0.1898 -0.9809 -0.0418
vn 0.0907 -0.9950 -0.0417
vn 0.0676 -0.7328 0.6770
vn -0.6908 -0.1638 0.7043
vn 0.1376 -0.7229 0.6771
vn 0.6895 0.2656 0.6739
vn -0.6888 -0.3020 0.6591
vn -0.0772 -0.7692 0.6343
vn -0.6865 -0.3208 0.6525
vn 0.0014 -0.7727 0.6348
vn -0.6115 -0.2708 0.7435
vn -0.6908 -0.1639 0.7042
vn -0.1489 0.6606 0.7359
vn -0.0630 -0.6855 0.7253
vn 0.2860 -0.7177 0.6349
vn -0.6976 -0.1053 -0.7088
vn 0.1308 -0.6644 -0.7359
vn -0.4736 -0.5833 -0.6599
vn -0.0050 -0.7174 -0.6967
vn -0.4236 -0.6237 -0.6570
vn -0.6187 -0.2086 -0.7574
vn -0.0702 -0.6233 -0.7789
vn 0.1898 -0.9809 -0.0415
vn -0.6107 -0.7913 -0.0299
vn -0.5430 -0.8391 -0.0321
vn -0.3016 0.7105 -0.6358
vn -0.6511 0.4510 -0.6105
vn 0.6831 0.3207 -0.6561
vn -0.0198 0.9989 0.0414
vn -0.1557 0.7193 -0.6771
vn -0.7490 0.0295 -0.6619
vn 0.4186 0.6780 -0.6042
vn -0.1077 -0.9933 -0.0406
vn 0.2796 -0.6626 -0.6948
vn -0.0024 -0.9991 -0.0415
vn -0.0180 0.7731 -0.6340
vn 0.8331 -0.5525 -0.0269
vn 0.7431 0.0348 -0.6682
vn -0.9201 -0.3914 -0.0118
vn -0.4001 0.9156 0.0398
vn -0.0198 0.9989 0.0415
vn 0.0908 -0.9950 -0.0417
vn -0.1011 -0.9940 -0.0408
vn 0.5428 0.8393 0.0322
vn 0.3789 -0.9246 -0.0402
vn 0.8330 -0.5525 -0.0269
vn -0.1489 0.6607 0.7358
vn 0.0608 -0.6743 -0.7360
vn -0.6914 -0.1602 0.7045
vn 0.0049 -0.0414 0.9991
vn 0.0608 -0.6743 -0.7359
vn -0.7426 -0.0256 0.6692
vn -0.6450 0.3987 0.6519
vn -0.2952 0.6554 0.6952
vn -0.0116 0.7180 0.6960
vn 0.4247 0.6259 0.6541
vn 0.6504 -0.4554 0.6079
vn -0.3645 -0.5136 0.7768
vn -0.4675 -0.6361 0.6139
vn -0.4175 -0.6760 0.6073
s 1
f 270/1/1 65/2/2 285/3/1
f 262/4/1 42/5/3 280/6/1
f 57/7/1 15/8/1 17/9/1
f 273/10/1 52/11/4 283/12/1
f 262/4/1 5/13/1 263/14/1
f 5/13/1 264/15/1 263/14/1
f 265/16/1 11/17/1 266/18/1
f 11/17/1 267/19/1 266/18/1
f 267/19/1 40/20/5 13/21/6
f 19/22/7 269/23/1 268/24/1
f 269/23/1 18/25/8 270/1/1
f 25/26/9 272/27/1 271/28/1
f 272/27/1 24/29/10 273/10/1
f 274/30/1 68/31/11 287/32/1
f 274/30/1 29/33/1 275/34/1
f 29/33/1 276/35/1 275/34/1
f 34/36/1 278/37/1 277/38/1
f 278/37/1 33/39/1 279/40/1
f 289/41/1 36/42/12 75/43/13
f 58/44/1 17/9/1 16/45/1
f 4/46/1 43/47/1 5/13/1
f 53/48/1 27/49/1 29/33/1
f 54/50/1 29/33/1 28/51/1
f 71/52/1 28/51/1 67/53/1
f 35/54/1 55/55/1 56/56/1
f 284/57/1 42/5/3 50/58/3
f 5/13/1 44/59/1 3/60/1
f 63/61/14 264/15/1 286/62/1
f 281/63/1 2/64/5 40/20/5
f 45/65/1 9/66/1 11/17/1
f 66/67/1 16/45/1 62/68/1
f 59/69/1 35/54/1 56/56/1
f 3/60/1 64/70/1 61/71/1
f 282/72/1 37/73/15 279/40/1
f 60/74/1 33/39/1 59/69/1
f 10/75/1 45/65/1 11/17/1
f 43/47/1 49/76/1 57/7/1
f 276/35/1 52/11/4 31/77/16
f 44/59/1 57/7/1 58/44/1
f 22/78/1 53/48/1 23/79/1
f 23/79/1 54/50/1 21/80/1
f 69/81/1 54/50/1 71/52/1
f 56/56/1 1/82/1 39/83/1
f 268/24/1 50/58/3 19/22/7
f 44/59/1 66/67/1 64/70/1
f 45/65/1 56/56/1 39/83/1
f 48/84/1 59/69/1 45/65/1
f 285/3/1 81/85/17 291/86/1
f 77/87/18 286/62/1 292/88/1
f 66/67/1 79/89/1 82/90/1
f 61/71/1 80/91/1 78/92/1
f 64/70/1 82/90/1 80/91/1
f 287/32/1 73/93/5 290/94/1
f 271/28/1 70/95/19 25/26/9
f 76/96/1 67/53/1 72/97/1
f 74/98/1 71/52/1 76/96/1
f 288/99/1 75/43/13 70/95/19
f 290/94/1 2/64/5 261/100/1
f 76/96/1 1/82/1 55/55/1
f 74/98/1 55/55/1 34/36/1
f 291/86/1 47/101/2 282/72/1
f 265/16/1 77/87/18 292/88/1
f 82/90/1 46/102/1 60/74/1
f 78/92/1 48/84/1 10/75/1
f 80/91/1 60/74/1 48/84/1
f 317/103/20 98/104/20 144/105/20
f 312/106/20 86/107/20 123/108/20
f 97/109/20 139/110/20 99/111/20
f 315/112/20 104/113/20 133/114/20
f 87/115/20 294/116/20 295/117/20
f 296/118/20 87/115/20 295/117/20
f 93/119/20 297/120/20 298/121/20
f 299/122/20 93/119/20 298/121/20
f 313/123/20 91/124/20 299/122/20
f 301/125/20 101/126/21 300/127/20
f 100/128/22 301/125/20 302/129/20
f 304/130/20 107/131/23 303/132/20
f 106/133/24 304/130/20 305/134/20
f 319/135/20 110/136/20 149/137/20
f 111/138/20 306/139/20 307/140/20
f 308/141/20 111/138/20 307/140/20
f 310/142/20 116/143/20 309/144/20
f 115/145/20 310/142/20 311/146/20
f 309/144/20 156/147/20 321/148/20
f 99/111/20 140/149/20 98/104/20
f 125/150/20 86/107/20 87/115/20
f 109/151/20 135/152/20 111/138/20
f 111/138/20 136/153/20 110/136/20
f 110/136/20 153/154/20 149/137/20
f 137/155/20 117/156/20 138/157/20
f 312/106/20 131/158/20 316/159/20
f 126/160/20 87/115/20 85/161/20
f 296/118/20 145/162/25 318/163/20
f 293/164/20 121/165/20 313/123/20
f 91/124/20 127/166/20 93/119/20
f 98/104/20 148/167/20 144/105/20
f 117/156/20 141/168/20 138/157/20
f 146/169/20 85/161/20 143/170/20
f 311/146/20 128/171/20 115/145/20
f 115/145/20 142/172/20 141/168/20
f 127/166/20 92/173/20 93/119/20
f 131/158/20 125/150/20 139/110/20
f 315/112/20 109/151/20 308/141/20
f 139/110/20 126/160/20 140/149/20
f 135/152/20 104/113/20 105/174/20
f 136/153/20 105/174/20 103/175/20
f 136/153/20 151/176/20 153/154/20
f 83/177/20 138/157/20 121/165/20
f 316/159/20 97/109/20 300/127/20
f 148/167/20 126/160/20 146/169/20
f 138/157/20 127/166/20 121/165/20
f 141/168/20 130/178/20 127/166/20
f 323/179/20 144/105/20 161/180/20
f 318/163/20 159/181/26 324/182/20
f 161/180/20 148/167/20 164/183/20
f 162/184/20 143/170/20 160/185/20
f 164/183/20 146/169/20 162/184/20
f 322/186/20 149/137/20 154/187/20
f 320/188/20 103/175/20 303/132/20
f 149/137/20 158/189/20 154/187/20
f 153/154/20 156/147/20 158/189/20
f 321/148/20 151/176/20 320/188/20
f 293/164/20 154/187/20 83/177/20
f 83/177/20 158/189/20 137/155/20
f 137/155/20 156/147/20 116/143/20
f 314/190/20 161/180/20 128/171/20
f 159/181/26 297/120/20 324/182/20
f 128/171/20 164/183/20 142/172/20
f 130/178/20 160/185/20 92/173/20
f 142/172/20 162/184/20 130/178/20
f 198/191/27 90/192/28 88/193/29
f 199/194/30 90/195/28 200/196/31
f 201/197/32 96/198/33 94/199/34
f 202/200/35 96/198/33 203/201/36
f 216/202/37 95/203/38 202/204/35
f 205/205/39 102/206/40 206/207/41
f 206/207/41 100/208/22 204/209/42
f 205/205/39 132/210/43 101/211/21
f 209/212/44 107/213/23 108/214/45
f 209/212/44 106/215/24 207/216/46
f 212/217/47 112/218/48 210/219/49
f 211/220/50 114/221/51 212/217/47
f 225/222/37 84/223/52 197/224/37
f 220/225/53 113/226/54 211/220/50
f 213/227/55 120/228/56 118/229/57
f 214/230/58 120/231/56 215/232/59
f 208/233/60 152/234/61 107/213/23
f 218/235/62 119/236/63 214/230/58
f 201/197/32 159/237/26 227/238/64
f 197/224/37 122/239/65 216/202/37
f 217/240/66 88/193/29 124/241/67
f 222/242/68 100/208/22 147/243/69
f 217/240/66 132/210/43 219/244/66
f 207/216/46 134/245/70 220/225/53
f 221/246/71 89/247/72 199/194/30
f 228/248/68 129/249/73 218/235/62
f 210/219/49 150/250/74 223/251/75
f 226/252/76 118/229/57 157/253/77
f 225/222/37 150/250/74 155/254/65
f 226/252/76 152/234/61 224/255/76
f 227/238/64 145/256/25 221/246/71
f 228/248/68 147/243/69 163/257/78
f 6/258/79 168/259/31 166/260/80
f 8/261/81 167/262/82 168/263/31
f 14/264/83 169/265/84 12/266/85
f 14/264/83 170/267/86 171/268/87
f 40/269/5 170/270/86 13/271/6
f 19/272/7 174/273/88 20/274/89
f 18/275/8 174/273/88 172/276/90
f 19/272/7 187/277/66 173/278/91
f 25/279/9 177/280/92 26/281/93
f 26/281/93 175/282/94 24/283/10
f 30/284/95 180/285/47 178/286/49
f 31/287/16 180/285/47 32/288/96
f 2/289/5 193/290/37 165/291/37
f 31/287/16 188/292/97 179/293/98
f 36/294/12 183/295/99 181/296/100
f 37/297/15 183/298/99 38/299/101
f 25/279/9 192/300/102 176/301/103
f 47/302/2 182/303/104 37/297/15
f 12/266/85 195/304/105 77/305/18
f 2/289/5 184/306/37 40/269/5
f 42/307/3 166/260/80 185/308/66
f 65/309/2 172/276/90 190/310/68
f 42/307/3 187/277/66 50/311/3
f 52/312/4 175/282/94 188/292/97
f 7/313/106 189/314/107 167/262/82
f 47/302/2 196/315/68 186/316/108
f 68/317/11 178/286/49 191/318/37
f 75/319/13 181/296/100 194/320/76
f 73/321/5 191/318/37 193/290/37
f 75/319/13 192/300/102 70/322/19
f 77/305/18 189/314/107 63/323/14
f 65/309/2 196/315/68 81/324/17
f 232/325/31 198/191/27 230/326/80
f 232/327/31 199/194/30 200/196/31
f 235/328/109 201/197/32 233/329/110
f 235/328/109 202/200/35 203/201/36
f 234/330/86 216/202/37 202/204/35
f 238/331/88 205/205/39 206/207/41
f 236/332/90 206/207/41 204/209/42
f 251/333/66 205/205/39 237/334/39
f 240/335/111 209/212/44 241/336/112
f 241/336/112 207/216/46 239/337/46
f 244/338/113 210/219/49 242/339/49
f 244/338/113 211/220/50 212/217/47
f 229/340/37 225/222/37 197/224/37
f 243/341/114 220/225/53 211/220/50
f 245/342/115 215/343/59 213/227/55
f 247/344/116 214/230/58 215/232/59
f 240/335/111 224/255/76 208/233/60
f 246/345/117 218/235/62 214/230/58
f 259/346/118 201/197/32 227/238/64
f 248/347/37 197/224/37 216/202/37
f 249/348/66 198/191/27 217/240/66
f 254/349/68 204/209/42 222/242/68
f 251/333/66 217/240/66 219/244/66
f 252/350/119 207/216/46 220/225/53
f 231/351/82 221/246/71 199/194/30
f 260/352/120 218/235/62 250/353/62
f 242/339/49 223/251/75 255/354/37
f 258/355/76 213/227/55 226/252/76
f 257/356/37 223/251/75 225/222/37
f 256/357/102 226/252/76 224/255/76
f 259/346/118 221/246/71 253/358/71
f 260/352/120 222/242/68 228/248/68
f 166/260/80 232/325/31 230/326/80
f 167/262/82 232/327/31 168/263/31
f 169/265/84 235/328/109 233/329/110
f 170/267/86 235/328/109 171/268/87
f 184/306/37 234/330/86 170/270/86
f 173/278/91 238/331/88 174/273/88
f 174/273/88 236/332/90 172/276/90
f 173/278/91 251/333/66 237/334/39
f 177/280/92 240/335/111 241/336/112
f 177/280/92 239/337/46 175/282/94
f 178/286/49 244/338/113 242/339/49
f 179/293/98 244/338/113 180/285/47
f 165/291/37 257/356/37 229/340/37
f 188/292/97 243/341/114 179/293/98
f 181/296/100 247/359/116 245/342/115
f 183/298/99 246/345/117 247/344/116
f 192/300/102 240/335/111 176/301/103
f 182/303/104 250/353/62 246/345/117
f 169/265/84 259/346/118 195/304/105
f 184/306/37 229/340/37 248/347/37
f 185/308/66 230/326/80 249/348/66
f 190/310/68 236/332/90 254/349/68
f 187/277/66 249/348/66 251/333/66
f 188/292/97 239/337/46 252/350/119
f 189/314/107 231/351/82 167/262/82
f 196/315/68 250/353/62 186/316/108
f 191/318/37 242/339/49 255/354/37
f 181/296/100 258/355/76 194/320/76
f 191/318/37 257/356/37 193/290/37
f 194/320/76 256/357/102 192/300/102
f 195/304/105 253/358/71 189/314/107
f 190/310/68 260/352/120 196/315/68
f 16/45/1 285/3/1 62/68/1
f 4/46/1 280/6/1 41/360/1
f 22/78/1 283/12/1 51/361/1
f 6/362/79 263/14/1 8/363/81
f 263/14/1 7/364/106 8/363/81
f 12/365/85 266/18/1 14/366/83
f 266/18/1 13/21/6 14/366/83
f 9/66/1 281/63/1 267/19/1
f 268/24/1 17/9/1 15/8/1
f 17/9/1 270/1/1 16/45/1
f 271/28/1 23/79/1 21/80/1
f 23/79/1 273/10/1 22/78/1
f 28/51/1 287/32/1 67/53/1
f 30/367/95 275/34/1 32/368/96
f 275/34/1 31/77/16 32/368/96
f 277/38/1 38/369/101 36/42/12
f 38/369/101 279/40/1 37/73/15
f 74/98/1 277/38/1 289/41/1
f 49/76/1 280/6/1 284/57/1
f 286/62/1 3/60/1 61/71/1
f 39/83/1 261/100/1 281/63/1
f 46/102/1 279/40/1 33/39/1
f 27/49/1 283/12/1 276/35/1
f 15/8/1 284/57/1 268/24/1
f 62/68/1 291/86/1 79/89/1
f 292/88/1 61/71/1 78/92/1
f 67/53/1 290/94/1 72/97/1
f 21/80/1 288/99/1 271/28/1
f 69/81/1 289/41/1 288/99/1
f 72/97/1 261/100/1 1/82/1
f 79/89/1 282/72/1 46/102/1
f 10/75/1 292/88/1 78/92/1
f 147/370/69 302/129/20 317/103/20
f 124/371/67 294/116/20 312/106/20
f 134/372/70 305/134/20 315/112/20
f 295/117/20 88/373/29 90/374/28
f 89/375/72 295/117/20 90/374/28
f 298/121/20 94/376/34 96/377/33
f 95/378/38 298/121/20 96/377/33
f 122/379/65 299/122/20 95/378/38
f 99/111/20 300/127/20 97/109/20
f 302/129/20 99/111/20 98/104/20
f 105/174/20 303/132/20 103/175/20
f 305/134/20 105/174/20 104/113/20
f 150/380/74 306/139/20 319/135/20
f 307/140/20 112/381/48 114/382/51
f 113/383/54 307/140/20 114/382/51
f 120/384/56 309/144/20 118/385/57
f 311/146/20 120/384/56 119/386/63
f 118/385/57 321/148/20 157/387/77
f 124/371/67 316/159/20 132/388/43
f 85/161/20 318/163/20 143/170/20
f 84/389/52 313/123/20 122/379/65
f 119/386/63 314/190/20 311/146/20
f 134/372/70 308/141/20 113/383/54
f 132/388/43 300/127/20 101/126/21
f 163/390/78 317/103/20 323/179/20
f 143/170/20 324/182/20 160/185/20
f 155/391/65 319/135/20 322/186/20
f 152/392/61 303/132/20 107/131/23
f 157/387/77 320/188/20 152/392/61
f 84/389/52 322/186/20 293/164/20
f 129/393/73 323/179/20 314/190/20
f 324/182/20 92/173/20 160/185/20
f 270/1/1 18/25/8 65/2/2
f 262/4/1 6/362/79 42/5/3
f 57/7/1 49/76/1 15/8/1
f 273/10/1 24/29/10 52/11/4
f 262/4/1 4/46/1 5/13/1
f 5/13/1 3/60/1 264/15/1
f 265/16/1 10/75/1 11/17/1
f 11/17/1 9/66/1 267/19/1
f 267/19/1 281/63/1 40/20/5
f 19/22/7 20/394/89 269/23/1
f 269/23/1 20/394/89 18/25/8
f 25/26/9 26/395/93 272/27/1
f 272/27/1 26/395/93 24/29/10
f 274/30/1 30/367/95 68/31/11
f 274/30/1 28/51/1 29/33/1
f 29/33/1 27/49/1 276/35/1
f 34/36/1 35/54/1 278/37/1
f 278/37/1 35/54/1 33/39/1
f 289/41/1 277/38/1 36/42/12
f 58/44/1 57/7/1 17/9/1
f 4/46/1 41/360/1 43/47/1
f 53/48/1 51/361/1 27/49/1
f 54/50/1 53/48/1 29/33/1
f 71/52/1 54/50/1 28/51/1
f 35/54/1 34/36/1 55/55/1
f 284/57/1 280/6/1 42/5/3
f 5/13/1 43/47/1 44/59/1
f 63/61/14 7/364/106 264/15/1
f 281/63/1 261/100/1 2/64/5
f 45/65/1 39/83/1 9/66/1
f 66/67/1 58/44/1 16/45/1
f 59/69/1 33/39/1 35/54/1
f 3/60/1 44/59/1 64/70/1
f 282/72/1 47/101/2 37/73/15
f 60/74/1 46/102/1 33/39/1
f 10/75/1 48/84/1 45/65/1
f 43/47/1 41/360/1 49/76/1
f 276/35/1 283/12/1 52/11/4
f 44/59/1 43/47/1 57/7/1
f 22/78/1 51/361/1 53/48/1
f 23/79/1 53/48/1 54/50/1
f 69/81/1 21/80/1 54/50/1
f 56/56/1 55/55/1 1/82/1
f 268/24/1 284/57/1 50/58/3
f 44/59/1 58/44/1 66/67/1
f 45/65/1 59/69/1 56/56/1
f 48/84/1 60/74/1 59/69/1
f 285/3/1 65/2/2 81/85/17
f 77/87/18 63/61/14 286/62/1
f 66/67/1 62/68/1 79/89/1
f 61/71/1 64/70/1 80/91/1
f 64/70/1 66/67/1 82/90/1
f 287/32/1 68/31/11 73/93/5
f 271/28/1 288/99/1 70/95/19
f 76/96/1 71/52/1 67/53/1
f 74/98/1 69/81/1 71/52/1
f 288/99/1 289/41/1 75/43/13
f 290/94/1 73/93/5 2/64/5
f 76/96/1 72/97/1 1/82/1
f 74/98/1 76/96/1 55/55/1
f 291/86/1 81/85/17 47/101/2
f 265/16/1 12/365/85 77/87/18
f 82/90/1 79/89/1 46/102/1
f 78/92/1 80/91/1 48/84/1
f 80/91/1 82/90/1 60/74/1
f 317/103/20 302/129/20 98/104/20
f 312/106/20 294/116/20 86/107/20
f 97/109/20 131/158/20 139/110/20
f 315/112/20 305/134/20 104/113/20
f 87/115/20 86/107/20 294/116/20
f 296/118/20 85/161/20 87/115/20
f 93/119/20 92/173/20 297/120/20
f 299/122/20 91/124/20 93/119/20
f 313/123/20 121/165/20 91/124/20
f 301/125/20 102/396/40 101/126/21
f 100/128/22 102/396/40 301/125/20
f 304/130/20 108/397/45 107/131/23
f 106/133/24 108/397/45 304/130/20
f 319/135/20 306/139/20 110/136/20
f 111/138/20 110/136/20 306/139/20
f 308/141/20 109/151/20 111/138/20
f 310/142/20 117/156/20 116/143/20
f 115/145/20 117/156/20 310/142/20
f 309/144/20 116/143/20 156/147/20
f 99/111/20 139/110/20 140/149/20
f 125/150/20 123/108/20 86/107/20
f 109/151/20 133/114/20 135/152/20
f 111/138/20 135/152/20 136/153/20
f 110/136/20 136/153/20 153/154/20
f 137/155/20 116/143/20 117/156/20
f 312/106/20 123/108/20 131/158/20
f 126/160/20 125/150/20 87/115/20
f 296/118/20 89/375/72 145/162/25
f 293/164/20 83/177/20 121/165/20
f 91/124/20 121/165/20 127/166/20
f 98/104/20 140/149/20 148/167/20
f 117/156/20 115/145/20 141/168/20
f 146/169/20 126/160/20 85/161/20
f 311/146/20 314/190/20 128/171/20
f 115/145/20 128/171/20 142/172/20
f 127/166/20 130/178/20 92/173/20
f 131/158/20 123/108/20 125/150/20
f 315/112/20 133/114/20 109/151/20
f 139/110/20 125/150/20 126/160/20
f 135/152/20 133/114/20 104/113/20
f 136/153/20 135/152/20 105/174/20
f 136/153/20 103/175/20 151/176/20
f 83/177/20 137/155/20 138/157/20
f 316/159/20 131/158/20 97/109/20
f 148/167/20 140/149/20 126/160/20
f 138/157/20 141/168/20 127/166/20
f 141/168/20 142/172/20 130/178/20
f 323/179/20 317/103/20 144/105/20
f 318/163/20 145/162/25 159/181/26
f 161/180/20 144/105/20 148/167/20
f 162/184/20 146/169/20 143/170/20
f 164/183/20 148/167/20 146/169/20
f 322/186/20 319/135/20 149/137/20
f 320/188/20 151/176/20 103/175/20
f 149/137/20 153/154/20 158/189/20
f 153/154/20 151/176/20 156/147/20
f 321/148/20 156/147/20 151/176/20
f 293/164/20 322/186/20 154/187/20
f 83/177/20 154/187/20 158/189/20
f 137/155/20 158/189/20 156/147/20
f 314/190/20 323/179/20 161/180/20
f 159/181/26 94/376/34 297/120/20
f 128/171/20 161/180/20 164/183/20
f 130/178/20 162/184/20 160/185/20
f 142/172/20 164/183/20 162/184/20
f 198/191/27 200/398/31 90/192/28
f 199/194/30 89/247/72 90/195/28
f 201/197/32 203/201/36 96/198/33
f 202/200/35 95/399/38 96/198/33
f 216/202/37 122/239/65 95/203/38
f 205/205/39 101/211/21 102/206/40
f 206/207/41 102/206/40 100/208/22
f 205/205/39 219/244/66 132/210/43
f 209/212/44 208/233/60 107/213/23
f 209/212/44 108/214/45 106/215/24
f 212/217/47 114/221/51 112/218/48
f 211/220/50 113/226/54 114/221/51
f 225/222/37 155/254/65 84/223/52
f 220/225/53 134/245/70 113/226/54
f 213/227/55 215/343/59 120/228/56
f 214/230/58 119/236/63 120/231/56
f 208/233/60 224/255/76 152/234/61
f 218/235/62 129/249/73 119/236/63
f 201/197/32 94/199/34 159/237/26
f 197/224/37 84/223/52 122/239/65
f 217/240/66 198/191/27 88/193/29
f 222/242/68 204/209/42 100/208/22
f 217/240/66 124/241/67 132/210/43
f 207/216/46 106/215/24 134/245/70
f 221/246/71 145/256/25 89/247/72
f 228/248/68 163/257/78 129/249/73
f 210/219/49 112/218/48 150/250/74
f 226/252/76 213/227/55 118/229/57
f 225/222/37 223/251/75 150/250/74
f 226/252/76 157/253/77 152/234/61
f 227/238/64 159/237/26 145/256/25
f 228/248/68 222/242/68 147/243/69
f 6/258/79 8/400/81 168/259/31
f 8/261/81 7/313/106 167/262/82
f 14/264/83 171/268/87 169/265/84
f 14/264/83 13/401/6 170/267/86
f 40/269/5 184/306/37 170/270/86
f 19/272/7 173/278/91 174/273/88
f 18/275/8 20/274/89 174/273/88
f 19/272/7 50/311/3 187/277/66
f 25/279/9 176/301/103 177/280/92
f 26/281/93 177/280/92 175/282/94
f 30/284/95 32/288/96 180/285/47
f 31/287/16 179/293/98 180/285/47
f 2/289/5 73/321/5 193/290/37
f 31/287/16 52/312/4 188/292/97
f 36/294/12 38/402/101 183/295/99
f 37/297/15 182/303/104 183/298/99
f 25/279/9 70/322/19 192/300/102
f 47/302/2 186/316/108 182/303/104
f 12/266/85 169/265/84 195/304/105
f 2/289/5 165/291/37 184/306/37
f 42/307/3 6/258/79 166/260/80
f 65/309/2 18/275/8 172/276/90
f 42/307/3 185/308/66 187/277/66
f 52/312/4 24/283/10 175/282/94
f 7/313/106 63/323/14 189/314/107
f 47/302/2 81/324/17 196/315/68
f 68/317/11 30/284/95 178/286/49
f 75/319/13 36/294/12 181/296/100
f 73/321/5 68/317/11 191/318/37
f 75/319/13 194/320/76 192/300/102
f 77/305/18 195/304/105 189/314/107
f 65/309/2 190/310/68 196/315/68
f 232/325/31 200/398/31 198/191/27
f 232/327/31 231/351/82 199/194/30
f 235/328/109 203/201/36 201/197/32
f 235/328/109 234/403/86 202/200/35
f 234/330/86 248/347/37 216/202/37
f 238/331/88 237/334/39 205/205/39
f 236/332/90 238/331/88 206/207/41
f 251/333/66 219/244/66 205/205/39
f 240/335/111 208/233/60 209/212/44
f 241/336/112 209/212/44 207/216/46
f 244/338/113 212/217/47 210/219/49
f 244/338/113 243/341/114 211/220/50
f 229/340/37 257/356/37 225/222/37
f 243/341/114 252/350/119 220/225/53
f 245/342/115 247/359/116 215/343/59
f 247/344/116 246/345/117 214/230/58
f 240/335/111 256/357/102 224/255/76
f 246/345/117 250/353/62 218/235/62
f 259/346/118 233/329/110 201/197/32
f 248/347/37 229/340/37 197/224/37
f 249/348/66 230/326/80 198/191/27
f 254/349/68 236/332/90 204/209/42
f 251/333/66 249/348/66 217/240/66
f 252/350/119 239/337/46 207/216/46
f 231/351/82 253/358/71 221/246/71
f 260/352/120 228/248/68 218/235/62
f 242/339/49 210/219/49 223/251/75
f 258/355/76 245/342/115 213/227/55
f 257/356/37 255/354/37 223/251/75
f 256/357/102 258/355/76 226/252/76
f 259/346/118 227/238/64 221/246/71
f 260/352/120 254/349/68 222/242/68
f 166/260/80 168/259/31 232/325/31
f 167/262/82 231/351/82 232/327/31
f 169/265/84 171/268/87 235/328/109
f 170/267/86 234/403/86 235/328/109
f 184/306/37 248/347/37 234/330/86
f 173/278/91 237/334/39 238/331/88
f 174/273/88 238/331/88 236/332/90
f 173/278/91 187/277/66 251/333/66
f 177/280/92 176/301/103 240/335/111
f 177/280/92 241/336/112 239/337/46
f 178/286/49 180/285/47 244/338/113
f 179/293/98 243/341/114 244/338/113
f 165/291/37 193/290/37 257/356/37
f 188/292/97 252/350/119 243/341/114
f 181/296/100 183/295/99 247/359/116
f 183/298/99 182/303/104 246/345/117
f 192/300/102 256/357/102 240/335/111
f 182/303/104 186/316/108 250/353/62
f 169/265/84 233/329/110 259/346/118
f 184/306/37 165/291/37 229/340/37
f 185/308/66 166/260/80 230/326/80
f 190/310/68 172/276/90 236/332/90
f 187/277/66 185/308/66 249/348/66
f 188/292/97 175/282/94 239/337/46
f 189/314/107 253/358/71 231/351/82
f 196/315/68 260/352/120 250/353/62
f 191/318/37 178/286/49 242/339/49
f 181/296/100 245/342/115 258/355/76
f 191/318/37 255/354/37 257/356/37
f 194/320/76 258/355/76 256/357/102
f 195/304/105 259/346/118 253/358/71
f 190/310/68 254/349/68 260/352/120
f 16/45/1 270/1/1 285/3/1
f 4/46/1 262/4/1 280/6/1
f 22/78/1 273/10/1 283/12/1
f 6/362/79 262/4/1 263/14/1
f 263/14/1 264/15/1 7/364/106
f 12/365/85 265/16/1 266/18/1
f 266/18/1 267/19/1 13/21/6
f 9/66/1 39/83/1 281/63/1
f 268/24/1 269/23/1 17/9/1
f 17/9/1 269/23/1 270/1/1
f 271/28/1 272/27/1 23/79/1
f 23/79/1 272/27/1 273/10/1
f 28/51/1 274/30/1 287/32/1
f 30/367/95 274/30/1 275/34/1
f 275/34/1 276/35/1 31/77/16
f 277/38/1 278/37/1 38/369/101
f 38/369/101 278/37/1 279/40/1
f 74/98/1 34/36/1 277/38/1
f 49/76/1 41/360/1 280/6/1
f 286/62/1 264/15/1 3/60/1
f 39/83/1 1/82/1 261/100/1
f 46/102/1 282/72/1 279/40/1
f 27/49/1 51/361/1 283/12/1
f 15/8/1 49/76/1 284/57/1
f 62/68/1 285/3/1 291/86/1
f 292/88/1 286/62/1 61/71/1
f 67/53/1 287/32/1 290/94/1
f 21/80/1 69/81/1 288/99/1
f 69/81/1 74/98/1 289/41/1
f 72/97/1 290/94/1 261/100/1
f 79/89/1 291/86/1 282/72/1
f 10/75/1 265/16/1 292/88/1
f 147/370/69 100/128/22 302/129/20
f 124/371/67 88/373/29 294/116/20
f 134/372/70 106/133/24 305/134/20
f 295/117/20 294/116/20 88/373/29
f 89/375/72 296/118/20 295/117/20
f 298/121/20 297/120/20 94/376/34
f 95/378/38 299/122/20 298/121/20
f 122/379/65 313/123/20 299/122/20
f 99/111/20 301/125/20 300/127/20
f 302/129/20 301/125/20 99/111/20
f 105/174/20 304/130/20 303/132/20
f 305/134/20 304/130/20 105/174/20
f 150/380/74 112/381/48 306/139/20
f 307/140/20 306/139/20 112/381/48
f 113/383/54 308/141/20 307/140/20
f 120/384/56 310/142/20 309/144/20
f 311/146/20 310/142/20 120/384/56
f 118/385/57 309/144/20 321/148/20
f 124/371/67 312/106/20 316/159/20
f 85/161/20 296/118/20 318/163/20
f 84/389/52 293/164/20 313/123/20
f 119/386/63 129/393/73 314/190/20
f 134/372/70 315/112/20 308/141/20
f 132/388/43 316/159/20 300/127/20
f 163/390/78 147/370/69 317/103/20
f 143/170/20 318/163/20 324/182/20
f 155/391/65 150/380/74 319/135/20
f 152/392/61 320/188/20 303/132/20
f 157/387/77 321/148/20 320/188/20
f 84/389/52 155/391/65 322/186/20
f 129/393/73 163/390/78 323/179/20
f 324/182/20 297/120/20 92/173/20
f 530/404/1 473/405/121 545/406/1
f 522/407/1 366/408/122 540/409/1
f 381/410/1 339/411/1 341/412/1
f 533/413/1 376/414/123 543/415/1
f 522/407/1 329/416/1 523/417/1
f 329/416/1 524/418/1 523/417/1
f 525/419/1 335/420/1 526/421/1
f 335/420/1 527/422/1 526/421/1
f 527/422/1 364/423/5 337/424/124
f 343/425/125 529/426/1 528/427/1
f 529/426/1 342/428/126 530/404/1
f 349/429/127 532/430/1 531/431/1
f 532/430/1 348/432/128 533/413/1
f 534/433/1 484/434/5 547/435/1
f 534/433/1 353/436/1 535/437/1
f 353/436/1 536/438/1 535/437/1
f 358/439/1 538/440/1 537/441/1
f 538/440/1 357/442/1 539/443/1
f 549/444/1 360/445/129 502/446/13
f 382/447/1 341/412/1 340/448/1
f 328/449/1 367/450/1 329/416/1
f 377/451/1 351/452/1 353/436/1
f 378/453/1 353/436/1 352/454/1
f 487/455/1 352/454/1 483/456/1
f 359/457/1 379/458/1 380/459/1
f 544/460/1 366/408/122 374/461/130
f 329/416/1 368/462/1 327/463/1
f 471/464/131 524/418/1 546/465/1
f 541/466/1 326/467/5 364/423/5
f 369/468/1 333/469/1 335/420/1
f 474/470/1 340/448/1 470/471/1
f 383/472/1 359/457/1 380/459/1
f 327/463/1 472/473/1 469/474/1
f 542/475/1 361/476/132 539/443/1
f 384/477/1 357/442/1 383/472/1
f 334/478/1 369/468/1 335/420/1
f 367/450/1 373/479/1 381/410/1
f 536/438/1 376/414/123 355/480/133
f 368/462/1 381/410/1 382/447/1
f 346/481/1 377/451/1 347/482/1
f 347/482/1 378/453/1 345/483/1
f 485/484/1 378/453/1 487/455/1
f 380/459/1 325/485/1 363/486/1
f 528/427/1 374/461/130 343/425/125
f 368/462/1 474/470/1 472/473/1
f 369/468/1 380/459/1 363/486/1
f 372/487/1 383/472/1 369/468/1
f 479/488/78 562/489/20 577/490/20
f 426/491/134 554/492/20 572/493/20
f 441/494/20 399/495/20 433/496/20
f 436/497/135 565/498/20 575/499/20
f 554/492/20 389/500/20 388/501/20
f 556/502/20 389/500/20 555/503/20
f 557/504/20 395/505/20 394/506/20
f 559/507/20 395/505/20 558/508/20
f 559/507/20 424/509/65 573/510/20
f 561/511/20 403/512/21 560/513/20
f 561/511/20 402/514/22 404/515/136
f 564/516/20 409/517/23 563/518/20
f 564/516/20 408/519/137 410/520/138
f 489/521/65 566/522/20 579/523/20
f 566/522/20 413/524/20 412/525/20
f 568/526/20 413/524/20 567/527/20
f 570/528/20 418/529/20 569/530/20
f 570/528/20 417/531/20 419/532/20
f 581/533/20 420/534/139 569/530/20
f 442/535/20 401/536/20 441/494/20
f 427/537/20 388/501/20 389/500/20
f 437/538/20 411/539/20 435/540/20
f 438/541/20 413/524/20 437/538/20
f 492/542/20 412/525/20 438/541/20
f 439/543/20 419/532/20 440/544/20
f 576/545/20 426/491/134 572/493/20
f 428/546/20 389/500/20 387/547/20
f 556/502/20 477/548/25 578/549/20
f 573/510/20 386/550/65 553/551/20
f 393/552/20 429/553/20 395/505/20
f 480/554/20 400/555/20 442/535/20
f 419/532/20 443/556/20 440/544/20
f 478/557/20 387/547/20 475/558/20
f 421/559/140 574/560/20 571/561/20
f 417/531/20 444/562/20 443/556/20
f 429/553/20 394/506/20 395/505/20
f 427/537/20 433/496/20 425/563/20
f 568/526/20 436/497/135 575/499/20
f 428/546/20 441/494/20 427/537/20
f 437/538/20 406/564/20 407/565/20
f 438/541/20 407/565/20 405/566/20
f 490/567/20 438/541/20 405/566/20
f 385/568/20 440/544/20 423/569/20
f 560/513/20 434/570/43 576/545/20
f 480/554/20 428/546/20 478/557/20
f 440/544/20 429/553/20 423/569/20
f 443/556/20 432/571/20 429/553/20
f 595/572/141 408/573/137 436/574/135
f 596/575/142 403/576/21 404/577/136
f 587/578/66 434/579/43 597/580/66
f 598/581/143 409/582/23 410/583/138
f 599/584/31 391/585/144 392/586/145
f 590/587/37 397/588/146 600/589/86
f 591/590/147 508/591/148 615/592/105
f 610/593/62 402/594/22 479/595/78
f 601/596/62 421/597/140 602/598/104
f 603/599/80 392/600/145 390/601/149
f 600/589/86 398/602/150 604/603/87
f 592/604/151 404/577/136 402/594/22
f 605/605/98 436/574/135 415/606/152
f 593/607/37 424/608/65 590/587/37
f 613/609/76 420/610/139 504/611/61
f 598/581/143 408/573/137 585/612/153
f 604/613/87 396/614/154 591/590/147
f 605/605/98 416/615/51 606/616/155
f 602/598/104 422/617/56 607/618/99
f 597/580/66 403/576/21 586/619/39
f 608/620/49 416/621/51 414/622/156
f 607/623/99 420/610/139 594/624/115
f 587/578/66 390/601/149 426/625/134
f 608/620/49 489/626/65 612/627/37
f 617/628/141 446/629/46 445/630/53
f 618/631/88 448/632/39 447/633/142
f 633/634/66 449/635/66 619/636/66
f 634/637/157 451/638/112 620/639/112
f 621/640/31 454/641/158 453/642/31
f 636/643/37 455/644/86 622/645/86
f 637/646/159 520/647/107 647/648/71
f 638/649/42 482/650/160 642/651/62
f 623/652/160 460/653/161 624/654/104
f 621/655/31 461/656/80 625/657/80
f 626/658/87 455/644/86 462/659/162
f 618/631/88 459/660/151 638/649/42
f 627/661/163 445/630/53 463/662/98
f 639/663/37 456/664/37 636/643/37
f 640/665/115 506/666/76 645/667/76
f 631/668/153 451/638/112 446/629/46
f 626/669/87 457/670/147 637/646/159
f 628/671/164 463/662/98 466/672/155
f 629/673/99 460/653/161 467/674/99
f 619/636/66 448/632/39 632/675/39
f 630/676/49 466/677/155 468/678/49
f 640/665/115 467/679/99 465/680/115
f 633/634/66 461/656/80 450/681/66
f 644/682/37 468/678/49 494/683/37
f 545/406/1 513/684/2 551/685/1
f 507/686/165 546/465/1 552/687/1
f 474/470/1 511/688/1 514/689/1
f 469/474/1 512/690/1 510/691/1
f 472/473/1 514/689/1 512/690/1
f 518/692/166 577/490/20 583/693/20
f 578/549/20 508/694/148 584/695/20
f 516/696/20 480/554/20 519/697/20
f 517/698/20 475/558/20 515/699/20
f 519/697/20 478/557/20 517/698/20
f 589/700/30 477/701/25 391/585/144
f 616/702/160 479/595/78 518/703/166
f 635/704/30 481/705/71 454/641/158
f 642/651/62 509/706/160 648/707/160
f 547/435/1 496/708/5 550/709/1
f 531/431/1 486/710/167 349/429/127
f 503/711/1 483/456/1 495/712/1
f 497/713/1 487/455/1 503/711/1
f 499/714/52 579/523/20 582/715/20
f 563/518/20 491/716/61 580/717/20
f 505/718/20 488/719/20 492/542/20
f 500/720/20 492/542/20 490/567/20
f 588/721/157 491/722/61 409/582/23
f 612/627/37 499/723/52 614/724/37
f 634/637/157 493/725/76 452/726/103
f 646/727/37 494/683/37 501/728/37
f 548/729/168 502/446/13 486/710/167
f 580/717/20 504/730/61 581/533/20
f 611/731/76 504/611/61 491/722/61
f 643/732/76 506/666/76 493/725/76
f 550/709/1 326/467/5 521/733/1
f 503/711/1 325/485/1 379/458/1
f 497/713/1 379/458/1 358/439/1
f 386/550/65 582/715/20 553/551/20
f 385/568/20 505/718/20 439/543/20
f 439/543/20 500/720/20 418/529/20
f 614/724/37 386/734/65 593/607/37
f 639/663/37 501/728/37 464/735/37
f 615/592/105 477/701/25 609/736/107
f 641/737/107 520/647/107 481/705/71
f 551/685/1 371/738/2 542/475/1
f 525/419/1 507/686/165 552/687/1
f 514/689/1 370/739/1 384/477/1
f 510/691/1 372/487/1 334/478/1
f 512/690/1 384/477/1 372/487/1
f 431/740/169 583/693/20 574/560/20
f 557/504/20 508/694/148 396/741/154
f 430/742/20 519/697/20 444/562/20
f 432/571/20 515/699/20 394/506/20
f 444/562/20 517/698/20 432/571/20
f 616/702/160 431/743/169 601/596/62
f 648/707/160 458/744/160 623/652/160
f 340/448/1 545/406/1 470/471/1
f 328/449/1 540/409/1 365/745/1
f 346/481/1 543/415/1 375/746/1
f 330/747/170 523/417/1 332/748/171
f 523/417/1 331/749/172 332/748/171
f 336/750/173 526/421/1 338/751/174
f 526/421/1 337/424/124 338/751/174
f 333/469/1 541/466/1 527/422/1
f 528/427/1 341/412/1 339/411/1
f 341/412/1 530/404/1 340/448/1
f 531/431/1 347/482/1 345/483/1
f 347/482/1 533/413/1 346/481/1
f 352/454/1 547/435/1 483/456/1
f 354/752/95 535/437/1 356/753/175
f 535/437/1 355/480/133 356/753/175
f 537/441/1 362/754/176 360/445/129
f 362/754/176 539/443/1 361/476/132
f 497/713/1 537/441/1 549/444/1
f 373/479/1 540/409/1 544/460/1
f 546/465/1 327/463/1 469/474/1
f 363/486/1 521/733/1 541/466/1
f 370/739/1 539/443/1 357/442/1
f 351/452/1 543/415/1 536/438/1
f 339/411/1 544/460/1 528/427/1
f 470/471/1 551/685/1 511/688/1
f 552/687/1 469/474/1 510/691/1
f 483/456/1 550/709/1 495/712/1
f 345/483/1 548/729/168 531/431/1
f 485/484/1 549/444/1 548/729/168
f 495/712/1 521/733/1 325/485/1
f 511/688/1 542/475/1 370/739/1
f 334/478/1 552/687/1 510/691/1
f 577/490/20 400/555/20 476/755/20
f 572/493/20 388/501/20 425/563/20
f 575/499/20 406/564/20 435/540/20
f 390/756/149 555/503/20 554/492/20
f 391/757/144 555/503/20 392/758/145
f 396/741/154 558/508/20 557/504/20
f 397/759/146 558/508/20 398/760/150
f 393/552/20 573/510/20 423/569/20
f 401/536/20 560/513/20 399/495/20
f 401/536/20 562/489/20 561/511/20
f 407/565/20 563/518/20 405/566/20
f 407/565/20 565/498/20 564/516/20
f 579/523/20 412/525/20 488/719/20
f 414/761/156 567/527/20 566/522/20
f 415/762/152 567/527/20 416/763/51
f 422/764/56 569/530/20 420/534/139
f 422/764/56 571/561/20 570/528/20
f 500/720/20 569/530/20 418/529/20
f 433/496/20 572/493/20 425/563/20
f 387/547/20 578/549/20 475/558/20
f 423/569/20 553/551/20 385/568/20
f 571/561/20 430/742/20 417/531/20
f 411/539/20 575/499/20 435/540/20
f 399/495/20 576/545/20 433/496/20
f 583/693/20 476/755/20 516/696/20
f 475/558/20 584/695/20 515/699/20
f 582/715/20 488/719/20 498/765/20
f 405/566/20 580/717/20 490/567/20
f 490/567/20 581/533/20 500/720/20
f 553/551/20 498/765/20 385/568/20
f 574/560/20 516/696/20 430/742/20
f 394/506/20 584/695/20 557/504/20
f 446/629/46 595/572/141 445/630/53
f 448/632/39 596/575/142 447/633/142
f 450/681/66 597/580/66 449/635/66
f 451/638/112 588/721/157 598/581/143
f 454/641/158 599/584/31 453/642/31
f 456/664/37 600/589/86 455/644/86
f 520/647/107 591/590/147 615/592/105
f 482/650/160 592/604/151 610/593/62
f 460/653/161 601/596/62 602/598/104
f 461/656/80 599/766/31 603/599/80
f 455/644/86 604/603/87 462/659/162
f 447/633/142 592/604/151 459/660/151
f 445/630/53 605/605/98 463/662/98
f 456/664/37 593/607/37 590/587/37
f 465/680/115 613/609/76 506/666/76
f 446/629/46 598/581/143 585/612/153
f 457/670/147 604/613/87 591/590/147
f 463/662/98 606/616/155 466/672/155
f 460/653/161 607/618/99 467/674/99
f 448/632/39 597/580/66 586/619/39
f 468/678/49 606/767/155 608/620/49
f 467/679/99 594/624/115 465/680/115
f 461/656/80 587/578/66 450/681/66
f 494/683/37 608/620/49 612/627/37
f 454/641/158 609/736/107 589/700/30
f 509/706/160 610/593/62 616/702/160
f 493/725/76 588/721/157 452/726/103
f 501/728/37 612/627/37 614/724/37
f 506/666/76 611/731/76 493/725/76
f 464/735/37 614/724/37 593/607/37
f 520/647/107 609/736/107 481/705/71
f 458/744/160 616/702/160 601/596/62
f 348/768/128 617/628/141 376/769/123
f 344/770/177 632/675/39 618/631/88
f 374/771/130 633/634/66 619/636/66
f 350/772/178 634/637/157 620/639/112
f 331/773/172 621/640/31 332/774/171
f 337/775/124 636/643/37 622/645/86
f 336/776/173 647/648/71 507/777/165
f 342/778/126 642/651/62 473/779/121
f 361/780/132 623/652/160 624/654/104
f 330/781/170 621/655/31 625/657/80
f 337/775/124 626/658/87 338/782/174
f 344/770/177 638/649/42 342/778/126
f 376/769/123 627/661/163 355/783/133
f 364/784/5 639/663/37 636/643/37
f 360/785/129 645/667/76 502/786/13
f 350/772/178 631/668/153 348/768/128
f 338/787/174 637/646/159 336/776/173
f 355/783/133 628/671/164 356/788/175
f 361/780/132 629/673/99 362/789/176
f 374/771/130 632/675/39 343/790/125
f 356/791/175 630/676/49 354/792/95
f 362/793/176 640/665/115 360/785/129
f 366/794/122 625/657/80 633/634/66
f 354/792/95 644/682/37 484/795/5
f 471/796/131 635/704/30 331/773/172
f 473/779/121 648/707/160 513/797/2
f 349/798/127 643/732/76 634/637/157
f 484/795/5 646/727/37 496/799/5
f 502/786/13 643/732/76 486/800/167
f 326/801/5 646/727/37 639/663/37
f 507/777/165 641/737/107 471/796/131
f 371/802/2 648/707/160 623/652/160
f 530/404/1 342/428/126 473/405/121
f 522/407/1 330/747/170 366/408/122
f 381/410/1 373/479/1 339/411/1
f 533/413/1 348/432/128 376/414/123
f 522/407/1 328/449/1 329/416/1
f 329/416/1 327/463/1 524/418/1
f 525/419/1 334/478/1 335/420/1
f 335/420/1 333/469/1 527/422/1
f 527/422/1 541/466/1 364/423/5
f 343/425/125 344/803/177 529/426/1
f 529/426/1 344/803/177 342/428/126
f 349/429/127 350/804/178 532/430/1
f 532/430/1 350/804/178 348/432/128
f 534/433/1 354/752/95 484/434/5
f 534/433/1 352/454/1 353/436/1
f 353/436/1 351/452/1 536/438/1
f 358/439/1 359/457/1 538/440/1
f 538/440/1 359/457/1 357/442/1
f 549/444/1 537/441/1 360/445/129
f 382/447/1 381/410/1 341/412/1
f 328/449/1 365/745/1 367/450/1
f 377/451/1 375/746/1 351/452/1
f 378/453/1 377/451/1 353/436/1
f 487/455/1 378/453/1 352/454/1
f 359/457/1 358/439/1 379/458/1
f 544/460/1 540/409/1 366/408/122
f 329/416/1 367/450/1 368/462/1
f 471/464/131 331/749/172 524/418/1
f 541/466/1 521/733/1 326/467/5
f 369/468/1 363/486/1 333/469/1
f 474/470/1 382/447/1 340/448/1
f 383/472/1 357/442/1 359/457/1
f 327/463/1 368/462/1 472/473/1
f 542/475/1 371/738/2 361/476/132
f 384/477/1 370/739/1 357/442/1
f 334/478/1 372/487/1 369/468/1
f 367/450/1 365/745/1 373/479/1
f 536/438/1 543/415/1 376/414/123
f 368/462/1 367/450/1 381/410/1
f 346/481/1 375/746/1 377/451/1
f 347/482/1 377/451/1 378/453/1
f 485/484/1 345/483/1 378/453/1
f 380/459/1 379/458/1 325/485/1
f 528/427/1 544/460/1 374/461/130
f 368/462/1 382/447/1 474/470/1
f 369/468/1 383/472/1 380/459/1
f 372/487/1 384/477/1 383/472/1
f 479/488/78 402/514/22 562/489/20
f 426/491/134 390/756/149 554/492/20
f 441/494/20 401/536/20 399/495/20
f 436/497/135 408/519/137 565/498/20
f 554/492/20 555/503/20 389/500/20
f 556/502/20 387/547/20 389/500/20
f 557/504/20 558/508/20 395/505/20
f 559/507/20 393/552/20 395/505/20
f 559/507/20 397/759/146 424/509/65
f 561/511/20 404/515/136 403/512/21
f 561/511/20 562/489/20 402/514/22
f 564/516/20 410/520/138 409/517/23
f 564/516/20 565/498/20 408/519/137
f 489/521/65 414/761/156 566/522/20
f 566/522/20 567/527/20 413/524/20
f 568/526/20 411/539/20 413/524/20
f 570/528/20 419/532/20 418/529/20
f 570/528/20 571/561/20 417/531/20
f 581/533/20 504/730/61 420/534/139
f 442/535/20 400/555/20 401/536/20
f 427/537/20 425/563/20 388/501/20
f 437/538/20 413/524/20 411/539/20
f 438/541/20 412/525/20 413/524/20
f 492/542/20 488/719/20 412/525/20
f 439/543/20 418/529/20 419/532/20
f 576/545/20 434/570/43 426/491/134
f 428/546/20 427/537/20 389/500/20
f 556/502/20 391/757/144 477/548/25
f 573/510/20 424/509/65 386/550/65
f 393/552/20 423/569/20 429/553/20
f 480/554/20 476/755/20 400/555/20
f 419/532/20 417/531/20 443/556/20
f 478/557/20 428/546/20 387/547/20
f 421/559/140 431/740/169 574/560/20
f 417/531/20 430/742/20 444/562/20
f 429/553/20 432/571/20 394/506/20
f 427/537/20 441/494/20 433/496/20
f 568/526/20 415/762/152 436/497/135
f 428/546/20 442/535/20 441/494/20
f 437/538/20 435/540/20 406/564/20
f 438/541/20 437/538/20 407/565/20
f 490/567/20 492/542/20 438/541/20
f 385/568/20 439/543/20 440/544/20
f 560/513/20 403/512/21 434/570/43
f 480/554/20 442/535/20 428/546/20
f 440/544/20 443/556/20 429/553/20
f 443/556/20 444/562/20 432/571/20
f 595/572/141 585/612/153 408/573/137
f 596/575/142 586/619/39 403/576/21
f 587/578/66 426/625/134 434/579/43
f 598/581/143 588/721/157 409/582/23
f 599/584/31 589/700/30 391/585/144
f 590/587/37 424/608/65 397/588/146
f 591/590/147 396/614/154 508/591/148
f 610/593/62 592/604/151 402/594/22
f 601/596/62 431/743/169 421/597/140
f 603/599/80 599/766/31 392/600/145
f 600/589/86 397/588/146 398/602/150
f 592/604/151 596/575/142 404/577/136
f 605/605/98 595/572/141 436/574/135
f 593/607/37 386/734/65 424/608/65
f 613/609/76 594/624/115 420/610/139
f 598/581/143 410/583/138 408/573/137
f 604/613/87 398/805/150 396/614/154
f 605/605/98 415/606/152 416/615/51
f 602/598/104 421/597/140 422/617/56
f 597/580/66 434/579/43 403/576/21
f 608/620/49 606/767/155 416/621/51
f 607/623/99 422/806/56 420/610/139
f 587/578/66 603/599/80 390/601/149
f 608/620/49 414/622/156 489/626/65
f 617/628/141 631/668/153 446/629/46
f 618/631/88 632/675/39 448/632/39
f 633/634/66 450/681/66 449/635/66
f 634/637/157 452/726/103 451/638/112
f 621/640/31 635/704/30 454/641/158
f 636/643/37 456/664/37 455/644/86
f 637/646/159 457/670/147 520/647/107
f 638/649/42 459/660/151 482/650/160
f 623/652/160 458/744/160 460/653/161
f 621/655/31 453/807/31 461/656/80
f 626/658/87 622/645/86 455/644/86
f 618/631/88 447/633/142 459/660/151
f 627/661/163 617/628/141 445/630/53
f 639/663/37 464/735/37 456/664/37
f 640/665/115 465/680/115 506/666/76
f 631/668/153 620/639/112 451/638/112
f 626/669/87 462/808/162 457/670/147
f 628/671/164 627/661/163 463/662/98
f 629/673/99 624/654/104 460/653/161
f 619/636/66 449/635/66 448/632/39
f 630/676/49 628/809/164 466/677/155
f 640/665/115 629/810/99 467/679/99
f 633/634/66 625/657/80 461/656/80
f 644/682/37 630/676/49 468/678/49
f 545/406/1 473/405/121 513/684/2
f 507/686/165 471/464/131 546/465/1
f 474/470/1 470/471/1 511/688/1
f 469/474/1 472/473/1 512/690/1
f 472/473/1 474/470/1 514/689/1
f 518/692/166 479/488/78 577/490/20
f 578/549/20 477/548/25 508/694/148
f 516/696/20 476/755/20 480/554/20
f 517/698/20 478/557/20 475/558/20
f 519/697/20 480/554/20 478/557/20
f 589/700/30 609/736/107 477/701/25
f 616/702/160 610/593/62 479/595/78
f 635/704/30 641/737/107 481/705/71
f 642/651/62 482/650/160 509/706/160
f 547/435/1 484/434/5 496/708/5
f 531/431/1 548/729/168 486/710/167
f 503/711/1 487/455/1 483/456/1
f 497/713/1 485/484/1 487/455/1
f 499/714/52 489/521/65 579/523/20
f 563/518/20 409/517/23 491/716/61
f 505/718/20 498/765/20 488/719/20
f 500/720/20 505/718/20 492/542/20
f 588/721/157 611/731/76 491/722/61
f 612/627/37 489/626/65 499/723/52
f 634/637/157 643/732/76 493/725/76
f 646/727/37 644/682/37 494/683/37
f 548/729/168 549/444/1 502/446/13
f 580/717/20 491/716/61 504/730/61
f 611/731/76 613/609/76 504/611/61
f 643/732/76 645/667/76 506/666/76
f 550/709/1 496/708/5 326/467/5
f 503/711/1 495/712/1 325/485/1
f 497/713/1 503/711/1 379/458/1
f 386/550/65 499/714/52 582/715/20
f 385/568/20 498/765/20 505/718/20
f 439/543/20 505/718/20 500/720/20
f 614/724/37 499/723/52 386/734/65
f 639/663/37 646/727/37 501/728/37
f 615/592/105 508/591/148 477/701/25
f 641/737/107 647/648/71 520/647/107
f 551/685/1 513/684/2 371/738/2
f 525/419/1 336/750/173 507/686/165
f 514/689/1 511/688/1 370/739/1
f 510/691/1 512/690/1 372/487/1
f 512/690/1 514/689/1 384/477/1
f 431/740/169 518/692/166 583/693/20
f 557/504/20 584/695/20 508/694/148
f 430/742/20 516/696/20 519/697/20
f 432/571/20 517/698/20 515/699/20
f 444/562/20 519/697/20 517/698/20
f 616/702/160 518/703/166 431/743/169
f 648/707/160 509/706/160 458/744/160
f 340/448/1 530/404/1 545/406/1
f 328/449/1 522/407/1 540/409/1
f 346/481/1 533/413/1 543/415/1
f 330/747/170 522/407/1 523/417/1
f 523/417/1 524/418/1 331/749/172
f 336/750/173 525/419/1 526/421/1
f 526/421/1 527/422/1 337/424/124
f 333/469/1 363/486/1 541/466/1
f 528/427/1 529/426/1 341/412/1
f 341/412/1 529/426/1 530/404/1
f 531/431/1 532/430/1 347/482/1
f 347/482/1 532/430/1 533/413/1
f 352/454/1 534/433/1 547/435/1
f 354/752/95 534/433/1 535/437/1
f 535/437/1 536/438/1 355/480/133
f 537/441/1 538/440/1 362/754/176
f 362/754/176 538/440/1 539/443/1
f 497/713/1 358/439/1 537/441/1
f 373/479/1 365/745/1 540/409/1
f 546/465/1 524/418/1 327/463/1
f 363/486/1 325/485/1 521/733/1
f 370/739/1 542/475/1 539/443/1
f 351/452/1 375/746/1 543/415/1
f 339/411/1 373/479/1 544/460/1
f 470/471/1 545/406/1 551/685/1
f 552/687/1 546/465/1 469/474/1
f 483/456/1 547/435/1 550/709/1
f 345/483/1 485/484/1 548/729/168
f 485/484/1 497/713/1 549/444/1
f 495/712/1 550/709/1 521/733/1
f 511/688/1 551/685/1 542/475/1
f 334/478/1 525/419/1 552/687/1
f 577/490/20 562/489/20 400/555/20
f 572/493/20 554/492/20 388/501/20
f 575/499/20 565/498/20 406/564/20
f 390/756/149 392/758/145 555/503/20
f 391/757/144 556/502/20 555/503/20
f 396/741/154 398/760/150 558/508/20
f 397/759/146 559/507/20 558/508/20
f 393/552/20 559/507/20 573/510/20
f 401/536/20 561/511/20 560/513/20
f 401/536/20 400/555/20 562/489/20
f 407/565/20 564/516/20 563/518/20
f 407/565/20 406/564/20 565/498/20
f 579/523/20 566/522/20 412/525/20
f 414/761/156 416/763/51 567/527/20
f 415/762/152 568/526/20 567/527/20
f 422/764/56 570/528/20 569/530/20
f 422/764/56 421/559/140 571/561/20
f 500/720/20 581/533/20 569/530/20
f 433/496/20 576/545/20 572/493/20
f 387/547/20 556/502/20 578/549/20
f 423/569/20 573/510/20 553/551/20
f 571/561/20 574/560/20 430/742/20
f 411/539/20 568/526/20 575/499/20
f 399/495/20 560/513/20 576/545/20
f 583/693/20 577/490/20 476/755/20
f 475/558/20 578/549/20 584/695/20
f 582/715/20 579/523/20 488/719/20
f 405/566/20 563/518/20 580/717/20
f 490/567/20 580/717/20 581/533/20
f 553/551/20 582/715/20 498/765/20
f 574/560/20 583/693/20 516/696/20
f 394/506/20 515/699/20 584/695/20
f 446/629/46 585/612/153 595/572/141
f 448/632/39 586/619/39 596/575/142
f 450/681/66 587/578/66 597/580/66
f 451/638/112 452/726/103 588/721/157
f 454/641/158 589/700/30 599/584/31
f 456/664/37 590/587/37 600/589/86
f 520/647/107 457/670/147 591/590/147
f 482/650/160 459/660/151 592/604/151
f 460/653/161 458/744/160 601/596/62
f 461/656/80 453/807/31 599/766/31
f 455/644/86 600/589/86 604/603/87
f 447/633/142 596/575/142 592/604/151
f 445/630/53 595/572/141 605/605/98
f 456/664/37 464/735/37 593/607/37
f 465/680/115 594/624/115 613/609/76
f 446/629/46 451/638/112 598/581/143
f 457/670/147 462/808/162 604/613/87
f 463/662/98 605/605/98 606/616/155
f 460/653/161 602/598/104 607/618/99
f 448/632/39 449/635/66 597/580/66
f 468/678/49 466/677/155 606/767/155
f 467/679/99 607/623/99 594/624/115
f 461/656/80 603/599/80 587/578/66
f 494/683/37 468/678/49 608/620/49
f 454/641/158 481/705/71 609/736/107
f 509/706/160 482/650/160 610/593/62
f 493/725/76 611/731/76 588/721/157
f 501/728/37 494/683/37 612/627/37
f 506/666/76 613/609/76 611/731/76
f 464/735/37 501/728/37 614/724/37
f 520/647/107 615/592/105 609/736/107
f 458/744/160 509/706/160 616/702/160
f 348/768/128 631/668/153 617/628/141
f 344/770/177 343/790/125 632/675/39
f 374/771/130 366/794/122 633/634/66
f 350/772/178 349/798/127 634/637/157
f 331/773/172 635/704/30 621/640/31
f 337/775/124 364/784/5 636/643/37
f 336/776/173 637/646/159 647/648/71
f 342/778/126 638/649/42 642/651/62
f 361/780/132 371/802/2 623/652/160
f 330/781/170 332/811/171 621/655/31
f 337/775/124 622/645/86 626/658/87
f 344/770/177 618/631/88 638/649/42
f 376/769/123 617/628/141 627/661/163
f 364/784/5 326/801/5 639/663/37
f 360/785/129 640/665/115 645/667/76
f 350/772/178 620/639/112 631/668/153
f 338/787/174 626/669/87 637/646/159
f 355/783/133 627/661/163 628/671/164
f 361/780/132 624/654/104 629/673/99
f 374/771/130 619/636/66 632/675/39
f 356/791/175 628/809/164 630/676/49
f 362/793/176 629/810/99 640/665/115
f 366/794/122 330/781/170 625/657/80
f 354/792/95 630/676/49 644/682/37
f 471/796/131 641/737/107 635/704/30
f 473/779/121 642/651/62 648/707/160
f 349/798/127 486/800/167 643/732/76
f 484/795/5 644/682/37 646/727/37
f 502/786/13 645/667/76 643/732/76
f 326/801/5 496/799/5 646/727/37
f 507/777/165 647/648/71 641/737/107
f 371/802/2 513/797/2 648/707/160
