# Blender v3.6.23 OBJ File: 'classroom.blend'
# www.blender.org
o surface_collision_Plane.004
v 0.362967 -1.036334 0.787168
v 0.368377 -1.039147 0.787157
v 0.173161 -0.566905 0.801599
v 0.109615 -0.596841 0.799351
v 0.135344 -0.569043 0.800855
v 0.106020 -0.589210 0.799577
v 0.169566 -0.559274 0.801825
v 0.131748 -0.561411 0.801080
v 0.473126 -0.727315 0.800795
v 0.440374 -0.659160 0.802799
v 0.471007 -0.686386 0.802307
v 0.448112 -0.655441 0.803076
v 0.480864 -0.723596 0.801072
v 0.478745 -0.682667 0.802583
v 0.036108 -0.793408 0.790623
v 0.061444 -0.859752 0.788557
v 0.036660 -0.831207 0.789202
v 0.053921 -0.862626 0.788316
v 0.028584 -0.796281 0.790382
v 0.029137 -0.834080 0.788961
v 0.220710 -1.177694 0.779322
v 0.239135 -1.216060 0.778193
v 0.222300 -1.200537 0.778485
v 0.231590 -1.219684 0.777924
v 0.213164 -1.181318 0.779052
v 0.214755 -1.204161 0.778216
v 0.257968 -1.223116 0.778257
v 0.304009 -1.201725 0.779875
v 0.285491 -1.222110 0.778778
v 0.307638 -1.209535 0.779643
v 0.261596 -1.230926 0.778025
v 0.289119 -1.229920 0.778546
v 0.271552 -0.963445 0.788321
v 0.286905 -1.003544 0.787074
v 0.286720 -0.980456 0.787944
v 0.279579 -1.006516 0.786833
v 0.264220 -0.966419 0.788080
v 0.279390 -0.983429 0.787703
v 0.444306 -0.808159 0.797230
v 0.450511 -0.808744 0.797317
v 0.083785 -0.665914 0.796284
v 0.078017 -0.664091 0.796252
v 0.096894 -0.671189 0.796314
v 0.129633 -0.681006 0.796518
v 0.401185 -0.783374 0.797411
v 0.241936 -0.948829 0.788355
v 0.234578 -0.951789 0.788113
v 0.365414 -0.766653 0.797416
v 0.048281 -0.760856 0.792068
v 0.042463 -0.759167 0.792030
v 0.248551 -1.219588 0.778225
v 0.246593 -1.225305 0.777974
v 0.253895 -1.211324 0.778632
v 0.262359 -1.189709 0.779598
v 0.324936 -1.019939 0.787121
v 0.361431 -0.905759 0.792082
v 0.060315 -0.768365 0.791995
v 0.089374 -0.786541 0.791818
v 0.326479 -0.887147 0.792173
v 0.293058 -0.872966 0.792123
v 0.214969 -0.581339 0.801787
v 0.089684 -0.873689 0.788525
v 0.213147 -0.574320 0.802021
v 0.166524 -0.694407 0.796658
v 0.082186 -0.876576 0.788284
v 0.121242 -0.800063 0.791865
v 0.310943 -1.182275 0.780732
v 0.314781 -1.189498 0.780526
v 0.228494 -1.157215 0.780233
v 0.220974 -1.160762 0.779967
v 0.269718 -1.169745 0.780483
v 0.353741 -1.062215 0.786027
v 0.358872 -1.065810 0.785981
v 0.276547 -1.030796 0.785861
v 0.269186 -1.033870 0.785615
v 0.315144 -1.046506 0.785944
v 0.330630 -0.614880 0.802548
v 0.327671 -0.620250 0.802293
v 0.165810 -0.911259 0.788440
v 0.265969 -0.730530 0.797037
v 0.158382 -0.914182 0.788199
v 0.207150 -0.836514 0.791994
v 0.363023 -1.036213 0.783970
v 0.368433 -1.039026 0.783959
v 0.173217 -0.566784 0.798402
v 0.109671 -0.596720 0.796154
v 0.135400 -0.568922 0.797657
v 0.106076 -0.589089 0.796379
v 0.169622 -0.559153 0.798627
v 0.131804 -0.561290 0.797883
v 0.473182 -0.727194 0.797598
v 0.440430 -0.659039 0.799602
v 0.471063 -0.686265 0.799109
v 0.448168 -0.655320 0.799878
v 0.480920 -0.723475 0.797874
v 0.478801 -0.682546 0.799386
v 0.036164 -0.793287 0.787425
v 0.061501 -0.859631 0.785359
v 0.036716 -0.831086 0.786004
v 0.053977 -0.862505 0.785118
v 0.028640 -0.796160 0.787184
v 0.029193 -0.833960 0.785764
v 0.220766 -1.177573 0.776124
v 0.239191 -1.215939 0.774996
v 0.222356 -1.200417 0.775288
v 0.231646 -1.219563 0.774726
v 0.213220 -1.181197 0.775854
v 0.214811 -1.204040 0.775018
v 0.258024 -1.222995 0.775059
v 0.304065 -1.201604 0.776677
v 0.285547 -1.221989 0.775581
v 0.307694 -1.209414 0.776445
v 0.261653 -1.230805 0.774827
v 0.289175 -1.229799 0.775349
v 0.271608 -0.963324 0.785124
v 0.286961 -1.003423 0.783876
v 0.286776 -0.980335 0.784746
v 0.279635 -1.006395 0.783635
v 0.264277 -0.966298 0.784883
v 0.279446 -0.983308 0.784505
v 0.444363 -0.808038 0.794033
v 0.450567 -0.808623 0.794119
v 0.083841 -0.665793 0.793086
v 0.078073 -0.663970 0.793054
v 0.096950 -0.671068 0.793117
v 0.129690 -0.680885 0.793320
v 0.401241 -0.783253 0.794213
v 0.241993 -0.948708 0.785157
v 0.234634 -0.951668 0.784916
v 0.365470 -0.766532 0.794218
v 0.048337 -0.760735 0.788870
v 0.042520 -0.759046 0.788832
v 0.248607 -1.219467 0.775028
v 0.246649 -1.225184 0.774777
v 0.253951 -1.211203 0.775434
v 0.262415 -1.189588 0.776401
v 0.324992 -1.019818 0.783923
v 0.361487 -0.905638 0.788885
v 0.060371 -0.768244 0.788798
v 0.089430 -0.786420 0.788620
v 0.326535 -0.887026 0.788975
v 0.293114 -0.872845 0.788925
v 0.215025 -0.581218 0.798590
v 0.089740 -0.873568 0.785328
v 0.213203 -0.574199 0.798823
v 0.166580 -0.694286 0.793461
v 0.082243 -0.876455 0.785087
v 0.121298 -0.799942 0.788668
v 0.310999 -1.182154 0.777535
v 0.314837 -1.189377 0.777329
v 0.228550 -1.157094 0.777036
v 0.221030 -1.160641 0.776769
v 0.269774 -1.169624 0.777285
v 0.353797 -1.062094 0.782829
v 0.358929 -1.065690 0.782783
v 0.276603 -1.030675 0.782663
v 0.269242 -1.033749 0.782417
v 0.315200 -1.046385 0.782746
v 0.330686 -0.614760 0.799351
v 0.327728 -0.620129 0.799096
v 0.165866 -0.911138 0.785242
v 0.266025 -0.730409 0.793839
v 0.158438 -0.914061 0.785001
v 0.207206 -0.836394 0.788796
v 0.368386 -1.039129 0.786672
v 0.106028 -0.589191 0.799092
v 0.169575 -0.559255 0.801340
v 0.131757 -0.561393 0.800596
v 0.448121 -0.655423 0.802591
v 0.480872 -0.723578 0.800587
v 0.478754 -0.682649 0.802099
v 0.053929 -0.862607 0.787831
v 0.028593 -0.796263 0.789897
v 0.029145 -0.834062 0.788476
v 0.231598 -1.219665 0.777439
v 0.213173 -1.181299 0.778567
v 0.214763 -1.204143 0.777731
v 0.307647 -1.209516 0.779158
v 0.261605 -1.230908 0.777540
v 0.289128 -1.229902 0.778061
v 0.279587 -1.006497 0.786348
v 0.264229 -0.966400 0.787595
v 0.279398 -0.983411 0.787218
v 0.450519 -0.808725 0.796832
v 0.078026 -0.664073 0.795767
v 0.234586 -0.951770 0.787629
v 0.042472 -0.759148 0.791545
v 0.246602 -1.225287 0.777490
v 0.213156 -0.574302 0.801536
v 0.082195 -0.876558 0.787799
v 0.314789 -1.189479 0.780042
v 0.220983 -1.160743 0.779482
v 0.358881 -1.065792 0.785496
v 0.269194 -1.033851 0.785130
v 0.330638 -0.614862 0.802064
v 0.158391 -0.914164 0.787714
v 0.368423 -1.039048 0.784538
v 0.106065 -0.589111 0.796958
v 0.169612 -0.559175 0.799206
v 0.131794 -0.561312 0.798462
v 0.448158 -0.655342 0.800457
v 0.480910 -0.723497 0.798453
v 0.478791 -0.682568 0.799965
v 0.053967 -0.862527 0.785697
v 0.028630 -0.796182 0.787763
v 0.029183 -0.833981 0.786342
v 0.231636 -1.219585 0.775305
v 0.213210 -1.181219 0.776433
v 0.214801 -1.204062 0.775597
v 0.307684 -1.209436 0.777024
v 0.261642 -1.230827 0.775406
v 0.289165 -1.229821 0.775928
v 0.279625 -1.006417 0.784214
v 0.264266 -0.966320 0.785462
v 0.279436 -0.983330 0.785084
v 0.450557 -0.808645 0.794698
v 0.078063 -0.663992 0.793633
v 0.234624 -0.951689 0.785495
v 0.042509 -0.759068 0.789411
v 0.246639 -1.225206 0.775356
v 0.213193 -0.574221 0.799402
v 0.082232 -0.876477 0.785666
v 0.314827 -1.189399 0.777908
v 0.221020 -1.160663 0.777348
v 0.358918 -1.065711 0.783362
v 0.269232 -1.033771 0.782996
v 0.330676 -0.614781 0.799930
v 0.158428 -0.914083 0.785580
v 0.368405 -1.039088 0.785605
v 0.106047 -0.589151 0.798025
v 0.169593 -0.559215 0.800273
v 0.131776 -0.561352 0.799529
v 0.448139 -0.655382 0.801524
v 0.480891 -0.723538 0.799520
v 0.478773 -0.682609 0.801032
v 0.053948 -0.862567 0.786764
v 0.028612 -0.796223 0.788830
v 0.029164 -0.834022 0.787409
v 0.231617 -1.219625 0.776372
v 0.213191 -1.181259 0.777500
v 0.214782 -1.204103 0.776664
v 0.307665 -1.209476 0.778091
v 0.261624 -1.230868 0.776473
v 0.289146 -1.229861 0.776995
v 0.279606 -1.006457 0.785281
v 0.264248 -0.966360 0.786528
v 0.279417 -0.983371 0.786151
v 0.450538 -0.808685 0.795765
v 0.078045 -0.664033 0.794700
v 0.234605 -0.951730 0.786562
v 0.042491 -0.759108 0.790478
v 0.246620 -1.225246 0.776423
v 0.213174 -0.574261 0.800469
v 0.082214 -0.876517 0.786733
v 0.314808 -1.189439 0.778975
v 0.221002 -1.160703 0.778415
v 0.358900 -1.065752 0.784429
v 0.269213 -1.033811 0.784063
v 0.330657 -0.614822 0.800997
v 0.158409 -0.914124 0.786647
v 0.367077 -1.038471 0.787159
v 0.106884 -0.591045 0.799523
v 0.132613 -0.563246 0.801026
v 0.170430 -0.561108 0.801771
v 0.446252 -0.656335 0.803009
v 0.476885 -0.683561 0.802517
v 0.479003 -0.724490 0.801005
v 0.030393 -0.795591 0.790440
v 0.030945 -0.833390 0.789019
v 0.055730 -0.861935 0.788374
v 0.214978 -1.180446 0.779117
v 0.216569 -1.203290 0.778280
v 0.233404 -1.218812 0.777989
v 0.306766 -1.207657 0.779699
v 0.288247 -1.228043 0.778602
v 0.260724 -1.229048 0.778081
v 0.281340 -1.005801 0.786891
v 0.281152 -0.982715 0.787761
v 0.265983 -0.965704 0.788138
v 0.079404 -0.664529 0.796259
v 0.449019 -0.808603 0.797296
v 0.236347 -0.951077 0.788171
v 0.247064 -1.223931 0.778035
v 0.043862 -0.759573 0.792039
v 0.083989 -0.875882 0.788342
v 0.213585 -0.576008 0.801965
v 0.313858 -1.187761 0.780576
v 0.222782 -1.159909 0.780031
v 0.270955 -1.033131 0.785674
v 0.357639 -1.064946 0.785992
v 0.160168 -0.913480 0.788257
v 0.329918 -0.616171 0.802487
v 0.366865 -1.038210 0.783962
v 0.107118 -0.591301 0.796314
v 0.132847 -0.563502 0.797817
v 0.170664 -0.561365 0.798562
v 0.445925 -0.656398 0.799798
v 0.476558 -0.683624 0.799306
v 0.478677 -0.724553 0.797794
v 0.030821 -0.795328 0.787254
v 0.031374 -0.833127 0.785833
v 0.056158 -0.861672 0.785188
v 0.215408 -1.180146 0.775933
v 0.216998 -1.202990 0.775096
v 0.233833 -1.218512 0.774804
v 0.306642 -1.207150 0.776512
v 0.288123 -1.227535 0.775416
v 0.260601 -1.228541 0.774895
v 0.281759 -1.005533 0.783705
v 0.281571 -0.982447 0.784575
v 0.266402 -0.965436 0.784953
v 0.079745 -0.664499 0.793063
v 0.448768 -0.808453 0.794094
v 0.236767 -0.950810 0.784986
v 0.247217 -1.223527 0.774849
v 0.044206 -0.759535 0.788843
v 0.084416 -0.875618 0.785157
v 0.213732 -0.576234 0.798755
v 0.313724 -1.187283 0.777389
v 0.223210 -1.159612 0.776847
v 0.271376 -1.032858 0.782489
v 0.357441 -1.064647 0.782797
v 0.160592 -0.913214 0.785071
v 0.329828 -0.616316 0.799277
v 0.362967 -1.036334 0.782927
v 0.368377 -1.039147 0.782915
v 0.173161 -0.566905 0.797358
v 0.109615 -0.596841 0.795110
v 0.135343 -0.569043 0.796613
v 0.106019 -0.589210 0.795336
v 0.169566 -0.559274 0.797584
v 0.131748 -0.561411 0.796839
v 0.473125 -0.727315 0.796554
v 0.440374 -0.659160 0.798558
v 0.471007 -0.686386 0.798066
v 0.448112 -0.655441 0.798835
v 0.480864 -0.723596 0.796831
v 0.478745 -0.682667 0.798342
v 0.036108 -0.793408 0.786381
v 0.061444 -0.859752 0.784316
v 0.036660 -0.831207 0.784961
v 0.053921 -0.862625 0.784075
v 0.028584 -0.796281 0.786141
v 0.029137 -0.834080 0.784720
v 0.220709 -1.177694 0.775080
v 0.239135 -1.216060 0.773952
v 0.222300 -1.200537 0.774244
v 0.231590 -1.219684 0.773683
v 0.213164 -1.181318 0.774811
v 0.214755 -1.204161 0.773974
v 0.257968 -1.223116 0.774016
v 0.304009 -1.201724 0.775633
v 0.285491 -1.222110 0.774537
v 0.307638 -1.209535 0.775402
v 0.261596 -1.230926 0.773784
v 0.289119 -1.229920 0.774305
v 0.271552 -0.963445 0.784080
v 0.286905 -1.003544 0.782832
v 0.286720 -0.980456 0.783703
v 0.279579 -1.006516 0.782591
v 0.264220 -0.966419 0.783839
v 0.279390 -0.983429 0.783462
v 0.444306 -0.808159 0.792989
v 0.450511 -0.808743 0.793076
v 0.083785 -0.665913 0.792043
v 0.078017 -0.664091 0.792010
v 0.096894 -0.671189 0.792073
v 0.129633 -0.681006 0.792277
v 0.401185 -0.783374 0.793170
v 0.241936 -0.948829 0.784113
v 0.234578 -0.951788 0.783872
v 0.365414 -0.766652 0.793175
v 0.048281 -0.760855 0.787827
v 0.042463 -0.759167 0.787789
v 0.248551 -1.219588 0.773984
v 0.246593 -1.225305 0.773733
v 0.253895 -1.211324 0.774390
v 0.262359 -1.189709 0.775357
v 0.324936 -1.019939 0.782880
v 0.361431 -0.905758 0.787841
v 0.060315 -0.768364 0.787754
v 0.089374 -0.786541 0.787576
v 0.326479 -0.887147 0.787932
v 0.293058 -0.872966 0.787881
v 0.363258 -1.035708 0.766388
v 0.368668 -1.038521 0.766377
v 0.173452 -0.566279 0.780819
v 0.109905 -0.596215 0.778571
v 0.135634 -0.568417 0.780075
v 0.106310 -0.588584 0.778797
v 0.169856 -0.558648 0.781045
v 0.132039 -0.560785 0.780300
v 0.473416 -0.726689 0.780015
v 0.440664 -0.658534 0.782019
v 0.471297 -0.685760 0.781527
v 0.448402 -0.654815 0.782296
v 0.481154 -0.722970 0.780292
v 0.479036 -0.682041 0.781803
v 0.036398 -0.792782 0.769843
v 0.061735 -0.859126 0.767777
v 0.036950 -0.830581 0.768422
v 0.054211 -0.862000 0.767536
v 0.028875 -0.795655 0.769602
v 0.029427 -0.833454 0.768181
v 0.221000 -1.177068 0.758542
v 0.239425 -1.215434 0.757413
v 0.222591 -1.199912 0.757705
v 0.231880 -1.219058 0.757144
v 0.213455 -1.180692 0.758272
v 0.215045 -1.203535 0.757436
v 0.258258 -1.222490 0.757477
v 0.304300 -1.201098 0.759095
v 0.285781 -1.221484 0.757998
v 0.307928 -1.208909 0.758863
v 0.261887 -1.230300 0.757245
v 0.289410 -1.229294 0.757766
v 0.271842 -0.962819 0.767541
v 0.287196 -1.002918 0.766294
v 0.287010 -0.979830 0.767164
v 0.279869 -1.005890 0.766053
v 0.264511 -0.965793 0.767300
v 0.279680 -0.982803 0.766923
v 0.444597 -0.807533 0.776450
v 0.450801 -0.808118 0.776537
v 0.084075 -0.665288 0.775504
v 0.078308 -0.663465 0.775472
v 0.097184 -0.670563 0.775534
v 0.129924 -0.680380 0.775738
v 0.401475 -0.782748 0.776631
v 0.242227 -0.948203 0.767575
v 0.234868 -0.951163 0.767333
v 0.365704 -0.766027 0.776636
v 0.048571 -0.760230 0.771288
v 0.042754 -0.758541 0.771250
v 0.248842 -1.218962 0.757445
v 0.246883 -1.224679 0.757194
v 0.254186 -1.210698 0.757852
v 0.262650 -1.189083 0.758818
v 0.325227 -1.019313 0.766341
v 0.361722 -0.905133 0.771302
v 0.060606 -0.767739 0.771215
v 0.089664 -0.785915 0.771038
v 0.326769 -0.886521 0.771393
v 0.293348 -0.872340 0.771343
v 0.246738 -1.224992 0.765464
v 0.231735 -1.219371 0.765413
v 0.029282 -0.833767 0.776451
v 0.028729 -0.795968 0.777871
v 0.042609 -0.758854 0.779519
v 0.078162 -0.663778 0.783741
v 0.214900 -1.203848 0.765705
v 0.213309 -1.181005 0.766541
v 0.131893 -0.561098 0.788570
v 0.169711 -0.558961 0.789315
v 0.481009 -0.723283 0.788561
v 0.450656 -0.808431 0.784806
v 0.448257 -0.655128 0.790565
v 0.234723 -0.951476 0.775603
v 0.054066 -0.862312 0.775805
v 0.264366 -0.966106 0.775570
v 0.106165 -0.588897 0.787066
v 0.478890 -0.682354 0.790073
v 0.261742 -1.230613 0.765514
v 0.368523 -1.038834 0.774646
v 0.279724 -1.006202 0.774322
v 0.289264 -1.229607 0.766036
v 0.279535 -0.983116 0.775192
v 0.307783 -1.209222 0.767132
v 0.214969 -0.581339 0.797546
v 0.089684 -0.873689 0.784284
v 0.213147 -0.574320 0.797780
v 0.166524 -0.694406 0.792417
v 0.082186 -0.876576 0.784043
v 0.121242 -0.800063 0.787624
v 0.215259 -0.580713 0.781007
v 0.089974 -0.873063 0.767745
v 0.213438 -0.573694 0.781241
v 0.166814 -0.693781 0.775878
v 0.082477 -0.875950 0.767504
v 0.121532 -0.799437 0.771085
v 0.213292 -0.574007 0.789510
v 0.082332 -0.876263 0.775774
v 0.310942 -1.182275 0.776491
v 0.314781 -1.189498 0.776285
v 0.228494 -1.157215 0.775992
v 0.220974 -1.160762 0.775726
v 0.269718 -1.169745 0.776242
v 0.311233 -1.181649 0.759952
v 0.315071 -1.188872 0.759746
v 0.228784 -1.156589 0.759453
v 0.221265 -1.160136 0.759187
v 0.270008 -1.169119 0.759703
v 0.221119 -1.160449 0.767456
v 0.314926 -1.189185 0.768016
v 0.353741 -1.062215 0.781786
v 0.358872 -1.065810 0.781740
v 0.276547 -1.030796 0.781619
v 0.354032 -1.061589 0.765247
v 0.359163 -1.065184 0.765201
v 0.276837 -1.030170 0.765081
v 0.359018 -1.065497 0.773470
v 0.269186 -1.033870 0.781374
v 0.315144 -1.046506 0.781702
v 0.269476 -1.033244 0.764835
v 0.315434 -1.045880 0.765164
v 0.269331 -1.033557 0.773104
v 0.330630 -0.614880 0.798307
v 0.330920 -0.614254 0.781768
v 0.158527 -0.913869 0.775688
v 0.327671 -0.620249 0.798052
v 0.165810 -0.911259 0.784199
v 0.265969 -0.730529 0.792796
v 0.158382 -0.914182 0.783958
v 0.207150 -0.836514 0.787753
v 0.327962 -0.619624 0.781513
v 0.166101 -0.910633 0.767660
v 0.266259 -0.729904 0.776257
v 0.158672 -0.913556 0.767419
v 0.207440 -0.835889 0.771214
v 0.330775 -0.614567 0.790038
v 0.367125 -1.038496 0.782918
v 0.106852 -0.590977 0.795283
v 0.132581 -0.563178 0.796787
v 0.170398 -0.561041 0.797532
v 0.446320 -0.656302 0.798771
v 0.476954 -0.683528 0.798278
v 0.479072 -0.724457 0.796767
v 0.030326 -0.795616 0.786196
v 0.030879 -0.833415 0.784776
v 0.055663 -0.861960 0.784131
v 0.214911 -1.180479 0.774873
v 0.216502 -1.203322 0.774037
v 0.233337 -1.218845 0.773745
v 0.306798 -1.207726 0.775455
v 0.288279 -1.228112 0.774359
v 0.260756 -1.229118 0.773838
v 0.281275 -1.005827 0.782647
v 0.281087 -0.982741 0.783517
v 0.265918 -0.965730 0.783895
v 0.079353 -0.664513 0.792018
v 0.449074 -0.808608 0.793056
v 0.236282 -0.951103 0.783928
v 0.247046 -1.223981 0.773791
v 0.043810 -0.759558 0.787797
v 0.083922 -0.875907 0.784099
v 0.213569 -0.575945 0.797725
v 0.313892 -1.187825 0.776333
v 0.222715 -1.159940 0.775787
v 0.270890 -1.033158 0.781431
v 0.357684 -1.064978 0.781750
v 0.160102 -0.913505 0.784014
v 0.329945 -0.616123 0.798248
v 0.366589 -1.037440 0.766381
v 0.107691 -0.591516 0.778710
v 0.133420 -0.563717 0.780214
v 0.171237 -0.561579 0.780958
v 0.445430 -0.656244 0.782190
v 0.476063 -0.683470 0.781697
v 0.478181 -0.724399 0.780186
v 0.031765 -0.794552 0.769694
v 0.032317 -0.832351 0.768274
v 0.057101 -0.860896 0.767629
v 0.216353 -1.179300 0.758376
v 0.217944 -1.202143 0.757539
v 0.234778 -1.217666 0.757247
v 0.306534 -1.205908 0.758952
v 0.288016 -1.226294 0.757855
v 0.260493 -1.227300 0.757334
v 0.282684 -1.004748 0.766145
v 0.282496 -0.981661 0.767015
v 0.267327 -0.964650 0.767393
v 0.080523 -0.664165 0.775484
v 0.448418 -0.807893 0.776504
v 0.237695 -0.950026 0.767426
v 0.247636 -1.222483 0.757291
v 0.044989 -0.759189 0.771265
v 0.085357 -0.874841 0.767597
v 0.214137 -0.576391 0.781151
v 0.313597 -1.186097 0.759826
v 0.224153 -1.158773 0.759289
v 0.272304 -1.032063 0.764929
v 0.357192 -1.063803 0.765218
v 0.161526 -0.912433 0.767511
v 0.329783 -0.616317 0.781670
v 0.231832 -1.219161 0.759868
v 0.028827 -0.795758 0.772326
v 0.078260 -0.663568 0.778196
v 0.213407 -1.180795 0.760996
v 0.169808 -0.558751 0.783769
v 0.450753 -0.808221 0.779261
v 0.448355 -0.654918 0.785020
v 0.054163 -0.862103 0.770260
v 0.368620 -1.038624 0.769101
v 0.279821 -1.005993 0.768777
v 0.246835 -1.224782 0.759918
v 0.029379 -0.833558 0.770905
v 0.042706 -0.758644 0.773974
v 0.214997 -1.203638 0.760160
v 0.131991 -0.560888 0.783024
v 0.481106 -0.723073 0.783016
v 0.234820 -0.951266 0.770057
v 0.264463 -0.965896 0.770024
v 0.106262 -0.588687 0.781521
v 0.478988 -0.682145 0.784527
v 0.261839 -1.230403 0.759969
v 0.289362 -1.229397 0.760490
v 0.279632 -0.982906 0.769647
v 0.307881 -1.209012 0.761587
v 0.213390 -0.573797 0.783965
v 0.082429 -0.876053 0.770228
v 0.221217 -1.160239 0.761911
v 0.315023 -1.188975 0.762470
v 0.269428 -1.033347 0.767559
v 0.359115 -1.065288 0.767925
v 0.330872 -0.614358 0.784492
v 0.158625 -0.913659 0.770143
v 0.246646 -1.225189 0.770685
v 0.029190 -0.833965 0.781671
v 0.042517 -0.759051 0.784740
v 0.214808 -1.204046 0.770926
v 0.131802 -0.561296 0.793790
v 0.480917 -0.723481 0.793782
v 0.234631 -0.951673 0.780824
v 0.264274 -0.966303 0.780790
v 0.106073 -0.589094 0.792287
v 0.478799 -0.682552 0.795294
v 0.261650 -1.230811 0.770735
v 0.289173 -1.229805 0.771256
v 0.279443 -0.983314 0.780413
v 0.307692 -1.209419 0.772353
v 0.231643 -1.219568 0.770634
v 0.028638 -0.796166 0.783092
v 0.078071 -0.663976 0.788962
v 0.213218 -1.181202 0.771762
v 0.169619 -0.559158 0.794535
v 0.450564 -0.808628 0.790027
v 0.448166 -0.655325 0.795786
v 0.053974 -0.862510 0.781026
v 0.368431 -1.039032 0.779867
v 0.279632 -1.006400 0.779543
v 0.213201 -0.574204 0.794731
v 0.082240 -0.876460 0.780994
v 0.221028 -1.160646 0.772677
v 0.314834 -1.189382 0.773237
v 0.269239 -1.033754 0.778325
v 0.358926 -1.065695 0.778691
v 0.330683 -0.614765 0.795258
v 0.158436 -0.914067 0.780909
vt 0.326741 0.886272
vt 0.320998 0.851357
vt 0.322473 0.849643
vt 0.645693 0.936322
vt 0.553757 0.939439
vt 0.553820 0.937738
vt 0.431766 0.917982
vt 0.394616 0.934826
vt 0.353136 0.919365
vt 0.002944 0.550226
vt 0.000970 0.533136
vt 0.002671 0.533157
vt 0.681161 0.913597
vt 0.686481 0.918885
vt 0.703717 0.878041
vt 0.707189 0.536600
vt 0.683778 0.497505
vt 0.689207 0.492136
vt 0.644889 0.473718
vt 0.540735 0.472019
vt 0.646608 0.472019
vt 0.388487 0.941990
vt 0.348480 0.924807
vt 0.389960 0.940267
vt 0.325267 0.887995
vt 0.036348 0.587266
vt 0.013447 0.574882
vt 0.038023 0.585609
vt 0.001269 0.551884
vt 0.044110 0.473738
vt 0.067297 0.472037
vt 0.068849 0.473736
vt 0.019795 0.491513
vt 0.014335 0.486144
vt 0.002398 0.516088
vt 0.261475 0.575819
vt 0.282190 0.590344
vt 0.256796 0.581067
vt 0.299670 0.608497
vt 0.294988 0.613747
vt 0.222562 0.581777
vt 0.255315 0.582728
vt 0.221051 0.583438
vt 0.423148 0.878811
vt 0.331397 0.880831
vt 0.640373 0.931034
vt 0.553354 0.915844
vt 0.019267 0.530579
vt 0.007859 0.521457
vt 0.046442 0.529740
vt 0.049570 0.479107
vt 0.071362 0.529471
vt 0.073755 0.479105
vt 0.286871 0.585094
vt 0.258350 0.527457
vt 0.398666 0.532091
vt 0.434992 0.939572
vt 0.434890 0.941273
vt 0.555405 0.875899
vt 0.698397 0.872753
vt 0.705950 0.825765
vt 0.704260 0.824619
vt 0.540303 0.473718
vt 0.254250 0.472026
vt 0.549315 0.536358
vt 0.639461 0.479087
vt 0.420768 0.838371
vt 0.327132 0.844227
vt 0.405447 0.577930
vt 0.555136 0.829972
vt 0.698923 0.820999
vt 0.299464 0.652160
vt 0.293506 0.615409
vt 0.407942 0.620341
vt 0.701760 0.541969
vt 0.435315 0.934197
vt 0.000670 0.514389
vt 0.008235 0.544990
vt 0.018738 0.569645
vt 0.043314 0.580372
vt 0.068969 0.579836
vt 0.255225 0.479094
vt 0.538939 0.479088
vt 0.553688 0.582357
vt 0.309491 0.752594
vt 0.310969 0.750901
vt 0.707428 0.680334
vt 0.705724 0.680611
vt 0.315637 0.745555
vt 0.414355 0.729356
vt 0.554412 0.706165
vt 0.700341 0.681485
vt 0.221095 0.472026
vt 0.221563 0.473726
vt 0.062098 0.586732
vt 0.225189 0.527813
vt 0.223043 0.479095
vt 0.227337 0.576531
vt 0.063750 0.585074
vt 0.254484 0.473725
vt 0.297983 0.653831
vt 0.304142 0.646883
vt 0.322830 0.093358
vt 0.331454 0.061820
vt 0.327185 0.098422
vt 0.553897 0.005292
vt 0.640438 0.011658
vt 0.554080 0.010315
vt 0.394680 0.007835
vt 0.431828 0.024683
vt 0.353198 0.023289
vt 0.003027 0.409408
vt 0.008245 0.397582
vt 0.008053 0.409348
vt 0.681224 0.029101
vt 0.645413 0.006716
vt 0.686199 0.024159
vt 0.703430 0.065007
vt 0.683776 0.445198
vt 0.706840 0.405757
vt 0.688851 0.450218
vt 0.644531 0.468629
vt 0.540209 0.468613
vt 0.639456 0.463609
vt 0.348846 0.018201
vt 0.388552 0.000670
vt 0.390328 0.002747
vt 0.325326 0.054655
vt 0.327103 0.056732
vt 0.013810 0.368034
vt 0.036369 0.355315
vt 0.038387 0.357314
vt 0.001282 0.390686
vt 0.003301 0.392685
vt 0.069158 0.468503
vt 0.049561 0.463477
vt 0.073746 0.463485
vt 0.019789 0.451063
vt 0.044455 0.468495
vt 0.014683 0.456081
vt 0.002755 0.426132
vt 0.282508 0.352637
vt 0.261487 0.366816
vt 0.257114 0.361910
vt 0.299686 0.334146
vt 0.295310 0.329236
vt 0.227350 0.366097
vt 0.222888 0.361192
vt 0.423204 0.063852
vt 0.553415 0.026837
vt 0.007861 0.421114
vt 0.019272 0.411996
vt 0.046446 0.412843
vt 0.071366 0.413118
vt 0.258353 0.415177
vt 0.286884 0.357546
vt 0.398670 0.410567
vt 0.435379 0.008468
vt 0.435077 0.003443
vt 0.555461 0.066782
vt 0.698455 0.069949
vt 0.706000 0.116939
vt 0.703963 0.118320
vt 0.254525 0.468560
vt 0.538934 0.463593
vt 0.549319 0.406324
vt 0.420819 0.104292
vt 0.405457 0.364729
vt 0.555185 0.112710
vt 0.698973 0.121704
vt 0.304165 0.295760
vt 0.407959 0.322319
vt 0.701766 0.400737
vt 0.018755 0.372931
vt 0.043332 0.362211
vt 0.068986 0.362753
vt 0.255219 0.463540
vt 0.553699 0.360325
vt 0.311311 0.192092
vt 0.315675 0.197091
vt 0.707456 0.262372
vt 0.705401 0.262038
vt 0.414390 0.213305
vt 0.554443 0.236517
vt 0.700369 0.261220
vt 0.221650 0.468552
vt 0.223035 0.463532
vt 0.064108 0.357855
vt 0.225192 0.414814
vt 0.299792 0.290826
vt 0.045133 0.950719
vt 0.000712 0.949543
vt 0.045141 0.950040
vt 0.000676 0.960913
vt 0.044747 0.961995
vt 0.000670 0.961587
vt 0.389487 0.961232
vt 0.437607 0.961735
vt 0.389489 0.961912
vt 0.485800 0.960853
vt 0.437604 0.961055
vt 0.904160 0.944714
vt 0.999323 0.943900
vt 0.999324 0.944510
vt 0.303707 0.953251
vt 0.347872 0.952695
vt 0.347872 0.953372
vt 0.392050 0.953301
vt 0.392048 0.952624
vt 0.257444 0.952946
vt 0.303711 0.952574
vt 0.288920 0.944726
vt 0.318945 0.944057
vt 0.318943 0.944806
vt 0.348164 0.944142
vt 0.348162 0.944870
vt 0.419323 0.945013
vt 0.450634 0.944412
vt 0.450633 0.945062
vt 0.387198 0.944961
vt 0.419324 0.944346
vt 0.616818 0.945144
vt 0.647050 0.944527
vt 0.647050 0.945141
vt 0.367970 0.944916
vt 0.387200 0.944275
vt 0.000677 0.944128
vt 0.032535 0.943397
vt 0.032533 0.944195
vt 0.693572 0.950223
vt 0.666820 0.949856
vt 0.693564 0.949543
vt 0.259369 0.944643
vt 0.288923 0.943958
vt 0.628054 0.950993
vt 0.666828 0.950536
vt 0.243775 0.962337
vt 0.243774 0.961659
vt 0.904159 0.944095
vt 0.138849 0.951748
vt 0.138856 0.951071
vt 0.428921 0.953086
vt 0.428916 0.952408
vt 0.257450 0.952270
vt 0.367972 0.944210
vt 0.098486 0.961616
vt 0.044752 0.961320
vt 0.528454 0.951462
vt 0.628046 0.950314
vt 0.474258 0.945101
vt 0.474259 0.944465
vt 0.072870 0.944280
vt 0.072871 0.943483
vt 0.616818 0.944519
vt 0.259371 0.943857
vt 0.098484 0.962293
vt 0.528461 0.952139
vt 0.000670 0.953294
vt 0.045106 0.953221
vt 0.045099 0.953790
vt 0.000704 0.957863
vt 0.044770 0.958833
vt 0.000699 0.958428
vt 0.437592 0.957976
vt 0.389478 0.958727
vt 0.389476 0.958157
vt 0.485787 0.957773
vt 0.437594 0.958546
vt 0.999330 0.947267
vt 0.904165 0.946960
vt 0.999329 0.946756
vt 0.347870 0.956433
vt 0.303696 0.955743
vt 0.347870 0.955866
vt 0.392062 0.956366
vt 0.392060 0.955798
vt 0.257419 0.956005
vt 0.303693 0.956309
vt 0.288916 0.948203
vt 0.318939 0.947568
vt 0.318940 0.948196
vt 0.348161 0.947553
vt 0.348162 0.948162
vt 0.450632 0.948005
vt 0.419322 0.947471
vt 0.450632 0.947460
vt 0.387198 0.948062
vt 0.419322 0.948030
vt 0.647054 0.947915
vt 0.616819 0.947442
vt 0.647053 0.947402
vt 0.367970 0.947518
vt 0.387197 0.947487
vt 0.032525 0.947807
vt 0.000671 0.947073
vt 0.032527 0.947138
vt 0.666864 0.953611
vt 0.693601 0.952728
vt 0.693608 0.953298
vt 0.259363 0.948198
vt 0.288916 0.947559
vt 0.628090 0.954067
vt 0.666857 0.953041
vt 0.243771 0.959159
vt 0.243770 0.958591
vt 0.904166 0.947481
vt 0.138817 0.954813
vt 0.138823 0.954246
vt 0.428945 0.956155
vt 0.428940 0.955586
vt 0.257423 0.955439
vt 0.367971 0.948109
vt 0.098495 0.958556
vt 0.044774 0.958268
vt 0.528488 0.954642
vt 0.628083 0.953497
vt 0.474258 0.947976
vt 0.474258 0.947444
vt 0.072863 0.947884
vt 0.072864 0.947216
vt 0.616819 0.947965
vt 0.259364 0.947542
vt 0.098493 0.959123
vt 0.528494 0.955209
vt 0.000690 0.951474
vt 0.045119 0.951970
vt 0.000688 0.959671
vt 0.389482 0.959980
vt 0.485795 0.959598
vt 0.437599 0.959800
vt 0.999327 0.945633
vt 0.347871 0.954619
vt 0.392055 0.954549
vt 0.257434 0.954192
vt 0.303702 0.954497
vt 0.318941 0.946187
vt 0.348162 0.946211
vt 0.419322 0.946242
vt 0.450633 0.946261
vt 0.647052 0.946271
vt 0.367970 0.946217
vt 0.387198 0.946224
vt 0.032530 0.945667
vt 0.693587 0.951476
vt 0.288918 0.946143
vt 0.666842 0.951789
vt 0.243772 0.960409
vt 0.904163 0.945837
vt 0.138836 0.952997
vt 0.428931 0.954336
vt 0.044761 0.960077
vt 0.528475 0.953391
vt 0.628069 0.952245
vt 0.474258 0.946272
vt 0.072867 0.945748
vt 0.616818 0.946293
vt 0.259366 0.946092
vt 0.098489 0.960370
vt 0.485790 0.958343
vt 0.554016 0.932366
vt 0.008047 0.533223
vt 0.647377 0.937996
vt 0.688165 0.920558
vt 0.705401 0.879714
vt 0.708907 0.534901
vt 0.690925 0.490436
vt 0.042381 0.472039
vt 0.012607 0.484444
vt 0.280708 0.592006
vt 0.321052 0.091291
vt 0.553822 0.003242
vt 0.000975 0.409433
vt 0.647444 0.004698
vt 0.688230 0.022141
vt 0.705460 0.062989
vt 0.708911 0.407806
vt 0.690922 0.452268
vt 0.646602 0.470679
vt 0.540729 0.470662
vt 0.067286 0.470552
vt 0.042370 0.470543
vt 0.012598 0.458129
vt 0.000670 0.428181
vt 0.280722 0.350633
vt 0.255329 0.359907
vt 0.293523 0.327232
vt 0.221066 0.359189
vt 0.434954 0.001392
vt 0.254242 0.470609
vt 0.309530 0.190051
vt 0.221085 0.470601
vt 0.062117 0.355856
vt 0.298006 0.288812
vt 0.347006 0.926530
vt 0.011773 0.576539
vt 0.347070 0.016124
vt 0.011791 0.366035
vt 0.000704 0.950222
vt 0.485803 0.961534
vt 0.000679 0.943329
vt 0.000676 0.952725
vt 0.000670 0.947742
vt 0.000674 0.945601
vt 0.761209 0.492585
vt 0.726452 0.498236
vt 0.724812 0.496825
vt 0.810955 0.175537
vt 0.813987 0.266955
vt 0.812360 0.266895
vt 0.792660 0.388173
vt 0.809395 0.425089
vt 0.794030 0.466306
vt 0.427286 0.814291
vt 0.410246 0.816191
vt 0.410266 0.814563
vt 0.788313 0.140355
vt 0.793629 0.135006
vt 0.753043 0.117877
vt 0.413637 0.114423
vt 0.374852 0.137749
vt 0.369454 0.132291
vt 0.351153 0.176328
vt 0.349527 0.279884
vt 0.349527 0.174683
vt 0.816513 0.431180
vt 0.799501 0.470986
vt 0.814865 0.429769
vt 0.762858 0.493996
vt 0.464026 0.781043
vt 0.451782 0.803856
vt 0.462440 0.779440
vt 0.428872 0.815893
vt 0.351170 0.773393
vt 0.349542 0.750293
vt 0.351168 0.748807
vt 0.368892 0.797486
vt 0.363495 0.802975
vt 0.393246 0.814834
vt 0.452660 0.557368
vt 0.467155 0.536841
vt 0.457934 0.562072
vt 0.485132 0.519419
vt 0.490410 0.524126
vt 0.458638 0.596087
vt 0.459524 0.563490
vt 0.460227 0.597533
vt 0.753736 0.396736
vt 0.755739 0.487905
vt 0.805639 0.180885
vt 0.790541 0.267355
vt 0.407705 0.798012
vt 0.398642 0.809346
vt 0.406872 0.771013
vt 0.356567 0.767904
vt 0.406605 0.746254
vt 0.356565 0.743876
vt 0.461877 0.532135
vt 0.404607 0.560472
vt 0.409215 0.421050
vt 0.814175 0.384973
vt 0.815803 0.385071
vt 0.750849 0.265315
vt 0.747727 0.123226
vt 0.701036 0.115720
vt 0.699939 0.117337
vt 0.351154 0.280297
vt 0.349530 0.564545
vt 0.413458 0.271359
vt 0.356551 0.181785
vt 0.713552 0.399098
vt 0.719368 0.492141
vt 0.454763 0.414314
vt 0.705212 0.265581
vt 0.696299 0.122702
vt 0.528580 0.519681
vt 0.492000 0.525545
vt 0.496904 0.411836
vt 0.419034 0.119881
vt 0.808772 0.384648
vt 0.391620 0.816488
vt 0.422023 0.808972
vt 0.446518 0.798538
vt 0.457177 0.774122
vt 0.456645 0.748633
vt 0.356554 0.563576
vt 0.356551 0.281669
vt 0.459165 0.267014
vt -0.029211 0.497974
vt -0.062877 0.491366
vt -0.026488 0.495635
vt -0.116560 0.266620
vt -0.112397 0.176267
vt -0.113859 0.266523
vt -0.095330 0.387857
vt -0.112095 0.424759
vt -0.111440 0.384318
vt 0.286758 0.816176
vt 0.270766 0.813207
vt 0.286727 0.813475
vt -0.090782 0.140040
vt -0.108141 0.180557
vt -0.054439 0.118655
vt -0.095039 0.135751
vt 0.282841 0.115495
vt 0.322680 0.137769
vt 0.278512 0.119865
vt 0.345274 0.177449
vt 0.327009 0.133399
vt 0.347890 0.279923
vt 0.345191 0.280607
vt -0.101151 0.469736
vt -0.119218 0.430844
vt -0.116482 0.428507
vt -0.065614 0.493704
vt -0.103887 0.472074
vt 0.246280 0.802756
vt 0.233006 0.780990
vt 0.235639 0.778333
vt 0.268133 0.815863
vt 0.243647 0.805412
vt 0.347510 0.750326
vt 0.344794 0.772334
vt 0.344814 0.747859
vt 0.328125 0.797504
vt 0.340472 0.767932
vt 0.302688 0.813742
vt 0.332446 0.801906
vt 0.231108 0.535854
vt 0.244539 0.557327
vt 0.240308 0.561093
vt 0.212095 0.519351
vt 0.235340 0.532086
vt 0.239579 0.595089
vt 0.237670 0.563443
vt -0.056414 0.396451
vt -0.096764 0.465989
vt -0.093113 0.267039
vt 0.289312 0.798000
vt 0.298366 0.809341
vt 0.286677 0.809145
vt 0.290166 0.771003
vt 0.290451 0.746245
vt 0.292589 0.560467
vt 0.288090 0.421041
vt -0.115771 0.384575
vt -0.053420 0.265032
vt -0.050182 0.122944
vt -0.003485 0.115477
vt -0.001668 0.118161
vt 0.347662 0.564583
vt 0.344964 0.564209
vt 0.340945 0.181819
vt 0.283967 0.271347
vt -0.016231 0.398846
vt -0.058490 0.487619
vt 0.242547 0.414269
vt -0.007783 0.265334
vt 0.001246 0.122463
vt 0.205222 0.525472
vt 0.169701 0.518645
vt 0.207862 0.523121
vt 0.200408 0.411758
vt -0.109531 0.266368
vt 0.274987 0.808949
vt 0.250501 0.798497
vt 0.239860 0.774074
vt 0.240410 0.748586
vt 0.340640 0.563609
vt 0.340865 0.281703
vt -0.118472 0.384736
vt 0.238263 0.266966
vt 0.314085 0.085935
vt 0.323242 0.139747
vt 0.314085 0.139747
vt 0.155810 0.674748
vt 0.146638 0.547703
vt 0.155794 0.547703
vt 0.156068 1.149087
vt 0.146706 0.807937
vt 0.155861 0.807933
vt 0.314090 -0.067925
vt 0.323243 0.009027
vt 0.314087 0.009026
vt 0.314105 1.417853
vt 0.323233 1.545080
vt 0.314078 1.545078
vt 0.216571 0.022488
vt 0.207307 -0.281438
vt 0.216466 -0.281441
vt 0.314136 0.845617
vt 0.323259 0.428215
vt 0.323292 0.845617
vt 0.155809 0.420725
vt 0.146688 0.314856
vt 0.155845 0.314860
vt 0.156271 -0.366935
vt 0.147034 -0.255917
vt 0.147114 -0.366942
vt 0.156337 1.545074
vt 0.147093 1.417783
vt 0.156248 1.417777
vt 0.216411 -0.419218
vt 0.207251 -0.419215
vt 0.146652 0.420722
vt 0.323243 0.193561
vt 0.314085 0.193561
vt 0.216727 0.844729
vt 0.207412 0.022490
vt 0.314080 -0.696429
vt 0.323241 -0.598077
vt 0.314085 -0.598077
vt 0.323242 0.085935
vt 0.314080 0.290568
vt 0.314102 0.428217
vt 0.323243 0.286082
vt 0.314085 0.286082
vt 0.156328 -0.443495
vt 0.147171 -0.443502
vt 0.146654 0.674750
vt 0.216459 1.452527
vt 0.207252 1.545047
vt 0.207307 1.452522
vt 0.314075 -0.774013
vt 0.323235 -0.696430
vt 0.146913 1.149093
vt 0.216498 1.381057
vt 0.207345 1.381052
vt 0.277894 0.139746
vt 0.295445 0.085935
vt 0.295444 0.139747
vt 0.191996 0.674739
vt 0.174433 0.547703
vt 0.191981 0.547703
vt 0.192252 1.149063
vt 0.174499 0.807923
vt 0.192046 0.807915
vt 0.277904 -0.067926
vt 0.295448 0.009026
vt 0.277900 0.009025
vt 0.277919 1.417847
vt 0.295439 1.545074
vt 0.277892 1.545071
vt 0.252767 0.022479
vt 0.235112 -0.281448
vt 0.252666 -0.281454
vt 0.277915 0.428221
vt 0.295497 0.845617
vt 0.277948 0.845618
vt 0.192034 0.314876
vt 0.174449 0.420729
vt 0.174485 0.314868
vt 0.192462 -0.366909
vt 0.174832 -0.255898
vt 0.174912 -0.366922
vt 0.192432 1.417752
vt 0.174975 1.545061
vt 0.174886 1.417765
vt 0.235056 -0.419226
vt 0.252611 -0.419233
vt 0.191997 0.420733
vt 0.295444 0.193561
vt 0.277893 0.193561
vt 0.252913 0.844728
vt 0.235215 0.022483
vt 0.277899 -0.598076
vt 0.295441 -0.696429
vt 0.295446 -0.598076
vt 0.277895 0.085934
vt 0.277892 0.290573
vt 0.295463 0.428219
vt 0.295444 0.286082
vt 0.277893 0.286082
vt 0.174968 -0.443481
vt 0.192518 -0.443469
vt 0.174449 0.674743
vt 0.252631 1.452548
vt 0.235036 1.545063
vt 0.235090 1.452538
vt 0.277890 -0.774011
vt 0.277894 -0.696428
vt 0.174705 1.149075
vt 0.235130 1.381067
vt 0.252672 1.381076
vt 0.628315 0.509667
vt 0.626696 0.508253
vt 0.556523 0.114249
vt 0.556788 0.115879
vt 0.621321 0.503559
vt 0.605228 0.405467
vt 0.582188 0.266297
vt 0.557667 0.121291
vt 0.068918 0.509484
vt 0.071607 0.507140
vt 0.141029 0.114123
vt 0.140587 0.116828
vt 0.075917 0.503382
vt 0.092089 0.405302
vt 0.115240 0.266150
vt 0.139879 0.121164
vt 0.314128 1.263016
vt 0.323261 1.417855
vt 0.146842 0.029471
vt 0.155999 0.029476
vt 0.277941 1.263013
vt 0.295466 1.417850
vt 0.174640 0.029488
vt 0.192189 0.029498
vt 0.349532 0.597487
vt 0.351158 0.597039
vt 0.463496 0.755460
vt 0.404961 0.593420
vt 0.356556 0.595552
vt 0.453365 0.591287
vt 0.347634 0.597524
vt 0.344937 0.596779
vt 0.233555 0.755408
vt 0.236188 0.752787
vt 0.292210 0.593414
vt 0.340492 0.743905
vt 0.243807 0.591246
vt 0.314092 -0.141835
vt 0.323246 -0.067924
vt 0.216716 0.939855
vt 0.207562 0.939852
vt 0.277906 -0.141835
vt 0.295451 -0.067925
vt 0.252894 0.939867
vt 0.235350 0.939861
vt 0.461910 0.753879
vt 0.236941 0.597487
vt 0.323248 -0.141834
vt 0.295453 -0.141835
vt 0.351156 0.564321
vt 0.207571 0.844729
vt 0.235365 0.844728
vt 0.323284 1.263016
vt 0.295489 1.263014
vt 0.530178 0.521098
vt 0.523274 0.514977
vt 0.167047 0.520994
vt 0.285542 0.112769
vt 0.173955 0.514879
vt 0.156191 -0.255911
vt 0.192381 -0.255886
vt 0.806959 0.266697
vt 0.410332 0.809159
vt 0.812556 0.173926
vt 0.795230 0.133395
vt 0.754645 0.116266
vt 0.412010 0.112779
vt 0.367828 0.130647
vt 0.349544 0.775047
vt 0.361869 0.804629
vt 0.468745 0.538259
vt -0.022122 0.491884
vt -0.115053 0.173592
vt -0.057094 0.115979
vt -0.097694 0.133075
vt 0.347975 0.174723
vt 0.329709 0.130673
vt 0.347489 0.775080
vt 0.305383 0.816488
vt 0.335142 0.804651
vt 0.228468 0.538205
vt 0.340613 0.595584
vt 0.295437 -0.774012
vt 0.267647 0.085933
vt 0.267645 0.139746
vt 0.202242 0.674736
vt 0.202228 0.547703
vt 0.202498 1.149057
vt 0.202293 0.807910
vt 0.267653 0.009024
vt 0.267672 1.417845
vt 0.267646 1.545068
vt 0.262916 -0.281458
vt 0.267667 0.428222
vt 0.267701 0.845618
vt 0.202282 0.314880
vt 0.202629 -0.255879
vt 0.202710 -0.366901
vt 0.202768 1.545042
vt 0.202679 1.417745
vt 0.262862 -0.419237
vt 0.202244 0.420735
vt 0.267645 0.193561
vt 0.263161 0.844729
vt 0.263017 0.022476
vt 0.267652 -0.598076
vt 0.267645 0.290575
vt 0.267645 0.286082
vt 0.202766 -0.443461
vt 0.262819 1.545080
vt 0.262874 1.452554
vt 0.267644 -0.774010
vt 0.267648 -0.696427
vt 0.262915 1.381082
vt 0.267693 1.263012
vt 0.202437 0.029505
vt 0.267657 -0.067926
vt 0.263139 0.939871
vt 0.267659 -0.141835
vt 0.801149 0.472397
vt 0.453367 0.805459
vt 0.147182 1.545080
vt 0.323237 0.290566
vt 0.216405 1.545053
vt 0.323230 -0.774013
vt 0.192522 1.545048
vt 0.295441 0.290570
vt 0.252576 1.545074
vn -0.0175 -0.0378 0.9991
vn -0.3251 -0.6602 0.6770
vn -0.6747 0.2210 0.7042
vn -0.0176 -0.0378 0.9991
vn -0.2602 -0.6883 0.6771
vn 0.6536 -0.2643 0.7092
vn 0.7267 -0.1336 0.6738
vn -0.7451 0.1022 0.6591
vn -0.4676 -0.6156 0.6343
vn -0.7531 0.0849 0.6524
vn -0.4024 -0.6597 0.6348
vn -0.6629 0.0884 0.7435
vn -0.6733 0.2245 0.7045
vn -0.6746 0.2210 0.7043
vn 0.2180 0.6411 0.7358
vn -0.4118 -0.5517 0.7253
vn -0.1309 -0.7614 0.6349
vn -0.3250 -0.6602 0.6772
vn 0.6536 -0.2642 0.7092
vn -0.6734 0.2245 0.7044
vn -0.3251 -0.6603 0.6770
vn 0.0175 0.0378 -0.9991
vn 0.0176 0.0378 -0.9991
vn -0.7217 0.1526 -0.6752
vn -0.4443 -0.5653 -0.6950
vn -0.7298 0.1350 -0.6702
vn -0.3789 -0.6092 -0.6967
vn 0.2428 0.6945 -0.6772
vn 0.2428 0.6946 -0.6771
vn -0.8514 0.5245 0.0049
vn -0.3197 0.7247 -0.6105
vn -0.6233 0.4163 -0.6619
vn -0.4267 0.9040 0.0267
vn 0.1138 0.7635 -0.6357
vn 0.5048 0.8623 0.0414
vn 0.7111 0.3596 -0.6041
vn 0.3884 0.6687 -0.6341
vn 0.9893 -0.1453 0.0119
vn 0.9012 0.4323 0.0322
vn 0.9419 -0.3359 0.0039
vn 0.7500 -0.0832 -0.6562
vn -0.9852 0.1712 -0.0108
vn -0.7085 -0.2501 -0.6599
vn -0.9341 -0.3559 -0.0299
vn -0.6106 -0.7909 -0.0407
vn -0.9366 0.3504 -0.0032
vn -0.9891 0.1467 -0.0118
vn -0.6869 -0.3106 -0.6570
vn -0.9013 -0.4320 -0.0322
vn -0.5238 -0.8508 -0.0414
vn 0.4219 -0.9063 -0.0268
vn 0.6518 -0.3584 -0.6683
vn 0.8578 -0.5140 -0.0045
vn -0.1597 -0.9863 -0.0401
vn 0.3389 -0.6805 -0.6496
vn 0.9419 -0.3359 0.0038
vn 0.6785 -0.2108 -0.7038
vn -0.3504 -0.9357 -0.0415
vn -0.1075 -0.7110 -0.6949
vn -0.9328 -0.3591 -0.0299
vn -0.6366 0.1452 -0.7574
vn -0.9842 0.1769 -0.0106
vn -0.3853 -0.4948 -0.7789
vn -0.5512 -0.1875 -0.8131
vn -0.9348 0.3553 -0.0030
vn -0.4422 -0.8959 -0.0416
vn -0.6054 -0.7949 -0.0407
vn 0.3259 0.9445 0.0415
vn 0.6784 -0.2108 -0.7038
vn -0.6499 0.2745 -0.7087
vn -0.4422 -0.8959 -0.0417
vn -0.3003 -0.6067 -0.7360
vn -0.2354 -0.6349 -0.7359
vn 0.3259 0.9445 0.0414
vn 0.1370 0.9898 0.0399
vn -0.3003 -0.6068 -0.7359
vn -0.9347 0.3553 -0.0029
vn -0.6486 0.2780 -0.7086
vn -0.6486 0.2779 -0.7086
vn -0.3418 0.6769 0.6520
vn -0.8514 0.5244 0.0049
vn -0.6467 0.3659 0.6692
vn 0.1370 0.9898 0.0398
vn 0.6890 0.3120 0.6541
vn 0.5048 0.8622 0.0415
vn 0.3651 0.6183 0.6960
vn 0.9893 -0.1453 0.0118
vn -0.7308 -0.2984 0.6139
vn -0.9340 -0.3559 -0.0298
vn -0.6106 -0.7909 -0.0406
vn -0.9013 -0.4320 -0.0321
vn -0.7090 -0.3585 0.6072
vn -0.5238 -0.8508 -0.0415
vn 0.6286 -0.4087 0.6616
vn 0.4219 -0.9062 -0.0269
vn 0.8578 -0.5139 -0.0044
vn 0.3168 -0.7281 0.6079
vn -0.3504 -0.9357 -0.0416
vn -0.9842 0.1769 -0.0105
vn -0.5790 -0.2476 0.7768
vn -0.4423 -0.8959 -0.0416
vn 0.0905 0.7131 0.6952
vn 0.9012 0.4322 0.0321
vn -0.9013 -0.4321 -0.0322
vn -0.5238 -0.8508 -0.0413
vn 0.8578 -0.5139 -0.0043
vn -0.1597 -0.9864 -0.0400
vn -0.9328 -0.3591 -0.0300
vn -0.4422 -0.8959 -0.0418
vn -0.2602 -0.6884 0.6771
vn 0.7267 -0.1336 0.6739
vn -0.4023 -0.6596 0.6349
vn -0.6747 0.2210 0.7043
vn -0.4117 -0.5518 0.7253
vn -0.3003 -0.6068 -0.7360
vn -0.7217 0.1527 -0.6752
vn -0.7298 0.1350 -0.6701
vn -0.3789 -0.6093 -0.6966
vn 0.2428 0.6946 -0.6772
vn -0.6499 0.2745 -0.7088
vn -0.9340 -0.3559 -0.0299
vn 0.7500 -0.0833 -0.6562
vn 0.3885 0.6687 -0.6340
vn -0.6233 0.4164 -0.6619
vn -0.1075 -0.7111 -0.6948
vn 0.3389 -0.6805 -0.6497
vn -0.5511 -0.1874 -0.8131
vn 0.6519 -0.3584 -0.6682
vn 0.4219 -0.9063 -0.0269
vn 0.1138 0.7634 -0.6358
vn -0.6467 0.3660 0.6692
vn -0.3418 0.6769 0.6519
vn 0.3651 0.6184 0.6959
vn 0.6891 0.3120 0.6541
vn 0.6286 -0.4087 0.6617
vn -0.7309 -0.2983 0.6138
vn -0.7091 -0.3585 0.6072
s 1
f 270/1/1 65/2/2 285/3/1
f 262/4/1 42/5/3 280/6/4
f 57/7/1 15/8/1 17/9/1
f 273/10/1 52/11/5 283/12/1
f 262/4/1 5/13/1 263/14/1
f 5/13/1 264/15/1 263/14/1
f 265/16/1 11/17/1 266/18/1
f 11/17/1 267/19/4 266/18/1
f 267/19/4 40/20/6 13/21/7
f 19/22/8 269/23/1 268/24/1
f 269/23/1 18/25/9 270/1/1
f 25/26/10 272/27/1 271/28/1
f 272/27/1 24/29/11 273/10/1
f 274/30/4 68/31/6 287/32/4
f 274/30/4 29/33/1 275/34/1
f 29/33/1 276/35/1 275/34/1
f 34/36/1 278/37/1 277/38/1
f 278/37/1 33/39/1 279/40/1
f 289/41/4 36/42/12 75/43/13
f 58/44/1 17/9/1 16/45/1
f 4/46/1 43/47/1 5/13/1
f 53/48/1 27/49/1 29/33/1
f 54/50/1 29/33/1 28/51/1
f 71/52/1 28/51/1 67/53/1
f 35/54/1 55/55/1 56/56/1
f 284/57/1 42/5/3 50/58/14
f 5/13/1 44/59/1 3/60/1
f 63/61/15 264/15/1 286/62/1
f 281/63/1 2/64/6 40/20/6
f 45/65/1 9/66/1 11/17/1
f 66/67/1 16/45/1 62/68/1
f 59/69/1 35/54/1 56/56/1
f 3/60/1 64/70/1 61/71/1
f 282/72/1 37/73/16 279/40/1
f 60/74/1 33/39/1 59/69/1
f 10/75/1 45/65/1 11/17/1
f 43/47/1 49/76/1 57/7/1
f 276/35/1 52/11/5 31/77/17
f 44/59/1 57/7/1 58/44/1
f 22/78/1 53/48/1 23/79/1
f 23/79/1 54/50/1 21/80/1
f 69/81/1 54/50/1 71/52/1
f 56/56/1 1/82/1 39/83/1
f 268/24/1 50/58/14 19/22/8
f 44/59/1 66/67/1 64/70/1
f 45/65/1 56/56/1 39/83/1
f 48/84/1 59/69/1 45/65/1
f 285/3/1 81/85/18 291/86/1
f 77/87/15 286/62/1 292/88/4
f 66/67/1 79/89/1 82/90/1
f 61/71/1 80/91/1 78/92/1
f 64/70/1 82/90/1 80/91/1
f 287/32/4 73/93/19 290/94/1
f 271/28/1 70/95/20 25/26/10
f 76/96/1 67/53/1 72/97/1
f 74/98/1 71/52/1 76/96/1
f 288/99/4 75/43/13 70/95/20
f 290/94/1 2/64/6 261/100/4
f 76/96/1 1/82/1 55/55/1
f 74/98/1 55/55/1 34/36/1
f 291/86/1 47/101/21 282/72/1
f 265/16/1 77/87/15 292/88/4
f 82/90/1 46/102/1 60/74/1
f 78/92/1 48/84/1 10/75/1
f 80/91/1 60/74/1 48/84/1
f 317/103/22 98/104/22 144/105/22
f 312/106/22 86/107/22 123/108/22
f 97/109/22 139/110/22 99/111/22
f 315/112/22 104/113/22 133/114/22
f 87/115/22 294/116/22 295/117/23
f 296/118/22 87/115/22 295/117/23
f 93/119/22 297/120/22 298/121/22
f 299/122/22 93/119/22 298/121/22
f 313/123/22 91/124/22 299/122/22
f 301/125/22 101/126/24 300/127/22
f 100/128/25 301/125/22 302/129/22
f 304/130/22 107/131/26 303/132/22
f 106/133/27 304/130/22 305/134/22
f 319/135/22 110/136/22 149/137/22
f 111/138/22 306/139/22 307/140/22
f 308/141/22 111/138/22 307/140/22
f 310/142/22 116/143/22 309/144/22
f 115/145/22 310/142/22 311/146/22
f 309/144/22 156/147/22 321/148/22
f 99/111/22 140/149/22 98/104/22
f 125/150/22 86/107/22 87/115/22
f 109/151/22 135/152/22 111/138/22
f 111/138/22 136/153/22 110/136/22
f 110/136/22 153/154/22 149/137/22
f 137/155/22 117/156/22 138/157/22
f 312/106/22 131/158/22 316/159/22
f 126/160/22 87/115/22 85/161/22
f 296/118/22 145/162/28 318/163/23
f 293/164/22 121/165/22 313/123/22
f 91/124/22 127/166/22 93/119/22
f 98/104/22 148/167/22 144/105/22
f 117/156/22 141/168/22 138/157/22
f 146/169/22 85/161/22 143/170/22
f 311/146/22 128/171/22 115/145/22
f 115/145/22 142/172/22 141/168/22
f 127/166/22 92/173/22 93/119/22
f 131/158/22 125/150/22 139/110/22
f 315/112/22 109/151/22 308/141/22
f 139/110/22 126/160/22 140/149/22
f 135/152/22 104/113/22 105/174/22
f 136/153/22 105/174/22 103/175/22
f 136/153/22 151/176/23 153/154/22
f 83/177/22 138/157/22 121/165/22
f 316/159/22 97/109/22 300/127/22
f 148/167/22 126/160/22 146/169/22
f 138/157/22 127/166/22 121/165/22
f 141/168/22 130/178/22 127/166/22
f 323/179/22 144/105/22 161/180/22
f 318/163/23 159/181/29 324/182/22
f 161/180/22 148/167/22 164/183/22
f 162/184/22 143/170/22 160/185/22
f 164/183/22 146/169/22 162/184/22
f 322/186/22 149/137/22 154/187/22
f 320/188/22 103/175/22 303/132/22
f 149/137/22 158/189/22 154/187/22
f 153/154/22 156/147/22 158/189/22
f 321/148/22 151/176/23 320/188/22
f 293/164/22 154/187/22 83/177/22
f 83/177/22 158/189/22 137/155/22
f 137/155/22 156/147/22 116/143/22
f 314/190/22 161/180/22 128/171/22
f 159/181/29 297/120/22 324/182/22
f 128/171/22 164/183/22 142/172/22
f 130/178/22 160/185/22 92/173/22
f 142/172/22 162/184/22 130/178/22
f 198/191/30 90/192/31 88/193/32
f 200/194/33 89/195/34 90/196/31
f 201/197/35 96/198/36 94/199/37
f 202/200/38 96/198/36 203/201/39
f 216/202/40 95/203/41 202/204/38
f 205/205/42 102/206/43 206/207/44
f 204/208/45 102/206/43 100/209/25
f 219/210/46 101/211/24 205/205/42
f 208/212/47 108/213/48 209/214/49
f 209/214/49 106/215/27 207/216/50
f 212/217/51 112/218/52 210/219/53
f 211/220/54 114/221/55 212/217/51
f 225/222/56 84/223/57 197/224/56
f 220/225/58 113/226/59 211/220/54
f 215/227/60 118/228/61 213/229/62
f 215/230/60 119/231/63 120/232/64
f 224/233/65 107/234/26 208/212/47
f 218/235/66 119/231/63 214/236/67
f 201/197/35 159/237/29 227/238/68
f 197/224/56 122/239/69 216/202/40
f 217/240/46 88/193/32 124/241/70
f 222/242/71 100/209/25 147/243/72
f 219/210/46 124/241/70 132/244/70
f 207/216/50 134/245/73 220/225/58
f 221/246/74 89/195/34 199/247/75
f 218/235/66 163/248/72 129/249/76
f 223/250/56 112/218/52 150/251/69
f 226/252/77 118/228/61 157/253/78
f 223/250/56 155/254/69 225/222/56
f 224/233/65 157/253/78 152/255/79
f 221/246/74 159/237/29 145/256/28
f 222/242/71 163/248/72 228/257/71
f 8/258/80 166/259/81 6/260/82
f 8/261/80 167/262/83 168/263/33
f 14/264/84 169/265/85 12/266/86
f 13/267/7 171/268/39 14/264/84
f 13/269/7 184/270/56 170/271/87
f 20/272/88 173/273/42 174/274/89
f 18/275/9 174/274/89 172/276/90
f 50/277/14 173/273/42 19/278/8
f 25/279/10 177/280/91 26/281/92
f 26/281/92 175/282/93 24/283/11
f 30/284/94 180/285/95 178/286/96
f 31/287/17 180/285/95 32/288/97
f 2/289/6 193/290/56 165/291/56
f 31/287/17 188/292/98 179/293/54
f 36/294/12 183/295/60 181/296/99
f 37/297/16 183/298/60 38/299/100
f 70/300/20 176/301/47 25/279/10
f 47/302/21 182/303/67 37/297/16
f 12/266/86 195/304/74 77/305/15
f 40/306/6 165/291/56 184/270/56
f 42/307/3 166/259/81 185/308/46
f 65/309/2 172/276/90 190/310/101
f 42/307/3 187/311/46 50/277/14
f 52/312/5 175/282/93 188/292/98
f 63/313/15 167/262/83 7/314/102
f 47/302/21 196/315/66 186/316/101
f 68/317/6 178/286/96 191/318/40
f 75/319/13 181/296/99 194/320/77
f 73/321/19 191/318/40 193/290/56
f 70/300/20 194/320/77 192/322/77
f 77/305/15 189/323/74 63/313/15
f 81/324/18 190/310/101 196/315/66
f 232/325/33 198/191/30 230/326/30
f 232/327/33 199/247/75 200/194/33
f 233/328/85 203/201/39 201/197/35
f 234/329/38 203/201/39 235/330/103
f 234/331/38 216/202/40 202/204/38
f 238/332/44 205/205/42 206/207/44
f 238/332/44 204/208/45 236/333/90
f 251/334/46 205/205/42 237/335/42
f 241/336/104 208/212/47 209/214/49
f 241/336/104 207/216/50 239/337/105
f 244/338/95 210/219/53 242/339/106
f 244/338/95 211/220/54 212/217/51
f 229/340/56 225/222/56 197/224/56
f 252/341/98 211/220/54 243/342/107
f 245/343/62 215/227/60 213/229/62
f 247/344/108 214/236/67 215/230/60
f 240/345/47 224/233/65 208/212/47
f 246/346/67 218/235/66 214/236/67
f 259/347/74 201/197/35 227/238/68
f 248/348/56 197/224/56 216/202/40
f 249/349/46 198/191/30 217/240/46
f 236/333/90 222/242/71 254/350/66
f 251/334/46 217/240/46 219/210/46
f 239/337/105 220/225/58 252/341/98
f 231/351/75 221/246/74 199/247/75
f 260/352/109 218/235/66 250/353/66
f 242/339/106 223/250/56 255/354/56
f 245/343/62 226/252/77 258/355/65
f 255/354/56 225/222/56 257/356/56
f 256/357/65 226/252/77 224/233/65
f 259/347/74 221/246/74 253/358/74
f 254/350/66 228/257/71 260/352/109
f 166/259/81 232/325/33 230/326/30
f 168/263/33 231/351/75 232/327/33
f 169/265/85 235/330/103 233/328/85
f 170/359/87 235/330/103 171/268/39
f 184/270/56 234/331/38 170/271/87
f 173/273/42 238/332/44 174/274/89
f 174/274/89 236/333/90 172/276/90
f 187/311/46 237/335/42 173/273/42
f 177/280/91 240/345/47 241/336/104
f 177/280/91 239/337/105 175/282/93
f 180/285/95 242/339/106 178/286/96
f 180/285/95 243/342/107 244/338/95
f 193/290/56 229/340/56 165/291/56
f 179/293/54 252/341/98 243/342/107
f 183/295/60 245/343/62 181/296/99
f 183/298/60 246/346/67 247/344/108
f 192/322/77 240/345/47 176/301/47
f 182/303/67 250/353/66 246/346/67
f 169/265/85 259/347/74 195/304/74
f 165/291/56 248/348/56 184/270/56
f 185/308/46 230/326/30 249/349/46
f 190/310/101 236/333/90 254/350/66
f 187/311/46 249/349/46 251/334/46
f 175/282/93 252/341/98 188/292/98
f 167/262/83 253/358/74 231/351/75
f 196/315/66 250/353/66 186/316/101
f 178/286/96 255/354/56 191/318/40
f 181/296/99 258/355/65 194/320/77
f 191/318/40 257/356/56 193/290/56
f 194/320/77 256/357/65 192/322/77
f 195/304/74 253/358/74 189/323/74
f 190/310/101 260/352/109 196/315/66
f 16/45/1 285/3/1 62/68/1
f 4/46/1 280/6/4 41/360/1
f 22/78/1 283/12/1 51/361/1
f 6/362/82 263/14/1 8/363/80
f 263/14/1 7/364/102 8/363/80
f 12/365/86 266/18/1 14/366/84
f 266/18/1 13/21/7 14/366/84
f 9/66/1 281/63/1 267/19/4
f 268/24/1 17/9/1 15/8/1
f 17/9/1 270/1/1 16/45/1
f 271/28/1 23/79/1 21/80/1
f 23/79/1 273/10/1 22/78/1
f 28/51/1 287/32/4 67/53/1
f 30/367/94 275/34/1 32/368/97
f 275/34/1 31/77/17 32/368/97
f 277/38/1 38/369/100 36/42/12
f 38/369/100 279/40/1 37/73/16
f 74/98/1 277/38/1 289/41/4
f 49/76/1 280/6/4 284/57/1
f 286/62/1 3/60/1 61/71/1
f 39/83/1 261/100/4 281/63/1
f 46/102/1 279/40/1 33/39/1
f 27/49/1 283/12/1 276/35/1
f 15/8/1 284/57/1 268/24/1
f 62/68/1 291/86/1 79/89/1
f 292/88/4 61/71/1 78/92/1
f 67/53/1 290/94/1 72/97/1
f 21/80/1 288/99/4 271/28/1
f 69/81/1 289/41/4 288/99/4
f 72/97/1 261/100/4 1/82/1
f 79/89/1 282/72/1 46/102/1
f 10/75/1 292/88/4 78/92/1
f 147/370/72 302/129/22 317/103/22
f 124/371/70 294/116/22 312/106/22
f 134/372/73 305/134/22 315/112/22
f 295/117/23 88/373/32 90/374/31
f 89/375/34 295/117/23 90/374/31
f 298/121/22 94/376/37 96/377/36
f 95/378/41 298/121/22 96/377/36
f 122/379/69 299/122/22 95/378/41
f 99/111/22 300/127/22 97/109/22
f 302/129/22 99/111/22 98/104/22
f 105/174/22 303/132/22 103/175/22
f 305/134/22 105/174/22 104/113/22
f 150/380/69 306/139/22 319/135/22
f 307/140/22 112/381/52 114/382/55
f 113/383/59 307/140/22 114/382/55
f 120/384/64 309/144/22 118/385/61
f 311/146/22 120/384/64 119/386/63
f 118/385/61 321/148/22 157/387/78
f 124/371/70 316/159/22 132/388/70
f 85/161/22 318/163/23 143/170/22
f 84/389/57 313/123/22 122/379/69
f 119/386/63 314/190/22 311/146/22
f 134/372/73 308/141/22 113/383/59
f 132/388/70 300/127/22 101/126/24
f 163/390/72 317/103/22 323/179/22
f 143/170/22 324/182/22 160/185/22
f 155/391/69 319/135/22 322/186/22
f 152/392/79 303/132/22 107/131/26
f 157/387/78 320/188/22 152/392/79
f 84/389/57 322/186/22 293/164/22
f 129/393/76 323/179/22 314/190/22
f 324/182/22 92/173/22 160/185/22
f 270/1/1 18/25/9 65/2/2
f 262/4/1 6/362/82 42/5/3
f 57/7/1 49/76/1 15/8/1
f 273/10/1 24/29/11 52/11/5
f 262/4/1 4/46/1 5/13/1
f 5/13/1 3/60/1 264/15/1
f 265/16/1 10/75/1 11/17/1
f 11/17/1 9/66/1 267/19/4
f 267/19/4 281/63/1 40/20/6
f 19/22/8 20/394/88 269/23/1
f 269/23/1 20/394/88 18/25/9
f 25/26/10 26/395/92 272/27/1
f 272/27/1 26/395/92 24/29/11
f 274/30/4 30/367/94 68/31/6
f 274/30/4 28/51/1 29/33/1
f 29/33/1 27/49/1 276/35/1
f 34/36/1 35/54/1 278/37/1
f 278/37/1 35/54/1 33/39/1
f 289/41/4 277/38/1 36/42/12
f 58/44/1 57/7/1 17/9/1
f 4/46/1 41/360/1 43/47/1
f 53/48/1 51/361/1 27/49/1
f 54/50/1 53/48/1 29/33/1
f 71/52/1 54/50/1 28/51/1
f 35/54/1 34/36/1 55/55/1
f 284/57/1 280/6/4 42/5/3
f 5/13/1 43/47/1 44/59/1
f 63/61/15 7/364/102 264/15/1
f 281/63/1 261/100/4 2/64/6
f 45/65/1 39/83/1 9/66/1
f 66/67/1 58/44/1 16/45/1
f 59/69/1 33/39/1 35/54/1
f 3/60/1 44/59/1 64/70/1
f 282/72/1 47/101/21 37/73/16
f 60/74/1 46/102/1 33/39/1
f 10/75/1 48/84/1 45/65/1
f 43/47/1 41/360/1 49/76/1
f 276/35/1 283/12/1 52/11/5
f 44/59/1 43/47/1 57/7/1
f 22/78/1 51/361/1 53/48/1
f 23/79/1 53/48/1 54/50/1
f 69/81/1 21/80/1 54/50/1
f 56/56/1 55/55/1 1/82/1
f 268/24/1 284/57/1 50/58/14
f 44/59/1 58/44/1 66/67/1
f 45/65/1 59/69/1 56/56/1
f 48/84/1 60/74/1 59/69/1
f 285/3/1 65/2/2 81/85/18
f 77/87/15 63/61/15 286/62/1
f 66/67/1 62/68/1 79/89/1
f 61/71/1 64/70/1 80/91/1
f 64/70/1 66/67/1 82/90/1
f 287/32/4 68/31/6 73/93/19
f 271/28/1 288/99/4 70/95/20
f 76/96/1 71/52/1 67/53/1
f 74/98/1 69/81/1 71/52/1
f 288/99/4 289/41/4 75/43/13
f 290/94/1 73/93/19 2/64/6
f 76/96/1 72/97/1 1/82/1
f 74/98/1 76/96/1 55/55/1
f 291/86/1 81/85/18 47/101/21
f 265/16/1 12/365/86 77/87/15
f 82/90/1 79/89/1 46/102/1
f 78/92/1 80/91/1 48/84/1
f 80/91/1 82/90/1 60/74/1
f 317/103/22 302/129/22 98/104/22
f 312/106/22 294/116/22 86/107/22
f 97/109/22 131/158/22 139/110/22
f 315/112/22 305/134/22 104/113/22
f 87/115/22 86/107/22 294/116/22
f 296/118/22 85/161/22 87/115/22
f 93/119/22 92/173/22 297/120/22
f 299/122/22 91/124/22 93/119/22
f 313/123/22 121/165/22 91/124/22
f 301/125/22 102/396/43 101/126/24
f 100/128/25 102/396/43 301/125/22
f 304/130/22 108/397/48 107/131/26
f 106/133/27 108/397/48 304/130/22
f 319/135/22 306/139/22 110/136/22
f 111/138/22 110/136/22 306/139/22
f 308/141/22 109/151/22 111/138/22
f 310/142/22 117/156/22 116/143/22
f 115/145/22 117/156/22 310/142/22
f 309/144/22 116/143/22 156/147/22
f 99/111/22 139/110/22 140/149/22
f 125/150/22 123/108/22 86/107/22
f 109/151/22 133/114/22 135/152/22
f 111/138/22 135/152/22 136/153/22
f 110/136/22 136/153/22 153/154/22
f 137/155/22 116/143/22 117/156/22
f 312/106/22 123/108/22 131/158/22
f 126/160/22 125/150/22 87/115/22
f 296/118/22 89/375/34 145/162/28
f 293/164/22 83/177/22 121/165/22
f 91/124/22 121/165/22 127/166/22
f 98/104/22 140/149/22 148/167/22
f 117/156/22 115/145/22 141/168/22
f 146/169/22 126/160/22 85/161/22
f 311/146/22 314/190/22 128/171/22
f 115/145/22 128/171/22 142/172/22
f 127/166/22 130/178/22 92/173/22
f 131/158/22 123/108/22 125/150/22
f 315/112/22 133/114/22 109/151/22
f 139/110/22 125/150/22 126/160/22
f 135/152/22 133/114/22 104/113/22
f 136/153/22 135/152/22 105/174/22
f 136/153/22 103/175/22 151/176/23
f 83/177/22 137/155/22 138/157/22
f 316/159/22 131/158/22 97/109/22
f 148/167/22 140/149/22 126/160/22
f 138/157/22 141/168/22 127/166/22
f 141/168/22 142/172/22 130/178/22
f 323/179/22 317/103/22 144/105/22
f 318/163/23 145/162/28 159/181/29
f 161/180/22 144/105/22 148/167/22
f 162/184/22 146/169/22 143/170/22
f 164/183/22 148/167/22 146/169/22
f 322/186/22 319/135/22 149/137/22
f 320/188/22 151/176/23 103/175/22
f 149/137/22 153/154/22 158/189/22
f 153/154/22 151/176/23 156/147/22
f 321/148/22 156/147/22 151/176/23
f 293/164/22 322/186/22 154/187/22
f 83/177/22 154/187/22 158/189/22
f 137/155/22 158/189/22 156/147/22
f 314/190/22 323/179/22 161/180/22
f 159/181/29 94/376/37 297/120/22
f 128/171/22 161/180/22 164/183/22
f 130/178/22 162/184/22 160/185/22
f 142/172/22 164/183/22 162/184/22
f 198/191/30 200/398/33 90/192/31
f 200/194/33 199/247/75 89/195/34
f 201/197/35 203/201/39 96/198/36
f 202/200/38 95/399/41 96/198/36
f 216/202/40 122/239/69 95/203/41
f 205/205/42 101/211/24 102/206/43
f 204/208/45 206/207/44 102/206/43
f 219/210/46 132/244/70 101/211/24
f 208/212/47 107/234/26 108/213/48
f 209/214/49 108/213/48 106/215/27
f 212/217/51 114/221/55 112/218/52
f 211/220/54 113/226/59 114/221/55
f 225/222/56 155/254/69 84/223/57
f 220/225/58 134/245/73 113/226/59
f 215/227/60 120/400/64 118/228/61
f 215/230/60 214/236/67 119/231/63
f 224/233/65 152/255/79 107/234/26
f 218/235/66 129/249/76 119/231/63
f 201/197/35 94/199/37 159/237/29
f 197/224/56 84/223/57 122/239/69
f 217/240/46 198/191/30 88/193/32
f 222/242/71 204/208/45 100/209/25
f 219/210/46 217/240/46 124/241/70
f 207/216/50 106/215/27 134/245/73
f 221/246/74 145/256/28 89/195/34
f 218/235/66 228/257/71 163/248/72
f 223/250/56 210/219/53 112/218/52
f 226/252/77 213/229/62 118/228/61
f 223/250/56 150/251/69 155/254/69
f 224/233/65 226/252/77 157/253/78
f 221/246/74 227/238/68 159/237/29
f 222/242/71 147/243/72 163/248/72
f 8/258/80 168/401/33 166/259/81
f 8/261/80 7/314/102 167/262/83
f 14/264/84 171/268/39 169/265/85
f 13/267/7 170/359/87 171/268/39
f 13/269/7 40/306/6 184/270/56
f 20/272/88 19/278/8 173/273/42
f 18/275/9 20/272/88 174/274/89
f 50/277/14 187/311/46 173/273/42
f 25/279/10 176/301/47 177/280/91
f 26/281/92 177/280/91 175/282/93
f 30/284/94 32/288/97 180/285/95
f 31/287/17 179/293/54 180/285/95
f 2/289/6 73/321/19 193/290/56
f 31/287/17 52/312/5 188/292/98
f 36/294/12 38/402/100 183/295/60
f 37/297/16 182/303/67 183/298/60
f 70/300/20 192/322/77 176/301/47
f 47/302/21 186/316/101 182/303/67
f 12/266/86 169/265/85 195/304/74
f 40/306/6 2/289/6 165/291/56
f 42/307/3 6/260/82 166/259/81
f 65/309/2 18/275/9 172/276/90
f 42/307/3 185/308/46 187/311/46
f 52/312/5 24/283/11 175/282/93
f 63/313/15 189/323/74 167/262/83
f 47/302/21 81/324/18 196/315/66
f 68/317/6 30/284/94 178/286/96
f 75/319/13 36/294/12 181/296/99
f 73/321/19 68/317/6 191/318/40
f 70/300/20 75/319/13 194/320/77
f 77/305/15 195/304/74 189/323/74
f 81/324/18 65/309/2 190/310/101
f 232/325/33 200/398/33 198/191/30
f 232/327/33 231/351/75 199/247/75
f 233/328/85 235/330/103 203/201/39
f 234/329/38 202/200/38 203/201/39
f 234/331/38 248/348/56 216/202/40
f 238/332/44 237/335/42 205/205/42
f 238/332/44 206/207/44 204/208/45
f 251/334/46 219/210/46 205/205/42
f 241/336/104 240/345/47 208/212/47
f 241/336/104 209/214/49 207/216/50
f 244/338/95 212/217/51 210/219/53
f 244/338/95 243/342/107 211/220/54
f 229/340/56 257/356/56 225/222/56
f 252/341/98 220/225/58 211/220/54
f 245/343/62 247/403/108 215/227/60
f 247/344/108 246/346/67 214/236/67
f 240/345/47 256/357/65 224/233/65
f 246/346/67 250/353/66 218/235/66
f 259/347/74 233/328/85 201/197/35
f 248/348/56 229/340/56 197/224/56
f 249/349/46 230/326/30 198/191/30
f 236/333/90 204/208/45 222/242/71
f 251/334/46 249/349/46 217/240/46
f 239/337/105 207/216/50 220/225/58
f 231/351/75 253/358/74 221/246/74
f 260/352/109 228/257/71 218/235/66
f 242/339/106 210/219/53 223/250/56
f 245/343/62 213/229/62 226/252/77
f 255/354/56 223/250/56 225/222/56
f 256/357/65 258/355/65 226/252/77
f 259/347/74 227/238/68 221/246/74
f 254/350/66 222/242/71 228/257/71
f 166/259/81 168/401/33 232/325/33
f 168/263/33 167/262/83 231/351/75
f 169/265/85 171/268/39 235/330/103
f 170/359/87 234/329/38 235/330/103
f 184/270/56 248/348/56 234/331/38
f 173/273/42 237/335/42 238/332/44
f 174/274/89 238/332/44 236/333/90
f 187/311/46 251/334/46 237/335/42
f 177/280/91 176/301/47 240/345/47
f 177/280/91 241/336/104 239/337/105
f 180/285/95 244/338/95 242/339/106
f 180/285/95 179/293/54 243/342/107
f 193/290/56 257/356/56 229/340/56
f 179/293/54 188/292/98 252/341/98
f 183/295/60 247/403/108 245/343/62
f 183/298/60 182/303/67 246/346/67
f 192/322/77 256/357/65 240/345/47
f 182/303/67 186/316/101 250/353/66
f 169/265/85 233/328/85 259/347/74
f 165/291/56 229/340/56 248/348/56
f 185/308/46 166/259/81 230/326/30
f 190/310/101 172/276/90 236/333/90
f 187/311/46 185/308/46 249/349/46
f 175/282/93 239/337/105 252/341/98
f 167/262/83 189/323/74 253/358/74
f 196/315/66 260/352/109 250/353/66
f 178/286/96 242/339/106 255/354/56
f 181/296/99 245/343/62 258/355/65
f 191/318/40 255/354/56 257/356/56
f 194/320/77 258/355/65 256/357/65
f 195/304/74 259/347/74 253/358/74
f 190/310/101 254/350/66 260/352/109
f 16/45/1 270/1/1 285/3/1
f 4/46/1 262/4/1 280/6/4
f 22/78/1 273/10/1 283/12/1
f 6/362/82 262/4/1 263/14/1
f 263/14/1 264/15/1 7/364/102
f 12/365/86 265/16/1 266/18/1
f 266/18/1 267/19/4 13/21/7
f 9/66/1 39/83/1 281/63/1
f 268/24/1 269/23/1 17/9/1
f 17/9/1 269/23/1 270/1/1
f 271/28/1 272/27/1 23/79/1
f 23/79/1 272/27/1 273/10/1
f 28/51/1 274/30/4 287/32/4
f 30/367/94 274/30/4 275/34/1
f 275/34/1 276/35/1 31/77/17
f 277/38/1 278/37/1 38/369/100
f 38/369/100 278/37/1 279/40/1
f 74/98/1 34/36/1 277/38/1
f 49/76/1 41/360/1 280/6/4
f 286/62/1 264/15/1 3/60/1
f 39/83/1 1/82/1 261/100/4
f 46/102/1 282/72/1 279/40/1
f 27/49/1 51/361/1 283/12/1
f 15/8/1 49/76/1 284/57/1
f 62/68/1 285/3/1 291/86/1
f 292/88/4 286/62/1 61/71/1
f 67/53/1 287/32/4 290/94/1
f 21/80/1 69/81/1 288/99/4
f 69/81/1 74/98/1 289/41/4
f 72/97/1 290/94/1 261/100/4
f 79/89/1 291/86/1 282/72/1
f 10/75/1 265/16/1 292/88/4
f 147/370/72 100/128/25 302/129/22
f 124/371/70 88/373/32 294/116/22
f 134/372/73 106/133/27 305/134/22
f 295/117/23 294/116/22 88/373/32
f 89/375/34 296/118/22 295/117/23
f 298/121/22 297/120/22 94/376/37
f 95/378/41 299/122/22 298/121/22
f 122/379/69 313/123/22 299/122/22
f 99/111/22 301/125/22 300/127/22
f 302/129/22 301/125/22 99/111/22
f 105/174/22 304/130/22 303/132/22
f 305/134/22 304/130/22 105/174/22
f 150/380/69 112/381/52 306/139/22
f 307/140/22 306/139/22 112/381/52
f 113/383/59 308/141/22 307/140/22
f 120/384/64 310/142/22 309/144/22
f 311/146/22 310/142/22 120/384/64
f 118/385/61 309/144/22 321/148/22
f 124/371/70 312/106/22 316/159/22
f 85/161/22 296/118/22 318/163/23
f 84/389/57 293/164/22 313/123/22
f 119/386/63 129/393/76 314/190/22
f 134/372/73 315/112/22 308/141/22
f 132/388/70 316/159/22 300/127/22
f 163/390/72 147/370/72 317/103/22
f 143/170/22 318/163/23 324/182/22
f 155/391/69 150/380/69 319/135/22
f 152/392/79 320/188/22 303/132/22
f 157/387/78 321/148/22 320/188/22
f 84/389/57 155/391/69 322/186/22
f 129/393/76 163/390/72 323/179/22
f 324/182/22 297/120/22 92/173/22
f 530/404/1 473/405/21 545/406/1
f 522/407/1 366/408/3 540/409/1
f 381/410/1 339/411/1 341/412/1
f 533/413/1 376/414/110 543/415/1
f 522/407/1 329/416/1 523/417/4
f 329/416/1 524/418/1 523/417/4
f 525/419/1 335/420/1 526/421/1
f 335/420/1 527/422/1 526/421/1
f 527/422/1 364/423/6 337/424/111
f 343/425/8 529/426/4 528/427/1
f 529/426/4 342/428/9 530/404/1
f 349/429/10 532/430/1 531/431/1
f 532/430/1 348/432/112 533/413/1
f 534/433/1 484/434/6 547/435/1
f 534/433/1 353/436/1 535/437/4
f 353/436/1 536/438/1 535/437/4
f 358/439/1 538/440/4 537/441/1
f 538/440/4 357/442/1 539/443/4
f 549/444/4 360/445/12 502/446/20
f 382/447/1 341/412/1 340/448/1
f 328/449/1 367/450/1 329/416/1
f 377/451/1 351/452/1 353/436/1
f 378/453/1 353/436/1 352/454/1
f 487/455/1 352/454/1 483/456/1
f 359/457/4 379/458/1 380/459/1
f 544/460/1 366/408/3 374/461/113
f 329/416/1 368/462/1 327/463/1
f 471/464/15 524/418/1 546/465/1
f 541/466/1 326/467/6 364/423/6
f 369/468/1 333/469/1 335/420/1
f 474/470/1 340/448/1 470/471/1
f 383/472/1 359/457/4 380/459/1
f 327/463/1 472/473/1 469/474/1
f 542/475/4 361/476/114 539/443/4
f 384/477/1 357/442/1 383/472/1
f 334/478/1 369/468/1 335/420/1
f 367/450/1 373/479/1 381/410/1
f 536/438/1 376/414/110 355/480/17
f 368/462/1 381/410/1 382/447/1
f 346/481/1 377/451/1 347/482/1
f 347/482/1 378/453/1 345/483/1
f 485/484/1 378/453/1 487/455/1
f 380/459/1 325/485/1 363/486/1
f 528/427/1 374/461/113 343/425/8
f 368/462/1 474/470/1 472/473/1
f 369/468/1 380/459/1 363/486/1
f 372/487/1 383/472/1 369/468/1
f 479/488/115 562/489/22 577/490/22
f 426/491/70 554/492/22 572/493/22
f 441/494/22 399/495/22 433/496/22
f 436/497/73 565/498/22 575/499/22
f 554/492/22 389/500/22 388/501/22
f 556/502/22 389/500/22 555/503/22
f 557/504/22 395/505/22 394/506/22
f 559/507/22 395/505/22 558/508/23
f 559/507/22 424/509/69 573/510/23
f 561/511/22 403/512/116 560/513/22
f 561/511/22 402/514/25 404/515/43
f 564/516/22 409/517/117 563/518/22
f 564/516/22 408/519/118 410/520/48
f 489/521/69 566/522/22 579/523/22
f 566/522/22 413/524/22 412/525/22
f 568/526/22 413/524/22 567/527/22
f 570/528/22 418/529/22 569/530/22
f 570/528/22 417/531/22 419/532/22
f 581/533/22 420/534/61 569/530/22
f 442/535/22 401/536/22 441/494/22
f 427/537/22 388/501/22 389/500/22
f 437/538/22 411/539/22 435/540/23
f 438/541/22 413/524/22 437/538/22
f 492/542/22 412/525/22 438/541/22
f 439/543/22 419/532/22 440/544/22
f 576/545/22 426/491/70 572/493/22
f 428/546/22 389/500/22 387/547/22
f 556/502/22 477/548/119 578/549/22
f 573/510/23 386/550/69 553/551/22
f 393/552/22 429/553/22 395/505/22
f 480/554/22 400/555/22 442/535/22
f 419/532/22 443/556/22 440/544/22
f 478/557/22 387/547/22 475/558/22
f 421/559/63 574/560/22 571/561/22
f 417/531/22 444/562/22 443/556/22
f 429/553/22 394/506/22 395/505/22
f 427/537/22 433/496/22 425/563/22
f 568/526/22 436/497/73 575/499/22
f 428/546/22 441/494/22 427/537/22
f 437/538/22 406/564/22 407/565/22
f 438/541/22 407/565/22 405/566/22
f 490/567/22 438/541/22 405/566/22
f 385/568/22 440/544/22 423/569/22
f 560/513/22 434/570/120 576/545/22
f 480/554/22 428/546/22 478/557/22
f 440/544/22 429/553/22 423/569/22
f 443/556/22 432/571/22 429/553/22
f 585/572/50 436/573/73 595/574/98
f 586/575/42 404/576/43 596/577/121
f 587/578/46 434/579/120 597/580/46
f 588/581/47 410/582/48 598/583/49
f 589/584/75 392/585/31 599/586/33
f 590/587/56 397/588/122 600/589/38
f 615/590/68 396/591/123 508/592/119
f 592/593/90 479/594/115 610/595/71
f 602/596/67 431/597/115 421/598/63
f 599/599/33 390/600/124 603/601/30
f 604/602/39 397/588/122 398/603/36
f 596/577/121 402/604/25 592/593/90
f 595/574/98 415/605/125 605/606/54
f 593/607/56 424/608/69 590/587/56
f 594/609/62 504/610/79 613/611/65
f 598/583/49 408/612/118 585/572/50
f 604/613/39 396/591/123 591/614/85
f 605/606/54 416/615/126 606/616/51
f 607/617/108 421/598/63 422/618/127
f 597/580/46 403/619/116 586/575/42
f 608/620/96 416/621/126 414/622/128
f 607/623/108 420/624/61 594/609/62
f 603/601/30 426/625/70 587/578/46
f 612/626/56 414/622/128 489/627/69
f 617/628/98 446/629/50 445/630/98
f 632/631/42 447/632/44 618/633/44
f 633/634/46 449/635/46 619/636/46
f 634/637/47 451/638/49 620/639/49
f 635/640/75 453/641/33 621/642/33
f 636/643/56 455/644/38 622/645/38
f 637/646/85 520/647/68 647/648/68
f 642/649/71 459/650/90 482/651/71
f 624/652/67 458/653/71 460/654/67
f 625/655/30 453/656/33 461/657/30
f 622/645/38 462/658/39 626/659/39
f 618/633/44 459/650/90 638/660/45
f 617/628/98 463/661/54 627/662/54
f 639/663/56 456/664/56 636/643/56
f 645/665/65 465/666/62 506/667/65
f 631/668/50 451/638/49 446/629/50
f 626/669/39 457/670/85 637/646/85
f 627/662/54 466/671/129 628/672/129
f 624/652/67 467/673/108 629/674/108
f 632/631/42 449/635/46 448/675/42
f 630/676/96 466/677/129 468/678/96
f 629/679/108 465/666/62 640/680/62
f 625/655/30 450/681/46 633/634/46
f 630/676/96 494/682/56 644/683/56
f 545/406/1 513/684/2 551/685/1
f 507/686/15 546/465/1 552/687/4
f 474/470/1 511/688/1 514/689/1
f 469/474/1 512/690/1 510/691/1
f 472/473/1 514/689/1 512/690/1
f 518/692/115 577/490/22 583/693/22
f 578/549/22 508/694/119 584/695/22
f 516/696/22 480/554/22 519/697/22
f 517/698/22 475/558/22 515/699/22
f 519/697/22 478/557/22 517/698/22
f 609/700/74 391/701/130 589/584/75
f 610/595/71 518/702/115 616/703/71
f 641/704/68 454/705/75 635/640/75
f 642/649/71 509/706/71 648/707/71
f 547/435/1 496/708/6 550/709/4
f 531/431/1 486/710/20 349/429/10
f 503/711/1 483/456/1 495/712/1
f 497/713/1 487/455/1 503/711/1
f 499/714/69 579/523/22 582/715/22
f 563/518/22 491/716/79 580/717/22
f 505/718/22 488/719/22 492/542/22
f 500/720/22 492/542/22 490/567/22
f 611/721/65 409/722/117 588/581/47
f 614/723/56 489/627/69 499/724/69
f 643/725/65 452/726/47 634/637/47
f 646/727/56 494/682/56 501/728/56
f 548/729/4 502/446/20 486/710/20
f 580/717/22 504/730/79 581/533/22
f 613/611/65 491/731/79 611/721/65
f 645/665/65 493/732/65 643/725/65
f 550/709/4 326/467/6 521/733/4
f 503/711/1 325/485/1 379/458/1
f 497/713/1 379/458/1 358/439/1
f 386/550/69 582/715/22 553/551/22
f 385/568/22 505/718/22 439/543/22
f 439/543/22 500/720/22 418/529/22
f 614/723/56 386/734/69 593/607/56
f 639/663/56 501/728/56 464/735/56
f 609/700/74 508/592/119 477/736/119
f 641/704/68 520/647/68 481/737/68
f 551/685/1 371/738/21 542/475/4
f 525/419/1 507/686/15 552/687/4
f 514/689/1 370/739/1 384/477/1
f 510/691/1 372/487/1 334/478/1
f 512/690/1 384/477/1 372/487/1
f 431/740/115 583/693/22 574/560/22
f 557/504/22 508/694/119 396/741/123
f 430/742/22 519/697/22 444/562/22
f 432/571/22 515/699/22 394/506/22
f 444/562/22 517/698/22 432/571/22
f 601/743/71 518/702/115 431/597/115
f 648/707/71 458/653/71 623/744/71
f 340/448/1 545/406/1 470/471/1
f 328/449/1 540/409/1 365/745/1
f 346/481/1 543/415/1 375/746/1
f 330/747/131 523/417/4 332/748/132
f 523/417/4 331/749/102 332/748/132
f 336/750/133 526/421/1 338/751/134
f 526/421/1 337/424/111 338/751/134
f 333/469/1 541/466/1 527/422/1
f 528/427/1 341/412/1 339/411/1
f 341/412/1 530/404/1 340/448/1
f 531/431/1 347/482/1 345/483/1
f 347/482/1 533/413/1 346/481/1
f 352/454/1 547/435/1 483/456/1
f 354/752/135 535/437/4 356/753/97
f 535/437/4 355/480/17 356/753/97
f 537/441/1 362/754/100 360/445/12
f 362/754/100 539/443/4 361/476/114
f 497/713/1 537/441/1 549/444/4
f 373/479/1 540/409/1 544/460/1
f 546/465/1 327/463/1 469/474/1
f 363/486/1 521/733/4 541/466/1
f 370/739/1 539/443/4 357/442/1
f 351/452/1 543/415/1 536/438/1
f 339/411/1 544/460/1 528/427/1
f 470/471/1 551/685/1 511/688/1
f 552/687/4 469/474/1 510/691/1
f 483/456/1 550/709/4 495/712/1
f 345/483/1 548/729/4 531/431/1
f 485/484/1 549/444/4 548/729/4
f 495/712/1 521/733/4 325/485/1
f 511/688/1 542/475/4 370/739/1
f 334/478/1 552/687/4 510/691/1
f 577/490/22 400/555/22 476/755/22
f 572/493/22 388/501/22 425/563/22
f 575/499/22 406/564/22 435/540/23
f 390/756/124 555/503/22 554/492/22
f 391/757/130 555/503/22 392/758/31
f 396/741/123 558/508/23 557/504/22
f 397/759/122 558/508/23 398/760/36
f 393/552/22 573/510/23 423/569/22
f 401/536/22 560/513/22 399/495/22
f 401/536/22 562/489/22 561/511/22
f 407/565/22 563/518/22 405/566/22
f 407/565/22 565/498/22 564/516/22
f 579/523/22 412/525/22 488/719/22
f 414/761/128 567/527/22 566/522/22
f 415/762/125 567/527/22 416/763/126
f 422/764/127 569/530/22 420/534/61
f 422/764/127 571/561/22 570/528/22
f 500/720/22 569/530/22 418/529/22
f 433/496/22 572/493/22 425/563/22
f 387/547/22 578/549/22 475/558/22
f 423/569/22 553/551/22 385/568/22
f 571/561/22 430/742/22 417/531/22
f 411/539/22 575/499/22 435/540/23
f 399/495/22 576/545/22 433/496/22
f 583/693/22 476/755/22 516/696/22
f 475/558/22 584/695/22 515/699/22
f 582/715/22 488/719/22 498/765/22
f 405/566/22 580/717/22 490/567/22
f 490/567/22 581/533/22 500/720/22
f 553/551/22 498/765/22 385/568/22
f 574/560/22 516/696/22 430/742/22
f 394/506/22 584/695/22 557/504/22
f 445/630/98 585/572/50 595/574/98
f 448/675/42 596/577/121 447/632/44
f 449/635/46 587/578/46 597/580/46
f 452/726/47 598/583/49 451/638/49
f 453/641/33 589/584/75 599/586/33
f 456/664/56 600/589/38 455/644/38
f 457/670/85 615/590/68 520/647/68
f 482/651/71 592/593/90 610/595/71
f 458/653/71 602/596/67 460/654/67
f 453/656/33 603/601/30 461/657/30
f 455/644/38 604/602/39 462/658/39
f 447/632/44 592/593/90 459/650/90
f 463/661/54 595/574/98 605/606/54
f 464/735/56 590/587/56 456/664/56
f 465/666/62 613/611/65 506/667/65
f 446/629/50 598/583/49 585/572/50
f 457/670/85 604/613/39 591/614/85
f 466/671/129 605/606/54 606/616/51
f 460/654/67 607/617/108 467/673/108
f 449/635/46 586/575/42 448/675/42
f 466/677/129 608/620/96 468/678/96
f 467/766/108 594/609/62 465/666/62
f 461/657/30 587/578/46 450/681/46
f 468/678/96 612/626/56 494/682/56
f 454/705/75 609/700/74 589/584/75
f 509/706/71 610/595/71 616/703/71
f 452/726/47 611/721/65 588/581/47
f 494/682/56 614/723/56 501/728/56
f 506/667/65 611/721/65 493/732/65
f 501/728/56 593/607/56 464/735/56
f 520/647/68 609/700/74 481/737/68
f 458/653/71 616/703/71 601/743/71
f 348/767/112 617/628/98 376/768/110
f 343/769/8 618/633/44 344/770/136
f 366/771/3 619/636/46 374/772/113
f 350/773/137 634/637/47 620/639/49
f 331/774/102 621/642/33 332/775/132
f 337/776/111 636/643/56 622/645/38
f 336/777/133 647/648/68 507/778/15
f 473/779/21 638/660/45 642/649/71
f 371/780/21 624/652/67 361/781/114
f 332/782/132 625/655/30 330/783/131
f 338/784/134 622/645/38 626/659/39
f 344/770/136 638/660/45 342/785/9
f 355/786/17 617/628/98 627/662/54
f 326/787/6 636/643/56 364/788/6
f 502/789/20 640/680/62 645/665/65
f 348/767/112 620/639/49 631/668/50
f 338/790/134 637/646/85 336/777/133
f 356/791/97 627/662/54 628/672/129
f 362/792/100 624/652/67 629/674/108
f 374/772/113 632/631/42 343/769/8
f 356/793/97 630/676/96 354/794/135
f 362/795/100 640/680/62 360/796/12
f 330/783/131 633/634/46 366/771/3
f 484/797/6 630/676/96 644/683/56
f 471/798/15 635/640/75 331/774/102
f 513/799/2 642/649/71 648/707/71
f 349/800/10 643/725/65 634/637/47
f 484/797/6 646/727/56 496/801/6
f 486/802/20 645/665/65 643/725/65
f 326/787/6 646/727/56 639/663/56
f 471/798/15 647/648/68 641/704/68
f 371/780/21 648/707/71 623/744/71
f 530/404/1 342/428/9 473/405/21
f 522/407/1 330/747/131 366/408/3
f 381/410/1 373/479/1 339/411/1
f 533/413/1 348/432/112 376/414/110
f 522/407/1 328/449/1 329/416/1
f 329/416/1 327/463/1 524/418/1
f 525/419/1 334/478/1 335/420/1
f 335/420/1 333/469/1 527/422/1
f 527/422/1 541/466/1 364/423/6
f 343/425/8 344/803/136 529/426/4
f 529/426/4 344/803/136 342/428/9
f 349/429/10 350/804/137 532/430/1
f 532/430/1 350/804/137 348/432/112
f 534/433/1 354/752/135 484/434/6
f 534/433/1 352/454/1 353/436/1
f 353/436/1 351/452/1 536/438/1
f 358/439/1 359/457/4 538/440/4
f 538/440/4 359/457/4 357/442/1
f 549/444/4 537/441/1 360/445/12
f 382/447/1 381/410/1 341/412/1
f 328/449/1 365/745/1 367/450/1
f 377/451/1 375/746/1 351/452/1
f 378/453/1 377/451/1 353/436/1
f 487/455/1 378/453/1 352/454/1
f 359/457/4 358/439/1 379/458/1
f 544/460/1 540/409/1 366/408/3
f 329/416/1 367/450/1 368/462/1
f 471/464/15 331/749/102 524/418/1
f 541/466/1 521/733/4 326/467/6
f 369/468/1 363/486/1 333/469/1
f 474/470/1 382/447/1 340/448/1
f 383/472/1 357/442/1 359/457/4
f 327/463/1 368/462/1 472/473/1
f 542/475/4 371/738/21 361/476/114
f 384/477/1 370/739/1 357/442/1
f 334/478/1 372/487/1 369/468/1
f 367/450/1 365/745/1 373/479/1
f 536/438/1 543/415/1 376/414/110
f 368/462/1 367/450/1 381/410/1
f 346/481/1 375/746/1 377/451/1
f 347/482/1 377/451/1 378/453/1
f 485/484/1 345/483/1 378/453/1
f 380/459/1 379/458/1 325/485/1
f 528/427/1 544/460/1 374/461/113
f 368/462/1 382/447/1 474/470/1
f 369/468/1 383/472/1 380/459/1
f 372/487/1 384/477/1 383/472/1
f 479/488/115 402/514/25 562/489/22
f 426/491/70 390/756/124 554/492/22
f 441/494/22 401/536/22 399/495/22
f 436/497/73 408/519/118 565/498/22
f 554/492/22 555/503/22 389/500/22
f 556/502/22 387/547/22 389/500/22
f 557/504/22 558/508/23 395/505/22
f 559/507/22 393/552/22 395/505/22
f 559/507/22 397/759/122 424/509/69
f 561/511/22 404/515/43 403/512/116
f 561/511/22 562/489/22 402/514/25
f 564/516/22 410/520/48 409/517/117
f 564/516/22 565/498/22 408/519/118
f 489/521/69 414/761/128 566/522/22
f 566/522/22 567/527/22 413/524/22
f 568/526/22 411/539/22 413/524/22
f 570/528/22 419/532/22 418/529/22
f 570/528/22 571/561/22 417/531/22
f 581/533/22 504/730/79 420/534/61
f 442/535/22 400/555/22 401/536/22
f 427/537/22 425/563/22 388/501/22
f 437/538/22 413/524/22 411/539/22
f 438/541/22 412/525/22 413/524/22
f 492/542/22 488/719/22 412/525/22
f 439/543/22 418/529/22 419/532/22
f 576/545/22 434/570/120 426/491/70
f 428/546/22 427/537/22 389/500/22
f 556/502/22 391/757/130 477/548/119
f 573/510/23 424/509/69 386/550/69
f 393/552/22 423/569/22 429/553/22
f 480/554/22 476/755/22 400/555/22
f 419/532/22 417/531/22 443/556/22
f 478/557/22 428/546/22 387/547/22
f 421/559/63 431/740/115 574/560/22
f 417/531/22 430/742/22 444/562/22
f 429/553/22 432/571/22 394/506/22
f 427/537/22 441/494/22 433/496/22
f 568/526/22 415/762/125 436/497/73
f 428/546/22 442/535/22 441/494/22
f 437/538/22 435/540/23 406/564/22
f 438/541/22 437/538/22 407/565/22
f 490/567/22 492/542/22 438/541/22
f 385/568/22 439/543/22 440/544/22
f 560/513/22 403/512/116 434/570/120
f 480/554/22 442/535/22 428/546/22
f 440/544/22 443/556/22 429/553/22
f 443/556/22 444/562/22 432/571/22
f 585/572/50 408/612/118 436/573/73
f 586/575/42 403/619/116 404/576/43
f 587/578/46 426/625/70 434/579/120
f 588/581/47 409/722/117 410/582/48
f 589/584/75 391/701/130 392/585/31
f 590/587/56 424/608/69 397/588/122
f 615/590/68 591/614/85 396/591/123
f 592/593/90 402/604/25 479/594/115
f 602/596/67 601/743/71 431/597/115
f 599/599/33 392/805/31 390/600/124
f 604/602/39 600/589/38 397/588/122
f 596/577/121 404/576/43 402/604/25
f 595/574/98 436/573/73 415/605/125
f 593/607/56 386/734/69 424/608/69
f 594/609/62 420/624/61 504/610/79
f 598/583/49 410/582/48 408/612/118
f 604/613/39 398/806/36 396/591/123
f 605/606/54 415/605/125 416/615/126
f 607/617/108 602/596/67 421/598/63
f 597/580/46 434/579/120 403/619/116
f 608/620/96 606/807/51 416/621/126
f 607/623/108 422/808/127 420/624/61
f 603/601/30 390/600/124 426/625/70
f 612/626/56 608/620/96 414/622/128
f 617/628/98 631/668/50 446/629/50
f 632/631/42 448/675/42 447/632/44
f 633/634/46 450/681/46 449/635/46
f 634/637/47 452/726/47 451/638/49
f 635/640/75 454/705/75 453/641/33
f 636/643/56 456/664/56 455/644/38
f 637/646/85 457/670/85 520/647/68
f 642/649/71 638/660/45 459/650/90
f 624/652/67 623/744/71 458/653/71
f 625/655/30 621/809/33 453/656/33
f 622/645/38 455/644/38 462/658/39
f 618/633/44 447/632/44 459/650/90
f 617/628/98 445/630/98 463/661/54
f 639/663/56 464/735/56 456/664/56
f 645/665/65 640/680/62 465/666/62
f 631/668/50 620/639/49 451/638/49
f 626/669/39 462/810/39 457/670/85
f 627/662/54 463/661/54 466/671/129
f 624/652/67 460/654/67 467/673/108
f 632/631/42 619/636/46 449/635/46
f 630/676/96 628/811/129 466/677/129
f 629/679/108 467/766/108 465/666/62
f 625/655/30 461/657/30 450/681/46
f 630/676/96 468/678/96 494/682/56
f 545/406/1 473/405/21 513/684/2
f 507/686/15 471/464/15 546/465/1
f 474/470/1 470/471/1 511/688/1
f 469/474/1 472/473/1 512/690/1
f 472/473/1 474/470/1 514/689/1
f 518/692/115 479/488/115 577/490/22
f 578/549/22 477/548/119 508/694/119
f 516/696/22 476/755/22 480/554/22
f 517/698/22 478/557/22 475/558/22
f 519/697/22 480/554/22 478/557/22
f 609/700/74 477/736/119 391/701/130
f 610/595/71 479/594/115 518/702/115
f 641/704/68 481/737/68 454/705/75
f 642/649/71 482/651/71 509/706/71
f 547/435/1 484/434/6 496/708/6
f 531/431/1 548/729/4 486/710/20
f 503/711/1 487/455/1 483/456/1
f 497/713/1 485/484/1 487/455/1
f 499/714/69 489/521/69 579/523/22
f 563/518/22 409/517/117 491/716/79
f 505/718/22 498/765/22 488/719/22
f 500/720/22 505/718/22 492/542/22
f 611/721/65 491/731/79 409/722/117
f 614/723/56 612/626/56 489/627/69
f 643/725/65 493/732/65 452/726/47
f 646/727/56 644/683/56 494/682/56
f 548/729/4 549/444/4 502/446/20
f 580/717/22 491/716/79 504/730/79
f 613/611/65 504/610/79 491/731/79
f 645/665/65 506/667/65 493/732/65
f 550/709/4 496/708/6 326/467/6
f 503/711/1 495/712/1 325/485/1
f 497/713/1 503/711/1 379/458/1
f 386/550/69 499/714/69 582/715/22
f 385/568/22 498/765/22 505/718/22
f 439/543/22 505/718/22 500/720/22
f 614/723/56 499/724/69 386/734/69
f 639/663/56 646/727/56 501/728/56
f 609/700/74 615/590/68 508/592/119
f 641/704/68 647/648/68 520/647/68
f 551/685/1 513/684/2 371/738/21
f 525/419/1 336/750/133 507/686/15
f 514/689/1 511/688/1 370/739/1
f 510/691/1 512/690/1 372/487/1
f 512/690/1 514/689/1 384/477/1
f 431/740/115 518/692/115 583/693/22
f 557/504/22 584/695/22 508/694/119
f 430/742/22 516/696/22 519/697/22
f 432/571/22 517/698/22 515/699/22
f 444/562/22 519/697/22 517/698/22
f 601/743/71 616/703/71 518/702/115
f 648/707/71 509/706/71 458/653/71
f 340/448/1 530/404/1 545/406/1
f 328/449/1 522/407/1 540/409/1
f 346/481/1 533/413/1 543/415/1
f 330/747/131 522/407/1 523/417/4
f 523/417/4 524/418/1 331/749/102
f 336/750/133 525/419/1 526/421/1
f 526/421/1 527/422/1 337/424/111
f 333/469/1 363/486/1 541/466/1
f 528/427/1 529/426/4 341/412/1
f 341/412/1 529/426/4 530/404/1
f 531/431/1 532/430/1 347/482/1
f 347/482/1 532/430/1 533/413/1
f 352/454/1 534/433/1 547/435/1
f 354/752/135 534/433/1 535/437/4
f 535/437/4 536/438/1 355/480/17
f 537/441/1 538/440/4 362/754/100
f 362/754/100 538/440/4 539/443/4
f 497/713/1 358/439/1 537/441/1
f 373/479/1 365/745/1 540/409/1
f 546/465/1 524/418/1 327/463/1
f 363/486/1 325/485/1 521/733/4
f 370/739/1 542/475/4 539/443/4
f 351/452/1 375/746/1 543/415/1
f 339/411/1 373/479/1 544/460/1
f 470/471/1 545/406/1 551/685/1
f 552/687/4 546/465/1 469/474/1
f 483/456/1 547/435/1 550/709/4
f 345/483/1 485/484/1 548/729/4
f 485/484/1 497/713/1 549/444/4
f 495/712/1 550/709/4 521/733/4
f 511/688/1 551/685/1 542/475/4
f 334/478/1 525/419/1 552/687/4
f 577/490/22 562/489/22 400/555/22
f 572/493/22 554/492/22 388/501/22
f 575/499/22 565/498/22 406/564/22
f 390/756/124 392/758/31 555/503/22
f 391/757/130 556/502/22 555/503/22
f 396/741/123 398/760/36 558/508/23
f 397/759/122 559/507/22 558/508/23
f 393/552/22 559/507/22 573/510/23
f 401/536/22 561/511/22 560/513/22
f 401/536/22 400/555/22 562/489/22
f 407/565/22 564/516/22 563/518/22
f 407/565/22 406/564/22 565/498/22
f 579/523/22 566/522/22 412/525/22
f 414/761/128 416/763/126 567/527/22
f 415/762/125 568/526/22 567/527/22
f 422/764/127 570/528/22 569/530/22
f 422/764/127 421/559/63 571/561/22
f 500/720/22 581/533/22 569/530/22
f 433/496/22 576/545/22 572/493/22
f 387/547/22 556/502/22 578/549/22
f 423/569/22 573/510/23 553/551/22
f 571/561/22 574/560/22 430/742/22
f 411/539/22 568/526/22 575/499/22
f 399/495/22 560/513/22 576/545/22
f 583/693/22 577/490/22 476/755/22
f 475/558/22 578/549/22 584/695/22
f 582/715/22 579/523/22 488/719/22
f 405/566/22 563/518/22 580/717/22
f 490/567/22 580/717/22 581/533/22
f 553/551/22 582/715/22 498/765/22
f 574/560/22 583/693/22 516/696/22
f 394/506/22 515/699/22 584/695/22
f 445/630/98 446/629/50 585/572/50
f 448/675/42 586/575/42 596/577/121
f 449/635/46 450/681/46 587/578/46
f 452/726/47 588/581/47 598/583/49
f 453/641/33 454/705/75 589/584/75
f 456/664/56 590/587/56 600/589/38
f 457/670/85 591/614/85 615/590/68
f 482/651/71 459/650/90 592/593/90
f 458/653/71 601/743/71 602/596/67
f 453/656/33 599/599/33 603/601/30
f 455/644/38 600/589/38 604/602/39
f 447/632/44 596/577/121 592/593/90
f 463/661/54 445/630/98 595/574/98
f 464/735/56 593/607/56 590/587/56
f 465/666/62 594/609/62 613/611/65
f 446/629/50 451/638/49 598/583/49
f 457/670/85 462/810/39 604/613/39
f 466/671/129 463/661/54 605/606/54
f 460/654/67 602/596/67 607/617/108
f 449/635/46 597/580/46 586/575/42
f 466/677/129 606/807/51 608/620/96
f 467/766/108 607/623/108 594/609/62
f 461/657/30 603/601/30 587/578/46
f 468/678/96 608/620/96 612/626/56
f 454/705/75 481/737/68 609/700/74
f 509/706/71 482/651/71 610/595/71
f 452/726/47 493/732/65 611/721/65
f 494/682/56 612/626/56 614/723/56
f 506/667/65 613/611/65 611/721/65
f 501/728/56 614/723/56 593/607/56
f 520/647/68 615/590/68 609/700/74
f 458/653/71 509/706/71 616/703/71
f 348/767/112 631/668/50 617/628/98
f 343/769/8 632/631/42 618/633/44
f 366/771/3 633/634/46 619/636/46
f 350/773/137 349/800/10 634/637/47
f 331/774/102 635/640/75 621/642/33
f 337/776/111 364/788/6 636/643/56
f 336/777/133 637/646/85 647/648/68
f 473/779/21 342/785/9 638/660/45
f 371/780/21 623/744/71 624/652/67
f 332/782/132 621/809/33 625/655/30
f 338/784/134 337/776/111 622/645/38
f 344/770/136 618/633/44 638/660/45
f 355/786/17 376/768/110 617/628/98
f 326/787/6 639/663/56 636/643/56
f 502/789/20 360/796/12 640/680/62
f 348/767/112 350/773/137 620/639/49
f 338/790/134 626/669/39 637/646/85
f 356/791/97 355/786/17 627/662/54
f 362/792/100 361/781/114 624/652/67
f 374/772/113 619/636/46 632/631/42
f 356/793/97 628/811/129 630/676/96
f 362/795/100 629/679/108 640/680/62
f 330/783/131 625/655/30 633/634/46
f 484/797/6 354/794/135 630/676/96
f 471/798/15 641/704/68 635/640/75
f 513/799/2 473/779/21 642/649/71
f 349/800/10 486/802/20 643/725/65
f 484/797/6 644/683/56 646/727/56
f 486/802/20 502/789/20 645/665/65
f 326/787/6 496/801/6 646/727/56
f 471/798/15 507/778/15 647/648/68
f 371/780/21 513/799/2 648/707/71
