# Blender v3.6.23 OBJ File: 'classroom.blend'
# www.blender.org
o surface_collision_Plane.004
v 1.749433 -0.941342 0.787168
v 1.755423 -0.942486 0.787157
v 1.433012 -0.546036 0.801599
v 1.380716 -0.592933 0.799351
v 1.397395 -0.558925 0.800855
v 1.375084 -0.586653 0.799577
v 1.427380 -0.539755 0.801825
v 1.391763 -0.552645 0.801080
v 1.766373 -0.613714 0.800795
v 1.715457 -0.557809 0.802799
v 1.752610 -0.575110 0.802307
v 1.721804 -0.552028 0.803076
v 1.772721 -0.607932 0.801072
v 1.758957 -0.569329 0.802583
v 1.366649 -0.802323 0.790623
v 1.409943 -0.858618 0.788557
v 1.378015 -0.838377 0.789202
v 1.403559 -0.863527 0.788316
v 1.360265 -0.807232 0.790382
v 1.371631 -0.843286 0.788961
v 1.653674 -1.117553 0.779322
v 1.682325 -1.149026 0.778193
v 1.661747 -1.138981 0.778485
v 1.676136 -1.154660 0.777924
v 1.647485 -1.123187 0.779052
v 1.655558 -1.144616 0.778216
v 1.702391 -1.150386 0.778257
v 1.740367 -1.116693 0.779875
v 1.728470 -1.141532 0.778778
v 1.746082 -1.123135 0.779643
v 1.708106 -1.156828 0.778025
v 1.734185 -1.147974 0.778546
v 1.640959 -0.897721 0.788321
v 1.667164 -0.931735 0.787074
v 1.660367 -0.909670 0.787944
v 1.660997 -0.936683 0.786833
v 1.634787 -0.902672 0.788080
v 1.654197 -0.914620 0.787703
v 1.761942 -0.699426 0.797230
v 1.768053 -0.698207 0.797317
v 1.375773 -0.666511 0.796284
v 1.369725 -0.666419 0.796252
v 1.389844 -0.667807 0.796314
v 1.424024 -0.667826 0.796518
v 1.713525 -0.688044 0.797411
v 1.608396 -0.892210 0.788355
v 1.602195 -0.897154 0.788113
v 1.674461 -0.682280 0.797416
v 1.368979 -0.767647 0.792068
v 1.362921 -0.767696 0.792030
v 1.692358 -1.149706 0.778225
v 1.692121 -1.155744 0.777974
v 1.695109 -1.140257 0.778632
v 1.697021 -1.117123 0.779598
v 1.708298 -0.936539 0.787121
v 1.710527 -0.816688 0.792082
v 1.382661 -0.771390 0.791995
v 1.415710 -0.780472 0.791818
v 1.671706 -0.808879 0.792173
v 1.635622 -0.804875 0.792123
v 1.477204 -0.547878 0.801787
v 1.440993 -0.863874 0.788525
v 1.473446 -0.541675 0.802021
v 1.463207 -0.670087 0.796658
v 1.434637 -0.868789 0.788284
v 1.450118 -0.784290 0.791865
v 1.741433 -1.096072 0.780732
v 1.747181 -1.101891 0.780526
v 1.655261 -1.095701 0.780233
v 1.649074 -1.101255 0.779967
v 1.698347 -1.095887 0.780483
v 1.748014 -0.968782 0.786027
v 1.753961 -0.970755 0.785981
v 1.665053 -0.960813 0.785861
v 1.658882 -0.965868 0.785615
v 1.706534 -0.964798 0.785944
v 1.597625 -0.546852 0.802548
v 1.596330 -0.552843 0.802293
v 1.524694 -0.878042 0.788440
v 1.568834 -0.676184 0.797037
v 1.518416 -0.882972 0.788199
v 1.542870 -0.794583 0.791994
v 1.749452 -0.941210 0.783970
v 1.755442 -0.942354 0.783959
v 1.433032 -0.545904 0.798402
v 1.380735 -0.592801 0.796154
v 1.397414 -0.558793 0.797657
v 1.375103 -0.586521 0.796379
v 1.427399 -0.539623 0.798627
v 1.391782 -0.552513 0.797883
v 1.766392 -0.613582 0.797598
v 1.715476 -0.557677 0.799602
v 1.752629 -0.574978 0.799109
v 1.721823 -0.551896 0.799878
v 1.772740 -0.607800 0.797874
v 1.758976 -0.569197 0.799386
v 1.366668 -0.802191 0.787425
v 1.409962 -0.858486 0.785359
v 1.378034 -0.838245 0.786004
v 1.403578 -0.863396 0.785118
v 1.360284 -0.807100 0.787184
v 1.371650 -0.843154 0.785764
v 1.653693 -1.117421 0.776124
v 1.682345 -1.148894 0.774996
v 1.661767 -1.138849 0.775288
v 1.676155 -1.154528 0.774726
v 1.647504 -1.123055 0.775854
v 1.655577 -1.144484 0.775018
v 1.702410 -1.150254 0.775059
v 1.740386 -1.116561 0.776677
v 1.728489 -1.141400 0.775581
v 1.746101 -1.123003 0.776445
v 1.708125 -1.156696 0.774827
v 1.734204 -1.147842 0.775349
v 1.640978 -0.897590 0.785124
v 1.667183 -0.931603 0.783876
v 1.660386 -0.909538 0.784746
v 1.661016 -0.936551 0.783635
v 1.634807 -0.902540 0.784883
v 1.654216 -0.914488 0.784505
v 1.761961 -0.699294 0.794033
v 1.768072 -0.698075 0.794119
v 1.375792 -0.666379 0.793086
v 1.369744 -0.666287 0.793054
v 1.389863 -0.667675 0.793117
v 1.424043 -0.667694 0.793320
v 1.713544 -0.687913 0.794213
v 1.608415 -0.892078 0.785157
v 1.602214 -0.897022 0.784916
v 1.674480 -0.682148 0.794218
v 1.368998 -0.767515 0.788870
v 1.362940 -0.767565 0.788832
v 1.692377 -1.149574 0.775028
v 1.692140 -1.155612 0.774777
v 1.695128 -1.140125 0.775434
v 1.697040 -1.116991 0.776401
v 1.708318 -0.936407 0.783923
v 1.710546 -0.816557 0.788885
v 1.382680 -0.771258 0.788798
v 1.415729 -0.780340 0.788620
v 1.671725 -0.808747 0.788975
v 1.635641 -0.804743 0.788925
v 1.477223 -0.547746 0.798590
v 1.441012 -0.863742 0.785328
v 1.473465 -0.541543 0.798823
v 1.463226 -0.669955 0.793461
v 1.434657 -0.868657 0.785087
v 1.450137 -0.784158 0.788668
v 1.741452 -1.095940 0.777535
v 1.747200 -1.101759 0.777329
v 1.655280 -1.095569 0.777036
v 1.649093 -1.101123 0.776769
v 1.698366 -1.095755 0.777285
v 1.748034 -0.968650 0.782829
v 1.753980 -0.970623 0.782783
v 1.665072 -0.960681 0.782663
v 1.658901 -0.965736 0.782417
v 1.706553 -0.964666 0.782746
v 1.597644 -0.546720 0.799351
v 1.596349 -0.552711 0.799096
v 1.524714 -0.877910 0.785242
v 1.568853 -0.676052 0.793839
v 1.518435 -0.882840 0.785001
v 1.542889 -0.794451 0.788796
v 1.755426 -0.942466 0.786672
v 1.375087 -0.586633 0.799092
v 1.427383 -0.539735 0.801340
v 1.391766 -0.552625 0.800596
v 1.721807 -0.552008 0.802591
v 1.772724 -0.607912 0.800587
v 1.758960 -0.569309 0.802099
v 1.403562 -0.863508 0.787831
v 1.360268 -0.807212 0.789897
v 1.371634 -0.843266 0.788476
v 1.676139 -1.154640 0.777439
v 1.647488 -1.123167 0.778567
v 1.655561 -1.144596 0.777731
v 1.746085 -1.123115 0.779158
v 1.708109 -1.156808 0.777540
v 1.734188 -1.147954 0.778061
v 1.660999 -0.936663 0.786348
v 1.634790 -0.902652 0.787595
v 1.654200 -0.914600 0.787218
v 1.768056 -0.698187 0.796832
v 1.369728 -0.666399 0.795767
v 1.602198 -0.897134 0.787629
v 1.362924 -0.767676 0.791545
v 1.692124 -1.155724 0.777490
v 1.473449 -0.541655 0.801536
v 1.434640 -0.868769 0.787799
v 1.747184 -1.101871 0.780042
v 1.649077 -1.101235 0.779482
v 1.753964 -0.970735 0.785496
v 1.658885 -0.965848 0.785130
v 1.597628 -0.546831 0.802064
v 1.518419 -0.882951 0.787714
v 1.755438 -0.942378 0.784538
v 1.375099 -0.586545 0.796958
v 1.427396 -0.539647 0.799206
v 1.391779 -0.552537 0.798462
v 1.721820 -0.551920 0.800457
v 1.772737 -0.607824 0.798453
v 1.758973 -0.569221 0.799965
v 1.403575 -0.863419 0.785697
v 1.360281 -0.807124 0.787763
v 1.371647 -0.843178 0.786342
v 1.676152 -1.154552 0.775305
v 1.647500 -1.123079 0.776433
v 1.655573 -1.144508 0.775597
v 1.746098 -1.123027 0.777024
v 1.708122 -1.156720 0.775406
v 1.734201 -1.147866 0.775928
v 1.661012 -0.936575 0.784214
v 1.634803 -0.902564 0.785462
v 1.654212 -0.914512 0.785084
v 1.768069 -0.698099 0.794698
v 1.369741 -0.666311 0.793633
v 1.602211 -0.897046 0.785495
v 1.362937 -0.767588 0.789411
v 1.692137 -1.155636 0.775356
v 1.473461 -0.541567 0.799402
v 1.434653 -0.868681 0.785666
v 1.747196 -1.101783 0.777908
v 1.649089 -1.101147 0.777348
v 1.753977 -0.970647 0.783362
v 1.658898 -0.965760 0.782996
v 1.597641 -0.546743 0.799930
v 1.518432 -0.882863 0.785580
v 1.755432 -0.942422 0.785605
v 1.375093 -0.586589 0.798025
v 1.427390 -0.539691 0.800273
v 1.391772 -0.552581 0.799529
v 1.721813 -0.551964 0.801524
v 1.772730 -0.607868 0.799520
v 1.758966 -0.569265 0.801032
v 1.403568 -0.863463 0.786764
v 1.360275 -0.807168 0.788830
v 1.371641 -0.843222 0.787409
v 1.676145 -1.154596 0.776372
v 1.647494 -1.123123 0.777500
v 1.655567 -1.144552 0.776664
v 1.746091 -1.123071 0.778091
v 1.708116 -1.156764 0.776473
v 1.734195 -1.147910 0.776995
v 1.661006 -0.936619 0.785281
v 1.634797 -0.902608 0.786528
v 1.654206 -0.914556 0.786151
v 1.768062 -0.698143 0.795765
v 1.369734 -0.666355 0.794700
v 1.602204 -0.897090 0.786562
v 1.362931 -0.767632 0.790478
v 1.692130 -1.155680 0.776423
v 1.473455 -0.541611 0.800469
v 1.434647 -0.868725 0.786733
v 1.747190 -1.101827 0.778975
v 1.649083 -1.101191 0.778415
v 1.753970 -0.970691 0.784429
v 1.658891 -0.965804 0.784063
v 1.597634 -0.546787 0.800997
v 1.518425 -0.882907 0.786647
v 1.753983 -0.942211 0.787159
v 1.376438 -0.588163 0.799523
v 1.393117 -0.554155 0.801026
v 1.428734 -0.541265 0.801771
v 1.720278 -0.553418 0.803009
v 1.757431 -0.570719 0.802517
v 1.771195 -0.609322 0.801005
v 1.361800 -0.806052 0.790440
v 1.373166 -0.842106 0.789019
v 1.405094 -0.862347 0.788374
v 1.648973 -1.121833 0.779117
v 1.657046 -1.143261 0.778280
v 1.677624 -1.153306 0.777989
v 1.744708 -1.121586 0.779699
v 1.732811 -1.146425 0.778602
v 1.706732 -1.155280 0.778081
v 1.662479 -0.935493 0.786891
v 1.655680 -0.913430 0.787761
v 1.636271 -0.901482 0.788138
v 1.371179 -0.666441 0.796259
v 1.766584 -0.698500 0.797296
v 1.603686 -0.895966 0.788171
v 1.692178 -1.154293 0.778035
v 1.364378 -0.767684 0.792039
v 1.436165 -0.867607 0.788342
v 1.474349 -0.543166 0.801965
v 1.745799 -1.100492 0.780576
v 1.650561 -1.099920 0.780031
v 1.660366 -0.964653 0.785674
v 1.752531 -0.970281 0.785992
v 1.519926 -0.881786 0.788257
v 1.597314 -0.548292 0.802487
v 1.753706 -0.942022 0.783962
v 1.376736 -0.588341 0.796314
v 1.393415 -0.554334 0.797817
v 1.429032 -0.541444 0.798562
v 1.719983 -0.553572 0.799798
v 1.757136 -0.570873 0.799306
v 1.770900 -0.609476 0.797794
v 1.362135 -0.805677 0.787254
v 1.373501 -0.841731 0.785833
v 1.405429 -0.861972 0.785188
v 1.649298 -1.121422 0.775933
v 1.657371 -1.142851 0.775096
v 1.677949 -1.152895 0.774804
v 1.744444 -1.121135 0.776512
v 1.732548 -1.145975 0.775416
v 1.706469 -1.154829 0.774895
v 1.662803 -0.935116 0.783705
v 1.656005 -0.913053 0.784575
v 1.636595 -0.901105 0.784953
v 1.371498 -0.666314 0.793063
v 1.766301 -0.698429 0.794094
v 1.604012 -0.895589 0.784986
v 1.692209 -1.153862 0.774849
v 1.364696 -0.767550 0.788843
v 1.436499 -0.867232 0.785157
v 1.474554 -0.543341 0.798755
v 1.745534 -1.100073 0.777389
v 1.650886 -1.099513 0.776847
v 1.660690 -0.964271 0.782489
v 1.752256 -0.970051 0.782797
v 1.520255 -0.881410 0.785071
v 1.597269 -0.548456 0.799277
v 1.749433 -0.941342 0.782927
v 1.755423 -0.942486 0.782915
v 1.433013 -0.546036 0.797358
v 1.380716 -0.592933 0.795110
v 1.397395 -0.558925 0.796613
v 1.375084 -0.586653 0.795336
v 1.427380 -0.539755 0.797584
v 1.391763 -0.552645 0.796839
v 1.766373 -0.613714 0.796554
v 1.715457 -0.557809 0.798558
v 1.752610 -0.575110 0.798066
v 1.721804 -0.552028 0.798835
v 1.772721 -0.607932 0.796831
v 1.758957 -0.569329 0.798342
v 1.366649 -0.802323 0.786381
v 1.409943 -0.858618 0.784316
v 1.378015 -0.838377 0.784961
v 1.403559 -0.863528 0.784075
v 1.360265 -0.807232 0.786141
v 1.371631 -0.843286 0.784720
v 1.653674 -1.117553 0.775080
v 1.682325 -1.149026 0.773952
v 1.661747 -1.138981 0.774244
v 1.676136 -1.154660 0.773683
v 1.647485 -1.123187 0.774811
v 1.655558 -1.144616 0.773974
v 1.702391 -1.150386 0.774016
v 1.740367 -1.116693 0.775633
v 1.728470 -1.141532 0.774537
v 1.746082 -1.123135 0.775402
v 1.708106 -1.156828 0.773784
v 1.734185 -1.147974 0.774305
v 1.640959 -0.897721 0.784080
v 1.667164 -0.931735 0.782832
v 1.660367 -0.909670 0.783703
v 1.660997 -0.936683 0.782591
v 1.634788 -0.902672 0.783839
v 1.654197 -0.914620 0.783462
v 1.761942 -0.699426 0.792989
v 1.768053 -0.698207 0.793076
v 1.375773 -0.666511 0.792043
v 1.369725 -0.666419 0.792010
v 1.389844 -0.667807 0.792073
v 1.424024 -0.667826 0.792277
v 1.713525 -0.688045 0.793170
v 1.608396 -0.892210 0.784113
v 1.602195 -0.897154 0.783872
v 1.674461 -0.682280 0.793175
v 1.368979 -0.767647 0.787827
v 1.362921 -0.767696 0.787789
v 1.692358 -1.149706 0.773984
v 1.692121 -1.155745 0.773733
v 1.695109 -1.140257 0.774390
v 1.697021 -1.117123 0.775357
v 1.708299 -0.936539 0.782880
v 1.710527 -0.816688 0.787841
v 1.382661 -0.771390 0.787754
v 1.415710 -0.780472 0.787576
v 1.671706 -0.808879 0.787932
v 1.635622 -0.804875 0.787881
v 1.749532 -0.940659 0.766388
v 1.755522 -0.941803 0.766377
v 1.433111 -0.545353 0.780819
v 1.380815 -0.592251 0.778571
v 1.397494 -0.558243 0.780075
v 1.375183 -0.585970 0.778797
v 1.427479 -0.539072 0.781045
v 1.391862 -0.551962 0.780300
v 1.766472 -0.613031 0.780015
v 1.715555 -0.557126 0.782019
v 1.752708 -0.574427 0.781527
v 1.721903 -0.551345 0.782296
v 1.772820 -0.607250 0.780292
v 1.759056 -0.568646 0.781803
v 1.366748 -0.801640 0.769843
v 1.410042 -0.857935 0.767777
v 1.378114 -0.837694 0.768422
v 1.403658 -0.862845 0.767536
v 1.360364 -0.806549 0.769602
v 1.371730 -0.842603 0.768181
v 1.653773 -1.116870 0.758542
v 1.682424 -1.148343 0.757413
v 1.661846 -1.138298 0.757705
v 1.676235 -1.153978 0.757144
v 1.647583 -1.122505 0.758272
v 1.655657 -1.143933 0.757436
v 1.702490 -1.149704 0.757477
v 1.740466 -1.116010 0.759095
v 1.728569 -1.140849 0.757998
v 1.746181 -1.122452 0.758863
v 1.708205 -1.156146 0.757245
v 1.734284 -1.147291 0.757766
v 1.641057 -0.897039 0.767541
v 1.667262 -0.931053 0.766294
v 1.660466 -0.908987 0.767164
v 1.661095 -0.936000 0.766053
v 1.634886 -0.901989 0.767300
v 1.654296 -0.913937 0.766923
v 1.762040 -0.698743 0.776450
v 1.768152 -0.697525 0.776537
v 1.375872 -0.665828 0.775504
v 1.369824 -0.665736 0.775472
v 1.389943 -0.667124 0.775534
v 1.424123 -0.667143 0.775738
v 1.713623 -0.687362 0.776631
v 1.608495 -0.891527 0.767575
v 1.602294 -0.896472 0.767333
v 1.674560 -0.681597 0.776636
v 1.369078 -0.766964 0.771288
v 1.363020 -0.767014 0.771250
v 1.692457 -1.149023 0.757445
v 1.692220 -1.155062 0.757194
v 1.695207 -1.139574 0.757852
v 1.697119 -1.116440 0.758818
v 1.708397 -0.935856 0.766341
v 1.710625 -0.816006 0.771302
v 1.382760 -0.770707 0.771215
v 1.415809 -0.779790 0.771038
v 1.671804 -0.808196 0.771393
v 1.635721 -0.804192 0.771343
v 1.692171 -1.155403 0.765464
v 1.676185 -1.154319 0.765413
v 1.371681 -0.842945 0.776451
v 1.360315 -0.806891 0.777871
v 1.362971 -0.767355 0.779519
v 1.369775 -0.666078 0.783741
v 1.655607 -1.144274 0.765705
v 1.647534 -1.122846 0.766541
v 1.391812 -0.552303 0.788570
v 1.427430 -0.539414 0.789315
v 1.772770 -0.607591 0.788561
v 1.768103 -0.697866 0.784806
v 1.721853 -0.551686 0.790565
v 1.602244 -0.896813 0.775603
v 1.403608 -0.863186 0.775805
v 1.634837 -0.902330 0.775570
v 1.375133 -0.586311 0.787066
v 1.759007 -0.568988 0.790073
v 1.708156 -1.156487 0.765514
v 1.755472 -0.942145 0.774646
v 1.661046 -0.936341 0.774322
v 1.734235 -1.147632 0.766036
v 1.654246 -0.914278 0.775192
v 1.746132 -1.122793 0.767132
v 1.477204 -0.547878 0.797546
v 1.440993 -0.863874 0.784284
v 1.473446 -0.541675 0.797780
v 1.463207 -0.670087 0.792417
v 1.434638 -0.868789 0.784043
v 1.450118 -0.784290 0.787624
v 1.477302 -0.547195 0.781007
v 1.441092 -0.863191 0.767745
v 1.473544 -0.540992 0.781241
v 1.463306 -0.669405 0.775878
v 1.434736 -0.868106 0.767504
v 1.450216 -0.783608 0.771085
v 1.473495 -0.541334 0.789510
v 1.434687 -0.868447 0.775774
v 1.741433 -1.096072 0.776491
v 1.747181 -1.101891 0.776285
v 1.655261 -1.095701 0.775992
v 1.649074 -1.101255 0.775726
v 1.698347 -1.095887 0.776242
v 1.741532 -1.095389 0.759952
v 1.747279 -1.101208 0.759746
v 1.655360 -1.095019 0.759453
v 1.649172 -1.100572 0.759187
v 1.698446 -1.095204 0.759703
v 1.649123 -1.100914 0.767456
v 1.747230 -1.101550 0.768016
v 1.748015 -0.968782 0.781786
v 1.753961 -0.970755 0.781740
v 1.665053 -0.960813 0.781619
v 1.748113 -0.968099 0.765247
v 1.754060 -0.970072 0.765201
v 1.665152 -0.960131 0.765081
v 1.754010 -0.970414 0.773470
v 1.658882 -0.965868 0.781374
v 1.706534 -0.964798 0.781702
v 1.658981 -0.965185 0.764835
v 1.706632 -0.964115 0.765164
v 1.658931 -0.965527 0.773104
v 1.597625 -0.546852 0.798307
v 1.597724 -0.546169 0.781768
v 1.518466 -0.882630 0.775688
v 1.596330 -0.552843 0.798052
v 1.524694 -0.878042 0.784199
v 1.568834 -0.676184 0.792796
v 1.518416 -0.882972 0.783958
v 1.542870 -0.794583 0.787753
v 1.596429 -0.552161 0.781513
v 1.524793 -0.877359 0.767660
v 1.568933 -0.675501 0.776257
v 1.518515 -0.882289 0.767419
v 1.542969 -0.793900 0.771214
v 1.597674 -0.546510 0.790038
v 1.754036 -0.942221 0.782918
v 1.376388 -0.588107 0.795283
v 1.393067 -0.554099 0.796787
v 1.428684 -0.541209 0.797532
v 1.720334 -0.553366 0.798771
v 1.757487 -0.570668 0.798278
v 1.771251 -0.609271 0.796767
v 1.361744 -0.806096 0.786196
v 1.373109 -0.842149 0.784776
v 1.405037 -0.862391 0.784131
v 1.648918 -1.121883 0.774873
v 1.656991 -1.143311 0.774037
v 1.677569 -1.153356 0.773745
v 1.744759 -1.121643 0.775455
v 1.732862 -1.146482 0.774359
v 1.706783 -1.155337 0.773838
v 1.662425 -0.935537 0.782647
v 1.655625 -0.913474 0.783517
v 1.636216 -0.901526 0.783895
v 1.371125 -0.666440 0.792018
v 1.766638 -0.698490 0.793056
v 1.603631 -0.896009 0.783928
v 1.692176 -1.154346 0.773791
v 1.364324 -0.767685 0.787797
v 1.436109 -0.867651 0.784099
v 1.474316 -0.543111 0.797725
v 1.745850 -1.100544 0.776333
v 1.650506 -1.099969 0.775787
v 1.660311 -0.964698 0.781431
v 1.752584 -0.970298 0.781750
v 1.519870 -0.881830 0.784014
v 1.597325 -0.548239 0.798248
v 1.753221 -0.941364 0.766381
v 1.377346 -0.588383 0.778710
v 1.394025 -0.554375 0.780214
v 1.429643 -0.541485 0.780958
v 1.719464 -0.553566 0.782190
v 1.756617 -0.570867 0.781697
v 1.770381 -0.609471 0.780186
v 1.362817 -0.804663 0.769694
v 1.374183 -0.840717 0.768274
v 1.406110 -0.860959 0.767629
v 1.649961 -1.120340 0.758376
v 1.658034 -1.141768 0.757539
v 1.678612 -1.151813 0.757247
v 1.743985 -1.119977 0.758952
v 1.732088 -1.144816 0.757855
v 1.706009 -1.153671 0.757334
v 1.663465 -0.934099 0.766145
v 1.656666 -0.912035 0.767015
v 1.637257 -0.900087 0.767393
v 1.372147 -0.665772 0.775484
v 1.765804 -0.697993 0.776504
v 1.604676 -0.894572 0.767426
v 1.692311 -1.152742 0.757291
v 1.365347 -0.766995 0.771265
v 1.437178 -0.866218 0.767597
v 1.474988 -0.543375 0.781151
v 1.745071 -1.098973 0.759826
v 1.651549 -1.098439 0.759289
v 1.661351 -0.963244 0.764929
v 1.751776 -0.969314 0.765218
v 1.520927 -0.880395 0.767511
v 1.597226 -0.548470 0.781670
v 1.676218 -1.154090 0.759868
v 1.360348 -0.806662 0.772326
v 1.369808 -0.665849 0.778196
v 1.647567 -1.122617 0.760996
v 1.427463 -0.539185 0.783769
v 1.768136 -0.697637 0.779261
v 1.721887 -0.551457 0.785020
v 1.403641 -0.862957 0.770260
v 1.755505 -0.941916 0.769101
v 1.661079 -0.936112 0.768777
v 1.692204 -1.155174 0.759918
v 1.371714 -0.842716 0.770905
v 1.363004 -0.767126 0.773974
v 1.655640 -1.144046 0.760160
v 1.391845 -0.552074 0.783024
v 1.772803 -0.607362 0.783016
v 1.602277 -0.896584 0.770057
v 1.634870 -0.902102 0.770024
v 1.375166 -0.586083 0.781521
v 1.759040 -0.568759 0.784527
v 1.708189 -1.156258 0.759969
v 1.734268 -1.147404 0.760490
v 1.654279 -0.914049 0.769647
v 1.746165 -1.122565 0.761587
v 1.473528 -0.541105 0.783965
v 1.434720 -0.868218 0.770228
v 1.649156 -1.100685 0.761911
v 1.747263 -1.101321 0.762470
v 1.658965 -0.965298 0.767559
v 1.754044 -0.970185 0.767925
v 1.597707 -0.546281 0.784492
v 1.518499 -0.882401 0.770143
v 1.692139 -1.155619 0.770685
v 1.371650 -0.843160 0.781671
v 1.362940 -0.767571 0.784740
v 1.655576 -1.144490 0.770926
v 1.391781 -0.552519 0.793790
v 1.772739 -0.607807 0.793782
v 1.602213 -0.897028 0.780824
v 1.634806 -0.902546 0.780790
v 1.375102 -0.586527 0.792287
v 1.758975 -0.569203 0.795294
v 1.708125 -1.156703 0.770735
v 1.734204 -1.147848 0.771256
v 1.654215 -0.914494 0.780413
v 1.746101 -1.123009 0.772353
v 1.676154 -1.154535 0.770634
v 1.360284 -0.807106 0.783092
v 1.369743 -0.666293 0.788962
v 1.647503 -1.123062 0.771762
v 1.427398 -0.539629 0.794535
v 1.768071 -0.698082 0.790027
v 1.721822 -0.551902 0.795786
v 1.403577 -0.863402 0.781026
v 1.755441 -0.942360 0.779867
v 1.661015 -0.936557 0.779543
v 1.473464 -0.541549 0.794731
v 1.434656 -0.868663 0.780994
v 1.649092 -1.101129 0.772677
v 1.747199 -1.101765 0.773237
v 1.658900 -0.965742 0.778325
v 1.753979 -0.970629 0.778691
v 1.597643 -0.546726 0.795258
v 1.518434 -0.882846 0.780909
vt 0.326741 0.886272
vt 0.320998 0.851357
vt 0.322473 0.849643
vt 0.645693 0.936322
vt 0.553757 0.939439
vt 0.553820 0.937738
vt 0.431766 0.917982
vt 0.394616 0.934826
vt 0.353136 0.919365
vt 0.002944 0.550226
vt 0.000970 0.533136
vt 0.002671 0.533157
vt 0.681161 0.913597
vt 0.686481 0.918885
vt 0.703717 0.878041
vt 0.707189 0.536600
vt 0.683778 0.497505
vt 0.689207 0.492136
vt 0.644889 0.473718
vt 0.540735 0.472019
vt 0.646608 0.472019
vt 0.388487 0.941990
vt 0.348480 0.924807
vt 0.389960 0.940267
vt 0.325267 0.887995
vt 0.036348 0.587266
vt 0.013447 0.574882
vt 0.038023 0.585609
vt 0.001269 0.551884
vt 0.044110 0.473738
vt 0.067297 0.472037
vt 0.068849 0.473736
vt 0.019795 0.491513
vt 0.014335 0.486144
vt 0.002398 0.516088
vt 0.261475 0.575819
vt 0.282190 0.590344
vt 0.256796 0.581067
vt 0.299670 0.608497
vt 0.294988 0.613747
vt 0.222562 0.581777
vt 0.255315 0.582728
vt 0.221051 0.583438
vt 0.423148 0.878811
vt 0.331397 0.880831
vt 0.640373 0.931034
vt 0.553354 0.915844
vt 0.019267 0.530579
vt 0.007859 0.521457
vt 0.046442 0.529740
vt 0.049570 0.479107
vt 0.071362 0.529471
vt 0.073755 0.479105
vt 0.286871 0.585094
vt 0.258350 0.527457
vt 0.398666 0.532091
vt 0.434992 0.939572
vt 0.434890 0.941273
vt 0.555405 0.875899
vt 0.698397 0.872753
vt 0.705950 0.825765
vt 0.704260 0.824619
vt 0.540303 0.473718
vt 0.254250 0.472026
vt 0.549315 0.536358
vt 0.639461 0.479087
vt 0.420768 0.838371
vt 0.327132 0.844227
vt 0.405447 0.577930
vt 0.555136 0.829972
vt 0.698923 0.820999
vt 0.299464 0.652160
vt 0.293506 0.615409
vt 0.407942 0.620341
vt 0.701760 0.541969
vt 0.435315 0.934197
vt 0.000670 0.514389
vt 0.008235 0.544990
vt 0.018738 0.569645
vt 0.043314 0.580372
vt 0.068969 0.579836
vt 0.255225 0.479094
vt 0.538939 0.479088
vt 0.553688 0.582357
vt 0.309491 0.752594
vt 0.310969 0.750901
vt 0.707428 0.680334
vt 0.705724 0.680611
vt 0.315637 0.745555
vt 0.414355 0.729356
vt 0.554412 0.706165
vt 0.700341 0.681485
vt 0.221095 0.472026
vt 0.221563 0.473726
vt 0.062098 0.586732
vt 0.225189 0.527813
vt 0.223043 0.479095
vt 0.227337 0.576531
vt 0.063750 0.585074
vt 0.254484 0.473725
vt 0.297983 0.653831
vt 0.304142 0.646883
vt 0.322830 0.093358
vt 0.331454 0.061820
vt 0.327185 0.098422
vt 0.553897 0.005292
vt 0.640438 0.011658
vt 0.554080 0.010315
vt 0.394680 0.007835
vt 0.431828 0.024683
vt 0.353198 0.023289
vt 0.003027 0.409408
vt 0.008245 0.397582
vt 0.008053 0.409348
vt 0.681224 0.029101
vt 0.645413 0.006716
vt 0.686199 0.024159
vt 0.703430 0.065007
vt 0.683776 0.445198
vt 0.706840 0.405757
vt 0.688851 0.450218
vt 0.644531 0.468629
vt 0.540209 0.468613
vt 0.639456 0.463609
vt 0.348846 0.018201
vt 0.388552 0.000670
vt 0.390328 0.002747
vt 0.325326 0.054655
vt 0.327103 0.056732
vt 0.013810 0.368034
vt 0.036369 0.355315
vt 0.038387 0.357314
vt 0.001282 0.390686
vt 0.003301 0.392685
vt 0.069158 0.468503
vt 0.049561 0.463477
vt 0.073746 0.463485
vt 0.019789 0.451063
vt 0.044455 0.468495
vt 0.014683 0.456081
vt 0.002755 0.426132
vt 0.282508 0.352637
vt 0.261487 0.366816
vt 0.257114 0.361910
vt 0.299686 0.334146
vt 0.295310 0.329236
vt 0.227350 0.366097
vt 0.222888 0.361192
vt 0.423204 0.063852
vt 0.553415 0.026837
vt 0.007861 0.421114
vt 0.019272 0.411996
vt 0.046446 0.412843
vt 0.071366 0.413118
vt 0.258353 0.415177
vt 0.286884 0.357546
vt 0.398670 0.410567
vt 0.435379 0.008468
vt 0.435077 0.003443
vt 0.555461 0.066782
vt 0.698455 0.069949
vt 0.706000 0.116939
vt 0.703963 0.118320
vt 0.254525 0.468560
vt 0.538934 0.463593
vt 0.549319 0.406324
vt 0.420819 0.104292
vt 0.405457 0.364729
vt 0.555185 0.112710
vt 0.698973 0.121704
vt 0.304165 0.295760
vt 0.407959 0.322319
vt 0.701766 0.400737
vt 0.018755 0.372931
vt 0.043332 0.362211
vt 0.068986 0.362753
vt 0.255219 0.463540
vt 0.553699 0.360325
vt 0.311311 0.192092
vt 0.315675 0.197091
vt 0.707456 0.262372
vt 0.705401 0.262038
vt 0.414390 0.213305
vt 0.554443 0.236517
vt 0.700369 0.261220
vt 0.221650 0.468552
vt 0.223035 0.463532
vt 0.064108 0.357855
vt 0.225192 0.414814
vt 0.299792 0.290826
vt 0.045133 0.950719
vt 0.000712 0.949543
vt 0.045141 0.950040
vt 0.000676 0.960913
vt 0.044747 0.961995
vt 0.000670 0.961587
vt 0.437604 0.961055
vt 0.389489 0.961912
vt 0.389487 0.961232
vt 0.485800 0.960853
vt 0.437607 0.961735
vt 0.999324 0.944510
vt 0.904159 0.944095
vt 0.999323 0.943900
vt 0.347872 0.953372
vt 0.303711 0.952574
vt 0.347872 0.952695
vt 0.392048 0.952624
vt 0.392050 0.953301
vt 0.257444 0.952946
vt 0.303707 0.953251
vt 0.288920 0.944726
vt 0.318945 0.944057
vt 0.318943 0.944806
vt 0.348164 0.944142
vt 0.348162 0.944870
vt 0.419323 0.945013
vt 0.450634 0.944412
vt 0.450633 0.945062
vt 0.387198 0.944961
vt 0.419324 0.944346
vt 0.647050 0.945141
vt 0.616818 0.944519
vt 0.647050 0.944527
vt 0.367972 0.944210
vt 0.387200 0.944275
vt 0.032533 0.944195
vt 0.000679 0.943329
vt 0.032535 0.943397
vt 0.666828 0.950536
vt 0.693564 0.949543
vt 0.693572 0.950223
vt 0.259371 0.943857
vt 0.288923 0.943958
vt 0.628046 0.950314
vt 0.666820 0.949856
vt 0.243774 0.961659
vt 0.243775 0.962337
vt 0.904160 0.944714
vt 0.138849 0.951748
vt 0.138856 0.951071
vt 0.428921 0.953086
vt 0.428916 0.952408
vt 0.257450 0.952270
vt 0.367970 0.944916
vt 0.098486 0.961616
vt 0.044752 0.961320
vt 0.528461 0.952139
vt 0.628054 0.950993
vt 0.474259 0.944465
vt 0.474258 0.945101
vt 0.072870 0.944280
vt 0.072871 0.943483
vt 0.616818 0.945144
vt 0.259369 0.944643
vt 0.098484 0.962293
vt 0.528454 0.951462
vt 0.045099 0.953790
vt 0.000676 0.952725
vt 0.045106 0.953221
vt 0.000704 0.957863
vt 0.044770 0.958833
vt 0.000699 0.958428
vt 0.437592 0.957976
vt 0.389478 0.958727
vt 0.389476 0.958157
vt 0.485787 0.957773
vt 0.437594 0.958546
vt 0.999330 0.947267
vt 0.904165 0.946960
vt 0.999329 0.946756
vt 0.347870 0.956433
vt 0.303696 0.955743
vt 0.347870 0.955866
vt 0.392062 0.956366
vt 0.392060 0.955798
vt 0.303693 0.956309
vt 0.257423 0.955439
vt 0.318940 0.948196
vt 0.288916 0.947559
vt 0.318939 0.947568
vt 0.348161 0.947553
vt 0.348162 0.948162
vt 0.450632 0.948005
vt 0.419322 0.947471
vt 0.450632 0.947460
vt 0.387198 0.948062
vt 0.419322 0.948030
vt 0.647054 0.947915
vt 0.616819 0.947442
vt 0.647053 0.947402
vt 0.367971 0.948109
vt 0.387197 0.947487
vt 0.000670 0.947742
vt 0.032527 0.947138
vt 0.032525 0.947807
vt 0.666864 0.953611
vt 0.693601 0.952728
vt 0.693608 0.953298
vt 0.288916 0.948203
vt 0.259364 0.947542
vt 0.628083 0.953497
vt 0.666857 0.953041
vt 0.243771 0.959159
vt 0.243770 0.958591
vt 0.904166 0.947481
vt 0.138823 0.954246
vt 0.138817 0.954813
vt 0.428945 0.956155
vt 0.428940 0.955586
vt 0.257419 0.956005
vt 0.367970 0.947518
vt 0.044774 0.958268
vt 0.098493 0.959123
vt 0.628090 0.954067
vt 0.528488 0.954642
vt 0.474258 0.947444
vt 0.474258 0.947976
vt 0.072864 0.947216
vt 0.072863 0.947884
vt 0.616819 0.947965
vt 0.259363 0.948198
vt 0.098495 0.958556
vt 0.528494 0.955209
vt 0.045119 0.951970
vt 0.000704 0.950222
vt 0.000688 0.959671
vt 0.389482 0.959980
vt 0.437599 0.959800
vt 0.904163 0.945837
vt 0.999327 0.945633
vt 0.347871 0.954619
vt 0.392055 0.954549
vt 0.303702 0.954497
vt 0.318941 0.946187
vt 0.348162 0.946211
vt 0.450633 0.946261
vt 0.419322 0.946242
vt 0.616818 0.946293
vt 0.647052 0.946271
vt 0.387198 0.946224
vt 0.032530 0.945667
vt 0.000677 0.944128
vt 0.693587 0.951476
vt 0.288918 0.946143
vt 0.666842 0.951789
vt 0.243772 0.960409
vt 0.138836 0.952997
vt 0.428931 0.954336
vt 0.257434 0.954192
vt 0.367970 0.946217
vt 0.044761 0.960077
vt 0.628069 0.952245
vt 0.474258 0.946272
vt 0.072867 0.945748
vt 0.259366 0.946092
vt 0.098489 0.960370
vt 0.528475 0.953391
vt 0.485790 0.958343
vt 0.000674 0.945601
vt 0.554016 0.932366
vt 0.008047 0.533223
vt 0.647377 0.937996
vt 0.688165 0.920558
vt 0.705401 0.879714
vt 0.708907 0.534901
vt 0.690925 0.490436
vt 0.042381 0.472039
vt 0.012607 0.484444
vt 0.280708 0.592006
vt 0.321052 0.091291
vt 0.553822 0.003242
vt 0.000975 0.409433
vt 0.647444 0.004698
vt 0.688230 0.022141
vt 0.705460 0.062989
vt 0.708911 0.407806
vt 0.690922 0.452268
vt 0.646602 0.470679
vt 0.540729 0.470662
vt 0.067286 0.470552
vt 0.042370 0.470543
vt 0.012598 0.458129
vt 0.000670 0.428181
vt 0.280722 0.350633
vt 0.255329 0.359907
vt 0.293523 0.327232
vt 0.221066 0.359189
vt 0.434954 0.001392
vt 0.254242 0.470609
vt 0.309530 0.190051
vt 0.221085 0.470601
vt 0.062117 0.355856
vt 0.298006 0.288812
vt 0.347006 0.926530
vt 0.011773 0.576539
vt 0.347070 0.016124
vt 0.011791 0.366035
vt 0.485803 0.961534
vt 0.000670 0.953294
vt 0.000671 0.947073
vt 0.000690 0.951474
vt 0.485795 0.959598
vt 0.761209 0.492585
vt 0.726452 0.498236
vt 0.724812 0.496825
vt 0.810955 0.175537
vt 0.813987 0.266955
vt 0.812360 0.266895
vt 0.792660 0.388173
vt 0.809395 0.425089
vt 0.794030 0.466306
vt 0.427286 0.814291
vt 0.410246 0.816191
vt 0.410266 0.814563
vt 0.788313 0.140355
vt 0.793629 0.135006
vt 0.753043 0.117877
vt 0.413637 0.114423
vt 0.374852 0.137749
vt 0.369454 0.132291
vt 0.351153 0.176328
vt 0.349527 0.279884
vt 0.349527 0.174683
vt 0.816513 0.431180
vt 0.799501 0.470986
vt 0.814865 0.429769
vt 0.762858 0.493996
vt 0.464026 0.781043
vt 0.451782 0.803856
vt 0.462440 0.779440
vt 0.428872 0.815893
vt 0.351170 0.773393
vt 0.349542 0.750293
vt 0.351168 0.748807
vt 0.368892 0.797486
vt 0.363495 0.802975
vt 0.393246 0.814834
vt 0.452660 0.557368
vt 0.467155 0.536841
vt 0.457934 0.562072
vt 0.485132 0.519419
vt 0.490410 0.524126
vt 0.458638 0.596087
vt 0.459524 0.563490
vt 0.460227 0.597533
vt 0.753736 0.396736
vt 0.755739 0.487905
vt 0.805639 0.180885
vt 0.790541 0.267355
vt 0.407705 0.798012
vt 0.398642 0.809346
vt 0.406872 0.771013
vt 0.356567 0.767904
vt 0.406605 0.746254
vt 0.356565 0.743876
vt 0.461877 0.532135
vt 0.404607 0.560472
vt 0.409215 0.421050
vt 0.814175 0.384973
vt 0.815803 0.385071
vt 0.750849 0.265315
vt 0.747727 0.123226
vt 0.701036 0.115720
vt 0.699939 0.117337
vt 0.351154 0.280297
vt 0.349530 0.564545
vt 0.413458 0.271359
vt 0.356551 0.181785
vt 0.713552 0.399098
vt 0.719368 0.492141
vt 0.454763 0.414314
vt 0.705212 0.265581
vt 0.696299 0.122702
vt 0.528580 0.519681
vt 0.492000 0.525545
vt 0.496904 0.411836
vt 0.419034 0.119881
vt 0.808772 0.384648
vt 0.391620 0.816488
vt 0.422023 0.808972
vt 0.446518 0.798538
vt 0.457177 0.774122
vt 0.456645 0.748633
vt 0.356554 0.563576
vt 0.356551 0.281669
vt 0.459165 0.267014
vt -0.029211 0.497974
vt -0.062877 0.491366
vt -0.026488 0.495635
vt -0.116560 0.266620
vt -0.112397 0.176267
vt -0.113859 0.266523
vt -0.095330 0.387857
vt -0.112095 0.424759
vt -0.111440 0.384318
vt 0.286758 0.816176
vt 0.270766 0.813207
vt 0.286727 0.813475
vt -0.090782 0.140040
vt -0.108141 0.180557
vt -0.054439 0.118655
vt -0.095039 0.135751
vt 0.282841 0.115495
vt 0.322680 0.137769
vt 0.278512 0.119865
vt 0.345274 0.177449
vt 0.327009 0.133399
vt 0.347890 0.279923
vt 0.345191 0.280607
vt -0.101151 0.469736
vt -0.119218 0.430844
vt -0.116482 0.428507
vt -0.065614 0.493704
vt -0.103887 0.472074
vt 0.246280 0.802756
vt 0.233006 0.780990
vt 0.235639 0.778333
vt 0.268133 0.815863
vt 0.243647 0.805412
vt 0.347510 0.750326
vt 0.344794 0.772334
vt 0.344814 0.747859
vt 0.328125 0.797504
vt 0.340472 0.767932
vt 0.302688 0.813742
vt 0.332446 0.801906
vt 0.231108 0.535854
vt 0.244539 0.557327
vt 0.240308 0.561093
vt 0.212095 0.519351
vt 0.235340 0.532086
vt 0.239579 0.595089
vt 0.237670 0.563443
vt -0.056414 0.396451
vt -0.096764 0.465989
vt -0.093113 0.267039
vt 0.289312 0.798000
vt 0.298366 0.809341
vt 0.286677 0.809145
vt 0.290166 0.771003
vt 0.290451 0.746245
vt 0.292589 0.560467
vt 0.288090 0.421041
vt -0.115771 0.384575
vt -0.053420 0.265032
vt -0.050182 0.122944
vt -0.003485 0.115477
vt -0.001668 0.118161
vt 0.347662 0.564583
vt 0.344964 0.564209
vt 0.340945 0.181819
vt 0.283967 0.271347
vt -0.016231 0.398846
vt -0.058490 0.487619
vt 0.242547 0.414269
vt -0.007783 0.265334
vt 0.001246 0.122463
vt 0.205222 0.525472
vt 0.169701 0.518645
vt 0.207862 0.523121
vt 0.200408 0.411758
vt -0.109531 0.266368
vt 0.274987 0.808949
vt 0.250501 0.798497
vt 0.239860 0.774074
vt 0.240410 0.748586
vt 0.340640 0.563609
vt 0.340865 0.281703
vt -0.118472 0.384736
vt 0.238263 0.266966
vt 0.314085 0.085935
vt 0.323242 0.139747
vt 0.314085 0.139747
vt 0.155794 0.547703
vt 0.146654 0.674750
vt 0.146638 0.547703
vt 0.156068 1.149087
vt 0.146706 0.807937
vt 0.155861 0.807933
vt 0.314087 0.009026
vt 0.323246 -0.067924
vt 0.323243 0.009027
vt 0.314105 1.417853
vt 0.323233 1.545080
vt 0.314078 1.545078
vt 0.216466 -0.281441
vt 0.207412 0.022490
vt 0.207307 -0.281438
vt 0.314102 0.428217
vt 0.323292 0.845617
vt 0.314136 0.845617
vt 0.155845 0.314860
vt 0.146652 0.420722
vt 0.146688 0.314856
vt 0.156191 -0.255911
vt 0.147114 -0.366942
vt 0.156271 -0.366935
vt 0.156248 1.417777
vt 0.147182 1.545080
vt 0.147093 1.417783
vt 0.207251 -0.419215
vt 0.216411 -0.419218
vt 0.155809 0.420725
vt 0.314085 0.193561
vt 0.323243 0.193561
vt 0.216571 0.022488
vt 0.207571 0.844729
vt 0.314085 -0.598077
vt 0.323235 -0.696430
vt 0.323241 -0.598077
vt 0.323242 0.085935
vt 0.314080 0.290568
vt 0.323259 0.428215
vt 0.314085 0.286082
vt 0.323243 0.286082
vt 0.147171 -0.443502
vt 0.156328 -0.443495
vt 0.155810 0.674748
vt 0.216459 1.452527
vt 0.207252 1.545047
vt 0.207307 1.452522
vt 0.314075 -0.774013
vt 0.314080 -0.696429
vt 0.146913 1.149093
vt 0.216498 1.381057
vt 0.207345 1.381052
vt 0.277894 0.139746
vt 0.295445 0.085935
vt 0.295444 0.139747
vt 0.191981 0.547703
vt 0.174449 0.674743
vt 0.174433 0.547703
vt 0.192046 0.807915
vt 0.174705 1.149075
vt 0.174499 0.807923
vt 0.277904 -0.067926
vt 0.295448 0.009026
vt 0.277900 0.009025
vt 0.277919 1.417847
vt 0.295439 1.545074
vt 0.277892 1.545071
vt 0.252666 -0.281454
vt 0.235215 0.022483
vt 0.235112 -0.281448
vt 0.277915 0.428221
vt 0.295497 0.845617
vt 0.277948 0.845618
vt 0.192034 0.314876
vt 0.174449 0.420729
vt 0.174485 0.314868
vt 0.192462 -0.366909
vt 0.174832 -0.255898
vt 0.174912 -0.366922
vt 0.192432 1.417752
vt 0.174975 1.545061
vt 0.174886 1.417765
vt 0.252611 -0.419233
vt 0.235056 -0.419226
vt 0.191997 0.420733
vt 0.295444 0.193561
vt 0.277893 0.193561
vt 0.252767 0.022479
vt 0.235365 0.844728
vt 0.277894 -0.696428
vt 0.295446 -0.598076
vt 0.277899 -0.598076
vt 0.277895 0.085934
vt 0.277892 0.290573
vt 0.295463 0.428219
vt 0.277893 0.286082
vt 0.295444 0.286082
vt 0.192518 -0.443469
vt 0.174968 -0.443481
vt 0.191996 0.674739
vt 0.252576 1.545074
vt 0.235090 1.452538
vt 0.252631 1.452548
vt 0.277890 -0.774011
vt 0.295441 -0.696429
vt 0.192252 1.149063
vt 0.252672 1.381076
vt 0.235130 1.381067
vt 0.628315 0.509667
vt 0.626696 0.508253
vt 0.556523 0.114249
vt 0.556788 0.115879
vt 0.621321 0.503559
vt 0.605228 0.405467
vt 0.582188 0.266297
vt 0.557667 0.121291
vt 0.068918 0.509484
vt 0.071607 0.507140
vt 0.141029 0.114123
vt 0.140587 0.116828
vt 0.075917 0.503382
vt 0.092089 0.405302
vt 0.115240 0.266150
vt 0.139879 0.121164
vt 0.314128 1.263016
vt 0.323261 1.417855
vt 0.146842 0.029471
vt 0.155999 0.029476
vt 0.277941 1.263013
vt 0.295466 1.417850
vt 0.192189 0.029498
vt 0.174640 0.029488
vt 0.349532 0.597487
vt 0.351158 0.597039
vt 0.463496 0.755460
vt 0.404961 0.593420
vt 0.356556 0.595552
vt 0.453365 0.591287
vt 0.347634 0.597524
vt 0.344937 0.596779
vt 0.233555 0.755408
vt 0.236188 0.752787
vt 0.292210 0.593414
vt 0.340492 0.743905
vt 0.243807 0.591246
vt 0.314090 -0.067925
vt 0.323248 -0.141834
vt 0.216716 0.939855
vt 0.207562 0.939852
vt 0.277906 -0.141835
vt 0.295451 -0.067925
vt 0.252894 0.939867
vt 0.235350 0.939861
vt 0.461910 0.753879
vt 0.236941 0.597487
vt 0.314092 -0.141835
vt 0.295453 -0.141835
vt 0.351156 0.564321
vt 0.216727 0.844729
vt 0.252913 0.844728
vt 0.323284 1.263016
vt 0.295489 1.263014
vt 0.530178 0.521098
vt 0.523274 0.514977
vt 0.167047 0.520994
vt 0.285542 0.112769
vt 0.173955 0.514879
vt 0.147034 -0.255917
vt 0.192381 -0.255886
vt 0.806959 0.266697
vt 0.410332 0.809159
vt 0.812556 0.173926
vt 0.795230 0.133395
vt 0.754645 0.116266
vt 0.412010 0.112779
vt 0.367828 0.130647
vt 0.349544 0.775047
vt 0.361869 0.804629
vt 0.468745 0.538259
vt -0.022122 0.491884
vt -0.115053 0.173592
vt -0.057094 0.115979
vt -0.097694 0.133075
vt 0.347975 0.174723
vt 0.329709 0.130673
vt 0.347489 0.775080
vt 0.305383 0.816488
vt 0.335142 0.804651
vt 0.228468 0.538205
vt 0.340613 0.595584
vt 0.295441 0.290570
vt 0.235036 1.545063
vt 0.295437 -0.774012
vt 0.267645 0.139746
vt 0.202242 0.674736
vt 0.202228 0.547703
vt 0.202498 1.149057
vt 0.202293 0.807910
vt 0.267653 0.009024
vt 0.267646 1.545068
vt 0.263017 0.022476
vt 0.262916 -0.281458
vt 0.267667 0.428222
vt 0.267701 0.845618
vt 0.202244 0.420735
vt 0.202282 0.314880
vt 0.202710 -0.366901
vt 0.202768 1.545042
vt 0.202679 1.417745
vt 0.262862 -0.419237
vt 0.267645 0.193561
vt 0.263161 0.844729
vt 0.267652 -0.598076
vt 0.267647 0.085933
vt 0.267645 0.286082
vt 0.202766 -0.443461
vt 0.262874 1.452554
vt 0.267648 -0.696427
vt 0.262915 1.381082
vt 0.267672 1.417845
vt 0.202437 0.029505
vt 0.267659 -0.141835
vt 0.267657 -0.067926
vt 0.263139 0.939871
vt 0.267693 1.263012
vt 0.202629 -0.255879
vt 0.801149 0.472397
vt 0.453367 0.805459
vt 0.156337 1.545074
vt 0.323237 0.290566
vt 0.216405 1.545053
vt 0.323230 -0.774013
vt 0.192522 1.545048
vt 0.267645 0.290575
vt 0.262819 1.545080
vt 0.267644 -0.774010
vn -0.0060 -0.0412 0.9991
vn -0.1222 -0.7258 0.6770
vn -0.0060 -0.0413 0.9991
vn -0.7097 0.0183 0.7043
vn -0.0519 -0.7340 0.6771
vn 0.7020 -0.0658 0.7092
vn 0.7344 0.0804 0.6739
vn -0.7431 -0.1157 0.6590
vn -0.0059 -0.0412 0.9991
vn -0.0059 -0.0413 0.9991
vn -0.2715 -0.7238 0.6343
vn -0.7458 -0.1345 0.6525
vn -0.1963 -0.7473 0.6349
vn -0.6604 -0.1054 0.7435
vn -0.7094 0.0220 0.7045
vn -0.7098 0.0183 0.7042
vn 0.0251 0.6767 0.7358
vn 0.7019 -0.0658 0.7093
vn -0.2363 -0.6466 0.7253
vn 0.0929 -0.7668 0.6351
vn -0.7094 0.0220 0.7044
vn 0.0060 0.0413 -0.9991
vn 0.0060 0.0412 -0.9991
vn 0.0059 0.0412 -0.9991
vn -0.7352 -0.0607 -0.6751
vn -0.2635 -0.6689 -0.6950
vn -0.7379 -0.0799 -0.6701
vn -0.1884 -0.6923 -0.6966
vn 0.0059 0.0413 -0.9991
vn 0.0335 0.7350 -0.6772
vn -0.9660 0.2584 0.0049
vn -0.5140 0.6025 -0.6105
vn -0.7166 0.2201 -0.6619
vn -0.6680 0.7437 0.0267
vn -0.1098 0.7640 -0.6358
vn 0.7394 0.6725 0.0321
vn 0.1804 0.7520 -0.6340
vn 0.2364 0.9708 0.0415
vn 0.9894 0.1444 0.0118
vn 0.5782 0.5484 -0.6042
vn 0.7104 -0.0075 -0.7038
vn 0.7423 0.1353 -0.6562
vn -0.7928 -0.6087 -0.0298
vn -0.6071 -0.4428 -0.6599
vn -0.3583 -0.9327 -0.0407
vn -0.9977 0.0672 -0.0032
vn -0.9929 -0.1185 -0.0108
vn -0.9896 -0.1430 -0.0118
vn -0.5689 -0.4945 -0.6571
vn -0.7396 -0.6723 -0.0323
vn -0.2579 -0.9653 -0.0414
vn 0.6640 -0.7472 -0.0269
vn 0.7273 -0.1565 -0.6682
vn 0.9692 -0.2464 -0.0043
vn 0.1298 -0.9907 -0.0401
vn 0.5198 -0.5548 -0.6496
vn 0.9987 -0.0518 0.0038
vn -0.0435 -0.6758 -0.7358
vn 0.1009 -0.7121 -0.6948
vn -0.9936 -0.1126 -0.0106
vn -0.4743 -0.3376 -0.8131
vn -0.6515 -0.0434 -0.7574
vn -0.3521 -0.9351 -0.0407
vn -0.7907 -0.6114 -0.0300
vn -0.7011 0.0803 -0.7086
vn -0.1137 -0.6674 -0.7360
vn -0.2273 -0.5845 -0.7789
vn 0.0414 0.9983 0.0414
vn -0.7013 0.0766 -0.7087
vn -0.1668 -0.9851 -0.0416
vn -0.1137 -0.6675 -0.7359
vn -0.7013 0.0767 -0.7087
vn -0.0675 -0.9969 -0.0415
vn -0.1525 0.9875 0.0398
vn -0.1668 -0.9851 -0.0417
vn 0.7104 -0.0074 -0.7038
vn -0.9974 0.0724 -0.0029
vn -0.7010 0.0803 -0.7086
vn -0.9974 0.0724 -0.0030
vn -0.7245 0.1653 0.6692
vn -0.6679 0.7437 0.0267
vn -0.5215 0.5504 0.6520
vn 0.5706 0.4964 0.6542
vn 0.2364 0.9708 0.0414
vn 0.1725 0.6971 0.6959
vn 0.7394 0.6725 0.0323
vn 0.9894 0.1445 0.0119
vn -0.6147 -0.4953 0.6139
vn -0.9929 -0.1185 -0.0109
vn -0.7928 -0.6087 -0.0299
vn -0.3582 -0.9327 -0.0406
vn -0.9977 0.0672 -0.0033
vn -0.5765 -0.5467 0.6072
vn -0.9896 -0.1431 -0.0117
vn -0.7396 -0.6723 -0.0321
vn -0.2579 -0.9653 -0.0413
vn 0.7194 -0.2114 0.6617
vn 0.9691 -0.2464 -0.0044
vn 0.5123 -0.6067 0.6079
vn 0.9987 -0.0518 0.0039
vn 0.1297 -0.9907 -0.0400
vn -0.4837 -0.4032 0.7768
vn -0.9936 -0.1127 -0.0106
vn -0.7907 -0.6115 -0.0300
vn 0.0414 0.9983 0.0415
vn -0.9977 0.0672 -0.0031
vn -0.1177 0.7091 0.6952
vn 0.9894 0.1444 0.0119
vn -0.7928 -0.6088 -0.0299
vn -0.3583 -0.9327 -0.0406
vn -0.7396 -0.6723 -0.0322
vn 0.9692 -0.2464 -0.0044
vn 0.6640 -0.7473 -0.0269
vn 0.1298 -0.9907 -0.0402
vn -0.3521 -0.9351 -0.0406
vn 0.7344 0.0803 0.6739
vn -0.7431 -0.1157 0.6591
vn -0.2715 -0.7239 0.6343
vn -0.7458 -0.1345 0.6524
vn -0.1963 -0.7472 0.6349
vn 0.7019 -0.0658 0.7092
vn -0.6605 -0.1054 0.7434
vn -0.7095 0.0220 0.7044
vn -0.7097 0.0183 0.7042
vn 0.0929 -0.7670 0.6349
vn -0.7013 0.0767 -0.7088
vn -0.0435 -0.6757 -0.7359
vn -0.7351 -0.0606 -0.6752
vn -0.2635 -0.6690 -0.6950
vn -0.6071 -0.4427 -0.6599
vn -0.1883 -0.6923 -0.6966
vn -0.5690 -0.4945 -0.6570
vn 0.0335 0.7351 -0.6772
vn -0.1525 0.9875 0.0399
vn -0.5140 0.6026 -0.6105
vn 0.7424 0.1353 -0.6562
vn -0.7166 0.2202 -0.6619
vn 0.5782 0.5484 -0.6041
vn 0.7394 0.6725 0.0322
vn 0.1008 -0.7121 -0.6948
vn 0.5197 -0.5548 -0.6497
vn -0.9929 -0.1184 -0.0108
vn -0.0675 -0.9969 -0.0416
vn -0.7907 -0.6114 -0.0299
vn -0.1222 -0.7257 0.6770
vn -0.7010 0.0804 -0.7086
vn -0.7245 0.1652 0.6692
vn -0.5215 0.5505 0.6519
vn 0.5707 0.4964 0.6541
vn 0.5122 -0.6067 0.6079
vn -0.6147 -0.4953 0.6138
s 1
f 270/1/1 65/2/2 285/3/3
f 262/4/3 42/5/4 280/6/1
f 57/7/1 15/8/1 17/9/3
f 273/10/3 52/11/5 283/12/3
f 262/4/3 5/13/1 263/14/3
f 5/13/1 264/15/3 263/14/3
f 265/16/1 11/17/3 266/18/1
f 11/17/3 267/19/1 266/18/1
f 267/19/1 40/20/6 13/21/7
f 19/22/8 269/23/9 268/24/10
f 269/23/9 18/25/11 270/1/1
f 25/26/12 272/27/1 271/28/1
f 272/27/1 24/29/13 273/10/3
f 274/30/1 68/31/6 287/32/3
f 274/30/1 29/33/3 275/34/1
f 29/33/3 276/35/1 275/34/1
f 34/36/1 278/37/1 277/38/1
f 278/37/1 33/39/1 279/40/1
f 289/41/3 36/42/14 75/43/15
f 58/44/1 17/9/3 16/45/3
f 4/46/1 43/47/1 5/13/1
f 53/48/1 27/49/1 29/33/3
f 54/50/1 29/33/3 28/51/1
f 71/52/1 28/51/1 67/53/1
f 35/54/1 55/55/1 56/56/1
f 284/57/1 42/5/4 50/58/16
f 5/13/1 44/59/1 3/60/1
f 63/61/17 264/15/3 286/62/1
f 281/63/9 2/64/18 40/20/6
f 45/65/1 9/66/3 11/17/3
f 66/67/1 16/45/3 62/68/1
f 59/69/1 35/54/1 56/56/1
f 3/60/1 64/70/1 61/71/3
f 282/72/3 37/73/19 279/40/1
f 60/74/1 33/39/1 59/69/1
f 10/75/3 45/65/1 11/17/3
f 43/47/1 49/76/1 57/7/1
f 276/35/1 52/11/5 31/77/20
f 44/59/1 57/7/1 58/44/1
f 22/78/1 53/48/1 23/79/3
f 23/79/3 54/50/1 21/80/1
f 69/81/1 54/50/1 71/52/1
f 56/56/1 1/82/1 39/83/1
f 268/24/10 50/58/16 19/22/8
f 44/59/1 66/67/1 64/70/1
f 45/65/1 56/56/1 39/83/1
f 48/84/1 59/69/1 45/65/1
f 285/3/3 81/85/2 291/86/1
f 77/87/17 286/62/1 292/88/3
f 66/67/1 79/89/1 82/90/1
f 61/71/3 80/91/1 78/92/1
f 64/70/1 82/90/1 80/91/1
f 287/32/3 73/93/6 290/94/1
f 271/28/1 70/95/21 25/26/12
f 76/96/1 67/53/1 72/97/1
f 74/98/1 71/52/1 76/96/1
f 288/99/3 75/43/15 70/95/21
f 290/94/1 2/64/18 261/100/1
f 76/96/1 1/82/1 55/55/1
f 74/98/1 55/55/1 34/36/1
f 291/86/1 47/101/2 282/72/3
f 265/16/1 77/87/17 292/88/3
f 82/90/1 46/102/1 60/74/1
f 78/92/1 48/84/1 10/75/3
f 80/91/1 60/74/1 48/84/1
f 317/103/22 98/104/23 144/105/23
f 312/106/24 86/107/23 123/108/23
f 97/109/23 139/110/23 99/111/23
f 315/112/23 104/113/22 133/114/22
f 87/115/22 294/116/23 295/117/23
f 296/118/23 87/115/22 295/117/23
f 93/119/23 297/120/23 298/121/23
f 299/122/24 93/119/23 298/121/23
f 313/123/22 91/124/23 299/122/24
f 301/125/23 101/126/25 300/127/23
f 100/128/26 301/125/23 302/129/23
f 304/130/24 107/131/27 303/132/22
f 106/133/28 304/130/24 305/134/23
f 319/135/24 110/136/23 149/137/23
f 111/138/23 306/139/23 307/140/22
f 308/141/22 111/138/23 307/140/22
f 310/142/24 116/143/23 309/144/23
f 115/145/23 310/142/24 311/146/22
f 309/144/23 156/147/23 321/148/22
f 99/111/23 140/149/23 98/104/23
f 125/150/23 86/107/23 87/115/22
f 109/151/23 135/152/23 111/138/23
f 111/138/23 136/153/23 110/136/23
f 110/136/23 153/154/23 149/137/23
f 137/155/23 117/156/23 138/157/23
f 312/106/24 131/158/23 316/159/29
f 126/160/23 87/115/22 85/161/22
f 296/118/23 145/162/30 318/163/22
f 293/164/23 121/165/23 313/123/22
f 91/124/23 127/166/23 93/119/23
f 98/104/23 148/167/23 144/105/23
f 117/156/23 141/168/23 138/157/23
f 146/169/23 85/161/22 143/170/23
f 311/146/22 128/171/23 115/145/23
f 115/145/23 142/172/23 141/168/23
f 127/166/23 92/173/23 93/119/23
f 131/158/23 125/150/23 139/110/23
f 315/112/23 109/151/23 308/141/22
f 139/110/23 126/160/23 140/149/23
f 135/152/23 104/113/22 105/174/23
f 136/153/23 105/174/23 103/175/23
f 136/153/23 151/176/23 153/154/23
f 83/177/23 138/157/23 121/165/23
f 316/159/29 97/109/23 300/127/23
f 148/167/23 126/160/23 146/169/23
f 138/157/23 127/166/23 121/165/23
f 141/168/23 130/178/23 127/166/23
f 323/179/23 144/105/23 161/180/23
f 318/163/22 159/181/30 324/182/23
f 161/180/23 148/167/23 164/183/23
f 162/184/23 143/170/23 160/185/23
f 164/183/23 146/169/23 162/184/23
f 322/186/22 149/137/23 154/187/23
f 320/188/29 103/175/23 303/132/22
f 149/137/23 158/189/23 154/187/23
f 153/154/23 156/147/23 158/189/23
f 321/148/22 151/176/23 320/188/29
f 293/164/23 154/187/23 83/177/23
f 83/177/23 158/189/23 137/155/23
f 137/155/23 156/147/23 116/143/23
f 314/190/22 161/180/23 128/171/23
f 159/181/30 297/120/23 324/182/23
f 128/171/23 164/183/23 142/172/23
f 130/178/23 160/185/23 92/173/23
f 142/172/23 162/184/23 130/178/23
f 198/191/31 90/192/32 88/193/33
f 200/194/34 89/195/35 90/196/32
f 203/197/36 94/198/37 201/199/38
f 202/200/39 96/201/40 203/197/36
f 202/202/39 122/203/41 95/204/42
f 206/205/43 101/206/25 102/207/44
f 206/205/43 100/208/26 204/209/45
f 219/210/46 101/206/25 205/211/47
f 208/212/48 108/213/49 209/214/50
f 209/214/50 106/215/28 207/216/51
f 212/217/52 112/218/53 210/219/54
f 211/220/55 114/221/56 212/217/52
f 197/222/57 155/223/41 84/224/41
f 211/220/55 134/225/58 113/226/59
f 213/227/60 120/228/61 118/229/62
f 214/230/63 120/231/61 215/232/64
f 208/212/48 152/233/65 107/234/27
f 214/230/63 129/235/66 119/236/67
f 227/237/68 94/198/37 159/238/30
f 216/239/57 84/224/41 122/203/41
f 217/240/46 88/193/33 124/241/69
f 222/242/70 100/208/26 147/243/71
f 219/210/46 124/241/69 132/244/72
f 220/245/73 106/215/28 134/225/58
f 221/246/68 89/195/35 199/247/74
f 228/248/70 129/235/66 218/249/75
f 210/219/54 150/250/76 223/251/57
f 226/252/77 118/229/62 157/253/78
f 225/254/57 150/250/76 155/223/41
f 226/252/77 152/233/65 224/255/79
f 227/237/68 145/256/30 221/246/68
f 222/242/70 163/257/71 228/248/70
f 6/258/80 168/259/81 166/260/31
f 8/261/82 167/262/74 168/263/81
f 14/264/83 169/265/84 12/266/85
f 13/267/7 171/268/86 14/264/83
f 13/269/7 184/270/57 170/271/87
f 20/272/88 173/273/89 174/274/90
f 18/275/11 174/274/90 172/276/91
f 19/277/8 187/278/92 173/273/89
f 26/279/93 176/280/94 177/281/95
f 26/279/93 175/282/96 24/283/13
f 30/284/97 180/285/52 178/286/98
f 31/287/20 180/285/52 32/288/99
f 2/289/18 193/290/57 165/291/100
f 52/292/5 179/293/101 31/287/20
f 38/294/102 181/295/103 36/296/14
f 37/297/19 183/298/104 38/299/102
f 25/300/12 192/301/77 176/280/94
f 37/297/19 186/302/75 182/303/63
f 12/266/85 195/304/105 77/305/17
f 2/289/18 184/270/57 40/306/6
f 6/258/80 185/307/106 42/308/4
f 65/309/2 172/276/91 190/310/70
f 42/308/4 187/278/92 50/311/16
f 52/292/5 175/282/96 188/312/73
f 7/313/107 189/314/105 167/262/74
f 47/315/2 196/316/75 186/302/75
f 30/284/97 191/317/57 68/318/6
f 36/296/14 194/319/79 75/320/15
f 68/318/6 193/290/57 73/321/6
f 75/320/15 192/301/77 70/322/21
f 77/305/17 189/314/105 63/323/17
f 81/324/2 190/310/70 196/316/75
f 230/325/31 200/326/34 198/191/31
f 232/327/81 199/247/74 200/194/34
f 233/328/38 203/197/36 201/199/38
f 235/329/36 202/200/39 203/197/36
f 248/330/57 202/202/39 234/331/108
f 238/332/109 205/211/47 206/205/43
f 238/332/109 204/209/45 236/333/110
f 237/334/47 219/210/46 205/211/47
f 241/335/111 208/212/48 209/214/50
f 239/336/96 209/214/50 207/216/51
f 242/337/112 212/217/52 210/219/54
f 244/338/113 211/220/55 212/217/52
f 257/339/57 197/222/57 229/340/57
f 243/341/114 220/245/73 211/220/55
f 245/342/103 215/343/64 213/227/60
f 247/344/64 214/230/63 215/232/64
f 240/345/48 224/255/79 208/212/48
f 246/346/115 218/249/75 214/230/63
f 259/347/105 201/199/38 227/237/68
f 229/340/57 216/239/57 248/330/57
f 249/348/46 198/191/31 217/240/46
f 254/349/70 204/209/45 222/242/70
f 251/350/106 217/240/46 219/210/46
f 252/351/73 207/216/51 220/245/73
f 231/352/74 221/246/68 199/247/74
f 250/353/75 228/248/70 218/249/75
f 255/354/57 210/219/54 223/251/57
f 258/355/79 213/227/60 226/252/77
f 255/354/57 225/254/57 257/339/57
f 256/356/79 226/252/77 224/255/79
f 259/347/105 221/246/68 253/357/105
f 260/358/70 222/242/70 228/248/70
f 168/259/81 230/325/31 166/260/31
f 168/263/81 231/352/74 232/327/81
f 171/268/86 233/328/38 169/265/84
f 170/359/87 235/329/36 171/268/86
f 184/270/57 234/331/108 170/271/87
f 173/273/89 238/332/109 174/274/90
f 174/274/90 236/333/110 172/276/91
f 187/278/92 237/334/47 173/273/89
f 177/281/95 240/345/48 241/335/111
f 177/281/95 239/336/96 175/282/96
f 180/285/52 242/337/112 178/286/98
f 180/285/52 243/341/114 244/338/113
f 193/290/57 229/340/57 165/291/100
f 179/293/101 252/351/73 243/341/114
f 181/295/103 247/360/64 245/342/103
f 182/303/63 247/344/64 183/298/104
f 192/301/77 240/345/48 176/280/94
f 186/302/75 246/346/115 182/303/63
f 169/265/84 259/347/105 195/304/105
f 165/291/100 248/330/57 184/270/57
f 185/307/106 230/325/31 249/348/46
f 172/276/91 254/349/70 190/310/70
f 187/278/92 249/348/46 251/350/106
f 175/282/96 252/351/73 188/312/73
f 167/262/74 253/357/105 231/352/74
f 196/316/75 250/353/75 186/302/75
f 178/286/98 255/354/57 191/317/57
f 194/319/79 245/342/103 258/355/79
f 193/290/57 255/354/57 257/339/57
f 192/301/77 258/355/79 256/356/79
f 189/314/105 259/347/105 253/357/105
f 190/310/70 260/358/70 196/316/75
f 16/45/3 285/3/3 62/68/1
f 4/46/1 280/6/1 41/361/1
f 22/78/1 283/12/3 51/362/1
f 6/363/80 263/14/3 8/364/82
f 263/14/3 7/365/107 8/364/82
f 12/366/85 266/18/1 14/367/83
f 266/18/1 13/21/7 14/367/83
f 9/66/3 281/63/9 267/19/1
f 268/24/10 17/9/3 15/8/1
f 17/9/3 270/1/1 16/45/3
f 271/28/1 23/79/3 21/80/1
f 23/79/3 273/10/3 22/78/1
f 28/51/1 287/32/3 67/53/1
f 30/368/97 275/34/1 32/369/99
f 275/34/1 31/77/20 32/369/99
f 277/38/1 38/370/102 36/42/14
f 38/370/102 279/40/1 37/73/19
f 74/98/1 277/38/1 289/41/3
f 49/76/1 280/6/1 284/57/1
f 286/62/1 3/60/1 61/71/3
f 39/83/1 261/100/1 281/63/9
f 46/102/1 279/40/1 33/39/1
f 27/49/1 283/12/3 276/35/1
f 15/8/1 284/57/1 268/24/10
f 62/68/1 291/86/1 79/89/1
f 292/88/3 61/71/3 78/92/1
f 67/53/1 290/94/1 72/97/1
f 21/80/1 288/99/3 271/28/1
f 69/81/1 289/41/3 288/99/3
f 72/97/1 261/100/1 1/82/1
f 79/89/1 282/72/3 46/102/1
f 10/75/3 292/88/3 78/92/1
f 147/371/71 302/129/23 317/103/22
f 124/372/69 294/116/23 312/106/24
f 134/373/58 305/134/23 315/112/23
f 295/117/23 88/374/33 90/375/32
f 89/376/35 295/117/23 90/375/32
f 298/121/23 94/377/37 96/378/40
f 95/379/42 298/121/23 96/378/40
f 122/380/41 299/122/24 95/379/42
f 99/111/23 300/127/23 97/109/23
f 302/129/23 99/111/23 98/104/23
f 105/174/23 303/132/22 103/175/23
f 305/134/23 105/174/23 104/113/22
f 150/381/76 306/139/23 319/135/24
f 307/140/22 112/382/53 114/383/56
f 113/384/59 307/140/22 114/383/56
f 120/385/61 309/144/23 118/386/62
f 311/146/22 120/385/61 119/387/67
f 118/386/62 321/148/22 157/388/78
f 124/372/69 316/159/29 132/389/72
f 85/161/22 318/163/22 143/170/23
f 84/390/41 313/123/22 122/380/41
f 119/387/67 314/190/22 311/146/22
f 134/373/58 308/141/22 113/384/59
f 132/389/72 300/127/23 101/126/25
f 163/391/71 317/103/22 323/179/23
f 143/170/23 324/182/23 160/185/23
f 155/392/41 319/135/24 322/186/22
f 152/393/65 303/132/22 107/131/27
f 157/388/78 320/188/29 152/393/65
f 84/390/41 322/186/22 293/164/23
f 129/394/66 323/179/23 314/190/22
f 324/182/23 92/173/23 160/185/23
f 270/1/1 18/25/11 65/2/2
f 262/4/3 6/363/80 42/5/4
f 57/7/1 49/76/1 15/8/1
f 273/10/3 24/29/13 52/11/5
f 262/4/3 4/46/1 5/13/1
f 5/13/1 3/60/1 264/15/3
f 265/16/1 10/75/3 11/17/3
f 11/17/3 9/66/3 267/19/1
f 267/19/1 281/63/9 40/20/6
f 19/22/8 20/395/88 269/23/9
f 269/23/9 20/395/88 18/25/11
f 25/26/12 26/396/93 272/27/1
f 272/27/1 26/396/93 24/29/13
f 274/30/1 30/368/97 68/31/6
f 274/30/1 28/51/1 29/33/3
f 29/33/3 27/49/1 276/35/1
f 34/36/1 35/54/1 278/37/1
f 278/37/1 35/54/1 33/39/1
f 289/41/3 277/38/1 36/42/14
f 58/44/1 57/7/1 17/9/3
f 4/46/1 41/361/1 43/47/1
f 53/48/1 51/362/1 27/49/1
f 54/50/1 53/48/1 29/33/3
f 71/52/1 54/50/1 28/51/1
f 35/54/1 34/36/1 55/55/1
f 284/57/1 280/6/1 42/5/4
f 5/13/1 43/47/1 44/59/1
f 63/61/17 7/365/107 264/15/3
f 281/63/9 261/100/1 2/64/18
f 45/65/1 39/83/1 9/66/3
f 66/67/1 58/44/1 16/45/3
f 59/69/1 33/39/1 35/54/1
f 3/60/1 44/59/1 64/70/1
f 282/72/3 47/101/2 37/73/19
f 60/74/1 46/102/1 33/39/1
f 10/75/3 48/84/1 45/65/1
f 43/47/1 41/361/1 49/76/1
f 276/35/1 283/12/3 52/11/5
f 44/59/1 43/47/1 57/7/1
f 22/78/1 51/362/1 53/48/1
f 23/79/3 53/48/1 54/50/1
f 69/81/1 21/80/1 54/50/1
f 56/56/1 55/55/1 1/82/1
f 268/24/10 284/57/1 50/58/16
f 44/59/1 58/44/1 66/67/1
f 45/65/1 59/69/1 56/56/1
f 48/84/1 60/74/1 59/69/1
f 285/3/3 65/2/2 81/85/2
f 77/87/17 63/61/17 286/62/1
f 66/67/1 62/68/1 79/89/1
f 61/71/3 64/70/1 80/91/1
f 64/70/1 66/67/1 82/90/1
f 287/32/3 68/31/6 73/93/6
f 271/28/1 288/99/3 70/95/21
f 76/96/1 71/52/1 67/53/1
f 74/98/1 69/81/1 71/52/1
f 288/99/3 289/41/3 75/43/15
f 290/94/1 73/93/6 2/64/18
f 76/96/1 72/97/1 1/82/1
f 74/98/1 76/96/1 55/55/1
f 291/86/1 81/85/2 47/101/2
f 265/16/1 12/366/85 77/87/17
f 82/90/1 79/89/1 46/102/1
f 78/92/1 80/91/1 48/84/1
f 80/91/1 82/90/1 60/74/1
f 317/103/22 302/129/23 98/104/23
f 312/106/24 294/116/23 86/107/23
f 97/109/23 131/158/23 139/110/23
f 315/112/23 305/134/23 104/113/22
f 87/115/22 86/107/23 294/116/23
f 296/118/23 85/161/22 87/115/22
f 93/119/23 92/173/23 297/120/23
f 299/122/24 91/124/23 93/119/23
f 313/123/22 121/165/23 91/124/23
f 301/125/23 102/397/44 101/126/25
f 100/128/26 102/397/44 301/125/23
f 304/130/24 108/398/49 107/131/27
f 106/133/28 108/398/49 304/130/24
f 319/135/24 306/139/23 110/136/23
f 111/138/23 110/136/23 306/139/23
f 308/141/22 109/151/23 111/138/23
f 310/142/24 117/156/23 116/143/23
f 115/145/23 117/156/23 310/142/24
f 309/144/23 116/143/23 156/147/23
f 99/111/23 139/110/23 140/149/23
f 125/150/23 123/108/23 86/107/23
f 109/151/23 133/114/22 135/152/23
f 111/138/23 135/152/23 136/153/23
f 110/136/23 136/153/23 153/154/23
f 137/155/23 116/143/23 117/156/23
f 312/106/24 123/108/23 131/158/23
f 126/160/23 125/150/23 87/115/22
f 296/118/23 89/376/35 145/162/30
f 293/164/23 83/177/23 121/165/23
f 91/124/23 121/165/23 127/166/23
f 98/104/23 140/149/23 148/167/23
f 117/156/23 115/145/23 141/168/23
f 146/169/23 126/160/23 85/161/22
f 311/146/22 314/190/22 128/171/23
f 115/145/23 128/171/23 142/172/23
f 127/166/23 130/178/23 92/173/23
f 131/158/23 123/108/23 125/150/23
f 315/112/23 133/114/22 109/151/23
f 139/110/23 125/150/23 126/160/23
f 135/152/23 133/114/22 104/113/22
f 136/153/23 135/152/23 105/174/23
f 136/153/23 103/175/23 151/176/23
f 83/177/23 137/155/23 138/157/23
f 316/159/29 131/158/23 97/109/23
f 148/167/23 140/149/23 126/160/23
f 138/157/23 141/168/23 127/166/23
f 141/168/23 142/172/23 130/178/23
f 323/179/23 317/103/22 144/105/23
f 318/163/22 145/162/30 159/181/30
f 161/180/23 144/105/23 148/167/23
f 162/184/23 146/169/23 143/170/23
f 164/183/23 148/167/23 146/169/23
f 322/186/22 319/135/24 149/137/23
f 320/188/29 151/176/23 103/175/23
f 149/137/23 153/154/23 158/189/23
f 153/154/23 151/176/23 156/147/23
f 321/148/22 156/147/23 151/176/23
f 293/164/23 322/186/22 154/187/23
f 83/177/23 154/187/23 158/189/23
f 137/155/23 158/189/23 156/147/23
f 314/190/22 323/179/23 161/180/23
f 159/181/30 94/377/37 297/120/23
f 128/171/23 161/180/23 164/183/23
f 130/178/23 162/184/23 160/185/23
f 142/172/23 164/183/23 162/184/23
f 198/191/31 200/326/34 90/192/32
f 200/194/34 199/247/74 89/195/35
f 203/197/36 96/201/40 94/198/37
f 202/200/39 95/399/42 96/201/40
f 202/202/39 216/239/57 122/203/41
f 206/205/43 205/211/47 101/206/25
f 206/205/43 102/207/44 100/208/26
f 219/210/46 132/244/72 101/206/25
f 208/212/48 107/234/27 108/213/49
f 209/214/50 108/213/49 106/215/28
f 212/217/52 114/221/56 112/218/53
f 211/220/55 113/226/59 114/221/56
f 197/222/57 225/254/57 155/223/41
f 211/220/55 220/245/73 134/225/58
f 213/227/60 215/343/64 120/228/61
f 214/230/63 119/236/67 120/231/61
f 208/212/48 224/255/79 152/233/65
f 214/230/63 218/249/75 129/235/66
f 227/237/68 201/199/38 94/198/37
f 216/239/57 197/222/57 84/224/41
f 217/240/46 198/191/31 88/193/33
f 222/242/70 204/209/45 100/208/26
f 219/210/46 217/240/46 124/241/69
f 220/245/73 207/216/51 106/215/28
f 221/246/68 145/256/30 89/195/35
f 228/248/70 163/257/71 129/235/66
f 210/219/54 112/218/53 150/250/76
f 226/252/77 213/227/60 118/229/62
f 225/254/57 223/251/57 150/250/76
f 226/252/77 157/253/78 152/233/65
f 227/237/68 159/238/30 145/256/30
f 222/242/70 147/243/71 163/257/71
f 6/258/80 8/400/82 168/259/81
f 8/261/82 7/313/107 167/262/74
f 14/264/83 171/268/86 169/265/84
f 13/267/7 170/359/87 171/268/86
f 13/269/7 40/306/6 184/270/57
f 20/272/88 19/277/8 173/273/89
f 18/275/11 20/272/88 174/274/90
f 19/277/8 50/311/16 187/278/92
f 26/279/93 25/300/12 176/280/94
f 26/279/93 177/281/95 175/282/96
f 30/284/97 32/288/99 180/285/52
f 31/287/20 179/293/101 180/285/52
f 2/289/18 73/321/6 193/290/57
f 52/292/5 188/312/73 179/293/101
f 38/294/102 183/401/104 181/295/103
f 37/297/19 182/303/63 183/298/104
f 25/300/12 70/322/21 192/301/77
f 37/297/19 47/315/2 186/302/75
f 12/266/85 169/265/84 195/304/105
f 2/289/18 165/291/100 184/270/57
f 6/258/80 166/260/31 185/307/106
f 65/309/2 18/275/11 172/276/91
f 42/308/4 185/307/106 187/278/92
f 52/292/5 24/283/13 175/282/96
f 7/313/107 63/323/17 189/314/105
f 47/315/2 81/324/2 196/316/75
f 30/284/97 178/286/98 191/317/57
f 36/296/14 181/295/103 194/319/79
f 68/318/6 191/317/57 193/290/57
f 75/320/15 194/319/79 192/301/77
f 77/305/17 195/304/105 189/314/105
f 81/324/2 65/309/2 190/310/70
f 230/325/31 232/402/81 200/326/34
f 232/327/81 231/352/74 199/247/74
f 233/328/38 235/329/36 203/197/36
f 235/329/36 234/403/108 202/200/39
f 248/330/57 216/239/57 202/202/39
f 238/332/109 237/334/47 205/211/47
f 238/332/109 206/205/43 204/209/45
f 237/334/47 251/350/106 219/210/46
f 241/335/111 240/345/48 208/212/48
f 239/336/96 241/335/111 209/214/50
f 242/337/112 244/338/113 212/217/52
f 244/338/113 243/341/114 211/220/55
f 257/339/57 225/254/57 197/222/57
f 243/341/114 252/351/73 220/245/73
f 245/342/103 247/360/64 215/343/64
f 247/344/64 246/346/115 214/230/63
f 240/345/48 256/356/79 224/255/79
f 246/346/115 250/353/75 218/249/75
f 259/347/105 233/328/38 201/199/38
f 229/340/57 197/222/57 216/239/57
f 249/348/46 230/325/31 198/191/31
f 254/349/70 236/333/110 204/209/45
f 251/350/106 249/348/46 217/240/46
f 252/351/73 239/336/96 207/216/51
f 231/352/74 253/357/105 221/246/68
f 250/353/75 260/358/70 228/248/70
f 255/354/57 242/337/112 210/219/54
f 258/355/79 245/342/103 213/227/60
f 255/354/57 223/251/57 225/254/57
f 256/356/79 258/355/79 226/252/77
f 259/347/105 227/237/68 221/246/68
f 260/358/70 254/349/70 222/242/70
f 168/259/81 232/402/81 230/325/31
f 168/263/81 167/262/74 231/352/74
f 171/268/86 235/329/36 233/328/38
f 170/359/87 234/403/108 235/329/36
f 184/270/57 248/330/57 234/331/108
f 173/273/89 237/334/47 238/332/109
f 174/274/90 238/332/109 236/333/110
f 187/278/92 251/350/106 237/334/47
f 177/281/95 176/280/94 240/345/48
f 177/281/95 241/335/111 239/336/96
f 180/285/52 244/338/113 242/337/112
f 180/285/52 179/293/101 243/341/114
f 193/290/57 257/339/57 229/340/57
f 179/293/101 188/312/73 252/351/73
f 181/295/103 183/401/104 247/360/64
f 182/303/63 246/346/115 247/344/64
f 192/301/77 256/356/79 240/345/48
f 186/302/75 250/353/75 246/346/115
f 169/265/84 233/328/38 259/347/105
f 165/291/100 229/340/57 248/330/57
f 185/307/106 166/260/31 230/325/31
f 172/276/91 236/333/110 254/349/70
f 187/278/92 185/307/106 249/348/46
f 175/282/96 239/336/96 252/351/73
f 167/262/74 189/314/105 253/357/105
f 196/316/75 260/358/70 250/353/75
f 178/286/98 242/337/112 255/354/57
f 194/319/79 181/295/103 245/342/103
f 193/290/57 191/317/57 255/354/57
f 192/301/77 194/319/79 258/355/79
f 189/314/105 195/304/105 259/347/105
f 190/310/70 254/349/70 260/358/70
f 16/45/3 270/1/1 285/3/3
f 4/46/1 262/4/3 280/6/1
f 22/78/1 273/10/3 283/12/3
f 6/363/80 262/4/3 263/14/3
f 263/14/3 264/15/3 7/365/107
f 12/366/85 265/16/1 266/18/1
f 266/18/1 267/19/1 13/21/7
f 9/66/3 39/83/1 281/63/9
f 268/24/10 269/23/9 17/9/3
f 17/9/3 269/23/9 270/1/1
f 271/28/1 272/27/1 23/79/3
f 23/79/3 272/27/1 273/10/3
f 28/51/1 274/30/1 287/32/3
f 30/368/97 274/30/1 275/34/1
f 275/34/1 276/35/1 31/77/20
f 277/38/1 278/37/1 38/370/102
f 38/370/102 278/37/1 279/40/1
f 74/98/1 34/36/1 277/38/1
f 49/76/1 41/361/1 280/6/1
f 286/62/1 264/15/3 3/60/1
f 39/83/1 1/82/1 261/100/1
f 46/102/1 282/72/3 279/40/1
f 27/49/1 51/362/1 283/12/3
f 15/8/1 49/76/1 284/57/1
f 62/68/1 285/3/3 291/86/1
f 292/88/3 286/62/1 61/71/3
f 67/53/1 287/32/3 290/94/1
f 21/80/1 69/81/1 288/99/3
f 69/81/1 74/98/1 289/41/3
f 72/97/1 290/94/1 261/100/1
f 79/89/1 291/86/1 282/72/3
f 10/75/3 265/16/1 292/88/3
f 147/371/71 100/128/26 302/129/23
f 124/372/69 88/374/33 294/116/23
f 134/373/58 106/133/28 305/134/23
f 295/117/23 294/116/23 88/374/33
f 89/376/35 296/118/23 295/117/23
f 298/121/23 297/120/23 94/377/37
f 95/379/42 299/122/24 298/121/23
f 122/380/41 313/123/22 299/122/24
f 99/111/23 301/125/23 300/127/23
f 302/129/23 301/125/23 99/111/23
f 105/174/23 304/130/24 303/132/22
f 305/134/23 304/130/24 105/174/23
f 150/381/76 112/382/53 306/139/23
f 307/140/22 306/139/23 112/382/53
f 113/384/59 308/141/22 307/140/22
f 120/385/61 310/142/24 309/144/23
f 311/146/22 310/142/24 120/385/61
f 118/386/62 309/144/23 321/148/22
f 124/372/69 312/106/24 316/159/29
f 85/161/22 296/118/23 318/163/22
f 84/390/41 293/164/23 313/123/22
f 119/387/67 129/394/66 314/190/22
f 134/373/58 315/112/23 308/141/22
f 132/389/72 316/159/29 300/127/23
f 163/391/71 147/371/71 317/103/22
f 143/170/23 318/163/22 324/182/23
f 155/392/41 150/381/76 319/135/24
f 152/393/65 320/188/29 303/132/22
f 157/388/78 321/148/22 320/188/29
f 84/390/41 155/392/41 322/186/22
f 129/394/66 163/391/71 323/179/23
f 324/182/23 297/120/23 92/173/23
f 530/404/1 473/405/2 545/406/3
f 522/407/10 366/408/4 540/409/1
f 381/410/1 339/411/1 341/412/1
f 533/413/1 376/414/5 543/415/1
f 522/407/10 329/416/3 523/417/1
f 329/416/3 524/418/1 523/417/1
f 525/419/1 335/420/1 526/421/9
f 335/420/1 527/422/3 526/421/9
f 527/422/3 364/423/6 337/424/116
f 343/425/117 529/426/3 528/427/9
f 529/426/3 342/428/118 530/404/1
f 349/429/119 532/430/1 531/431/3
f 532/430/1 348/432/120 533/413/1
f 534/433/1 484/434/121 547/435/9
f 534/433/1 353/436/1 535/437/3
f 353/436/1 536/438/3 535/437/3
f 358/439/1 538/440/1 537/441/1
f 538/440/1 357/442/1 539/443/1
f 549/444/3 360/445/122 502/446/123
f 382/447/1 341/412/1 340/448/3
f 328/449/1 367/450/1 329/416/3
f 377/451/1 351/452/1 353/436/1
f 378/453/1 353/436/1 352/454/1
f 487/455/1 352/454/1 483/456/1
f 359/457/3 379/458/1 380/459/1
f 544/460/3 366/408/4 374/461/124
f 329/416/3 368/462/1 327/463/3
f 471/464/17 524/418/1 546/465/3
f 541/466/9 326/467/121 364/423/6
f 369/468/1 333/469/1 335/420/1
f 474/470/1 340/448/3 470/471/1
f 383/472/1 359/457/3 380/459/1
f 327/463/3 472/473/1 469/474/1
f 542/475/3 361/476/19 539/443/1
f 384/477/1 357/442/1 383/472/1
f 334/478/3 369/468/1 335/420/1
f 367/450/1 373/479/1 381/410/1
f 536/438/3 376/414/5 355/480/125
f 368/462/1 381/410/1 382/447/1
f 346/481/3 377/451/1 347/482/1
f 347/482/1 378/453/1 345/483/1
f 485/484/1 378/453/1 487/455/1
f 380/459/1 325/485/1 363/486/1
f 528/427/9 374/461/124 343/425/117
f 368/462/1 474/470/1 472/473/1
f 369/468/1 380/459/1 363/486/1
f 372/487/1 383/472/1 369/468/1
f 479/488/66 562/489/22 577/490/22
f 426/491/126 554/492/23 572/493/22
f 441/494/23 399/495/23 433/496/23
f 436/497/127 565/498/22 575/499/22
f 554/492/23 389/500/23 388/501/23
f 556/502/22 389/500/23 555/503/22
f 557/504/23 395/505/23 394/506/22
f 559/507/29 395/505/23 558/508/22
f 559/507/29 424/509/41 573/510/23
f 561/511/23 403/512/128 560/513/23
f 561/511/23 402/514/129 404/515/130
f 564/516/23 409/517/27 563/518/23
f 564/516/23 408/519/131 410/520/132
f 489/521/41 566/522/22 579/523/22
f 566/522/22 413/524/22 412/525/23
f 568/526/23 413/524/22 567/527/23
f 570/528/23 418/529/23 569/530/24
f 570/528/23 417/531/22 419/532/23
f 581/533/24 420/534/62 569/530/24
f 442/535/23 401/536/23 441/494/23
f 427/537/23 388/501/23 389/500/23
f 437/538/23 411/539/23 435/540/22
f 438/541/23 413/524/22 437/538/23
f 492/542/23 412/525/23 438/541/23
f 439/543/23 419/532/23 440/544/23
f 576/545/23 426/491/126 572/493/22
f 428/546/23 389/500/23 387/547/23
f 556/502/22 477/548/133 578/549/22
f 573/510/23 386/550/41 553/551/23
f 393/552/23 429/553/23 395/505/23
f 480/554/23 400/555/23 442/535/23
f 419/532/23 443/556/23 440/544/23
f 478/557/23 387/547/23 475/558/23
f 421/559/67 574/560/22 571/561/23
f 417/531/22 444/562/23 443/556/23
f 429/553/23 394/506/22 395/505/23
f 427/537/23 433/496/23 425/563/23
f 568/526/23 436/497/127 575/499/22
f 428/546/23 441/494/23 427/537/23
f 437/538/23 406/564/23 407/565/22
f 438/541/23 407/565/22 405/566/23
f 490/567/23 438/541/23 405/566/23
f 385/568/23 440/544/23 423/569/23
f 560/513/23 434/570/126 576/545/23
f 480/554/23 428/546/23 478/557/23
f 440/544/23 429/553/23 423/569/23
f 443/556/23 432/571/23 429/553/23
f 585/572/51 436/573/127 595/574/73
f 596/575/90 403/576/128 404/577/130
f 587/578/46 434/579/126 597/580/46
f 598/581/111 409/582/27 410/583/132
f 589/584/134 392/585/135 599/586/81
f 600/587/108 424/588/41 397/589/136
f 591/590/38 508/591/133 615/592/105
f 610/593/75 402/594/129 479/595/66
f 601/596/75 421/597/67 602/598/63
f 603/599/31 392/600/135 390/601/137
f 600/587/108 398/602/138 604/603/139
f 592/604/45 404/577/130 402/594/129
f 605/605/55 436/573/127 415/606/140
f 590/607/57 386/608/41 424/588/41
f 613/609/79 420/610/62 504/611/78
f 598/581/111 408/612/131 585/572/51
f 604/613/139 396/614/37 591/590/38
f 606/615/113 415/606/140 416/616/141
f 602/598/63 422/617/61 607/618/64
f 597/580/46 403/576/128 586/619/142
f 608/620/112 416/621/141 414/622/53
f 607/623/64 420/610/62 594/624/103
f 587/578/46 390/601/137 426/625/126
f 612/626/57 414/622/53 489/627/41
f 617/628/143 446/629/51 445/630/143
f 618/631/90 448/632/47 447/633/90
f 619/634/46 450/635/46 449/636/46
f 634/637/48 451/638/111 620/639/111
f 635/640/134 453/641/81 621/642/81
f 622/643/108 456/644/57 455/645/108
f 637/646/38 520/647/105 647/648/105
f 642/649/75 459/650/110 482/651/75
f 624/652/63 458/653/75 460/654/63
f 625/655/31 453/656/81 461/657/31
f 626/658/139 455/645/108 462/659/139
f 618/631/90 459/650/110 638/660/45
f 617/628/143 463/661/55 627/662/55
f 636/663/57 464/664/57 456/644/57
f 640/665/103 506/666/79 645/667/79
f 620/639/111 446/629/51 631/668/51
f 626/669/139 457/670/38 637/646/38
f 628/671/113 463/661/55 466/672/113
f 629/673/144 460/654/63 467/674/64
f 632/675/142 449/636/46 448/632/47
f 628/676/113 468/677/112 630/678/112
f 629/679/144 465/680/103 640/665/103
f 633/681/46 461/657/31 450/635/46
f 644/682/57 468/677/112 494/683/57
f 545/406/3 513/684/145 551/685/1
f 507/686/17 546/465/3 552/687/3
f 474/470/1 511/688/1 514/689/1
f 469/474/1 512/690/1 510/691/1
f 472/473/1 514/689/1 512/690/1
f 518/692/66 577/490/22 583/693/23
f 578/549/22 508/694/133 584/695/22
f 516/696/23 480/554/23 519/697/23
f 517/698/23 475/558/23 515/699/23
f 519/697/23 478/557/23 517/698/23
f 609/700/105 391/701/35 589/584/134
f 610/593/75 518/702/66 616/703/75
f 641/704/105 454/705/134 635/640/134
f 648/706/75 482/651/75 509/707/75
f 547/435/9 496/708/121 550/709/1
f 531/431/3 486/710/123 349/429/119
f 503/711/1 483/456/1 495/712/1
f 497/713/1 487/455/1 503/711/1
f 499/714/41 579/523/22 582/715/23
f 563/518/23 491/716/146 580/717/22
f 505/718/23 488/719/23 492/542/23
f 500/720/23 492/542/23 490/567/23
f 588/721/48 491/722/146 409/582/27
f 614/723/57 489/627/41 499/724/41
f 643/725/79 452/726/48 634/637/48
f 646/727/57 494/683/57 501/728/57
f 548/729/3 502/446/123 486/710/123
f 580/717/22 504/730/78 581/533/24
f 611/731/79 504/611/78 491/722/146
f 645/667/79 493/732/79 643/725/79
f 550/709/1 326/467/121 521/733/1
f 503/711/1 325/485/1 379/458/1
f 497/713/1 379/458/1 358/439/1
f 386/550/41 582/715/23 553/551/23
f 385/568/23 505/718/23 439/543/23
f 439/543/23 500/720/23 418/529/23
f 614/723/57 386/608/41 593/734/57
f 639/735/57 501/728/57 464/664/57
f 609/700/105 508/591/133 477/736/133
f 647/648/105 481/737/105 641/704/105
f 551/685/1 371/738/145 542/475/3
f 525/419/1 507/686/17 552/687/3
f 514/689/1 370/739/1 384/477/1
f 510/691/1 372/487/1 334/478/3
f 512/690/1 384/477/1 372/487/1
f 431/740/66 583/693/23 574/560/22
f 557/504/23 508/694/133 396/741/37
f 430/742/23 519/697/23 444/562/23
f 432/571/23 515/699/23 394/506/22
f 444/562/23 517/698/23 432/571/23
f 601/596/75 518/702/66 431/743/66
f 648/706/75 458/653/75 623/744/75
f 340/448/3 545/406/3 470/471/1
f 328/449/1 540/409/1 365/745/1
f 346/481/3 543/415/1 375/746/1
f 330/747/147 523/417/1 332/748/148
f 523/417/1 331/749/107 332/748/148
f 336/750/85 526/421/9 338/751/149
f 526/421/9 337/424/116 338/751/149
f 333/469/1 541/466/9 527/422/3
f 528/427/9 341/412/1 339/411/1
f 341/412/1 530/404/1 340/448/3
f 531/431/3 347/482/1 345/483/1
f 347/482/1 533/413/1 346/481/3
f 352/454/1 547/435/9 483/456/1
f 354/752/97 535/437/3 356/753/150
f 535/437/3 355/480/125 356/753/150
f 537/441/1 362/754/102 360/445/122
f 362/754/102 539/443/1 361/476/19
f 497/713/1 537/441/1 549/444/3
f 373/479/1 540/409/1 544/460/3
f 546/465/3 327/463/3 469/474/1
f 363/486/1 521/733/1 541/466/9
f 370/739/1 539/443/1 357/442/1
f 351/452/1 543/415/1 536/438/3
f 339/411/1 544/460/3 528/427/9
f 470/471/1 551/685/1 511/688/1
f 552/687/3 469/474/1 510/691/1
f 483/456/1 550/709/1 495/712/1
f 345/483/1 548/729/3 531/431/3
f 485/484/1 549/444/3 548/729/3
f 495/712/1 521/733/1 325/485/1
f 511/688/1 542/475/3 370/739/1
f 334/478/3 552/687/3 510/691/1
f 577/490/22 400/555/23 476/755/23
f 572/493/22 388/501/23 425/563/23
f 575/499/22 406/564/23 435/540/22
f 390/756/137 555/503/22 554/492/23
f 391/757/35 555/503/22 392/758/135
f 396/741/37 558/508/22 557/504/23
f 397/759/136 558/508/22 398/760/138
f 393/552/23 573/510/23 423/569/23
f 401/536/23 560/513/23 399/495/23
f 401/536/23 562/489/22 561/511/23
f 407/565/22 563/518/23 405/566/23
f 407/565/22 565/498/22 564/516/23
f 579/523/22 412/525/23 488/719/23
f 414/761/53 567/527/23 566/522/22
f 415/762/140 567/527/23 416/763/141
f 422/764/61 569/530/24 420/534/62
f 422/764/61 571/561/23 570/528/23
f 500/720/23 569/530/24 418/529/23
f 433/496/23 572/493/22 425/563/23
f 387/547/23 578/549/22 475/558/23
f 423/569/23 553/551/23 385/568/23
f 571/561/23 430/742/23 417/531/22
f 411/539/23 575/499/22 435/540/22
f 399/495/23 576/545/23 433/496/23
f 583/693/23 476/755/23 516/696/23
f 475/558/23 584/695/22 515/699/23
f 582/715/23 488/719/23 498/765/23
f 405/566/23 580/717/22 490/567/23
f 490/567/23 581/533/24 500/720/23
f 553/551/23 498/765/23 385/568/23
f 574/560/22 516/696/23 430/742/23
f 394/506/22 584/695/22 557/504/23
f 446/629/51 595/574/73 445/630/143
f 448/632/47 596/575/90 447/633/90
f 450/635/46 597/580/46 449/636/46
f 451/638/111 588/721/48 598/581/111
f 454/705/134 599/586/81 453/641/81
f 456/644/57 600/587/108 455/645/108
f 520/647/105 591/590/38 615/592/105
f 459/650/110 610/593/75 482/651/75
f 458/653/75 602/598/63 460/654/63
f 453/656/81 603/599/31 461/657/31
f 462/659/139 600/587/108 604/603/139
f 459/650/110 596/575/90 592/604/45
f 445/630/143 605/605/55 463/661/55
f 464/664/57 590/607/57 456/644/57
f 465/680/103 613/609/79 506/666/79
f 446/629/51 598/581/111 585/572/51
f 462/766/139 591/590/38 457/670/38
f 466/672/113 605/605/55 606/615/113
f 460/654/63 607/618/64 467/674/64
f 448/632/47 597/580/46 586/619/142
f 466/767/113 608/620/112 468/677/112
f 467/768/64 594/624/103 465/680/103
f 461/657/31 587/578/46 450/635/46
f 468/677/112 612/626/57 494/683/57
f 454/705/134 609/700/105 589/584/134
f 482/651/75 616/703/75 509/707/75
f 493/732/79 588/721/48 452/726/48
f 494/683/57 614/723/57 501/728/57
f 493/732/79 613/609/79 611/731/79
f 464/664/57 614/723/57 593/734/57
f 481/737/105 615/592/105 609/700/105
f 509/707/75 601/596/75 458/653/75
f 376/769/5 631/668/51 617/628/143
f 343/770/117 618/631/90 344/771/151
f 366/772/4 619/634/46 374/773/124
f 350/774/93 634/637/48 620/639/111
f 332/775/148 635/640/134 621/642/81
f 364/776/6 622/643/108 337/777/116
f 336/778/85 647/648/105 507/779/17
f 342/780/118 642/649/75 473/781/2
f 361/782/19 623/744/75 624/652/63
f 332/783/148 625/655/31 330/784/147
f 338/785/149 622/643/108 626/658/139
f 344/771/151 638/660/45 342/780/118
f 355/786/125 617/628/143 627/662/55
f 326/787/121 636/663/57 364/776/6
f 502/788/123 640/665/103 645/667/79
f 348/789/120 620/639/111 631/668/51
f 336/778/85 626/669/139 637/646/38
f 355/786/125 628/671/113 356/790/150
f 361/782/19 629/673/144 362/791/102
f 374/773/124 632/675/142 343/770/117
f 354/792/97 628/676/113 630/678/112
f 360/793/122 629/679/144 640/665/103
f 330/784/147 633/681/46 366/772/4
f 484/794/121 630/678/112 644/682/57
f 331/795/107 641/704/105 635/640/134
f 473/781/2 648/706/75 513/796/145
f 486/797/123 634/637/48 349/798/119
f 484/794/121 646/727/57 496/799/121
f 502/788/123 643/725/79 486/797/123
f 496/799/121 639/735/57 326/787/121
f 471/800/17 647/648/105 641/704/105
f 513/796/145 623/744/75 371/801/145
f 530/404/1 342/428/118 473/405/2
f 522/407/10 330/747/147 366/408/4
f 381/410/1 373/479/1 339/411/1
f 533/413/1 348/432/120 376/414/5
f 522/407/10 328/449/1 329/416/3
f 329/416/3 327/463/3 524/418/1
f 525/419/1 334/478/3 335/420/1
f 335/420/1 333/469/1 527/422/3
f 527/422/3 541/466/9 364/423/6
f 343/425/117 344/802/151 529/426/3
f 529/426/3 344/802/151 342/428/118
f 349/429/119 350/803/93 532/430/1
f 532/430/1 350/803/93 348/432/120
f 534/433/1 354/752/97 484/434/121
f 534/433/1 352/454/1 353/436/1
f 353/436/1 351/452/1 536/438/3
f 358/439/1 359/457/3 538/440/1
f 538/440/1 359/457/3 357/442/1
f 549/444/3 537/441/1 360/445/122
f 382/447/1 381/410/1 341/412/1
f 328/449/1 365/745/1 367/450/1
f 377/451/1 375/746/1 351/452/1
f 378/453/1 377/451/1 353/436/1
f 487/455/1 378/453/1 352/454/1
f 359/457/3 358/439/1 379/458/1
f 544/460/3 540/409/1 366/408/4
f 329/416/3 367/450/1 368/462/1
f 471/464/17 331/749/107 524/418/1
f 541/466/9 521/733/1 326/467/121
f 369/468/1 363/486/1 333/469/1
f 474/470/1 382/447/1 340/448/3
f 383/472/1 357/442/1 359/457/3
f 327/463/3 368/462/1 472/473/1
f 542/475/3 371/738/145 361/476/19
f 384/477/1 370/739/1 357/442/1
f 334/478/3 372/487/1 369/468/1
f 367/450/1 365/745/1 373/479/1
f 536/438/3 543/415/1 376/414/5
f 368/462/1 367/450/1 381/410/1
f 346/481/3 375/746/1 377/451/1
f 347/482/1 377/451/1 378/453/1
f 485/484/1 345/483/1 378/453/1
f 380/459/1 379/458/1 325/485/1
f 528/427/9 544/460/3 374/461/124
f 368/462/1 382/447/1 474/470/1
f 369/468/1 383/472/1 380/459/1
f 372/487/1 384/477/1 383/472/1
f 479/488/66 402/514/129 562/489/22
f 426/491/126 390/756/137 554/492/23
f 441/494/23 401/536/23 399/495/23
f 436/497/127 408/519/131 565/498/22
f 554/492/23 555/503/22 389/500/23
f 556/502/22 387/547/23 389/500/23
f 557/504/23 558/508/22 395/505/23
f 559/507/29 393/552/23 395/505/23
f 559/507/29 397/759/136 424/509/41
f 561/511/23 404/515/130 403/512/128
f 561/511/23 562/489/22 402/514/129
f 564/516/23 410/520/132 409/517/27
f 564/516/23 565/498/22 408/519/131
f 489/521/41 414/761/53 566/522/22
f 566/522/22 567/527/23 413/524/22
f 568/526/23 411/539/23 413/524/22
f 570/528/23 419/532/23 418/529/23
f 570/528/23 571/561/23 417/531/22
f 581/533/24 504/730/78 420/534/62
f 442/535/23 400/555/23 401/536/23
f 427/537/23 425/563/23 388/501/23
f 437/538/23 413/524/22 411/539/23
f 438/541/23 412/525/23 413/524/22
f 492/542/23 488/719/23 412/525/23
f 439/543/23 418/529/23 419/532/23
f 576/545/23 434/570/126 426/491/126
f 428/546/23 427/537/23 389/500/23
f 556/502/22 391/757/35 477/548/133
f 573/510/23 424/509/41 386/550/41
f 393/552/23 423/569/23 429/553/23
f 480/554/23 476/755/23 400/555/23
f 419/532/23 417/531/22 443/556/23
f 478/557/23 428/546/23 387/547/23
f 421/559/67 431/740/66 574/560/22
f 417/531/22 430/742/23 444/562/23
f 429/553/23 432/571/23 394/506/22
f 427/537/23 441/494/23 433/496/23
f 568/526/23 415/762/140 436/497/127
f 428/546/23 442/535/23 441/494/23
f 437/538/23 435/540/22 406/564/23
f 438/541/23 437/538/23 407/565/22
f 490/567/23 492/542/23 438/541/23
f 385/568/23 439/543/23 440/544/23
f 560/513/23 403/512/128 434/570/126
f 480/554/23 442/535/23 428/546/23
f 440/544/23 443/556/23 429/553/23
f 443/556/23 444/562/23 432/571/23
f 585/572/51 408/612/131 436/573/127
f 596/575/90 586/619/142 403/576/128
f 587/578/46 426/625/126 434/579/126
f 598/581/111 588/721/48 409/582/27
f 589/584/134 391/701/35 392/585/135
f 600/587/108 590/607/57 424/588/41
f 591/590/38 396/614/37 508/591/133
f 610/593/75 592/604/45 402/594/129
f 601/596/75 431/743/66 421/597/67
f 603/599/31 599/804/81 392/600/135
f 600/587/108 397/589/136 398/602/138
f 592/604/45 596/575/90 404/577/130
f 605/605/55 595/574/73 436/573/127
f 590/607/57 593/734/57 386/608/41
f 613/609/79 594/624/103 420/610/62
f 598/581/111 410/583/132 408/612/131
f 604/613/139 398/805/138 396/614/37
f 606/615/113 605/605/55 415/606/140
f 602/598/63 421/597/67 422/617/61
f 597/580/46 434/579/126 403/576/128
f 608/620/112 606/806/113 416/621/141
f 607/623/64 422/807/61 420/610/62
f 587/578/46 603/599/31 390/601/137
f 612/626/57 608/620/112 414/622/53
f 617/628/143 631/668/51 446/629/51
f 618/631/90 632/675/142 448/632/47
f 619/634/46 633/681/46 450/635/46
f 634/637/48 452/726/48 451/638/111
f 635/640/134 454/705/134 453/641/81
f 622/643/108 636/663/57 456/644/57
f 637/646/38 457/670/38 520/647/105
f 642/649/75 638/660/45 459/650/110
f 624/652/63 623/744/75 458/653/75
f 625/655/31 621/808/81 453/656/81
f 626/658/139 622/643/108 455/645/108
f 618/631/90 447/633/90 459/650/110
f 617/628/143 445/630/143 463/661/55
f 636/663/57 639/735/57 464/664/57
f 640/665/103 465/680/103 506/666/79
f 620/639/111 451/638/111 446/629/51
f 626/669/139 462/766/139 457/670/38
f 628/671/113 627/662/55 463/661/55
f 629/673/144 624/652/63 460/654/63
f 632/675/142 619/634/46 449/636/46
f 628/676/113 466/767/113 468/677/112
f 629/679/144 467/768/64 465/680/103
f 633/681/46 625/655/31 461/657/31
f 644/682/57 630/678/112 468/677/112
f 545/406/3 473/405/2 513/684/145
f 507/686/17 471/464/17 546/465/3
f 474/470/1 470/471/1 511/688/1
f 469/474/1 472/473/1 512/690/1
f 472/473/1 474/470/1 514/689/1
f 518/692/66 479/488/66 577/490/22
f 578/549/22 477/548/133 508/694/133
f 516/696/23 476/755/23 480/554/23
f 517/698/23 478/557/23 475/558/23
f 519/697/23 480/554/23 478/557/23
f 609/700/105 477/736/133 391/701/35
f 610/593/75 479/595/66 518/702/66
f 641/704/105 481/737/105 454/705/134
f 648/706/75 642/649/75 482/651/75
f 547/435/9 484/434/121 496/708/121
f 531/431/3 548/729/3 486/710/123
f 503/711/1 487/455/1 483/456/1
f 497/713/1 485/484/1 487/455/1
f 499/714/41 489/521/41 579/523/22
f 563/518/23 409/517/27 491/716/146
f 505/718/23 498/765/23 488/719/23
f 500/720/23 505/718/23 492/542/23
f 588/721/48 611/731/79 491/722/146
f 614/723/57 612/626/57 489/627/41
f 643/725/79 493/732/79 452/726/48
f 646/727/57 644/682/57 494/683/57
f 548/729/3 549/444/3 502/446/123
f 580/717/22 491/716/146 504/730/78
f 611/731/79 613/609/79 504/611/78
f 645/667/79 506/666/79 493/732/79
f 550/709/1 496/708/121 326/467/121
f 503/711/1 495/712/1 325/485/1
f 497/713/1 503/711/1 379/458/1
f 386/550/41 499/714/41 582/715/23
f 385/568/23 498/765/23 505/718/23
f 439/543/23 505/718/23 500/720/23
f 614/723/57 499/724/41 386/608/41
f 639/735/57 646/727/57 501/728/57
f 609/700/105 615/592/105 508/591/133
f 647/648/105 520/647/105 481/737/105
f 551/685/1 513/684/145 371/738/145
f 525/419/1 336/750/85 507/686/17
f 514/689/1 511/688/1 370/739/1
f 510/691/1 512/690/1 372/487/1
f 512/690/1 514/689/1 384/477/1
f 431/740/66 518/692/66 583/693/23
f 557/504/23 584/695/22 508/694/133
f 430/742/23 516/696/23 519/697/23
f 432/571/23 517/698/23 515/699/23
f 444/562/23 519/697/23 517/698/23
f 601/596/75 616/703/75 518/702/66
f 648/706/75 509/707/75 458/653/75
f 340/448/3 530/404/1 545/406/3
f 328/449/1 522/407/10 540/409/1
f 346/481/3 533/413/1 543/415/1
f 330/747/147 522/407/10 523/417/1
f 523/417/1 524/418/1 331/749/107
f 336/750/85 525/419/1 526/421/9
f 526/421/9 527/422/3 337/424/116
f 333/469/1 363/486/1 541/466/9
f 528/427/9 529/426/3 341/412/1
f 341/412/1 529/426/3 530/404/1
f 531/431/3 532/430/1 347/482/1
f 347/482/1 532/430/1 533/413/1
f 352/454/1 534/433/1 547/435/9
f 354/752/97 534/433/1 535/437/3
f 535/437/3 536/438/3 355/480/125
f 537/441/1 538/440/1 362/754/102
f 362/754/102 538/440/1 539/443/1
f 497/713/1 358/439/1 537/441/1
f 373/479/1 365/745/1 540/409/1
f 546/465/3 524/418/1 327/463/3
f 363/486/1 325/485/1 521/733/1
f 370/739/1 542/475/3 539/443/1
f 351/452/1 375/746/1 543/415/1
f 339/411/1 373/479/1 544/460/3
f 470/471/1 545/406/3 551/685/1
f 552/687/3 546/465/3 469/474/1
f 483/456/1 547/435/9 550/709/1
f 345/483/1 485/484/1 548/729/3
f 485/484/1 497/713/1 549/444/3
f 495/712/1 550/709/1 521/733/1
f 511/688/1 551/685/1 542/475/3
f 334/478/3 525/419/1 552/687/3
f 577/490/22 562/489/22 400/555/23
f 572/493/22 554/492/23 388/501/23
f 575/499/22 565/498/22 406/564/23
f 390/756/137 392/758/135 555/503/22
f 391/757/35 556/502/22 555/503/22
f 396/741/37 398/760/138 558/508/22
f 397/759/136 559/507/29 558/508/22
f 393/552/23 559/507/29 573/510/23
f 401/536/23 561/511/23 560/513/23
f 401/536/23 400/555/23 562/489/22
f 407/565/22 564/516/23 563/518/23
f 407/565/22 406/564/23 565/498/22
f 579/523/22 566/522/22 412/525/23
f 414/761/53 416/763/141 567/527/23
f 415/762/140 568/526/23 567/527/23
f 422/764/61 570/528/23 569/530/24
f 422/764/61 421/559/67 571/561/23
f 500/720/23 581/533/24 569/530/24
f 433/496/23 576/545/23 572/493/22
f 387/547/23 556/502/22 578/549/22
f 423/569/23 573/510/23 553/551/23
f 571/561/23 574/560/22 430/742/23
f 411/539/23 568/526/23 575/499/22
f 399/495/23 560/513/23 576/545/23
f 583/693/23 577/490/22 476/755/23
f 475/558/23 578/549/22 584/695/22
f 582/715/23 579/523/22 488/719/23
f 405/566/23 563/518/23 580/717/22
f 490/567/23 580/717/22 581/533/24
f 553/551/23 582/715/23 498/765/23
f 574/560/22 583/693/23 516/696/23
f 394/506/22 515/699/23 584/695/22
f 446/629/51 585/572/51 595/574/73
f 448/632/47 586/619/142 596/575/90
f 450/635/46 587/578/46 597/580/46
f 451/638/111 452/726/48 588/721/48
f 454/705/134 589/584/134 599/586/81
f 456/644/57 590/607/57 600/587/108
f 520/647/105 457/670/38 591/590/38
f 459/650/110 592/604/45 610/593/75
f 458/653/75 601/596/75 602/598/63
f 453/656/81 599/804/81 603/599/31
f 462/659/139 455/645/108 600/587/108
f 459/650/110 447/633/90 596/575/90
f 445/630/143 595/574/73 605/605/55
f 464/664/57 593/734/57 590/607/57
f 465/680/103 594/624/103 613/609/79
f 446/629/51 451/638/111 598/581/111
f 462/766/139 604/613/139 591/590/38
f 466/672/113 463/661/55 605/605/55
f 460/654/63 602/598/63 607/618/64
f 448/632/47 449/636/46 597/580/46
f 466/767/113 606/806/113 608/620/112
f 467/768/64 607/623/64 594/624/103
f 461/657/31 603/599/31 587/578/46
f 468/677/112 608/620/112 612/626/57
f 454/705/134 481/737/105 609/700/105
f 482/651/75 610/593/75 616/703/75
f 493/732/79 611/731/79 588/721/48
f 494/683/57 612/626/57 614/723/57
f 493/732/79 506/666/79 613/609/79
f 464/664/57 501/728/57 614/723/57
f 481/737/105 520/647/105 615/592/105
f 509/707/75 616/703/75 601/596/75
f 376/769/5 348/789/120 631/668/51
f 343/770/117 632/675/142 618/631/90
f 366/772/4 633/681/46 619/634/46
f 350/774/93 349/798/119 634/637/48
f 332/775/148 331/795/107 635/640/134
f 364/776/6 636/663/57 622/643/108
f 336/778/85 637/646/38 647/648/105
f 342/780/118 638/660/45 642/649/75
f 361/782/19 371/801/145 623/744/75
f 332/783/148 621/808/81 625/655/31
f 338/785/149 337/777/116 622/643/108
f 344/771/151 618/631/90 638/660/45
f 355/786/125 376/769/5 617/628/143
f 326/787/121 639/735/57 636/663/57
f 502/788/123 360/793/122 640/665/103
f 348/789/120 350/774/93 620/639/111
f 336/778/85 338/809/149 626/669/139
f 355/786/125 627/662/55 628/671/113
f 361/782/19 624/652/63 629/673/144
f 374/773/124 619/634/46 632/675/142
f 354/792/97 356/810/150 628/676/113
f 360/793/122 362/811/102 629/679/144
f 330/784/147 625/655/31 633/681/46
f 484/794/121 354/792/97 630/678/112
f 331/795/107 471/800/17 641/704/105
f 473/781/2 642/649/75 648/706/75
f 486/797/123 643/725/79 634/637/48
f 484/794/121 644/682/57 646/727/57
f 502/788/123 645/667/79 643/725/79
f 496/799/121 646/727/57 639/735/57
f 471/800/17 507/779/17 647/648/105
f 513/796/145 648/706/75 623/744/75
