o convex_0
v -0.048581 -0.057672 -0.035155
v 0.009715 -0.033313 -0.030806
v 0.009715 -0.033313 -0.044724
v -0.060765 -0.033313 -0.025585
v 0.009715 -0.060283 -0.024713
v -0.041620 -0.046367 -0.048201
v 0.009715 -0.049842 -0.046465
v -0.057288 -0.057672 -0.023846
v -0.046843 -0.033313 -0.047332
v 0.009715 -0.042887 -0.022971
v -0.058150 -0.055064 -0.033417
v -0.041620 -0.033313 -0.022971
v 0.009715 -0.061153 -0.029065
v 0.009715 -0.036796 -0.047335
v -0.050327 -0.060283 -0.026456
v -0.005953 -0.055933 -0.039502
v -0.050327 -0.052453 -0.042113
v -0.055542 -0.033313 -0.038631
v 0.009715 -0.049842 -0.022971
v -0.050327 -0.046367 -0.044721
v -0.048581 -0.043756 -0.022971
v -0.059895 -0.033313 -0.023846
v -0.053804 -0.059414 -0.030806
v 0.009715 -0.057672 -0.036892
v -0.037267 -0.035057 -0.048201
v -0.059895 -0.055064 -0.025585
v 0.009715 -0.048103 -0.047335
v -0.041620 -0.052453 -0.042983
v 0.007969 -0.059414 -0.023843
v -0.019006 -0.059414 -0.033417
v 0.003616 -0.033313 -0.029065
v -0.059895 -0.048103 -0.030806
v -0.037267 -0.060283 -0.024715
v -0.018136 -0.061153 -0.028195
v -0.058150 -0.058544 -0.029937
v -0.059895 -0.033313 -0.030806
v -0.012914 -0.050712 -0.045593
f 16 28 37 
f 2 3 4 
f 3 2 5 
f 3 5 7 
f 4 3 9 
f 5 2 10 
f 2 4 12 
f 7 5 13 
f 3 7 14 
f 4 9 18 
f 5 10 19 
f 10 12 19 
f 9 6 20 
f 6 17 20 
f 17 11 20 
f 18 9 20 
f 11 18 20 
f 8 19 21 
f 19 12 21 
f 12 4 22 
f 8 21 22 
f 21 12 22 
f 17 1 23 
f 7 13 24 
f 16 7 24 
f 9 3 25 
f 6 9 25 
f 3 14 25 
f 22 4 26 
f 8 22 26 
f 7 6 27 
f 14 7 27 
f 6 25 27 
f 25 14 27 
f 16 1 28 
f 17 6 28 
f 1 17 28 
f 5 19 29 
f 19 8 29 
f 1 16 30 
f 23 1 30 
f 24 13 30 
f 16 24 30 
f 10 2 31 
f 2 12 31 
f 12 10 31 
f 18 11 32 
f 26 4 32 
f 11 26 32 
f 8 15 33 
f 5 29 33 
f 29 8 33 
f 13 5 34 
f 15 23 34 
f 23 30 34 
f 30 13 34 
f 5 33 34 
f 33 15 34 
f 15 8 35 
f 11 17 35 
f 23 15 35 
f 17 23 35 
f 26 11 35 
f 8 26 35 
f 4 18 36 
f 32 4 36 
f 18 32 36 
f 6 7 37 
f 7 16 37 
f 28 6 37 
o convex_1
v 0.028862 -0.060284 -0.032545
v 0.050612 -0.032442 -0.029937
v 0.061055 -0.032445 -0.026454
v 0.045391 -0.045499 -0.049071
v 0.009720 -0.032442 -0.030805
v 0.057572 -0.058544 -0.024714
v 0.009720 -0.059413 -0.023845
v 0.009720 -0.036794 -0.047331
v 0.045391 -0.032442 -0.048203
v 0.009720 -0.049844 -0.046463
v 0.041033 -0.032442 -0.022971
v 0.054964 -0.055933 -0.037763
v 0.009720 -0.042885 -0.022971
v 0.057572 -0.032445 -0.036891
v 0.009720 -0.032442 -0.044723
v 0.009720 -0.061158 -0.029065
v 0.058442 -0.059415 -0.029937
v 0.047124 -0.046367 -0.022971
v 0.041903 -0.051584 -0.045591
v 0.050612 -0.061158 -0.026456
v 0.009720 -0.055936 -0.039503
v 0.060180 -0.032445 -0.024714
v 0.047999 -0.059413 -0.034285
v 0.060180 -0.054196 -0.029937
v 0.011458 -0.040279 -0.048203
v 0.051481 -0.035928 -0.044725
v 0.042777 -0.048102 -0.049071
v 0.054090 -0.047233 -0.041243
v 0.039295 -0.036794 -0.049071
v 0.060180 -0.055064 -0.025585
v 0.047124 -0.055061 -0.041243
v 0.009720 -0.061158 -0.025585
v 0.009720 -0.049844 -0.022971
v 0.049738 -0.061158 -0.029065
f 38 60 71 
f 44 42 45 
f 39 40 46 
f 42 39 46 
f 44 45 47 
f 39 42 48 
f 42 44 50 
f 48 42 50 
f 46 40 51 
f 45 42 52 
f 42 46 52 
f 46 45 52 
f 44 47 53 
f 44 43 55 
f 48 50 55 
f 43 44 57 
f 54 43 57 
f 38 53 58 
f 53 47 58 
f 47 56 58 
f 40 39 59 
f 39 48 59 
f 55 43 59 
f 48 55 59 
f 49 54 60 
f 38 58 60 
f 51 40 61 
f 54 49 61 
f 47 45 62 
f 41 46 63 
f 46 51 63 
f 41 49 64 
f 56 47 64 
f 47 62 64 
f 49 41 65 
f 51 61 65 
f 61 49 65 
f 41 63 65 
f 63 51 65 
f 46 41 66 
f 45 46 66 
f 62 45 66 
f 41 64 66 
f 64 62 66 
f 43 54 67 
f 40 59 67 
f 59 43 67 
f 61 40 67 
f 54 61 67 
f 58 56 68 
f 49 60 68 
f 60 58 68 
f 64 49 68 
f 56 64 68 
f 44 53 69 
f 57 44 69 
f 53 57 69 
f 50 44 70 
f 44 55 70 
f 55 50 70 
f 53 38 71 
f 57 53 71 
f 54 57 71 
f 60 54 71 
o convex_2
v -0.032924 0.051090 -0.042983
v -0.060769 -0.033313 -0.028195
v -0.060769 -0.033313 -0.025585
v -0.032924 -0.033313 -0.045593
v -0.032924 0.041514 -0.022971
v -0.056417 0.052829 -0.034286
v -0.046847 -0.033313 -0.047335
v -0.032924 -0.033313 -0.029065
v -0.057286 0.058054 -0.023843
v -0.041627 0.034559 -0.048201
v -0.041627 -0.033313 -0.022971
v -0.032924 0.060666 -0.024715
v -0.051197 0.046729 -0.042111
v -0.055547 -0.033313 -0.038633
v -0.058158 -0.011556 -0.022971
v -0.035538 0.033676 -0.048201
v -0.052066 0.056306 -0.035155
v -0.059897 0.024109 -0.029065
v -0.056417 0.056306 -0.022971
v -0.046847 0.045865 -0.045593
v -0.057286 0.007596 -0.036020
v -0.032924 0.046739 -0.046463
v -0.052066 -0.006331 -0.042983
v -0.059028 0.052829 -0.024713
v -0.036407 -0.033313 -0.047332
v -0.059897 -0.033313 -0.023843
v -0.036407 0.059792 -0.029937
v -0.056417 0.058918 -0.028195
v -0.035538 0.058054 -0.022971
v -0.046847 0.031937 -0.046465
v -0.047716 0.049351 -0.043852
v -0.060769 0.002371 -0.025585
v -0.059897 0.012821 -0.023843
v -0.032924 -0.028961 -0.028195
v -0.058158 0.052829 -0.030806
v -0.032924 0.055441 -0.037761
v -0.049455 -0.033313 -0.045593
v -0.032924 0.038027 -0.047332
v -0.059897 0.005858 -0.030806
v -0.058158 -0.033313 -0.034286
v -0.054678 0.032811 -0.038633
f 94 92 112 
f 74 73 75 
f 75 72 76 
f 75 73 78 
f 74 75 79 
f 75 76 79 
f 74 79 82 
f 76 72 83 
f 78 73 85 
f 82 76 86 
f 78 81 87 
f 86 76 90 
f 72 75 93 
f 87 81 93 
f 81 91 93 
f 85 92 94 
f 90 80 95 
f 75 78 96 
f 78 87 96 
f 74 82 97 
f 82 86 97 
f 98 88 99 
f 80 83 99 
f 88 77 99 
f 95 80 99 
f 83 98 99 
f 76 83 100 
f 83 80 100 
f 90 76 100 
f 80 90 100 
f 81 78 101 
f 91 81 101 
f 84 91 101 
f 94 84 101 
f 84 77 102 
f 77 88 102 
f 88 72 102 
f 91 84 102 
f 72 93 102 
f 93 91 102 
f 73 74 103 
f 95 89 103 
f 74 97 103 
f 103 97 104 
f 86 90 104 
f 90 95 104 
f 97 86 104 
f 95 103 104 
f 79 76 105 
f 82 79 105 
f 76 82 105 
f 77 92 106 
f 89 95 106 
f 99 77 106 
f 95 99 106 
f 83 72 107 
f 72 88 107 
f 98 83 107 
f 88 98 107 
f 78 85 108 
f 85 94 108 
f 101 78 108 
f 94 101 108 
f 93 75 109 
f 87 93 109 
f 75 96 109 
f 96 87 109 
f 73 103 110 
f 103 89 110 
f 106 92 110 
f 89 106 110 
f 85 73 111 
f 92 85 111 
f 73 110 111 
f 110 92 111 
f 77 84 112 
f 92 77 112 
f 84 94 112 
o convex_3
v -0.019869 0.059792 -0.030804
v -0.032924 -0.033313 -0.044725
v 0.009715 -0.033313 -0.044725
v -0.023349 -0.025475 -0.026453
v 0.009715 0.050216 -0.022971
v 0.009715 0.045865 -0.047336
v -0.032924 0.046739 -0.046466
v -0.032924 0.049351 -0.022971
v 0.009715 -0.028087 -0.028197
v -0.032924 -0.033313 -0.029063
v 0.009715 0.059792 -0.023842
v -0.032924 0.060666 -0.024715
v -0.032924 0.038027 -0.047336
v 0.009715 0.053702 -0.040374
v 0.000140 -0.033313 -0.028197
v 0.009715 0.042378 -0.022971
v -0.032924 0.055441 -0.037763
v -0.032924 0.041514 -0.022971
v 0.009715 -0.024610 -0.027326
v 0.008842 0.060666 -0.027326
v 0.009715 0.036298 -0.047336
v 0.009715 -0.033313 -0.030804
v -0.032924 0.048468 -0.045593
v -0.027698 -0.022862 -0.026453
v -0.032924 0.059792 -0.023842
v -0.006817 0.058054 -0.034288
v -0.032924 0.060666 -0.027326
v 0.009715 0.047613 -0.046466
f 135 126 140 
f 117 115 118 
f 119 114 120 
f 115 117 121 
f 114 115 122 
f 120 114 122 
f 117 118 123 
f 119 120 124 
f 119 118 125 
f 114 119 125 
f 123 118 126 
f 122 115 127 
f 116 122 127 
f 117 120 128 
f 121 117 128 
f 119 124 129 
f 120 122 130 
f 116 128 130 
f 128 120 130 
f 127 121 131 
f 116 127 131 
f 128 116 131 
f 121 128 131 
f 124 123 132 
f 123 126 132 
f 115 114 133 
f 118 115 133 
f 114 125 133 
f 125 118 133 
f 115 121 134 
f 127 115 134 
f 121 127 134 
f 119 129 135 
f 129 126 135 
f 122 116 136 
f 130 122 136 
f 116 130 136 
f 120 117 137 
f 117 123 137 
f 124 120 137 
f 123 124 137 
f 129 113 138 
f 126 129 138 
f 113 132 138 
f 132 126 138 
f 113 129 139 
f 129 124 139 
f 124 132 139 
f 132 113 139 
f 118 119 140 
f 126 118 140 
f 119 135 140 
o convex_4
v 0.028858 0.058054 -0.033418
v 0.009715 -0.032442 -0.044725
v 0.028858 -0.032442 -0.045593
v 0.020158 -0.021996 -0.027326
v 0.009715 0.045865 -0.047336
v 0.009715 0.059796 -0.023842
v 0.034950 0.042389 -0.022971
v 0.034950 0.045865 -0.047336
v 0.034950 -0.032442 -0.030804
v 0.009715 -0.024605 -0.027326
v 0.034950 -0.032442 -0.045593
v 0.034950 0.059796 -0.025583
v 0.009715 0.042389 -0.022971
v 0.009715 -0.032442 -0.030804
v 0.009715 0.053702 -0.040374
v 0.009715 0.036294 -0.047336
v 0.009715 0.059796 -0.029935
v 0.034950 0.051092 -0.042981
v 0.034950 0.058054 -0.023842
v 0.034950 0.034561 -0.047336
v 0.027117 -0.023730 -0.028197
v 0.034950 0.059796 -0.029063
v 0.027117 0.050216 -0.022971
v 0.009715 0.047607 -0.046466
f 155 158 164 
f 145 142 146 
f 148 147 149 
f 142 143 149 
f 149 144 150 
f 146 142 150 
f 144 147 150 
f 148 149 151 
f 149 143 151 
f 147 148 152 
f 146 150 153 
f 150 147 153 
f 142 149 154 
f 149 150 154 
f 150 142 154 
f 145 146 155 
f 143 142 156 
f 142 145 156 
f 145 148 156 
f 146 152 157 
f 155 146 157 
f 141 155 157 
f 152 148 158 
f 155 141 158 
f 152 146 159 
f 147 152 159 
f 151 143 160 
f 148 151 160 
f 143 156 160 
f 156 148 160 
f 147 144 161 
f 149 147 161 
f 144 149 161 
f 141 157 162 
f 157 152 162 
f 158 141 162 
f 152 158 162 
f 146 153 163 
f 153 147 163 
f 159 146 163 
f 147 159 163 
f 148 145 164 
f 145 155 164 
f 158 148 164 
o convex_5
v 0.058443 0.058044 -0.029937
v 0.034950 -0.032442 -0.046463
v 0.035821 -0.032442 -0.047332
v 0.060184 -0.032442 -0.024715
v 0.034950 0.049350 -0.022971
v 0.050611 0.041513 -0.048204
v 0.041042 -0.032442 -0.022971
v 0.034950 0.045865 -0.047332
v 0.055832 -0.032442 -0.039502
v 0.060184 0.049341 -0.024715
v 0.060184 0.045865 -0.032547
v 0.034950 -0.032442 -0.030806
v 0.045393 -0.032442 -0.048204
v 0.034950 0.059796 -0.025585
v 0.061055 -0.032442 -0.029065
v 0.049742 0.015410 -0.022971
v 0.048871 0.053702 -0.039502
v 0.056703 0.058044 -0.024715
v 0.049742 -0.032442 -0.046463
v 0.034950 0.056311 -0.036022
v 0.057572 0.005849 -0.037761
v 0.037564 -0.017635 -0.048204
v 0.061055 0.049341 -0.026456
v 0.047133 0.045865 -0.022971
v 0.048871 -0.032442 -0.022971
v 0.057572 0.053702 -0.036022
v 0.041910 0.044131 -0.048204
v 0.061055 0.000639 -0.030806
v 0.054092 0.058920 -0.029937
v 0.059312 -0.021120 -0.034286
v 0.050611 0.050216 -0.042983
v 0.034950 0.042389 -0.022971
v 0.035821 0.058054 -0.023846
v 0.061055 -0.030691 -0.025585
v 0.034950 0.051092 -0.042983
v 0.060184 0.056311 -0.029065
f 175 190 200 
f 166 167 168 
f 166 168 171 
f 167 166 172 
f 166 169 172 
f 168 167 173 
f 169 166 176 
f 166 171 176 
f 173 167 177 
f 172 169 178 
f 168 173 179 
f 169 171 180 
f 168 174 180 
f 170 173 183 
f 177 170 183 
f 173 177 183 
f 172 178 184 
f 173 170 185 
f 170 175 185 
f 167 172 186 
f 177 167 186 
f 170 177 186 
f 169 180 188 
f 180 174 188 
f 174 182 188 
f 171 168 189 
f 168 180 189 
f 180 171 189 
f 175 170 190 
f 181 165 190 
f 186 172 191 
f 170 186 191 
f 175 187 192 
f 187 179 192 
f 165 181 193 
f 182 165 193 
f 178 182 193 
f 184 178 193 
f 181 184 193 
f 179 173 194 
f 173 185 194 
f 185 175 194 
f 192 179 194 
f 175 192 194 
f 190 170 195 
f 181 190 195 
f 170 191 195 
f 191 172 195 
f 171 169 196 
f 169 176 196 
f 176 171 196 
f 178 169 197 
f 182 178 197 
f 169 188 197 
f 188 182 197 
f 174 168 198 
f 168 179 198 
f 187 174 198 
f 179 187 198 
f 172 184 199 
f 184 181 199 
f 195 172 199 
f 181 195 199 
f 165 182 200 
f 182 174 200 
f 174 187 200 
f 187 175 200 
f 190 165 200 
o convex_6
v -0.055548 -0.027216 -0.009915
v -0.053805 0.004105 0.004874
v -0.052938 0.004105 0.004002
v -0.052064 -0.040274 0.004002
v -0.040755 -0.038532 -0.022971
v -0.049458 0.004105 -0.022971
v -0.059899 0.004105 0.003132
v -0.042496 0.004105 -0.022099
v -0.049458 -0.040274 -0.022099
v -0.059028 -0.040274 0.004874
v -0.053805 -0.001117 -0.015138
v -0.040755 -0.040274 -0.022099
v -0.058158 -0.040274 -0.000348
v -0.049458 -0.036790 -0.022971
v -0.059899 0.004105 0.004874
v -0.059899 -0.023736 0.003132
v -0.058158 0.004105 -0.002959
v -0.042496 0.004105 -0.022971
v -0.052938 -0.040274 0.004874
v -0.050327 -0.027216 -0.022099
f 214 201 220 
f 203 202 204 
f 202 203 206 
f 202 206 207 
f 206 203 208 
f 209 204 210 
f 203 204 212 
f 208 203 212 
f 205 208 212 
f 204 209 212 
f 209 205 212 
f 209 210 213 
f 206 205 214 
f 205 209 214 
f 213 201 214 
f 209 213 214 
f 202 207 215 
f 210 202 215 
f 210 215 216 
f 201 213 216 
f 213 210 216 
f 215 207 216 
f 207 206 217 
f 211 201 217 
f 206 211 217 
f 201 216 217 
f 216 207 217 
f 205 206 218 
f 208 205 218 
f 206 208 218 
f 204 202 219 
f 202 210 219 
f 210 204 219 
f 201 211 220 
f 211 206 220 
f 206 214 220 
o convex_7
v -0.066859 -0.049842 0.048387
v -0.063381 0.004105 0.065786
v -0.062512 0.004105 0.059692
v -0.060771 -0.055067 0.064915
v -0.059031 -0.055067 0.037071
v -0.066858 -0.005469 0.040553
v -0.069470 -0.023738 0.065786
v -0.060770 -0.004601 0.040553
v -0.069470 0.004105 0.059692
v -0.065119 -0.055067 0.037071
v -0.066859 -0.055067 0.064915
v -0.067730 -0.023738 0.044036
v -0.066858 0.004105 0.047516
v -0.069470 0.004105 0.065786
v -0.059031 -0.043749 0.037071
v -0.061641 0.004105 0.051867
v -0.065988 -0.040274 0.037071
v -0.068599 -0.040274 0.065786
v -0.069470 -0.022869 0.061432
v -0.059031 -0.054192 0.043165
v -0.068599 -0.000251 0.050130
v -0.061641 -0.040274 0.065786
v -0.060771 -0.051586 0.064915
v -0.060770 -0.005469 0.045776
v -0.067731 -0.051586 0.062301
f 238 239 245 
f 222 223 229 
f 225 224 230 
f 230 224 231 
f 228 226 233 
f 229 223 233 
f 227 222 234 
f 222 229 234 
f 229 227 234 
f 225 230 235 
f 233 223 236 
f 228 233 236 
f 226 228 237 
f 230 221 237 
f 221 232 237 
f 232 226 237 
f 228 235 237 
f 235 230 237 
f 222 227 238 
f 231 224 238 
f 227 229 239 
f 232 221 239 
f 238 227 239 
f 224 225 240 
f 225 235 240 
f 226 232 241 
f 233 226 241 
f 229 233 241 
f 239 229 241 
f 232 239 241 
f 222 238 242 
f 238 224 242 
f 223 222 243 
f 236 223 243 
f 224 240 243 
f 222 242 243 
f 242 224 243 
f 235 228 244 
f 228 236 244 
f 240 235 244 
f 236 243 244 
f 243 240 244 
f 221 230 245 
f 230 231 245 
f 231 238 245 
f 239 221 245 
o convex_8
v -0.061640 -0.017656 0.078839
v -0.069470 -0.024606 0.065787
v -0.069470 -0.024606 0.071878
v -0.053808 -0.055067 0.069270
v -0.057293 0.004105 0.071009
v -0.065990 -0.055067 0.077096
v -0.068599 0.004105 0.077096
v -0.063377 0.004105 0.065787
v -0.066859 -0.055067 0.064916
v -0.054680 -0.055067 0.076225
v -0.057293 0.004105 0.076226
v -0.069470 0.004105 0.065787
v -0.060773 -0.049842 0.064916
v -0.060773 0.004105 0.078839
v -0.058160 -0.055067 0.077968
v -0.067728 -0.025481 0.077965
v -0.067730 -0.052455 0.073615
v -0.065988 0.004105 0.078839
v -0.065117 -0.052455 0.077968
v -0.069470 -0.007213 0.075357
v -0.053808 -0.054192 0.074486
v -0.058162 -0.003732 0.077965
v -0.067730 -0.052455 0.064916
f 254 262 268 
f 250 249 253 
f 252 250 253 
f 249 251 254 
f 251 249 255 
f 250 252 256 
f 247 248 257 
f 252 253 257 
f 253 249 258 
f 249 254 258 
f 257 253 258 
f 256 252 259 
f 251 255 260 
f 259 246 260 
f 248 247 262 
f 254 251 262 
f 251 261 262 
f 246 259 263 
f 259 252 263 
f 252 261 263 
f 263 261 264 
f 260 246 264 
f 251 260 264 
f 261 251 264 
f 246 263 264 
f 257 248 265 
f 252 257 265 
f 261 252 265 
f 248 262 265 
f 262 261 265 
f 249 250 266 
f 255 249 266 
f 250 256 266 
f 256 255 266 
f 255 256 267 
f 256 259 267 
f 260 255 267 
f 259 260 267 
f 247 257 268 
f 258 254 268 
f 257 258 268 
f 262 247 268 
o convex_9
v 0.016681 -0.055935 -0.011659
v 0.041041 -0.040274 -0.022101
v 0.041041 -0.040274 -0.022971
v -0.005948 -0.042886 -0.022101
v -0.005948 -0.050714 -0.007308
v -0.001597 -0.050714 -0.022971
v 0.041041 -0.048974 -0.007308
v 0.041041 -0.048974 -0.022971
v 0.038424 -0.055935 -0.007308
v -0.005948 -0.056807 -0.007308
v -0.005948 -0.054195 -0.016008
v -0.005948 -0.049845 -0.008179
v 0.041041 -0.055066 -0.009919
v 0.026239 -0.052455 -0.018620
v -0.005948 -0.042886 -0.022971
v 0.039298 -0.048107 -0.008179
v -0.005948 -0.049845 -0.022971
f 279 283 285 
f 270 271 272 
f 271 270 275 
f 274 271 276 
f 271 275 276 
f 275 273 277 
f 277 273 278 
f 273 272 278 
f 269 277 278 
f 278 272 279 
f 269 278 279 
f 270 272 280 
f 272 273 280 
f 276 275 281 
f 275 277 281 
f 277 269 281 
f 274 276 282 
f 269 279 282 
f 279 274 282 
f 281 269 282 
f 276 281 282 
f 272 271 283 
f 271 274 283 
f 279 272 283 
f 275 270 284 
f 273 275 284 
f 270 280 284 
f 280 273 284 
f 274 279 285 
f 283 274 285 
o convex_10
v 0.039298 -0.063766 0.022278
v -0.005948 -0.057676 -0.007308
v -0.005948 -0.058546 -0.004696
v 0.009722 -0.057676 0.021406
v 0.041041 -0.048976 -0.007308
v 0.041041 -0.055939 -0.007308
v -0.005948 -0.050719 -0.005568
v 0.041041 -0.056806 0.022278
v 0.007974 -0.064637 0.022278
v -0.005948 -0.057676 0.010963
v 0.014938 -0.062026 0.007485
v -0.005948 -0.061156 0.003135
v 0.041041 -0.062896 0.017922
v 0.020150 -0.059416 -0.001215
v -0.005948 -0.050719 -0.007308
v 0.007105 -0.058546 0.022278
v -0.005948 -0.055068 0.009222
v 0.014938 -0.064637 0.019665
v 0.037559 -0.048976 -0.006437
v -0.005948 -0.061156 0.010963
v 0.040167 -0.055939 0.019665
v 0.040167 -0.059416 0.003135
v 0.012326 -0.057676 -0.007308
f 299 297 308 
f 287 290 291 
f 287 288 292 
f 291 290 293 
f 286 293 294 
f 292 288 295 
f 295 288 297 
f 293 286 298 
f 291 293 298 
f 296 297 299 
f 290 287 300 
f 287 292 300 
f 293 289 301 
f 294 293 301 
f 295 301 302 
f 289 292 302 
f 292 295 302 
f 301 289 302 
f 286 294 303 
f 294 297 303 
f 297 296 303 
f 298 286 303 
f 296 298 303 
f 290 300 304 
f 300 292 304 
f 297 294 305 
f 295 297 305 
f 294 301 305 
f 301 295 305 
f 292 289 306 
f 293 290 306 
f 289 293 306 
f 290 304 306 
f 304 292 306 
f 291 298 307 
f 298 296 307 
f 296 299 307 
f 299 291 307 
f 288 287 308 
f 287 291 308 
f 297 288 308 
f 291 299 308 
o convex_11
v 0.001015 -0.069860 0.064044
v 0.005367 -0.063769 0.022278
v 0.005367 -0.060290 0.022278
v 0.041041 -0.062900 0.064916
v 0.041041 -0.063769 0.022278
v -0.005948 -0.063769 0.064916
v 0.041041 -0.057680 0.026631
v 0.041041 -0.068988 0.064916
v -0.005948 -0.066378 0.028371
v -0.005948 -0.059419 0.030112
v 0.028857 -0.062030 0.063172
v 0.034073 -0.067247 0.042295
v -0.005948 -0.068988 0.049252
v 0.019285 -0.057680 0.022278
v -0.005948 -0.069860 0.064916
v 0.041041 -0.057680 0.022278
v 0.015808 -0.065508 0.024890
v -0.005948 -0.061159 0.024890
v 0.007105 -0.062900 0.064916
v 0.041041 -0.068988 0.062303
v 0.021024 -0.057680 0.024018
v 0.041041 -0.062030 0.064044
v 0.008848 -0.068118 0.043163
v 0.007105 -0.058549 0.022278
f 326 318 332 
f 310 311 313 
f 312 313 315 
f 313 312 316 
f 312 314 316 
f 317 314 318 
f 314 317 321 
f 313 311 322 
f 309 316 323 
f 316 314 323 
f 321 309 323 
f 314 321 323 
f 315 313 324 
f 313 322 324 
f 322 315 324 
f 310 313 325 
f 317 310 325 
f 313 320 325 
f 311 310 326 
f 310 317 326 
f 317 318 326 
f 314 312 327 
f 318 314 327 
f 316 309 328 
f 313 316 328 
f 320 313 328 
f 309 321 328 
f 319 315 329 
f 315 322 329 
f 322 318 329 
f 318 327 329 
f 327 319 329 
f 312 315 330 
f 315 319 330 
f 327 312 330 
f 319 327 330 
f 321 317 331 
f 317 325 331 
f 325 320 331 
f 320 328 331 
f 328 321 331 
f 322 311 332 
f 318 322 332 
f 311 326 332 
o convex_12
v -0.039011 -0.069859 0.065789
v 0.040163 -0.056809 0.072745
v 0.041041 -0.057680 0.074485
v -0.047717 -0.058550 0.077099
v 0.039295 -0.068116 0.075358
v 0.041041 -0.062900 0.064916
v -0.047717 -0.057681 0.069270
v -0.047717 -0.068987 0.076226
v 0.041041 -0.068986 0.064916
v -0.047717 -0.062901 0.064916
v 0.023630 -0.062900 0.077099
v 0.006228 -0.069857 0.074485
v 0.041041 -0.057680 0.069270
v -0.047717 -0.068987 0.064916
v -0.012904 -0.068117 0.077099
v 0.041041 -0.059420 0.076226
v -0.047717 -0.057681 0.075358
v 0.003621 -0.069857 0.064916
v 0.041041 -0.066376 0.076226
v -0.039011 -0.069859 0.073618
v -0.047717 -0.068117 0.077099
v 0.041041 -0.068986 0.072745
f 341 351 354 
f 336 339 340 
f 338 335 341 
f 338 341 342 
f 339 338 342 
f 340 339 342 
f 334 335 345 
f 335 338 345 
f 338 339 345 
f 339 334 345 
f 333 340 346 
f 342 341 346 
f 340 342 346 
f 343 336 347 
f 340 344 347 
f 344 337 347 
f 335 336 348 
f 341 335 348 
f 336 343 348 
f 335 334 349 
f 336 335 349 
f 334 339 349 
f 339 336 349 
f 344 333 350 
f 341 344 350 
f 333 346 350 
f 346 341 350 
f 343 347 351 
f 347 337 351 
f 341 348 351 
f 348 343 351 
f 340 333 352 
f 333 344 352 
f 344 340 352 
f 336 340 353 
f 347 336 353 
f 340 347 353 
f 337 344 354 
f 344 341 354 
f 351 337 354 
o convex_13
v 0.004494 0.054572 -0.015138
v -0.039885 0.040652 -0.022970
v -0.039885 0.040652 -0.022099
v -0.039012 0.057184 -0.005570
v 0.004494 0.051093 -0.004699
v 0.004494 0.043264 -0.022970
v -0.039885 0.049354 -0.022970
v -0.039885 0.050221 -0.004699
v 0.004494 0.058056 -0.004699
v 0.004494 0.050221 -0.022970
v -0.019868 0.052834 -0.018618
v -0.006823 0.043264 -0.019489
v -0.018126 0.057184 -0.008180
v -0.035533 0.049354 -0.005570
v -0.039885 0.056313 -0.004699
v -0.033791 0.054572 -0.013400
f 367 365 370 
f 357 356 360 
f 355 359 360 
f 356 357 361 
f 360 356 361 
f 361 357 362 
f 359 355 363 
f 362 359 363 
f 355 360 364 
f 360 361 364 
f 364 361 365 
f 355 364 365 
f 359 357 366 
f 357 360 366 
f 360 359 366 
f 363 355 367 
f 358 363 367 
f 355 365 367 
f 357 359 368 
f 359 362 368 
f 362 357 368 
f 358 361 369 
f 361 362 369 
f 363 358 369 
f 362 363 369 
f 361 358 370 
f 365 361 370 
f 358 367 370 
o convex_14
v 0.004494 0.070238 0.055340
v -0.027700 0.061538 0.030113
v -0.027700 0.065017 0.030113
v -0.039885 0.063278 0.066653
v 0.004494 0.060668 0.033593
v 0.004494 0.064148 0.066653
v -0.039885 0.069366 0.066653
v -0.039885 0.059796 0.037946
v 0.003620 0.067628 0.032724
v -0.039012 0.066756 0.035335
v 0.004494 0.070238 0.066653
v -0.022479 0.069366 0.049252
v 0.004494 0.060668 0.030113
v -0.039012 0.062409 0.064911
v -0.039885 0.059796 0.031855
v 0.004494 0.066756 0.030113
v -0.012040 0.059796 0.031855
v -0.025954 0.070238 0.064042
v -0.021605 0.066756 0.030113
v -0.039885 0.069366 0.059693
v -0.039885 0.064148 0.031855
v -0.005081 0.069366 0.045775
f 389 382 392 
f 375 371 376 
f 374 376 377 
f 374 377 378 
f 376 371 381 
f 377 376 381 
f 372 373 383 
f 371 375 383 
f 376 374 384 
f 374 378 384 
f 373 372 385 
f 378 377 385 
f 372 383 385 
f 379 371 386 
f 383 373 386 
f 371 383 386 
f 375 376 387 
f 383 375 387 
f 376 384 387 
f 384 378 387 
f 378 385 387 
f 385 383 387 
f 381 371 388 
f 377 381 388 
f 371 382 388 
f 380 382 389 
f 379 386 389 
f 386 373 389 
f 382 380 390 
f 385 377 390 
f 377 388 390 
f 388 382 390 
f 373 385 391 
f 389 373 391 
f 380 389 391 
f 390 380 391 
f 385 390 391 
f 371 379 392 
f 382 371 392 
f 379 389 392 
o convex_15
v -0.039885 0.056315 0.071879
v 0.004494 0.070238 0.076227
v 0.004494 0.068496 0.077967
v -0.039885 0.066756 0.078837
v -0.039885 0.069367 0.066657
v 0.004494 0.064146 0.066657
v 0.003620 0.058928 0.077097
v 0.004494 0.070238 0.066657
v -0.039885 0.059797 0.078837
v 0.004494 0.058058 0.071879
v -0.039885 0.062407 0.066657
v -0.026827 0.070238 0.074487
v -0.038143 0.057186 0.077097
v -0.010302 0.064146 0.078837
v -0.037274 0.068496 0.077967
v 0.004494 0.058058 0.075357
v 0.004494 0.060668 0.077967
v -0.026827 0.070238 0.066657
f 404 400 410 
f 393 396 397 
f 394 395 398 
f 394 398 400 
f 398 397 400 
f 396 393 401 
f 393 398 402 
f 398 395 402 
f 393 397 403 
f 397 398 403 
f 398 393 403 
f 394 400 404 
f 401 393 405 
f 399 401 405 
f 395 396 406 
f 396 401 406 
f 395 394 407 
f 396 395 407 
f 397 396 407 
f 394 404 407 
f 404 397 407 
f 393 402 408 
f 402 395 408 
f 405 393 408 
f 399 405 408 
f 401 399 409 
f 395 406 409 
f 406 401 409 
f 408 395 409 
f 399 408 409 
f 400 397 410 
f 397 404 410 
o convex_16
v 0.052353 0.011939 -0.019489
v 0.061051 0.038039 0.010095
v 0.056704 0.038039 0.010095
v 0.063665 0.004105 0.010095
v 0.042786 0.004105 -0.022101
v 0.040171 0.041522 -0.022971
v 0.055832 0.041522 -0.008173
v 0.057571 0.004105 0.010095
v 0.048875 0.038039 -0.022971
v 0.054089 0.041522 0.008354
v 0.049747 0.004105 -0.022971
v 0.063665 0.005848 0.006613
v 0.060184 0.041522 0.003133
v 0.060184 0.004105 -0.002959
v 0.040171 0.039779 -0.022101
v 0.054961 0.031948 0.009225
v 0.063665 0.022381 0.009225
v 0.060184 0.015419 -0.002088
v 0.048004 0.041522 -0.022971
v 0.055832 0.020642 -0.011659
v 0.042786 0.004105 -0.022971
f 425 416 431 
f 412 413 414 
f 414 413 418 
f 415 414 418 
f 413 412 420 
f 417 416 420 
f 414 415 421 
f 419 411 421 
f 416 419 421 
f 420 412 423 
f 417 420 423 
f 421 411 424 
f 414 421 424 
f 422 414 424 
f 420 416 425 
f 420 425 426 
f 418 413 426 
f 415 418 426 
f 413 420 426 
f 425 415 426 
f 412 414 427 
f 414 422 427 
f 423 412 427 
f 417 423 428 
f 422 424 428 
f 427 422 428 
f 423 427 428 
f 416 417 429 
f 419 416 429 
f 417 419 429 
f 411 419 430 
f 419 417 430 
f 424 411 430 
f 417 428 430 
f 428 424 430 
f 421 415 431 
f 416 421 431 
f 415 425 431 
o convex_17
v 0.064533 0.004105 0.010095
v 0.068015 0.041522 0.037941
v 0.068015 0.041522 0.037069
v 0.055835 0.036296 0.010967
v 0.062795 0.004105 0.037069
v 0.069755 0.004977 0.037941
v 0.061927 0.041522 0.037941
v 0.057575 0.004105 0.010095
v 0.061927 0.037171 0.010095
v 0.067144 0.022381 0.023151
v 0.065404 0.041522 0.023151
v 0.055835 0.032816 0.012706
v 0.059316 0.041522 0.022282
v 0.063664 0.026725 0.010095
v 0.068885 0.010203 0.029238
v 0.068885 0.034560 0.037069
v 0.067144 0.004105 0.019668
v 0.060186 0.041522 0.031849
v 0.059316 0.038039 0.010095
v 0.063664 0.004105 0.037941
f 448 437 451 
f 433 434 438 
f 437 433 438 
f 432 436 439 
f 432 439 440 
f 438 434 442 
f 435 439 443 
f 439 436 443 
f 438 442 444 
f 432 440 445 
f 440 442 445 
f 442 441 445 
f 446 441 447 
f 434 433 447 
f 433 437 447 
f 441 442 447 
f 442 434 447 
f 437 446 447 
f 436 432 448 
f 432 445 448 
f 445 441 448 
f 446 437 448 
f 441 446 448 
f 436 438 449 
f 435 443 449 
f 443 436 449 
f 444 435 449 
f 438 444 449 
f 439 435 450 
f 440 439 450 
f 442 440 450 
f 435 444 450 
f 444 442 450 
f 438 436 451 
f 437 438 451 
f 436 448 451 
o convex_18
v 0.068885 0.004105 0.037941
v 0.070626 0.041522 0.064046
v 0.070626 0.041522 0.062301
v 0.061925 0.041522 0.038812
v 0.065407 0.004105 0.064046
v 0.071497 0.004105 0.064046
v 0.068885 0.037171 0.037941
v 0.064537 0.041522 0.064046
v 0.063666 0.004105 0.037941
v 0.070626 0.010203 0.042293
v 0.068015 0.041522 0.037941
v 0.071497 0.004105 0.052731
v 0.064537 0.021510 0.064046
v 0.063666 0.004977 0.043164
v 0.070626 0.029333 0.050127
v 0.061925 0.037171 0.037941
v 0.071497 0.021510 0.063172
f 463 466 468 
f 453 454 455 
f 453 456 457 
f 456 452 457 
f 453 455 459 
f 456 453 459 
f 452 456 460 
f 458 452 460 
f 452 458 461 
f 455 454 462 
f 454 458 462 
f 458 460 462 
f 457 452 463 
f 452 461 463 
f 459 455 464 
f 456 459 464 
f 460 456 465 
f 456 464 465 
f 458 454 466 
f 461 458 466 
f 463 461 466 
f 455 462 467 
f 462 460 467 
f 464 455 467 
f 460 465 467 
f 465 464 467 
f 454 453 468 
f 453 457 468 
f 457 463 468 
f 466 454 468 
o convex_19
v 0.068884 -0.015035 0.076228
v 0.057574 0.030202 0.071007
v 0.057574 0.030202 0.071876
v 0.058445 -0.045495 0.067530
v 0.070626 0.041522 0.064047
v 0.070623 -0.045495 0.063176
v 0.069754 0.041522 0.075356
v 0.060188 -0.045495 0.075357
v 0.063666 0.041522 0.064047
v 0.061055 0.041522 0.077097
v 0.070623 -0.042011 0.073617
v 0.064536 -0.045495 0.063176
v 0.071497 -0.001986 0.073617
v 0.057574 0.041522 0.069269
v 0.071497 0.004104 0.063176
v 0.065405 -0.045495 0.076228
v 0.057574 0.037170 0.074485
v 0.058445 -0.045495 0.073617
v 0.066275 0.041522 0.077097
v 0.071497 0.023243 0.071876
v 0.071497 -0.033298 0.063176
v 0.068884 -0.045495 0.075357
v 0.065405 0.004104 0.063176
v 0.071497 -0.033298 0.070137
f 489 481 492 
f 471 470 472 
f 472 474 476 
f 475 473 477 
f 475 477 478 
f 474 472 480 
f 472 477 480 
f 475 469 481 
f 469 479 481 
f 470 471 482 
f 472 470 482 
f 477 472 482 
f 478 477 482 
f 477 473 483 
f 474 480 483 
f 476 474 484 
f 478 476 484 
f 476 478 485 
f 482 471 485 
f 478 482 485 
f 471 472 486 
f 472 476 486 
f 485 471 486 
f 476 485 486 
f 469 475 487 
f 475 478 487 
f 484 469 487 
f 478 484 487 
f 473 475 488 
f 475 481 488 
f 483 473 488 
f 481 483 488 
f 474 483 489 
f 483 481 489 
f 474 479 490 
f 479 469 490 
f 484 474 490 
f 469 484 490 
f 480 477 491 
f 477 483 491 
f 483 480 491 
f 479 474 492 
f 481 479 492 
f 474 489 492 
o convex_20
v 0.004494 0.054572 -0.015136
v 0.037560 0.060662 0.012701
v 0.037560 0.058925 0.012701
v 0.037560 0.042393 -0.022968
v 0.004494 0.055443 0.010089
v 0.037560 0.050226 -0.022968
v 0.004494 0.043263 -0.022968
v 0.014068 0.063277 0.011832
v 0.027115 0.056314 0.015313
v 0.034948 0.059795 0.000519
v 0.004494 0.061535 0.004869
v 0.004494 0.050226 -0.022968
v 0.011456 0.063277 0.015313
v 0.037560 0.055443 0.011832
v 0.027115 0.063277 0.015313
v 0.004494 0.043263 -0.022095
v 0.020159 0.056314 -0.010786
v 0.033207 0.042393 -0.022095
v 0.011456 0.057185 0.015313
v 0.037560 0.060662 0.004000
v 0.004494 0.060662 0.010962
v 0.037560 0.056314 -0.009047
v 0.012327 0.059795 -0.001220
f 502 509 515 
f 494 495 496 
f 494 496 498 
f 498 496 499 
f 497 493 499 
f 495 494 501 
f 493 497 503 
f 493 498 504 
f 498 499 504 
f 499 493 504 
f 500 503 505 
f 496 495 506 
f 495 501 506 
f 501 494 507 
f 500 505 507 
f 505 501 507 
f 497 499 508 
f 501 497 508 
f 498 493 509 
f 499 496 510 
f 496 506 510 
f 506 501 510 
f 508 499 510 
f 501 508 510 
f 497 501 511 
f 501 505 511 
f 494 498 512 
f 502 500 512 
f 507 494 512 
f 500 507 512 
f 503 497 513 
f 505 503 513 
f 497 511 513 
f 511 505 513 
f 498 509 514 
f 509 502 514 
f 512 498 514 
f 502 512 514 
f 500 502 515 
f 503 500 515 
f 493 503 515 
f 509 493 515 
o convex_21
v -0.057286 -0.057679 0.005754
v -0.047717 -0.059416 0.031849
v -0.047717 -0.064637 0.031849
v -0.065120 -0.051586 0.037071
v -0.047717 -0.051586 -0.013399
v -0.061638 -0.064637 0.037071
v -0.059028 -0.051586 0.037071
v -0.048587 -0.062897 0.016183
v -0.047717 -0.051586 0.004010
v -0.059028 -0.051586 0.005754
v -0.063379 -0.060286 0.029235
v -0.052069 -0.066379 0.037071
v -0.059028 -0.063768 0.025757
v -0.050330 -0.052458 -0.012520
v -0.047717 -0.058550 0.001397
v -0.054679 -0.059416 0.006624
v -0.051199 -0.061158 0.037071
v -0.061638 -0.055937 0.017053
f 526 519 533 
f 517 518 520 
f 519 521 522 
f 520 519 522 
f 517 520 524 
f 522 517 524 
f 520 522 524 
f 519 520 525 
f 521 519 526 
f 522 521 527 
f 523 518 527 
f 523 527 528 
f 526 516 528 
f 521 526 528 
f 527 521 528 
f 516 525 529 
f 525 520 529 
f 520 518 530 
f 518 523 530 
f 529 520 530 
f 529 530 531 
f 523 528 531 
f 528 516 531 
f 516 529 531 
f 530 523 531 
f 518 517 532 
f 517 522 532 
f 527 518 532 
f 522 527 532 
f 525 516 533 
f 519 525 533 
f 516 526 533 
o convex_22
v -0.056419 -0.048104 -0.003823
v -0.047717 -0.050715 0.001396
v -0.059028 -0.040275 0.037071
v -0.047717 -0.040275 -0.022971
v -0.065120 -0.051585 0.037071
v -0.064248 -0.040275 0.025757
v -0.048587 -0.051585 -0.015137
v -0.058158 -0.051585 0.035325
v -0.047717 -0.040275 -0.008178
v -0.060768 -0.051585 0.011828
v -0.059897 -0.040275 0.005745
v -0.065120 -0.040275 0.037071
v -0.049460 -0.042886 -0.022096
v -0.054679 -0.051585 -0.007303
v -0.053809 -0.040275 -0.012527
v -0.047717 -0.047234 -0.021226
f 547 546 549 
f 536 537 539 
f 538 540 541 
f 535 536 541 
f 536 538 541 
f 540 535 541 
f 536 535 542 
f 537 536 542 
f 535 537 542 
f 538 539 543 
f 540 538 543 
f 539 537 544 
f 534 543 544 
f 543 539 544 
f 538 536 545 
f 536 539 545 
f 539 538 545 
f 543 534 547 
f 540 543 547 
f 546 547 548 
f 534 544 548 
f 544 537 548 
f 537 546 548 
f 547 534 548 
f 537 535 549 
f 535 540 549 
f 546 537 549 
f 540 547 549 
o convex_23
v -0.062509 -0.065506 0.040554
v -0.047717 -0.058548 0.077092
v -0.047717 -0.068119 0.077092
v -0.066861 -0.055067 0.075355
v -0.058158 -0.055067 0.037071
v -0.047717 -0.067247 0.042295
v -0.063379 -0.068119 0.073613
v -0.065120 -0.055067 0.037071
v -0.047717 -0.061159 0.043168
v -0.052939 -0.055067 0.071876
v -0.065989 -0.064638 0.060558
v -0.051200 -0.066377 0.037071
v -0.052939 -0.068990 0.058825
v -0.064247 -0.055067 0.077969
v -0.048588 -0.056810 0.070134
v -0.064247 -0.066377 0.076223
v -0.064247 -0.062028 0.037071
v -0.047717 -0.068990 0.076223
v -0.066861 -0.055938 0.055350
v -0.059026 -0.067247 0.045774
v -0.066861 -0.061159 0.072744
v -0.063379 -0.068119 0.064910
v -0.059899 -0.068990 0.073613
v -0.051200 -0.061159 0.037071
v -0.047717 -0.068119 0.045774
f 562 569 574 
f 551 552 555 
f 553 554 557 
f 551 555 558 
f 554 553 559 
f 557 554 561 
f 552 551 563 
f 551 559 563 
f 559 553 563 
f 551 558 564 
f 558 554 564 
f 559 551 564 
f 554 559 564 
f 560 556 565 
f 552 563 565 
f 563 553 565 
f 550 560 566 
f 561 550 566 
f 557 561 566 
f 555 552 567 
f 552 565 567 
f 553 557 568 
f 566 560 568 
f 557 566 568 
f 550 561 569 
f 565 553 570 
f 560 565 570 
f 553 568 570 
f 568 560 570 
f 556 560 571 
f 560 550 571 
f 550 569 571 
f 569 562 571 
f 565 556 572 
f 562 567 572 
f 567 565 572 
f 556 571 572 
f 571 562 572 
f 554 558 573 
f 558 555 573 
f 555 561 573 
f 561 554 573 
f 561 555 574 
f 555 567 574 
f 567 562 574 
f 569 561 574 
o convex_24
v -0.040754 -0.059420 0.002266
v -0.005953 -0.061156 0.037071
v -0.005953 -0.067249 0.037071
v -0.005953 -0.052456 -0.017750
v -0.047717 -0.058550 0.030100
v -0.047717 -0.052456 0.005748
v -0.039883 -0.067249 0.037071
v -0.005953 -0.061156 0.003135
v -0.047717 -0.053328 -0.011654
v -0.005953 -0.052456 -0.001212
v -0.047717 -0.065507 0.027497
v -0.015524 -0.065507 0.021407
v -0.039012 -0.060286 0.037071
v -0.014653 -0.055937 -0.011654
v -0.014653 -0.060286 0.036196
v -0.021620 -0.062898 0.010089
v -0.047717 -0.052456 -0.011654
v -0.047717 -0.062028 0.012697
v -0.005953 -0.067249 0.033583
v -0.026833 -0.053328 -0.016006
v -0.021620 -0.057678 -0.006433
v -0.047717 -0.062898 0.031849
v -0.005953 -0.054198 -0.016006
v -0.037271 -0.067249 0.034457
v -0.032920 -0.052456 0.004004
v -0.043358 -0.056808 -0.004694
f 594 595 600 
f 576 577 578 
f 577 576 581 
f 578 577 582 
f 579 580 583 
f 576 578 584 
f 578 580 584 
f 579 583 585 
f 580 579 587 
f 581 576 587 
f 576 584 589 
f 587 576 589 
f 580 587 589 
f 582 586 590 
f 586 585 590 
f 580 578 591 
f 583 580 591 
f 585 583 592 
f 575 590 592 
f 590 585 592 
f 577 581 593 
f 582 577 593 
f 586 582 593 
f 591 578 594 
f 583 591 594 
f 588 582 595 
f 590 575 595 
f 582 590 595 
f 594 588 595 
f 579 585 596 
f 585 581 596 
f 587 579 596 
f 581 587 596 
f 578 582 597 
f 582 588 597 
f 594 578 597 
f 588 594 597 
f 581 585 598 
f 585 586 598 
f 593 581 598 
f 586 593 598 
f 584 580 599 
f 589 584 599 
f 580 589 599 
f 575 592 600 
f 592 583 600 
f 583 594 600 
f 595 575 600 
o convex_25
v -0.005953 -0.069859 0.064916
v -0.042496 -0.065509 0.037071
v -0.042496 -0.062900 0.037071
v -0.047717 -0.062900 0.064916
v -0.005953 -0.061159 0.037071
v -0.005953 -0.063769 0.064916
v -0.047717 -0.068989 0.064916
v -0.007690 -0.068118 0.040557
v -0.047717 -0.068118 0.045776
v -0.047717 -0.061159 0.043163
v -0.005953 -0.067249 0.037071
v -0.025099 -0.069859 0.059694
v -0.005953 -0.061159 0.042293
v -0.030312 -0.068118 0.039685
v -0.041625 -0.061159 0.037071
v -0.005953 -0.062900 0.060563
v -0.040754 -0.067249 0.037071
v -0.037271 -0.069859 0.064044
v -0.024228 -0.068989 0.046646
v -0.042496 -0.068989 0.050993
f 619 612 620 
f 602 603 605 
f 604 601 606 
f 601 605 606 
f 601 604 607 
f 607 604 609 
f 603 602 610 
f 602 609 610 
f 609 604 610 
f 605 601 611 
f 602 605 611 
f 601 608 611 
f 606 605 613 
f 610 604 613 
f 605 610 613 
f 611 608 614 
f 605 603 615 
f 603 610 615 
f 610 605 615 
f 604 606 616 
f 613 604 616 
f 606 613 616 
f 609 602 617 
f 602 611 617 
f 614 609 617 
f 611 614 617 
f 601 607 618 
f 612 601 618 
f 608 601 619 
f 601 612 619 
f 614 608 619 
f 614 619 620 
f 607 609 620 
f 609 614 620 
f 618 607 620 
f 612 618 620 
o convex_26
v 0.061056 0.049353 0.015316
v 0.069755 0.053705 0.062306
v 0.069755 0.041522 0.062306
v 0.063664 0.043265 0.062306
v 0.055835 0.053705 0.017929
v 0.059316 0.041522 0.022280
v 0.067144 0.041522 0.030113
v 0.063664 0.053705 0.062306
v 0.065404 0.053705 0.026631
v 0.069755 0.042393 0.048383
v 0.055835 0.050224 0.017060
v 0.061927 0.053705 0.015316
v 0.065404 0.041522 0.023149
v 0.068885 0.053705 0.048383
v 0.064533 0.041522 0.062306
v 0.058446 0.042393 0.024023
f 635 624 636 
f 623 622 624 
f 623 626 627 
f 624 622 628 
f 625 624 628 
f 622 625 628 
f 625 622 629 
f 622 623 630 
f 623 627 630 
f 624 625 631 
f 621 626 631 
f 625 629 632 
f 621 631 632 
f 631 625 632 
f 626 621 633 
f 627 626 633 
f 629 627 633 
f 621 632 633 
f 632 629 633 
f 629 622 634 
f 627 629 634 
f 630 627 634 
f 622 630 634 
f 623 624 635 
f 626 623 635 
f 626 635 636 
f 624 631 636 
f 631 626 636 
o convex_27
v -0.061638 -0.034179 0.010968
v -0.061640 -0.003732 0.040546
v -0.064249 -0.003732 0.040546
v -0.059898 0.004105 0.004878
v -0.052938 -0.040274 0.006617
v -0.065987 -0.040274 0.039676
v -0.053809 0.004105 0.007486
v -0.059902 -0.040274 0.040546
v -0.065987 0.004105 0.031847
v -0.059902 0.004105 0.037068
v -0.059028 -0.040274 0.004878
v -0.066861 -0.031564 0.040546
v -0.059902 -0.004601 0.039676
v -0.053809 0.004105 0.004878
v -0.063380 -0.016781 0.017055
v -0.064249 -0.040274 0.024891
v -0.066861 -0.005469 0.040546
v -0.060767 -0.011564 0.005747
v -0.052938 -0.040274 0.004878
v -0.066861 -0.015039 0.037068
v -0.061638 0.004105 0.010098
v -0.065118 0.004105 0.037068
f 653 639 658 
f 638 639 644 
f 642 641 644 
f 643 640 645 
f 643 645 646 
f 639 638 646 
f 641 642 647 
f 644 639 648 
f 642 644 648 
f 641 643 649 
f 644 641 649 
f 638 644 649 
f 643 646 649 
f 646 638 649 
f 640 643 650 
f 643 641 650 
f 647 640 650 
f 637 647 652 
f 647 642 652 
f 642 648 652 
f 651 637 652 
f 648 639 653 
f 647 637 654 
f 640 647 654 
f 637 651 654 
f 641 647 655 
f 650 641 655 
f 647 650 655 
f 645 651 656 
f 652 648 656 
f 651 652 656 
f 653 645 656 
f 648 653 656 
f 645 640 657 
f 651 645 657 
f 640 654 657 
f 654 651 657 
f 646 645 658 
f 639 646 658 
f 645 653 658 
o convex_28
v 0.042782 -0.056805 -0.004696
v 0.064536 -0.051587 0.024888
v 0.064536 -0.058547 0.024888
v 0.041041 -0.057676 0.024888
v 0.047135 -0.045495 -0.022971
v 0.058441 -0.045495 0.021407
v 0.041041 -0.045495 -0.014267
v 0.041041 -0.063769 0.022274
v 0.059310 -0.059415 0.010965
v 0.063662 -0.045495 0.014446
v 0.041041 -0.048976 -0.022971
v 0.055831 -0.053328 -0.004696
v 0.061921 -0.062026 0.024888
v 0.049746 -0.052458 -0.013396
v 0.056703 -0.045495 -0.005567
v 0.060184 -0.055066 0.006613
v 0.055831 -0.062026 0.017927
v 0.041041 -0.063769 0.024888
v 0.041041 -0.058547 0.000532
v 0.051484 -0.058547 0.003132
v 0.048874 -0.048107 -0.020357
v 0.041041 -0.056805 0.023145
v 0.063662 -0.045495 0.021407
f 668 664 681 
f 661 660 662 
f 662 660 664 
f 664 663 665 
f 662 665 666 
f 660 661 668 
f 663 664 668 
f 665 663 669 
f 666 665 669 
f 661 662 671 
f 667 661 671 
f 659 669 672 
f 670 667 672 
f 663 668 673 
f 670 673 674 
f 661 667 674 
f 668 661 674 
f 667 670 674 
f 673 668 674 
f 671 666 675 
f 667 671 675 
f 662 666 676 
f 671 662 676 
f 666 671 676 
f 669 659 677 
f 666 669 677 
f 675 666 677 
f 675 677 678 
f 659 672 678 
f 672 667 678 
f 667 675 678 
f 677 659 678 
f 669 663 679 
f 672 669 679 
f 670 672 679 
f 663 673 679 
f 673 670 679 
f 662 664 680 
f 665 662 680 
f 664 665 680 
f 664 660 681 
f 660 668 681 
o convex_29
v 0.050613 -0.067247 0.048388
v 0.056704 -0.057679 0.075352
v 0.050613 -0.057679 0.075352
v 0.056704 -0.059420 0.040551
v 0.041041 -0.061159 0.044906
v 0.041041 -0.068119 0.074482
v 0.056704 -0.068119 0.071877
v 0.042784 -0.056810 0.072743
v 0.041041 -0.067247 0.046645
v 0.056704 -0.065506 0.040551
v 0.055833 -0.055067 0.067522
v 0.048872 -0.059420 0.040551
v 0.041041 -0.059420 0.076228
v 0.041041 -0.068990 0.063171
v 0.056704 -0.066377 0.075352
v 0.048872 -0.065506 0.040551
v 0.056704 -0.055067 0.071004
v 0.056704 -0.067247 0.052736
f 688 695 699 
f 685 683 688 
f 687 686 690 
f 685 688 691 
f 682 690 691 
f 689 692 693 
f 686 689 693 
f 685 691 693 
f 692 685 693 
f 683 684 694 
f 686 687 694 
f 684 689 694 
f 689 686 694 
f 688 687 695 
f 690 682 695 
f 687 690 695 
f 687 688 696 
f 688 683 696 
f 683 694 696 
f 694 687 696 
f 690 686 697 
f 691 690 697 
f 686 693 697 
f 693 691 697 
f 684 683 698 
f 683 685 698 
f 689 684 698 
f 685 692 698 
f 692 689 698 
f 682 691 699 
f 691 688 699 
f 695 682 699 
o convex_30
v 0.070627 -0.045495 0.072743
v 0.056704 -0.068119 0.069261
v 0.057575 -0.068119 0.069261
v 0.062796 -0.045495 0.040551
v 0.067145 -0.062895 0.042297
v 0.057575 -0.045495 0.071004
v 0.056704 -0.065506 0.040551
v 0.068014 -0.065506 0.073613
v 0.068885 -0.045495 0.040551
v 0.056704 -0.057673 0.075352
v 0.069756 -0.061155 0.063171
v 0.056704 -0.059414 0.040551
v 0.065406 -0.045495 0.076228
v 0.063665 -0.066379 0.051866
v 0.056704 -0.066379 0.075352
v 0.069756 -0.051590 0.049254
v 0.064535 -0.064636 0.040551
v 0.067145 -0.066379 0.063171
v 0.068014 -0.059414 0.075352
v 0.070627 -0.045495 0.057087
v 0.060186 -0.045495 0.075352
v 0.069756 -0.062025 0.071004
v 0.068885 -0.063768 0.057087
f 710 721 722 
f 700 703 705 
f 702 701 706 
f 703 700 708 
f 706 703 708 
f 706 701 709 
f 705 703 711 
f 703 706 711 
f 709 705 711 
f 706 709 711 
f 700 705 712 
f 702 706 713 
f 701 702 714 
f 702 707 714 
f 709 701 714 
f 712 709 714 
f 704 708 715 
f 708 704 716 
f 706 708 716 
f 713 706 716 
f 713 716 717 
f 707 702 717 
f 702 713 717 
f 716 704 717 
f 700 712 718 
f 714 707 718 
f 712 714 718 
f 708 700 719 
f 715 708 719 
f 710 715 719 
f 705 709 720 
f 712 705 720 
f 709 712 720 
f 700 718 721 
f 718 707 721 
f 719 700 721 
f 710 719 721 
f 704 715 722 
f 715 710 722 
f 707 717 722 
f 717 704 722 
f 721 707 722 
o convex_31
v 0.048876 -0.044616 -0.022101
v 0.060185 0.004105 -0.000347
v 0.060185 0.004105 -0.002960
v 0.042782 0.004105 -0.022101
v 0.051482 -0.045495 -0.000347
v 0.041041 -0.045495 -0.016009
v 0.053223 0.004105 -0.001217
v 0.058444 -0.045495 -0.001217
v 0.051482 0.004105 -0.021231
v 0.041041 -0.045495 -0.022971
v 0.055834 -0.014170 -0.012527
v 0.049743 0.004105 -0.022971
v 0.049743 -0.028085 -0.022971
v 0.060185 -0.024608 -0.000347
v 0.055834 -0.035921 -0.009921
v 0.042782 0.004105 -0.022971
v 0.059313 -0.021996 -0.003830
v 0.054091 0.004105 -0.000347
v 0.048002 -0.045495 -0.022971
f 735 723 741 
f 724 725 726 
f 728 727 729 
f 724 726 729 
f 726 728 729 
f 727 728 730 
f 726 725 731 
f 728 726 732 
f 730 728 732 
f 731 725 733 
f 726 731 734 
f 732 734 735 
f 731 733 735 
f 734 731 735 
f 725 724 736 
f 724 727 736 
f 727 730 736 
f 730 723 737 
f 723 735 737 
f 735 733 737 
f 732 726 738 
f 726 734 738 
f 734 732 738 
f 733 725 739 
f 725 736 739 
f 736 730 739 
f 737 733 739 
f 730 737 739 
f 727 724 740 
f 729 727 740 
f 724 729 740 
f 723 730 741 
f 730 732 741 
f 732 735 741 
o convex_32
v 0.060185 -0.034178 0.000528
v 0.068016 0.004105 0.041422
v 0.064536 0.004105 0.041422
v 0.068885 -0.045495 0.041422
v 0.052355 -0.045495 0.002266
v 0.054097 0.004105 -0.000347
v 0.065403 0.004105 0.012708
v 0.061924 -0.045495 0.039676
v 0.063664 -0.045495 0.014450
v 0.069757 -0.017651 0.035330
v 0.061054 0.004105 -0.000347
v 0.058446 -0.045495 -0.000347
v 0.066273 -0.031570 0.019666
v 0.068014 0.004105 0.024013
v 0.064532 -0.015913 0.010099
v 0.063665 0.004105 0.038809
v 0.052355 -0.045495 -0.000347
v 0.069757 -0.011563 0.041422
v 0.062797 -0.045495 0.041422
v 0.068016 -0.043752 0.032721
v 0.052355 -0.042883 0.002266
v 0.067144 -0.011563 0.019666
v 0.054097 0.004105 0.000528
v 0.061054 -0.013301 -0.000347
v 0.063664 -0.024608 0.008362
f 742 765 766 
f 743 744 745 
f 744 743 747 
f 747 743 748 
f 746 745 749 
f 745 746 750 
f 747 748 752 
f 742 750 753 
f 750 746 753 
f 747 752 753 
f 748 743 755 
f 744 747 757 
f 749 744 757 
f 753 746 758 
f 747 753 758 
f 743 745 759 
f 745 751 759 
f 751 755 759 
f 755 743 759 
f 745 744 760 
f 744 749 760 
f 749 745 760 
f 745 750 761 
f 751 745 761 
f 750 754 761 
f 754 751 761 
f 746 749 762 
f 749 757 762 
f 758 746 762 
f 747 758 762 
f 751 754 763 
f 755 751 763 
f 748 755 763 
f 756 748 763 
f 754 756 763 
f 757 747 764 
f 747 762 764 
f 762 757 764 
f 752 748 765 
f 742 753 765 
f 753 752 765 
f 748 756 765 
f 765 756 766 
f 750 742 766 
f 754 750 766 
f 756 754 766 
o convex_33
v -0.050327 0.004105 -0.022101
v -0.050327 0.038042 -0.000347
v -0.051198 0.038042 -0.000347
v -0.040755 0.038042 -0.022971
v -0.050327 0.004105 -0.003830
v -0.051198 0.038042 -0.017749
v -0.042496 0.004105 -0.022101
v -0.048586 0.038042 -0.022971
v -0.051198 0.004105 -0.020360
v -0.040755 0.035431 -0.022101
v -0.051198 0.004105 -0.003830
v -0.042496 0.004105 -0.022971
f 776 773 778 
f 769 768 770 
f 768 769 771 
f 769 770 772 
f 771 767 773 
f 772 770 774 
f 772 774 775 
f 767 771 775 
f 769 772 775 
f 774 767 775 
f 770 768 776 
f 768 771 776 
f 771 773 776 
f 771 769 777 
f 775 771 777 
f 769 775 777 
f 773 767 778 
f 767 774 778 
f 774 770 778 
f 770 776 778 
o convex_34
v -0.065117 0.033688 0.030977
v -0.052068 0.004105 -0.018620
v -0.052068 0.011945 -0.018620
v -0.059029 0.039778 0.040551
v -0.051198 0.049354 -0.013396
v -0.060769 0.004105 0.037933
v -0.051198 0.004105 -0.001215
v -0.065990 0.004105 0.031840
v -0.061637 0.049354 0.016178
v -0.051198 0.049354 0.005747
v -0.065990 0.038037 0.040551
v -0.059897 0.005846 0.003135
v -0.056421 0.044132 -0.003828
v -0.057289 0.049354 0.030108
v -0.066861 0.010200 0.040551
v -0.059897 0.009331 0.039677
v -0.063379 0.049354 0.029228
v -0.063379 0.010200 0.017916
v -0.051198 0.004105 -0.018620
v -0.059029 0.033688 0.040551
v -0.052068 0.047609 -0.014265
v -0.060769 0.033688 0.009228
v -0.055549 0.013681 -0.009915
v -0.063379 0.048481 0.024015
v -0.052068 0.032820 -0.016877
v -0.059029 0.049354 0.005747
v -0.058161 0.031943 -0.000346
v -0.065990 0.037169 0.037065
f 789 802 806 
f 784 780 785 
f 780 784 786 
f 785 783 788 
f 783 787 788 
f 780 786 790 
f 782 788 792 
f 788 787 792 
f 786 784 793 
f 782 789 793 
f 784 785 794 
f 793 784 794 
f 789 782 795 
f 782 792 795 
f 792 787 795 
f 786 779 796 
f 790 786 796 
f 780 781 797 
f 783 785 797 
f 785 780 797 
f 788 782 798 
f 785 788 798 
f 782 793 798 
f 794 785 798 
f 793 794 798 
f 790 796 800 
f 781 780 801 
f 780 790 801 
f 789 795 802 
f 795 787 802 
f 796 779 802 
f 787 800 802 
f 800 796 802 
f 797 781 803 
f 783 797 803 
f 799 783 803 
f 791 799 803 
f 781 801 803 
f 801 791 803 
f 787 783 804 
f 783 799 804 
f 799 791 804 
f 800 787 804 
f 800 804 805 
f 790 800 805 
f 801 790 805 
f 791 801 805 
f 804 791 805 
f 779 786 806 
f 786 793 806 
f 793 789 806 
f 802 779 806 
o convex_35
v -0.067729 0.011072 0.044903
v -0.060771 0.049354 0.066657
v -0.067729 0.049354 0.066657
v -0.063381 0.004105 0.066657
v -0.059029 0.039778 0.040551
v -0.065989 0.049354 0.045774
v -0.069471 0.004105 0.066657
v -0.060771 0.009331 0.040551
v -0.066861 0.024993 0.040551
v -0.067729 0.048481 0.054470
v -0.061640 0.004105 0.051866
v -0.068599 0.004105 0.050998
v -0.059901 0.049354 0.044903
v -0.065989 0.008459 0.040551
v -0.069471 0.019771 0.064911
v -0.065119 0.039778 0.040551
v -0.059029 0.035428 0.042297
v -0.061640 0.004105 0.047515
v -0.068599 0.014554 0.051866
f 818 821 825 
f 808 809 810 
f 809 808 812 
f 810 809 813 
f 811 814 815 
f 812 815 816 
f 809 812 816 
f 808 810 817 
f 810 813 817 
f 817 813 818 
f 808 811 819 
f 812 808 819 
f 815 814 820 
f 807 815 820 
f 818 807 820 
f 813 809 821 
f 809 816 821 
f 818 813 821 
f 811 815 822 
f 815 812 822 
f 819 811 822 
f 812 819 822 
f 811 808 823 
f 814 811 823 
f 808 817 823 
f 817 814 823 
f 814 817 824 
f 817 818 824 
f 820 814 824 
f 818 820 824 
f 815 807 825 
f 816 815 825 
f 807 818 825 
f 821 816 825 
o convex_36
v -0.059031 0.049354 0.078837
v -0.069470 0.004105 0.066657
v -0.062511 0.004105 0.066657
v -0.067729 0.049354 0.066657
v -0.066859 0.004105 0.078837
v -0.067729 0.049354 0.077097
v -0.056420 0.025866 0.071879
v -0.057291 0.004105 0.076227
v -0.060771 0.049354 0.066657
v -0.056420 0.049354 0.077097
v -0.069470 0.016290 0.075357
v -0.057291 0.004105 0.071009
v -0.060771 0.004105 0.078837
v -0.056420 0.049354 0.071009
v -0.065989 0.049354 0.078837
v -0.069470 0.023253 0.067528
v -0.068599 0.010200 0.077967
v -0.069470 0.004105 0.075357
f 842 836 843 
f 828 827 829 
f 827 828 830 
f 826 829 831 
f 830 828 833 
f 828 829 834 
f 829 826 834 
f 833 832 835 
f 834 826 835 
f 833 828 837 
f 832 833 837 
f 828 834 837 
f 826 830 838 
f 830 833 838 
f 835 826 838 
f 833 835 838 
f 835 832 839 
f 834 835 839 
f 832 837 839 
f 837 834 839 
f 830 826 840 
f 826 831 840 
f 829 827 841 
f 831 829 841 
f 827 836 841 
f 836 831 841 
f 831 836 842 
f 830 840 842 
f 840 831 842 
f 827 830 843 
f 836 827 843 
f 830 842 843 
o convex_37
v -0.050326 0.051095 -0.015126
v -0.039888 0.065887 0.036200
v -0.050326 0.065887 0.036200
v -0.057288 0.049354 0.030101
v -0.039888 0.049354 -0.004692
v -0.063379 0.062405 0.036200
v -0.039888 0.060665 0.005753
v -0.039888 0.059796 0.036200
v -0.063379 0.049354 0.024878
v -0.058158 0.058925 0.009222
v -0.039888 0.049354 -0.021231
v -0.064247 0.052838 0.036200
v -0.054679 0.049354 -0.007306
v -0.057288 0.062405 0.019661
v -0.048585 0.056318 -0.005558
v -0.060767 0.056318 0.014439
v -0.045979 0.065015 0.026621
v -0.059026 0.065017 0.034458
v -0.040758 0.052835 -0.016008
v -0.058158 0.052838 0.036200
v -0.064247 0.059792 0.035318
v -0.061638 0.061532 0.024878
f 864 849 865 
f 845 846 849 
f 845 848 850 
f 847 848 851 
f 848 845 851 
f 845 849 851 
f 848 847 852 
f 850 848 854 
f 848 852 854 
f 851 849 855 
f 852 847 855 
f 853 844 856 
f 844 854 856 
f 854 852 856 
f 853 857 858 
f 844 853 858 
f 857 850 858 
f 856 852 859 
f 853 856 859 
f 846 845 860 
f 845 850 860 
f 850 857 860 
f 860 857 861 
f 849 846 861 
f 846 860 861 
f 854 844 862 
f 850 854 862 
f 844 858 862 
f 858 850 862 
f 847 851 863 
f 855 847 863 
f 851 855 863 
f 855 849 864 
f 852 855 864 
f 859 852 864 
f 859 864 865 
f 857 853 865 
f 853 859 865 
f 861 857 865 
f 849 861 865 
o convex_38
v 0.067144 -0.057675 0.035329
v 0.053225 -0.065509 0.037069
v 0.053225 -0.065509 0.040550
v 0.061055 -0.045495 0.036199
v 0.054096 -0.056805 0.024891
v 0.063664 -0.061156 0.024891
v 0.068885 -0.045495 0.040550
v 0.064535 -0.051590 0.024891
v 0.065404 -0.063765 0.040550
v 0.053225 -0.059414 0.040550
v 0.061055 -0.045495 0.030980
v 0.056706 -0.062896 0.024891
v 0.067144 -0.045495 0.031851
v 0.062795 -0.045495 0.040550
v 0.065404 -0.055069 0.024891
v 0.062795 -0.063765 0.031851
v 0.067144 -0.062026 0.039679
f 881 871 882 
f 871 870 873 
f 868 867 874 
f 872 868 874 
f 867 868 875 
f 869 870 875 
f 870 867 875 
f 868 872 875 
f 870 869 876 
f 869 872 876 
f 873 870 876 
f 867 870 877 
f 870 871 877 
f 876 872 878 
f 873 876 878 
f 872 869 879 
f 869 875 879 
f 875 872 879 
f 872 866 880 
f 871 873 880 
f 878 872 880 
f 873 878 880 
f 874 867 881 
f 867 877 881 
f 877 871 881 
f 866 872 882 
f 872 874 882 
f 880 866 882 
f 871 880 882 
f 874 881 882 
o convex_39
v -0.059030 0.067628 0.061435
v -0.065118 0.049354 0.044903
v -0.059901 0.049354 0.044903
v -0.059030 0.049354 0.078839
v -0.066859 0.061535 0.076226
v -0.053808 0.065885 0.078839
v -0.053808 0.059795 0.036200
v -0.063379 0.063274 0.037073
v -0.067731 0.049354 0.077094
v -0.053808 0.054575 0.073618
v -0.053808 0.065885 0.038813
v -0.064250 0.066757 0.072741
v -0.067731 0.050225 0.057954
v -0.064250 0.052835 0.036200
v -0.065989 0.063274 0.053605
v -0.056419 0.049354 0.071005
v -0.064250 0.061535 0.078839
v -0.053808 0.067628 0.077094
v -0.058160 0.052835 0.036200
v -0.059901 0.065016 0.036200
v -0.065118 0.065885 0.058822
v -0.065118 0.059795 0.040558
v -0.064250 0.065885 0.077094
v -0.053808 0.067628 0.053605
f 893 902 906 
f 884 885 886 
f 884 886 891 
f 888 886 892 
f 889 888 892 
f 888 889 893 
f 884 891 895 
f 891 887 895 
f 885 884 896 
f 884 895 896 
f 895 887 897 
f 886 885 898 
f 892 886 898 
f 889 892 898 
f 886 888 899 
f 891 886 899 
f 887 891 899 
f 888 893 900 
f 883 894 900 
f 885 896 901 
f 896 889 901 
f 898 885 901 
f 889 898 901 
f 893 889 902 
f 889 896 902 
f 896 890 902 
f 894 883 903 
f 887 894 903 
f 897 887 903 
f 890 897 903 
f 883 902 903 
f 902 890 903 
f 890 896 904 
f 896 895 904 
f 895 897 904 
f 897 890 904 
f 894 887 905 
f 899 888 905 
f 887 899 905 
f 900 894 905 
f 888 900 905 
f 883 900 906 
f 900 893 906 
f 902 883 906 
o convex_40
v -0.053808 0.062407 0.037073
v -0.039885 0.066755 0.078839
v -0.049455 0.067626 0.077967
v -0.053808 0.055445 0.075354
v -0.039885 0.059797 0.036200
v -0.039885 0.066755 0.036200
v -0.039885 0.056317 0.074482
v -0.053808 0.068496 0.069265
v -0.039885 0.069368 0.074482
v -0.053808 0.058926 0.038813
v -0.053808 0.065886 0.038813
v -0.053808 0.058926 0.078839
v -0.041628 0.068496 0.050996
v -0.052065 0.055445 0.071005
v -0.039885 0.058056 0.077967
v -0.053808 0.065886 0.078839
v -0.052937 0.067626 0.050996
v -0.040756 0.069368 0.062303
f 923 914 924 
f 908 911 912 
f 911 907 912 
f 911 908 913 
f 907 910 914 
f 909 908 915 
f 908 912 915 
f 914 909 915 
f 910 907 916 
f 907 911 916 
f 912 907 917 
f 907 914 917 
f 914 910 918 
f 913 910 920 
f 911 913 920 
f 910 916 920 
f 916 911 920 
f 913 908 921 
f 910 913 921 
f 908 918 921 
f 918 910 921 
f 908 909 922 
f 909 914 922 
f 918 908 922 
f 914 918 922 
f 912 917 923 
f 917 914 923 
f 919 912 923 
f 919 923 924 
f 915 912 924 
f 914 915 924 
f 912 919 924 
o convex_41
v -0.007694 0.066756 0.030109
v -0.039884 0.050224 -0.004698
v -0.039884 0.057184 -0.004698
v 0.004486 0.058058 -0.004698
v 0.004486 0.059794 0.028368
v -0.039884 0.058056 0.021404
v 0.004486 0.051967 -0.002084
v -0.039884 0.062405 0.012702
v 0.004486 0.065013 0.019666
v -0.025954 0.059794 0.030109
v -0.026827 0.065884 0.030109
v -0.013779 0.060665 0.002266
v -0.038142 0.050224 -0.002953
v 0.004486 0.066756 0.030109
v -0.039884 0.056318 0.019660
v 0.004486 0.051967 -0.004698
v -0.025085 0.065013 0.021404
v -0.039884 0.063277 0.020535
v 0.003617 0.058925 -0.003825
v 0.000134 0.059794 0.029237
v -0.028569 0.058058 -0.004698
v -0.009435 0.063274 0.011837
v -0.039011 0.061534 0.008355
f 941 946 947 
f 926 927 928 
f 927 926 930 
f 928 929 931 
f 927 930 932 
f 929 928 933 
f 934 925 935 
f 930 934 935 
f 933 925 938 
f 929 933 938 
f 925 934 938 
f 930 926 939 
f 934 930 939 
f 926 937 939 
f 926 928 940 
f 928 931 940 
f 937 926 940 
f 931 937 940 
f 925 933 941 
f 935 925 941 
f 932 935 941 
f 932 930 942 
f 935 932 942 
f 930 935 942 
f 933 928 943 
f 931 929 944 
f 937 931 944 
f 929 938 944 
f 938 934 944 
f 934 939 944 
f 939 937 944 
f 928 927 945 
f 943 928 945 
f 936 943 945 
f 941 933 946 
f 933 943 946 
f 943 936 946 
f 927 932 947 
f 932 941 947 
f 945 927 947 
f 936 945 947 
f 946 936 947 
o convex_42
v -0.049456 0.041524 -0.021226
v -0.039886 0.049353 -0.007310
v -0.050326 0.049353 0.003134
v -0.050326 0.038043 -0.000349
v -0.040757 0.038043 -0.022971
v -0.041627 0.049353 -0.022971
v -0.051196 0.049353 -0.015139
v -0.051196 0.038043 -0.017748
v -0.047716 0.046742 -0.022971
v -0.051196 0.048483 0.003134
v -0.039886 0.038913 -0.022100
v -0.039886 0.049353 -0.022971
v -0.048586 0.038043 -0.022971
f 956 952 960 
f 949 950 951 
f 950 949 953 
f 950 953 954 
f 954 948 955 
f 952 951 955 
f 953 952 956 
f 954 953 956 
f 948 954 956 
f 951 950 957 
f 950 954 957 
f 954 955 957 
f 955 951 957 
f 949 951 958 
f 951 952 958 
f 953 949 959 
f 952 953 959 
f 949 958 959 
f 958 952 959 
f 955 948 960 
f 952 955 960 
f 948 956 960 
o convex_43
v 0.037560 0.050227 -0.022094
v 0.061925 0.056315 0.015313
v 0.061925 0.050227 0.015313
v 0.037560 0.060663 0.013570
v 0.054088 0.041522 0.008354
v 0.048875 0.041522 -0.022098
v 0.038431 0.041522 -0.022098
v 0.054093 0.058052 -0.000352
v 0.039306 0.056315 0.015313
v 0.060184 0.041522 0.004003
v 0.045392 0.062407 0.011831
v 0.053218 0.051965 -0.010785
v 0.058438 0.061536 0.015313
v 0.037560 0.060663 0.003999
v 0.046268 0.048485 -0.022971
v 0.037560 0.055444 0.011831
v 0.059314 0.055444 0.004868
v 0.046268 0.053704 -0.014266
v 0.039306 0.062407 0.015313
v 0.054959 0.043264 -0.009915
v 0.056702 0.049356 0.015313
v 0.037560 0.042393 -0.022971
v 0.060184 0.041522 0.009223
v 0.041047 0.057186 -0.006434
f 968 978 984 
f 966 965 967 
f 963 962 969 
f 962 963 970 
f 965 966 970 
f 969 962 973 
f 968 971 973 
f 961 964 974 
f 971 968 974 
f 972 966 975 
f 968 972 975 
f 964 961 976 
f 967 965 976 
f 969 964 976 
f 965 969 976 
f 962 970 977 
f 972 968 977 
f 973 962 977 
f 968 973 977 
f 975 961 978 
f 968 975 978 
f 964 969 979 
f 969 973 979 
f 973 971 979 
f 974 964 979 
f 971 974 979 
f 970 966 980 
f 966 972 980 
f 977 970 980 
f 972 977 980 
f 963 969 981 
f 969 965 981 
f 966 967 982 
f 961 975 982 
f 975 966 982 
f 976 961 982 
f 967 976 982 
f 970 963 983 
f 965 970 983 
f 963 981 983 
f 981 965 983 
f 961 974 984 
f 974 968 984 
f 978 961 984 
o convex_44
v 0.041041 -0.057678 0.024891
v 0.053223 -0.059418 0.040550
v 0.053223 -0.065509 0.040550
v 0.051481 -0.057678 0.024891
v 0.041041 -0.065509 0.032720
v 0.041041 -0.059418 0.037939
v 0.048872 -0.063768 0.024891
v 0.053223 -0.064638 0.031851
v 0.041041 -0.063768 0.024891
v 0.041041 -0.064638 0.037939
v 0.047132 -0.056807 0.025760
f 985 990 995 
f 987 986 990 
f 985 989 990 
f 985 988 991 
f 989 991 992 
f 986 987 992 
f 988 986 992 
f 987 989 992 
f 991 988 992 
f 989 985 993 
f 985 991 993 
f 991 989 993 
f 989 987 994 
f 987 990 994 
f 990 989 994 
f 986 988 995 
f 988 985 995 
f 990 986 995 
o convex_45
v 0.038424 0.064146 0.077967
v 0.004498 0.064146 0.063177
v 0.004498 0.058058 0.071876
v 0.054089 0.056315 0.068398
v 0.054089 0.068496 0.063177
v 0.004498 0.070238 0.076227
v 0.054089 0.068496 0.075357
v 0.004498 0.070238 0.063177
v 0.054089 0.058928 0.077097
v 0.004498 0.060668 0.077967
v 0.054089 0.062407 0.063177
v 0.034944 0.070238 0.071006
v 0.051477 0.056315 0.073616
v 0.012333 0.068496 0.077967
v 0.004498 0.058058 0.075357
v 0.051477 0.067626 0.077097
v 0.027993 0.070238 0.063177
v 0.047128 0.069367 0.075357
f 1009 1011 1013 
f 998 997 999 
f 997 998 1001 
f 999 1000 1002 
f 1000 997 1003 
f 997 1001 1003 
f 999 1002 1004 
f 1001 998 1005 
f 1004 996 1005 
f 999 997 1006 
f 1000 999 1006 
f 997 1000 1006 
f 1003 1001 1007 
f 998 999 1008 
f 999 1004 1008 
f 1005 996 1009 
f 1001 1005 1009 
f 1005 998 1010 
f 1004 1005 1010 
f 998 1008 1010 
f 1008 1004 1010 
f 996 1004 1011 
f 1004 1002 1011 
f 1009 996 1011 
f 1000 1003 1012 
f 1007 1000 1012 
f 1003 1007 1012 
f 1002 1000 1013 
f 1000 1007 1013 
f 1007 1001 1013 
f 1001 1009 1013 
f 1011 1002 1013 
o convex_46
v 0.068884 0.060663 0.074487
v 0.054094 0.055443 0.069269
v 0.056706 0.042396 0.071006
v 0.069755 0.041522 0.062307
v 0.054094 0.068498 0.062307
v 0.054094 0.066752 0.077099
v 0.066275 0.041522 0.077099
v 0.068015 0.065884 0.062307
v 0.063665 0.066752 0.076227
v 0.064535 0.041522 0.062307
v 0.070627 0.041522 0.073616
v 0.059316 0.041522 0.076227
v 0.054094 0.062404 0.062307
v 0.054094 0.058923 0.077099
v 0.065404 0.067626 0.073616
v 0.069755 0.054577 0.062307
v 0.064535 0.064146 0.077099
v 0.054094 0.068498 0.075357
v 0.068884 0.064146 0.072746
v 0.057575 0.041522 0.069269
v 0.061057 0.068498 0.065788
f 1031 1028 1034 
f 1018 1015 1019 
f 1017 1018 1021 
f 1018 1017 1023 
f 1017 1020 1023 
f 1020 1017 1024 
f 1014 1020 1024 
f 1023 1020 1025 
f 1016 1015 1026 
f 1015 1018 1026 
f 1018 1023 1026 
f 1015 1016 1027 
f 1019 1015 1027 
f 1020 1019 1027 
f 1016 1025 1027 
f 1025 1020 1027 
f 1017 1021 1029 
f 1024 1017 1029 
f 1020 1014 1030 
f 1019 1020 1030 
f 1022 1019 1030 
f 1018 1019 1031 
f 1019 1022 1031 
f 1022 1028 1031 
f 1014 1024 1032 
f 1021 1028 1032 
f 1028 1022 1032 
f 1029 1021 1032 
f 1024 1029 1032 
f 1030 1014 1032 
f 1022 1030 1032 
f 1025 1016 1033 
f 1023 1025 1033 
f 1016 1026 1033 
f 1026 1023 1033 
f 1021 1018 1034 
f 1028 1021 1034 
f 1018 1031 1034 
o convex_47
v 0.068886 -0.045495 0.041422
v 0.071497 0.004105 0.063176
v 0.071497 0.004105 0.052731
v 0.064536 0.004105 0.050125
v 0.064536 -0.045495 0.063176
v 0.070626 -0.045495 0.063176
v 0.062795 -0.045495 0.041422
v 0.068886 0.004105 0.041422
v 0.065406 0.004105 0.063176
v 0.064536 0.004105 0.041422
v 0.070626 -0.015913 0.042292
v 0.071497 -0.030701 0.060565
v 0.062795 -0.037659 0.044032
v 0.069756 -0.045495 0.045776
v 0.070626 0.004105 0.044032
f 1045 1042 1049 
f 1036 1037 1038 
f 1036 1039 1040 
f 1039 1035 1040 
f 1035 1039 1041 
f 1038 1037 1042 
f 1035 1041 1042 
f 1036 1038 1043 
f 1039 1036 1043 
f 1038 1042 1044 
f 1042 1041 1044 
f 1035 1042 1045 
f 1037 1036 1046 
f 1036 1040 1046 
f 1045 1037 1046 
f 1041 1039 1047 
f 1043 1038 1047 
f 1039 1043 1047 
f 1038 1044 1047 
f 1044 1041 1047 
f 1040 1035 1048 
f 1035 1045 1048 
f 1046 1040 1048 
f 1045 1046 1048 
f 1042 1037 1049 
f 1037 1045 1049 
o convex_48
v 0.050608 0.063276 0.027499
v 0.009722 0.058927 0.015316
v 0.004498 0.058057 0.016188
v 0.054089 0.055445 0.015316
v 0.054089 0.062406 0.015316
v 0.004498 0.065887 0.024018
v 0.004498 0.059796 0.027499
v 0.054089 0.058057 0.025758
v 0.011459 0.064146 0.016188
v 0.037555 0.065887 0.027499
v 0.004498 0.065887 0.027499
v 0.054089 0.064146 0.021408
v 0.004498 0.058057 0.021408
v 0.047997 0.058057 0.026627
v 0.004498 0.063276 0.016188
v 0.023643 0.064146 0.016188
v 0.053215 0.055445 0.017057
v 0.011459 0.057187 0.015316
f 1066 1062 1067 
f 1053 1051 1054 
f 1055 1052 1056 
f 1053 1054 1057 
f 1054 1051 1058 
f 1056 1050 1059 
f 1056 1059 1060 
f 1055 1056 1060 
f 1059 1055 1060 
f 1050 1057 1061 
f 1057 1054 1061 
f 1059 1050 1061 
f 1056 1052 1062 
f 1050 1056 1063 
f 1057 1050 1063 
f 1056 1062 1063 
f 1051 1052 1064 
f 1052 1055 1064 
f 1058 1051 1064 
f 1055 1058 1064 
f 1054 1058 1065 
f 1058 1055 1065 
f 1055 1059 1065 
f 1061 1054 1065 
f 1059 1061 1065 
f 1053 1057 1066 
f 1057 1063 1066 
f 1063 1062 1066 
f 1052 1051 1067 
f 1051 1053 1067 
f 1062 1052 1067 
f 1053 1066 1067 
o convex_49
v -0.039016 -0.040274 -0.022971
v -0.038147 -0.052456 -0.016008
v -0.037275 -0.052456 -0.016008
v -0.047717 -0.051586 0.003134
v -0.047717 -0.046365 -0.022971
v -0.037275 -0.051586 0.001391
v -0.047717 -0.040274 -0.010785
v -0.047717 -0.052456 -0.013397
v -0.037275 -0.048105 -0.022971
v -0.047717 -0.040274 -0.022971
v -0.037275 -0.041144 -0.022100
v -0.037275 -0.052456 0.001391
f 1071 1075 1079 
f 1071 1073 1074 
f 1072 1071 1074 
f 1069 1070 1075 
f 1071 1072 1075 
f 1072 1069 1075 
f 1070 1069 1076 
f 1072 1068 1076 
f 1069 1072 1076 
f 1073 1070 1076 
f 1068 1072 1077 
f 1074 1068 1077 
f 1072 1074 1077 
f 1074 1073 1078 
f 1068 1074 1078 
f 1076 1068 1078 
f 1073 1076 1078 
f 1070 1073 1079 
f 1073 1071 1079 
f 1075 1070 1079 
o convex_50
v -0.005948 -0.051585 -0.003828
v -0.037275 -0.048975 -0.022971
v -0.032053 -0.049845 -0.022100
v -0.005948 -0.042886 -0.022971
v -0.037275 -0.051585 0.000523
v -0.037275 -0.041145 -0.022100
v -0.005948 -0.052455 -0.019489
v -0.037275 -0.052455 -0.016010
v -0.030311 -0.052455 0.000523
v -0.005948 -0.049845 -0.022971
v -0.030311 -0.051585 0.000523
v -0.005948 -0.042886 -0.022100
v -0.006819 -0.052455 -0.002959
v -0.037275 -0.041145 -0.022971
f 1085 1083 1093 
f 1081 1084 1085 
f 1083 1080 1086 
f 1081 1082 1087 
f 1084 1081 1087 
f 1082 1086 1087 
f 1084 1087 1088 
f 1087 1086 1088 
f 1082 1081 1089 
f 1081 1083 1089 
f 1086 1082 1089 
f 1083 1086 1089 
f 1085 1084 1090 
f 1084 1088 1090 
f 1080 1083 1091 
f 1083 1085 1091 
f 1090 1080 1091 
f 1085 1090 1091 
f 1086 1080 1092 
f 1088 1086 1092 
f 1080 1090 1092 
f 1090 1088 1092 
f 1083 1081 1093 
f 1081 1085 1093 
o convex_51
v 0.051477 0.068496 0.053600
v 0.004498 0.059796 0.027499
v 0.004498 0.059796 0.029241
v 0.004498 0.070238 0.063176
v 0.054089 0.062408 0.063176
v 0.049734 0.065015 0.027499
v 0.004498 0.066756 0.028375
v 0.054089 0.058926 0.033593
v 0.004498 0.064149 0.063176
v 0.054089 0.068496 0.063176
v 0.013202 0.069368 0.046640
v 0.049734 0.058926 0.027499
v 0.054089 0.066756 0.038814
v 0.042778 0.065886 0.027499
v 0.026250 0.070238 0.062299
v 0.047128 0.062408 0.063176
v 0.031468 0.068496 0.043169
v 0.004498 0.070238 0.055339
v 0.006241 0.068496 0.038814
v 0.053215 0.058926 0.034466
f 1098 1109 1113 
f 1095 1096 1097 
f 1095 1097 1100 
f 1097 1096 1102 
f 1098 1097 1102 
f 1097 1098 1103 
f 1098 1101 1103 
f 1096 1095 1105 
f 1095 1099 1105 
f 1099 1101 1105 
f 1101 1099 1106 
f 1094 1103 1106 
f 1103 1101 1106 
f 1099 1095 1107 
f 1095 1100 1107 
f 1106 1099 1107 
f 1103 1094 1108 
f 1097 1103 1108 
f 1102 1096 1109 
f 1098 1102 1109 
f 1094 1106 1110 
f 1106 1107 1110 
f 1108 1094 1110 
f 1104 1108 1110 
f 1100 1097 1111 
f 1097 1108 1111 
f 1108 1104 1111 
f 1107 1100 1112 
f 1104 1110 1112 
f 1110 1107 1112 
f 1100 1111 1112 
f 1111 1104 1112 
f 1101 1098 1113 
f 1096 1105 1113 
f 1105 1101 1113 
f 1109 1096 1113 
o convex_52
v 0.057575 0.065015 0.027505
v 0.068886 0.062405 0.062306
v 0.068886 0.053705 0.062306
v 0.054094 0.062405 0.062306
v 0.054965 0.053705 0.015316
v 0.062793 0.055447 0.017060
v 0.054094 0.068498 0.062306
v 0.066276 0.065887 0.049252
v 0.054094 0.062405 0.015316
v 0.062793 0.053705 0.059693
v 0.068016 0.053705 0.043153
v 0.062793 0.061534 0.022280
v 0.065404 0.067628 0.062306
v 0.066276 0.062405 0.037946
v 0.061923 0.053705 0.015316
v 0.054094 0.067628 0.046635
v 0.054094 0.054577 0.016190
v 0.059315 0.061534 0.015316
v 0.062793 0.065887 0.038811
f 1125 1131 1132 
f 1116 1115 1117 
f 1117 1115 1120 
f 1117 1120 1122 
f 1116 1117 1123 
f 1118 1116 1123 
f 1115 1116 1124 
f 1116 1118 1124 
f 1120 1115 1126 
f 1115 1121 1126 
f 1121 1115 1127 
f 1115 1124 1127 
f 1124 1119 1127 
f 1125 1121 1127 
f 1119 1125 1127 
f 1118 1122 1128 
f 1124 1118 1128 
f 1119 1124 1128 
f 1114 1122 1129 
f 1122 1120 1129 
f 1120 1126 1129 
f 1117 1122 1130 
f 1122 1118 1130 
f 1123 1117 1130 
f 1118 1123 1130 
f 1122 1114 1131 
f 1125 1119 1131 
f 1128 1122 1131 
f 1119 1128 1131 
f 1121 1125 1132 
f 1126 1121 1132 
f 1114 1129 1132 
f 1129 1126 1132 
f 1131 1114 1132 
