# Blender v3.6.23 OBJ File: ''
# www.blender.org
o collision_collision_mesh
v -0.000272 0.000812 -0.025300
v 0.001522 0.003285 -0.024571
v 0.004501 0.001826 -0.024037
v 0.012651 0.005061 -0.017940
v 0.003276 -0.001995 -0.024658
v 0.013097 0.008602 -0.014774
v 0.008444 -0.002893 -0.021623
v 0.017249 -0.000101 0.012374
v 0.005376 0.004639 -0.022890
v -0.016402 0.012120 -0.000371
v -0.000555 0.020976 0.001254
v -0.020436 0.000840 0.003059
v 0.020436 0.000889 0.001780
v -0.007917 0.019039 -0.000868
v 0.012785 0.003197 0.017153
v 0.012798 0.005588 0.016656
v -0.018823 0.008076 0.002841
v 0.008472 -0.000010 -0.022025
v 0.006752 0.019293 -0.001245
v -0.020079 0.004425 -0.001079
v -0.015684 -0.011437 0.010375
v -0.000494 0.005980 -0.024170
v 0.015455 0.011518 -0.006567
v -0.000205 -0.002433 -0.025143
v 0.000517 0.009463 -0.021966
v -0.011564 0.016217 -0.004377
v -0.001357 0.002701 -0.024928
v -0.014708 0.000882 -0.017898
v -0.002469 -0.012217 -0.019684
v -0.010762 0.003368 -0.021381
v 0.001083 -0.006431 -0.023892
v 0.005202 -0.005654 -0.022922
v 0.001660 0.013270 -0.018236
v 0.009070 0.003248 -0.021557
v 0.013243 0.015157 -0.002079
v 0.006319 0.012127 -0.018540
v 0.005110 0.009608 -0.020905
v -0.014403 0.008970 -0.014330
v 0.008160 0.007329 -0.020437
v 0.002204 -0.007559 -0.023180
v 0.012252 -0.000157 -0.019374
v 0.003688 0.014058 -0.016965
v 0.000707 0.020302 -0.004467
v 0.010748 0.017332 -0.000978
v 0.015636 0.008495 -0.011082
v 0.014888 0.000250 -0.016226
v 0.003672 0.017199 -0.012262
v -0.004705 0.015724 -0.014408
v 0.009987 0.012195 -0.014742
v 0.006644 0.015182 -0.013927
v -0.000868 0.014466 -0.016695
v -0.000286 0.017221 -0.012504
v -0.016225 -0.001369 -0.015482
v 0.004769 0.019069 -0.006107
v 0.016183 0.002858 -0.013603
v 0.010943 0.015529 -0.007706
v 0.019265 0.001021 -0.008231
v -0.007417 0.018007 -0.007700
v 0.002111 0.018854 -0.009402
v -0.003610 0.018481 -0.009216
v 0.007955 0.017300 -0.007386
v -0.001235 0.019349 -0.007709
v -0.004765 0.019918 -0.002023
v 0.012802 0.012842 -0.010092
v -0.011523 0.013618 -0.011801
v 0.018056 0.009893 -0.001838
v 0.015380 0.013615 -0.000270
v 0.018385 0.007512 -0.005367
v 0.020034 0.000304 -0.003815
v 0.015244 -0.010826 -0.008169
v 0.012602 -0.014081 -0.007654
v 0.017672 0.005155 -0.009913
v 0.011618 -0.013012 -0.011786
v 0.009788 -0.016714 -0.006378
v 0.017823 -0.002204 -0.011406
v 0.015054 -0.009003 -0.011138
v 0.019333 -0.003706 -0.006382
v 0.017905 -0.006351 -0.008531
v 0.019872 0.004096 -0.003241
v -0.017822 -0.001063 -0.012572
v -0.016159 0.006221 -0.013531
v -0.014148 0.004339 -0.017448
v -0.018063 -0.004956 -0.009903
v -0.018789 0.007473 -0.004111
v -0.020177 0.001587 -0.004619
v -0.003681 -0.003747 -0.024702
v -0.014491 0.014142 -0.003044
v -0.017395 0.003329 -0.012529
v -0.019068 0.003547 -0.008329
v -0.019109 -0.000710 -0.009010
v -0.016513 -0.003942 -0.013989
v -0.015995 -0.010579 -0.007227
v -0.016751 0.008575 -0.010394
v -0.014726 0.012054 -0.009593
v -0.017336 -0.010712 -0.002203
v -0.019810 -0.003487 -0.004360
v -0.018906 -0.007168 -0.002554
v -0.019988 -0.002786 0.001898
v -0.014402 -0.015717 0.001139
v -0.016939 0.010680 -0.005973
v -0.011593 0.010903 -0.015791
v -0.004945 0.002258 -0.024334
v -0.012975 -0.001428 -0.019581
v -0.007316 0.002551 -0.023557
v -0.012338 0.016421 0.000173
v -0.006356 0.006292 -0.022904
v -0.007722 -0.001992 -0.023350
v -0.002920 -0.006250 -0.023868
v -0.013481 -0.004626 -0.018173
v -0.013987 -0.007347 -0.015335
v -0.011682 0.008285 -0.017963
v -0.004711 -0.009402 -0.021614
v -0.003864 -0.008256 -0.022775
v -0.010980 -0.003546 -0.020891
v -0.004817 -0.000576 -0.024648
v -0.003854 0.014304 0.016972
v -0.007592 0.009708 -0.019856
v -0.005704 -0.003310 -0.024401
v -0.004161 0.011951 -0.019220
v -0.007961 -0.008551 -0.020887
v -0.010204 0.015819 -0.009356
v -0.007022 0.013220 -0.016849
v -0.005462 0.009176 -0.021197
v 0.012302 0.013695 0.011831
v 0.002409 0.001106 0.024977
v 0.014343 0.008463 0.014445
v 0.001644 0.000195 0.025300
v 0.014199 0.011817 0.011852
v -0.014476 0.006101 0.015330
v -0.001320 0.014112 0.017491
v 0.003105 -0.000660 0.025170
v 0.013812 0.014994 0.005110
v -0.016156 0.001710 0.015145
v 0.004018 0.012080 0.018066
v 0.012025 0.010804 0.015131
v 0.004860 0.016557 0.014365
v 0.001780 0.020878 0.004647
v 0.000160 -0.011924 0.019064
v 0.005546 0.018932 0.009336
v -0.003889 0.009012 0.019789
v -0.000538 0.015794 0.015977
v 0.008547 0.018680 0.004773
v -0.008194 0.008388 0.018346
v 0.010044 0.016492 0.009999
v -0.015453 0.011091 0.009034
v -0.000046 0.019502 0.009884
v 0.006957 0.015295 0.014605
v -0.002801 0.017727 0.013762
v 0.012951 -0.012209 0.012478
v 0.014450 -0.002664 0.014851
v 0.015171 0.002823 0.014912
v 0.015546 0.005148 0.014407
v 0.019965 -0.003246 0.001713
v 0.017953 0.006433 0.009796
v 0.017531 0.011757 0.002981
v 0.019366 0.007754 0.001010
v 0.019522 0.002185 0.007747
v 0.015877 -0.012619 0.001636
v 0.016714 0.008087 0.011259
v 0.015880 -0.010303 0.009718
v 0.015439 0.013263 0.007039
v 0.010232 -0.013626 0.014358
v 0.003004 -0.020376 0.001250
v 0.020161 0.005508 0.003886
v 0.019189 -0.001266 0.007572
v 0.017675 0.009655 0.008186
v 0.013624 -0.009327 0.013949
v 0.009333 -0.018489 0.003704
v -0.020033 0.003504 0.004917
v -0.019432 -0.000583 0.008858
v -0.010417 0.014781 0.011620
v -0.018273 0.003401 0.010716
v -0.017598 0.006611 0.009159
v -0.019014 -0.008083 0.002819
v -0.000310 -0.020976 0.001610
v -0.016800 0.011445 0.004133
v -0.018477 -0.004049 0.011384
v -0.001376 0.010240 0.020153
v -0.014546 -0.002826 0.016820
v -0.008845 0.018421 0.006203
v -0.013726 0.014285 0.005949
v -0.011636 0.012180 0.013298
v -0.011488 0.003301 0.018599
v -0.012035 0.009392 0.015593
v -0.004746 0.020029 0.006193
v 0.004050 -0.017906 0.013439
v -0.015170 -0.005668 0.015796
v -0.000946 -0.020924 0.007588
v -0.008013 0.015234 0.013893
v -0.005999 0.018206 0.011624
v -0.016639 -0.007638 0.012527
v -0.016871 -0.012309 0.004395
v -0.003811 -0.020773 0.001162
v -0.019228 -0.006662 0.007492
v -0.018205 -0.009212 0.007700
v -0.014233 -0.010684 -0.010628
v -0.013297 -0.016253 0.006022
v -0.004611 -0.017835 0.013337
v -0.001481 -0.018595 0.013770
v -0.015257 -0.013769 -0.002944
v -0.005575 -0.020255 0.004695
v -0.012436 -0.014466 0.011125
v -0.002824 -0.014747 0.016937
v -0.011761 -0.007084 0.017434
v -0.013547 -0.010161 0.015187
v -0.011304 -0.017831 0.005491
v -0.008981 -0.013257 0.016070
v -0.009406 -0.018859 0.002632
v -0.002933 -0.020313 0.009185
v -0.007484 -0.018331 0.009453
v -0.011656 -0.014646 -0.008603
v -0.007252 -0.019286 -0.001622
v -0.008178 -0.016342 0.013484
v -0.009294 -0.009929 0.017866
v -0.005737 -0.013376 0.017400
v -0.002961 -0.019553 -0.005341
v -0.004097 -0.011673 0.018999
v -0.017635 -0.008136 -0.006638
v -0.011990 -0.009971 -0.015318
v -0.008777 -0.014055 -0.013522
v -0.005861 -0.015557 -0.013927
v 0.000694 -0.011217 -0.020515
v -0.009799 -0.017014 -0.005987
v -0.009984 -0.008872 -0.018738
v -0.009019 -0.011511 -0.017036
v -0.006280 -0.011760 -0.018419
v -0.005644 -0.006369 -0.023284
v 0.002333 -0.020381 0.008436
v 0.007224 -0.018207 0.010197
v 0.014210 -0.014208 0.005280
v 0.008140 -0.018374 -0.002864
v 0.006150 -0.012917 0.017829
v 0.001789 -0.017254 0.015312
v 0.008680 -0.016653 0.011772
v 0.011246 -0.016192 0.009114
v 0.011214 -0.016717 -0.002086
v 0.015064 -0.012607 0.007632
v 0.017944 -0.004578 0.009296
v 0.017403 -0.009474 0.004767
v 0.017566 -0.007773 0.008124
v 0.019263 -0.005886 0.002901
v 0.018784 -0.006550 -0.003323
v 0.018261 -0.008341 -0.000675
v 0.002314 -0.014318 -0.017270
v 0.005350 -0.011273 -0.019760
v -0.000582 -0.016982 -0.012350
v 0.003948 -0.015047 -0.015822
v 0.007958 -0.013470 -0.015775
v 0.005650 -0.013853 -0.016671
v 0.002010 -0.018796 -0.006870
v 0.005304 -0.017414 -0.009613
v 0.003973 -0.019500 -0.002530
v 0.009102 -0.015717 -0.010820
v 0.007879 -0.006225 -0.020963
v 0.012058 -0.009281 -0.015570
v 0.011728 -0.006037 -0.018244
v 0.015424 -0.005807 -0.013858
v -0.002921 -0.015821 -0.015168
vn -0.0327 -0.9815 -0.1884
vn 0.5363 0.7368 -0.4117
vn 0.1554 -0.9703 -0.1851
vn 0.6127 0.7151 0.3366
vn -0.2403 -0.9479 -0.2092
vn -0.2279 -0.9099 -0.3465
vn -0.0361 -0.9342 -0.3549
vn 0.0415 -0.9425 -0.3316
vn -0.7760 -0.1473 -0.6133
vn 0.8589 -0.2803 -0.4287
vn 0.2712 -0.2924 -0.9170
vn 0.2767 -0.9606 0.0252
vn 0.3541 -0.9223 0.1550
vn -0.2096 -0.9715 0.1107
vn -0.7644 -0.4525 0.4594
vn -0.3789 -0.9220 0.0799
vn 0.5666 -0.2513 -0.7847
vn -0.5231 -0.8513 -0.0413
vn -0.2729 0.9620 -0.0123
vn -0.3040 -0.8989 -0.3157
vn -0.6622 -0.5074 -0.5514
vn -0.3173 -0.7386 -0.5947
vn 0.0507 -0.8677 -0.4945
vn 0.0615 -0.9038 -0.4235
vn 0.1065 -0.9211 -0.3744
vn 0.3222 -0.9089 -0.2647
vn 0.4925 -0.8640 -0.1045
vn 0.3572 -0.8980 -0.2568
vn 0.5004 -0.8496 -0.1668
vn -0.0462 -0.5695 0.8207
vn 0.2305 0.1174 -0.9660
vn 0.6383 -0.7635 0.0985
vn 0.4807 -0.8553 0.1932
vn 0.4928 -0.8024 0.3365
vn -0.2683 -0.8710 0.4115
vn 0.7698 0.6191 -0.1556
vn -0.0885 -0.6514 0.7536
vn -0.1977 -0.6633 0.7217
vn -0.2594 -0.6851 0.6807
vn -0.2607 -0.6896 0.6756
vn -0.6115 -0.7896 0.0516
vn -0.9467 0.1402 0.2898
vn -0.7576 -0.6449 0.1005
vn 0.0409 -0.7122 -0.7008
vn -0.6007 -0.6667 -0.4412
vn -0.6120 -0.5744 -0.5435
vn -0.2917 -0.7331 -0.6143
vn 0.4424 0.8959 -0.0407
vn 0.1796 -0.9836 0.0161
vn -0.1601 -0.6417 -0.7501
vn 0.2165 -0.7516 -0.6231
vn 0.1075 -0.6915 -0.7143
vn 0.2174 -0.7387 -0.6380
vn 0.3244 -0.8099 -0.4887
vn 0.5708 -0.6902 -0.4448
vn -0.2939 0.6488 -0.7019
vn 0.7109 -0.6740 0.2008
vn 0.4811 0.8502 -0.2139
vn 0.2778 0.3692 -0.8869
vn 0.3818 0.8541 -0.3531
vn 0.3265 -0.6982 0.6371
vn 0.7242 -0.5859 0.3637
vn -0.3063 -0.6571 0.6887
vn -0.1048 0.9894 0.1007
vn -0.5354 -0.7649 0.3582
vn 0.0778 -0.5579 0.8263
vn 0.9487 -0.2172 0.2298
vn 0.1914 0.1807 0.9647
vn -0.1217 0.9491 0.2905
vn 0.2456 -0.9563 -0.1588
vn -0.7728 -0.5879 0.2391
vn -0.8979 -0.4376 0.0477
vn -0.8293 -0.5071 -0.2349
vn -0.6547 -0.6352 -0.4097
vn -0.1296 0.6149 -0.7779
vn 0.0385 0.8326 -0.5526
vn -0.5223 -0.3157 -0.7921
vn -0.6158 0.7541 -0.2285
vn -0.1744 -0.4067 -0.8967
vn -0.0265 -0.4688 -0.8829
vn 0.0043 -0.5307 -0.8476
vn 0.0143 -0.5925 -0.8054
vn 0.1189 -0.6162 -0.7786
vn 0.3566 -0.6997 -0.6190
vn 0.6276 -0.5895 -0.5085
vn 0.5744 0.0119 -0.8185
vn 0.7527 -0.6373 -0.1651
vn 0.8260 -0.5426 -0.1525
vn 0.9290 0.1901 0.3174
vn 0.8102 0.5015 -0.3034
vn 0.6543 -0.4591 0.6009
vn 0.7515 -0.4304 0.5001
vn 0.6777 0.6913 -0.2504
vn 0.0963 -0.4937 0.8643
vn -0.4566 -0.4554 0.7643
vn -0.9330 -0.1623 -0.3212
vn -0.3048 -0.3274 0.8944
vn -0.8076 -0.4310 0.4024
vn 0.6683 -0.7437 -0.0186
vn -0.9278 -0.3667 0.0691
vn -0.8153 0.2908 0.5008
vn -0.9075 -0.4107 -0.0882
vn -0.9838 -0.1793 0.0095
vn -0.6820 -0.6467 0.3415
vn -0.3205 0.9329 -0.1644
vn -0.7915 -0.4745 -0.3852
vn -0.8021 -0.4327 -0.4116
vn 0.7664 0.4427 0.4655
vn -0.6790 -0.2032 -0.7055
vn 0.2084 0.9742 -0.0861
vn -0.5405 -0.1707 -0.8238
vn -0.5186 -0.3022 -0.7998
vn -0.5859 -0.0517 -0.8088
vn -0.3297 -0.9437 -0.0262
vn 0.7290 -0.5615 -0.3914
vn 0.4749 -0.4220 -0.7723
vn 0.5325 -0.4392 -0.7235
vn 0.7101 -0.4036 -0.5770
vn 0.7901 -0.4986 -0.3567
vn 0.8413 -0.5138 -0.1682
vn -0.0411 -0.4678 0.8829
vn -0.8155 -0.4644 -0.3454
vn 0.5625 -0.3737 0.7375
vn 0.5536 -0.3223 0.7679
vn 0.2723 -0.8963 0.3499
vn 0.6442 -0.1805 0.7433
vn 0.6589 -0.1053 0.7449
vn -0.4044 -0.2156 0.8888
vn -0.4352 -0.1567 0.8866
vn -0.4900 -0.1980 0.8489
vn -0.7845 -0.0502 0.6180
vn -0.8088 -0.0563 0.5854
vn -0.8165 -0.2526 0.5192
vn 0.6286 -0.7035 -0.3315
vn -0.3429 0.3336 0.8781
vn -0.3798 0.2896 0.8785
vn -0.4596 -0.0283 0.8876
vn -0.9656 -0.0875 0.2450
vn -0.9507 -0.1813 -0.2516
vn -0.0007 0.9595 -0.2817
vn -0.0554 0.7426 -0.6675
vn -0.8715 -0.1695 -0.4602
vn -0.6731 0.0334 -0.7388
vn -0.8718 0.0671 -0.4853
vn -0.4613 0.0010 -0.8872
vn -0.0946 0.6897 0.7179
vn -0.3640 0.0340 -0.9308
vn -0.5004 0.5630 -0.6578
vn 0.1640 -0.2460 -0.9553
vn 0.4066 0.2337 -0.8832
vn -0.8927 -0.4132 -0.1798
vn -0.4825 0.3524 0.8019
vn -0.8992 0.3544 0.2565
vn 0.9181 -0.3587 -0.1687
vn 0.8555 -0.4914 -0.1632
vn 0.9670 -0.1733 0.1866
vn -0.3327 -0.4551 0.8259
vn 0.9387 -0.2110 0.2727
vn -0.2063 0.9526 -0.2235
vn 0.9072 -0.1335 0.3989
vn 0.2580 0.7971 -0.5460
vn 0.5091 0.3103 0.8028
vn 0.3695 0.4558 0.8098
vn 0.1532 0.5104 0.8462
vn 0.7096 -0.1011 0.6973
vn 0.6732 -0.0967 0.7331
vn -0.6096 0.0751 0.7892
vn -0.6266 0.2080 0.7510
vn 0.1252 0.5610 0.8183
vn -0.3422 0.4434 0.8284
vn 0.4797 -0.1571 -0.8632
vn -0.5921 -0.7685 -0.2426
vn -0.7515 0.5283 -0.3952
vn -0.1540 -0.5935 0.7900
vn -0.9973 0.0683 -0.0270
vn -0.8737 0.0896 -0.4781
vn -0.7167 0.2030 -0.6672
vn -0.5851 -0.0340 -0.8103
vn -0.6721 0.3336 -0.6610
vn -0.5307 0.4145 -0.7393
vn -0.2768 0.2337 -0.9321
vn -0.3001 0.0916 -0.9495
vn 0.8680 -0.4586 0.1903
vn 0.0404 0.2149 -0.9758
vn 0.0963 0.2164 -0.9715
vn 0.6338 -0.6393 0.4354
vn 0.1433 -0.0448 -0.9887
vn 0.5669 -0.1192 -0.8151
vn -0.3835 0.8159 -0.4327
vn 0.8083 -0.1509 -0.5692
vn 0.3311 -0.8282 -0.4520
vn 0.8048 0.1717 -0.5682
vn 0.9820 -0.0564 -0.1801
vn -0.1896 0.2682 -0.9445
vn -0.5103 -0.2939 0.8082
vn 0.7796 0.0105 0.6262
vn 0.6386 0.2234 0.7364
vn 0.5431 0.3089 0.7808
vn -0.0495 0.8378 -0.5438
vn 0.5772 0.5896 0.5650
vn 0.4976 0.6313 0.5948
vn 0.3669 0.5055 0.7809
vn 0.2640 0.5847 0.7671
vn 0.7858 0.2789 0.5520
vn 0.9791 -0.1142 0.1683
vn -0.1244 0.5635 0.8167
vn 0.8788 0.1550 -0.4513
vn 0.8971 -0.4390 0.0499
vn -0.5750 0.5674 0.5894
vn -0.7016 0.5100 0.4977
vn -0.7797 -0.4908 -0.3888
vn -0.9327 0.3590 -0.0357
vn -0.1747 0.1007 -0.9795
vn -0.9639 0.0512 -0.2613
vn -0.1507 0.5376 -0.8296
vn -0.5001 0.4686 -0.7282
vn -0.3394 0.5548 -0.7596
vn -0.6447 0.5012 -0.5773
vn 0.2999 0.2787 -0.9123
vn 0.4521 -0.0000 -0.8920
vn 0.5811 0.3335 -0.7424
vn 0.3031 0.9415 0.1472
vn 0.8088 0.2938 -0.5094
vn 0.4272 0.3268 -0.8430
vn 0.9848 0.0664 -0.1607
vn 0.9880 -0.0113 0.1538
vn 0.5617 -0.4916 -0.6655
vn 0.8746 0.0936 0.4758
vn 0.6871 0.6918 -0.2221
vn 0.8711 0.0962 0.4816
vn 0.4778 0.7176 0.5067
vn 0.6174 -0.7593 -0.2055
vn 0.6522 0.6632 0.3672
vn 0.0720 0.7869 0.6129
vn 0.1335 0.8889 0.4382
vn 0.8654 0.2817 0.4144
vn -0.7323 0.6346 0.2470
vn -0.6667 0.5988 0.4438
vn 0.0970 0.8771 0.4704
vn 0.9423 -0.1101 -0.3162
vn -0.6008 0.6128 0.5133
vn -0.8949 0.3870 -0.2225
vn -0.8575 0.5145 0.0015
vn -0.7979 0.5303 -0.2866
vn -0.3199 0.7023 0.6360
vn 0.9175 0.3940 0.0539
vn -0.4820 0.7282 -0.4872
vn 0.1819 0.4876 -0.8539
vn 0.3977 0.3587 -0.8445
vn 0.9955 0.0542 -0.0772
vn 0.4688 0.4744 -0.7451
vn -0.4803 -0.7923 -0.3763
vn 0.3570 -0.4508 -0.8181
vn 0.6055 0.5294 -0.5942
vn 0.4096 0.8882 -0.2080
vn 0.7466 0.5662 -0.3493
vn -0.8659 0.4221 0.2684
vn 0.8139 0.5139 -0.2710
vn -0.7204 0.6679 -0.1871
vn 0.5563 0.8112 0.1803
vn 0.3802 -0.8094 0.4475
vn 0.8015 0.5618 0.2047
vn 0.1253 0.9480 0.2927
vn -0.6254 0.7195 0.3020
vn -0.6453 0.7539 0.1238
vn -0.3555 0.9078 0.2227
vn -0.5274 0.8400 -0.1276
vn -0.9597 0.2766 0.0497
vn -0.7268 0.6868 -0.0003
vn -0.5080 0.8613 0.0086
vn -0.7779 0.6226 -0.0855
vn 0.6610 0.5765 -0.4804
vn 0.6274 0.7785 -0.0169
vn 0.8461 0.1949 0.4961
vn 0.9430 -0.3307 -0.0373
vn 0.9124 -0.1080 0.3948
vn -0.5240 0.8256 -0.2092
vn 0.2460 0.8064 -0.5377
vn 0.6558 0.7549 -0.0025
vn -0.3250 -0.6775 -0.6598
vn -0.5502 0.7093 0.4406
vn 0.7495 0.4246 0.5078
vn -0.2343 0.9721 -0.0126
vn -0.4500 -0.7378 -0.5031
vn -0.0115 -0.6177 -0.7864
vn -0.1073 0.8873 -0.4485
vn 0.7386 -0.4844 -0.4689
vn -0.2096 -0.3390 -0.9171
vn -0.7662 0.3293 -0.5518
vn 0.6317 0.7700 -0.0900
vn 0.2352 0.9618 -0.1403
vn -0.1334 0.9804 -0.1449
vn -0.1540 0.9691 -0.1927
vn -0.7776 -0.3789 -0.5017
vn 0.9296 0.2469 -0.2736
vn 0.5417 0.7231 -0.4286
vn 0.5845 0.7836 0.2105
vn -0.7145 0.4900 0.4993
vn -0.7773 -0.1354 -0.6144
vn 0.7936 -0.4449 -0.4151
vn 0.2726 -0.3051 -0.9125
vn -0.6619 -0.5977 0.4524
vn 0.0346 0.8731 -0.4863
vn 0.6015 -0.2021 -0.7729
vn -0.3649 0.9305 0.0334
vn -0.6682 -0.4740 -0.5734
vn -0.0295 -0.5814 0.8131
vn 0.2388 0.0807 -0.9677
vn 0.0961 -0.9305 -0.3534
vn 0.8919 0.4459 -0.0753
vn -0.9839 0.0257 0.1767
vn -0.0270 -0.7800 -0.6252
vn 0.3088 0.9511 0.0048
vn 0.1570 -0.9873 0.0252
vn 0.0397 0.8197 -0.5714
vn -0.1552 -0.0388 -0.9871
vn -0.2874 0.6414 -0.7113
vn 0.5956 0.7801 -0.1918
vn 0.2737 0.3385 -0.9003
vn -0.6620 0.6742 0.3273
vn 0.4482 0.8202 -0.3555
vn 0.7092 -0.6069 0.3588
vn -0.0717 0.9706 0.2299
vn 0.9077 -0.3905 0.1538
vn -0.0984 0.9295 0.3556
vn 0.3109 -0.9476 -0.0730
vn -0.1322 0.5572 -0.8198
vn -0.3087 -0.9055 -0.2912
vn 0.0416 0.8309 -0.5548
vn -0.5913 0.7316 -0.3393
vn 0.6638 0.1506 -0.7326
vn 0.9223 0.2335 0.3081
vn 0.8510 0.3997 -0.3406
vn 0.6783 0.6975 -0.2311
vn -0.8947 -0.2135 -0.3923
vn 0.6622 -0.7492 -0.0142
vn -0.7666 -0.5960 0.2390
vn -0.4994 0.8505 -0.1651
vn 0.7367 0.5715 0.3614
vn 0.1588 0.9840 -0.0809
vn -0.3411 -0.9367 -0.0787
vn 0.7066 -0.6259 -0.3300
vn -0.1559 -0.4033 0.9017
vn 0.5931 -0.7611 -0.2625
vn 0.1994 0.9542 -0.2232
vn -0.0402 0.7054 -0.7077
vn -0.1001 0.6968 0.7102
vn -0.4611 0.6192 -0.6356
vn 0.4667 0.0410 -0.8835
vn -0.8322 -0.5020 -0.2355
vn -0.5349 0.3348 0.7758
vn -0.9032 0.3255 0.2799
vn -0.3494 -0.4702 0.8104
vn -0.2077 0.9523 -0.2237
vn 0.5056 0.7025 -0.5009
vn 0.4862 -0.1253 -0.8648
vn -0.5970 -0.7581 -0.2624
vn -0.8083 0.3877 -0.4432
vn -0.4684 0.2671 -0.8421
vn -0.5323 0.0092 -0.8465
vn 0.8611 -0.4732 0.1857
vn 0.5833 -0.6793 0.4453
vn -0.2705 0.8728 -0.4063
vn 0.8668 0.0664 -0.4941
vn 0.2679 -0.8793 -0.3937
vn -0.1898 0.2685 -0.9444
vn -0.7583 -0.3486 0.5509
vn 0.9796 -0.1032 0.1725
vn -0.3372 0.4442 0.8301
vn 0.8759 0.0771 -0.4762
vn 0.8821 -0.4692 0.0413
vn -0.7183 -0.5493 -0.4270
vn 0.1355 0.7306 -0.6692
vn -0.1697 0.0953 -0.9809
vn -0.9774 -0.0807 -0.1955
vn 0.4357 0.8679 0.2385
vn 0.5589 -0.5153 -0.6497
vn 0.7538 0.6261 -0.1994
vn 0.7159 -0.6830 -0.1449
vn 0.9149 -0.2177 -0.3401
vn -0.9154 0.3231 -0.2403
vn -0.6141 0.7768 -0.1395
vn -0.3181 0.6988 0.6407
vn 0.9058 0.4010 0.1369
vn -0.4954 -0.3060 0.8130
vn 0.9919 -0.1120 -0.0596
vn -0.4650 -0.8008 -0.3775
vn 0.4425 0.8748 -0.1972
vn -0.8681 0.4195 0.2655
vn 0.5362 -0.2504 -0.8061
vn -0.6282 0.7475 -0.2158
vn -0.8830 -0.4667 -0.0507
vn -0.9910 0.1308 0.0276
vn 0.6923 0.5560 -0.4599
vn 0.5721 0.8198 0.0268
vn 0.9603 -0.2755 -0.0445
vn 0.6802 0.7286 0.0803
vn -0.3010 -0.6906 -0.6577
vn -0.5779 0.7451 0.3330
vn 0.6562 0.4789 0.5832
vn 0.7535 0.1200 -0.6464
vn -0.3603 -0.7287 -0.5823
vn 0.7132 -0.5387 -0.4484
vn -0.1804 -0.3599 -0.9154
vn -0.7107 0.3655 -0.6011
vn -0.8058 -0.2271 -0.5469
vn -0.1743 0.7652 -0.6197
vn -0.6052 -0.6672 -0.4344
vn 0.9337 0.2428 -0.2632
vn -0.8376 0.1789 -0.5162
vn 0.3841 -0.7056 0.5955
vn -0.8932 0.0515 0.4467
vn 0.8305 -0.5521 0.0744
vn -0.9214 -0.3319 -0.2024
vn -0.3525 -0.8593 0.3705
vn -0.3421 -0.5320 -0.7746
vn 0.0622 -0.9321 0.3567
vn -0.0046 -0.9359 0.3523
vn 0.8437 -0.2700 0.4639
vn -0.6981 -0.6289 -0.3422
vn -0.9971 -0.0732 -0.0202
vn 0.3707 0.8077 0.4584
vn 0.1366 -0.8727 0.4687
vn -0.0771 0.9056 -0.4171
vn -0.4807 -0.8164 0.3200
vn 0.8256 -0.2607 0.5005
vn -0.9211 -0.3287 -0.2087
vn -0.3798 -0.9005 0.2118
vn -0.3149 -0.5305 -0.7870
vn -0.9782 -0.1624 0.1296
vn 0.9264 0.3329 -0.1761
vn 0.1367 -0.9058 0.4011
vn 0.1108 0.6514 -0.7506
vn 0.1471 0.6693 -0.7282
vn 0.1036 -0.9659 -0.2372
vn -0.9931 -0.1087 -0.0441
vn 0.5728 0.1636 0.8032
vn -0.8925 0.2597 -0.3689
vn -0.8960 0.2573 -0.3619
vn -0.2979 0.3463 0.8896
vn -0.9938 -0.0551 0.0968
vn 0.8046 -0.1765 0.5669
vn 0.9767 -0.1858 -0.1072
vn 0.7913 0.2950 -0.5356
vn -0.3463 -0.8636 0.3665
vn -0.6977 -0.6269 -0.3468
vn -0.4898 -0.8570 -0.1603
vn 0.5359 0.2975 0.7901
vn -0.9566 0.2399 -0.1656
vn -0.4046 -0.5956 -0.6940
vn 0.7668 -0.2786 0.5783
vn 0.4279 0.7933 0.4331
vn 0.1450 0.6142 0.7757
vn 0.7932 0.3474 -0.5002
vn 0.8277 -0.5429 0.1419
vn 0.9771 0.1338 -0.1657
vn -0.6522 0.6319 -0.4187
vn -0.8952 0.0737 0.4396
vn -0.8729 0.4857 -0.0464
vn -0.3528 -0.9081 0.2257
vn -0.9256 0.0686 -0.3722
vn -0.8334 -0.5460 -0.0860
vn 0.0878 -0.9763 -0.1980
vn -0.5724 -0.6091 0.5489
vn -0.5927 -0.3946 -0.7022
vn 0.1531 0.6205 0.7691
vn -0.0675 0.9070 -0.4158
vn 0.3453 0.8816 -0.3217
vn 0.7651 -0.1866 -0.6163
vn 0.2327 -0.9379 -0.2574
vn -0.7295 0.6797 0.0761
vn -0.4119 0.5045 0.7588
vn 0.6893 0.1436 0.7101
vn 0.4027 -0.6944 0.5964
vn -0.5421 -0.6465 0.5368
vn 0.9363 0.3254 -0.1324
vn -0.8104 0.3846 0.4419
vn -0.0007 -0.3163 -0.9487
vn -0.0714 -0.9914 0.1098
vn 0.3491 0.8737 -0.3387
vn -0.9576 0.2396 -0.1599
vn 0.9838 -0.1787 0.0105
vn -0.6927 0.7197 0.0468
vn 0.9882 0.1526 -0.0136
vn -0.8754 0.4817 -0.0399
vn -0.1160 0.7752 -0.6209
vn -0.8359 0.2018 -0.5104
vn 0.7571 -0.1787 -0.6284
vn -0.1393 -0.9902 -0.0063
vn -0.6241 0.6347 -0.4557
vn -0.1621 0.4478 0.8793
vn -0.4813 -0.6786 -0.5548
vn -0.6415 -0.3875 -0.6620
vn 0.5993 0.4903 -0.6328
vn -0.8049 0.3978 0.4403
vn -0.9710 -0.2390 -0.0008
vn 0.6036 0.4825 -0.6347
vn -0.9333 0.0941 -0.3466
vn -0.8661 -0.3215 0.3829
vn -0.9805 -0.1894 -0.0520
vn -0.5055 -0.7695 0.3903
vn -0.4416 0.4974 0.7467
vn -0.8672 -0.3166 0.3844
vn -0.4127 0.8023 -0.4313
vn -0.1165 -0.0248 -0.9929
vn -0.1266 -0.0505 -0.9907
vn -0.4198 0.7756 -0.4714
vn 0.6382 0.0639 0.7672
vn 0.2121 -0.9511 -0.2245
vn -0.4902 -0.8564 -0.1622
vn -0.8389 -0.5396 -0.0714
vn -0.0194 -0.3042 -0.9524
s off
f 193//1 216//1 175//1
f 64//2 50//2 56//2
f 252//3 163//3 175//3
f 161//4 144//4 124//4
f 212//5 216//5 193//5
f 221//6 258//6 216//6
f 258//7 246//7 216//7
f 246//8 250//8 216//8
f 53//9 103//9 109//9
f 78//10 257//10 75//10
f 32//11 31//11 5//11
f 168//12 228//12 163//12
f 168//13 229//13 228//13
f 209//14 201//14 188//14
f 21//15 205//15 191//15
f 206//16 208//16 201//16
f 7//17 256//17 254//17
f 206//18 99//18 208//18
f 14//19 185//19 63//19
f 223//20 221//20 216//20
f 110//21 224//21 219//21
f 226//22 258//22 221//22
f 244//23 247//23 258//23
f 247//24 246//24 258//24
f 246//25 247//25 251//25
f 253//26 231//26 251//26
f 236//27 168//27 231//27
f 253//28 74//28 231//28
f 74//29 236//29 231//29
f 203//30 138//30 217//30
f 3//31 1//31 2//31
f 230//32 235//32 168//32
f 235//33 229//33 168//33
f 235//34 234//34 229//34
f 199//35 198//35 209//35
f 155//36 66//36 67//36
f 233//37 203//37 199//37
f 203//38 215//38 199//38
f 215//39 213//39 199//39
f 213//40 198//40 199//40
f 197//41 99//41 206//41
f 169//42 170//42 172//42
f 197//43 192//43 99//43
f 244//44 29//44 222//44
f 219//45 225//45 220//45
f 219//46 224//46 225//46
f 29//47 258//47 226//47
f 19//48 142//48 44//48
f 228//49 175//49 163//49
f 112//50 113//50 29//50
f 249//51 247//51 244//51
f 222//52 245//52 244//52
f 245//53 249//53 244//53
f 249//54 248//54 247//54
f 248//55 73//55 253//55
f 119//56 117//56 122//56
f 237//57 235//57 230//57
f 44//58 56//58 61//58
f 9//59 22//59 37//59
f 61//60 50//60 47//60
f 232//61 233//61 186//61
f 149//62 237//62 160//62
f 215//63 207//63 213//63
f 185//64 137//64 11//64
f 202//65 197//65 213//65
f 232//66 138//66 233//66
f 240//67 241//67 165//67
f 127//68 131//68 125//68
f 190//69 146//69 185//69
f 231//70 163//70 252//70
f 21//71 195//71 192//71
f 195//72 174//72 192//72
f 95//73 92//73 200//73
f 211//74 196//74 219//74
f 25//75 123//75 119//75
f 47//76 51//76 52//76
f 114//77 227//77 120//77
f 121//78 94//78 26//78
f 227//79 108//79 113//79
f 108//80 31//80 113//80
f 31//81 40//81 113//81
f 40//82 222//82 113//82
f 40//83 245//83 222//83
f 245//84 248//84 249//84
f 255//85 73//85 248//85
f 34//86 41//86 18//86
f 70//87 158//87 71//87
f 70//88 243//88 158//88
f 164//89 154//89 157//89
f 68//90 45//90 23//90
f 167//91 162//91 149//91
f 160//92 167//92 149//92
f 56//93 23//93 64//93
f 131//94 138//94 232//94
f 214//95 205//95 207//95
f 80//96 83//96 90//96
f 127//97 214//97 217//97
f 191//98 195//98 21//98
f 230//99 236//99 158//99
f 194//100 174//100 195//100
f 129//101 172//101 133//101
f 97//102 95//102 174//102
f 194//103 98//103 174//103
f 21//104 197//104 202//104
f 58//105 14//105 63//105
f 92//106 83//106 110//106
f 83//107 91//107 110//107
f 166//108 128//108 159//108
f 103//109 114//109 109//109
f 43//110 137//110 19//110
f 107//111 118//111 114//111
f 118//112 227//112 114//112
f 103//113 107//113 114//113
f 208//114 193//114 201//114
f 70//115 73//115 76//115
f 32//116 254//116 245//116
f 254//117 256//117 245//117
f 256//118 257//118 255//118
f 78//119 70//119 76//119
f 78//120 243//120 70//120
f 131//121 217//121 138//121
f 92//122 218//122 83//122
f 232//123 162//123 167//123
f 131//124 232//124 167//124
f 186//125 228//125 229//125
f 167//126 150//126 131//126
f 150//127 15//127 131//127
f 127//128 204//128 214//128
f 127//129 179//129 204//129
f 179//130 187//130 204//130
f 179//131 133//131 187//131
f 133//132 177//132 187//132
f 177//133 191//133 187//133
f 71//134 253//134 73//134
f 140//135 143//135 127//135
f 143//136 183//136 127//136
f 183//137 179//137 127//137
f 170//138 194//138 177//138
f 90//139 83//139 96//139
f 43//140 59//140 62//140
f 33//141 119//141 51//141
f 80//142 53//142 91//142
f 28//143 30//143 103//143
f 80//144 28//144 53//144
f 104//145 118//145 107//145
f 141//146 116//146 130//146
f 104//147 115//147 118//147
f 101//148 117//148 111//148
f 24//149 5//149 31//149
f 34//150 3//150 9//150
f 218//151 95//151 97//151
f 184//152 183//152 143//152
f 169//153 173//153 17//153
f 77//154 242//154 78//154
f 242//155 243//155 78//155
f 153//156 165//156 241//156
f 214//157 215//157 217//157
f 165//158 238//158 240//158
f 60//159 63//159 62//159
f 165//160 8//160 238//160
f 50//161 36//161 42//161
f 16//162 135//162 125//162
f 135//163 134//163 125//163
f 134//164 178//164 125//164
f 8//165 151//165 150//165
f 151//166 15//166 150//166
f 183//167 133//167 179//167
f 183//168 129//168 133//168
f 134//169 130//169 178//169
f 116//170 143//170 140//170
f 5//171 7//171 32//171
f 200//172 223//172 99//172
f 38//173 93//173 94//173
f 217//174 215//174 203//174
f 20//175 85//175 12//175
f 88//176 28//176 80//176
f 82//177 30//177 28//177
f 30//178 107//178 103//178
f 82//179 111//179 30//179
f 111//180 106//180 30//180
f 106//181 102//181 104//181
f 102//182 115//182 104//182
f 160//183 239//183 240//183
f 27//184 22//184 1//184
f 22//185 2//185 1//185
f 162//186 235//186 149//186
f 5//187 24//187 1//187
f 18//188 41//188 7//188
f 58//189 48//189 121//189
f 46//190 75//190 257//190
f 253//191 247//191 248//191
f 4//192 55//192 46//192
f 57//193 69//193 77//193
f 102//194 22//194 27//194
f 187//195 205//195 204//195
f 152//196 151//196 8//196
f 152//197 126//197 16//197
f 126//198 135//198 16//198
f 51//199 48//199 52//199
f 128//200 124//200 135//200
f 124//201 147//201 135//201
f 135//202 147//202 134//202
f 147//203 136//203 134//203
f 159//204 126//204 152//204
f 13//205 165//205 153//205
f 116//206 178//206 130//206
f 57//207 55//207 72//207
f 239//208 243//208 241//208
f 189//209 182//209 184//209
f 182//210 145//210 184//210
f 110//211 196//211 92//211
f 17//212 84//212 20//212
f 27//213 115//213 102//213
f 90//214 85//214 89//214
f 123//215 22//215 106//215
f 111//216 117//216 106//216
f 117//217 123//217 106//217
f 38//218 101//218 111//218
f 9//219 3//219 2//219
f 18//220 5//220 3//220
f 34//221 39//221 4//221
f 137//222 139//222 142//222
f 72//223 55//223 4//223
f 9//224 39//224 34//224
f 79//225 69//225 57//225
f 164//226 157//226 13//226
f 255//227 245//227 256//227
f 154//228 8//228 157//228
f 67//229 23//229 35//229
f 154//230 152//230 8//230
f 124//231 144//231 147//231
f 71//232 236//232 74//232
f 161//233 124//233 128//233
f 148//234 141//234 136//234
f 139//235 146//235 136//235
f 166//236 159//236 154//236
f 181//237 176//237 145//237
f 182//238 171//238 145//238
f 136//239 146//239 148//239
f 77//240 75//240 57//240
f 171//241 182//241 189//241
f 93//242 84//242 100//242
f 10//243 17//243 176//243
f 100//244 94//244 93//244
f 189//245 148//245 190//245
f 155//246 164//246 156//246
f 65//247 122//247 101//247
f 25//248 37//248 22//248
f 39//249 9//249 37//249
f 13//250 69//250 79//250
f 36//251 39//251 37//251
f 220//252 223//252 211//252
f 32//253 245//253 40//253
f 49//254 6//254 36//254
f 19//255 61//255 54//255
f 64//256 23//256 45//256
f 176//257 173//257 145//257
f 23//258 66//258 68//258
f 87//259 94//259 100//259
f 132//260 142//260 144//260
f 186//261 229//261 234//261
f 155//262 161//262 166//262
f 137//263 146//263 139//263
f 180//264 181//264 171//264
f 180//265 105//265 181//265
f 185//266 180//266 190//266
f 14//267 26//267 105//267
f 20//268 169//268 17//268
f 87//269 10//269 105//269
f 180//270 14//270 105//270
f 87//271 100//271 10//271
f 64//272 6//272 49//272
f 44//273 132//273 67//273
f 159//274 152//274 154//274
f 242//275 241//275 243//275
f 8//276 165//276 157//276
f 26//277 58//277 121//277
f 47//278 50//278 42//278
f 132//279 155//279 67//279
f 112//280 226//280 120//280
f 190//281 171//281 189//281
f 128//282 126//282 159//282
f 11//283 63//283 185//283
f 225//284 221//284 220//284
f 222//285 29//285 113//285
f 60//286 52//286 48//286
f 76//287 255//287 257//287
f 86//288 227//288 118//288
f 38//289 82//289 81//289
f 44//290 67//290 35//290
f 54//291 43//291 19//291
f 43//292 63//292 11//292
f 43//293 62//293 63//293
f 91//294 109//294 110//294
f 68//295 57//295 72//295
f 64//296 49//296 50//296
f 161//297 132//297 144//297
f 145//298 129//298 184//298
f 53//299 28//299 103//299
f 78//300 76//300 257//300
f 32//301 40//301 31//301
f 21//302 202//302 205//302
f 59//303 47//303 52//303
f 7//304 41//304 256//304
f 14//305 180//305 185//305
f 110//306 109//306 224//306
f 203//307 233//307 138//307
f 3//308 5//308 1//308
f 251//309 250//309 246//309
f 155//310 156//310 66//310
f 169//311 12//311 170//311
f 244//312 258//312 29//312
f 19//313 137//313 142//313
f 228//314 188//314 175//314
f 51//315 42//315 33//315
f 115//316 86//316 118//316
f 119//317 123//317 117//317
f 44//318 35//318 56//318
f 9//319 2//319 22//319
f 181//320 145//320 171//320
f 61//321 56//321 50//321
f 149//322 235//322 237//322
f 185//323 146//323 137//323
f 240//324 239//324 241//324
f 190//325 148//325 146//325
f 231//326 168//326 163//326
f 25//327 22//327 123//327
f 216//328 212//328 223//328
f 47//329 42//329 51//329
f 121//330 65//330 94//330
f 34//331 4//331 41//331
f 164//332 166//332 154//332
f 68//333 72//333 45//333
f 56//334 35//334 23//334
f 80//335 91//335 83//335
f 230//336 168//336 236//336
f 21//337 192//337 197//337
f 58//338 26//338 14//338
f 166//339 161//339 128//339
f 43//340 11//340 137//340
f 208//341 212//341 193//341
f 70//342 71//342 73//342
f 131//343 127//343 217//343
f 71//344 74//344 253//344
f 43//345 54//345 59//345
f 33//346 25//346 119//346
f 141//347 148//347 116//347
f 101//348 122//348 117//348
f 34//349 18//349 3//349
f 218//350 92//350 95//350
f 184//351 129//351 183//351
f 169//352 172//352 173//352
f 214//353 207//353 215//353
f 60//354 58//354 63//354
f 50//355 49//355 36//355
f 5//356 18//356 7//356
f 200//357 211//357 223//357
f 38//358 81//358 93//358
f 106//359 104//359 30//359
f 30//360 104//360 107//360
f 160//361 237//361 239//361
f 162//362 234//362 235//362
f 58//363 60//363 48//363
f 46//364 55//364 75//364
f 253//365 251//365 247//365
f 102//366 106//366 22//366
f 187//367 191//367 205//367
f 13//368 157//368 165//368
f 116//369 140//369 178//369
f 57//370 75//370 55//370
f 239//371 158//371 243//371
f 110//372 219//372 196//372
f 42//373 36//373 33//373
f 27//374 1//374 115//374
f 90//375 96//375 85//375
f 142//376 139//376 144//376
f 255//377 248//377 245//377
f 67//378 66//378 23//378
f 71//379 158//379 236//379
f 77//380 78//380 75//380
f 93//381 89//381 84//381
f 87//382 105//382 26//382
f 189//383 116//383 148//383
f 155//384 166//384 164//384
f 214//385 204//385 205//385
f 13//386 153//386 69//386
f 220//387 221//387 223//387
f 19//388 44//388 61//388
f 176//389 17//389 173//389
f 7//390 254//390 32//390
f 87//391 26//391 94//391
f 174//392 95//392 192//392
f 20//393 12//393 169//393
f 64//394 45//394 6//394
f 44//395 142//395 132//395
f 242//396 153//396 241//396
f 132//397 161//397 155//397
f 112//398 29//398 226//398
f 190//399 180//399 171//399
f 128//400 135//400 126//400
f 46//401 41//401 4//401
f 225//402 226//402 221//402
f 76//403 73//403 255//403
f 86//404 108//404 227//404
f 38//405 111//405 82//405
f 91//406 53//406 109//406
f 48//407 119//407 122//407
f 211//408 219//408 220//408
f 68//409 79//409 57//409
f 82//410 88//410 81//410
f 234//411 162//411 232//411
f 170//412 133//412 172//412
f 239//413 237//413 230//413
f 218//414 96//414 83//414
f 210//415 209//415 198//415
f 112//416 227//416 113//416
f 199//417 188//417 228//417
f 199//418 209//418 188//418
f 238//419 160//419 240//419
f 211//420 92//420 196//420
f 85//421 96//421 98//421
f 139//422 147//422 144//422
f 233//423 199//423 186//423
f 62//424 59//424 52//424
f 197//425 210//425 213//425
f 238//426 167//426 160//426
f 218//427 97//427 96//427
f 210//428 201//428 209//428
f 112//429 120//429 227//429
f 98//430 170//430 12//430
f 66//431 156//431 79//431
f 199//432 228//432 186//432
f 33//433 36//433 37//433
f 33//434 37//434 25//434
f 252//435 175//435 216//435
f 85//436 98//436 12//436
f 125//437 15//437 16//437
f 88//438 89//438 93//438
f 88//439 93//439 81//439
f 140//440 125//440 178//440
f 98//441 194//441 170//441
f 150//442 167//442 238//442
f 69//443 153//443 242//443
f 72//444 6//444 45//444
f 210//445 198//445 213//445
f 211//446 200//446 92//446
f 212//447 99//447 223//447
f 125//448 131//448 15//448
f 84//449 85//449 20//449
f 226//450 225//450 224//450
f 150//451 238//451 8//451
f 139//452 136//452 147//452
f 141//453 134//453 136//453
f 72//454 4//454 6//454
f 239//455 230//455 158//455
f 156//456 164//456 13//456
f 38//457 65//457 101//457
f 170//458 177//458 133//458
f 10//459 84//459 17//459
f 210//460 206//460 201//460
f 88//461 90//461 89//461
f 95//462 200//462 99//462
f 252//463 216//463 250//463
f 202//464 213//464 207//464
f 114//465 224//465 109//465
f 141//466 130//466 134//466
f 62//467 52//467 60//467
f 61//468 47//468 59//468
f 46//469 256//469 41//469
f 231//470 252//470 250//470
f 10//471 181//471 105//471
f 189//472 184//472 143//472
f 16//473 15//473 151//473
f 234//474 232//474 186//474
f 202//475 207//475 205//475
f 66//476 79//476 68//476
f 129//477 173//477 172//477
f 24//478 108//478 86//478
f 201//479 193//479 175//479
f 61//480 59//480 54//480
f 84//481 89//481 85//481
f 69//482 242//482 77//482
f 10//483 176//483 181//483
f 156//484 13//484 79//484
f 10//485 100//485 84//485
f 48//486 51//486 119//486
f 82//487 28//487 88//487
f 46//488 257//488 256//488
f 201//489 175//489 188//489
f 38//490 94//490 65//490
f 140//491 127//491 125//491
f 226//492 224//492 120//492
f 114//493 120//493 224//493
f 6//494 4//494 39//494
f 145//495 173//495 129//495
f 97//496 98//496 96//496
f 6//497 39//497 36//497
f 88//498 80//498 90//498
f 194//499 191//499 177//499
f 97//500 174//500 98//500
f 197//501 206//501 210//501
f 189//502 143//502 116//502
f 194//503 195//503 191//503
f 65//504 48//504 122//504
f 24//505 86//505 115//505
f 24//506 115//506 1//506
f 65//507 121//507 48//507
f 16//508 151//508 152//508
f 231//509 250//509 251//509
f 212//510 208//510 99//510
f 95//511 99//511 192//511
f 24//512 31//512 108//512
