o convex_0
v -0.096943 -0.111755 -0.106171
v 0.012346 -0.002476 -0.098364
v 0.012346 -0.030581 -0.096803
v -0.114127 -0.002476 -0.098364
v -0.037619 -0.125795 -0.093680
v 0.012346 -0.125795 -0.101487
v -0.039179 -0.002476 -0.106171
v -0.114127 -0.125795 -0.096803
v -0.114127 -0.002476 -0.106171
v 0.012346 -0.041506 -0.104610
v 0.012346 -0.107071 -0.093680
v -0.114127 -0.125795 -0.104610
v 0.012346 -0.002476 -0.104610
v -0.007957 -0.125795 -0.103048
v -0.093824 -0.117996 -0.095241
v 0.012346 -0.125795 -0.093680
v -0.040739 -0.116439 -0.093680
f 15 5 17 
f 3 2 4 
f 2 3 6 
f 4 2 7 
f 6 5 8 
f 7 1 9 
f 4 7 9 
f 8 4 9 
f 2 6 10 
f 1 7 10 
f 3 4 11 
f 6 3 11 
f 6 8 12 
f 9 1 12 
f 8 9 12 
f 7 2 13 
f 2 10 13 
f 10 7 13 
f 10 6 14 
f 1 10 14 
f 12 1 14 
f 6 12 14 
f 4 8 15 
f 8 5 15 
f 5 6 16 
f 11 5 16 
f 6 11 16 
f 11 4 17 
f 5 11 17 
f 4 15 17 
o convex_1
v 0.068572 -0.116449 -0.092118
v 0.012351 -0.127380 -0.101487
v 0.084177 -0.127380 -0.101487
v 0.012351 -0.002464 -0.104610
v 0.132583 -0.002464 -0.093681
v 0.012351 -0.029010 -0.096803
v 0.121650 -0.010277 -0.103047
v 0.132583 -0.127380 -0.093681
v 0.132583 -0.119567 -0.101486
v 0.012351 -0.127380 -0.093680
v 0.024850 -0.002464 -0.096803
v 0.013928 -0.038389 -0.104610
v 0.032664 -0.122685 -0.092118
v 0.132583 -0.004029 -0.101486
v 0.110716 -0.127380 -0.092118
v 0.109151 -0.002464 -0.093681
v 0.012351 -0.103952 -0.103048
v 0.054519 -0.004029 -0.104610
v 0.132583 -0.127380 -0.099924
f 26 25 36 
f 21 19 23 
f 19 20 25 
f 22 25 26 
f 23 19 27 
f 19 25 27 
f 22 21 28 
f 21 23 28 
f 23 27 30 
f 28 23 30 
f 21 22 31 
f 26 24 31 
f 22 26 31 
f 22 18 32 
f 25 22 32 
f 27 25 32 
f 18 30 32 
f 30 27 32 
f 18 22 33 
f 22 28 33 
f 30 18 33 
f 28 30 33 
f 20 19 34 
f 19 21 34 
f 26 20 34 
f 21 29 34 
f 29 26 34 
f 24 26 35 
f 29 21 35 
f 26 29 35 
f 21 31 35 
f 31 24 35 
f 25 20 36 
f 20 26 36 
o convex_2
v -0.031370 0.122452 -0.096804
v -0.115688 -0.002464 -0.106170
v -0.110992 -0.002464 -0.107733
v -0.115688 0.122452 -0.106170
v -0.031370 0.030330 -0.106170
v -0.115688 -0.002464 -0.098365
v -0.031370 -0.002464 -0.098364
v -0.104752 0.119322 -0.096805
v -0.031370 0.122452 -0.104609
v -0.039177 -0.002464 -0.106170
v -0.115688 0.122452 -0.098365
v -0.031370 0.080279 -0.096804
v -0.031370 0.064665 -0.106170
v -0.089136 0.000666 -0.107733
f 49 41 50 
f 39 38 40 
f 38 39 42 
f 40 38 42 
f 41 37 43 
f 42 39 43 
f 40 37 45 
f 37 41 45 
f 41 43 46 
f 43 39 46 
f 37 40 47 
f 40 42 47 
f 44 37 47 
f 42 44 47 
f 43 37 48 
f 42 43 48 
f 37 44 48 
f 44 42 48 
f 40 45 49 
f 45 41 49 
f 39 40 50 
f 46 39 50 
f 41 46 50 
f 40 49 50 
o convex_3
v -0.114113 0.138067 -0.106168
v -0.125048 0.122453 -0.110856
v -0.125048 0.122453 -0.107729
v 0.134144 0.120891 -0.093682
v 0.130998 0.133379 -0.107731
v -0.031352 0.133379 -0.092120
v -0.123475 0.122453 -0.095241
v 0.132571 0.131819 -0.092120
v 0.134144 0.120891 -0.101486
v -0.112540 0.138067 -0.110856
v -0.117233 0.136503 -0.095241
v 0.134144 0.128699 -0.107731
v 0.024845 0.136505 -0.106168
v -0.031352 0.120891 -0.096806
v -0.037619 0.131817 -0.110856
v -0.031352 0.128699 -0.092120
v -0.123475 0.134940 -0.110856
v 0.079444 0.133379 -0.092120
f 63 61 68 
f 57 56 61 
f 55 58 62 
f 58 54 62 
f 59 52 62 
f 54 59 62 
f 58 55 63 
f 60 51 63 
f 55 60 63 
f 51 61 63 
f 53 52 64 
f 57 53 64 
f 54 57 64 
f 52 59 64 
f 59 54 64 
f 52 60 65 
f 60 55 65 
f 55 62 65 
f 62 52 65 
f 57 54 66 
f 56 57 66 
f 54 58 66 
f 58 56 66 
f 52 53 67 
f 53 57 67 
f 60 52 67 
f 51 60 67 
f 61 51 67 
f 57 61 67 
f 56 58 68 
f 61 56 68 
f 58 63 68 
o convex_4
v -0.125052 0.125576 -0.078040
v -0.031370 0.134942 0.170206
v -0.065723 0.139628 0.010979
v -0.128172 0.133381 0.168621
v -0.046987 0.122452 0.053072
v -0.132851 0.122452 0.168621
v -0.031370 0.133381 -0.095241
v -0.118803 0.136504 -0.095241
v -0.118803 0.122452 -0.095241
v -0.031370 0.125576 -0.051485
v -0.031370 0.128700 0.170206
v -0.092258 0.139628 0.064011
v -0.039178 0.136504 -0.065542
v -0.106316 0.139628 -0.028074
v -0.031370 0.124014 0.090567
v -0.123493 0.134942 0.167062
v -0.031370 0.128700 -0.095241
v -0.132851 0.128700 0.160826
v -0.121923 0.134942 -0.095241
v -0.106316 0.138066 -0.082717
v -0.071972 0.139628 -0.028074
v -0.031370 0.134942 -0.092097
v -0.117244 0.138066 -0.063983
v -0.125052 0.122452 -0.084276
v -0.125052 0.122452 0.168621
v -0.067293 0.122452 -0.007755
v -0.078221 0.139628 0.057775
v -0.131291 0.131819 0.160826
v -0.084450 0.134942 0.170206
v -0.046987 0.122452 0.071833
f 83 93 98 
f 76 75 77 
f 73 74 77 
f 75 70 78 
f 78 70 79 
f 71 70 81 
f 80 71 82 
f 73 78 83 
f 78 79 83 
f 80 82 84 
f 77 75 85 
f 75 78 85 
f 78 77 85 
f 74 72 86 
f 76 77 87 
f 69 86 87 
f 88 82 89 
f 71 81 89 
f 82 71 89 
f 89 81 90 
f 70 75 90 
f 75 76 90 
f 81 70 90 
f 76 88 90 
f 88 89 90 
f 72 84 91 
f 84 82 91 
f 76 87 91 
f 88 76 91 
f 82 88 91 
f 77 74 92 
f 74 86 92 
f 86 69 92 
f 87 77 92 
f 69 87 92 
f 74 73 93 
f 79 74 93 
f 83 79 93 
f 73 77 94 
f 78 73 94 
f 77 78 94 
f 70 71 95 
f 71 80 95 
f 80 70 95 
f 86 72 96 
f 87 86 96 
f 72 91 96 
f 91 87 96 
f 72 74 97 
f 79 70 97 
f 74 79 97 
f 70 80 97 
f 84 72 97 
f 80 84 97 
f 73 83 98 
f 93 73 98 
o convex_5
v -0.012625 0.019411 -0.106171
v 0.134144 0.120879 -0.093681
v 0.134144 -0.002452 -0.093681
v -0.031370 0.080279 -0.096803
v 0.134144 0.120879 -0.101486
v -0.031370 0.120879 -0.104610
v 0.121653 0.006916 -0.103047
v -0.031370 -0.002452 -0.098364
v 0.013913 0.109941 -0.093680
v 0.012358 0.109941 -0.106171
v -0.031370 -0.002452 -0.104610
v -0.031370 0.120879 -0.096803
v 0.134144 -0.002452 -0.099926
v 0.109146 -0.002452 -0.093681
v 0.013913 0.094332 -0.093680
v -0.031370 0.063113 -0.106171
v 0.042023 -0.002452 -0.104610
v 0.113844 0.086533 -0.103047
v 0.134144 0.003801 -0.101486
f 111 105 117 
f 100 101 103 
f 100 103 104 
f 102 104 106 
f 101 100 107 
f 104 103 108 
f 105 99 108 
f 101 106 109 
f 106 104 109 
f 100 104 110 
f 104 102 110 
f 107 100 110 
f 102 107 110 
f 103 101 111 
f 101 109 111 
f 106 101 112 
f 102 106 113 
f 101 107 113 
f 107 102 113 
f 112 101 113 
f 106 112 113 
f 104 108 114 
f 108 99 114 
f 99 109 114 
f 109 104 114 
f 99 105 115 
f 109 99 115 
f 105 111 115 
f 111 109 115 
f 103 105 116 
f 108 103 116 
f 105 108 116 
f 105 103 117 
f 103 111 117 
o convex_6
v 0.145075 0.105261 0.084337
v 0.138830 -0.002464 0.023429
v 0.137268 -0.002438 0.023429
v 0.135707 -0.002438 0.173329
v 0.134144 0.131800 0.023429
v 0.134144 0.131800 0.173329
v 0.143513 0.045960 0.170203
v 0.143513 0.011603 0.023429
v 0.143513 0.127133 0.023429
v 0.141952 0.128689 0.173329
v 0.141952 0.003798 0.170203
v 0.135707 -0.000882 0.023429
v 0.145075 0.061557 0.060919
v 0.143513 0.114635 0.171759
v 0.140390 -0.002464 0.173329
v 0.140390 0.131813 0.163953
v 0.134144 0.122440 0.159272
v 0.141952 0.002229 0.023429
v 0.138830 0.131813 0.023429
v 0.135707 0.133369 0.170203
f 136 122 137 
f 120 119 121 
f 119 120 122 
f 119 122 125 
f 125 122 126 
f 123 121 127 
f 120 121 129 
f 122 120 129 
f 118 124 130 
f 126 118 130 
f 125 126 130 
f 128 125 130 
f 124 128 130 
f 124 118 131 
f 118 126 131 
f 126 127 131 
f 131 127 132 
f 121 119 132 
f 127 121 132 
f 128 124 132 
f 124 131 132 
f 127 126 133 
f 121 123 134 
f 123 122 134 
f 129 121 134 
f 122 129 134 
f 119 125 135 
f 125 128 135 
f 132 119 135 
f 128 132 135 
f 126 122 136 
f 133 126 136 
f 133 136 137 
f 122 123 137 
f 123 127 137 
f 127 133 137 
o convex_7
v -0.117250 -0.125819 -0.098359
v -0.118811 -0.141433 0.076507
v -0.123495 -0.136747 -0.110849
v -0.129741 -0.125819 0.168644
v -0.117250 -0.132067 0.167076
v -0.128178 -0.125819 -0.112417
v -0.129741 -0.133626 0.167076
v -0.117250 -0.136747 -0.112417
v -0.117250 -0.141433 0.168644
v -0.125056 -0.139871 0.160831
v -0.128178 -0.132067 -0.110849
v -0.123495 -0.125819 0.165508
v -0.118811 -0.125819 0.056203
f 138 149 150 
f 141 138 143 
f 141 143 144 
f 139 140 145 
f 138 142 145 
f 143 138 145 
f 142 141 146 
f 141 144 146 
f 139 145 146 
f 145 142 146 
f 140 139 147 
f 146 144 147 
f 139 146 147 
f 144 143 148 
f 145 140 148 
f 143 145 148 
f 140 147 148 
f 147 144 148 
f 138 141 149 
f 141 142 149 
f 149 142 150 
f 142 138 150 
o convex_8
v -0.117250 -0.130505 -0.112417
v -0.082898 -0.141431 0.170206
v -0.082898 -0.146116 0.170206
v -0.082898 -0.127382 -0.110840
v -0.117250 -0.133628 0.168629
v -0.114122 -0.138309 -0.087408
v -0.082898 -0.138309 -0.093660
v -0.115686 -0.142993 0.167080
v -0.117250 -0.125821 -0.096787
v -0.082898 -0.125821 -0.095210
v -0.084461 -0.136747 0.151422
v -0.117250 -0.136747 -0.112417
v -0.092269 -0.146116 0.151449
v -0.117250 -0.141431 0.056172
v -0.082898 -0.141431 -0.010888
v -0.112562 -0.133628 0.167080
v -0.114122 -0.130505 0.076505
v -0.082898 -0.133628 -0.109263
v -0.104754 -0.141431 -0.003114
v -0.114122 -0.142993 0.101487
f 156 169 170 
f 152 153 154 
f 153 152 155 
f 154 153 157 
f 153 155 158 
f 154 151 159 
f 151 155 159 
f 152 154 160 
f 154 159 160 
f 152 160 161 
f 151 154 162 
f 155 151 162 
f 157 156 162 
f 153 158 163 
f 158 155 164 
f 155 162 164 
f 162 156 164 
f 157 153 165 
f 156 157 165 
f 153 163 165 
f 155 152 166 
f 152 161 166 
f 161 160 166 
f 159 155 167 
f 160 159 167 
f 155 166 167 
f 166 160 167 
f 154 157 168 
f 162 154 168 
f 157 162 168 
f 156 165 169 
f 165 163 169 
f 163 158 170 
f 158 164 170 
f 164 156 170 
f 169 163 170 
o convex_9
v -0.082898 -0.127381 -0.110856
v 0.012351 -0.135185 0.000007
v 0.012351 -0.139871 0.000007
v -0.082898 -0.141433 0.000007
v 0.012351 -0.138309 -0.096802
v 0.012351 -0.125819 -0.101480
v -0.079765 -0.127381 -0.054654
v -0.082898 -0.138308 -0.093677
v -0.082898 -0.133626 0.000007
v 0.012351 -0.127383 -0.056195
v 0.012351 -0.133626 -0.110856
v 0.001415 -0.139871 -0.082749
v -0.082898 -0.125819 -0.095240
v -0.082898 -0.133626 -0.109293
v -0.014202 -0.141433 -0.010931
v -0.051664 -0.139871 -0.082749
v 0.006104 -0.133626 -0.001555
v 0.001415 -0.128943 -0.110856
v -0.079765 -0.141433 -0.015608
v -0.065714 -0.127381 -0.053091
f 187 180 190 
f 173 172 174 
f 172 173 175 
f 172 175 176 
f 174 171 178 
f 174 172 179 
f 171 174 179 
f 172 176 180 
f 176 175 181 
f 175 173 182 
f 176 171 183 
f 171 179 183 
f 179 177 183 
f 180 176 183 
f 178 171 184 
f 175 178 184 
f 171 181 184 
f 181 175 184 
f 173 174 185 
f 182 173 185 
f 178 175 186 
f 175 182 186 
f 179 172 187 
f 172 180 187 
f 171 176 188 
f 181 171 188 
f 176 181 188 
f 174 178 189 
f 185 174 189 
f 182 185 189 
f 186 182 189 
f 178 186 189 
f 177 179 190 
f 183 177 190 
f 180 183 190 
f 179 187 190 
o convex_10
v -0.114127 -0.125795 -0.104599
v -0.121934 -0.002476 0.004692
v -0.125055 -0.002476 0.004692
v -0.125055 -0.002476 -0.112417
v -0.128178 -0.125795 -0.010933
v -0.114127 -0.113312 0.001562
v -0.114127 -0.002476 -0.106170
v -0.128178 -0.125795 -0.112417
v -0.129741 -0.108628 -0.067114
v -0.115689 -0.041506 0.004692
v -0.126617 -0.125795 0.004692
v -0.126617 -0.013414 -0.110847
v -0.117251 -0.124237 0.004692
v -0.123496 -0.125795 -0.112417
v -0.114127 -0.055558 -0.015621
v -0.126617 -0.049317 0.004692
v -0.120373 -0.004046 0.004692
v -0.126617 -0.025896 -0.028105
v -0.128178 -0.063369 -0.110847
v -0.114127 -0.002476 -0.098352
v -0.121934 -0.002476 -0.112417
f 204 194 211 
f 193 192 194 
f 196 191 197 
f 194 192 197 
f 191 195 198 
f 198 195 199 
f 192 193 200 
f 195 191 201 
f 200 193 201 
f 193 194 202 
f 191 196 203 
f 196 200 203 
f 201 191 203 
f 200 201 203 
f 197 191 204 
f 191 198 204 
f 198 194 204 
f 196 197 205 
f 200 196 205 
f 199 195 206 
f 195 201 206 
f 201 193 206 
f 192 200 207 
f 193 202 208 
f 202 199 208 
f 199 206 208 
f 206 193 208 
f 194 198 209 
f 198 199 209 
f 202 194 209 
f 199 202 209 
f 197 192 210 
f 205 197 210 
f 200 205 210 
f 192 207 210 
f 207 200 210 
f 194 197 211 
f 197 204 211 
o convex_11
v -0.123496 -0.013414 0.137398
v -0.126618 -0.125795 0.004692
v -0.126618 -0.105501 0.004692
v -0.115689 -0.121123 0.004692
v -0.129740 -0.125795 0.168644
v -0.125055 -0.002476 0.004692
v -0.132864 -0.002476 0.163958
v -0.123496 -0.125795 0.163958
v -0.115689 -0.041518 0.018766
v -0.132864 -0.091461 0.165499
v -0.117250 -0.107071 0.079639
v -0.126618 -0.002476 0.167072
v -0.120374 -0.004046 0.004692
v -0.131301 -0.021212 0.107724
v -0.126617 -0.011844 0.010951
v -0.118812 -0.029023 0.079639
v -0.128180 -0.125795 0.037495
v -0.121936 -0.097703 0.145213
v -0.115689 -0.111755 0.046868
v -0.131301 -0.124237 0.163958
v -0.118812 -0.125795 0.004692
v -0.132864 -0.014971 0.145213
v -0.115689 -0.041518 0.004692
v -0.132864 -0.005603 0.168644
v -0.128180 -0.029023 0.035922
v -0.121936 -0.125795 0.146770
v -0.120374 -0.018098 0.088995
v -0.126618 -0.007160 0.168644
f 223 235 239 
f 213 214 215 
f 215 214 217 
f 216 213 219 
f 217 218 223 
f 215 217 224 
f 217 223 224 
f 217 214 226 
f 218 217 226 
f 222 220 227 
f 213 216 228 
f 227 212 229 
f 222 227 229 
f 215 220 230 
f 220 222 230 
f 216 221 231 
f 228 216 231 
f 221 228 231 
f 213 215 232 
f 219 213 232 
f 221 218 233 
f 218 226 233 
f 226 225 233 
f 228 221 233 
f 225 228 233 
f 220 215 234 
f 215 224 234 
f 224 220 234 
f 221 216 235 
f 218 221 235 
f 223 218 235 
f 214 213 236 
f 226 214 236 
f 225 226 236 
f 213 228 236 
f 228 225 236 
f 229 219 237 
f 222 229 237 
f 215 230 237 
f 230 222 237 
f 232 215 237 
f 219 232 237 
f 223 212 238 
f 220 224 238 
f 224 223 238 
f 212 227 238 
f 227 220 238 
f 216 219 239 
f 212 223 239 
f 219 229 239 
f 229 212 239 
f 235 216 239 
o convex_12
v 0.048282 -0.127383 -0.060883
v 0.012351 -0.133628 -0.110856
v 0.012351 -0.130506 -0.110856
v 0.132583 -0.139870 -0.107730
v 0.012351 -0.139870 0.000007
v 0.132583 -0.132066 0.000007
v 0.132583 -0.127383 -0.099917
v 0.106032 -0.142995 0.000007
v 0.012351 -0.138309 -0.096802
v 0.012351 -0.133628 -0.004681
v 0.082612 -0.142995 -0.042152
v 0.012351 -0.127383 -0.103042
v 0.132583 -0.138309 0.000007
v 0.012351 -0.127383 -0.057757
v 0.126322 -0.130506 -0.012494
v 0.012351 -0.139870 -0.054654
v 0.120084 -0.135188 -0.109293
v 0.077928 -0.141431 -0.078061
v 0.076363 -0.142995 0.000007
v 0.132583 -0.139870 -0.028099
v 0.012351 -0.135188 0.000007
f 245 249 260 
f 242 241 244 
f 245 243 246 
f 245 244 247 
f 241 243 248 
f 244 241 248 
f 242 244 249 
f 243 247 250 
f 240 246 251 
f 246 242 251 
f 242 249 251 
f 243 245 252 
f 245 247 252 
f 240 251 253 
f 251 249 253 
f 246 240 254 
f 245 246 254 
f 249 245 254 
f 240 253 254 
f 253 249 254 
f 244 248 255 
f 248 250 255 
f 241 242 256 
f 243 241 256 
f 242 246 256 
f 246 243 256 
f 248 243 257 
f 243 250 257 
f 250 248 257 
f 247 244 258 
f 250 247 258 
f 244 255 258 
f 255 250 258 
f 247 243 259 
f 243 252 259 
f 252 247 259 
f 244 245 260 
f 249 244 260 
o convex_13
v 0.012351 -0.139871 0.000024
v 0.132583 -0.135189 0.171767
v 0.129452 -0.135189 0.171767
v 0.012351 -0.146116 0.170187
v 0.113835 -0.142994 0.010968
v 0.132583 -0.132066 0.000024
v 0.012351 -0.136750 0.149879
v 0.132583 -0.141433 0.170187
v 0.012351 -0.135189 0.000024
v 0.131018 -0.132066 0.142079
v 0.076374 -0.142994 0.000024
v 0.056073 -0.146116 0.165497
v 0.088861 -0.132065 0.060931
v 0.132583 -0.138310 0.000024
v 0.013916 -0.139871 0.170187
v 0.096664 -0.144555 0.170187
v 0.012351 -0.135189 0.078095
v 0.132583 -0.133627 0.167060
v 0.012351 -0.146116 0.160806
v 0.132583 -0.139871 0.010968
v 0.107586 -0.142994 0.000024
v 0.048270 -0.133627 0.074969
v 0.118519 -0.142994 0.067168
f 280 268 283 
f 262 263 264 
f 261 264 267 
f 266 262 268 
f 266 261 269 
f 261 267 269 
f 261 266 271 
f 266 269 273 
f 270 266 273 
f 266 268 274 
f 271 266 274 
f 264 263 275 
f 267 264 275 
f 262 264 276 
f 268 262 276 
f 264 272 276 
f 272 265 276 
f 269 267 277 
f 263 262 278 
f 262 266 278 
f 270 267 278 
f 266 270 278 
f 275 263 278 
f 267 275 278 
f 264 261 279 
f 261 271 279 
f 272 264 279 
f 274 268 280 
f 274 280 281 
f 265 272 281 
f 271 274 281 
f 279 271 281 
f 272 279 281 
f 280 265 281 
f 267 270 282 
f 273 269 282 
f 270 273 282 
f 277 267 282 
f 269 277 282 
f 268 276 283 
f 276 265 283 
f 265 280 283 
o convex_14
v 0.145075 -0.114894 0.053084
v 0.132583 -0.141428 0.163915
v 0.134146 -0.141428 0.163915
v 0.132583 -0.139872 -0.107705
v 0.132583 -0.114889 -0.093670
v 0.143513 -0.136749 -0.107705
v 0.137269 -0.114894 0.157705
v 0.143513 -0.133624 0.168621
v 0.141952 -0.114889 -0.107705
v 0.143513 -0.114894 0.171740
v 0.132583 -0.132062 0.170181
v 0.145075 -0.127383 -0.062426
v 0.140389 -0.139872 -0.103027
v 0.140389 -0.138308 0.170181
v 0.145075 -0.114889 -0.073370
f 295 289 298 
f 286 285 287 
f 287 285 288 
f 287 288 292 
f 289 287 292 
f 288 290 293 
f 291 284 293 
f 288 285 294 
f 290 288 294 
f 293 290 294 
f 284 291 295 
f 291 289 295 
f 286 287 296 
f 287 289 296 
f 285 286 297 
f 289 291 297 
f 291 293 297 
f 294 285 297 
f 293 294 297 
f 286 296 297 
f 296 289 297 
f 292 288 298 
f 289 292 298 
f 288 293 298 
f 293 284 298 
f 284 295 298 
o convex_15
v 0.116966 0.125575 0.090572
v 0.134144 0.131818 0.173313
v 0.134144 0.125575 0.173313
v 0.077932 0.134944 0.173313
v 0.134144 0.131818 0.090572
v 0.081057 0.128698 0.090572
v 0.077932 0.128698 0.171757
v 0.077932 0.134944 0.090572
v 0.134144 0.122452 0.167068
v 0.113841 0.134944 0.120250
v 0.132582 0.125575 0.092143
v 0.134144 0.133381 0.171757
v 0.110721 0.134944 0.171757
v 0.131014 0.133381 0.103078
f 308 310 312 
f 301 300 302 
f 300 301 303 
f 303 299 304 
f 301 302 305 
f 304 305 306 
f 303 304 306 
f 305 302 306 
f 303 301 307 
f 304 299 307 
f 301 305 307 
f 305 304 307 
f 306 302 308 
f 299 303 309 
f 307 299 309 
f 303 307 309 
f 300 303 310 
f 310 308 311 
f 302 300 311 
f 308 302 311 
f 300 310 311 
f 303 306 312 
f 306 308 312 
f 310 303 312 
o convex_16
v 0.143513 -0.108634 -0.095245
v 0.138831 0.131821 -0.090558
v 0.134145 0.131821 -0.090558
v 0.143510 0.131821 -0.107731
v 0.135707 -0.110180 -0.107733
v 0.134145 0.131821 -0.107731
v 0.132583 -0.114889 -0.093682
v 0.146634 0.106826 -0.090558
v 0.148198 0.123996 -0.104606
v 0.141951 -0.114889 -0.106168
v 0.143513 -0.113319 -0.092119
v 0.132583 -0.002449 -0.101484
v 0.138831 -0.002449 -0.090558
v 0.145073 0.038121 -0.107731
v 0.132583 -0.111749 -0.101484
v 0.148198 0.127112 -0.099924
f 323 321 328 
f 315 314 316 
f 315 316 318 
f 316 317 318 
f 314 315 320 
f 321 313 322 
f 313 321 323 
f 322 313 323 
f 319 322 323 
f 315 318 324 
f 319 315 324 
f 315 319 325 
f 320 315 325 
f 319 323 325 
f 323 320 325 
f 317 316 326 
f 316 321 326 
f 322 317 326 
f 321 322 326 
f 318 317 327 
f 317 322 327 
f 322 319 327 
f 324 318 327 
f 319 324 327 
f 316 314 328 
f 314 320 328 
f 321 316 328 
f 320 323 328 
o convex_17
v 0.143513 -0.025893 0.173329
v 0.137267 -0.114889 -0.092118
v 0.135706 -0.022768 -0.084297
v 0.143513 -0.005589 -0.092118
v 0.135706 -0.002464 0.173329
v 0.145075 -0.113326 0.170185
v 0.137267 -0.114889 0.157713
v 0.145075 -0.114889 -0.076476
v 0.132583 -0.066479 -0.031213
v 0.145075 -0.035258 0.031251
v 0.132583 -0.032133 0.046815
v 0.137269 -0.005589 -0.092118
v 0.141952 -0.002464 0.171744
v 0.134146 -0.105513 -0.015597
v 0.138829 -0.114889 0.171744
v 0.143513 -0.114889 -0.092118
v 0.138829 -0.002464 -0.092118
v 0.134146 -0.029019 -0.065563
v 0.135706 -0.002464 0.068693
v 0.145075 -0.086772 0.171744
v 0.145075 -0.071156 -0.060886
v 0.143513 -0.019643 0.171744
v 0.132583 -0.044634 0.037487
v 0.143513 -0.004027 -0.073358
v 0.135706 -0.114889 -0.034331
v 0.135706 -0.013403 -0.084297
v 0.134146 -0.029019 0.110865
v 0.132583 -0.058676 -0.037449
v 0.143513 -0.114889 0.171744
f 334 348 357 
f 335 330 336 
f 334 336 338 
f 332 330 340 
f 333 329 341 
f 337 330 342 
f 329 333 343 
f 333 335 343 
f 335 336 343 
f 330 332 344 
f 336 330 344 
f 332 336 344 
f 332 340 345 
f 333 341 345 
f 331 330 346 
f 339 333 347 
f 345 340 347 
f 333 345 347 
f 334 338 348 
f 336 332 349 
f 332 338 349 
f 338 336 349 
f 341 329 350 
f 329 348 350 
f 348 338 350 
f 339 337 351 
f 342 335 351 
f 337 342 351 
f 338 332 352 
f 332 345 352 
f 345 341 352 
f 350 338 352 
f 341 350 352 
f 330 335 353 
f 342 330 353 
f 335 342 353 
f 330 331 354 
f 340 330 354 
f 331 346 354 
f 346 339 354 
f 347 340 354 
f 339 347 354 
f 335 333 355 
f 333 339 355 
f 351 335 355 
f 339 351 355 
f 330 337 356 
f 337 339 356 
f 346 330 356 
f 339 346 356 
f 336 334 357 
f 329 343 357 
f 343 336 357 
f 348 329 357 
o convex_18
v -0.120373 0.114639 0.040596
v -0.125057 -0.002464 -0.112417
v -0.129740 0.063112 -0.006246
v -0.123496 -0.002464 0.060904
v -0.115689 0.122452 -0.107718
v -0.115689 -0.002464 -0.098353
v -0.125057 0.122452 -0.110839
v -0.128178 0.122452 0.060904
v -0.117251 0.044379 0.039035
v -0.128178 0.000666 0.060904
v -0.118812 0.030330 0.060904
v -0.129740 0.105260 0.037475
v -0.129740 0.022541 0.054644
v -0.115689 0.100589 -0.060875
v -0.123496 0.122452 0.060904
v -0.128178 0.097447 -0.049950
v -0.115689 -0.002464 -0.106157
v -0.117251 0.092776 0.004663
v -0.120373 0.061535 -0.112417
v -0.129740 0.025647 0.032792
v -0.118812 0.045957 0.060904
v -0.117251 0.055311 0.039035
v -0.128178 0.122452 0.018744
f 373 369 380 
f 361 359 363 
f 362 364 365 
f 359 361 367 
f 361 365 367 
f 361 363 368 
f 365 361 368 
f 363 366 368 
f 367 365 370 
f 369 360 370 
f 365 369 370 
f 363 362 371 
f 366 363 371 
f 358 362 372 
f 362 365 372 
f 365 368 372 
f 359 360 373 
f 364 359 373 
f 360 369 373 
f 363 359 374 
f 362 363 374 
f 362 358 375 
f 371 362 375 
f 359 364 376 
f 364 362 376 
f 374 359 376 
f 362 374 376 
f 360 359 377 
f 359 367 377 
f 370 360 377 
f 367 370 377 
f 368 366 378 
f 358 372 378 
f 372 368 378 
f 366 371 379 
f 375 358 379 
f 371 375 379 
f 358 378 379 
f 378 366 379 
f 365 364 380 
f 369 365 380 
f 364 373 380 
o convex_19
v 0.056069 0.124014 -0.007783
v 0.134144 0.131820 0.090572
v 0.132579 0.133381 0.079628
v 0.013913 0.134944 0.090572
v 0.096660 0.133380 -0.090545
v 0.013913 0.133380 -0.092118
v 0.134144 0.125576 -0.092118
v 0.129449 0.125576 0.090572
v 0.013913 0.128699 0.090572
v 0.082608 0.136505 -0.031210
v 0.013913 0.128699 -0.092118
v 0.131014 0.133381 -0.079618
v 0.107594 0.136505 0.067145
v 0.127895 0.124014 -0.067100
v 0.017043 0.125575 0.018737
v 0.046713 0.136505 0.088998
v 0.031095 0.127139 -0.092118
v 0.134144 0.131820 -0.092118
v 0.062318 0.136505 -0.020283
v 0.134144 0.125576 0.079628
v 0.087304 0.134944 -0.076489
v 0.081055 0.124014 -0.051507
v 0.116962 0.125576 0.090572
v 0.068568 0.136505 0.090572
v 0.124765 0.134944 0.056219
f 393 383 405 
f 382 384 388 
f 384 386 389 
f 388 384 389 
f 386 387 391 
f 389 386 391 
f 392 390 393 
f 388 381 394 
f 389 391 395 
f 393 390 396 
f 391 387 397 
f 387 394 397 
f 381 395 397 
f 395 391 397 
f 383 382 398 
f 386 385 398 
f 387 386 398 
f 382 387 398 
f 392 383 398 
f 385 392 398 
f 386 384 399 
f 390 386 399 
f 384 396 399 
f 396 390 399 
f 387 382 400 
f 382 388 400 
f 388 394 400 
f 394 387 400 
f 385 386 401 
f 386 390 401 
f 392 385 401 
f 390 392 401 
f 394 381 402 
f 381 397 402 
f 397 394 402 
f 381 388 403 
f 388 389 403 
f 395 381 403 
f 389 395 403 
f 382 383 404 
f 384 382 404 
f 383 393 404 
f 396 384 404 
f 393 396 404 
f 383 392 405 
f 392 393 405 
o convex_20
v 0.013913 0.127137 0.093706
v 0.077932 0.134943 0.173313
v 0.063876 0.134943 0.173313
v 0.066997 0.136505 0.090572
v 0.013913 0.134943 0.171757
v 0.077932 0.128699 0.171757
v 0.077932 0.130261 0.090572
v 0.013913 0.134943 0.090572
v 0.013913 0.128699 0.170194
v 0.077932 0.134943 0.090572
v 0.013913 0.127137 0.131177
v 0.051381 0.136505 0.101515
v 0.077932 0.128699 0.149896
f 412 411 418 
f 407 408 411 
f 407 411 412 
f 409 412 413 
f 406 410 413 
f 412 406 413 
f 410 406 414 
f 408 410 414 
f 411 408 414 
f 409 407 415 
f 407 412 415 
f 412 409 415 
f 406 411 416 
f 414 406 416 
f 411 414 416 
f 408 407 417 
f 407 409 417 
f 410 408 417 
f 409 413 417 
f 413 410 417 
f 411 406 418 
f 406 412 418 
o convex_21
v 0.146636 0.066229 -0.032805
v 0.138829 0.131821 0.023429
v 0.134144 0.131821 0.023429
v 0.137269 -0.002464 0.023429
v 0.134144 0.131821 -0.090557
v 0.141952 -0.002464 -0.090557
v 0.146636 0.127115 -0.090557
v 0.134144 0.019408 -0.018735
v 0.143513 0.011601 0.023429
v 0.143513 0.127115 0.023429
v 0.137269 0.003793 -0.088984
v 0.143513 0.000664 -0.090557
v 0.134144 0.010036 0.021867
v 0.146636 0.094333 -0.010925
v 0.145075 0.031896 0.014057
v 0.140390 -0.002464 0.023429
v 0.146636 0.100576 -0.088984
v 0.146636 0.122436 -0.040571
v 0.137269 -0.002464 -0.053078
v 0.143513 0.130257 -0.090557
f 428 425 438 
f 420 421 422 
f 421 420 423 
f 424 423 425 
f 421 423 426 
f 420 422 427 
f 420 427 428 
f 423 424 429 
f 426 423 429 
f 424 425 430 
f 422 421 431 
f 421 426 431 
f 426 429 431 
f 419 425 432 
f 432 428 433 
f 428 427 433 
f 430 419 433 
f 427 430 433 
f 419 432 433 
f 422 424 434 
f 427 422 434 
f 424 430 434 
f 430 427 434 
f 425 419 435 
f 430 425 435 
f 419 430 435 
f 425 428 436 
f 432 425 436 
f 428 432 436 
f 424 422 437 
f 429 424 437 
f 422 431 437 
f 431 429 437 
f 423 420 438 
f 425 423 438 
f 420 428 438 
o convex_22
v -0.082898 -0.141433 0.000007
v 0.012351 -0.138312 0.092127
v -0.004832 -0.138312 0.109309
v -0.082898 -0.133626 0.000007
v -0.082898 -0.144554 0.109309
v 0.012351 -0.139871 0.000018
v -0.004832 -0.144554 0.099937
v -0.082898 -0.136750 0.104623
v 0.012351 -0.135188 0.076506
v 0.012351 -0.135188 0.000018
v -0.081331 -0.133626 0.064009
v 0.012351 -0.142993 0.092127
v -0.004832 -0.144554 0.109309
v -0.082898 -0.144554 0.092127
v -0.062591 -0.141433 0.000007
v -0.068838 -0.133626 0.000007
v -0.082898 -0.138312 0.109309
f 446 443 455 
f 442 439 443 
f 442 443 446 
f 441 440 447 
f 440 444 447 
f 446 441 447 
f 447 444 448 
f 442 446 449 
f 446 447 449 
f 440 441 450 
f 444 440 450 
f 445 444 450 
f 445 450 451 
f 441 443 451 
f 443 445 451 
f 450 441 451 
f 443 439 452 
f 445 443 452 
f 445 452 453 
f 439 442 453 
f 444 445 453 
f 448 444 453 
f 452 439 453 
f 448 453 454 
f 447 448 454 
f 449 447 454 
f 442 449 454 
f 453 442 454 
f 443 441 455 
f 441 446 455 
o convex_23
v -0.011079 -0.147679 0.168638
v -0.082898 -0.144555 0.109315
v -0.064148 -0.147679 0.148337
v -0.082898 -0.138312 0.160830
v 0.004538 -0.136751 0.118685
v -0.003266 -0.146116 0.114000
v 0.012351 -0.139873 0.168638
v -0.082898 -0.138312 0.109315
v -0.082898 -0.146116 0.170206
v 0.012351 -0.144555 0.118685
v 0.012351 -0.136751 0.149899
v -0.003266 -0.138312 0.109315
v 0.012351 -0.146116 0.170206
v -0.082898 -0.141435 0.170206
v -0.004832 -0.144555 0.109315
f 467 465 470 
f 456 458 461 
f 458 457 461 
f 457 459 463 
f 459 460 463 
f 458 456 464 
f 457 458 464 
f 459 457 464 
f 462 465 466 
f 460 459 466 
f 459 462 466 
f 465 460 466 
f 457 463 467 
f 463 460 467 
f 460 465 467 
f 456 461 468 
f 464 456 468 
f 461 465 468 
f 465 462 468 
f 462 459 469 
f 459 464 469 
f 464 468 469 
f 468 462 469 
f 461 457 470 
f 465 461 470 
f 457 467 470 
o convex_24
v -0.134424 0.072486 0.168644
v -0.126617 -0.002464 0.060904
v -0.123497 -0.002464 0.060904
v -0.128178 0.072486 0.060904
v -0.118811 0.044372 0.062476
v -0.126617 -0.002464 0.167073
v -0.128178 0.072486 0.167073
v -0.132862 0.005349 0.140528
v -0.131300 0.022524 0.092142
v -0.121936 0.072486 0.060904
v -0.132862 -0.002464 0.167073
v -0.120374 0.025649 0.092142
v -0.132862 0.070923 0.115555
v -0.128178 0.000661 0.060904
v -0.129740 0.072486 0.070290
v -0.134424 0.041254 0.163951
v -0.126617 0.027205 0.165512
v -0.118811 0.030330 0.060904
v -0.123497 -0.002464 0.079645
f 473 488 489 
f 473 472 474 
f 472 473 476 
f 471 476 477 
f 474 471 477 
f 473 474 480 
f 474 477 480 
f 477 475 480 
f 472 476 481 
f 476 471 481 
f 475 477 482 
f 474 472 484 
f 478 479 484 
f 472 481 484 
f 481 478 484 
f 471 474 485 
f 483 471 485 
f 479 483 485 
f 474 484 485 
f 484 479 485 
f 479 478 486 
f 481 471 486 
f 478 481 486 
f 471 483 486 
f 483 479 486 
f 477 476 487 
f 476 482 487 
f 482 477 487 
f 473 480 488 
f 480 475 488 
f 475 482 488 
f 488 482 489 
f 476 473 489 
f 482 476 489 
o convex_25
v -0.134426 0.111516 0.167073
v -0.128180 0.072486 0.060904
v -0.129740 0.102145 0.062476
v -0.123498 0.122452 0.163951
v -0.128180 0.072486 0.167073
v -0.121935 0.072486 0.060904
v -0.123498 0.122452 0.060904
v -0.134426 0.072486 0.159258
v -0.129740 0.122452 0.065597
v -0.132863 0.122452 0.168644
v -0.132863 0.072486 0.117116
v -0.121935 0.097469 0.060904
v -0.132863 0.102145 0.113994
v -0.134426 0.072486 0.168644
f 494 499 503 
f 494 491 495 
f 493 494 495 
f 491 492 496 
f 495 491 496 
f 491 494 497 
f 493 496 498 
f 496 492 498 
f 494 493 499 
f 498 490 499 
f 493 498 499 
f 492 491 500 
f 491 497 500 
f 493 495 501 
f 496 493 501 
f 495 496 501 
f 497 490 502 
f 490 498 502 
f 498 492 502 
f 492 500 502 
f 500 497 502 
f 490 497 503 
f 497 494 503 
f 499 490 503 
o convex_26
v -0.029805 0.124014 0.067128
v 0.013913 0.134944 0.171767
v 0.006103 0.134944 0.171767
v -0.029805 0.134944 -0.092118
v 0.013913 0.128699 -0.092118
v -0.031370 0.134944 0.170192
v 0.013913 0.128699 0.170192
v 0.013913 0.133382 -0.092118
v -0.031370 0.125576 -0.051513
v -0.031370 0.128700 0.170192
v 0.013913 0.127137 -0.020283
v -0.031370 0.128700 -0.092118
v 0.013913 0.127137 0.134287
v -0.025120 0.124014 0.090556
v -0.011069 0.134944 -0.082742
v 0.013913 0.134944 0.087430
v -0.031370 0.134944 -0.092118
v -0.025120 0.125576 -0.049937
f 508 514 521 
f 506 505 507 
f 506 507 509 
f 505 506 510 
f 508 505 510 
f 508 507 511 
f 505 508 511 
f 509 512 513 
f 506 509 513 
f 510 506 513 
f 512 504 513 
f 508 510 514 
f 507 508 515 
f 508 512 515 
f 512 509 515 
f 514 510 516 
f 514 516 517 
f 510 513 517 
f 513 504 517 
f 504 514 517 
f 516 510 517 
f 507 505 518 
f 511 507 518 
f 511 518 519 
f 505 511 519 
f 518 505 519 
f 509 507 520 
f 507 515 520 
f 515 509 520 
f 504 512 521 
f 512 508 521 
f 514 504 521 
