# Blender v3.6.23 OBJ File: '香港街道.blend'
# www.blender.org
o surface_collision_SM_Road_Track.001
v 193.000000 -17.000000 -0.100000
v 198.000015 -21.999981 -0.100000
v 198.000000 -16.999981 -0.100000
v 193.000015 -22.000000 -0.100000
v 193.000000 -7.000000 -0.100000
v 198.000015 -11.999981 -0.100000
v 198.000000 -6.999981 -0.100000
v 193.000015 -12.000000 -0.100000
v 193.000000 -12.000000 -0.100000
v 198.000015 -16.999981 -0.100000
v 198.000000 -11.999981 -0.100000
v 193.000015 -17.000000 -0.100000
vt 0.000000 1.000000
vt 1.000000 0.000000
vt 1.000000 1.000000
vt 0.000000 0.000000
vt 0.000000 1.000000
vt 1.000000 0.000000
vt 1.000000 1.000000
vt 0.000000 0.000000
vt 0.000000 1.000000
vt 1.000000 0.000000
vt 1.000000 1.000000
vt 0.000000 0.000000
vn 0.0000 0.0000 1.0000
s off
f 1/1/1 2/2/1 3/3/1
f 2/2/1 1/1/1 4/4/1
f 5/5/1 6/6/1 7/7/1
f 6/6/1 5/5/1 8/8/1
f 9/9/1 10/10/1 11/11/1
f 10/10/1 9/9/1 12/12/1
