# Blender v3.6.23 OBJ File: '香港街道.blend'
# www.blender.org
o surface_collision_SM_Road_Track.001
v 193.000000 63.000000 -0.100000
v 198.000015 58.000019 -0.100000
v 198.000000 63.000019 -0.100000
v 193.000015 58.000000 -0.100000
v 193.000000 68.000000 -0.100000
v 198.000015 63.000019 -0.100000
v 198.000000 68.000015 -0.100000
v 193.000015 63.000000 -0.100000
v 193.000000 73.000000 -0.100000
v 198.000015 68.000015 -0.100000
v 198.000000 73.000015 -0.100000
v 193.000015 68.000000 -0.100000
v 193.000000 78.000000 -0.100000
v 198.000015 73.000015 -0.100000
v 198.000000 78.000015 -0.100000
v 193.000015 73.000000 -0.100000
vt 0.000000 1.000000
vt 1.000000 0.000000
vt 1.000000 1.000000
vt 0.000000 0.000000
vt 0.000000 1.000000
vt 1.000000 0.000000
vt 1.000000 1.000000
vt 0.000000 0.000000
vt 0.000000 1.000000
vt 1.000000 0.000000
vt 1.000000 1.000000
vt 0.000000 0.000000
vt 0.000000 1.000000
vt 1.000000 0.000000
vt 1.000000 1.000000
vt 0.000000 0.000000
vn 0.0000 0.0000 1.0000
s off
f 1/1/1 2/2/1 3/3/1
f 2/2/1 1/1/1 4/4/1
f 5/5/1 6/6/1 7/7/1
f 6/6/1 5/5/1 8/8/1
f 9/9/1 10/10/1 11/11/1
f 10/10/1 9/9/1 12/12/1
f 13/13/1 14/14/1 15/15/1
f 14/14/1 13/13/1 16/16/1
