# Blender v3.6.23 OBJ File: '香港街道.blend'
# www.blender.org
o surface_collision_SM_Road_Track.001
v 168.000000 8.000014 -0.100000
v 173.000015 13.000004 -0.100000
v 168.000015 13.000014 -0.100000
v 173.000000 8.000004 -0.100000
v 173.000000 8.000014 -0.100000
v 178.000015 13.000004 -0.100000
v 173.000015 13.000014 -0.100000
v 178.000000 8.000004 -0.100000
vt 0.000000 1.000000
vt 1.000000 0.000000
vt 1.000000 1.000000
vt 0.000000 0.000000
vt 0.000000 1.000000
vt 1.000000 0.000000
vt 1.000000 1.000000
vt 0.000000 0.000000
vn 0.0000 0.0000 1.0000
s off
f 1/1/1 2/2/1 3/3/1
f 2/2/1 1/1/1 4/4/1
f 5/5/1 6/6/1 7/7/1
f 6/6/1 5/5/1 8/8/1
