o convex_0
v -0.030990 -0.053631 -0.071714
v -0.013205 -0.036619 -0.076352
v -0.013205 -0.057500 -0.069392
v -0.013205 -0.059048 -0.077899
v -0.047236 -0.036619 -0.075578
v -0.047236 -0.036619 -0.069392
v -0.040271 -0.040488 -0.079445
v -0.013205 -0.036619 -0.078673
v -0.018621 -0.059820 -0.069392
v -0.030221 -0.052860 -0.077126
v -0.028675 -0.049764 -0.079445
v -0.043369 -0.036619 -0.069392
v -0.035634 -0.050537 -0.069392
v -0.042592 -0.036619 -0.079445
v -0.043369 -0.042033 -0.076352
v -0.021713 -0.057500 -0.077126
f 10 11 16 
f 2 3 4 
f 2 5 6 
f 2 4 8 
f 5 2 8 
f 4 3 9 
f 3 6 9 
f 8 4 11 
f 10 7 11 
f 3 2 12 
f 2 6 12 
f 6 3 12 
f 1 9 13 
f 9 6 13 
f 10 1 13 
f 5 8 14 
f 11 7 14 
f 8 11 14 
f 6 5 15 
f 7 10 15 
f 13 6 15 
f 10 13 15 
f 5 14 15 
f 14 7 15 
f 4 9 16 
f 9 1 16 
f 1 10 16 
f 11 4 16 
o convex_1
v -0.017073 -0.000267 -0.072487
v -0.033314 -0.030431 -0.077899
v -0.033314 -0.030431 -0.075579
v -0.013205 -0.036619 -0.076353
v -0.029446 -0.010323 -0.078674
v -0.033314 -0.004911 -0.070940
v -0.013205 -0.018062 -0.070940
v -0.013205 -0.030431 -0.078674
v -0.033314 -0.000267 -0.074034
v -0.027126 -0.036619 -0.078674
v -0.013205 -0.004135 -0.070940
v -0.019394 -0.000267 -0.074034
v -0.033314 -0.010323 -0.078674
v -0.027126 -0.036619 -0.076353
v -0.033314 -0.000267 -0.070940
v -0.013205 -0.004911 -0.073260
f 24 28 32 
f 18 19 22 
f 22 19 23 
f 23 20 24 
f 18 22 25 
f 19 18 26 
f 24 20 26 
f 21 24 26 
f 22 23 27 
f 23 24 27 
f 24 21 28 
f 25 17 28 
f 21 25 28 
f 25 21 29 
f 18 25 29 
f 26 18 29 
f 21 26 29 
f 23 19 30 
f 20 23 30 
f 19 26 30 
f 26 20 30 
f 17 25 31 
f 25 22 31 
f 27 17 31 
f 22 27 31 
f 17 27 32 
f 27 24 32 
f 28 17 32 
o convex_2
v -0.048008 -0.052860 0.032691
v -0.032541 -0.059820 0.035022
v -0.033315 -0.059047 0.035022
v -0.041050 -0.038939 -0.069392
v -0.054197 -0.038939 0.035022
v -0.033315 -0.052860 -0.064742
v -0.046462 -0.039714 -0.067829
v -0.058064 -0.040489 0.035022
v -0.033315 -0.063689 0.035022
v -0.032541 -0.047450 -0.066296
v -0.039504 -0.047450 -0.067829
v -0.042597 -0.057499 0.031925
v -0.032541 -0.052087 -0.069392
v -0.058064 -0.038939 0.029605
v -0.051873 -0.048993 0.034245
v -0.032541 -0.058274 0.024964
v -0.045690 -0.038939 -0.069392
v -0.053420 -0.038939 0.030371
v -0.043371 -0.043581 -0.067829
v -0.032541 -0.063689 0.032691
v -0.037183 -0.061368 0.032691
v -0.054969 -0.045129 0.034245
f 51 47 54 
f 34 35 37 
f 34 37 40 
f 34 40 41 
f 41 33 44 
f 43 38 44 
f 33 43 44 
f 42 34 45 
f 36 42 45 
f 38 43 45 
f 37 36 46 
f 40 37 46 
f 39 40 46 
f 33 41 47 
f 41 40 47 
f 35 34 48 
f 34 42 48 
f 42 36 48 
f 36 45 49 
f 45 43 49 
f 46 36 49 
f 39 46 49 
f 36 37 50 
f 37 35 50 
f 35 48 50 
f 48 36 50 
f 43 33 51 
f 33 47 51 
f 39 49 51 
f 49 43 51 
f 34 41 52 
f 41 38 52 
f 45 34 52 
f 38 45 52 
f 38 41 53 
f 41 44 53 
f 44 38 53 
f 40 39 54 
f 47 40 54 
f 39 51 54 
o convex_3
v -0.032541 -0.053638 -0.062422
v -0.013979 -0.070646 0.028828
v -0.013205 -0.070646 0.028828
v -0.032541 -0.059818 0.033468
v -0.013205 -0.057502 -0.062422
v -0.031767 -0.048222 -0.064742
v -0.013205 -0.067555 0.035022
v -0.013979 -0.061368 -0.069392
v -0.031767 -0.064460 0.031925
v -0.021715 -0.059050 -0.067062
v -0.020940 -0.069101 0.031925
v -0.032541 -0.048222 -0.069392
v -0.030218 -0.054409 -0.069392
v -0.013205 -0.057502 -0.069392
v -0.032541 -0.063687 0.035022
v -0.031767 -0.058277 0.021091
v -0.016299 -0.070646 0.035022
v -0.025578 -0.067555 0.034245
v -0.013205 -0.061368 -0.069392
f 62 68 73 
f 59 60 61 
f 57 59 61 
f 57 56 62 
f 64 62 65 
f 55 58 66 
f 58 60 66 
f 63 55 67 
f 62 64 67 
f 64 63 67 
f 55 66 67 
f 66 62 67 
f 59 57 68 
f 60 59 68 
f 66 60 68 
f 62 66 68 
f 58 55 69 
f 61 58 69 
f 55 63 69 
f 60 58 70 
f 61 60 70 
f 58 61 70 
f 56 57 71 
f 57 61 71 
f 62 56 71 
f 65 62 71 
f 61 69 71 
f 71 69 72 
f 63 64 72 
f 64 65 72 
f 69 63 72 
f 65 71 72 
f 57 62 73 
f 68 57 73 
o convex_4
v -0.062704 -0.031977 0.035022
v -0.041822 -0.038164 -0.067839
v -0.041822 -0.038939 -0.067839
v -0.055743 -0.021150 -0.069392
v -0.061930 -0.021150 0.031148
v -0.054197 -0.038164 0.032691
v -0.047236 -0.038939 -0.067062
v -0.051878 -0.021150 -0.063965
v -0.065797 -0.021150 0.028051
v -0.058834 -0.038939 0.031925
v -0.052653 -0.029660 -0.069392
v -0.065023 -0.026567 0.034245
v -0.054971 -0.038939 0.035022
v -0.055743 -0.023471 -0.066296
v -0.062704 -0.021150 0.035022
v -0.051104 -0.021925 -0.069392
v -0.062704 -0.031977 0.033468
v -0.052653 -0.031977 -0.059335
f 90 84 91 
f 75 78 79 
f 76 75 79 
f 77 78 81 
f 78 75 81 
f 78 77 82 
f 80 76 83 
f 76 80 84 
f 76 79 86 
f 74 83 86 
f 83 76 86 
f 82 77 87 
f 77 84 87 
f 85 82 87 
f 79 78 88 
f 78 82 88 
f 85 74 88 
f 82 85 88 
f 86 79 88 
f 74 86 88 
f 75 76 89 
f 81 75 89 
f 77 81 89 
f 76 84 89 
f 84 77 89 
f 83 74 90 
f 74 85 90 
f 87 84 90 
f 85 87 90 
f 80 83 91 
f 84 80 91 
f 83 90 91 
o convex_5
v -0.068892 -0.000267 0.035022
v -0.055744 -0.021150 -0.069392
v -0.051877 -0.021150 -0.069392
v -0.066571 -0.021150 0.035022
v -0.058839 -0.000267 -0.069392
v -0.065023 -0.000267 0.032691
v -0.054971 -0.000267 -0.065519
v -0.062705 -0.021150 0.035022
v -0.058839 -0.011867 -0.065519
v -0.068892 -0.006457 0.031925
v -0.052651 -0.020373 -0.058558
v -0.067345 -0.018828 0.034245
v -0.060385 -0.000267 -0.009847
v -0.056517 -0.020373 -0.068605
v -0.061932 -0.020373 0.028828
v -0.058839 -0.008777 -0.069392
v -0.064250 -0.001042 -0.016807
v -0.054971 -0.000267 -0.069392
v -0.068118 -0.014962 0.034245
f 107 100 110 
f 93 94 95 
f 94 93 96 
f 96 92 97 
f 96 97 98 
f 95 94 99 
f 92 95 99 
f 97 92 99 
f 94 98 102 
f 99 94 102 
f 98 97 104 
f 102 98 104 
f 93 95 105 
f 95 103 105 
f 103 100 105 
f 97 99 106 
f 99 102 106 
f 104 97 106 
f 102 104 106 
f 96 93 107 
f 93 105 107 
f 105 100 107 
f 92 96 108 
f 101 92 108 
f 96 107 108 
f 107 101 108 
f 94 96 109 
f 96 98 109 
f 98 94 109 
f 95 92 110 
f 92 101 110 
f 103 95 110 
f 100 103 110 
f 101 107 110 
o convex_6
v -0.008564 -0.031965 -0.078674
v -0.013205 -0.061364 -0.072487
v -0.009336 -0.062137 -0.074805
v 0.002264 -0.000267 -0.070940
v -0.013205 -0.004143 -0.070940
v 0.002264 -0.062915 -0.069393
v 0.002264 -0.061364 -0.073261
v -0.013205 -0.055949 -0.078674
v -0.013205 -0.061364 -0.069393
v 0.002264 -0.000267 -0.073260
v -0.006240 -0.055949 -0.078674
v -0.010881 -0.000267 -0.073260
v -0.013205 -0.030432 -0.078674
v -0.005471 -0.035835 -0.078674
v 0.002264 -0.024257 -0.074033
f 117 124 125 
f 114 116 117 
f 116 113 117 
f 113 112 118 
f 112 115 118 
f 112 113 119 
f 114 115 119 
f 115 112 119 
f 113 116 119 
f 116 114 119 
f 114 117 120 
f 117 113 121 
f 113 118 121 
f 118 111 121 
f 115 114 122 
f 114 120 122 
f 122 120 123 
f 111 118 123 
f 118 115 123 
f 120 111 123 
f 115 122 123 
f 111 120 124 
f 117 121 124 
f 121 111 124 
f 120 117 125 
f 124 120 125 
o convex_7
v -0.002377 0.072435 0.041990
v 0.029334 0.070115 0.070600
v 0.028558 0.070886 0.070600
v 0.028558 0.063930 0.035022
v 0.000718 0.067795 0.061308
v 0.028558 0.060061 0.039671
v -0.002377 0.065476 0.035022
v -0.001601 0.075530 0.070600
v 0.016185 0.071659 0.044313
v 0.027012 0.067023 0.070600
v -0.002377 0.071661 0.069823
v 0.029334 0.067795 0.043530
v 0.010772 0.068569 0.035022
v 0.011545 0.074756 0.068273
v 0.029334 0.060061 0.035022
v 0.009999 0.072435 0.042756
v 0.029334 0.066249 0.069050
v -0.002377 0.065476 0.038898
v 0.020826 0.073207 0.069823
v 0.022372 0.070115 0.043530
v -0.002377 0.068569 0.035022
f 138 132 146 
f 127 128 133 
f 127 133 135 
f 135 133 136 
f 126 132 136 
f 133 126 136 
f 130 135 136 
f 128 127 137 
f 129 132 138 
f 132 129 140 
f 131 132 140 
f 137 127 140 
f 129 137 140 
f 126 133 141 
f 138 126 141 
f 133 139 141 
f 139 134 141 
f 130 131 142 
f 127 135 142 
f 135 130 142 
f 140 127 142 
f 131 140 142 
f 131 130 143 
f 132 131 143 
f 136 132 143 
f 130 136 143 
f 133 128 144 
f 139 133 144 
f 134 139 144 
f 128 137 145 
f 137 129 145 
f 129 138 145 
f 138 141 145 
f 141 134 145 
f 144 128 145 
f 134 144 145 
f 132 126 146 
f 126 138 146 
o convex_8
v 0.058722 -0.031983 -0.051598
v 0.042483 -0.059822 0.031925
v 0.043257 -0.059822 0.031925
v 0.064910 -0.027337 0.035022
v 0.042483 -0.043580 -0.068616
v 0.061817 -0.040489 0.032691
v 0.044032 -0.048216 -0.068616
v 0.054859 -0.027337 -0.069392
v 0.042483 -0.055952 0.035022
v 0.068006 -0.028113 0.031925
v 0.054859 -0.049764 0.034245
v 0.052538 -0.038943 -0.068616
v 0.058722 -0.027337 -0.069392
v 0.062589 -0.027337 0.017227
v 0.055631 -0.027337 -0.057005
v 0.042483 -0.048216 -0.069392
v 0.049445 -0.055179 0.035022
v 0.042483 -0.055179 0.030371
v 0.068006 -0.027337 0.035022
v 0.048671 -0.043580 -0.069392
v 0.058722 -0.045125 0.033468
v 0.064910 -0.035074 0.032691
v 0.058722 -0.028889 -0.067829
f 156 168 169 
f 148 149 155 
f 151 148 155 
f 147 152 158 
f 154 150 159 
f 150 154 160 
f 155 150 160 
f 154 151 161 
f 160 154 161 
f 149 148 162 
f 148 151 162 
f 153 149 162 
f 151 154 162 
f 154 159 162 
f 149 153 163 
f 155 149 163 
f 150 155 163 
f 151 155 164 
f 155 160 164 
f 160 161 164 
f 161 151 164 
f 159 150 165 
f 156 159 165 
f 150 163 165 
f 163 157 165 
f 159 158 166 
f 153 162 166 
f 162 159 166 
f 163 153 166 
f 157 163 166 
f 158 152 167 
f 152 165 167 
f 165 157 167 
f 157 166 167 
f 166 158 167 
f 152 147 168 
f 165 152 168 
f 156 165 168 
f 147 158 169 
f 159 156 169 
f 158 159 169 
f 168 147 169 
o convex_9
v -0.044142 0.038399 -0.072488
v -0.058838 -0.000267 -0.070941
v -0.058838 -0.000267 -0.069393
v -0.032541 -0.000267 -0.071715
v -0.054192 0.008241 -0.078674
v -0.030999 0.045361 -0.078672
v -0.030999 0.049233 -0.069392
v -0.032541 0.006701 -0.078674
v -0.052646 0.026029 -0.069392
v -0.045684 0.029900 -0.079445
v -0.054965 0.018300 -0.076351
v -0.055742 -0.000267 -0.074034
v -0.033321 -0.000267 -0.070941
v -0.030999 0.015979 -0.078672
v -0.037187 0.043811 -0.077125
v -0.049554 0.029900 -0.076351
v -0.032541 -0.000267 -0.074034
v -0.054192 -0.000267 -0.069393
v -0.058058 0.009792 -0.069393
v -0.056513 0.012108 -0.077125
v -0.037187 0.045361 -0.069392
f 176 184 190 
f 172 171 173 
f 177 174 179 
f 173 171 181 
f 171 174 181 
f 174 177 181 
f 172 173 182 
f 173 176 182 
f 176 173 183 
f 175 176 183 
f 179 175 183 
f 177 179 183 
f 176 175 184 
f 175 179 184 
f 184 179 185 
f 178 170 185 
f 180 178 185 
f 179 180 185 
f 170 184 185 
f 173 181 186 
f 181 177 186 
f 183 173 186 
f 177 183 186 
f 178 172 187 
f 176 178 187 
f 172 182 187 
f 182 176 187 
f 171 172 188 
f 172 178 188 
f 178 180 188 
f 188 180 189 
f 174 171 189 
f 179 174 189 
f 180 179 189 
f 171 188 189 
f 170 178 190 
f 178 176 190 
f 184 170 190 
o convex_10
v -0.025579 0.035311 -0.076353
v -0.032541 -0.000267 -0.074034
v -0.018617 -0.000267 -0.074034
v -0.001604 0.035311 -0.070940
v -0.006248 0.030665 -0.078674
v 0.001490 -0.000267 -0.070940
v -0.030992 0.000510 -0.070940
v -0.029446 0.006698 -0.078672
v 0.001490 -0.000267 -0.073260
v -0.030992 0.029119 -0.078674
v 0.001490 0.035311 -0.073260
v -0.030992 0.029119 -0.075579
v 0.001490 0.005921 -0.070166
v -0.006248 0.035311 -0.078674
v -0.016295 0.001283 -0.070166
v -0.032541 0.006698 -0.078672
f 202 200 206 
f 192 193 196 
f 192 196 197 
f 193 192 198 
f 196 193 199 
f 193 198 199 
f 198 195 199 
f 195 198 200 
f 191 194 201 
f 199 195 201 
f 196 199 201 
f 194 191 202 
f 197 194 202 
f 192 197 202 
f 191 200 202 
f 201 194 203 
f 196 201 203 
f 200 191 204 
f 195 200 204 
f 191 201 204 
f 201 195 204 
f 194 197 205 
f 197 196 205 
f 203 194 205 
f 196 203 205 
f 198 192 206 
f 200 198 206 
f 192 202 206 
o convex_11
v -0.028673 0.065475 0.040434
v -0.002377 0.075530 0.073687
v -0.007793 0.075530 0.073687
v -0.029447 0.065475 0.073687
v -0.002377 0.065475 0.035025
v -0.028673 0.057741 0.036574
v -0.003151 0.072435 0.041982
v -0.002377 0.071661 0.070594
v -0.024805 0.071661 0.072139
v -0.019388 0.070114 0.043531
v -0.018612 0.066249 0.035025
v -0.029447 0.069341 0.068274
v -0.029447 0.061612 0.035025
v -0.002377 0.065475 0.038894
v -0.002377 0.068566 0.035025
v -0.013209 0.074755 0.072915
v -0.011659 0.071661 0.042755
v -0.029447 0.066249 0.042755
v -0.029447 0.057741 0.035025
f 219 211 225 
f 208 209 210 
f 209 208 213 
f 208 210 214 
f 211 208 214 
f 210 212 214 
f 210 209 215 
f 207 216 217 
f 210 215 218 
f 207 217 219 
f 217 211 219 
f 210 218 219 
f 212 211 220 
f 211 214 220 
f 214 212 220 
f 208 211 221 
f 213 208 221 
f 211 217 221 
f 217 213 221 
f 215 209 222 
f 216 215 222 
f 216 222 223 
f 209 213 223 
f 213 217 223 
f 217 216 223 
f 222 209 223 
f 216 207 224 
f 215 216 224 
f 218 215 224 
f 207 219 224 
f 219 218 224 
f 212 210 225 
f 211 212 225 
f 210 219 225 
o convex_12
v -0.063477 0.025256 0.035022
v -0.058838 -0.000267 -0.069392
v -0.058838 0.004375 -0.069392
v -0.048783 0.025256 -0.062422
v -0.065024 -0.000267 0.032691
v -0.068892 0.004375 0.032691
v -0.054196 0.022935 -0.068605
v -0.054970 -0.000267 -0.065519
v -0.059611 0.024482 0.035022
v -0.066570 0.016747 0.030371
v -0.068892 -0.000267 0.035022
v -0.048783 0.025256 -0.069392
v -0.058064 0.012110 -0.065519
v -0.053426 0.025256 -0.066285
v -0.048783 0.024482 -0.062422
v -0.065798 0.020612 0.034245
v -0.060385 -0.000267 -0.009847
v -0.068117 0.011338 0.033468
v -0.057290 0.018293 -0.057005
v -0.063477 0.025256 0.028828
v -0.054970 -0.000267 -0.069392
v -0.059611 0.025256 0.035022
f 234 229 247 
f 228 227 231 
f 230 227 233 
f 227 230 236 
f 231 227 236 
f 234 226 236 
f 230 234 236 
f 227 228 237 
f 226 229 237 
f 228 232 237 
f 232 228 238 
f 226 237 239 
f 237 232 239 
f 229 234 240 
f 234 230 240 
f 237 229 240 
f 236 226 241 
f 230 233 242 
f 240 230 242 
f 233 240 242 
f 228 231 243 
f 231 236 243 
f 238 228 243 
f 235 238 243 
f 241 235 243 
f 236 241 243 
f 232 238 244 
f 238 235 244 
f 235 241 244 
f 244 241 245 
f 226 239 245 
f 239 232 245 
f 241 226 245 
f 232 244 245 
f 233 227 246 
f 227 237 246 
f 240 233 246 
f 237 240 246 
f 229 226 247 
f 226 234 247 
o convex_13
v -0.041822 0.045362 -0.033038
v -0.052650 0.025256 -0.069392
v -0.052650 0.026033 -0.069392
v -0.063478 0.025256 0.035022
v -0.048012 0.025256 -0.066296
v -0.041822 0.048456 0.033468
v -0.053424 0.043043 0.033468
v -0.058836 0.025256 0.031148
v -0.041822 0.034542 -0.069392
v -0.043370 0.039952 -0.067062
v -0.043370 0.053100 0.035022
v -0.058062 0.036859 0.034245
v -0.048012 0.033765 -0.069392
v -0.062702 0.027578 0.030371
v -0.048784 0.048459 0.034245
v -0.041822 0.053100 0.035022
v -0.059610 0.025256 0.035022
v -0.041822 0.039952 -0.069392
v -0.041822 0.034542 -0.065519
v -0.042596 0.045362 -0.033038
f 265 257 267 
f 250 249 251 
f 251 249 252 
f 251 252 255 
f 252 253 255 
f 249 250 256 
f 252 249 256 
f 248 253 256 
f 251 258 259 
f 256 250 260 
f 254 257 260 
f 250 259 260 
f 259 254 260 
f 250 251 261 
f 259 250 261 
f 251 259 261 
f 257 254 262 
f 254 259 262 
f 259 258 262 
f 253 248 263 
f 248 258 263 
f 258 251 263 
f 251 255 264 
f 255 253 264 
f 253 263 264 
f 263 251 264 
f 248 256 265 
f 256 260 265 
f 260 257 265 
f 253 252 266 
f 252 256 266 
f 256 253 266 
f 258 248 267 
f 257 262 267 
f 262 258 267 
f 248 265 267 
o convex_14
v -0.030222 0.061606 0.035022
v -0.041822 0.035314 -0.069392
v -0.041047 0.035314 -0.069392
v -0.022488 0.054647 -0.069392
v -0.021713 0.060832 0.035022
v -0.041822 0.053870 0.029605
v -0.041047 0.049232 0.035022
v -0.041822 0.041502 -0.067062
v -0.021713 0.050006 -0.068616
v -0.021713 0.064699 0.031925
v -0.031767 0.050777 -0.060102
v -0.041047 0.035314 -0.066296
v -0.036407 0.046143 -0.069392
v -0.031767 0.060832 0.032691
v -0.039499 0.056192 0.034245
v -0.041822 0.049232 0.035022
v -0.021713 0.060058 0.029605
v -0.023262 0.064699 0.034245
v -0.024035 0.055418 -0.057005
v -0.021713 0.054647 -0.069392
f 271 277 287 
f 270 269 271 
f 272 268 274 
f 269 273 275 
f 272 276 277 
f 269 270 279 
f 270 276 279 
f 271 269 280 
f 269 275 280 
f 275 273 280 
f 278 271 280 
f 281 278 282 
f 280 273 282 
f 278 280 282 
f 268 281 282 
f 273 269 283 
f 274 268 283 
f 269 279 283 
f 279 274 283 
f 268 282 283 
f 282 273 283 
f 272 274 284 
f 276 272 284 
f 274 279 284 
f 279 276 284 
f 268 272 285 
f 272 277 285 
f 277 271 285 
f 281 268 285 
f 281 285 286 
f 271 278 286 
f 278 281 286 
f 285 271 286 
f 270 271 287 
f 276 270 287 
f 277 276 287 
o convex_15
v -0.021713 0.056195 -0.058558
v 0.001490 0.068569 0.035022
v -0.007020 0.068569 0.035022
v -0.021713 0.060832 0.034245
v 0.001490 0.055422 -0.068616
v -0.000059 0.060061 -0.069392
v -0.021713 0.050780 -0.064742
v 0.001490 0.064700 0.031148
v -0.020938 0.065473 0.034245
v -0.010883 0.058516 -0.069392
v -0.021713 0.050780 -0.069392
v 0.001490 0.060061 -0.069392
v -0.020938 0.050780 -0.064742
v -0.019389 0.056195 -0.068616
v -0.015524 0.067019 0.033468
v -0.007792 0.059289 -0.068616
v 0.001490 0.068569 0.030371
v -0.021713 0.064700 0.035022
v -0.020938 0.060832 0.034245
v 0.001490 0.065475 0.035022
f 306 295 307 
f 291 288 294 
f 292 289 295 
f 294 288 298 
f 297 293 298 
f 289 292 299 
f 292 298 299 
f 298 293 299 
f 291 294 300 
f 292 295 300 
f 298 292 300 
f 294 298 300 
f 288 296 301 
f 298 288 301 
f 297 298 301 
f 296 290 302 
f 301 296 302 
f 297 301 302 
f 290 293 303 
f 293 297 303 
f 302 290 303 
f 297 302 303 
f 290 289 304 
f 293 290 304 
f 289 299 304 
f 299 293 304 
f 289 290 305 
f 288 291 305 
f 290 296 305 
f 296 288 305 
f 291 300 306 
f 300 295 306 
f 305 291 306 
f 305 306 307 
f 295 289 307 
f 289 305 307 
o convex_16
v 0.031646 0.016746 -0.078672
v 0.047123 0.019069 -0.075579
v 0.047123 0.003602 -0.070940
v 0.001490 0.019069 -0.070940
v 0.001490 -0.000267 -0.073260
v 0.047123 0.006694 -0.077899
v 0.004586 -0.000267 -0.070166
v 0.047123 -0.000267 -0.070166
v 0.003813 0.019069 -0.073260
v 0.015413 0.019069 -0.070940
v 0.047123 -0.000267 -0.073260
v 0.034746 0.008243 -0.078672
v 0.005359 0.016746 -0.070166
v 0.047123 0.019069 -0.077899
f 313 319 321 
f 309 310 313 
f 311 312 314 
f 314 312 315 
f 313 310 315 
f 311 309 316 
f 308 312 316 
f 312 311 316 
f 310 309 317 
f 309 311 317 
f 315 310 317 
f 312 313 318 
f 315 312 318 
f 313 315 318 
f 312 308 319 
f 313 312 319 
f 311 314 320 
f 314 315 320 
f 317 311 320 
f 315 317 320 
f 309 313 321 
f 316 309 321 
f 308 316 321 
f 319 308 321 
o convex_17
v 0.061817 0.016746 -0.071714
v 0.047123 -0.000267 -0.073260
v 0.061817 -0.000267 -0.073260
v 0.056402 0.019069 -0.077900
v 0.057175 0.019069 -0.068619
v 0.064139 -0.000267 -0.068619
v 0.047123 0.019069 -0.075580
v 0.047123 -0.000267 -0.070167
v 0.047123 0.006694 -0.077900
v 0.061044 0.007468 -0.077125
v 0.061044 0.019069 -0.068619
v 0.062590 0.011333 -0.075580
v 0.047123 0.019069 -0.077900
f 330 328 334 
f 323 324 327 
f 326 325 328 
f 326 328 329 
f 323 327 329 
f 327 326 329 
f 328 323 329 
f 324 323 330 
f 323 328 330 
f 324 330 331 
f 330 325 331 
f 322 325 332 
f 325 326 332 
f 326 327 332 
f 327 322 332 
f 325 322 333 
f 322 327 333 
f 327 324 333 
f 331 325 333 
f 324 331 333 
f 328 325 334 
f 325 330 334 
o convex_18
v 0.002266 0.060835 -0.060107
v 0.026240 0.064700 0.035022
v 0.021599 0.066247 0.035022
v 0.001490 0.064700 0.031146
v 0.025465 0.051553 -0.064744
v 0.024692 0.056195 -0.068619
v 0.001490 0.056195 -0.068619
v 0.025465 0.060834 0.035022
v 0.001490 0.068569 0.030375
v 0.013865 0.059288 -0.068619
v 0.010001 0.068569 0.034240
v 0.026240 0.051553 -0.068619
v 0.008453 0.060061 -0.068619
v 0.001490 0.056195 -0.064744
v 0.001490 0.065474 0.035022
v 0.026240 0.056195 -0.063202
v 0.001490 0.060061 -0.068619
v 0.018502 0.067020 0.032698
v 0.026240 0.060061 0.028833
v 0.020050 0.058517 -0.060878
v 0.025465 0.060061 0.028833
f 353 342 355 
f 336 337 342 
f 341 338 343 
f 340 341 344 
f 339 341 346 
f 341 340 346 
f 335 343 347 
f 344 341 347 
f 343 345 347 
f 345 344 347 
f 339 338 348 
f 338 341 348 
f 341 339 348 
f 342 337 349 
f 338 342 349 
f 343 338 349 
f 337 345 349 
f 345 343 349 
f 336 346 350 
f 346 340 350 
f 343 335 351 
f 341 343 351 
f 335 347 351 
f 347 341 351 
f 345 337 352 
f 344 345 352 
f 336 342 353 
f 346 336 353 
f 339 346 353 
f 337 336 354 
f 340 344 354 
f 336 350 354 
f 350 340 354 
f 344 352 354 
f 352 337 354 
f 338 339 355 
f 342 338 355 
f 339 353 355 
o convex_19
v 0.029337 0.056193 -0.048502
v 0.044802 0.037631 -0.068619
v 0.045576 0.037631 -0.068619
v 0.044802 0.050005 0.035022
v 0.026240 0.060059 0.031146
v 0.044802 0.054646 0.031927
v 0.026240 0.051555 -0.068619
v 0.043256 0.045369 -0.066296
v 0.028563 0.063928 0.035022
v 0.026240 0.055418 -0.067067
v 0.035522 0.050780 -0.068619
v 0.036294 0.060059 0.031146
v 0.045576 0.043047 -0.067067
v 0.026240 0.051555 -0.060878
v 0.045576 0.053871 0.035022
v 0.044802 0.049233 0.032698
v 0.026240 0.063928 0.035022
v 0.044802 0.037631 -0.067067
v 0.034748 0.052327 -0.060107
v 0.045576 0.049233 0.032698
v 0.027014 0.060059 0.035022
f 372 360 376 
f 358 357 362 
f 362 360 365 
f 364 356 365 
f 358 362 366 
f 362 365 366 
f 356 364 367 
f 363 361 368 
f 358 366 368 
f 366 363 368 
f 362 357 369 
f 360 362 369 
f 364 359 370 
f 367 364 370 
f 361 367 370 
f 358 368 370 
f 368 361 370 
f 359 364 372 
f 365 360 372 
f 364 365 372 
f 357 358 373 
f 369 357 373 
f 360 369 373 
f 371 360 373 
f 361 363 374 
f 365 356 374 
f 363 366 374 
f 366 365 374 
f 356 367 374 
f 367 361 374 
f 358 370 375 
f 370 359 375 
f 359 371 375 
f 373 358 375 
f 371 373 375 
f 371 359 376 
f 360 371 376 
f 359 372 376 
o convex_20
v 0.069552 0.019068 0.035022
v 0.061046 -0.000267 -0.068619
v 0.064139 -0.000267 -0.068619
v 0.055631 0.022936 -0.068619
v 0.069552 -0.000267 0.035022
v 0.060273 0.021387 -0.068619
v 0.064139 0.022936 0.030375
v 0.072647 0.003601 0.034240
v 0.063366 0.011334 -0.068619
v 0.055631 0.022162 -0.063973
v 0.068005 0.022936 0.028823
v 0.072647 -0.000267 0.032688
v 0.064912 0.001282 -0.065515
v 0.068005 -0.000267 0.019540
v 0.071099 0.012107 0.029604
v 0.061046 -0.000267 -0.063973
v 0.059500 0.022936 -0.068619
v 0.064912 0.022936 0.035022
v 0.062591 0.016747 -0.061649
v 0.064139 0.022162 0.030375
v 0.071099 0.007469 0.018769
v 0.069552 0.016747 0.023416
f 395 387 398 
f 379 378 380 
f 378 379 381 
f 379 380 382 
f 377 381 384 
f 379 382 385 
f 380 378 386 
f 383 380 386 
f 380 383 387 
f 381 379 388 
f 384 381 388 
f 384 388 389 
f 379 385 389 
f 388 379 389 
f 378 381 390 
f 377 384 391 
f 386 378 392 
f 378 390 392 
f 390 386 392 
f 382 380 393 
f 380 387 393 
f 387 382 393 
f 381 377 394 
f 387 383 394 
f 377 387 394 
f 385 382 395 
f 382 387 395 
f 383 386 396 
f 390 381 396 
f 386 390 396 
f 381 394 396 
f 394 383 396 
f 384 389 397 
f 389 385 397 
f 391 384 397 
f 385 391 397 
f 387 377 398 
f 377 391 398 
f 391 385 398 
f 385 395 398 
o convex_21
v 0.058723 0.039175 0.021864
v 0.054859 0.022936 -0.068619
v 0.058723 0.022936 -0.068619
v 0.045576 0.042270 -0.067838
v 0.045576 0.049232 0.035022
v 0.064137 0.022936 0.034240
v 0.067231 0.026033 0.035022
v 0.047899 0.052326 0.034240
v 0.045576 0.036864 -0.066296
v 0.054859 0.032219 -0.066296
v 0.048672 0.041496 -0.055461
v 0.056405 0.043817 0.033469
v 0.068006 0.022936 0.031927
v 0.059498 0.023713 -0.066296
v 0.063365 0.033766 0.033469
v 0.045576 0.048459 0.031927
v 0.045576 0.053100 0.028833
v 0.051763 0.036090 -0.068619
v 0.046351 0.043043 -0.061649
v 0.050990 0.049232 0.030375
v 0.058723 0.027581 -0.054690
v 0.054859 0.022936 -0.067838
f 414 407 420 
f 400 401 404 
f 403 404 405 
f 403 405 406 
f 402 400 407 
f 403 402 407 
f 406 405 410 
f 404 401 411 
f 405 404 411 
f 405 411 412 
f 411 401 412 
f 408 399 413 
f 399 410 413 
f 410 405 413 
f 404 403 414 
f 403 407 414 
f 402 403 415 
f 403 406 415 
f 401 400 416 
f 400 402 416 
f 399 408 416 
f 409 410 416 
f 410 399 416 
f 412 401 416 
f 408 412 416 
f 402 415 417 
f 415 406 417 
f 416 402 417 
f 409 416 417 
f 410 409 418 
f 406 410 418 
f 417 406 418 
f 409 417 418 
f 405 412 419 
f 412 408 419 
f 408 413 419 
f 413 405 419 
f 400 404 420 
f 407 400 420 
f 404 414 420 
o convex_22
v -0.037962 -0.074515 0.076787
v -0.048009 -0.057506 0.076787
v -0.048009 -0.057506 0.072920
v -0.019392 -0.073741 0.077559
v -0.059611 -0.058278 0.080654
v -0.019392 -0.076834 0.072920
v -0.022487 -0.081478 0.080654
v -0.049556 -0.057506 0.080654
v -0.048777 -0.066013 0.074467
v -0.019392 -0.075287 0.080654
v -0.046462 -0.069873 0.080654
v -0.052647 -0.058278 0.072920
v -0.020168 -0.072966 0.072920
v -0.030223 -0.076834 0.074467
v -0.019392 -0.081478 0.076787
v -0.058064 -0.057506 0.075241
f 432 429 436 
f 425 427 428 
f 422 423 428 
f 424 422 428 
f 426 424 430 
f 428 427 430 
f 424 428 430 
f 421 427 431 
f 427 425 431 
f 429 421 431 
f 425 429 431 
f 423 426 432 
f 423 422 433 
f 422 424 433 
f 426 423 433 
f 424 426 433 
f 427 421 434 
f 421 429 434 
f 432 426 434 
f 429 432 434 
f 426 430 435 
f 430 427 435 
f 434 426 435 
f 427 434 435 
f 425 428 436 
f 428 423 436 
f 429 425 436 
f 423 432 436 
o convex_23
v -0.006247 -0.084572 0.079879
v 0.030108 -0.071426 0.076788
v 0.030108 -0.071426 0.072921
v -0.019392 -0.073744 0.075242
v -0.010104 -0.079156 0.072147
v 0.025461 -0.080702 0.076014
v 0.030108 -0.073746 0.081428
v -0.019392 -0.075293 0.080652
v 0.023145 -0.082249 0.081428
v -0.019392 -0.082249 0.080652
v -0.019392 -0.073744 0.072147
v 0.010770 -0.083022 0.075243
v 0.006128 -0.079156 0.072147
v -0.016291 -0.082249 0.076016
v 0.030108 -0.079928 0.079106
v -0.011654 -0.079156 0.081428
v 0.030108 -0.074518 0.072921
v 0.009995 -0.084570 0.080654
f 448 442 454 
f 438 439 440 
f 439 438 443 
f 438 440 444 
f 443 438 444 
f 444 440 446 
f 440 439 447 
f 446 440 447 
f 447 439 449 
f 441 447 449 
f 448 441 449 
f 442 448 449 
f 437 446 450 
f 447 441 450 
f 446 447 450 
f 448 437 450 
f 441 448 450 
f 439 443 451 
f 443 445 451 
f 445 442 451 
f 443 444 452 
f 445 443 452 
f 444 446 452 
f 446 445 452 
f 449 439 453 
f 442 449 453 
f 439 451 453 
f 451 442 453 
f 442 445 454 
f 446 437 454 
f 445 446 454 
f 437 448 454 
o convex_24
v -0.058833 -0.050538 0.065956
v -0.037187 -0.056726 0.036575
v -0.037187 -0.057500 0.036575
v -0.057288 -0.041261 0.035022
v -0.060381 -0.041261 0.069049
v -0.049559 -0.056726 0.041985
v -0.048012 -0.057500 0.069826
v -0.052647 -0.041261 0.036575
v -0.061927 -0.042035 0.044305
v -0.065025 -0.041261 0.069826
v -0.052647 -0.057500 0.069826
v -0.042599 -0.057500 0.035022
v -0.055740 -0.049766 0.041212
v -0.047240 -0.056726 0.068273
v -0.037187 -0.056726 0.035022
f 466 458 469 
f 458 459 462 
f 459 456 462 
f 459 458 464 
f 461 459 464 
f 463 455 464 
f 458 463 464 
f 455 460 465 
f 457 461 465 
f 464 455 465 
f 461 464 465 
f 465 460 466 
f 457 465 466 
f 460 455 467 
f 455 463 467 
f 463 458 467 
f 458 466 467 
f 466 460 467 
f 457 456 468 
f 456 459 468 
f 461 457 468 
f 459 461 468 
f 456 457 469 
f 462 456 469 
f 458 462 469 
f 457 466 469 
o convex_25
v -0.060383 -0.056723 0.076786
v -0.080494 -0.015741 0.079106
v -0.080494 -0.015741 0.080654
v -0.048015 -0.056723 0.072149
v -0.050333 -0.056723 0.080654
v -0.071982 -0.013420 0.072147
v -0.065019 -0.042034 0.069826
v -0.072755 -0.013420 0.079881
v -0.071982 -0.041257 0.080654
v -0.048015 -0.057500 0.069826
v -0.076621 -0.024247 0.074469
v -0.060383 -0.057500 0.080654
v -0.070440 -0.041257 0.075240
v -0.075076 -0.013420 0.072147
v -0.052654 -0.057500 0.069826
v -0.077397 -0.028886 0.079106
v -0.073531 -0.013420 0.080654
f 477 483 486 
f 474 473 477 
f 473 475 477 
f 474 472 478 
f 473 474 479 
f 475 473 479 
f 476 475 479 
f 478 470 481 
f 474 478 481 
f 479 474 481 
f 476 470 482 
f 470 478 482 
f 480 476 482 
f 471 472 483 
f 475 476 483 
f 477 475 483 
f 480 471 483 
f 476 480 483 
f 470 476 484 
f 476 479 484 
f 481 470 484 
f 479 481 484 
f 472 471 485 
f 478 472 485 
f 471 480 485 
f 482 478 485 
f 480 482 485 
f 472 474 486 
f 474 477 486 
f 483 472 486 
o convex_26
v -0.058843 0.047681 0.072145
v -0.066569 0.016749 0.035022
v -0.066569 0.018297 0.035022
v -0.073531 0.019071 0.072920
v -0.051877 0.048455 0.071373
v -0.058843 0.042270 0.041985
v -0.062705 0.016749 0.035797
v -0.051877 0.043811 0.035022
v -0.069664 0.017526 0.072920
v -0.065796 0.030674 0.041985
v -0.052653 0.053873 0.072920
v -0.051877 0.038404 0.038119
v -0.065796 0.037633 0.072145
v -0.070436 0.016749 0.041985
v -0.052653 0.050003 0.044303
v -0.071210 0.026804 0.072145
v -0.060386 0.032996 0.035022
v -0.073531 0.016749 0.072920
v -0.069664 0.020619 0.041985
v -0.051877 0.053873 0.072920
f 501 497 506 
f 488 489 494 
f 493 488 494 
f 493 491 495 
f 490 495 497 
f 491 493 498 
f 494 491 498 
f 493 494 498 
f 487 492 499 
f 492 496 499 
f 497 487 499 
f 490 497 499 
f 489 488 500 
f 488 493 500 
f 492 487 501 
f 494 492 501 
f 487 497 501 
f 490 499 502 
f 499 496 502 
f 494 489 503 
f 492 494 503 
f 489 496 503 
f 496 492 503 
f 495 490 504 
f 493 495 504 
f 500 493 504 
f 490 500 504 
f 496 489 505 
f 489 500 505 
f 500 490 505 
f 490 502 505 
f 502 496 505 
f 491 494 506 
f 495 491 506 
f 497 495 506 
f 494 501 506 
o convex_27
v 0.013869 -0.072195 0.035022
v 0.030108 -0.071422 0.072920
v 0.028559 -0.071422 0.072920
v 0.030108 -0.063689 0.035022
v 0.006131 -0.076061 0.070598
v 0.026237 -0.072968 0.042760
v 0.012320 -0.079156 0.071373
v 0.006131 -0.069878 0.035022
v 0.006131 -0.076835 0.044303
v 0.030108 -0.074516 0.070598
v 0.030108 -0.067557 0.035022
v 0.006131 -0.079156 0.072920
v 0.029333 -0.064464 0.040438
v 0.017734 -0.075288 0.042760
v 0.023916 -0.076835 0.072920
v 0.006131 -0.069878 0.038895
v 0.030108 -0.071422 0.042760
f 517 516 523 
f 510 507 514 
f 514 507 515 
f 511 514 515 
f 510 508 516 
f 507 510 517 
f 512 507 517 
f 510 516 517 
f 508 509 518 
f 509 511 518 
f 511 515 518 
f 515 513 518 
f 509 508 519 
f 508 510 519 
f 511 509 519 
f 507 512 520 
f 515 507 520 
f 513 515 520 
f 516 508 521 
f 512 516 521 
f 508 518 521 
f 518 513 521 
f 520 512 521 
f 513 520 521 
f 510 514 522 
f 514 511 522 
f 519 510 522 
f 511 519 522 
f 516 512 523 
f 512 517 523 
o convex_28
v 0.078059 0.011332 0.068277
v 0.068781 -0.013416 0.035022
v 0.065686 0.019840 0.035022
v 0.075740 0.007464 0.041982
v 0.074965 -0.013416 0.070594
v 0.072647 0.020616 0.071373
v 0.076511 -0.013416 0.048945
v 0.073419 0.020616 0.045077
v 0.078834 -0.011094 0.071373
v 0.072645 -0.008772 0.035022
v 0.069554 0.019840 0.035022
v 0.076511 0.019067 0.071373
v 0.066460 0.019067 0.041209
v 0.076514 -0.006453 0.042757
v 0.078834 0.004373 0.067502
v 0.068781 -0.013416 0.037345
v 0.072645 0.005146 0.035022
v 0.075740 -0.013416 0.042757
f 533 537 541 
f 528 525 530 
f 524 527 531 
f 526 529 531 
f 529 528 532 
f 528 530 532 
f 525 526 533 
f 526 531 534 
f 531 527 534 
f 533 526 534 
f 524 531 535 
f 531 529 535 
f 529 532 535 
f 529 526 536 
f 528 529 536 
f 532 530 537 
f 527 524 538 
f 524 535 538 
f 535 532 538 
f 537 527 538 
f 532 537 538 
f 526 525 539 
f 525 528 539 
f 536 526 539 
f 528 536 539 
f 534 527 540 
f 533 534 540 
f 527 537 540 
f 537 533 540 
f 530 525 541 
f 525 533 541 
f 537 530 541 
o convex_29
v 0.034750 -0.072194 0.068273
v 0.057178 -0.055181 0.069826
v 0.053306 -0.055181 0.069826
v 0.048667 -0.055181 0.035022
v 0.030108 -0.063690 0.038118
v 0.044801 -0.063690 0.042759
v 0.030881 -0.069875 0.069826
v 0.030108 -0.070649 0.041212
v 0.043258 -0.055181 0.035798
v 0.047896 -0.064462 0.069826
v 0.054083 -0.055957 0.042759
v 0.031655 -0.066781 0.035022
v 0.030108 -0.073744 0.069826
v 0.033979 -0.069875 0.042759
v 0.053306 -0.059822 0.066729
f 547 552 556 
f 544 543 545 
f 543 544 548 
f 544 546 548 
f 544 545 550 
f 546 544 550 
f 542 547 551 
f 543 548 551 
f 545 543 552 
f 547 545 552 
f 545 547 553 
f 549 546 553 
f 550 545 553 
f 546 550 553 
f 548 546 554 
f 546 549 554 
f 542 551 554 
f 551 548 554 
f 547 542 555 
f 553 547 555 
f 549 553 555 
f 554 549 555 
f 542 554 555 
f 543 551 556 
f 551 547 556 
f 552 543 556 
o convex_30
v 0.035524 -0.078381 0.079880
v 0.064912 -0.055186 0.081428
v 0.064912 -0.055959 0.081428
v 0.057175 -0.055186 0.069826
v 0.030108 -0.072194 0.080653
v 0.030108 -0.073742 0.069826
v 0.050215 -0.068328 0.076013
v 0.054078 -0.055186 0.077559
v 0.030108 -0.070648 0.069826
v 0.030108 -0.079153 0.081428
v 0.055628 -0.055186 0.081428
v 0.047895 -0.071421 0.081428
v 0.040941 -0.069100 0.069826
v 0.053305 -0.055186 0.069826
v 0.062585 -0.057504 0.076786
v 0.033981 -0.077608 0.076013
v 0.050215 -0.062918 0.069826
f 571 563 573 
f 558 560 564 
f 560 562 565 
f 562 561 565 
f 561 564 565 
f 559 558 566 
f 561 562 566 
f 558 564 567 
f 564 561 567 
f 566 558 567 
f 561 566 567 
f 557 563 568 
f 566 557 568 
f 559 566 568 
f 562 560 569 
f 564 560 570 
f 560 565 570 
f 565 564 570 
f 558 559 571 
f 560 558 571 
f 568 563 571 
f 559 568 571 
f 563 557 572 
f 557 566 572 
f 566 562 572 
f 562 569 572 
f 569 563 572 
f 569 560 573 
f 563 569 573 
f 560 571 573 
o convex_31
v 0.057952 -0.055179 0.069826
v 0.077287 -0.034298 0.081428
v 0.077287 -0.036622 0.081428
v 0.056408 -0.054404 0.081428
v 0.068777 -0.034298 0.069826
v 0.064916 -0.055179 0.081428
v 0.069551 -0.034298 0.080653
v 0.054084 -0.054404 0.069826
v 0.071873 -0.045125 0.076786
v 0.071873 -0.035075 0.069826
v 0.064916 -0.054404 0.076013
v 0.064916 -0.047445 0.069826
f 584 574 585 
f 576 575 577 
f 576 577 579 
f 577 574 579 
f 577 575 580 
f 575 578 580 
f 580 578 581 
f 574 577 581 
f 578 574 581 
f 577 580 581 
f 576 579 582 
f 575 576 583 
f 574 578 583 
f 578 575 583 
f 576 582 583 
f 579 574 584 
f 582 579 584 
f 574 583 585 
f 583 582 585 
f 582 584 585 
o convex_32
v 0.076513 -0.019605 0.062089
v 0.061818 -0.034298 0.035022
v 0.064913 -0.034298 0.035022
v 0.071871 -0.013416 0.035022
v 0.074192 -0.014190 0.065956
v 0.068781 -0.034298 0.066732
v 0.070325 -0.032751 0.042757
v 0.068781 -0.013416 0.038116
v 0.075738 -0.013416 0.042757
v 0.071871 -0.034298 0.066732
v 0.062592 -0.032751 0.040438
v 0.077287 -0.013416 0.066732
v 0.073417 -0.024243 0.042757
v 0.068007 -0.033522 0.065184
v 0.074192 -0.028883 0.065956
v 0.070325 -0.021927 0.035022
f 594 598 601 
f 588 587 589 
f 587 588 591 
f 589 587 593 
f 589 593 594 
f 591 588 595 
f 588 592 595 
f 593 587 596 
f 590 593 596 
f 590 591 597 
f 593 590 597 
f 594 593 597 
f 586 594 597 
f 591 595 597 
f 594 586 598 
f 587 591 599 
f 591 590 599 
f 596 587 599 
f 590 596 599 
f 595 592 600 
f 586 597 600 
f 597 595 600 
f 592 598 600 
f 598 586 600 
f 588 589 601 
f 592 588 601 
f 589 594 601 
f 598 592 601 
o convex_33
v 0.083475 -0.013416 0.079106
v 0.068779 -0.034298 0.066732
v 0.071873 -0.034298 0.066732
v 0.078060 -0.034298 0.081428
v 0.076513 -0.013416 0.081428
v 0.074968 -0.013416 0.066732
v 0.069553 -0.033522 0.079106
v 0.077286 -0.018058 0.066732
v 0.079607 -0.028883 0.076786
v 0.071101 -0.034298 0.081428
v 0.083475 -0.016510 0.081428
f 610 602 612 
f 603 604 605 
f 604 603 607 
f 606 602 607 
f 607 603 608 
f 606 607 608 
f 607 602 609 
f 604 607 609 
f 605 604 610 
f 604 609 610 
f 609 602 610 
f 603 605 611 
f 605 606 611 
f 608 603 611 
f 606 608 611 
f 602 606 612 
f 606 605 612 
f 605 610 612 
o convex_34
v -0.078945 0.016749 0.080654
v -0.081267 -0.009548 0.079106
v -0.079719 -0.013416 0.075242
v -0.072762 -0.013416 0.079880
v -0.070439 0.016749 0.070600
v -0.071213 0.016749 0.079880
v -0.071988 -0.013416 0.070600
v -0.075081 0.011333 0.070600
v -0.078945 0.015201 0.076012
v -0.080494 -0.013416 0.080654
v -0.075853 -0.009548 0.070600
v -0.080494 0.004371 0.076012
v -0.071988 0.014428 0.080654
v -0.081267 0.005918 0.080654
f 621 624 626 
f 617 613 618 
f 616 617 618 
f 616 615 619 
f 617 616 619 
f 617 619 620 
f 613 617 621 
f 617 620 621 
f 614 615 622 
f 615 616 622 
f 619 615 623 
f 620 619 623 
f 620 623 624 
f 615 614 624 
f 621 620 624 
f 623 615 624 
f 618 613 625 
f 616 618 625 
f 613 622 625 
f 622 616 625 
f 613 621 626 
f 614 622 626 
f 622 613 626 
f 624 614 626 
o convex_35
v -0.054974 0.059285 0.078334
v -0.078942 0.016749 0.078334
v -0.078942 0.016749 0.080654
v -0.051877 0.049225 0.076014
v -0.066568 0.036860 0.072920
v -0.070437 0.016749 0.072920
v -0.051877 0.052325 0.081428
v -0.069663 0.041497 0.080654
v -0.071210 0.017526 0.080654
v -0.051877 0.054639 0.072920
v -0.068889 0.040719 0.076014
v -0.052653 0.060831 0.081428
v -0.077397 0.019844 0.075242
v -0.072755 0.025258 0.081428
v -0.060387 0.051552 0.075242
v -0.075076 0.030673 0.079106
v -0.051877 0.049225 0.072920
f 636 630 643 
f 629 628 632 
f 629 632 635 
f 632 630 635 
f 630 633 635 
f 632 631 636 
f 633 630 636 
f 627 634 638 
f 636 627 638 
f 633 636 638 
f 632 628 639 
f 631 632 639 
f 637 631 639 
f 634 629 640 
f 629 635 640 
f 635 633 640 
f 633 638 640 
f 638 634 640 
f 634 627 641 
f 627 636 641 
f 636 631 641 
f 631 637 641 
f 637 634 641 
f 628 629 642 
f 629 634 642 
f 634 637 642 
f 639 628 642 
f 637 639 642 
f 630 632 643 
f 632 636 643 
o convex_36
v -0.038730 0.070889 0.081428
v -0.051877 0.049233 0.067506
v -0.051102 0.049233 0.067506
v -0.030222 0.068568 0.067506
v -0.029447 0.066247 0.079878
v -0.051877 0.051554 0.080652
v -0.051877 0.060835 0.076014
v -0.029447 0.064700 0.067506
v -0.029447 0.074756 0.081428
v -0.047235 0.058514 0.067506
v -0.040275 0.069340 0.076014
v -0.051877 0.061612 0.081428
v -0.051102 0.050007 0.076014
v -0.030222 0.067021 0.081428
v -0.030222 0.073982 0.076014
f 647 654 658 
f 646 645 647 
f 645 649 650 
f 646 647 651 
f 648 651 652 
f 651 647 652 
f 647 645 653 
f 645 650 653 
f 653 650 654 
f 647 653 654 
f 650 649 655 
f 652 644 655 
f 654 650 655 
f 644 654 655 
f 645 646 656 
f 648 649 656 
f 649 645 656 
f 646 651 656 
f 651 648 656 
f 649 648 657 
f 648 652 657 
f 655 649 657 
f 652 655 657 
f 644 652 658 
f 652 647 658 
f 654 644 658 
o convex_37
v -0.026352 0.071663 0.073693
v -0.002377 0.080944 0.081427
v -0.002377 0.080944 0.079880
v -0.002377 0.072437 0.078333
v -0.029447 0.067796 0.081427
v -0.029447 0.075529 0.081427
v -0.002377 0.072437 0.073693
v -0.029447 0.066248 0.073693
v -0.013209 0.078622 0.076014
v -0.002377 0.074756 0.082201
v -0.002377 0.075529 0.073693
v -0.029447 0.074756 0.076787
v -0.028673 0.066248 0.079107
v -0.016296 0.079396 0.079880
f 667 670 672 
f 661 660 662 
f 661 662 665 
f 663 664 666 
f 659 665 666 
f 662 660 668 
f 660 664 668 
f 664 663 668 
f 665 659 669 
f 661 665 669 
f 659 667 669 
f 667 661 669 
f 666 664 670 
f 659 666 670 
f 667 659 670 
f 665 662 671 
f 663 666 671 
f 666 665 671 
f 662 668 671 
f 668 663 671 
f 660 661 672 
f 664 660 672 
f 661 667 672 
f 670 664 672 
o convex_38
v 0.028558 0.070891 0.070600
v 0.005358 0.080944 0.081427
v 0.005358 0.080944 0.080653
v -0.002377 0.072436 0.078332
v 0.029334 0.069343 0.082201
v -0.002377 0.075530 0.070600
v 0.027785 0.067022 0.070600
v 0.029334 0.076301 0.081427
v -0.002377 0.080168 0.082201
v 0.016958 0.078623 0.076787
v -0.002377 0.072436 0.070600
v -0.002377 0.074756 0.082201
v 0.028558 0.067797 0.080653
v -0.002377 0.080168 0.076787
v 0.013094 0.074756 0.070600
v 0.023918 0.077849 0.082201
f 680 682 688 
f 673 677 679 
f 678 673 679 
f 677 673 680 
f 674 675 681 
f 678 676 681 
f 680 673 682 
f 676 678 683 
f 679 676 683 
f 678 679 683 
f 677 681 684 
f 681 676 684 
f 676 679 685 
f 679 677 685 
f 684 676 685 
f 677 684 685 
f 681 675 686 
f 678 681 686 
f 675 682 686 
f 686 682 687 
f 673 678 687 
f 682 673 687 
f 678 686 687 
f 675 674 688 
f 677 680 688 
f 681 677 688 
f 674 681 688 
f 682 675 688 
o convex_39
v 0.047892 0.067017 0.082201
v 0.029334 0.066248 0.065959
v 0.030109 0.065470 0.065959
v 0.029334 0.068567 0.082201
v 0.054083 0.050780 0.077559
v 0.054858 0.053874 0.065959
v 0.030883 0.074752 0.076786
v 0.043255 0.063151 0.065959
v 0.054858 0.053102 0.082201
v 0.054083 0.049233 0.065959
v 0.054858 0.061609 0.078333
v 0.029334 0.075530 0.082201
v 0.043255 0.070114 0.079878
v 0.029334 0.067017 0.078333
v 0.029334 0.069339 0.065959
f 700 695 703 
f 691 690 694 
f 694 690 696 
f 689 692 697 
f 692 693 697 
f 694 697 698 
f 691 694 698 
f 697 693 698 
f 694 696 699 
f 689 697 699 
f 697 694 699 
f 690 692 700 
f 692 689 700 
f 695 700 701 
f 696 695 701 
f 689 699 701 
f 699 696 701 
f 700 689 701 
f 690 691 702 
f 692 690 702 
f 693 692 702 
f 691 698 702 
f 698 693 702 
f 696 690 703 
f 695 696 703 
f 690 700 703 
o convex_40
v 0.083474 0.009013 0.082201
v 0.072647 0.019840 0.071373
v 0.072647 0.019840 0.073695
v 0.075742 -0.013416 0.076787
v 0.078833 -0.011867 0.071373
v 0.074969 0.020616 0.082201
v 0.081152 0.019067 0.076787
v 0.083474 -0.013416 0.081427
v 0.077288 -0.013416 0.081427
v 0.084248 0.000509 0.078333
v 0.078833 0.008240 0.071373
v 0.075742 -0.013416 0.071373
v 0.081152 0.020616 0.082201
v 0.073421 0.019840 0.079879
v 0.075742 0.020616 0.071373
v 0.082700 -0.013416 0.076014
v 0.079607 -0.013416 0.082201
f 712 711 720 
f 706 705 707 
f 705 706 709 
f 707 711 712 
f 710 704 713 
f 704 711 713 
f 708 705 714 
f 710 713 714 
f 707 705 715 
f 705 708 715 
f 711 707 715 
f 709 704 716 
f 704 710 716 
f 706 707 717 
f 709 706 717 
f 712 709 717 
f 707 712 717 
f 705 709 718 
f 714 705 718 
f 710 714 718 
f 709 716 718 
f 716 710 718 
f 713 711 719 
f 708 714 719 
f 714 713 719 
f 715 708 719 
f 711 715 719 
f 704 709 720 
f 711 704 720 
f 709 712 720 
o convex_41
v 0.074191 0.038406 0.081427
v 0.054858 0.050004 0.073693
v 0.054858 0.050004 0.077562
v 0.072642 0.020616 0.073693
v 0.074191 0.021391 0.082201
v 0.054858 0.060834 0.082201
v 0.067236 0.046910 0.076014
v 0.080377 0.022163 0.076787
v 0.081154 0.020616 0.082201
v 0.068776 0.038406 0.073693
v 0.055635 0.059287 0.076014
v 0.054858 0.052319 0.082201
v 0.064917 0.051551 0.082201
v 0.073417 0.020616 0.080653
f 725 732 734 
f 723 722 724 
f 722 723 726 
f 727 721 728 
f 726 725 729 
f 724 728 729 
f 728 721 729 
f 724 722 730 
f 728 724 730 
f 727 728 730 
f 722 726 731 
f 730 722 731 
f 727 730 731 
f 726 723 732 
f 725 726 732 
f 721 727 733 
f 726 729 733 
f 729 721 733 
f 731 726 733 
f 727 731 733 
f 723 724 734 
f 724 729 734 
f 729 725 734 
f 732 723 734 
o convex_42
v -0.043375 -0.036619 -0.079445
v -0.058838 -0.008003 -0.070168
v -0.058838 -0.008003 -0.069393
v -0.033314 -0.000267 -0.074034
v -0.044147 -0.036619 -0.069392
v -0.054191 -0.011871 -0.078674
v -0.033314 -0.028883 -0.078672
v -0.033314 -0.000267 -0.070941
v -0.057284 -0.000267 -0.073261
v -0.053421 -0.026563 -0.075578
v -0.033314 -0.010323 -0.078674
v -0.034089 -0.036619 -0.076351
v -0.048779 -0.035843 -0.069392
v -0.054191 -0.000267 -0.069393
v -0.056514 -0.015739 -0.077125
v -0.054965 -0.024243 -0.069392
v -0.055737 -0.000267 -0.074034
v -0.033314 -0.004911 -0.070941
v -0.048007 -0.035071 -0.077125
f 744 749 753 
f 741 738 742 
f 742 738 743 
f 736 737 743 
f 735 740 745 
f 738 741 745 
f 741 735 745 
f 739 735 746 
f 735 741 746 
f 735 739 747 
f 739 742 748 
f 742 743 748 
f 743 737 748 
f 740 735 749 
f 736 743 749 
f 743 740 749 
f 749 744 750 
f 737 736 750 
f 747 739 750 
f 744 747 750 
f 739 748 750 
f 748 737 750 
f 736 749 750 
f 743 738 751 
f 740 743 751 
f 745 740 751 
f 738 745 751 
f 742 739 752 
f 741 742 752 
f 739 746 752 
f 746 741 752 
f 735 747 753 
f 747 744 753 
f 749 735 753 
o convex_43
v 0.010773 -0.038938 -0.077899
v 0.032428 -0.018830 -0.075579
v 0.032428 -0.018830 -0.077899
v 0.002264 -0.021151 -0.070940
v 0.028560 -0.042806 -0.075579
v 0.007679 -0.042806 -0.070940
v 0.020047 -0.018830 -0.070940
v 0.025466 -0.042806 -0.078672
v 0.013094 -0.032747 -0.078672
v 0.002264 -0.042806 -0.073260
v 0.002264 -0.022697 -0.073260
v 0.031654 -0.037392 -0.074806
v 0.032428 -0.036617 -0.078672
v 0.006132 -0.018830 -0.073260
v 0.005358 -0.019604 -0.070166
v 0.012320 -0.042806 -0.078672
v 0.002264 -0.042806 -0.070940
v 0.031654 -0.021151 -0.078672
f 762 767 771 
f 755 756 760 
f 758 759 761 
f 761 759 763 
f 762 754 764 
f 763 757 764 
f 754 763 764 
f 759 758 765 
f 755 760 765 
f 760 759 765 
f 756 755 766 
f 758 761 766 
f 761 762 766 
f 755 765 766 
f 765 758 766 
f 760 756 767 
f 764 757 767 
f 762 764 767 
f 759 760 768 
f 760 767 768 
f 767 757 768 
f 754 762 769 
f 762 761 769 
f 763 754 769 
f 761 763 769 
f 757 763 770 
f 763 759 770 
f 768 757 770 
f 759 768 770 
f 756 766 771 
f 766 762 771 
f 767 756 771 
o convex_44
v 0.006134 -0.018830 -0.073259
v 0.064139 -0.000267 -0.069393
v 0.064139 -0.009548 -0.069393
v 0.059487 -0.011869 -0.077898
v 0.002264 -0.000267 -0.073259
v 0.006134 -0.001041 -0.070167
v 0.061813 -0.018830 -0.069393
v 0.033201 -0.018830 -0.078674
v 0.061044 -0.000267 -0.073261
v 0.005359 -0.018830 -0.070940
v 0.060262 -0.018830 -0.077126
v 0.036290 -0.011869 -0.078674
v 0.002264 -0.015735 -0.073259
v 0.062588 -0.014189 -0.076352
v 0.002264 -0.000267 -0.070940
v 0.042474 -0.009548 -0.077898
f 775 783 787 
f 774 773 778 
f 773 777 778 
f 778 772 779 
f 776 773 780 
f 772 778 781 
f 778 777 781 
f 779 775 782 
f 778 779 782 
f 779 776 783 
f 775 779 783 
f 779 772 784 
f 776 779 784 
f 772 781 784 
f 773 774 785 
f 774 778 785 
f 780 773 785 
f 775 780 785 
f 782 775 785 
f 778 782 785 
f 773 776 786 
f 777 773 786 
f 781 777 786 
f 776 784 786 
f 784 781 786 
f 780 775 787 
f 776 780 787 
f 783 776 787 
o convex_45
v 0.060268 -0.024245 -0.074033
v 0.032431 -0.054402 -0.076353
v 0.033207 -0.054402 -0.076353
v 0.032434 -0.055181 -0.069392
v 0.032431 -0.018833 -0.077900
v 0.057947 -0.018830 -0.069392
v 0.057947 -0.018833 -0.077900
v 0.051763 -0.039710 -0.069392
v 0.040168 -0.045118 -0.078674
v 0.032431 -0.018833 -0.075580
v 0.051760 -0.038162 -0.076353
v 0.032431 -0.021157 -0.078674
v 0.032434 -0.051313 -0.069392
v 0.061816 -0.020377 -0.069392
v 0.043260 -0.048217 -0.074806
v 0.032431 -0.052854 -0.077900
v 0.037847 -0.052858 -0.069392
f 802 795 804 
f 789 790 791 
f 792 793 794 
f 793 791 795 
f 789 791 797 
f 792 789 797 
f 793 792 797 
f 794 788 798 
f 788 795 798 
f 796 794 798 
f 789 792 799 
f 792 794 799 
f 794 796 799 
f 791 793 800 
f 797 791 800 
f 793 797 800 
f 794 793 801 
f 788 794 801 
f 795 788 801 
f 793 795 801 
f 798 795 802 
f 796 798 802 
f 790 789 803 
f 789 799 803 
f 799 796 803 
f 802 790 803 
f 796 802 803 
f 791 790 804 
f 795 791 804 
f 790 802 804 
o convex_46
v -0.013205 -0.058277 -0.057005
v -0.002378 -0.072194 0.028051
v -0.001604 -0.067554 -0.023747
v -0.013205 -0.062144 -0.063965
v -0.000830 -0.059824 -0.065519
v -0.013205 -0.067554 0.034245
v -0.000830 -0.069101 0.033468
v -0.013205 -0.071421 0.034245
v -0.000830 -0.063690 -0.066296
v -0.007017 -0.062917 -0.069392
v -0.013205 -0.057501 -0.069392
v -0.000830 -0.072194 0.035022
v -0.011657 -0.058277 -0.057782
v -0.007790 -0.072194 0.032691
v -0.000830 -0.059824 -0.069392
f 814 815 819 
f 805 808 810 
f 810 808 812 
f 806 807 813 
f 809 811 813 
f 812 808 814 
f 813 807 814 
f 808 805 815 
f 814 808 815 
f 811 810 816 
f 810 812 816 
f 806 813 816 
f 813 811 816 
f 805 810 817 
f 811 809 817 
f 810 811 817 
f 815 805 817 
f 809 815 817 
f 807 806 818 
f 814 807 818 
f 812 814 818 
f 816 812 818 
f 806 816 818 
f 809 813 819 
f 813 814 819 
f 815 809 819 
o convex_47
v -0.000830 -0.062917 -0.069392
v 0.015412 -0.068328 0.035022
v 0.014638 -0.068328 0.035022
v 0.005358 -0.072969 0.034245
v 0.015412 -0.062917 -0.063965
v -0.000830 -0.059824 -0.065519
v -0.000830 -0.069102 0.032691
v 0.015412 -0.059050 -0.061655
v 0.015412 -0.071421 0.029605
v -0.000056 -0.072969 0.035022
v 0.005358 -0.063691 -0.068616
v 0.015412 -0.059050 -0.069392
v 0.014638 -0.066009 0.012587
v 0.013089 -0.072195 0.033468
v -0.000830 -0.063691 -0.067062
v 0.012318 -0.062917 -0.069392
f 833 830 835 
f 825 820 826 
f 821 824 827 
f 824 821 828 
f 821 822 829 
f 823 821 829 
f 822 826 829 
f 823 829 830 
f 820 825 831 
f 827 824 831 
f 825 827 831 
f 822 821 832 
f 825 826 832 
f 826 822 832 
f 821 827 832 
f 827 825 832 
f 821 823 833 
f 828 821 833 
f 824 828 833 
f 823 830 833 
f 826 820 834 
f 829 826 834 
f 820 830 834 
f 830 829 834 
f 830 820 835 
f 820 831 835 
f 831 824 835 
f 824 833 835 
o convex_48
v 0.031654 -0.055955 -0.069392
v 0.015412 -0.071423 0.030371
v 0.016187 -0.071423 0.030371
v 0.030880 -0.062912 0.035022
v 0.015412 -0.059049 -0.060102
v 0.016187 -0.062142 -0.069392
v 0.031654 -0.066779 0.034245
v 0.029332 -0.052861 -0.067829
v 0.015412 -0.068329 0.035022
v 0.023147 -0.060596 -0.067062
v 0.031654 -0.052861 -0.062422
v 0.023147 -0.069873 0.032691
v 0.015412 -0.066779 0.021868
v 0.015412 -0.059049 -0.069392
v 0.031654 -0.056729 -0.067829
v 0.030880 -0.055955 -0.029941
v 0.020055 -0.061370 -0.069392
v 0.031654 -0.062912 0.035022
v 0.017735 -0.071423 0.035022
f 853 844 854 
f 838 837 841 
f 840 837 844 
f 842 836 846 
f 836 843 846 
f 845 842 847 
f 843 840 848 
f 840 844 848 
f 844 839 848 
f 837 840 849 
f 841 837 849 
f 836 841 849 
f 843 836 849 
f 840 843 849 
f 836 842 850 
f 842 845 850 
f 846 843 851 
f 848 839 851 
f 843 848 851 
f 841 836 852 
f 838 841 852 
f 847 838 852 
f 845 847 852 
f 836 850 852 
f 850 845 852 
f 839 844 853 
f 842 846 853 
f 851 839 853 
f 846 851 853 
f 837 838 854 
f 844 837 854 
f 838 847 854 
f 847 842 854 
f 842 853 854 
o convex_49
v 0.042483 -0.045126 -0.069392
v 0.031654 -0.066009 0.031148
v 0.031654 -0.064460 0.014907
v 0.042483 -0.060594 0.034245
v 0.035523 -0.054409 -0.069392
v 0.031654 -0.062140 0.031925
v 0.031654 -0.052089 -0.064742
v 0.041708 -0.055954 0.031925
v 0.042483 -0.049769 -0.066296
v 0.041708 -0.045903 -0.054685
v 0.031654 -0.055954 -0.069392
v 0.033202 -0.066009 0.034245
v 0.042483 -0.056727 0.035022
v 0.037841 -0.062912 0.027285
v 0.032429 -0.056727 -0.063965
f 859 868 869 
f 857 856 860 
f 857 860 861 
f 855 858 863 
f 859 855 863 
f 858 859 863 
f 855 861 864 
f 861 860 864 
f 860 862 864 
f 855 859 865 
f 861 855 865 
f 857 861 865 
f 856 857 866 
f 860 856 866 
f 858 855 867 
f 862 860 867 
f 855 864 867 
f 864 862 867 
f 866 858 867 
f 860 866 867 
f 859 858 868 
f 858 866 868 
f 868 866 869 
f 865 859 869 
f 857 865 869 
f 866 857 869 
o convex_50
v 0.058726 -0.027337 -0.069392
v 0.071100 -0.014189 0.035022
v 0.068778 -0.014189 0.035022
v 0.059501 -0.014189 -0.069392
v 0.064138 -0.027337 0.028828
v 0.055631 -0.026564 -0.060879
v 0.063365 -0.014962 -0.069392
v 0.068778 -0.026564 0.034245
v 0.068005 -0.014189 0.032691
v 0.071100 -0.018058 0.032691
v 0.061046 -0.023469 -0.067829
v 0.057952 -0.018830 -0.061655
v 0.055631 -0.027337 -0.069392
v 0.064911 -0.025789 0.034245
v 0.062593 -0.027337 -0.033794
v 0.071100 -0.014189 0.025731
v 0.063365 -0.014189 -0.069392
v 0.064138 -0.021921 -0.038455
v 0.068005 -0.027337 0.035022
f 884 877 888 
f 872 871 873 
f 870 873 876 
f 872 873 878 
f 871 877 879 
f 870 876 880 
f 873 875 881 
f 878 873 881 
f 875 878 881 
f 873 870 882 
f 870 874 882 
f 874 875 882 
f 875 873 882 
f 875 874 883 
f 872 878 883 
f 878 875 883 
f 874 870 884 
f 880 877 884 
f 870 880 884 
f 873 871 885 
f 871 879 885 
f 879 876 885 
f 876 873 886 
f 873 885 886 
f 885 876 886 
f 876 879 887 
f 879 877 887 
f 877 880 887 
f 880 876 887 
f 871 872 888 
f 877 871 888 
f 883 874 888 
f 872 883 888 
f 874 884 888 
o convex_51
v 0.068779 -0.014189 0.035022
v 0.060272 -0.014189 -0.069392
v 0.060272 -0.000267 -0.069392
v 0.064913 -0.000267 -0.066296
v 0.069553 -0.000267 0.035022
v 0.071871 -0.014189 0.033468
v 0.063365 -0.014189 -0.069392
v 0.072647 -0.000267 0.032691
v 0.061047 -0.013415 -0.047735
v 0.064913 -0.006455 -0.064742
v 0.072647 -0.008001 0.034245
v 0.068005 -0.013415 0.030371
v 0.068005 -0.000267 0.019548
v 0.064139 -0.010321 -0.069392
f 898 899 902 
f 892 891 893 
f 889 890 894 
f 890 891 895 
f 894 890 895 
f 892 893 896 
f 890 889 897 
f 891 890 897 
f 893 889 899 
f 889 894 899 
f 892 896 899 
f 896 893 899 
f 898 892 899 
f 889 893 900 
f 897 889 900 
f 897 900 901 
f 893 891 901 
f 891 897 901 
f 900 893 901 
f 891 892 902 
f 895 891 902 
f 894 895 902 
f 892 898 902 
f 899 894 902 
o convex_52
v 0.041714 0.063925 0.065181
v 0.054083 0.040728 0.035022
v 0.029334 0.059286 0.035022
v 0.047123 0.057740 0.042756
v 0.054083 0.049235 0.065959
v 0.029334 0.065471 0.065181
v 0.030109 0.067020 0.041984
v 0.054858 0.053880 0.063633
v 0.054858 0.045369 0.035022
v 0.035523 0.060832 0.035022
v 0.029334 0.069339 0.065959
v 0.054083 0.040728 0.038117
v 0.054858 0.051557 0.045076
v 0.037849 0.063927 0.043528
v 0.048669 0.059286 0.065959
v 0.029334 0.060056 0.041208
v 0.030883 0.069339 0.065181
f 916 909 919 
f 904 905 911 
f 906 911 912 
f 905 909 912 
f 911 905 912 
f 908 907 913 
f 905 908 913 
f 909 905 913 
f 905 904 914 
f 907 908 914 
f 910 907 914 
f 911 910 914 
f 904 911 914 
f 906 910 915 
f 910 911 915 
f 911 906 915 
f 903 906 916 
f 906 912 916 
f 912 909 916 
f 906 903 917 
f 910 906 917 
f 907 910 917 
f 903 913 917 
f 913 907 917 
f 908 905 918 
f 905 914 918 
f 914 908 918 
f 913 903 919 
f 909 913 919 
f 903 916 919 
o convex_53
v -0.025579 0.052326 -0.076353
v 0.001490 0.059288 -0.069393
v 0.001490 0.054643 -0.069393
v -0.030994 0.050005 -0.069393
v -0.007019 0.035311 -0.078674
v 0.001490 0.035311 -0.070940
v -0.030994 0.036086 -0.077899
v -0.006246 0.055420 -0.077899
v -0.030994 0.045370 -0.078674
v -0.030994 0.045370 -0.069393
v 0.001490 0.057736 -0.073260
v -0.010116 0.058513 -0.073260
v -0.030994 0.036086 -0.075579
v -0.018618 0.056192 -0.069393
v 0.001490 0.035311 -0.073260
v -0.007791 0.052326 -0.078674
v -0.011664 0.056964 -0.077126
f 927 935 936 
f 922 921 923 
f 921 922 925 
f 923 920 928 
f 924 926 928 
f 926 923 928 
f 922 923 929 
f 925 922 929 
f 923 926 929 
f 921 925 930 
f 924 927 930 
f 921 930 931 
f 924 925 932 
f 926 924 932 
f 925 929 932 
f 929 926 932 
f 923 921 933 
f 920 923 933 
f 921 931 933 
f 931 920 933 
f 925 924 934 
f 930 925 934 
f 924 930 934 
f 927 924 935 
f 924 928 935 
f 935 928 936 
f 928 920 936 
f 930 927 936 
f 931 930 936 
f 920 931 936 
o convex_54
v 0.012321 0.031443 -0.078672
v 0.027783 0.041498 -0.075579
v 0.026237 0.040723 -0.074806
v 0.030105 0.019069 -0.075579
v 0.001493 0.019069 -0.070940
v 0.001493 0.041498 -0.070166
v 0.014639 0.019069 -0.070940
v 0.010775 0.041498 -0.077899
v 0.030105 0.019069 -0.077899
v 0.001493 0.019069 -0.073260
v 0.030105 0.034534 -0.078672
v 0.001493 0.041498 -0.073260
f 937 946 948 
f 938 939 940 
f 939 938 942 
f 942 941 943 
f 940 939 943 
f 941 940 943 
f 939 942 943 
f 942 938 944 
f 940 941 945 
f 941 942 946 
f 937 945 946 
f 945 941 946 
f 938 940 947 
f 944 938 947 
f 937 944 947 
f 940 945 947 
f 945 937 947 
f 944 937 948 
f 942 944 948 
f 946 942 948 
o convex_55
v 0.030105 0.049233 -0.077900
v 0.006907 0.060061 -0.068619
v 0.006907 0.060061 -0.069394
v 0.001493 0.041498 -0.070167
v 0.030105 0.050008 -0.068619
v 0.011548 0.054644 -0.077900
v 0.027010 0.041498 -0.077900
v 0.010775 0.041498 -0.077900
v 0.001493 0.056967 -0.073260
v 0.023918 0.056193 -0.074032
v 0.030105 0.041498 -0.075580
v 0.029329 0.053872 -0.068619
v 0.001493 0.055420 -0.068619
v 0.014639 0.058511 -0.075580
v 0.001493 0.041498 -0.073260
f 957 956 963 
f 954 949 955 
f 955 952 956 
f 954 955 956 
f 950 951 957 
f 954 956 957 
f 949 953 959 
f 953 952 959 
f 952 955 959 
f 955 949 959 
f 953 949 960 
f 950 953 960 
f 958 950 960 
f 949 958 960 
f 952 953 961 
f 953 950 961 
f 950 957 961 
f 957 952 961 
f 951 950 962 
f 949 954 962 
f 957 951 962 
f 954 957 962 
f 950 958 962 
f 958 949 962 
f 956 952 963 
f 952 957 963 
o convex_56
v 0.041714 0.046135 -0.071712
v 0.030108 0.019069 -0.077900
v 0.056404 0.019069 -0.077900
v 0.057177 0.019069 -0.068619
v 0.030108 0.049233 -0.068619
v 0.030108 0.048456 -0.077900
v 0.054856 0.030671 -0.075580
v 0.030108 0.019069 -0.075580
v 0.051759 0.036084 -0.068619
v 0.040941 0.044586 -0.077125
v 0.030881 0.053100 -0.068619
v 0.060272 0.020618 -0.068619
v 0.030108 0.033769 -0.078674
v 0.030881 0.052324 -0.076353
v 0.048665 0.034539 -0.077900
v 0.059498 0.020621 -0.076353
f 978 970 979 
f 965 966 967 
f 965 968 969 
f 965 967 971 
f 967 968 971 
f 968 965 971 
f 968 967 972 
f 970 964 972 
f 964 970 973 
f 969 968 974 
f 972 964 974 
f 968 972 974 
f 967 966 975 
f 972 967 975 
f 970 972 975 
f 966 965 976 
f 965 969 976 
f 964 973 977 
f 973 969 977 
f 969 974 977 
f 974 964 977 
f 969 973 978 
f 973 970 978 
f 966 976 978 
f 976 969 978 
f 975 966 979 
f 970 975 979 
f 966 978 979 
o convex_57
v -0.074305 0.015201 0.070600
v -0.068120 -0.013416 0.035022
v -0.068892 -0.009545 0.035022
v -0.063478 0.016749 0.039664
v -0.071213 -0.013416 0.069050
v -0.072758 0.004371 0.041983
v -0.075078 -0.013416 0.068273
v -0.069666 0.016749 0.069050
v -0.065027 -0.013416 0.039664
v -0.070436 0.016749 0.041210
v -0.063478 0.016749 0.035022
v -0.071984 -0.012642 0.041210
v -0.075852 0.004371 0.070600
v -0.068120 0.012107 0.035022
v -0.072758 -0.005680 0.041210
v -0.065027 -0.013416 0.035022
v -0.071984 -0.013416 0.070600
v -0.075852 -0.004906 0.068273
f 985 994 997 
f 981 984 986 
f 984 983 987 
f 983 984 988 
f 984 981 988 
f 985 980 989 
f 980 987 989 
f 987 983 989 
f 981 982 990 
f 983 988 990 
f 989 983 990 
f 982 981 991 
f 981 986 991 
f 980 985 992 
f 985 989 993 
f 990 982 993 
f 989 990 993 
f 982 991 994 
f 991 986 994 
f 993 982 994 
f 985 993 994 
f 988 981 995 
f 981 990 995 
f 990 988 995 
f 986 984 996 
f 987 980 996 
f 984 987 996 
f 980 992 996 
f 992 986 996 
f 992 985 997 
f 986 992 997 
f 994 986 997 
o convex_58
v -0.044913 -0.064466 0.069822
v -0.019392 -0.073741 0.072920
v -0.019392 -0.076834 0.072920
v -0.019396 -0.069101 0.035022
v -0.047230 -0.057505 0.072145
v -0.040271 -0.063692 0.041209
v -0.036404 -0.057501 0.038119
v -0.019396 -0.066008 0.037344
v -0.047230 -0.057501 0.041209
v -0.027905 -0.070647 0.041981
v -0.035639 -0.070647 0.072920
v -0.052647 -0.058279 0.072920
v -0.041817 -0.058277 0.035022
v -0.019396 -0.073739 0.044303
v -0.027130 -0.074515 0.071369
v -0.019392 -0.072967 0.071369
v -0.048005 -0.058277 0.043532
v -0.036404 -0.057501 0.035022
v -0.027905 -0.066782 0.035022
f 1003 1010 1016 
f 1004 1002 1005 
f 1002 1004 1006 
f 1003 1007 1008 
f 1000 999 1008 
f 998 1003 1008 
f 999 1002 1009 
f 1002 1006 1009 
f 1008 999 1009 
f 998 1008 1009 
f 1003 1006 1010 
f 1001 1000 1011 
f 1007 1001 1011 
f 1007 1011 1012 
f 1008 1007 1012 
f 1000 1008 1012 
f 1011 1000 1012 
f 999 1000 1013 
f 1000 1001 1013 
f 1002 999 1013 
f 1001 1005 1013 
f 1005 1002 1013 
f 1003 998 1014 
f 1006 1003 1014 
f 998 1009 1014 
f 1009 1006 1014 
f 1005 1001 1015 
f 1004 1005 1015 
f 1006 1004 1015 
f 1001 1010 1015 
f 1010 1006 1015 
f 1001 1007 1016 
f 1007 1003 1016 
f 1010 1001 1016 
o convex_59
v 0.068003 0.039178 0.073686
v 0.065687 0.020616 0.035025
v 0.068778 0.020616 0.035025
v 0.055632 0.050003 0.042764
v 0.054858 0.049231 0.072910
v 0.072643 0.020616 0.073686
v 0.071871 0.025261 0.045084
v 0.054858 0.039953 0.035025
v 0.057182 0.053095 0.073686
v 0.075740 0.022940 0.072910
v 0.061822 0.043043 0.042764
v 0.065687 0.020616 0.039669
v 0.062592 0.035314 0.035025
v 0.073418 0.020616 0.047404
v 0.068003 0.032993 0.042764
v 0.054858 0.053873 0.073686
v 0.071873 0.032221 0.072138
v 0.054858 0.044589 0.035025
v 0.054858 0.039953 0.038897
v 0.062592 0.046907 0.072138
v 0.061822 0.033765 0.062087
f 1021 1028 1037 
f 1018 1019 1022 
f 1019 1018 1024 
f 1022 1017 1025 
f 1017 1022 1026 
f 1018 1022 1028 
f 1024 1018 1028 
f 1019 1024 1029 
f 1022 1019 1030 
f 1019 1023 1030 
f 1026 1022 1030 
f 1023 1026 1030 
f 1023 1019 1031 
f 1027 1017 1031 
f 1019 1029 1031 
f 1029 1027 1031 
f 1021 1022 1032 
f 1024 1021 1032 
f 1025 1020 1032 
f 1022 1025 1032 
f 1017 1026 1033 
f 1026 1023 1033 
f 1023 1031 1033 
f 1031 1017 1033 
f 1020 1027 1034 
f 1029 1024 1034 
f 1027 1029 1034 
f 1032 1020 1034 
f 1024 1032 1034 
f 1021 1024 1035 
f 1028 1021 1035 
f 1024 1028 1035 
f 1025 1017 1036 
f 1020 1025 1036 
f 1017 1027 1036 
f 1027 1020 1036 
f 1022 1021 1037 
f 1028 1022 1037 
o convex_60
v -0.013204 -0.071426 0.035022
v 0.006131 -0.076836 0.072147
v 0.006131 -0.079158 0.072147
v -0.019392 -0.076836 0.072147
v -0.018618 -0.066010 0.035796
v 0.006131 -0.069878 0.035022
v -0.000057 -0.076836 0.042762
v 0.004582 -0.072970 0.065184
v -0.019392 -0.073741 0.072147
v -0.019392 -0.073741 0.042762
v -0.008564 -0.079158 0.071373
v 0.006131 -0.076063 0.041210
v -0.013204 -0.075288 0.042762
v 0.006131 -0.072970 0.035022
v 0.006131 -0.069878 0.038892
v -0.019392 -0.066010 0.035022
v 0.006131 -0.079158 0.066732
f 1044 1049 1054 
f 1040 1039 1041 
f 1039 1040 1043 
f 1041 1039 1046 
f 1039 1045 1046 
f 1045 1042 1046 
f 1041 1046 1047 
f 1040 1041 1048 
f 1043 1040 1049 
f 1038 1044 1050 
f 1047 1038 1050 
f 1041 1047 1050 
f 1048 1041 1050 
f 1044 1048 1050 
f 1038 1043 1051 
f 1044 1038 1051 
f 1043 1049 1051 
f 1049 1044 1051 
f 1039 1043 1052 
f 1043 1042 1052 
f 1045 1039 1052 
f 1042 1045 1052 
f 1042 1043 1053 
f 1043 1038 1053 
f 1046 1042 1053 
f 1038 1047 1053 
f 1047 1046 1053 
f 1040 1048 1054 
f 1048 1044 1054 
f 1049 1040 1054 
o convex_61
v 0.016965 -0.060593 -0.077126
v 0.032428 -0.042806 -0.075579
v 0.032428 -0.052090 -0.069393
v 0.002264 -0.042806 -0.070940
v 0.002264 -0.062913 -0.069393
v 0.012320 -0.042806 -0.078674
v 0.032428 -0.052860 -0.077899
v 0.002264 -0.061366 -0.073260
v 0.026239 -0.059046 -0.069393
v 0.013094 -0.055952 -0.078674
v 0.024692 -0.042806 -0.078674
v 0.002264 -0.042806 -0.073260
v 0.031654 -0.055952 -0.075579
v 0.012320 -0.062913 -0.069393
f 1063 1059 1068 
f 1057 1056 1058 
f 1057 1058 1059 
f 1058 1056 1060 
f 1056 1057 1061 
f 1055 1059 1062 
f 1059 1058 1062 
f 1057 1059 1063 
f 1061 1055 1064 
f 1055 1062 1064 
f 1062 1060 1064 
f 1060 1056 1065 
f 1056 1061 1065 
f 1061 1064 1065 
f 1064 1060 1065 
f 1058 1060 1066 
f 1062 1058 1066 
f 1060 1062 1066 
f 1055 1061 1067 
f 1061 1057 1067 
f 1063 1055 1067 
f 1057 1063 1067 
f 1059 1055 1068 
f 1055 1063 1068 
o convex_62
v -0.075076 -0.014193 0.069824
v -0.057292 -0.041259 0.035022
v -0.058068 -0.040483 0.035022
v -0.064253 -0.014193 0.035022
v -0.058068 -0.038935 0.064406
v -0.065796 -0.041259 0.072147
v -0.069663 -0.025017 0.042762
v -0.071984 -0.013419 0.072147
v -0.053424 -0.041259 0.038118
v -0.071210 -0.013419 0.040436
v -0.062706 -0.040483 0.042762
v -0.070438 -0.031977 0.071373
v -0.061932 -0.041259 0.072147
v -0.066572 -0.021924 0.035022
v -0.065027 -0.013419 0.039666
v -0.073529 -0.022698 0.072147
v -0.066570 -0.032751 0.041984
v -0.053424 -0.040483 0.035022
v -0.058068 -0.038163 0.063632
v -0.071984 -0.015741 0.043532
v -0.053424 -0.040483 0.038118
f 1083 1087 1089 
f 1070 1071 1072 
f 1074 1070 1077 
f 1069 1076 1078 
f 1071 1070 1079 
f 1070 1074 1079 
f 1073 1076 1081 
f 1076 1074 1081 
f 1077 1073 1081 
f 1074 1077 1081 
f 1072 1071 1082 
f 1078 1072 1082 
f 1075 1078 1082 
f 1072 1078 1083 
f 1078 1076 1083 
f 1076 1069 1084 
f 1074 1076 1084 
f 1075 1080 1084 
f 1080 1074 1084 
f 1071 1079 1085 
f 1079 1074 1085 
f 1080 1075 1085 
f 1074 1080 1085 
f 1082 1071 1085 
f 1075 1082 1085 
f 1070 1072 1086 
f 1077 1070 1086 
f 1076 1073 1087 
f 1083 1076 1087 
f 1078 1075 1088 
f 1069 1078 1088 
f 1084 1069 1088 
f 1075 1084 1088 
f 1073 1077 1089 
f 1072 1083 1089 
f 1086 1072 1089 
f 1077 1086 1089 
f 1087 1073 1089 
o convex_63
v -0.034088 0.064699 0.048173
v -0.051877 0.039181 0.035025
v -0.051102 0.039181 0.035025
v -0.051102 0.049236 0.067503
v -0.029447 0.064699 0.067503
v -0.029447 0.057737 0.035025
v -0.051877 0.050013 0.041209
v -0.048008 0.057737 0.067503
v -0.030222 0.061604 0.035025
v -0.029447 0.068566 0.067503
v -0.041821 0.059285 0.042758
v -0.047235 0.050013 0.035025
v -0.051877 0.053873 0.067503
v -0.029447 0.057737 0.039664
v -0.051102 0.039958 0.039664
v -0.029447 0.065473 0.041982
v -0.041821 0.062375 0.066730
v -0.051102 0.048465 0.066730
f 1104 1094 1107 
f 1092 1091 1095 
f 1093 1094 1097 
f 1095 1091 1098 
f 1094 1095 1099 
f 1097 1094 1099 
f 1096 1097 1100 
f 1100 1098 1101 
f 1091 1096 1101 
f 1098 1091 1101 
f 1096 1100 1101 
f 1096 1091 1102 
f 1093 1097 1102 
f 1097 1096 1102 
f 1092 1095 1103 
f 1095 1094 1103 
f 1091 1092 1104 
f 1092 1103 1104 
f 1103 1094 1104 
f 1095 1098 1105 
f 1099 1095 1105 
f 1090 1099 1105 
f 1100 1090 1105 
f 1098 1100 1105 
f 1099 1090 1106 
f 1097 1099 1106 
f 1100 1097 1106 
f 1090 1100 1106 
f 1094 1093 1107 
f 1102 1091 1107 
f 1093 1102 1107 
f 1091 1104 1107 
o convex_64
v 0.055633 -0.053632 0.041212
v 0.071873 -0.034298 0.069826
v 0.068776 -0.034298 0.069826
v 0.064909 -0.034298 0.035022
v 0.044803 -0.054404 0.038118
v 0.054090 -0.055181 0.069826
v 0.064136 -0.035848 0.065183
v 0.066457 -0.045126 0.069049
v 0.067228 -0.038940 0.042759
v 0.061820 -0.034298 0.040445
v 0.049445 -0.055181 0.035022
v 0.057951 -0.055181 0.069826
v 0.061043 -0.048221 0.042759
v 0.060272 -0.035848 0.035022
v 0.061046 -0.042033 0.035022
v 0.069549 -0.035073 0.045852
v 0.044803 -0.055181 0.035022
v 0.054090 -0.054404 0.069826
v 0.054861 -0.055181 0.042759
v 0.060267 -0.052857 0.066729
f 1119 1126 1127 
f 1110 1109 1111 
f 1109 1110 1113 
f 1110 1111 1117 
f 1114 1110 1117 
f 1112 1114 1117 
f 1113 1118 1119 
f 1109 1113 1119 
f 1115 1109 1119 
f 1116 1115 1120 
f 1117 1111 1121 
f 1112 1117 1121 
f 1111 1118 1121 
f 1111 1116 1122 
f 1108 1118 1122 
f 1118 1111 1122 
f 1120 1108 1122 
f 1116 1120 1122 
f 1111 1109 1123 
f 1109 1115 1123 
f 1116 1111 1123 
f 1115 1116 1123 
f 1113 1112 1124 
f 1118 1113 1124 
f 1112 1121 1124 
f 1121 1118 1124 
f 1113 1110 1125 
f 1112 1113 1125 
f 1110 1114 1125 
f 1114 1112 1125 
f 1118 1108 1126 
f 1119 1118 1126 
f 1108 1120 1126 
f 1126 1120 1127 
f 1115 1119 1127 
f 1120 1115 1127 
